<svg width="246" height="105" viewBox="0 0 246 105" fill="none" xmlns="http://www.w3.org/2000/svg">
<g filter="url(#filter0_d_367_1384)">
<path d="M11.4761 76.9627C10.3174 75.2891 8 67.6546 8 52.8234C8 37.9923 10.3174 30.3578 11.4761 28.6841L14.9521 24.6287C15.0165 23.8563 15.7246 21.6934 18.0419 19.2215C20.9386 16.1317 27.8907 9.37271 34.0704 8.98648C40.25 8.60026 64.7755 8.21406 78.8729 8.21405C88.9148 8.21405 104.557 8.9865 131.014 8.9865C157.47 8.9865 170.988 8.40714 181.416 8.40714C191.845 8.40713 200.149 8.60025 204.976 9.17959C209.804 9.75894 217.722 11.6901 218.108 12.0763C223.515 13.0419 228.536 14.0074 231.819 20.1871C235.102 26.3667 238.578 39.8848 238.578 52.8234C238.578 65.7621 235.102 79.2801 231.819 85.4597C228.536 91.6394 223.515 92.6049 218.108 93.5705C217.722 93.9567 209.804 95.8879 204.976 96.4672C200.149 97.0466 191.845 97.2397 181.416 97.2397C170.988 97.2397 157.47 96.6603 131.014 96.6603C104.557 96.6603 88.9148 97.4328 78.8729 97.4328C64.7755 97.4328 40.2501 97.0466 34.0704 96.6604C27.8908 96.2741 20.9386 89.5151 18.0419 86.4253C15.7246 83.9534 15.0165 81.7906 14.9521 81.0181L11.4761 76.9627Z" fill="url(#paint0_radial_367_1384)" fill-opacity="0.97" shape-rendering="crispEdges"/>
<path d="M11.4761 76.9627C10.3174 75.2891 8 67.6546 8 52.8234C8 37.9923 10.3174 30.3578 11.4761 28.6841L14.9521 24.6287C15.0165 23.8563 15.7246 21.6934 18.0419 19.2215C20.9386 16.1317 27.8907 9.37271 34.0704 8.98648C40.25 8.60026 64.7755 8.21406 78.8729 8.21405C88.9148 8.21405 104.557 8.9865 131.014 8.9865C157.47 8.9865 170.988 8.40714 181.416 8.40714C191.845 8.40713 200.149 8.60025 204.976 9.17959C209.804 9.75894 217.722 11.6901 218.108 12.0763C223.515 13.0419 228.536 14.0074 231.819 20.1871C235.102 26.3667 238.578 39.8848 238.578 52.8234C238.578 65.7621 235.102 79.2801 231.819 85.4597C228.536 91.6394 223.515 92.6049 218.108 93.5705C217.722 93.9567 209.804 95.8879 204.976 96.4672C200.149 97.0466 191.845 97.2397 181.416 97.2397C170.988 97.2397 157.47 96.6603 131.014 96.6603C104.557 96.6603 88.9148 97.4328 78.8729 97.4328C64.7755 97.4328 40.2501 97.0466 34.0704 96.6604C27.8908 96.2741 20.9386 89.5151 18.0419 86.4253C15.7246 83.9534 15.0165 81.7906 14.9521 81.0181L11.4761 76.9627Z" stroke="url(#paint1_linear_367_1384)" stroke-width="0.772457" shape-rendering="crispEdges"/>
</g>
<path d="M82.1555 12.6557L78.4863 8.02094L131.4 8.79339L131.4 9.75896M82.1555 12.6557L89.6869 12.6557M82.1555 12.6557L83.9579 15.3593M132.945 14.973L135.841 23.0838L131.593 23.0838M132.945 14.973L132.751 14.0075M132.945 14.973C131.405 14.973 129.663 14.9591 127.73 14.9427M132.068 11.8832L132.365 12.6557L132.751 14.0075M132.068 11.8832L131.4 10.1452L131.4 9.75896M132.068 11.8832L96.8322 12.0763M83.9579 15.3593L84.0866 15.5524L85.8247 15.5524C86.048 15.649 86.3066 15.7573 86.5971 15.8754M83.9579 15.3593C97.0253 14.2006 123.385 14.0075 132.751 14.0075M86.5971 15.8754C89.4049 17.0166 95.2005 19.0671 101.081 20.1871C107.569 21.4231 123.997 22.6332 131.4 23.0838L131.593 23.0838M86.5971 15.8754C104.091 14.7198 118.223 14.8617 127.73 14.9427M127.73 14.9427L131.593 23.0838M131.4 9.75896C130.694 9.78834 129.651 9.83919 128.696 9.90048M126.379 10.1452C125.992 10.3383 124.447 10.5314 123.868 10.5314C123.578 10.5314 122.275 10.3383 120.971 10.1452M126.379 10.1452C126.547 10.0612 127.559 9.97345 128.696 9.90048M126.379 10.1452C125.928 9.95207 124.795 9.56585 123.868 9.56585C122.941 9.56585 121.551 9.95207 120.971 10.1452M119.04 9.8656C118.566 9.80106 118.21 9.75896 118.075 9.75896C117.495 9.75896 112.088 9.17962 111.702 8.9865C111.393 8.83201 116.465 9.50819 119.04 9.8656ZM119.04 9.8656C120.006 9.19977 121.937 8.9865 124.254 8.9865C125.49 8.9865 127.73 9.59582 128.696 9.90048M119.04 9.8656C119.582 9.93929 120.277 10.0422 120.971 10.1452" stroke="url(#paint2_linear_367_1384)" stroke-opacity="0.26" stroke-width="0.386228"/>
<path d="M82.1555 92.9912L78.4863 97.6259L131.4 96.8535L131.4 95.8879M82.1555 92.9912L89.6869 93.1843M82.1555 92.9912L83.9579 90.2876M132.945 90.6738L135.841 82.563L131.593 82.563M132.945 90.6738L132.751 91.6394M132.945 90.6738C131.405 90.6738 129.663 90.6877 127.73 90.7042M89.6869 93.1843L91.425 94.7292M89.6869 93.1843C89.9444 92.7981 90.6525 92.0256 91.425 92.0256L93.9355 92.0256L94.1679 92.6286M132.068 93.7636L132.365 92.9912L132.751 91.6394M132.068 93.7636L131.4 95.5017L131.4 95.8879M132.068 93.7636L96.8322 93.5705L96.6883 93.5705M83.9579 90.2876L84.0866 90.0945L85.8247 90.0945C86.048 89.9979 86.3066 89.8895 86.5971 89.7714M83.9579 90.2876C97.0253 91.4463 123.385 91.6394 132.751 91.6394M86.5971 89.7714C89.4049 88.6302 95.2005 86.5798 101.081 85.4597C107.569 84.2238 123.997 83.0136 131.4 82.563L131.593 82.563M86.5971 89.7714C103.812 90.9087 117.772 90.7893 127.273 90.7081L127.73 90.7042M127.73 90.7042L131.593 82.563M131.4 95.8879C130.694 95.8585 129.651 95.8077 128.696 95.7464M126.379 95.5017C125.992 95.3085 124.447 95.1154 123.868 95.1154C123.578 95.1154 122.275 95.3085 120.971 95.5017M126.379 95.5017C126.547 95.5856 127.559 95.6734 128.696 95.7464M126.379 95.5017C125.928 95.6948 124.795 96.081 123.868 96.081C122.941 96.081 121.551 95.6948 120.971 95.5017M119.04 95.7813C118.566 95.8458 118.21 95.8879 118.075 95.8879C117.495 95.8879 112.088 96.4672 111.702 96.6603C111.393 96.8148 116.465 96.1387 119.04 95.7813ZM119.04 95.7813C120.006 96.4471 121.937 96.6603 124.254 96.6603C125.49 96.6603 127.73 96.051 128.696 95.7464M119.04 95.7813C119.582 95.7076 120.277 95.6046 120.971 95.5017M91.425 94.7292C91.6825 95.8879 92.545 98.5529 93.9355 99.9433C95.0922 101.1 97.3095 101.981 98.7633 102.429M91.425 94.7292C91.6181 94.2142 92.1974 93.107 92.9699 92.7981C93.2555 92.6838 93.6906 92.6365 94.1679 92.6286M94.1679 92.6286C94.6643 92.6205 95.2064 92.6551 95.6735 92.7018M98.7633 102.429C99.0569 102.52 99.3194 102.593 99.5358 102.647L96.6883 93.5705M98.7633 102.429L95.6735 92.7018M95.6735 92.7018C95.9722 92.7316 96.2402 92.7664 96.4459 92.7981L96.6883 93.5705" stroke="url(#paint3_linear_367_1384)" stroke-opacity="0.26" stroke-width="0.386228"/>
<path d="M91.4255 10.9176L89.6875 12.4626C89.945 12.8488 90.6531 13.6212 91.4255 13.6212C92.198 13.6212 93.421 13.6212 93.936 13.6212L94.1685 13.0182M91.4255 10.9176C91.683 9.75896 92.5456 7.09399 93.936 5.70357C95.0928 4.54678 97.31 3.66624 98.7639 3.21764M91.4255 10.9176C91.6186 11.4326 92.198 12.5398 92.9704 12.8488C93.256 12.963 93.6911 13.0104 94.1685 13.0182M94.1685 13.0182C94.6649 13.0263 95.207 12.9917 95.674 12.9451M98.7639 3.21764C99.0575 3.12704 99.32 3.05405 99.5363 2.99997L96.4465 12.8488C96.2407 12.8804 95.9727 12.9152 95.674 12.9451M98.7639 3.21764L95.674 12.9451" stroke="white" stroke-opacity="0.26" stroke-width="0.386228"/>
<path d="M14.759 76.1902C14.1797 74.066 12.0554 63.2516 11.8623 52.8234C12.0554 42.3953 14.1797 31.5809 14.759 29.4566M14.759 76.1902C11.6692 75.0316 10.3174 74.066 10.3174 74.066M14.759 76.1902C24.9941 78.985 50.2534 85.3582 69.4103 88.4932M14.759 76.1902C15.0506 77.2593 15.44 78.6219 15.9026 79.8594M24.8009 88.9358C22.7411 87.2621 18.9689 84.0693 18.0419 83.1423C17.4664 82.5668 16.3591 81.0809 15.9026 79.8594M24.8009 88.9358L52.4163 88.9358M24.8009 88.9358C24.9238 88.9855 25.0528 89.0372 25.1872 89.0908M52.4163 88.9358C56.6004 89.1289 65.1232 89.5151 65.7411 89.5151M52.4163 88.9358L15.9026 79.8594M65.7411 89.5151C66.2297 89.5151 68.0382 88.9518 69.4103 88.4932M65.7411 89.5151C68.3804 90.1588 74.045 91.5235 75.59 91.8325C77.1349 92.1415 80.6109 92.7337 82.1558 92.9912M70.3759 88.3564C67.9298 85.2022 63.0375 72.9073 63.0375 52.8234C63.0375 32.7396 67.9298 20.4446 70.3759 17.2904M70.3759 88.3564L69.4103 88.4932M70.3759 88.3564C71.2127 88.6783 82.5421 89.5151 82.5421 89.5151M22.4836 90.6738C23.8354 91.8325 28.8563 93.3774 30.2081 93.5705C30.7817 93.6524 35.2291 94.7292 35.4222 94.7292C35.5021 94.7292 35.846 94.6302 36.1947 94.4185M25.1872 89.0908C28.3613 90.3569 34.5957 92.6498 36.9671 92.7981C36.9671 93.1843 36.9669 93.4823 36.774 93.7636M25.1872 89.0908L25.1872 90.0945M25.1872 90.8669C23.1917 89.7082 18.5827 86.1936 16.1108 82.1768C15.6473 81.5588 15.1452 81.1468 14.9521 81.0181M25.1872 90.8669L25.1872 90.0945M25.1872 90.8669C27.1827 92.0256 31.9462 93.3774 36.1947 94.4185M36.774 93.7636C34.3182 93.2781 28.586 91.7939 25.1872 90.0945M36.774 93.7636L36.773 93.7651C36.614 93.9969 36.4178 94.283 36.1947 94.4185M82.5421 89.5151C82.5421 89.5151 83.7008 89.7082 84.087 90.0945M82.5421 89.5151C82.1593 89.2715 81.4004 88.8173 80.4178 88.2805M80.4178 88.2805C79.5826 87.8243 78.5858 87.3084 77.5211 86.8115C74.6244 85.4597 71.1483 82.1768 69.9896 80.6319C68.831 79.087 64.5825 71.3624 64.5825 52.8234C64.5825 34.2845 68.831 26.5599 69.9896 25.015C71.1483 23.4701 74.6244 20.1871 77.5211 18.8353C78.5858 18.3385 79.5826 17.8226 80.4178 17.3663M80.4178 88.2805C90.945 85.5345 96.3229 83.3961 108.226 82.0169M199.183 78.5076C185.601 78.8938 152.604 79.8594 129.276 80.6319C120.237 80.9312 113.573 81.3974 108.226 82.0169M199.183 78.5076L199.183 77.3489M199.183 78.5076C199.183 79.1276 199.67 79.7069 200.683 80.2456M199.183 77.3489C181.803 77.8639 143.489 78.9711 129.276 79.2801C115.062 79.589 108.934 80.31 107.647 80.6319M199.183 77.3489L199.183 71.3624M107.647 80.6319C106.166 75.6753 103.205 62.5564 103.205 52.8234C103.205 43.0905 106.166 29.9716 107.647 25.015M107.647 80.6319L108.226 82.0169M200.683 80.2456C201.877 80.8816 203.803 81.4609 206.521 81.9837C210.186 82.6884 214.16 82.9817 217.541 82.563M200.683 80.2456C208.839 77.3489 211.452 75.6109 213.86 66.5345C215.405 60.7114 215.405 54.3683 215.405 52.8234C215.405 51.2785 215.405 44.9355 213.86 39.1123C211.452 30.036 208.839 28.2979 200.682 25.4012M199.183 71.3624C201.307 71.5555 202.852 71.7486 204.397 71.9417L204.397 67.307C202.852 66.8435 200.277 66.5989 199.183 66.5345M199.183 71.3624L199.183 66.5345M199.183 66.5345L199.183 39.1123M217.541 82.563C217.086 82.1768 216.023 81.3657 215.405 81.2112C214.632 81.0181 210.77 80.0525 209.032 79.4732C207.294 78.8938 209.225 77.3489 209.611 76.7696C209.92 76.3061 210.77 75.1603 211.156 74.6453C212.894 75.289 217.065 76.6537 219.846 76.9627C223.322 77.3489 226.605 77.3489 228.536 72.5211C230.467 67.6932 231.047 60.3549 231.047 52.8234C231.047 45.292 230.467 37.9536 228.536 33.1258C226.605 28.2979 223.322 28.2979 219.846 28.6842C217.065 28.9931 212.894 30.3578 211.156 31.0015C210.77 30.4866 209.92 29.3407 209.611 28.8773C209.225 28.2979 207.294 26.753 209.032 26.1737C210.77 25.5943 214.632 24.6288 215.405 24.4356C216.023 24.2812 217.086 23.4701 217.541 23.0838M217.541 82.563C218.558 82.437 219.521 82.2467 220.407 81.9837M217.541 82.563L219.176 84.2045M220.407 81.9837C220.61 81.9232 220.81 81.8588 221.005 81.7905C225.447 80.236 232.785 74.2591 233.171 63.4447C233.364 58.0375 233.364 52.8234 233.364 52.8234C233.364 52.8234 233.364 47.6093 233.171 42.2021C232.785 31.3878 225.447 25.4109 221.005 23.8563C220.81 23.788 220.61 23.7237 220.407 23.6632M220.407 81.9837C227.571 76.9627 229.336 75.2076 231.047 68.0794C232.206 63.2516 232.206 54.7546 232.206 52.8234C232.206 50.8923 232.206 42.3953 231.047 37.5674C229.336 30.4392 227.571 28.6842 220.407 23.6632M219.176 84.2045L220.812 85.8459M219.176 84.2045C215.988 85.331 207.178 87.6998 197.445 88.1633M220.812 85.8459C218.907 87.0669 214.535 89.2809 209.432 90.4807M220.812 85.8459C222.745 84.6646 224.499 83.4235 226.206 81.7905M197.445 88.1633C200.035 86.9274 201.099 85.8459 201.307 85.4597C200.975 85.3536 200.586 85.2357 200.149 85.1101M197.445 88.1633C191.574 89.3992 185.343 89.837 182.961 89.9013M182.575 88.9358L174.658 82.563L184.12 82.563C189.895 82.563 196.609 84.0928 200.149 85.1101M182.575 88.9358C185.408 88.8714 191.806 88.5495 194.741 87.7771C197.677 87.0046 199.569 85.6772 200.149 85.1101M182.575 88.9358L182.961 89.9013M182.961 89.9013L184.12 92.2187M184.12 92.2187C187.918 92.09 197.29 91.7166 204.397 91.2531C206.112 91.1413 207.809 90.8623 209.432 90.4807M184.12 92.2187L183.348 94.5361C193.583 94.1498 201.887 93.7636 209.032 93.3774M209.032 93.3774C211.658 91.678 213.345 90.7382 213.86 90.4807M209.032 93.3774C206.405 94.7678 204.848 96.1454 204.397 96.6603M213.86 90.4807L209.432 90.4807M213.86 90.4807C215.405 89.7082 219.46 89.7082 222.357 87.7771C224.543 86.3192 226.18 83.8709 227.266 82.1768M213.86 90.4807C216.944 90.4807 219.907 90.2547 222.743 88.9358M231.819 76.1902C233.042 74.4522 235.527 69.4699 235.682 63.4447C235.836 57.4195 235.875 52.8234 235.875 52.8234C235.875 52.8234 235.836 48.2273 235.682 42.2021C235.527 36.177 233.042 31.1946 231.819 29.4566M231.819 76.1902C231.37 76.7364 230.647 77.6225 229.94 78.5076M231.819 76.1902C231.284 77.6047 230.254 80.0772 229.085 82.3699M222.743 88.9358C223.991 88.3552 225.64 87.3909 226.605 86.4253C227.52 85.5107 228.285 83.9377 229.085 82.3699M222.743 88.9358C225.253 86.8115 226.605 85.4597 227.764 83.1423C227.893 82.8832 228.023 82.621 228.15 82.3596M229.94 78.5076C229.231 79.3959 228.537 80.2833 228.15 80.825C227.913 81.1563 227.619 81.6268 227.266 82.1768M229.94 78.5076C229.648 79.1721 228.934 80.7511 228.15 82.3596M229.085 82.3699L228.15 82.3596M229.085 82.3699C229.305 82.3699 229.692 82.3611 230.155 82.335M228.15 82.3596L227.266 82.1768M227.266 82.1768L226.206 81.7905M226.206 81.7905C227.569 80.4872 228.903 78.9342 230.274 76.9627C233.364 72.5211 234.523 68.4657 234.523 52.8234C234.523 37.1812 233.364 33.1258 230.274 28.6842C228.903 26.7126 227.569 25.1596 226.206 23.8563M233.557 81.9837C233.429 81.9837 232.901 82.0223 231.819 82.1768C231.255 82.2574 230.66 82.3065 230.155 82.335M230.155 82.335C231.546 80.0936 234.562 74.6067 235.488 70.5899C236.647 65.569 237.226 58.2306 237.226 52.8234C237.226 47.4162 236.647 40.0779 235.488 35.0569C234.562 31.0401 231.546 25.5532 230.155 23.3118M230.155 82.335C229.085 84.2045 228.923 84.6873 226.991 87.3909C225.06 90.0944 219.267 92.798 218.108 93.3774M224.674 91.8325C225.494 91.06 227.413 89.2447 228.536 88.1633C229.66 87.0819 231.45 85.0735 232.206 84.2045M14.759 29.4566C11.6692 30.6153 10.3174 31.5809 10.3174 31.5809M14.759 29.4566C24.9941 26.6619 50.2534 20.2886 69.4103 17.1537M14.759 29.4566C15.0506 28.3875 15.44 27.025 15.9026 25.7875M24.8009 16.7111C22.7411 18.3847 18.9689 21.5776 18.0419 22.5045C17.4664 23.0801 16.3591 24.566 15.9026 25.7875M24.8009 16.7111L52.4163 16.7111M24.8009 16.7111C24.9238 16.6614 25.0528 16.6096 25.1872 16.556M52.4163 16.7111C56.6004 16.518 65.1232 16.1317 65.7411 16.1317M52.4163 16.7111L15.9026 25.7875M65.7411 16.1317C66.2297 16.1317 68.0382 16.6951 69.4103 17.1537M65.7411 16.1317C68.3804 15.488 74.045 14.1234 75.59 13.8144C77.1349 13.5054 80.6109 12.9132 82.1558 12.6557M70.3759 17.2904L69.4103 17.1537M70.3759 17.2904C71.2127 16.9686 82.5421 16.1317 82.5421 16.1317M22.4836 14.9731C23.8354 13.8144 28.8563 12.2695 30.2081 12.0763C30.7817 11.9944 35.2291 10.9177 35.4222 10.9177C35.5021 10.9177 35.846 11.0167 36.1947 11.2284M25.1872 16.556C28.3613 15.29 34.5957 12.997 36.9671 12.8488C36.9671 12.4626 36.9669 12.1645 36.774 11.8832M25.1872 16.556L25.1872 15.5524M25.1872 14.7799C23.1917 15.9386 18.5827 19.4533 16.1108 23.4701C15.6473 24.088 15.1452 24.5 14.9521 24.6288M25.1872 14.7799L25.1872 15.5524M25.1872 14.7799C27.1827 13.6213 31.9462 12.2695 36.1947 11.2284M36.774 11.8832C34.3182 12.3688 28.586 13.853 25.1872 15.5524M36.774 11.8832L36.773 11.8818C36.614 11.65 36.4178 11.3639 36.1947 11.2284M82.5421 16.1317C82.5421 16.1317 83.7007 15.9386 84.087 15.5524M82.5421 16.1317C82.1593 16.3753 81.4004 16.8295 80.4178 17.3663M80.4178 17.3663C90.945 20.1123 96.3229 22.2508 108.226 23.6299M199.183 27.1392C185.601 26.753 152.604 25.7874 129.276 25.015C120.237 24.7157 113.573 24.2494 108.226 23.6299M199.183 27.1392L199.183 28.2979M199.183 27.1392C199.183 26.5193 199.67 25.9399 200.682 25.4012M199.183 28.2979C181.803 27.783 143.489 26.6758 129.276 26.3668C115.062 26.0578 108.934 25.3368 107.647 25.015M199.183 28.2979L199.183 34.2845M107.647 25.015L108.226 23.6299M200.682 25.4012C201.877 24.7653 203.803 24.1859 206.521 23.6632C210.186 22.9584 214.16 22.6652 217.541 23.0838M199.183 34.2845C201.307 34.0914 202.852 33.8982 204.397 33.7051L204.397 38.3399C202.852 38.8033 200.277 39.0479 199.183 39.1123M199.183 34.2845L199.183 39.1123M217.541 23.0838C218.558 23.2098 219.521 23.4002 220.407 23.6632M217.541 23.0838L219.176 21.4424M219.176 21.4424L220.812 19.8009M219.176 21.4424C215.988 20.3159 207.178 17.947 197.445 17.4835M220.812 19.8009C218.907 18.58 214.535 16.366 209.432 15.1662M220.812 19.8009C222.745 20.9823 224.499 22.2233 226.206 23.8563M197.445 17.4835C200.035 18.7195 201.099 19.8009 201.307 20.1871C200.975 20.2933 200.586 20.4111 200.149 20.5368M197.445 17.4835C191.574 16.2476 185.343 15.8099 182.961 15.7455M182.575 16.7111L174.658 23.0838L184.12 23.0838C189.895 23.0838 196.609 21.554 200.149 20.5368M182.575 16.7111C185.408 16.7755 191.806 17.0973 194.741 17.8698C197.677 18.6422 199.569 19.9696 200.149 20.5368M182.575 16.7111L182.961 15.7455M182.961 15.7455L184.12 13.4281M184.12 13.4281C187.918 13.5569 197.29 13.9302 204.397 14.3937C206.112 14.5056 207.809 14.7846 209.432 15.1662M184.12 13.4281L183.348 11.1108C193.583 11.497 201.887 11.8832 209.032 12.2695M209.032 12.2695C211.658 13.9689 213.345 14.9087 213.86 15.1662M209.032 12.2695C206.405 10.879 204.848 9.50149 204.397 8.98652M213.86 15.1662L209.432 15.1662M213.86 15.1662C215.405 15.9386 219.46 15.9386 222.357 17.8698C224.543 19.3276 226.18 21.776 227.266 23.4701M213.86 15.1662C216.944 15.1662 219.907 15.3922 222.743 16.7111M231.819 29.4566C231.37 28.9104 230.647 28.0244 229.94 27.1392M231.819 29.4566C231.284 28.0421 230.254 25.5697 229.085 23.277M222.743 16.7111C223.991 17.2917 225.64 18.256 226.605 19.2216C227.52 20.1362 228.285 21.7092 229.085 23.277M222.743 16.7111C225.253 18.8353 226.605 20.1871 227.764 22.5045C227.893 22.7637 228.023 23.0258 228.15 23.2872M229.94 27.1392C229.231 26.2509 228.537 25.3636 228.15 24.8219C227.913 24.4906 227.619 24.0201 227.266 23.4701M229.94 27.1392C229.648 26.4748 228.934 24.8957 228.15 23.2872M229.085 23.277L228.15 23.2872M229.085 23.277C229.305 23.277 229.692 23.2858 230.155 23.3118M228.15 23.2872L227.266 23.4701M227.266 23.4701L226.206 23.8563M233.557 23.6632C233.429 23.6632 232.901 23.6246 231.819 23.4701C231.255 23.3894 230.66 23.3403 230.155 23.3118M230.155 23.3118C229.085 21.4424 228.923 20.9596 226.991 18.256C225.06 15.5524 219.267 12.8488 218.108 12.2695M224.674 13.8144C225.494 14.5868 227.413 16.4021 228.536 17.4835C229.66 18.565 231.45 20.5734 232.206 21.4424" stroke="url(#paint4_linear_367_1384)" stroke-opacity="0.26" stroke-width="0.386228"/>
<path d="M70.9558 80.4387C74.4318 84.6873 78.4872 86.039 81.9633 86.4253C85.0531 85.8459 100.309 82.7561 102.626 81.7905C104.944 80.825 105.716 80.6319 104.751 76.1902C103.785 71.7486 103.013 66.7276 102.82 64.9896C102.626 63.2516 101.275 62.0929 98.9573 61.5136C96.64 60.9342 93.1639 59.7755 91.8121 58.81C90.4603 57.8444 90.4603 54.5615 90.4603 52.8234C90.4603 51.0854 90.4603 47.8025 91.8121 46.8369C93.1639 45.8713 96.64 44.7126 98.9573 44.1333C101.275 43.5539 102.626 42.3953 102.82 40.6572C103.013 38.9192 103.785 33.8982 104.751 29.4566C105.716 25.015 104.944 24.8219 102.626 23.8563C100.309 22.8907 85.0531 19.8009 81.9633 19.2216C78.4872 19.6078 74.4318 20.9596 70.9558 25.2081C67.4797 29.4566 65.3555 43.9402 65.3555 52.8234C65.3555 61.7067 67.4797 76.1902 70.9558 80.4387Z" fill="#111111" stroke="white" stroke-opacity="0.26" stroke-width="0.386228"/>
<path d="M182.575 88.9357L174.658 82.563L170.023 82.563M182.575 88.9357L183.155 90.0944M182.575 88.9357C181.341 89.068 179.766 89.194 177.941 89.3134M183.155 90.0944L184.12 92.2187M183.155 90.0944C169.067 90.6738 139.246 91.7938 132.669 91.6393M184.12 92.2187C172.842 92.9911 150.712 92.9268 141.056 92.798M184.12 92.2187C184.005 92.5061 183.695 93.2968 183.3 94.3429M132.945 90.6738L135.842 82.563L138.738 82.563M132.945 90.6738L137 90.6738M132.945 90.6738L132.669 91.6393M138.738 82.563L137 90.6738M138.738 82.563L170.023 82.563M137 90.6738C145.463 90.5327 161.259 90.1651 172.533 89.6159M170.023 82.563L173.421 85.4597M177.941 89.3134C176.316 89.4196 174.493 89.5205 172.533 89.6159M177.941 89.3134L173.421 85.4597M172.533 89.6159L173.421 85.4597M132.669 91.6393L132.448 92.4118M132.044 93.7636L131.593 95.1154L131.465 95.6947M132.044 93.7636L132.173 93.3774L132.448 92.4118M132.044 93.7636L146.463 93.7636L141.056 92.798M141.056 92.798L132.448 92.4118M183.3 94.3429C183.253 94.4682 183.204 94.597 183.155 94.7292C182.691 95.9651 181.803 96.9178 181.417 97.2397L162.492 96.8534L145.497 96.8534L131.207 96.8534L131.465 95.6947M183.3 94.3429L180.258 94.3429C180.194 94.3292 180.123 94.3145 180.047 94.299M131.465 95.6947C142.536 95.6947 168.864 94.7292 170.023 94.7292C170.19 94.7292 170.385 94.7091 170.602 94.6748M170.602 94.6748C171.246 95.0791 173.074 95.8879 175.237 95.8879C177.941 95.8879 179.449 94.8343 180.047 94.299M170.602 94.6748C171.24 94.5741 172.07 94.3504 172.946 94.1498M180.047 94.299C179.587 94.2059 178.917 94.085 178.188 93.9817M178.188 93.9817C177.333 93.8606 176.398 93.7636 175.623 93.7636C174.787 93.7636 173.843 93.9446 172.946 94.1498M178.188 93.9817C178.105 94.1665 177.477 94.5747 175.623 94.7292C173.769 94.8837 173.066 94.4073 172.946 94.1498" stroke="url(#paint5_linear_367_1384)" stroke-opacity="0.26" stroke-width="0.386228"/>
<path d="M182.575 16.7111L174.658 23.0839L170.023 23.0839M182.575 16.7111L183.155 15.5524M182.575 16.7111C181.341 16.5788 179.766 16.4528 177.941 16.3335M183.155 15.5524L184.12 13.4282M183.155 15.5524C169.067 14.9731 139.246 13.853 132.669 14.0075M184.12 13.4282C172.842 12.6557 150.712 12.7201 141.056 12.8488M184.12 13.4282C184.005 13.1407 183.695 12.3501 183.3 11.3039M132.945 14.9731L135.842 23.0839L138.738 23.0839M132.945 14.9731L137 14.9731M132.945 14.9731L132.669 14.0075M138.738 23.0839L137 14.9731M138.738 23.0839L170.023 23.0839M137 14.9731C145.463 15.1141 161.259 15.4818 172.533 16.0309M170.023 23.0839L173.421 20.1872M177.941 16.3335C176.316 16.2273 174.493 16.1264 172.533 16.0309M177.941 16.3335L173.421 20.1872M172.533 16.0309L173.421 20.1872M132.669 14.0075L132.448 13.235M132.044 11.8833L131.593 10.5315L131.465 9.95211M132.044 11.8833L132.173 12.2695L132.448 13.235M132.044 11.8833L146.463 11.8832L141.056 12.8488M141.056 12.8488L132.448 13.235M183.3 11.3039C183.253 11.1787 183.204 11.0498 183.155 10.9177C182.691 9.68175 181.803 8.72905 181.417 8.40719L162.492 8.79342L145.497 8.79342L131.207 8.79342L131.465 9.95211M183.3 11.3039L180.258 11.3039C180.194 11.3177 180.123 11.3324 180.047 11.3479M131.465 9.95211C142.536 9.95211 168.864 10.9177 170.023 10.9177C170.19 10.9177 170.385 10.9377 170.602 10.9721M170.602 10.9721C171.246 10.5677 173.074 9.75899 175.237 9.75899C177.941 9.75899 179.449 10.8125 180.047 11.3479M170.602 10.9721C171.24 11.0728 172.07 11.2965 172.946 11.497M180.047 11.3479C179.587 11.441 178.917 11.5618 178.188 11.6652M178.188 11.6652C177.333 11.7862 176.398 11.8832 175.623 11.8832C174.787 11.8832 173.843 11.7023 172.946 11.497M178.188 11.6652C178.105 11.4804 177.477 11.0722 175.623 10.9177C173.769 10.7632 173.066 11.2395 172.946 11.497" stroke="url(#paint6_linear_367_1384)" stroke-opacity="0.26" stroke-width="0.386228"/>
<path d="M185.472 52.8234C185.729 53.2097 186.785 54.0208 188.948 54.1752C189.711 54.2298 190.544 54.1416 191.352 53.9821M194.707 52.9265C194.789 52.8905 194.865 52.856 194.934 52.8234L194.707 52.9265ZM194.707 52.9265C193.953 53.2586 192.688 53.7182 191.352 53.9821M194.707 52.9265L194.707 54.0718C193.682 54.0419 191.576 53.9821 191.352 53.9821" stroke="white" stroke-opacity="0.26" stroke-width="0.386228"/>
<path d="M185.472 52.8233C185.729 52.4371 186.785 51.626 188.948 51.4715C189.711 51.417 190.544 51.5052 191.352 51.6647M194.707 52.7203C194.789 52.7563 194.865 52.7908 194.934 52.8233L194.707 52.7203ZM194.707 52.7203C193.953 52.3882 192.688 51.9286 191.352 51.6647M194.707 52.7203L194.707 51.575C193.682 51.6049 191.576 51.6647 191.352 51.6647" stroke="white" stroke-opacity="0.26" stroke-width="0.386228"/>
<path d="M11.4824 75.1834C10.3216 73.5067 8 65.8583 8 51C8 36.1417 10.3216 28.4933 11.4824 26.8166L14.9648 22.7537C15.0293 21.9799 15.7387 19.813 18.0603 17.3367C20.9623 14.2412 27.9271 7.46983 34.1181 7.08289C40.309 6.69596 64.8794 6.30904 79.0025 6.30904C89.0628 6.30904 104.734 7.08291 131.239 7.08291C157.744 7.08291 171.286 6.50249 181.734 6.50249C192.181 6.50249 200.5 6.69596 205.337 7.27636C210.173 7.85677 218.106 9.79144 218.492 10.1784C223.91 11.1457 228.94 12.113 232.229 18.304C235.518 24.4949 239 38.0377 239 51C239 63.9623 235.518 77.505 232.229 83.696C228.94 89.887 223.91 90.8543 218.492 91.8216C218.106 92.2086 210.173 94.1432 205.337 94.7236C200.5 95.304 192.181 95.4975 181.734 95.4975C171.286 95.4975 157.744 94.9171 131.239 94.9171C104.734 94.9171 89.0628 95.6909 79.0025 95.6909C64.8794 95.6909 40.309 95.304 34.1181 94.9171C27.9271 94.5302 20.9623 87.7588 18.0603 84.6633C15.7387 82.187 15.0293 80.0201 14.9648 79.2463L11.4824 75.1834Z" fill="#CAC1E9" fill-opacity="0.2" stroke="#CAC1E9" stroke-width="0.773869"/>
<defs>
<filter id="filter0_d_367_1384" x="0.662149" y="0.875711" width="245.255" height="103.895" filterUnits="userSpaceOnUse" color-interpolation-filters="sRGB">
<feFlood flood-opacity="0" result="BackgroundImageFix"/>
<feColorMatrix in="SourceAlpha" type="matrix" values="0 0 0 0 0 0 0 0 0 0 0 0 0 0 0 0 0 0 127 0" result="hardAlpha"/>
<feOffset/>
<feGaussianBlur stdDeviation="3.47605"/>
<feComposite in2="hardAlpha" operator="out"/>
<feColorMatrix type="matrix" values="0 0 0 0 0 0 0 0 0 0 0 0 0 0 0 0 0 0 1 0"/>
<feBlend mode="normal" in2="BackgroundImageFix" result="effect1_dropShadow_367_1384"/>
<feBlend mode="normal" in="SourceGraphic" in2="effect1_dropShadow_367_1384" result="shape"/>
</filter>
<radialGradient id="paint0_radial_367_1384" cx="0" cy="0" r="1" gradientUnits="userSpaceOnUse" gradientTransform="translate(123.289 52.8234) rotate(-44.8305) scale(276.929 107.154)">
<stop stop-color="#1D1D1D"/>
<stop offset="1"/>
</radialGradient>
<linearGradient id="paint1_linear_367_1384" x1="10.7036" y1="90.4807" x2="210.77" y2="2.42064" gradientUnits="userSpaceOnUse">
<stop stop-color="#CECECE" stop-opacity="0.76"/>
<stop offset="0.25" stop-color="#838383" stop-opacity="0.53"/>
<stop offset="0.484375" stop-color="#C4C4C4" stop-opacity="0.515625"/>
<stop offset="0.677083" stop-color="#E1E1E1" stop-opacity="0.6"/>
<stop offset="0.854167" stop-color="#CFCFCF" stop-opacity="0.23"/>
<stop offset="1" stop-color="#CFCFCF" stop-opacity="0.63"/>
</linearGradient>
<linearGradient id="paint2_linear_367_1384" x1="81.383" y1="38.3399" x2="135.841" y2="2.99997" gradientUnits="userSpaceOnUse">
<stop stop-color="white"/>
<stop offset="0.182292" stop-color="white" stop-opacity="0.51"/>
<stop offset="0.546875" stop-color="white"/>
<stop offset="0.786458" stop-color="white" stop-opacity="0.44"/>
<stop offset="0.994792" stop-color="white"/>
</linearGradient>
<linearGradient id="paint3_linear_367_1384" x1="78.2932" y1="115.586" x2="138.352" y2="79.6663" gradientUnits="userSpaceOnUse">
<stop stop-color="white"/>
<stop offset="0.182292" stop-color="white" stop-opacity="0.51"/>
<stop offset="0.546875" stop-color="white"/>
<stop offset="0.786458" stop-color="white" stop-opacity="0.44"/>
<stop offset="0.994792" stop-color="white"/>
</linearGradient>
<linearGradient id="paint4_linear_367_1384" x1="35.036" y1="113.847" x2="230.467" y2="-1.82787" gradientUnits="userSpaceOnUse">
<stop stop-color="white" stop-opacity="0.31"/>
<stop offset="0.291667" stop-color="white"/>
<stop offset="0.536458" stop-color="white" stop-opacity="0.26"/>
<stop offset="0.770833" stop-color="white"/>
<stop offset="1" stop-color="white" stop-opacity="0.25"/>
</linearGradient>
<linearGradient id="paint5_linear_367_1384" x1="131.207" y1="112.496" x2="191.266" y2="84.301" gradientUnits="userSpaceOnUse">
<stop stop-color="white"/>
<stop offset="0.182292" stop-color="white" stop-opacity="0.51"/>
<stop offset="0.546875" stop-color="white"/>
<stop offset="0.786458" stop-color="white" stop-opacity="0.44"/>
<stop offset="0.994792" stop-color="white"/>
</linearGradient>
<linearGradient id="paint6_linear_367_1384" x1="127.345" y1="28.8773" x2="189.141" y2="5.12426" gradientUnits="userSpaceOnUse">
<stop stop-color="white"/>
<stop offset="0.182292" stop-color="white" stop-opacity="0.51"/>
<stop offset="0.546875" stop-color="white"/>
<stop offset="0.786458" stop-color="white" stop-opacity="0.44"/>
<stop offset="0.994792" stop-color="white"/>
</linearGradient>
</defs>
</svg>
