<svg width="246" height="131" viewBox="0 0 246 131" fill="none" xmlns="http://www.w3.org/2000/svg">
<g filter="url(#filter0_d_367_1413)">
<path d="M11.4761 76.9627C10.3174 75.289 8 67.6546 8 52.8234C8 37.9922 10.3174 30.3578 11.4761 28.6841L14.9521 24.6287C15.0165 23.8563 15.7246 21.6934 18.0419 19.2215C20.9386 16.1317 27.8907 9.3727 34.0704 8.98646C40.25 8.60024 64.7755 8.21404 78.8729 8.21404C88.9148 8.21404 104.557 8.98648 131.014 8.98648C157.47 8.98648 170.988 8.40712 181.416 8.40712C191.845 8.40712 200.149 8.60023 204.976 9.17958C209.804 9.75893 217.722 11.6901 218.108 12.0763C223.515 13.0419 228.536 14.0074 231.819 20.1871C235.102 26.3667 238.578 39.8847 238.578 52.8234C238.578 65.762 235.102 79.2801 231.819 85.4597C228.536 91.6394 223.515 92.6049 218.108 93.5705C217.722 93.9567 209.804 95.8879 204.976 96.4672C200.149 97.0466 191.845 97.2397 181.416 97.2397C170.988 97.2397 157.47 96.6603 131.014 96.6603C104.557 96.6603 88.9148 97.4328 78.8729 97.4328C64.7755 97.4328 40.2501 97.0466 34.0704 96.6603C27.8908 96.2741 20.9386 89.5151 18.0419 86.4253C15.7246 83.9534 15.0165 81.7905 14.9521 81.0181L11.4761 76.9627Z" fill="url(#paint0_radial_367_1413)" fill-opacity="0.97" shape-rendering="crispEdges"/>
<path d="M11.4761 76.9627C10.3174 75.289 8 67.6546 8 52.8234C8 37.9922 10.3174 30.3578 11.4761 28.6841L14.9521 24.6287C15.0165 23.8563 15.7246 21.6934 18.0419 19.2215C20.9386 16.1317 27.8907 9.3727 34.0704 8.98646C40.25 8.60024 64.7755 8.21404 78.8729 8.21404C88.9148 8.21404 104.557 8.98648 131.014 8.98648C157.47 8.98648 170.988 8.40712 181.416 8.40712C191.845 8.40712 200.149 8.60023 204.976 9.17958C209.804 9.75893 217.722 11.6901 218.108 12.0763C223.515 13.0419 228.536 14.0074 231.819 20.1871C235.102 26.3667 238.578 39.8847 238.578 52.8234C238.578 65.762 235.102 79.2801 231.819 85.4597C228.536 91.6394 223.515 92.6049 218.108 93.5705C217.722 93.9567 209.804 95.8879 204.976 96.4672C200.149 97.0466 191.845 97.2397 181.416 97.2397C170.988 97.2397 157.47 96.6603 131.014 96.6603C104.557 96.6603 88.9148 97.4328 78.8729 97.4328C64.7755 97.4328 40.2501 97.0466 34.0704 96.6603C27.8908 96.2741 20.9386 89.5151 18.0419 86.4253C15.7246 83.9534 15.0165 81.7905 14.9521 81.0181L11.4761 76.9627Z" stroke="url(#paint1_linear_367_1413)" stroke-width="0.772457" shape-rendering="crispEdges"/>
</g>
<path d="M82.1555 12.6556L78.4863 8.0209L131.4 8.79336L131.4 9.75893M82.1555 12.6556L89.6869 12.6556M82.1555 12.6556L83.9579 15.3592M132.945 14.973L135.841 23.0838L131.593 23.0838M132.945 14.973L132.751 14.0074M132.945 14.973C131.405 14.973 129.663 14.9591 127.73 14.9426M132.068 11.8832L132.365 12.6556L132.751 14.0074M132.068 11.8832L131.4 10.1452L131.4 9.75893M132.068 11.8832L96.8322 12.0763M83.9579 15.3592L84.0866 15.5524L85.8247 15.5524C86.048 15.6489 86.3066 15.7573 86.5971 15.8754M83.9579 15.3592C97.0253 14.2006 123.385 14.0074 132.751 14.0074M86.5971 15.8754C89.4049 17.0166 95.2005 19.0671 101.081 20.1871C107.569 21.423 123.997 22.6332 131.4 23.0838L131.593 23.0838M86.5971 15.8754C104.091 14.7197 118.223 14.8617 127.73 14.9426M127.73 14.9426L131.593 23.0838M131.4 9.75893C130.694 9.78831 129.651 9.83916 128.696 9.90045M126.379 10.1452C125.992 10.3383 124.447 10.5314 123.868 10.5314C123.578 10.5314 122.275 10.3383 120.971 10.1452M126.379 10.1452C126.547 10.0612 127.559 9.97342 128.696 9.90045M126.379 10.1452C125.928 9.95204 124.795 9.56582 123.868 9.56582C122.941 9.56582 121.551 9.95204 120.971 10.1452M119.04 9.86557C118.566 9.80103 118.21 9.75893 118.075 9.75893C117.495 9.75893 112.088 9.17959 111.702 8.98647C111.393 8.83198 116.465 9.50816 119.04 9.86557ZM119.04 9.86557C120.006 9.19974 121.937 8.98647 124.254 8.98647C125.49 8.98647 127.73 9.59579 128.696 9.90045M119.04 9.86557C119.582 9.93926 120.277 10.0422 120.971 10.1452" stroke="url(#paint2_linear_367_1413)" stroke-opacity="0.26" stroke-width="0.386228"/>
<path d="M82.1555 92.9911L78.4863 97.6259L131.4 96.8534L131.4 95.8879M82.1555 92.9911L89.6869 93.1843M82.1555 92.9911L83.9579 90.2875M132.945 90.6738L135.841 82.563L131.593 82.563M132.945 90.6738L132.751 91.6393M132.945 90.6738C131.405 90.6738 129.663 90.6877 127.73 90.7042M89.6869 93.1843L91.425 94.7292M89.6869 93.1843C89.9444 92.798 90.6525 92.0256 91.425 92.0256L93.9355 92.0256L94.1679 92.6286M132.068 93.7636L132.365 92.9911L132.751 91.6393M132.068 93.7636L131.4 95.5016L131.4 95.8879M132.068 93.7636L96.8322 93.5705L96.6883 93.5705M83.9579 90.2875L84.0866 90.0944L85.8247 90.0944C86.048 89.9979 86.3066 89.8895 86.5971 89.7714M83.9579 90.2875C97.0253 91.4462 123.385 91.6393 132.751 91.6393M86.5971 89.7714C89.4049 88.6302 95.2005 86.5797 101.081 85.4597C107.569 84.2238 123.997 83.0136 131.4 82.563L131.593 82.563M86.5971 89.7714C103.812 90.9086 117.772 90.7893 127.273 90.7081L127.73 90.7042M127.73 90.7042L131.593 82.563M131.4 95.8879C130.694 95.8585 129.651 95.8076 128.696 95.7463M126.379 95.5016C125.992 95.3085 124.447 95.1154 123.868 95.1154C123.578 95.1154 122.275 95.3085 120.971 95.5016M126.379 95.5016C126.547 95.5856 127.559 95.6734 128.696 95.7463M126.379 95.5016C125.928 95.6947 124.795 96.081 123.868 96.081C122.941 96.081 121.551 95.6947 120.971 95.5016M119.04 95.7812C118.566 95.8458 118.21 95.8879 118.075 95.8879C117.495 95.8879 112.088 96.4672 111.702 96.6603C111.393 96.8148 116.465 96.1386 119.04 95.7812ZM119.04 95.7812C120.006 96.447 121.937 96.6603 124.254 96.6603C125.49 96.6603 127.73 96.051 128.696 95.7463M119.04 95.7812C119.582 95.7075 120.277 95.6046 120.971 95.5016M91.425 94.7292C91.6825 95.8879 92.545 98.5528 93.9355 99.9433C95.0922 101.1 97.3095 101.981 98.7633 102.429M91.425 94.7292C91.6181 94.2142 92.1974 93.107 92.9699 92.798C93.2555 92.6838 93.6906 92.6364 94.1679 92.6286M94.1679 92.6286C94.6643 92.6205 95.2064 92.6551 95.6735 92.7018M98.7633 102.429C99.0569 102.52 99.3194 102.593 99.5358 102.647L96.6883 93.5705M98.7633 102.429L95.6735 92.7018M95.6735 92.7018C95.9722 92.7316 96.2402 92.7664 96.4459 92.798L96.6883 93.5705" stroke="url(#paint3_linear_367_1413)" stroke-opacity="0.26" stroke-width="0.386228"/>
<path d="M91.4255 10.9176L89.6875 12.4625C89.945 12.8488 90.6531 13.6212 91.4255 13.6212C92.198 13.6212 93.421 13.6212 93.936 13.6212L94.1685 13.0182M91.4255 10.9176C91.683 9.75893 92.5456 7.09396 93.936 5.70354C95.0928 4.54675 97.31 3.66621 98.7639 3.21761M91.4255 10.9176C91.6186 11.4326 92.198 12.5398 92.9704 12.8488C93.256 12.963 93.6911 13.0104 94.1685 13.0182M94.1685 13.0182C94.6649 13.0263 95.207 12.9917 95.674 12.945M98.7639 3.21761C99.0575 3.12701 99.32 3.05402 99.5363 2.99994L96.4465 12.8488C96.2407 12.8804 95.9727 12.9152 95.674 12.945M98.7639 3.21761L95.674 12.945" stroke="white" stroke-opacity="0.26" stroke-width="0.386228"/>
<path d="M14.759 76.1902C14.1797 74.066 12.0554 63.2516 11.8623 52.8234C12.0554 42.3952 14.1797 31.5808 14.759 29.4566M14.759 76.1902C11.6692 75.0315 10.3174 74.066 10.3174 74.066M14.759 76.1902C24.9941 78.985 50.2534 85.3582 69.4103 88.4931M14.759 76.1902C15.0506 77.2593 15.44 78.6218 15.9026 79.8594M24.8009 88.9357C22.7411 87.2621 18.9689 84.0693 18.0419 83.1423C17.4664 82.5668 16.3591 81.0808 15.9026 79.8594M24.8009 88.9357L52.4163 88.9357M24.8009 88.9357C24.9238 88.9854 25.0528 89.0372 25.1872 89.0908M52.4163 88.9357C56.6004 89.1289 65.1232 89.5151 65.7411 89.5151M52.4163 88.9357L15.9026 79.8594M65.7411 89.5151C66.2297 89.5151 68.0382 88.9517 69.4103 88.4931M65.7411 89.5151C68.3804 90.1588 74.045 91.5235 75.59 91.8325C77.1349 92.1414 80.6109 92.7337 82.1558 92.9911M70.3759 88.3564C67.9298 85.2022 63.0375 72.9073 63.0375 52.8234C63.0375 32.7395 67.9298 20.4446 70.3759 17.2904M70.3759 88.3564L69.4103 88.4931M70.3759 88.3564C71.2127 88.6783 82.5421 89.5151 82.5421 89.5151M22.4836 90.6738C23.8354 91.8325 28.8563 93.3774 30.2081 93.5705C30.7817 93.6524 35.2291 94.7292 35.4222 94.7292C35.5021 94.7292 35.846 94.6301 36.1947 94.4184M25.1872 89.0908C28.3613 90.3568 34.5957 92.6498 36.9671 92.798C36.9671 93.1843 36.9669 93.4823 36.774 93.7636M25.1872 89.0908L25.1872 90.0944M25.1872 90.8669C23.1917 89.7082 18.5827 86.1935 16.1108 82.1767C15.6473 81.5588 15.1452 81.1468 14.9521 81.0181M25.1872 90.8669L25.1872 90.0944M25.1872 90.8669C27.1827 92.0256 31.9462 93.3774 36.1947 94.4184M36.774 93.7636C34.3182 93.278 28.586 91.7938 25.1872 90.0944M36.774 93.7636L36.773 93.7651C36.614 93.9969 36.4178 94.2829 36.1947 94.4184M82.5421 89.5151C82.5421 89.5151 83.7008 89.7082 84.087 90.0944M82.5421 89.5151C82.1593 89.2715 81.4004 88.8173 80.4178 88.2805M80.4178 88.2805C79.5826 87.8243 78.5858 87.3084 77.5211 86.8115C74.6244 85.4597 71.1483 82.1767 69.9896 80.6318C68.831 79.0869 64.5825 71.3624 64.5825 52.8234C64.5825 34.2844 68.831 26.5599 69.9896 25.015C71.1483 23.4701 74.6244 20.1871 77.5211 18.8353C78.5858 18.3384 79.5826 17.8225 80.4178 17.3663M80.4178 88.2805C90.945 85.5345 96.3229 83.396 108.226 82.0169M199.183 78.5076C185.601 78.8938 152.604 79.8594 129.276 80.6318C120.237 80.9311 113.573 81.3974 108.226 82.0169M199.183 78.5076L199.183 77.3489M199.183 78.5076C199.183 79.1275 199.67 79.7069 200.683 80.2456M199.183 77.3489C181.803 77.8639 143.489 78.971 129.276 79.28C115.062 79.589 108.934 80.31 107.647 80.6318M199.183 77.3489L199.183 71.3623M107.647 80.6318C106.166 75.6752 103.205 62.5563 103.205 52.8234C103.205 43.0904 106.166 29.9716 107.647 25.015M107.647 80.6318L108.226 82.0169M200.683 80.2456C201.877 80.8815 203.803 81.4609 206.521 81.9836C210.186 82.6884 214.16 82.9816 217.541 82.563M200.683 80.2456C208.839 77.3489 211.452 75.6109 213.86 66.5345C215.405 60.7114 215.405 54.3683 215.405 52.8234C215.405 51.2785 215.405 44.9354 213.86 39.1123C211.452 30.0359 208.839 28.2979 200.682 25.4012M199.183 71.3623C201.307 71.5555 202.852 71.7486 204.397 71.9417L204.397 67.307C202.852 66.8435 200.277 66.5989 199.183 66.5345M199.183 71.3623L199.183 66.5345M199.183 66.5345L199.183 39.1123M217.541 82.563C217.086 82.1767 216.023 81.3657 215.405 81.2112C214.632 81.0181 210.77 80.0525 209.032 79.4731C207.294 78.8938 209.225 77.3489 209.611 76.7695C209.92 76.3061 210.77 75.1603 211.156 74.6453C212.894 75.289 217.065 76.6537 219.846 76.9627C223.322 77.3489 226.605 77.3489 228.536 72.521C230.467 67.6932 231.047 60.3548 231.047 52.8234C231.047 45.2919 230.467 37.9536 228.536 33.1257C226.605 28.2979 223.322 28.2979 219.846 28.6841C217.065 28.9931 212.894 30.3578 211.156 31.0015C210.77 30.4865 209.92 29.3407 209.611 28.8772C209.225 28.2979 207.294 26.753 209.032 26.1736C210.77 25.5943 214.632 24.6287 215.405 24.4356C216.023 24.2811 217.086 23.47 217.541 23.0838M217.541 82.563C218.558 82.437 219.521 82.2466 220.407 81.9836M217.541 82.563L219.176 84.2044M220.407 81.9836C220.61 81.9231 220.81 81.8588 221.005 81.7905C225.447 80.2359 232.785 74.2591 233.171 63.4447C233.364 58.0375 233.364 52.8234 233.364 52.8234C233.364 52.8234 233.364 47.6093 233.171 42.2021C232.785 31.3877 225.447 25.4108 221.005 23.8563C220.81 23.788 220.61 23.7237 220.407 23.6632M220.407 81.9836C227.571 76.9627 229.336 75.2076 231.047 68.0794C232.206 63.2516 232.206 54.7545 232.206 52.8234C232.206 50.8922 232.206 42.3952 231.047 37.5674C229.336 30.4392 227.571 28.6841 220.407 23.6632M219.176 84.2044L220.812 85.8459M219.176 84.2044C215.988 85.3309 207.178 87.6998 197.445 88.1633M220.812 85.8459C218.907 87.0669 214.535 89.2808 209.432 90.4806M220.812 85.8459C222.745 84.6646 224.499 83.4235 226.206 81.7905M197.445 88.1633C200.035 86.9273 201.099 85.8459 201.307 85.4597C200.975 85.3535 200.586 85.2357 200.149 85.11M197.445 88.1633C191.574 89.3992 185.343 89.8369 182.961 89.9013M182.575 88.9357L174.658 82.563L184.12 82.563C189.895 82.563 196.609 84.0928 200.149 85.11M182.575 88.9357C185.408 88.8714 191.806 88.5495 194.741 87.7771C197.677 87.0046 199.569 85.6772 200.149 85.11M182.575 88.9357L182.961 89.9013M182.961 89.9013L184.12 92.2187M184.12 92.2187C187.918 92.0899 197.29 91.7166 204.397 91.2531C206.112 91.1413 207.809 90.8623 209.432 90.4806M184.12 92.2187L183.348 94.536C193.583 94.1498 201.887 93.7636 209.032 93.3774M209.032 93.3774C211.658 91.678 213.345 90.7381 213.86 90.4806M209.032 93.3774C206.405 94.7678 204.848 96.1453 204.397 96.6603M213.86 90.4806L209.432 90.4806M213.86 90.4806C215.405 89.7082 219.46 89.7082 222.357 87.777C224.543 86.3192 226.18 83.8709 227.266 82.1767M213.86 90.4806C216.944 90.4806 219.907 90.2546 222.743 88.9357M231.819 76.1902C233.042 74.4522 235.527 69.4698 235.682 63.4447C235.836 57.4195 235.875 52.8234 235.875 52.8234C235.875 52.8234 235.836 48.2273 235.682 42.2021C235.527 36.177 233.042 31.1946 231.819 29.4566M231.819 76.1902C231.37 76.7364 230.647 77.6225 229.94 78.5076M231.819 76.1902C231.284 77.6047 230.254 80.0772 229.085 82.3699M222.743 88.9357C223.991 88.3551 225.64 87.3908 226.605 86.4253C227.52 85.5106 228.285 83.9377 229.085 82.3699M222.743 88.9357C225.253 86.8115 226.605 85.4597 227.764 83.1423C227.893 82.8832 228.023 82.621 228.15 82.3596M229.94 78.5076C229.231 79.3959 228.537 80.2832 228.15 80.8249C227.913 81.1562 227.619 81.6267 227.266 82.1767M229.94 78.5076C229.648 79.172 228.934 80.7511 228.15 82.3596M229.085 82.3699L228.15 82.3596M229.085 82.3699C229.305 82.3699 229.692 82.361 230.155 82.335M228.15 82.3596L227.266 82.1767M227.266 82.1767L226.206 81.7905M226.206 81.7905C227.569 80.4872 228.903 78.9342 230.274 76.9627C233.364 72.521 234.523 68.4656 234.523 52.8234C234.523 37.1811 233.364 33.1257 230.274 28.6841C228.903 26.7126 227.569 25.1596 226.206 23.8563M233.557 81.9836C233.429 81.9836 232.901 82.0222 231.819 82.1767C231.255 82.2574 230.66 82.3065 230.155 82.335M230.155 82.335C231.546 80.0936 234.562 74.6067 235.488 70.5899C236.647 65.5689 237.226 58.2306 237.226 52.8234C237.226 47.4162 236.647 40.0779 235.488 35.0569C234.562 31.0401 231.546 25.5532 230.155 23.3118M230.155 82.335C229.085 84.2044 228.923 84.6872 226.991 87.3908C225.06 90.0944 219.267 92.798 218.108 93.3774M224.674 91.8324C225.494 91.06 227.413 89.2447 228.536 88.1633C229.66 87.0818 231.45 85.0735 232.206 84.2044M14.759 29.4566C11.6692 30.6153 10.3174 31.5808 10.3174 31.5808M14.759 29.4566C24.9941 26.6618 50.2534 20.2886 69.4103 17.1537M14.759 29.4566C15.0506 28.3875 15.44 27.025 15.9026 25.7874M24.8009 16.7111C22.7411 18.3847 18.9689 21.5775 18.0419 22.5045C17.4664 23.08 16.3591 24.566 15.9026 25.7874M24.8009 16.7111L52.4163 16.7111M24.8009 16.7111C24.9238 16.6614 25.0528 16.6096 25.1872 16.556M52.4163 16.7111C56.6004 16.5179 65.1232 16.1317 65.7411 16.1317M52.4163 16.7111L15.9026 25.7874M65.7411 16.1317C66.2297 16.1317 68.0382 16.6951 69.4103 17.1537M65.7411 16.1317C68.3804 15.488 74.045 14.1233 75.59 13.8143C77.1349 13.5054 80.6109 12.9131 82.1558 12.6557M70.3759 17.2904L69.4103 17.1537M70.3759 17.2904C71.2127 16.9685 82.5421 16.1317 82.5421 16.1317M22.4836 14.973C23.8354 13.8143 28.8563 12.2694 30.2081 12.0763C30.7817 11.9944 35.2291 10.9176 35.4222 10.9176C35.5021 10.9176 35.846 11.0167 36.1947 11.2284M25.1872 16.556C28.3613 15.29 34.5957 12.997 36.9671 12.8488C36.9671 12.4625 36.9669 12.1645 36.774 11.8832M25.1872 16.556L25.1872 15.5524M25.1872 14.7799C23.1917 15.9386 18.5827 19.4533 16.1108 23.4701C15.6473 24.088 15.1452 24.5 14.9521 24.6287M25.1872 14.7799L25.1872 15.5524M25.1872 14.7799C27.1827 13.6212 31.9462 12.2694 36.1947 11.2284M36.774 11.8832C34.3182 12.3688 28.586 13.853 25.1872 15.5524M36.774 11.8832L36.773 11.8817C36.614 11.6499 36.4178 11.3639 36.1947 11.2284M82.5421 16.1317C82.5421 16.1317 83.7007 15.9386 84.087 15.5524M82.5421 16.1317C82.1593 16.3753 81.4004 16.8295 80.4178 17.3663M80.4178 17.3663C90.945 20.1123 96.3229 22.2508 108.226 23.6299M199.183 27.1392C185.601 26.753 152.604 25.7874 129.276 25.015C120.237 24.7157 113.573 24.2494 108.226 23.6299M199.183 27.1392L199.183 28.2979M199.183 27.1392C199.183 26.5193 199.67 25.9399 200.682 25.4012M199.183 28.2979C181.803 27.7829 143.489 26.6757 129.276 26.3668C115.062 26.0578 108.934 25.3368 107.647 25.015M199.183 28.2979L199.183 34.2844M107.647 25.015L108.226 23.6299M200.682 25.4012C201.877 24.7652 203.803 24.1859 206.521 23.6632C210.186 22.9584 214.16 22.6651 217.541 23.0838M199.183 34.2844C201.307 34.0913 202.852 33.8982 204.397 33.7051L204.397 38.3398C202.852 38.8033 200.277 39.0479 199.183 39.1123M199.183 34.2844L199.183 39.1123M217.541 23.0838C218.558 23.2098 219.521 23.4002 220.407 23.6632M217.541 23.0838L219.176 21.4423M219.176 21.4423L220.812 19.8009M219.176 21.4423C215.988 20.3158 207.178 17.947 197.445 17.4835M220.812 19.8009C218.907 18.5799 214.535 16.3659 209.432 15.1661M220.812 19.8009C222.745 20.9822 224.499 22.2233 226.206 23.8563M197.445 17.4835C200.035 18.7194 201.099 19.8009 201.307 20.1871C200.975 20.2933 200.586 20.4111 200.149 20.5367M197.445 17.4835C191.574 16.2476 185.343 15.8099 182.961 15.7455M182.575 16.7111L174.658 23.0838L184.12 23.0838C189.895 23.0838 196.609 21.554 200.149 20.5367M182.575 16.7111C185.408 16.7754 191.806 17.0973 194.741 17.8697C197.677 18.6422 199.569 19.9696 200.149 20.5367M182.575 16.7111L182.961 15.7455M182.961 15.7455L184.12 13.4281M184.12 13.4281C187.918 13.5569 197.29 13.9302 204.397 14.3937C206.112 14.5055 207.809 14.7845 209.432 15.1661M184.12 13.4281L183.348 11.1107C193.583 11.497 201.887 11.8832 209.032 12.2694M209.032 12.2694C211.658 13.9688 213.345 14.9087 213.86 15.1661M209.032 12.2694C206.405 10.879 204.848 9.50146 204.397 8.98648M213.86 15.1661L209.432 15.1661M213.86 15.1661C215.405 15.9386 219.46 15.9386 222.357 17.8697C224.543 19.3276 226.18 21.7759 227.266 23.47M213.86 15.1661C216.944 15.1661 219.907 15.3922 222.743 16.711M231.819 29.4566C231.37 28.9104 230.647 28.0243 229.94 27.1392M231.819 29.4566C231.284 28.0421 230.254 25.5696 229.085 23.2769M222.743 16.711C223.991 17.2916 225.64 18.256 226.605 19.2215C227.52 20.1361 228.285 21.7091 229.085 23.2769M222.743 16.711C225.253 18.8353 226.605 20.1871 227.764 22.5045C227.893 22.7636 228.023 23.0258 228.15 23.2872M229.94 27.1392C229.231 26.2509 228.537 25.3635 228.15 24.8218C227.913 24.4905 227.619 24.02 227.266 23.47M229.94 27.1392C229.648 26.4747 228.934 24.8957 228.15 23.2872M229.085 23.2769L228.15 23.2872M229.085 23.2769C229.305 23.2769 229.692 23.2857 230.155 23.3118M228.15 23.2872L227.266 23.47M227.266 23.47L226.206 23.8563M233.557 23.6632C233.429 23.6632 232.901 23.6245 231.819 23.47C231.255 23.3894 230.66 23.3403 230.155 23.3118M230.155 23.3118C229.085 21.4423 228.923 20.9596 226.991 18.256C225.06 15.5524 219.267 12.8488 218.108 12.2694M224.674 13.8143C225.494 14.5868 227.413 16.4021 228.536 17.4835C229.66 18.5649 231.45 20.5733 232.206 21.4423" stroke="url(#paint4_linear_367_1413)" stroke-opacity="0.26" stroke-width="0.386228"/>
<path d="M70.9558 80.4387C74.4318 84.6872 78.4872 86.039 81.9633 86.4253C85.0531 85.8459 100.309 82.7561 102.626 81.7905C104.944 80.825 105.716 80.6318 104.751 76.1902C103.785 71.7486 103.013 66.7276 102.82 64.9896C102.626 63.2516 101.275 62.0929 98.9573 61.5135C96.64 60.9342 93.1639 59.7755 91.8121 58.8099C90.4603 57.8444 90.4603 54.5614 90.4603 52.8234C90.4603 51.0854 90.4603 47.8024 91.8121 46.8369C93.1639 45.8713 96.64 44.7126 98.9573 44.1333C101.275 43.5539 102.626 42.3953 102.82 40.6572C103.013 38.9192 103.785 33.8982 104.751 29.4566C105.716 25.015 104.944 24.8219 102.626 23.8563C100.309 22.8907 85.0531 19.8009 81.9633 19.2216C78.4872 19.6078 74.4318 20.9596 70.9558 25.2081C67.4797 29.4566 65.3555 43.9402 65.3555 52.8234C65.3555 61.7067 67.4797 76.1902 70.9558 80.4387Z" fill="#111111" stroke="white" stroke-opacity="0.26" stroke-width="0.386228"/>
<path d="M182.575 88.9357L174.658 82.5629L170.023 82.5629M182.575 88.9357L183.155 90.0944M182.575 88.9357C181.341 89.068 179.766 89.194 177.941 89.3133M183.155 90.0944L184.12 92.2187M183.155 90.0944C169.067 90.6737 139.246 91.7938 132.669 91.6393M184.12 92.2187C172.842 92.9911 150.712 92.9267 141.056 92.798M184.12 92.2187C184.005 92.5061 183.695 93.2967 183.3 94.3429M132.945 90.6737L135.842 82.5629L138.738 82.5629M132.945 90.6737L137 90.6737M132.945 90.6737L132.669 91.6393M138.738 82.5629L137 90.6737M138.738 82.5629L170.023 82.5629M137 90.6737C145.463 90.5327 161.259 90.165 172.533 89.6159M170.023 82.5629L173.421 85.4597M177.941 89.3133C176.316 89.4195 174.493 89.5205 172.533 89.6159M177.941 89.3133L173.421 85.4597M172.533 89.6159L173.421 85.4597M132.669 91.6393L132.448 92.4118M132.044 93.7636L131.593 95.1154L131.465 95.6947M132.044 93.7636L132.173 93.3773L132.448 92.4118M132.044 93.7636L146.463 93.7636L141.056 92.798M141.056 92.798L132.448 92.4118M183.3 94.3429C183.253 94.4681 183.204 94.597 183.155 94.7291C182.691 95.9651 181.803 96.9178 181.417 97.2396L162.492 96.8534L145.497 96.8534L131.207 96.8534L131.465 95.6947M183.3 94.3429L180.258 94.3429C180.194 94.3292 180.123 94.3144 180.047 94.2989M131.465 95.6947C142.536 95.6947 168.864 94.7291 170.023 94.7291C170.19 94.7291 170.385 94.7091 170.602 94.6748M170.602 94.6748C171.246 95.0791 173.074 95.8878 175.237 95.8878C177.941 95.8878 179.449 94.8343 180.047 94.2989M170.602 94.6748C171.24 94.574 172.07 94.3503 172.946 94.1498M180.047 94.2989C179.587 94.2058 178.917 94.085 178.188 93.9817M178.188 93.9817C177.333 93.8606 176.398 93.7636 175.623 93.7636C174.787 93.7636 173.843 93.9445 172.946 94.1498M178.188 93.9817C178.105 94.1664 177.477 94.5746 175.623 94.7291C173.769 94.8836 173.066 94.4073 172.946 94.1498" stroke="url(#paint5_linear_367_1413)" stroke-opacity="0.26" stroke-width="0.386228"/>
<path d="M182.575 16.7111L174.658 23.0839L170.023 23.0839M182.575 16.7111L183.155 15.5524M182.575 16.7111C181.341 16.5788 179.766 16.4528 177.941 16.3335M183.155 15.5524L184.12 13.4282M183.155 15.5524C169.067 14.9731 139.246 13.853 132.669 14.0075M184.12 13.4282C172.842 12.6557 150.712 12.7201 141.056 12.8488M184.12 13.4282C184.005 13.1407 183.695 12.3501 183.3 11.3039M132.945 14.9731L135.842 23.0839L138.738 23.0839M132.945 14.9731L137 14.9731M132.945 14.9731L132.669 14.0075M138.738 23.0839L137 14.9731M138.738 23.0839L170.023 23.0839M137 14.9731C145.463 15.1141 161.259 15.4818 172.533 16.0309M170.023 23.0839L173.421 20.1872M177.941 16.3335C176.316 16.2273 174.493 16.1264 172.533 16.0309M177.941 16.3335L173.421 20.1872M172.533 16.0309L173.421 20.1872M132.669 14.0075L132.448 13.235M132.044 11.8833L131.593 10.5315L131.465 9.95211M132.044 11.8833L132.173 12.2695L132.448 13.235M132.044 11.8833L146.463 11.8832L141.056 12.8488M141.056 12.8488L132.448 13.235M183.3 11.3039C183.253 11.1787 183.204 11.0498 183.155 10.9177C182.691 9.68175 181.803 8.72905 181.417 8.40719L162.492 8.79342L145.497 8.79342L131.207 8.79342L131.465 9.95211M183.3 11.3039L180.258 11.3039C180.194 11.3177 180.123 11.3324 180.047 11.3479M131.465 9.95211C142.536 9.95211 168.864 10.9177 170.023 10.9177C170.19 10.9177 170.385 10.9377 170.602 10.9721M170.602 10.9721C171.246 10.5677 173.074 9.75899 175.237 9.75899C177.941 9.75899 179.449 10.8125 180.047 11.3479M170.602 10.9721C171.24 11.0728 172.07 11.2965 172.946 11.497M180.047 11.3479C179.587 11.441 178.917 11.5618 178.188 11.6652M178.188 11.6652C177.333 11.7862 176.398 11.8832 175.623 11.8832C174.787 11.8832 173.843 11.7023 172.946 11.497M178.188 11.6652C178.105 11.4804 177.477 11.0722 175.623 10.9177C173.769 10.7632 173.066 11.2395 172.946 11.497" stroke="url(#paint6_linear_367_1413)" stroke-opacity="0.26" stroke-width="0.386228"/>
<path d="M185.472 52.8234C185.729 53.2096 186.785 54.0207 188.948 54.1752C189.711 54.2297 190.544 54.1416 191.352 53.9821M194.707 52.9265C194.789 52.8905 194.865 52.856 194.934 52.8234L194.707 52.9265ZM194.707 52.9265C193.953 53.2586 192.688 53.7181 191.352 53.9821M194.707 52.9265L194.707 54.0717C193.682 54.0419 191.576 53.9821 191.352 53.9821" stroke="white" stroke-opacity="0.26" stroke-width="0.386228"/>
<path d="M185.472 52.8233C185.729 52.4371 186.785 51.626 188.948 51.4715C189.711 51.417 190.544 51.5051 191.352 51.6646M194.707 52.7202C194.789 52.7562 194.865 52.7907 194.934 52.8233L194.707 52.7202ZM194.707 52.7202C193.953 52.3881 192.688 51.9286 191.352 51.6646M194.707 52.7202L194.707 51.575C193.682 51.6049 191.576 51.6646 191.352 51.6646" stroke="white" stroke-opacity="0.26" stroke-width="0.386228"/>
<g filter="url(#filter1_d_367_1413)">
<path d="M178.719 72.095L193.318 83.6272L194.398 85.7383L196.201 89.6104C195.996 90.1385 195.441 91.5908 194.736 93.5124C194.651 93.7424 194.564 93.9791 194.476 94.2218C193.648 96.4918 192.038 98.2505 191.337 98.8461L156.689 98.4561L125.583 98.7406L99.4258 98.98L99.8777 96.8548L101.624 90.8292L102.015 89.4116L102.504 87.6396L107.67 72.745L112.972 72.6965L170.235 72.1726L178.719 72.095Z" fill="#CAC1E9" fill-opacity="0.4"/>
<path d="M193.318 83.6272L178.719 72.095L170.235 72.1726M193.318 83.6272L194.398 85.7383M193.318 83.6272C191.061 83.89 188.181 84.1469 184.841 84.396M170.235 72.1726L112.972 72.6965M170.235 72.1726L176.503 77.4179M194.398 85.7383L196.201 89.6104M194.398 85.7383C168.621 87.0347 114.056 89.5842 102.015 89.4116M184.841 84.396C181.87 84.6175 178.535 84.8328 174.949 85.0404M184.841 84.396L176.503 77.4179M196.201 89.6104C195.996 90.1385 195.441 91.5908 194.736 93.5124M196.201 89.6104C164.752 91.1858 133.049 93.3512 101.624 90.8292M102.015 89.4116L102.504 87.6396M102.015 89.4116L101.624 90.8292M194.736 93.5124C194.651 93.7424 194.564 93.9791 194.476 94.2218C193.648 96.4918 192.038 98.2505 191.337 98.8461L156.689 98.4561L125.583 98.7406L99.4258 98.98L99.8777 96.8548M194.736 93.5124L189.167 93.5633C189.05 93.5392 188.92 93.5135 188.78 93.4864M101.624 90.8292L99.8777 96.8548M102.504 87.6396L107.67 72.745L112.972 72.6965M102.504 87.6396L109.927 87.5717M112.972 72.6965L109.927 87.5717M109.927 87.5717C125.414 87.1718 154.321 86.2343 174.949 85.0404M174.949 85.0404L176.503 77.4179M99.8777 96.8548C120.144 96.6694 168.318 94.4611 170.439 94.4417C170.745 94.4389 171.101 94.3989 171.499 94.3325M188.78 93.4864C187.695 94.4763 184.951 96.43 180.003 96.4752C176.043 96.5114 172.684 95.0618 171.499 94.3325M188.78 93.4864C187.937 93.3237 186.709 93.1137 185.372 92.9367M171.499 94.3325C172.665 94.1374 174.18 93.714 175.78 93.3323M175.78 93.3323C177.418 92.9416 179.144 92.5945 180.674 92.5805C182.091 92.5675 183.806 92.7294 185.372 92.9367M175.78 93.3323C176.004 93.8016 177.3 94.6617 180.69 94.3479C184.081 94.0341 185.224 93.2764 185.372 92.9367" stroke="#CAC1E9" stroke-width="1.41397"/>
</g>
<defs>
<filter id="filter0_d_367_1413" x="0.662149" y="0.875711" width="245.255" height="103.895" filterUnits="userSpaceOnUse" color-interpolation-filters="sRGB">
<feFlood flood-opacity="0" result="BackgroundImageFix"/>
<feColorMatrix in="SourceAlpha" type="matrix" values="0 0 0 0 0 0 0 0 0 0 0 0 0 0 0 0 0 0 127 0" result="hardAlpha"/>
<feOffset/>
<feGaussianBlur stdDeviation="3.47605"/>
<feComposite in2="hardAlpha" operator="out"/>
<feColorMatrix type="matrix" values="0 0 0 0 0 0 0 0 0 0 0 0 0 0 0 0 0 0 1 0"/>
<feBlend mode="normal" in2="BackgroundImageFix" result="effect1_dropShadow_367_1413"/>
<feBlend mode="normal" in="SourceGraphic" in2="effect1_dropShadow_367_1413" result="shape"/>
</filter>
<filter id="filter1_d_367_1413" x="77.3412" y="50.1762" width="140.837" height="70.7285" filterUnits="userSpaceOnUse" color-interpolation-filters="sRGB">
<feFlood flood-opacity="0" result="BackgroundImageFix"/>
<feColorMatrix in="SourceAlpha" type="matrix" values="0 0 0 0 0 0 0 0 0 0 0 0 0 0 0 0 0 0 127 0" result="hardAlpha"/>
<feOffset/>
<feGaussianBlur stdDeviation="10.6048"/>
<feComposite in2="hardAlpha" operator="out"/>
<feColorMatrix type="matrix" values="0 0 0 0 0.792157 0 0 0 0 0.756863 0 0 0 0 0.913725 0 0 0 1 0"/>
<feBlend mode="normal" in2="BackgroundImageFix" result="effect1_dropShadow_367_1413"/>
<feBlend mode="normal" in="SourceGraphic" in2="effect1_dropShadow_367_1413" result="shape"/>
</filter>
<radialGradient id="paint0_radial_367_1413" cx="0" cy="0" r="1" gradientUnits="userSpaceOnUse" gradientTransform="translate(123.289 52.8234) rotate(-44.8305) scale(276.929 107.154)">
<stop stop-color="#1D1D1D"/>
<stop offset="1"/>
</radialGradient>
<linearGradient id="paint1_linear_367_1413" x1="10.7036" y1="90.4807" x2="210.77" y2="2.42062" gradientUnits="userSpaceOnUse">
<stop stop-color="#CECECE" stop-opacity="0.76"/>
<stop offset="0.25" stop-color="#838383" stop-opacity="0.53"/>
<stop offset="0.484375" stop-color="#C4C4C4" stop-opacity="0.515625"/>
<stop offset="0.677083" stop-color="#E1E1E1" stop-opacity="0.6"/>
<stop offset="0.854167" stop-color="#CFCFCF" stop-opacity="0.23"/>
<stop offset="1" stop-color="#CFCFCF" stop-opacity="0.63"/>
</linearGradient>
<linearGradient id="paint2_linear_367_1413" x1="81.383" y1="38.3398" x2="135.841" y2="2.99994" gradientUnits="userSpaceOnUse">
<stop stop-color="white"/>
<stop offset="0.182292" stop-color="white" stop-opacity="0.51"/>
<stop offset="0.546875" stop-color="white"/>
<stop offset="0.786458" stop-color="white" stop-opacity="0.44"/>
<stop offset="0.994792" stop-color="white"/>
</linearGradient>
<linearGradient id="paint3_linear_367_1413" x1="78.2932" y1="115.585" x2="138.352" y2="79.6663" gradientUnits="userSpaceOnUse">
<stop stop-color="white"/>
<stop offset="0.182292" stop-color="white" stop-opacity="0.51"/>
<stop offset="0.546875" stop-color="white"/>
<stop offset="0.786458" stop-color="white" stop-opacity="0.44"/>
<stop offset="0.994792" stop-color="white"/>
</linearGradient>
<linearGradient id="paint4_linear_367_1413" x1="35.036" y1="113.847" x2="230.467" y2="-1.8279" gradientUnits="userSpaceOnUse">
<stop stop-color="white" stop-opacity="0.31"/>
<stop offset="0.291667" stop-color="white"/>
<stop offset="0.536458" stop-color="white" stop-opacity="0.26"/>
<stop offset="0.770833" stop-color="white"/>
<stop offset="1" stop-color="white" stop-opacity="0.25"/>
</linearGradient>
<linearGradient id="paint5_linear_367_1413" x1="131.207" y1="112.496" x2="191.266" y2="84.301" gradientUnits="userSpaceOnUse">
<stop stop-color="white"/>
<stop offset="0.182292" stop-color="white" stop-opacity="0.51"/>
<stop offset="0.546875" stop-color="white"/>
<stop offset="0.786458" stop-color="white" stop-opacity="0.44"/>
<stop offset="0.994792" stop-color="white"/>
</linearGradient>
<linearGradient id="paint6_linear_367_1413" x1="127.345" y1="28.8773" x2="189.141" y2="5.12426" gradientUnits="userSpaceOnUse">
<stop stop-color="white"/>
<stop offset="0.182292" stop-color="white" stop-opacity="0.51"/>
<stop offset="0.546875" stop-color="white"/>
<stop offset="0.786458" stop-color="white" stop-opacity="0.44"/>
<stop offset="0.994792" stop-color="white"/>
</linearGradient>
</defs>
</svg>
