<svg width="246" height="140" viewBox="0 0 246 140" fill="none" xmlns="http://www.w3.org/2000/svg">
<g filter="url(#filter0_d_367_1394)">
<path d="M11.4761 111.963C10.3174 110.289 8 102.655 8 87.8235C8 72.9923 10.3174 65.3578 11.4761 63.6842L14.9521 59.6288C15.0165 58.8563 15.7246 56.6934 18.0419 54.2216C20.9386 51.1318 27.8907 44.3728 34.0704 43.9865C40.25 43.6003 64.7755 43.2141 78.8729 43.2141C88.9148 43.2141 104.557 43.9865 131.014 43.9865C157.47 43.9865 170.988 43.4072 181.416 43.4072C191.845 43.4072 200.149 43.6003 204.976 44.1796C209.804 44.759 217.722 46.6901 218.108 47.0763C223.515 48.0419 228.536 49.0075 231.819 55.1871C235.102 61.3668 238.578 74.8848 238.578 87.8235C238.578 100.762 235.102 114.28 231.819 120.46C228.536 126.639 223.515 127.605 218.108 128.571C217.722 128.957 209.804 130.888 204.976 131.467C200.149 132.047 191.845 132.24 181.416 132.24C170.988 132.24 157.47 131.66 131.014 131.66C104.557 131.66 88.9148 132.433 78.8729 132.433C64.7755 132.433 40.2501 132.047 34.0704 131.66C27.8908 131.274 20.9386 124.515 18.0419 121.425C15.7246 118.953 15.0165 116.791 14.9521 116.018L11.4761 111.963Z" fill="url(#paint0_radial_367_1394)" fill-opacity="0.97" shape-rendering="crispEdges"/>
<path d="M11.4761 111.963C10.3174 110.289 8 102.655 8 87.8235C8 72.9923 10.3174 65.3578 11.4761 63.6842L14.9521 59.6288C15.0165 58.8563 15.7246 56.6934 18.0419 54.2216C20.9386 51.1318 27.8907 44.3728 34.0704 43.9865C40.25 43.6003 64.7755 43.2141 78.8729 43.2141C88.9148 43.2141 104.557 43.9865 131.014 43.9865C157.47 43.9865 170.988 43.4072 181.416 43.4072C191.845 43.4072 200.149 43.6003 204.976 44.1796C209.804 44.759 217.722 46.6901 218.108 47.0763C223.515 48.0419 228.536 49.0075 231.819 55.1871C235.102 61.3668 238.578 74.8848 238.578 87.8235C238.578 100.762 235.102 114.28 231.819 120.46C228.536 126.639 223.515 127.605 218.108 128.571C217.722 128.957 209.804 130.888 204.976 131.467C200.149 132.047 191.845 132.24 181.416 132.24C170.988 132.24 157.47 131.66 131.014 131.66C104.557 131.66 88.9148 132.433 78.8729 132.433C64.7755 132.433 40.2501 132.047 34.0704 131.66C27.8908 131.274 20.9386 124.515 18.0419 121.425C15.7246 118.953 15.0165 116.791 14.9521 116.018L11.4761 111.963Z" stroke="url(#paint1_linear_367_1394)" stroke-width="0.772457" shape-rendering="crispEdges"/>
</g>
<path d="M82.1555 47.6557L78.4863 43.021L131.4 43.7934L131.4 44.759M82.1555 47.6557L89.6869 47.6557M82.1555 47.6557L83.9579 50.3593M132.945 49.9731L135.841 58.0839L131.593 58.0839M132.945 49.9731L132.751 49.0075M132.945 49.9731C131.405 49.9731 129.663 49.9591 127.73 49.9427M132.068 46.8832L132.365 47.6557L132.751 49.0075M132.068 46.8832L131.4 45.1452L131.4 44.759M132.068 46.8832L96.8322 47.0764M83.9579 50.3593L84.0866 50.5524L85.8247 50.5524C86.048 50.649 86.3066 50.7574 86.5971 50.8754M83.9579 50.3593C97.0253 49.2006 123.385 49.0075 132.751 49.0075M86.5971 50.8754C89.4049 52.0167 95.2005 54.0671 101.081 55.1872C107.569 56.4231 123.997 57.6333 131.4 58.0839L131.593 58.0839M86.5971 50.8754C104.091 49.7198 118.223 49.8617 127.73 49.9427M127.73 49.9427L131.593 58.0839M131.4 44.759C130.694 44.7884 129.651 44.8392 128.696 44.9005M126.379 45.1452C125.992 45.3383 124.447 45.5314 123.868 45.5314C123.578 45.5314 122.275 45.3383 120.971 45.1452M126.379 45.1452C126.547 45.0613 127.559 44.9735 128.696 44.9005M126.379 45.1452C125.928 44.9521 124.795 44.5659 123.868 44.5659C122.941 44.5659 121.551 44.9521 120.971 45.1452M119.04 44.8656C118.566 44.8011 118.21 44.759 118.075 44.759C117.495 44.759 112.088 44.1796 111.702 43.9865C111.393 43.832 116.465 44.5082 119.04 44.8656ZM119.04 44.8656C120.006 44.1998 121.937 43.9865 124.254 43.9865C125.49 43.9865 127.73 44.5959 128.696 44.9005M119.04 44.8656C119.582 44.9393 120.277 45.0423 120.971 45.1452" stroke="url(#paint2_linear_367_1394)" stroke-opacity="0.26" stroke-width="0.386228"/>
<path d="M82.1555 127.991L78.4863 132.626L131.4 131.854L131.4 130.888M82.1555 127.991L89.6869 128.184M82.1555 127.991L83.9579 125.288M132.945 125.674L135.841 117.563L131.593 117.563M132.945 125.674L132.751 126.639M132.945 125.674C131.405 125.674 129.663 125.688 127.73 125.704M89.6869 128.184L91.425 129.729M89.6869 128.184C89.9444 127.798 90.6525 127.026 91.425 127.026L93.9355 127.026L94.1679 127.629M132.068 128.764L132.365 127.991L132.751 126.639M132.068 128.764L131.4 130.502L131.4 130.888M132.068 128.764L96.8322 128.571L96.6883 128.571M83.9579 125.288L84.0866 125.095L85.8247 125.095C86.048 124.998 86.3066 124.89 86.5971 124.771M83.9579 125.288C97.0253 126.446 123.385 126.639 132.751 126.639M86.5971 124.771C89.4049 123.63 95.2005 121.58 101.081 120.46C107.569 119.224 123.997 118.014 131.4 117.563L131.593 117.563M86.5971 124.771C103.812 125.909 117.772 125.789 127.273 125.708L127.73 125.704M127.73 125.704L131.593 117.563M131.4 130.888C130.694 130.859 129.651 130.808 128.696 130.746M126.379 130.502C125.992 130.309 124.447 130.115 123.868 130.115C123.578 130.115 122.275 130.309 120.971 130.502M126.379 130.502C126.547 130.586 127.559 130.673 128.696 130.746M126.379 130.502C125.928 130.695 124.795 131.081 123.868 131.081C122.941 131.081 121.551 130.695 120.971 130.502M119.04 130.781C118.566 130.846 118.21 130.888 118.075 130.888C117.495 130.888 112.088 131.467 111.702 131.66C111.393 131.815 116.465 131.139 119.04 130.781ZM119.04 130.781C120.006 131.447 121.937 131.66 124.254 131.66C125.49 131.66 127.73 131.051 128.696 130.746M119.04 130.781C119.582 130.708 120.277 130.605 120.971 130.502M91.425 129.729C91.6825 130.888 92.545 133.553 93.9355 134.943C95.0922 136.1 97.3095 136.981 98.7633 137.429M91.425 129.729C91.6181 129.214 92.1974 128.107 92.9699 127.798C93.2555 127.684 93.6906 127.637 94.1679 127.629M94.1679 127.629C94.6643 127.621 95.2064 127.655 95.6735 127.702M98.7633 137.429C99.0569 137.52 99.3194 137.593 99.5358 137.647L96.6883 128.571M98.7633 137.429L95.6735 127.702M95.6735 127.702C95.9722 127.732 96.2402 127.766 96.4459 127.798L96.6883 128.571" stroke="url(#paint3_linear_367_1394)" stroke-opacity="0.26" stroke-width="0.386228"/>
<path d="M91.4255 45.9177L89.6875 47.4626C89.945 47.8488 90.6531 48.6213 91.4255 48.6213C92.198 48.6213 93.421 48.6213 93.936 48.6213L94.1685 48.0182M91.4255 45.9177C91.683 44.759 92.5456 42.094 93.936 40.7036C95.0928 39.5468 97.31 38.6663 98.7639 38.2177M91.4255 45.9177C91.6186 46.4327 92.198 47.5398 92.9704 47.8488C93.256 47.963 93.6911 48.0104 94.1685 48.0182M94.1685 48.0182C94.6649 48.0264 95.207 47.9917 95.674 47.9451M98.7639 38.2177C99.0575 38.1271 99.32 38.0541 99.5363 38L96.4465 47.8488C96.2407 47.8805 95.9727 47.9152 95.674 47.9451M98.7639 38.2177L95.674 47.9451" stroke="white" stroke-opacity="0.26" stroke-width="0.386228"/>
<path d="M14.759 111.19C14.1797 109.066 12.0554 98.2516 11.8623 87.8235C12.0554 77.3953 14.1797 66.5809 14.759 64.4567M14.759 111.19C11.6692 110.032 10.3174 109.066 10.3174 109.066M14.759 111.19C24.9941 113.985 50.2534 120.358 69.4103 123.493M14.759 111.19C15.0506 112.259 15.44 113.622 15.9026 114.859M24.8009 123.936C22.7411 122.262 18.9689 119.069 18.0419 118.142C17.4664 117.567 16.3591 116.081 15.9026 114.859M24.8009 123.936L52.4163 123.936M24.8009 123.936C24.9238 123.986 25.0528 124.037 25.1872 124.091M52.4163 123.936C56.6004 124.129 65.1232 124.515 65.7411 124.515M52.4163 123.936L15.9026 114.859M65.7411 124.515C66.2297 124.515 68.0382 123.952 69.4103 123.493M65.7411 124.515C68.3804 125.159 74.045 126.524 75.59 126.833C77.1349 127.142 80.6109 127.734 82.1558 127.991M70.3759 123.356C67.9298 120.202 63.0375 107.907 63.0375 87.8235C63.0375 67.7396 67.9298 55.4447 70.3759 52.2905M70.3759 123.356L69.4103 123.493M70.3759 123.356C71.2127 123.678 82.5421 124.515 82.5421 124.515M22.4836 125.674C23.8354 126.833 28.8563 128.377 30.2081 128.571C30.7817 128.652 35.2291 129.729 35.4222 129.729C35.5021 129.729 35.846 129.63 36.1947 129.419M25.1872 124.091C28.3613 125.357 34.5957 127.65 36.9671 127.798C36.9671 128.184 36.9669 128.482 36.774 128.764M25.1872 124.091L25.1872 125.095M25.1872 125.867C23.1917 124.708 18.5827 121.194 16.1108 117.177C15.6473 116.559 15.1452 116.147 14.9521 116.018M25.1872 125.867L25.1872 125.095M25.1872 125.867C27.1827 127.026 31.9462 128.377 36.1947 129.419M36.774 128.764C34.3182 128.278 28.586 126.794 25.1872 125.095M36.774 128.764L36.773 128.765C36.614 128.997 36.4178 129.283 36.1947 129.419M82.5421 124.515C82.5421 124.515 83.7008 124.708 84.087 125.095M82.5421 124.515C82.1593 124.272 81.4004 123.817 80.4178 123.281M80.4178 123.281C79.5826 122.824 78.5858 122.308 77.5211 121.812C74.6244 120.46 71.1483 117.177 69.9896 115.632C68.831 114.087 64.5825 106.362 64.5825 87.8235C64.5825 69.2845 68.831 61.56 69.9896 60.015C71.1483 58.4701 74.6244 55.1872 77.5211 53.8354C78.5858 53.3385 79.5826 52.8226 80.4178 52.3664M80.4178 123.281C90.945 120.535 96.3229 118.396 108.226 117.017M199.183 113.508C185.601 113.894 152.604 114.859 129.276 115.632C120.237 115.931 113.573 116.397 108.226 117.017M199.183 113.508L199.183 112.349M199.183 113.508C199.183 114.128 199.67 114.707 200.683 115.246M199.183 112.349C181.803 112.864 143.489 113.971 129.276 114.28C115.062 114.589 108.934 115.31 107.647 115.632M199.183 112.349L199.183 106.362M107.647 115.632C106.166 110.675 103.205 97.5564 103.205 87.8235C103.205 78.0905 106.166 64.9716 107.647 60.015M107.647 115.632L108.226 117.017M200.683 115.246C201.877 115.882 203.803 116.461 206.521 116.984C210.186 117.688 214.16 117.982 217.541 117.563M200.683 115.246C208.839 112.349 211.452 110.611 213.86 101.535C215.405 95.7114 215.405 89.3684 215.405 87.8235C215.405 86.2786 215.405 79.9355 213.86 74.1124C211.452 65.036 208.839 63.298 200.682 60.4013M199.183 106.362C201.307 106.556 202.852 106.749 204.397 106.942L204.397 102.307C202.852 101.844 200.277 101.599 199.183 101.535M199.183 106.362L199.183 101.535M199.183 101.535L199.183 74.1124M217.541 117.563C217.086 117.177 216.023 116.366 215.405 116.211C214.632 116.018 210.77 115.053 209.032 114.473C207.294 113.894 209.225 112.349 209.611 111.77C209.92 111.306 210.77 110.16 211.156 109.645C212.894 110.289 217.065 111.654 219.846 111.963C223.322 112.349 226.605 112.349 228.536 107.521C230.467 102.693 231.047 95.3549 231.047 87.8235C231.047 80.292 230.467 72.9537 228.536 68.1258C226.605 63.298 223.322 63.298 219.846 63.6842C217.065 63.9932 212.894 65.3579 211.156 66.0016C210.77 65.4866 209.92 64.3408 209.611 63.8773C209.225 63.298 207.294 61.7531 209.032 61.1737C210.77 60.5944 214.632 59.6288 215.405 59.4357C216.023 59.2812 217.086 58.4701 217.541 58.0839M217.541 117.563C218.558 117.437 219.521 117.247 220.407 116.984M217.541 117.563L219.176 119.205M220.407 116.984C220.61 116.923 220.81 116.859 221.005 116.791C225.447 115.236 232.785 109.259 233.171 98.4447C233.364 93.0375 233.364 87.8235 233.364 87.8235C233.364 87.8235 233.364 82.6094 233.171 77.2022C232.785 66.3878 225.447 60.4109 221.005 58.8563C220.81 58.7881 220.61 58.7237 220.407 58.6632M220.407 116.984C227.571 111.963 229.336 110.208 231.047 103.079C232.206 98.2516 232.206 89.7546 232.206 87.8235C232.206 85.8923 232.206 77.3953 231.047 72.5675C229.336 65.4393 227.571 63.6842 220.407 58.6632M219.176 119.205L220.812 120.846M219.176 119.205C215.988 120.331 207.178 122.7 197.445 123.163M220.812 120.846C218.907 122.067 214.535 124.281 209.432 125.481M220.812 120.846C222.745 119.665 224.499 118.424 226.206 116.791M197.445 123.163C200.035 121.927 201.099 120.846 201.307 120.46C200.975 120.354 200.586 120.236 200.149 120.11M197.445 123.163C191.574 124.399 185.343 124.837 182.961 124.901M182.575 123.936L174.658 117.563L184.12 117.563C189.895 117.563 196.609 119.093 200.149 120.11M182.575 123.936C185.408 123.871 191.806 123.55 194.741 122.777C197.677 122.005 199.569 120.677 200.149 120.11M182.575 123.936L182.961 124.901M182.961 124.901L184.12 127.219M184.12 127.219C187.918 127.09 197.29 126.717 204.397 126.253C206.112 126.141 207.809 125.862 209.432 125.481M184.12 127.219L183.348 129.536C193.583 129.15 201.887 128.764 209.032 128.377M209.032 128.377C211.658 126.678 213.345 125.738 213.86 125.481M209.032 128.377C206.405 129.768 204.848 131.145 204.397 131.66M213.86 125.481L209.432 125.481M213.86 125.481C215.405 124.708 219.46 124.708 222.357 122.777C224.543 121.319 226.18 118.871 227.266 117.177M213.86 125.481C216.944 125.481 219.907 125.255 222.743 123.936M231.819 111.19C233.042 109.452 235.527 104.47 235.682 98.4447C235.836 92.4196 235.875 87.8235 235.875 87.8235C235.875 87.8235 235.836 83.2274 235.682 77.2022C235.527 71.177 233.042 66.1947 231.819 64.4567M231.819 111.19C231.37 111.736 230.647 112.623 229.94 113.508M231.819 111.19C231.284 112.605 230.254 115.077 229.085 117.37M222.743 123.936C223.991 123.355 225.64 122.391 226.605 121.425C227.52 120.511 228.285 118.938 229.085 117.37M222.743 123.936C225.253 121.812 226.605 120.46 227.764 118.142C227.893 117.883 228.023 117.621 228.15 117.36M229.94 113.508C229.231 114.396 228.537 115.283 228.15 115.825C227.913 116.156 227.619 116.627 227.266 117.177M229.94 113.508C229.648 114.172 228.934 115.751 228.15 117.36M229.085 117.37L228.15 117.36M229.085 117.37C229.305 117.37 229.692 117.361 230.155 117.335M228.15 117.36L227.266 117.177M227.266 117.177L226.206 116.791M226.206 116.791C227.569 115.487 228.903 113.934 230.274 111.963C233.364 107.521 234.523 103.466 234.523 87.8235C234.523 72.1812 233.364 68.1258 230.274 63.6842C228.903 61.7127 227.569 60.1597 226.206 58.8563M233.557 116.984C233.429 116.984 232.901 117.022 231.819 117.177C231.255 117.257 230.66 117.307 230.155 117.335M230.155 117.335C231.546 115.094 234.562 109.607 235.488 105.59C236.647 100.569 237.226 93.2307 237.226 87.8235C237.226 82.4163 236.647 75.0779 235.488 70.057C234.562 66.0402 231.546 60.5533 230.155 58.3119M230.155 117.335C229.085 119.205 228.923 119.687 226.991 122.391C225.06 125.094 219.267 127.798 218.108 128.377M224.674 126.833C225.494 126.06 227.413 124.245 228.536 123.163C229.66 122.082 231.45 120.074 232.206 119.205M14.759 64.4567C11.6692 65.6154 10.3174 66.5809 10.3174 66.5809M14.759 64.4567C24.9941 61.6619 50.2534 55.2887 69.4103 52.1537M14.759 64.4567C15.0506 63.3876 15.44 62.025 15.9026 60.7875M24.8009 51.7111C22.7411 53.3848 18.9689 56.5776 18.0419 57.5046C17.4664 58.0801 16.3591 59.566 15.9026 60.7875M24.8009 51.7111L52.4163 51.7111M24.8009 51.7111C24.9238 51.6614 25.0528 51.6097 25.1872 51.5561M52.4163 51.7111C56.6004 51.518 65.1232 51.1318 65.7411 51.1318M52.4163 51.7111L15.9026 60.7875M65.7411 51.1318C66.2297 51.1318 68.0382 51.6952 69.4103 52.1537M65.7411 51.1318C68.3804 50.4881 74.045 49.1234 75.59 48.8144C77.1349 48.5054 80.6109 47.9132 82.1558 47.6557M70.3759 52.2905L69.4103 52.1537M70.3759 52.2905C71.2127 51.9686 82.5421 51.1318 82.5421 51.1318M22.4836 49.9731C23.8354 48.8144 28.8563 47.2695 30.2081 47.0764C30.7817 46.9945 35.2291 45.9177 35.4222 45.9177C35.5021 45.9177 35.846 46.0167 36.1947 46.2284M25.1872 51.5561C28.3613 50.29 34.5957 47.9971 36.9671 47.8489C36.9671 47.4626 36.9669 47.1646 36.774 46.8833M25.1872 51.5561L25.1872 50.5524M25.1872 49.78C23.1917 50.9387 18.5827 54.4534 16.1108 58.4701C15.6473 59.0881 15.1452 59.5001 14.9521 59.6288M25.1872 49.78L25.1872 50.5524M25.1872 49.78C27.1827 48.6213 31.9462 47.2695 36.1947 46.2284M36.774 46.8833C34.3182 47.3688 28.586 48.853 25.1872 50.5524M36.774 46.8833L36.773 46.8818C36.614 46.65 36.4178 46.3639 36.1947 46.2284M82.5421 51.1318C82.5421 51.1318 83.7007 50.9387 84.087 50.5524M82.5421 51.1318C82.1593 51.3754 81.4004 51.8296 80.4178 52.3664M80.4178 52.3664C90.945 55.1124 96.3229 57.2508 108.226 58.63M199.183 62.1393C185.601 61.7531 152.604 60.7875 129.276 60.015C120.237 59.7157 113.573 59.2495 108.226 58.63M199.183 62.1393L199.183 63.298M199.183 62.1393C199.183 61.5193 199.67 60.94 200.682 60.4013M199.183 63.298C181.803 62.783 143.489 61.6758 129.276 61.3668C115.062 61.0579 108.934 60.3369 107.647 60.015M199.183 63.298L199.183 69.2845M107.647 60.015L108.226 58.63M200.682 60.4013C201.877 59.7653 203.803 59.186 206.521 58.6632C210.186 57.9585 214.16 57.6652 217.541 58.0839M199.183 69.2845C201.307 69.0914 202.852 68.8983 204.397 68.7052L204.397 73.3399C202.852 73.8034 200.277 74.048 199.183 74.1124M199.183 69.2845L199.183 74.1124M217.541 58.0839C218.558 58.2098 219.521 58.4002 220.407 58.6632M217.541 58.0839L219.176 56.4424M219.176 56.4424L220.812 54.801M219.176 56.4424C215.988 55.3159 207.178 52.9471 197.445 52.4836M220.812 54.801C218.907 53.58 214.535 51.366 209.432 50.1662M220.812 54.801C222.745 55.9823 224.499 57.2234 226.206 58.8563M197.445 52.4836C200.035 53.7195 201.099 54.801 201.307 55.1872C200.975 55.2933 200.586 55.4112 200.149 55.5368M197.445 52.4836C191.574 51.2477 185.343 50.8099 182.961 50.7456M182.575 51.7111L174.658 58.0839L184.12 58.0839C189.895 58.0839 196.609 56.554 200.149 55.5368M182.575 51.7111C185.408 51.7755 191.806 52.0974 194.741 52.8698C197.677 53.6423 199.569 54.9697 200.149 55.5368M182.575 51.7111L182.961 50.7456M182.961 50.7456L184.12 48.4282M184.12 48.4282C187.918 48.5569 197.29 48.9303 204.397 49.3938C206.112 49.5056 207.809 49.7846 209.432 50.1662M184.12 48.4282L183.348 46.1108C193.583 46.497 201.887 46.8833 209.032 47.2695M209.032 47.2695C211.658 48.9689 213.345 49.9087 213.86 50.1662M209.032 47.2695C206.405 45.8791 204.848 44.5015 204.397 43.9866M213.86 50.1662L209.432 50.1662M213.86 50.1662C215.405 50.9387 219.46 50.9387 222.357 52.8698C224.543 54.3277 226.18 56.776 227.266 58.4701M213.86 50.1662C216.944 50.1662 219.907 50.3922 222.743 51.7111M231.819 64.4567C231.37 63.9105 230.647 63.0244 229.94 62.1393M231.819 64.4567C231.284 63.0422 230.254 60.5697 229.085 58.277M222.743 51.7111C223.991 52.2917 225.64 53.256 226.605 54.2216C227.52 55.1362 228.285 56.7092 229.085 58.277M222.743 51.7111C225.253 53.8354 226.605 55.1872 227.764 57.5045C227.893 57.7637 228.023 58.0259 228.15 58.2873M229.94 62.1393C229.231 61.251 228.537 60.3636 228.15 59.8219C227.913 59.4906 227.619 59.0201 227.266 58.4701M229.94 62.1393C229.648 61.4748 228.934 59.8958 228.15 58.2873M229.085 58.277L228.15 58.2873M229.085 58.277C229.305 58.277 229.692 58.2858 230.155 58.3119M228.15 58.2873L227.266 58.4701M227.266 58.4701L226.206 58.8563M233.557 58.6632C233.429 58.6632 232.901 58.6246 231.819 58.4701C231.255 58.3894 230.66 58.3404 230.155 58.3119M230.155 58.3119C229.085 56.4424 228.923 55.9596 226.991 53.256C225.06 50.5524 219.267 47.8488 218.108 47.2695M224.674 48.8144C225.494 49.5869 227.413 51.4021 228.536 52.4836C229.66 53.565 231.45 55.5734 232.206 56.4424" stroke="url(#paint4_linear_367_1394)" stroke-opacity="0.26" stroke-width="0.386228"/>
<path d="M70.9558 115.439C74.4318 119.687 78.4872 121.039 81.9633 121.425C85.0531 120.846 100.309 117.756 102.626 116.791C104.944 115.825 105.716 115.632 104.751 111.19C103.785 106.749 103.013 101.728 102.82 99.9897C102.626 98.2516 101.275 97.0929 98.9573 96.5136C96.64 95.9343 93.1639 94.7756 91.8121 93.81C90.4603 92.8444 90.4603 89.5615 90.4603 87.8235C90.4603 86.0854 90.4603 82.8025 91.8121 81.8369C93.1639 80.8714 96.64 79.7127 98.9573 79.1333C101.275 78.554 102.626 77.3953 102.82 75.6573C103.013 73.9193 103.785 68.8983 104.751 64.4567C105.716 60.015 104.944 59.8219 102.626 58.8564C100.309 57.8908 85.0531 54.801 81.9633 54.2216C78.4872 54.6078 74.4318 55.9596 70.9558 60.2082C67.4797 64.4567 65.3555 78.9402 65.3555 87.8235C65.3555 96.7067 67.4797 111.19 70.9558 115.439Z" fill="#111111" stroke="white" stroke-opacity="0.26" stroke-width="0.386228"/>
<path d="M182.575 123.936L174.658 117.563L170.023 117.563M182.575 123.936L183.155 125.094M182.575 123.936C181.341 124.068 179.766 124.194 177.941 124.313M183.155 125.094L184.12 127.219M183.155 125.094C169.067 125.674 139.246 126.794 132.669 126.639M184.12 127.219C172.842 127.991 150.712 127.927 141.056 127.798M184.12 127.219C184.005 127.506 183.695 128.297 183.3 129.343M132.945 125.674L135.842 117.563L138.738 117.563M132.945 125.674L137 125.674M132.945 125.674L132.669 126.639M138.738 117.563L137 125.674M138.738 117.563L170.023 117.563M137 125.674C145.463 125.533 161.259 125.165 172.533 124.616M170.023 117.563L173.421 120.46M177.941 124.313C176.316 124.42 174.493 124.521 172.533 124.616M177.941 124.313L173.421 120.46M172.533 124.616L173.421 120.46M132.669 126.639L132.448 127.412M132.044 128.764L131.593 130.115L131.465 130.695M132.044 128.764L132.173 128.377L132.448 127.412M132.044 128.764L146.463 128.764L141.056 127.798M141.056 127.798L132.448 127.412M183.3 129.343C183.253 129.468 183.204 129.597 183.155 129.729C182.691 130.965 181.803 131.918 181.417 132.24L162.492 131.853L145.497 131.853L131.207 131.853L131.465 130.695M183.3 129.343L180.258 129.343C180.194 129.329 180.123 129.315 180.047 129.299M131.465 130.695C142.536 130.695 168.864 129.729 170.023 129.729C170.19 129.729 170.385 129.709 170.602 129.675M170.602 129.675C171.246 130.079 173.074 130.888 175.237 130.888C177.941 130.888 179.449 129.834 180.047 129.299M170.602 129.675C171.24 129.574 172.07 129.35 172.946 129.15M180.047 129.299C179.587 129.206 178.917 129.085 178.188 128.982M178.188 128.982C177.333 128.861 176.398 128.764 175.623 128.764C174.787 128.764 173.843 128.945 172.946 129.15M178.188 128.982C178.105 129.167 177.477 129.575 175.623 129.729C173.769 129.884 173.066 129.407 172.946 129.15" stroke="url(#paint5_linear_367_1394)" stroke-opacity="0.26" stroke-width="0.386228"/>
<path d="M182.575 51.7112L174.658 58.0839L170.023 58.0839M182.575 51.7112L183.155 50.5525M182.575 51.7112C181.341 51.5789 179.766 51.4529 177.941 51.3335M183.155 50.5525L184.12 48.4282M183.155 50.5525C169.067 49.9731 139.246 48.8531 132.669 49.0076M184.12 48.4282C172.842 47.6558 150.712 47.7201 141.056 47.8489M184.12 48.4282C184.005 48.1408 183.695 47.3501 183.3 46.304M132.945 49.9731L135.842 58.0839L138.738 58.0839M132.945 49.9731L137 49.9731M132.945 49.9731L132.669 49.0076M138.738 58.0839L137 49.9731M138.738 58.0839L170.023 58.0839M137 49.9731C145.463 50.1142 161.259 50.4818 172.533 51.031M170.023 58.0839L173.421 55.1872M177.941 51.3335C176.316 51.2274 174.493 51.1264 172.533 51.031M177.941 51.3335L173.421 55.1872M172.533 51.031L173.421 55.1872M132.669 49.0076L132.448 48.2351M132.044 46.8833L131.593 45.5315L131.465 44.9522M132.044 46.8833L132.173 47.2695L132.448 48.2351M132.044 46.8833L146.463 46.8833L141.056 47.8489M141.056 47.8489L132.448 48.2351M183.3 46.304C183.253 46.1787 183.204 46.0499 183.155 45.9177C182.691 44.6818 181.803 43.7291 181.417 43.4073L162.492 43.7935L145.497 43.7935L131.207 43.7935L131.465 44.9522M183.3 46.304L180.258 46.304C180.194 46.3177 180.123 46.3324 180.047 46.3479M131.465 44.9522C142.536 44.9522 168.864 45.9177 170.023 45.9177C170.19 45.9177 170.385 45.9378 170.602 45.9721M170.602 45.9721C171.246 45.5678 173.074 44.7591 175.237 44.7591C177.941 44.7591 179.449 45.8126 180.047 46.3479M170.602 45.9721C171.24 46.0729 172.07 46.2966 172.946 46.4971M180.047 46.3479C179.587 46.441 178.917 46.5619 178.188 46.6652M178.188 46.6652C177.333 46.7863 176.398 46.8833 175.623 46.8833C174.787 46.8833 173.843 46.7023 172.946 46.4971M178.188 46.6652C178.105 46.4804 177.477 46.0722 175.623 45.9177C173.769 45.7632 173.066 46.2396 172.946 46.4971" stroke="url(#paint6_linear_367_1394)" stroke-opacity="0.26" stroke-width="0.386228"/>
<path d="M185.472 87.8235C185.729 88.2097 186.785 89.0208 188.948 89.1753C189.711 89.2298 190.544 89.1417 191.352 88.9822M194.707 87.9266C194.789 87.8906 194.865 87.8561 194.934 87.8235L194.707 87.9266ZM194.707 87.9266C193.953 88.2587 192.688 88.7182 191.352 88.9822M194.707 87.9266L194.707 89.0718C193.682 89.0419 191.576 88.9822 191.352 88.9822" stroke="white" stroke-opacity="0.26" stroke-width="0.386228"/>
<path d="M185.472 87.8234C185.729 87.4371 186.785 86.6261 188.948 86.4716C189.711 86.4171 190.544 86.5052 191.352 86.6647M194.707 87.7203C194.789 87.7563 194.865 87.7908 194.934 87.8234L194.707 87.7203ZM194.707 87.7203C193.953 87.3882 192.688 86.9287 191.352 86.6647M194.707 87.7203L194.707 86.5751C193.682 86.6049 191.576 86.6647 191.352 86.6647" stroke="white" stroke-opacity="0.26" stroke-width="0.386228"/>
<g filter="url(#filter1_d_367_1394)">
<path d="M181.719 44.0951L196.318 55.6273L197.398 57.7384L199.201 61.6105C198.996 62.1386 198.441 63.5909 197.736 65.5125C197.651 65.7425 197.564 65.9792 197.476 66.2219C196.648 68.4919 195.038 70.2506 194.337 70.8462L159.689 70.4562L128.583 70.7407L102.426 70.9801L102.878 68.8549L104.624 62.8293L105.015 61.4117L105.504 59.6397L110.67 44.7451L115.972 44.6966L173.236 44.1727L181.719 44.0951Z" fill="#CAC1E9" fill-opacity="0.4" shape-rendering="crispEdges"/>
<path d="M196.318 55.6273L181.719 44.0951L173.236 44.1727M196.318 55.6273L197.398 57.7384M196.318 55.6273C194.061 55.8901 191.181 56.147 187.841 56.3961M197.398 57.7384L199.201 61.6105M197.398 57.7384C171.621 59.0348 117.056 61.5843 105.015 61.4117M199.201 61.6105C198.996 62.1386 198.441 63.5909 197.736 65.5125M199.201 61.6105C167.753 63.1859 136.05 65.3513 104.624 62.8293M105.504 59.6397L110.67 44.7451L115.972 44.6966M105.504 59.6397L112.927 59.5718M105.504 59.6397L105.015 61.4117M115.972 44.6966L112.927 59.5718M115.972 44.6966L173.236 44.1727M112.927 59.5718C128.414 59.1719 157.322 58.2344 177.949 57.0405M173.236 44.1727L179.503 49.418M187.841 56.3961C184.87 56.6176 181.535 56.8329 177.949 57.0405M187.841 56.3961L179.503 49.418M177.949 57.0405L179.503 49.418M105.015 61.4117L104.624 62.8293M104.624 62.8293L102.878 68.8549M197.736 65.5125C197.651 65.7425 197.564 65.9792 197.476 66.2219C196.648 68.4919 195.038 70.2506 194.337 70.8462L159.689 70.4562L128.583 70.7407L102.426 70.9801L102.878 68.8549M197.736 65.5125L192.167 65.5634C192.05 65.5393 191.92 65.5136 191.78 65.4865M102.878 68.8549C123.144 68.6695 171.319 66.4612 173.439 66.4418C173.745 66.439 174.102 66.399 174.499 66.3326M174.499 66.3326C175.684 67.0619 179.044 68.5115 183.003 68.4753C187.951 68.4301 190.695 66.4764 191.78 65.4865M174.499 66.3326C175.665 66.1375 177.18 65.7141 178.78 65.3324M191.78 65.4865C190.937 65.3238 189.709 65.1138 188.372 64.9368M188.372 64.9368C186.806 64.7295 185.091 64.5676 183.674 64.5806C182.144 64.5946 180.418 64.9417 178.78 65.3324M188.372 64.9368C188.224 65.2765 187.081 66.0342 183.69 66.348C180.3 66.6618 179.004 65.8017 178.78 65.3324" stroke="#CAC1E9" stroke-width="1.41397" shape-rendering="crispEdges"/>
</g>
<defs>
<filter id="filter0_d_367_1394" x="0.662149" y="35.8758" width="245.255" height="103.895" filterUnits="userSpaceOnUse" color-interpolation-filters="sRGB">
<feFlood flood-opacity="0" result="BackgroundImageFix"/>
<feColorMatrix in="SourceAlpha" type="matrix" values="0 0 0 0 0 0 0 0 0 0 0 0 0 0 0 0 0 0 127 0" result="hardAlpha"/>
<feOffset/>
<feGaussianBlur stdDeviation="3.47605"/>
<feComposite in2="hardAlpha" operator="out"/>
<feColorMatrix type="matrix" values="0 0 0 0 0 0 0 0 0 0 0 0 0 0 0 0 0 0 1 0"/>
<feBlend mode="normal" in2="BackgroundImageFix" result="effect1_dropShadow_367_1394"/>
<feBlend mode="normal" in="SourceGraphic" in2="effect1_dropShadow_367_1394" result="shape"/>
</filter>
<filter id="filter1_d_367_1394" x="80.3422" y="22.1763" width="140.837" height="70.7282" filterUnits="userSpaceOnUse" color-interpolation-filters="sRGB">
<feFlood flood-opacity="0" result="BackgroundImageFix"/>
<feColorMatrix in="SourceAlpha" type="matrix" values="0 0 0 0 0 0 0 0 0 0 0 0 0 0 0 0 0 0 127 0" result="hardAlpha"/>
<feOffset/>
<feGaussianBlur stdDeviation="10.6048"/>
<feComposite in2="hardAlpha" operator="out"/>
<feColorMatrix type="matrix" values="0 0 0 0 0.792157 0 0 0 0 0.756863 0 0 0 0 0.913725 0 0 0 1 0"/>
<feBlend mode="normal" in2="BackgroundImageFix" result="effect1_dropShadow_367_1394"/>
<feBlend mode="normal" in="SourceGraphic" in2="effect1_dropShadow_367_1394" result="shape"/>
</filter>
<radialGradient id="paint0_radial_367_1394" cx="0" cy="0" r="1" gradientUnits="userSpaceOnUse" gradientTransform="translate(123.289 87.8235) rotate(-44.8305) scale(276.929 107.154)">
<stop stop-color="#1D1D1D"/>
<stop offset="1"/>
</radialGradient>
<linearGradient id="paint1_linear_367_1394" x1="10.7036" y1="125.481" x2="210.77" y2="37.4207" gradientUnits="userSpaceOnUse">
<stop stop-color="#CECECE" stop-opacity="0.76"/>
<stop offset="0.25" stop-color="#838383" stop-opacity="0.53"/>
<stop offset="0.484375" stop-color="#C4C4C4" stop-opacity="0.515625"/>
<stop offset="0.677083" stop-color="#E1E1E1" stop-opacity="0.6"/>
<stop offset="0.854167" stop-color="#CFCFCF" stop-opacity="0.23"/>
<stop offset="1" stop-color="#CFCFCF" stop-opacity="0.63"/>
</linearGradient>
<linearGradient id="paint2_linear_367_1394" x1="81.383" y1="73.3399" x2="135.841" y2="38" gradientUnits="userSpaceOnUse">
<stop stop-color="white"/>
<stop offset="0.182292" stop-color="white" stop-opacity="0.51"/>
<stop offset="0.546875" stop-color="white"/>
<stop offset="0.786458" stop-color="white" stop-opacity="0.44"/>
<stop offset="0.994792" stop-color="white"/>
</linearGradient>
<linearGradient id="paint3_linear_367_1394" x1="78.2932" y1="150.586" x2="138.352" y2="114.666" gradientUnits="userSpaceOnUse">
<stop stop-color="white"/>
<stop offset="0.182292" stop-color="white" stop-opacity="0.51"/>
<stop offset="0.546875" stop-color="white"/>
<stop offset="0.786458" stop-color="white" stop-opacity="0.44"/>
<stop offset="0.994792" stop-color="white"/>
</linearGradient>
<linearGradient id="paint4_linear_367_1394" x1="35.036" y1="148.848" x2="230.467" y2="33.1722" gradientUnits="userSpaceOnUse">
<stop stop-color="white" stop-opacity="0.31"/>
<stop offset="0.291667" stop-color="white"/>
<stop offset="0.536458" stop-color="white" stop-opacity="0.26"/>
<stop offset="0.770833" stop-color="white"/>
<stop offset="1" stop-color="white" stop-opacity="0.25"/>
</linearGradient>
<linearGradient id="paint5_linear_367_1394" x1="131.207" y1="147.496" x2="191.266" y2="119.301" gradientUnits="userSpaceOnUse">
<stop stop-color="white"/>
<stop offset="0.182292" stop-color="white" stop-opacity="0.51"/>
<stop offset="0.546875" stop-color="white"/>
<stop offset="0.786458" stop-color="white" stop-opacity="0.44"/>
<stop offset="0.994792" stop-color="white"/>
</linearGradient>
<linearGradient id="paint6_linear_367_1394" x1="127.345" y1="63.8774" x2="189.141" y2="40.1243" gradientUnits="userSpaceOnUse">
<stop stop-color="white"/>
<stop offset="0.182292" stop-color="white" stop-opacity="0.51"/>
<stop offset="0.546875" stop-color="white"/>
<stop offset="0.786458" stop-color="white" stop-opacity="0.44"/>
<stop offset="0.994792" stop-color="white"/>
</linearGradient>
</defs>
</svg>
