<svg width="247" height="111" viewBox="0 0 247 111" fill="none" xmlns="http://www.w3.org/2000/svg">
<g filter="url(#filter0_d_367_1389)">
<path d="M12.4761 79.9627C11.3174 78.2891 9 70.6546 9 55.8234C9 40.9923 11.3174 33.3578 12.4761 31.6841L15.9521 27.6287C16.0165 26.8563 16.7246 24.6934 19.0419 22.2215C21.9386 19.1317 28.8907 12.3727 35.0704 11.9865C41.25 11.6003 65.7755 11.2141 79.8729 11.2141C89.9148 11.2141 105.557 11.9865 132.014 11.9865C158.47 11.9865 171.988 11.4071 182.416 11.4071C192.845 11.4071 201.149 11.6002 205.976 12.1796C210.804 12.7589 218.722 14.6901 219.108 15.0763C224.515 16.0419 229.536 17.0074 232.819 23.1871C236.102 29.3667 239.578 42.8848 239.578 55.8234C239.578 68.7621 236.102 82.2801 232.819 88.4597C229.536 94.6394 224.515 95.6049 219.108 96.5705C218.722 96.9567 210.804 98.8879 205.976 99.4672C201.149 100.047 192.845 100.24 182.416 100.24C171.988 100.24 158.47 99.6603 132.014 99.6603C105.557 99.6603 89.9148 100.433 79.8729 100.433C65.7755 100.433 41.2501 100.047 35.0704 99.6604C28.8908 99.2741 21.9386 92.5151 19.0419 89.4253C16.7246 86.9534 16.0165 84.7906 15.9521 84.0181L12.4761 79.9627Z" fill="url(#paint0_radial_367_1389)" fill-opacity="0.97" shape-rendering="crispEdges"/>
<path d="M12.4761 79.9627C11.3174 78.2891 9 70.6546 9 55.8234C9 40.9923 11.3174 33.3578 12.4761 31.6841L15.9521 27.6287C16.0165 26.8563 16.7246 24.6934 19.0419 22.2215C21.9386 19.1317 28.8907 12.3727 35.0704 11.9865C41.25 11.6003 65.7755 11.2141 79.8729 11.2141C89.9148 11.2141 105.557 11.9865 132.014 11.9865C158.47 11.9865 171.988 11.4071 182.416 11.4071C192.845 11.4071 201.149 11.6002 205.976 12.1796C210.804 12.7589 218.722 14.6901 219.108 15.0763C224.515 16.0419 229.536 17.0074 232.819 23.1871C236.102 29.3667 239.578 42.8848 239.578 55.8234C239.578 68.7621 236.102 82.2801 232.819 88.4597C229.536 94.6394 224.515 95.6049 219.108 96.5705C218.722 96.9567 210.804 98.8879 205.976 99.4672C201.149 100.047 192.845 100.24 182.416 100.24C171.988 100.24 158.47 99.6603 132.014 99.6603C105.557 99.6603 89.9148 100.433 79.8729 100.433C65.7755 100.433 41.2501 100.047 35.0704 99.6604C28.8908 99.2741 21.9386 92.5151 19.0419 89.4253C16.7246 86.9534 16.0165 84.7906 15.9521 84.0181L12.4761 79.9627Z" stroke="url(#paint1_linear_367_1389)" stroke-width="0.772457" shape-rendering="crispEdges"/>
</g>
<path d="M83.1555 15.6557L79.4863 11.0209L132.4 11.7934L132.4 12.759M83.1555 15.6557L90.6869 15.6557M83.1555 15.6557L84.9579 18.3593M133.945 17.973L136.841 26.0838L132.593 26.0838M133.945 17.973L133.751 17.0075M133.945 17.973C132.405 17.973 130.663 17.9591 128.73 17.9427M133.068 14.8832L133.365 15.6557L133.751 17.0075M133.068 14.8832L132.4 13.1452L132.4 12.759M133.068 14.8832L97.8322 15.0763M84.9579 18.3593L85.0866 18.5524L86.8247 18.5524C87.048 18.649 87.3066 18.7573 87.5971 18.8754M84.9579 18.3593C98.0253 17.2006 124.385 17.0075 133.751 17.0075M87.5971 18.8754C90.4049 20.0166 96.2005 22.0671 102.081 23.1871C108.569 24.4231 124.997 25.6332 132.4 26.0838L132.593 26.0838M87.5971 18.8754C105.091 17.7198 119.223 17.8617 128.73 17.9427M128.73 17.9427L132.593 26.0838M132.4 12.759C131.694 12.7883 130.651 12.8392 129.696 12.9005M127.379 13.1452C126.992 13.3383 125.447 13.5314 124.868 13.5314C124.578 13.5314 123.275 13.3383 121.971 13.1452M127.379 13.1452C127.547 13.0612 128.559 12.9734 129.696 12.9005M127.379 13.1452C126.928 12.9521 125.795 12.5658 124.868 12.5658C123.941 12.5658 122.551 12.9521 121.971 13.1452M120.04 12.8656C119.566 12.8011 119.21 12.759 119.075 12.759C118.495 12.759 113.088 12.1796 112.702 11.9865C112.393 11.832 117.465 12.5082 120.04 12.8656ZM120.04 12.8656C121.006 12.1998 122.937 11.9865 125.254 11.9865C126.49 11.9865 128.73 12.5958 129.696 12.9005M120.04 12.8656C120.582 12.9393 121.277 13.0422 121.971 13.1452" stroke="url(#paint2_linear_367_1389)" stroke-opacity="0.26" stroke-width="0.386228"/>
<path d="M83.1555 95.9912L79.4863 100.626L132.4 99.8535L132.4 98.8879M83.1555 95.9912L90.6869 96.1843M83.1555 95.9912L84.9579 93.2876M133.945 93.6738L136.841 85.563L132.593 85.563M133.945 93.6738L133.751 94.6394M133.945 93.6738C132.405 93.6738 130.663 93.6877 128.73 93.7042M90.6869 96.1843L92.425 97.7292M90.6869 96.1843C90.9444 95.7981 91.6525 95.0256 92.425 95.0256L94.9355 95.0256L95.1679 95.6286M133.068 96.7636L133.365 95.9912L133.751 94.6394M133.068 96.7636L132.4 98.5017L132.4 98.8879M133.068 96.7636L97.8322 96.5705L97.6883 96.5705M84.9579 93.2876L85.0866 93.0945L86.8247 93.0945C87.048 92.9979 87.3066 92.8895 87.5971 92.7714M84.9579 93.2876C98.0253 94.4463 124.385 94.6394 133.751 94.6394M87.5971 92.7714C90.4049 91.6302 96.2005 89.5798 102.081 88.4597C108.569 87.2238 124.997 86.0136 132.4 85.563L132.593 85.563M87.5971 92.7714C104.812 93.9087 118.772 93.7893 128.273 93.7081L128.73 93.7042M128.73 93.7042L132.593 85.563M132.4 98.8879C131.694 98.8585 130.651 98.8077 129.696 98.7464M127.379 98.5017C126.992 98.3085 125.447 98.1154 124.868 98.1154C124.578 98.1154 123.275 98.3085 121.971 98.5017M127.379 98.5017C127.547 98.5856 128.559 98.6734 129.696 98.7464M127.379 98.5017C126.928 98.6948 125.795 99.081 124.868 99.081C123.941 99.081 122.551 98.6948 121.971 98.5017M120.04 98.7813C119.566 98.8458 119.21 98.8879 119.075 98.8879C118.495 98.8879 113.088 99.4672 112.702 99.6603C112.393 99.8148 117.465 99.1387 120.04 98.7813ZM120.04 98.7813C121.006 99.4471 122.937 99.6603 125.254 99.6603C126.49 99.6603 128.73 99.051 129.696 98.7464M120.04 98.7813C120.582 98.7076 121.277 98.6046 121.971 98.5017M92.425 97.7292C92.6825 98.8879 93.545 101.553 94.9355 102.943C96.0922 104.1 98.3095 104.981 99.7633 105.429M92.425 97.7292C92.6181 97.2142 93.1974 96.107 93.9699 95.7981C94.2555 95.6838 94.6906 95.6365 95.1679 95.6286M95.1679 95.6286C95.6643 95.6205 96.2064 95.6551 96.6735 95.7018M99.7633 105.429C100.057 105.52 100.319 105.593 100.536 105.647L97.6883 96.5705M99.7633 105.429L96.6735 95.7018M96.6735 95.7018C96.9722 95.7316 97.2402 95.7664 97.4459 95.7981L97.6883 96.5705" stroke="url(#paint3_linear_367_1389)" stroke-opacity="0.26" stroke-width="0.386228"/>
<path d="M92.4255 13.9176L90.6875 15.4626C90.945 15.8488 91.6531 16.6212 92.4255 16.6212C93.198 16.6212 94.421 16.6212 94.936 16.6212L95.1685 16.0182M92.4255 13.9176C92.683 12.759 93.5456 10.094 94.936 8.70357C96.0928 7.54678 98.31 6.66624 99.7639 6.21764M92.4255 13.9176C92.6186 14.4326 93.198 15.5398 93.9704 15.8488C94.256 15.963 94.6911 16.0104 95.1685 16.0182M95.1685 16.0182C95.6649 16.0263 96.207 15.9917 96.674 15.9451M99.7639 6.21764C100.057 6.12704 100.32 6.05405 100.536 5.99997L97.4465 15.8488C97.2407 15.8804 96.9727 15.9152 96.674 15.9451M99.7639 6.21764L96.674 15.9451" stroke="white" stroke-opacity="0.26" stroke-width="0.386228"/>
<path d="M15.759 79.1902C15.1797 77.066 13.0554 66.2516 12.8623 55.8234C13.0554 45.3953 15.1797 34.5809 15.759 32.4566M15.759 79.1902C12.6692 78.0316 11.3174 77.066 11.3174 77.066M15.759 79.1902C25.9941 81.985 51.2534 88.3582 70.4103 91.4932M15.759 79.1902C16.0506 80.2593 16.44 81.6219 16.9026 82.8594M25.8009 91.9358C23.7411 90.2621 19.9689 87.0693 19.0419 86.1423C18.4664 85.5668 17.3591 84.0809 16.9026 82.8594M25.8009 91.9358L53.4163 91.9358M25.8009 91.9358C25.9238 91.9855 26.0528 92.0372 26.1872 92.0908M53.4163 91.9358C57.6004 92.1289 66.1232 92.5151 66.7411 92.5151M53.4163 91.9358L16.9026 82.8594M66.7411 92.5151C67.2297 92.5151 69.0382 91.9518 70.4103 91.4932M66.7411 92.5151C69.3804 93.1588 75.045 94.5235 76.59 94.8325C78.1349 95.1415 81.6109 95.7337 83.1558 95.9912M71.3759 91.3564C68.9298 88.2022 64.0375 75.9073 64.0375 55.8234C64.0375 35.7396 68.9298 23.4446 71.3759 20.2904M71.3759 91.3564L70.4103 91.4932M71.3759 91.3564C72.2127 91.6783 83.5421 92.5151 83.5421 92.5151M23.4836 93.6738C24.8354 94.8325 29.8563 96.3774 31.2081 96.5705C31.7817 96.6524 36.2291 97.7292 36.4222 97.7292C36.5021 97.7292 36.846 97.6302 37.1947 97.4185M26.1872 92.0908C29.3613 93.3569 35.5957 95.6498 37.9671 95.7981C37.9671 96.1843 37.9669 96.4823 37.774 96.7636M26.1872 92.0908L26.1872 93.0945M26.1872 93.8669C24.1917 92.7082 19.5827 89.1936 17.1108 85.1768C16.6473 84.5588 16.1452 84.1468 15.9521 84.0181M26.1872 93.8669L26.1872 93.0945M26.1872 93.8669C28.1827 95.0256 32.9462 96.3774 37.1947 97.4185M37.774 96.7636C35.3182 96.2781 29.586 94.7939 26.1872 93.0945M37.774 96.7636L37.773 96.7651C37.614 96.9969 37.4178 97.283 37.1947 97.4185M83.5421 92.5151C83.5421 92.5151 84.7008 92.7082 85.087 93.0945M83.5421 92.5151C83.1593 92.2715 82.4004 91.8173 81.4178 91.2805M81.4178 91.2805C80.5826 90.8243 79.5858 90.3084 78.5211 89.8115C75.6244 88.4597 72.1483 85.1768 70.9896 83.6319C69.831 82.087 65.5825 74.3624 65.5825 55.8234C65.5825 37.2845 69.831 29.5599 70.9896 28.015C72.1483 26.4701 75.6244 23.1871 78.5211 21.8353C79.5858 21.3385 80.5826 20.8226 81.4178 20.3663M81.4178 91.2805C91.945 88.5345 97.3229 86.3961 109.226 85.0169M200.183 81.5076C186.601 81.8938 153.604 82.8594 130.276 83.6319C121.237 83.9312 114.573 84.3974 109.226 85.0169M200.183 81.5076L200.183 80.3489M200.183 81.5076C200.183 82.1276 200.67 82.7069 201.683 83.2456M200.183 80.3489C182.803 80.8639 144.489 81.9711 130.276 82.2801C116.062 82.589 109.934 83.31 108.647 83.6319M200.183 80.3489L200.183 74.3624M108.647 83.6319C107.166 78.6753 104.205 65.5564 104.205 55.8234C104.205 46.0905 107.166 32.9716 108.647 28.015M108.647 83.6319L109.226 85.0169M201.683 83.2456C202.877 83.8816 204.803 84.4609 207.521 84.9837C211.186 85.6884 215.16 85.9817 218.541 85.563M201.683 83.2456C209.839 80.3489 212.452 78.6109 214.86 69.5345C216.405 63.7114 216.405 57.3683 216.405 55.8234C216.405 54.2785 216.405 47.9355 214.86 42.1123C212.452 33.036 209.839 31.2979 201.682 28.4012M200.183 74.3624C202.307 74.5555 203.852 74.7486 205.397 74.9417L205.397 70.307C203.852 69.8435 201.277 69.5989 200.183 69.5345M200.183 74.3624L200.183 69.5345M200.183 69.5345L200.183 42.1123M218.541 85.563C218.086 85.1768 217.023 84.3657 216.405 84.2112C215.632 84.0181 211.77 83.0525 210.032 82.4732C208.294 81.8938 210.225 80.3489 210.611 79.7696C210.92 79.3061 211.77 78.1603 212.156 77.6453C213.894 78.289 218.065 79.6537 220.846 79.9627C224.322 80.3489 227.605 80.3489 229.536 75.5211C231.467 70.6932 232.047 63.3549 232.047 55.8234C232.047 48.292 231.467 40.9536 229.536 36.1258C227.605 31.2979 224.322 31.2979 220.846 31.6842C218.065 31.9931 213.894 33.3578 212.156 34.0015C211.77 33.4866 210.92 32.3407 210.611 31.8773C210.225 31.2979 208.294 29.753 210.032 29.1737C211.77 28.5943 215.632 27.6288 216.405 27.4356C217.023 27.2812 218.086 26.4701 218.541 26.0838M218.541 85.563C219.558 85.437 220.521 85.2467 221.407 84.9837M218.541 85.563L220.176 87.2045M221.407 84.9837C221.61 84.9232 221.81 84.8588 222.005 84.7905C226.447 83.236 233.785 77.2591 234.171 66.4447C234.364 61.0375 234.364 55.8234 234.364 55.8234C234.364 55.8234 234.364 50.6093 234.171 45.2021C233.785 34.3878 226.447 28.4109 222.005 26.8563C221.81 26.788 221.61 26.7237 221.407 26.6632M221.407 84.9837C228.571 79.9627 230.336 78.2076 232.047 71.0794C233.206 66.2516 233.206 57.7546 233.206 55.8234C233.206 53.8923 233.206 45.3953 232.047 40.5674C230.336 33.4392 228.571 31.6842 221.407 26.6632M220.176 87.2045L221.812 88.8459M220.176 87.2045C216.988 88.331 208.178 90.6998 198.445 91.1633M221.812 88.8459C219.907 90.0669 215.535 92.2809 210.432 93.4807M221.812 88.8459C223.745 87.6646 225.499 86.4235 227.206 84.7905M198.445 91.1633C201.035 89.9274 202.099 88.8459 202.307 88.4597C201.975 88.3536 201.586 88.2357 201.149 88.1101M198.445 91.1633C192.574 92.3992 186.343 92.837 183.961 92.9013M183.575 91.9358L175.658 85.563L185.12 85.563C190.895 85.563 197.609 87.0928 201.149 88.1101M183.575 91.9358C186.408 91.8714 192.806 91.5495 195.741 90.7771C198.677 90.0046 200.569 88.6772 201.149 88.1101M183.575 91.9358L183.961 92.9013M183.961 92.9013L185.12 95.2187M185.12 95.2187C188.918 95.09 198.29 94.7166 205.397 94.2531C207.112 94.1413 208.809 93.8623 210.432 93.4807M185.12 95.2187L184.348 97.5361C194.583 97.1498 202.887 96.7636 210.032 96.3774M210.032 96.3774C212.658 94.678 214.345 93.7382 214.86 93.4807M210.032 96.3774C207.405 97.7678 205.848 99.1454 205.397 99.6603M214.86 93.4807L210.432 93.4807M214.86 93.4807C216.405 92.7082 220.46 92.7082 223.357 90.7771C225.543 89.3192 227.18 86.8709 228.266 85.1768M214.86 93.4807C217.944 93.4807 220.907 93.2547 223.743 91.9358M232.819 79.1902C234.042 77.4522 236.527 72.4699 236.682 66.4447C236.836 60.4195 236.875 55.8234 236.875 55.8234C236.875 55.8234 236.836 51.2273 236.682 45.2021C236.527 39.177 234.042 34.1946 232.819 32.4566M232.819 79.1902C232.37 79.7364 231.647 80.6225 230.94 81.5076M232.819 79.1902C232.284 80.6047 231.254 83.0772 230.085 85.3699M223.743 91.9358C224.991 91.3552 226.64 90.3909 227.605 89.4253C228.52 88.5107 229.285 86.9377 230.085 85.3699M223.743 91.9358C226.253 89.8115 227.605 88.4597 228.764 86.1423C228.893 85.8832 229.023 85.621 229.15 85.3596M230.94 81.5076C230.231 82.3959 229.537 83.2833 229.15 83.825C228.913 84.1563 228.619 84.6268 228.266 85.1768M230.94 81.5076C230.648 82.1721 229.934 83.7511 229.15 85.3596M230.085 85.3699L229.15 85.3596M230.085 85.3699C230.305 85.3699 230.692 85.3611 231.155 85.335M229.15 85.3596L228.266 85.1768M228.266 85.1768L227.206 84.7905M227.206 84.7905C228.569 83.4872 229.903 81.9342 231.274 79.9627C234.364 75.5211 235.523 71.4657 235.523 55.8234C235.523 40.1812 234.364 36.1258 231.274 31.6842C229.903 29.7126 228.569 28.1596 227.206 26.8563M234.557 84.9837C234.429 84.9837 233.901 85.0223 232.819 85.1768C232.255 85.2574 231.66 85.3065 231.155 85.335M231.155 85.335C232.546 83.0936 235.562 77.6067 236.488 73.5899C237.647 68.569 238.226 61.2306 238.226 55.8234C238.226 50.4162 237.647 43.0779 236.488 38.0569C235.562 34.0401 232.546 28.5532 231.155 26.3118M231.155 85.335C230.085 87.2045 229.923 87.6873 227.991 90.3909C226.06 93.0944 220.267 95.798 219.108 96.3774M225.674 94.8325C226.494 94.06 228.413 92.2447 229.536 91.1633C230.66 90.0819 232.45 88.0735 233.206 87.2045M15.759 32.4566C12.6692 33.6153 11.3174 34.5809 11.3174 34.5809M15.759 32.4566C25.9941 29.6619 51.2534 23.2886 70.4103 20.1537M15.759 32.4566C16.0506 31.3875 16.44 30.025 16.9026 28.7875M25.8009 19.7111C23.7411 21.3847 19.9689 24.5776 19.0419 25.5045C18.4664 26.0801 17.3591 27.566 16.9026 28.7875M25.8009 19.7111L53.4163 19.7111M25.8009 19.7111C25.9238 19.6614 26.0528 19.6096 26.1872 19.556M53.4163 19.7111C57.6004 19.518 66.1232 19.1317 66.7411 19.1317M53.4163 19.7111L16.9026 28.7875M66.7411 19.1317C67.2297 19.1317 69.0382 19.6951 70.4103 20.1537M66.7411 19.1317C69.3804 18.488 75.045 17.1234 76.59 16.8144C78.1349 16.5054 81.6109 15.9132 83.1558 15.6557M71.3759 20.2904L70.4103 20.1537M71.3759 20.2904C72.2127 19.9686 83.5421 19.1317 83.5421 19.1317M23.4836 17.9731C24.8354 16.8144 29.8563 15.2695 31.2081 15.0763C31.7817 14.9944 36.2291 13.9177 36.4222 13.9177C36.5021 13.9177 36.846 14.0167 37.1947 14.2284M26.1872 19.556C29.3613 18.29 35.5957 15.997 37.9671 15.8488C37.9671 15.4626 37.9669 15.1645 37.774 14.8832M26.1872 19.556L26.1872 18.5524M26.1872 17.7799C24.1917 18.9386 19.5827 22.4533 17.1108 26.4701C16.6473 27.088 16.1452 27.5 15.9521 27.6288M26.1872 17.7799L26.1872 18.5524M26.1872 17.7799C28.1827 16.6213 32.9462 15.2695 37.1947 14.2284M37.774 14.8832C35.3182 15.3688 29.586 16.853 26.1872 18.5524M37.774 14.8832L37.773 14.8818C37.614 14.65 37.4178 14.3639 37.1947 14.2284M83.5421 19.1317C83.5421 19.1317 84.7007 18.9386 85.087 18.5524M83.5421 19.1317C83.1593 19.3753 82.4004 19.8295 81.4178 20.3663M81.4178 20.3663C91.945 23.1123 97.3229 25.2508 109.226 26.6299M200.183 30.1392C186.601 29.753 153.604 28.7874 130.276 28.015C121.237 27.7157 114.573 27.2494 109.226 26.6299M200.183 30.1392L200.183 31.2979M200.183 30.1392C200.183 29.5193 200.67 28.9399 201.682 28.4012M200.183 31.2979C182.803 30.783 144.489 29.6758 130.276 29.3668C116.062 29.0578 109.934 28.3368 108.647 28.015M200.183 31.2979L200.183 37.2845M108.647 28.015L109.226 26.6299M201.682 28.4012C202.877 27.7653 204.803 27.1859 207.521 26.6632C211.186 25.9584 215.16 25.6652 218.541 26.0838M200.183 37.2845C202.307 37.0914 203.852 36.8982 205.397 36.7051L205.397 41.3399C203.852 41.8033 201.277 42.0479 200.183 42.1123M200.183 37.2845L200.183 42.1123M218.541 26.0838C219.558 26.2098 220.521 26.4002 221.407 26.6632M218.541 26.0838L220.176 24.4424M220.176 24.4424L221.812 22.8009M220.176 24.4424C216.988 23.3159 208.178 20.947 198.445 20.4835M221.812 22.8009C219.907 21.58 215.535 19.366 210.432 18.1662M221.812 22.8009C223.745 23.9823 225.499 25.2233 227.206 26.8563M198.445 20.4835C201.035 21.7195 202.099 22.8009 202.307 23.1871C201.975 23.2933 201.586 23.4111 201.149 23.5368M198.445 20.4835C192.574 19.2476 186.343 18.8099 183.961 18.7455M183.575 19.7111L175.658 26.0838L185.12 26.0838C190.895 26.0838 197.609 24.554 201.149 23.5368M183.575 19.7111C186.408 19.7755 192.806 20.0973 195.741 20.8698C198.677 21.6422 200.569 22.9696 201.149 23.5368M183.575 19.7111L183.961 18.7455M183.961 18.7455L185.12 16.4281M185.12 16.4281C188.918 16.5569 198.29 16.9302 205.397 17.3937C207.112 17.5056 208.809 17.7846 210.432 18.1662M185.12 16.4281L184.348 14.1108C194.583 14.497 202.887 14.8832 210.032 15.2695M210.032 15.2695C212.658 16.9689 214.345 17.9087 214.86 18.1662M210.032 15.2695C207.405 13.879 205.848 12.5015 205.397 11.9865M214.86 18.1662L210.432 18.1662M214.86 18.1662C216.405 18.9386 220.46 18.9386 223.357 20.8698C225.543 22.3276 227.18 24.776 228.266 26.4701M214.86 18.1662C217.944 18.1662 220.907 18.3922 223.743 19.7111M232.819 32.4566C232.37 31.9104 231.647 31.0244 230.94 30.1392M232.819 32.4566C232.284 31.0421 231.254 28.5697 230.085 26.277M223.743 19.7111C224.991 20.2917 226.64 21.256 227.605 22.2216C228.52 23.1362 229.285 24.7092 230.085 26.277M223.743 19.7111C226.253 21.8353 227.605 23.1871 228.764 25.5045C228.893 25.7637 229.023 26.0258 229.15 26.2872M230.94 30.1392C230.231 29.2509 229.537 28.3636 229.15 27.8219C228.913 27.4906 228.619 27.0201 228.266 26.4701M230.94 30.1392C230.648 29.4748 229.934 27.8957 229.15 26.2872M230.085 26.277L229.15 26.2872M230.085 26.277C230.305 26.277 230.692 26.2858 231.155 26.3118M229.15 26.2872L228.266 26.4701M228.266 26.4701L227.206 26.8563M234.557 26.6632C234.429 26.6632 233.901 26.6246 232.819 26.4701C232.255 26.3894 231.66 26.3403 231.155 26.3118M231.155 26.3118C230.085 24.4424 229.923 23.9596 227.991 21.256C226.06 18.5524 220.267 15.8488 219.108 15.2695M225.674 16.8144C226.494 17.5868 228.413 19.4021 229.536 20.4835C230.66 21.565 232.45 23.5734 233.206 24.4424" stroke="url(#paint4_linear_367_1389)" stroke-opacity="0.26" stroke-width="0.386228"/>
<path d="M71.9558 83.4387C75.4318 87.6873 79.4872 89.039 82.9633 89.4253C86.0531 88.8459 101.309 85.7561 103.626 84.7905C105.944 83.825 106.716 83.6319 105.751 79.1902C104.785 74.7486 104.013 69.7276 103.82 67.9896C103.626 66.2516 102.275 65.0929 99.9573 64.5136C97.64 63.9342 94.1639 62.7755 92.8121 61.81C91.4603 60.8444 91.4603 57.5615 91.4603 55.8234C91.4603 54.0854 91.4603 50.8025 92.8121 49.8369C94.1639 48.8713 97.64 47.7126 99.9573 47.1333C102.275 46.5539 103.626 45.3953 103.82 43.6572C104.013 41.9192 104.785 36.8982 105.751 32.4566C106.716 28.015 105.944 27.8219 103.626 26.8563C101.309 25.8907 86.0531 22.8009 82.9633 22.2216C79.4872 22.6078 75.4318 23.9596 71.9558 28.2081C68.4797 32.4566 66.3555 46.9402 66.3555 55.8234C66.3555 64.7067 68.4797 79.1902 71.9558 83.4387Z" fill="#111111" stroke="white" stroke-opacity="0.26" stroke-width="0.386228"/>
<path d="M183.575 91.9357L175.658 85.563L171.023 85.563M183.575 91.9357L184.155 93.0944M183.575 91.9357C182.341 92.068 180.766 92.194 178.941 92.3134M184.155 93.0944L185.12 95.2187M184.155 93.0944C170.067 93.6738 140.246 94.7938 133.669 94.6393M185.12 95.2187C173.842 95.9911 151.712 95.9268 142.056 95.798M185.12 95.2187C185.005 95.5061 184.695 96.2968 184.3 97.3429M133.945 93.6738L136.842 85.563L139.738 85.563M133.945 93.6738L138 93.6738M133.945 93.6738L133.669 94.6393M139.738 85.563L138 93.6738M139.738 85.563L171.023 85.563M138 93.6738C146.463 93.5327 162.259 93.1651 173.533 92.6159M171.023 85.563L174.421 88.4597M178.941 92.3134C177.316 92.4196 175.493 92.5205 173.533 92.6159M178.941 92.3134L174.421 88.4597M173.533 92.6159L174.421 88.4597M133.669 94.6393L133.448 95.4118M133.044 96.7636L132.593 98.1154L132.465 98.6947M133.044 96.7636L133.173 96.3774L133.448 95.4118M133.044 96.7636L147.463 96.7636L142.056 95.798M142.056 95.798L133.448 95.4118M184.3 97.3429C184.253 97.4682 184.204 97.597 184.155 97.7292C183.691 98.9651 182.803 99.9178 182.417 100.24L163.492 99.8534L146.497 99.8534L132.207 99.8534L132.465 98.6947M184.3 97.3429L181.258 97.3429C181.194 97.3292 181.123 97.3145 181.047 97.299M132.465 98.6947C143.536 98.6947 169.864 97.7292 171.023 97.7292C171.19 97.7292 171.385 97.7091 171.602 97.6748M171.602 97.6748C172.246 98.0791 174.074 98.8879 176.237 98.8879C178.941 98.8879 180.449 97.8343 181.047 97.299M171.602 97.6748C172.24 97.5741 173.07 97.3504 173.946 97.1498M181.047 97.299C180.587 97.2059 179.917 97.085 179.188 96.9817M179.188 96.9817C178.333 96.8606 177.398 96.7636 176.623 96.7636C175.787 96.7636 174.843 96.9446 173.946 97.1498M179.188 96.9817C179.105 97.1665 178.477 97.5747 176.623 97.7292C174.769 97.8837 174.066 97.4073 173.946 97.1498" stroke="url(#paint5_linear_367_1389)" stroke-opacity="0.26" stroke-width="0.386228"/>
<path d="M183.575 19.7111L175.658 26.0839L171.023 26.0839M183.575 19.7111L184.155 18.5524M183.575 19.7111C182.341 19.5788 180.766 19.4528 178.941 19.3335M184.155 18.5524L185.12 16.4282M184.155 18.5524C170.067 17.9731 140.246 16.853 133.669 17.0075M185.12 16.4282C173.842 15.6557 151.712 15.7201 142.056 15.8488M185.12 16.4282C185.005 16.1407 184.695 15.3501 184.3 14.3039M133.945 17.9731L136.842 26.0839L139.738 26.0839M133.945 17.9731L138 17.9731M133.945 17.9731L133.669 17.0075M139.738 26.0839L138 17.9731M139.738 26.0839L171.023 26.0839M138 17.9731C146.463 18.1141 162.259 18.4818 173.533 19.0309M171.023 26.0839L174.421 23.1872M178.941 19.3335C177.316 19.2273 175.493 19.1264 173.533 19.0309M178.941 19.3335L174.421 23.1872M173.533 19.0309L174.421 23.1872M133.669 17.0075L133.448 16.235M133.044 14.8833L132.593 13.5315L132.465 12.9521M133.044 14.8833L133.173 15.2695L133.448 16.235M133.044 14.8833L147.463 14.8832L142.056 15.8488M142.056 15.8488L133.448 16.235M184.3 14.3039C184.253 14.1787 184.204 14.0498 184.155 13.9177C183.691 12.6817 182.803 11.7291 182.417 11.4072L163.492 11.7934L146.497 11.7934L132.207 11.7934L132.465 12.9521M184.3 14.3039L181.258 14.3039C181.194 14.3177 181.123 14.3324 181.047 14.3479M132.465 12.9521C143.536 12.9521 169.864 13.9177 171.023 13.9177C171.19 13.9177 171.385 13.9377 171.602 13.9721M171.602 13.9721C172.246 13.5677 174.074 12.759 176.237 12.759C178.941 12.759 180.449 13.8125 181.047 14.3479M171.602 13.9721C172.24 14.0728 173.07 14.2965 173.946 14.497M181.047 14.3479C180.587 14.441 179.917 14.5618 179.188 14.6652M179.188 14.6652C178.333 14.7862 177.398 14.8832 176.623 14.8832C175.787 14.8832 174.843 14.7023 173.946 14.497M179.188 14.6652C179.105 14.4804 178.477 14.0722 176.623 13.9177C174.769 13.7632 174.066 14.2395 173.946 14.497" stroke="url(#paint6_linear_367_1389)" stroke-opacity="0.26" stroke-width="0.386228"/>
<path d="M186.472 55.8234C186.729 56.2097 187.785 57.0208 189.948 57.1752C190.711 57.2298 191.544 57.1416 192.352 56.9821M195.707 55.9265C195.789 55.8905 195.865 55.856 195.934 55.8234L195.707 55.9265ZM195.707 55.9265C194.953 56.2586 193.688 56.7182 192.352 56.9821M195.707 55.9265L195.707 57.0718C194.682 57.0419 192.576 56.9821 192.352 56.9821" stroke="white" stroke-opacity="0.26" stroke-width="0.386228"/>
<path d="M186.472 55.8233C186.729 55.4371 187.785 54.626 189.948 54.4715C190.711 54.417 191.544 54.5052 192.352 54.6647M195.707 55.7203C195.789 55.7563 195.865 55.7908 195.934 55.8233L195.707 55.7203ZM195.707 55.7203C194.953 55.3882 193.688 54.9286 192.352 54.6647M195.707 55.7203L195.707 54.575C194.682 54.6049 192.576 54.6647 192.352 54.6647" stroke="white" stroke-opacity="0.26" stroke-width="0.386228"/>
<g filter="url(#filter1_d_367_1389)">
<path d="M31.2066 97.9566V100C28.9362 98.7134 23.8505 95.2776 21.6709 91.8265C19.4913 88.3755 19.0978 88.4209 19.1735 88.875L14.8597 83.426C13.4218 80.3988 11 73.2092 11 55.5C11 37.7908 13.4218 30.6012 14.8597 27.574L19.1735 22.125C19.0978 22.5791 19.4913 22.6245 21.6709 19.1735C23.8505 15.7224 28.9362 12.2866 31.2066 11V13.0434H62.3112L79.3393 12.1352L84.3342 13.7245C80.4745 19.4005 75.7066 34.3852 75.7066 55.5C75.7066 76.6148 80.4745 91.5995 84.3342 97.2755L79.3393 98.8648L62.3112 97.9566H31.2066Z" fill="#CAC1E9" fill-opacity="0.4" shape-rendering="crispEdges"/>
<path d="M31.2066 97.9566V100C28.9362 98.7134 23.8505 95.2776 21.6709 91.8265C19.4913 88.3755 19.0978 88.4209 19.1735 88.875L14.8597 83.426C13.4218 80.3988 11 73.2092 11 55.5C11 37.7908 13.4218 30.6012 14.8597 27.574L19.1735 22.125C19.0978 22.5791 19.4913 22.6245 21.6709 19.1735C23.8505 15.7224 28.9362 12.2866 31.2066 11V13.0434H62.3112L79.3393 12.1352L84.3342 13.7245C80.4745 19.4005 75.7066 34.3852 75.7066 55.5C75.7066 76.6148 80.4745 91.5995 84.3342 97.2755L79.3393 98.8648L62.3112 97.9566H31.2066Z" stroke="#CAC1E9" stroke-width="0.908163" shape-rendering="crispEdges"/>
</g>
<defs>
<filter id="filter0_d_367_1389" x="1.66215" y="3.87571" width="245.255" height="103.895" filterUnits="userSpaceOnUse" color-interpolation-filters="sRGB">
<feFlood flood-opacity="0" result="BackgroundImageFix"/>
<feColorMatrix in="SourceAlpha" type="matrix" values="0 0 0 0 0 0 0 0 0 0 0 0 0 0 0 0 0 0 127 0" result="hardAlpha"/>
<feOffset/>
<feGaussianBlur stdDeviation="3.47605"/>
<feComposite in2="hardAlpha" operator="out"/>
<feColorMatrix type="matrix" values="0 0 0 0 0 0 0 0 0 0 0 0 0 0 0 0 0 0 1 0"/>
<feBlend mode="normal" in2="BackgroundImageFix" result="effect1_dropShadow_367_1389"/>
<feBlend mode="normal" in="SourceGraphic" in2="effect1_dropShadow_367_1389" result="shape"/>
</filter>
<filter id="filter1_d_367_1389" x="0.556103" y="0.230968" width="94.4855" height="110.538" filterUnits="userSpaceOnUse" color-interpolation-filters="sRGB">
<feFlood flood-opacity="0" result="BackgroundImageFix"/>
<feColorMatrix in="SourceAlpha" type="matrix" values="0 0 0 0 0 0 0 0 0 0 0 0 0 0 0 0 0 0 127 0" result="hardAlpha"/>
<feOffset/>
<feGaussianBlur stdDeviation="4.9949"/>
<feComposite in2="hardAlpha" operator="out"/>
<feColorMatrix type="matrix" values="0 0 0 0 0.792157 0 0 0 0 0.756863 0 0 0 0 0.913725 0 0 0 1 0"/>
<feBlend mode="normal" in2="BackgroundImageFix" result="effect1_dropShadow_367_1389"/>
<feBlend mode="normal" in="SourceGraphic" in2="effect1_dropShadow_367_1389" result="shape"/>
</filter>
<radialGradient id="paint0_radial_367_1389" cx="0" cy="0" r="1" gradientUnits="userSpaceOnUse" gradientTransform="translate(124.289 55.8234) rotate(-44.8305) scale(276.929 107.154)">
<stop stop-color="#1D1D1D"/>
<stop offset="1"/>
</radialGradient>
<linearGradient id="paint1_linear_367_1389" x1="11.7036" y1="93.4807" x2="211.77" y2="5.42064" gradientUnits="userSpaceOnUse">
<stop stop-color="#CECECE" stop-opacity="0.76"/>
<stop offset="0.25" stop-color="#838383" stop-opacity="0.53"/>
<stop offset="0.484375" stop-color="#C4C4C4" stop-opacity="0.515625"/>
<stop offset="0.677083" stop-color="#E1E1E1" stop-opacity="0.6"/>
<stop offset="0.854167" stop-color="#CFCFCF" stop-opacity="0.23"/>
<stop offset="1" stop-color="#CFCFCF" stop-opacity="0.63"/>
</linearGradient>
<linearGradient id="paint2_linear_367_1389" x1="82.383" y1="41.3399" x2="136.841" y2="5.99997" gradientUnits="userSpaceOnUse">
<stop stop-color="white"/>
<stop offset="0.182292" stop-color="white" stop-opacity="0.51"/>
<stop offset="0.546875" stop-color="white"/>
<stop offset="0.786458" stop-color="white" stop-opacity="0.44"/>
<stop offset="0.994792" stop-color="white"/>
</linearGradient>
<linearGradient id="paint3_linear_367_1389" x1="79.2932" y1="118.586" x2="139.352" y2="82.6663" gradientUnits="userSpaceOnUse">
<stop stop-color="white"/>
<stop offset="0.182292" stop-color="white" stop-opacity="0.51"/>
<stop offset="0.546875" stop-color="white"/>
<stop offset="0.786458" stop-color="white" stop-opacity="0.44"/>
<stop offset="0.994792" stop-color="white"/>
</linearGradient>
<linearGradient id="paint4_linear_367_1389" x1="36.036" y1="116.847" x2="231.467" y2="1.17213" gradientUnits="userSpaceOnUse">
<stop stop-color="white" stop-opacity="0.31"/>
<stop offset="0.291667" stop-color="white"/>
<stop offset="0.536458" stop-color="white" stop-opacity="0.26"/>
<stop offset="0.770833" stop-color="white"/>
<stop offset="1" stop-color="white" stop-opacity="0.25"/>
</linearGradient>
<linearGradient id="paint5_linear_367_1389" x1="132.207" y1="115.496" x2="192.266" y2="87.301" gradientUnits="userSpaceOnUse">
<stop stop-color="white"/>
<stop offset="0.182292" stop-color="white" stop-opacity="0.51"/>
<stop offset="0.546875" stop-color="white"/>
<stop offset="0.786458" stop-color="white" stop-opacity="0.44"/>
<stop offset="0.994792" stop-color="white"/>
</linearGradient>
<linearGradient id="paint6_linear_367_1389" x1="128.345" y1="31.8773" x2="190.141" y2="8.12426" gradientUnits="userSpaceOnUse">
<stop stop-color="white"/>
<stop offset="0.182292" stop-color="white" stop-opacity="0.51"/>
<stop offset="0.546875" stop-color="white"/>
<stop offset="0.786458" stop-color="white" stop-opacity="0.44"/>
<stop offset="0.994792" stop-color="white"/>
</linearGradient>
</defs>
</svg>
