<svg width="254" height="251" viewBox="0 0 254 251" fill="none" xmlns="http://www.w3.org/2000/svg">
<g filter="url(#filter0_d_367_1394)">
<path d="M19.4761 112.963C18.3174 111.289 16 103.655 16 88.8235C16 73.9923 18.3174 66.3579 19.4761 64.6842L22.9521 60.6288C23.0165 59.8563 23.7246 57.6935 26.0419 55.2216C28.9386 52.1318 35.8907 45.3728 42.0704 44.9866C48.25 44.6003 72.7755 44.2141 86.8729 44.2141C96.9148 44.2141 112.557 44.9866 139.014 44.9866C165.47 44.9866 178.988 44.4072 189.416 44.4072C199.845 44.4072 208.149 44.6003 212.976 45.1797C217.804 45.759 225.722 47.6902 226.108 48.0764C231.515 49.042 236.536 50.0075 239.819 56.1872C243.102 62.3668 246.578 75.8848 246.578 88.8235C246.578 101.762 243.102 115.28 239.819 121.46C236.536 127.639 231.515 128.605 226.108 129.571C225.722 129.957 217.804 131.888 212.976 132.467C208.149 133.047 199.845 133.24 189.416 133.24C178.988 133.24 165.47 132.66 139.014 132.66C112.557 132.66 96.9148 133.433 86.8729 133.433C72.7755 133.433 48.2501 133.047 42.0704 132.66C35.8908 132.274 28.9386 125.515 26.0419 122.425C23.7246 119.954 23.0165 117.791 22.9521 117.018L19.4761 112.963Z" fill="url(#paint0_radial_367_1394)" fill-opacity="0.97" shape-rendering="crispEdges"/>
<path d="M19.4761 112.963C18.3174 111.289 16 103.655 16 88.8235C16 73.9923 18.3174 66.3579 19.4761 64.6842L22.9521 60.6288C23.0165 59.8563 23.7246 57.6935 26.0419 55.2216C28.9386 52.1318 35.8907 45.3728 42.0704 44.9866C48.25 44.6003 72.7755 44.2141 86.8729 44.2141C96.9148 44.2141 112.557 44.9866 139.014 44.9866C165.47 44.9866 178.988 44.4072 189.416 44.4072C199.845 44.4072 208.149 44.6003 212.976 45.1797C217.804 45.759 225.722 47.6902 226.108 48.0764C231.515 49.042 236.536 50.0075 239.819 56.1872C243.102 62.3668 246.578 75.8848 246.578 88.8235C246.578 101.762 243.102 115.28 239.819 121.46C236.536 127.639 231.515 128.605 226.108 129.571C225.722 129.957 217.804 131.888 212.976 132.467C208.149 133.047 199.845 133.24 189.416 133.24C178.988 133.24 165.47 132.66 139.014 132.66C112.557 132.66 96.9148 133.433 86.8729 133.433C72.7755 133.433 48.2501 133.047 42.0704 132.66C35.8908 132.274 28.9386 125.515 26.0419 122.425C23.7246 119.954 23.0165 117.791 22.9521 117.018L19.4761 112.963Z" stroke="url(#paint1_linear_367_1394)" stroke-width="0.772457" shape-rendering="crispEdges"/>
</g>
<path d="M90.1555 48.6557L86.4863 44.021L139.4 44.7935L139.4 45.759M90.1555 48.6557L97.6869 48.6557M90.1555 48.6557L91.9579 51.3593M140.945 50.9731L143.841 59.0839L139.593 59.0839M140.945 50.9731L140.751 50.0075M140.945 50.9731C139.405 50.9731 137.663 50.9592 135.73 50.9427M140.068 47.8833L140.365 48.6557L140.751 50.0075M140.068 47.8833L139.4 46.1452L139.4 45.759M140.068 47.8833L104.832 48.0764M91.9579 51.3593L92.0866 51.5524L93.8247 51.5524C94.048 51.649 94.3066 51.7574 94.5971 51.8755M91.9579 51.3593C105.025 50.2006 131.385 50.0075 140.751 50.0075M94.5971 51.8755C97.4049 53.0167 103.201 55.0672 109.081 56.1872C115.569 57.4231 131.997 58.6333 139.4 59.0839L139.593 59.0839M94.5971 51.8755C112.091 50.7198 126.223 50.8618 135.73 50.9427M135.73 50.9427L139.593 59.0839M139.4 45.759C138.694 45.7884 137.651 45.8393 136.696 45.9005M134.379 46.1452C133.992 46.3384 132.447 46.5315 131.868 46.5315C131.578 46.5315 130.275 46.3384 128.971 46.1452M134.379 46.1452C134.547 46.0613 135.559 45.9735 136.696 45.9005M134.379 46.1452C133.928 45.9521 132.795 45.5659 131.868 45.5659C130.941 45.5659 129.551 45.9521 128.971 46.1452M127.04 45.8657C126.566 45.8011 126.21 45.759 126.075 45.759C125.495 45.759 120.088 45.1797 119.702 44.9866C119.393 44.8321 124.465 45.5083 127.04 45.8657ZM127.04 45.8657C128.006 45.1998 129.937 44.9866 132.254 44.9866C133.49 44.9866 135.73 45.5959 136.696 45.9005M127.04 45.8657C127.582 45.9393 128.277 46.0423 128.971 46.1452" stroke="url(#paint2_linear_367_1394)" stroke-opacity="0.26" stroke-width="0.386228"/>
<path d="M90.1555 128.991L86.4863 133.626L139.4 132.854L139.4 131.888M90.1555 128.991L97.6869 129.184M90.1555 128.991L91.9579 126.288M140.945 126.674L143.841 118.563L139.593 118.563M140.945 126.674L140.751 127.639M140.945 126.674C139.405 126.674 137.663 126.688 135.73 126.704M97.6869 129.184L99.425 130.729M97.6869 129.184C97.9444 128.798 98.6525 128.026 99.425 128.026L101.935 128.026L102.168 128.629M140.068 129.764L140.365 128.991L140.751 127.639M140.068 129.764L139.4 131.502L139.4 131.888M140.068 129.764L104.832 129.571L104.688 129.571M91.9579 126.288L92.0866 126.095L93.8247 126.095C94.048 125.998 94.3066 125.89 94.5971 125.772M91.9579 126.288C105.025 127.446 131.385 127.639 140.751 127.639M94.5971 125.772C97.4049 124.63 103.201 122.58 109.081 121.46C115.569 120.224 131.997 119.014 139.4 118.563L139.593 118.563M94.5971 125.772C111.812 126.909 125.772 126.789 135.273 126.708L135.73 126.704M135.73 126.704L139.593 118.563M139.4 131.888C138.694 131.859 137.651 131.808 136.696 131.746M134.379 131.502C133.992 131.309 132.447 131.116 131.868 131.116C131.578 131.116 130.275 131.309 128.971 131.502M134.379 131.502C134.547 131.586 135.559 131.673 136.696 131.746M134.379 131.502C133.928 131.695 132.795 132.081 131.868 132.081C130.941 132.081 129.551 131.695 128.971 131.502M127.04 131.781C126.566 131.846 126.21 131.888 126.075 131.888C125.495 131.888 120.088 132.467 119.702 132.66C119.393 132.815 124.465 132.139 127.04 131.781ZM127.04 131.781C128.006 132.447 129.937 132.66 132.254 132.66C133.49 132.66 135.73 132.051 136.696 131.746M127.04 131.781C127.582 131.708 128.277 131.605 128.971 131.502M99.425 130.729C99.6825 131.888 100.545 134.553 101.935 135.943C103.092 137.1 105.309 137.981 106.763 138.429M99.425 130.729C99.6181 130.214 100.197 129.107 100.97 128.798C101.255 128.684 101.691 128.637 102.168 128.629M102.168 128.629C102.664 128.621 103.206 128.655 103.673 128.702M106.763 138.429C107.057 138.52 107.319 138.593 107.536 138.647L104.688 129.571M106.763 138.429L103.673 128.702M103.673 128.702C103.972 128.732 104.24 128.766 104.446 128.798L104.688 129.571" stroke="url(#paint3_linear_367_1394)" stroke-opacity="0.26" stroke-width="0.386228"/>
<path d="M99.4255 46.9177L97.6875 48.4626C97.945 48.8489 98.6531 49.6213 99.4255 49.6213C100.198 49.6213 101.421 49.6213 101.936 49.6213L102.168 49.0183M99.4255 46.9177C99.683 45.759 100.546 43.094 101.936 41.7036C103.093 40.5468 105.31 39.6663 106.764 39.2177M99.4255 46.9177C99.6186 47.4327 100.198 48.5399 100.97 48.8489C101.256 48.9631 101.691 49.0104 102.168 49.0183M102.168 49.0183C102.665 49.0264 103.207 48.9918 103.674 48.9451M106.764 39.2177C107.057 39.1271 107.32 39.0541 107.536 39L104.446 48.8489C104.241 48.8805 103.973 48.9153 103.674 48.9451M106.764 39.2177L103.674 48.9451" stroke="white" stroke-opacity="0.26" stroke-width="0.386228"/>
<path d="M22.759 112.19C22.1797 110.066 20.0554 99.2517 19.8623 88.8235C20.0554 78.3953 22.1797 67.581 22.759 65.4567M22.759 112.19C19.6692 111.032 18.3174 110.066 18.3174 110.066M22.759 112.19C32.9941 114.985 58.2534 121.358 77.4103 124.493M22.759 112.19C23.0506 113.259 23.44 114.622 23.9026 115.859M32.8009 124.936C30.7411 123.262 26.9689 120.069 26.0419 119.142C25.4664 118.567 24.3591 117.081 23.9026 115.859M32.8009 124.936L60.4163 124.936M32.8009 124.936C32.9238 124.986 33.0528 125.037 33.1872 125.091M60.4163 124.936C64.6004 125.129 73.1232 125.515 73.7411 125.515M60.4163 124.936L23.9026 115.859M73.7411 125.515C74.2297 125.515 76.0382 124.952 77.4103 124.493M73.7411 125.515C76.3804 126.159 82.045 127.524 83.59 127.833C85.1349 128.142 88.6109 128.734 90.1558 128.991M78.3759 124.357C75.9298 121.202 71.0375 108.907 71.0375 88.8235C71.0375 68.7396 75.9298 56.4447 78.3759 53.2905M78.3759 124.357L77.4103 124.493M78.3759 124.357C79.2127 124.678 90.5421 125.515 90.5421 125.515M30.4836 126.674C31.8354 127.833 36.8563 129.377 38.2081 129.571C38.7817 129.653 43.2291 130.729 43.4222 130.729C43.5021 130.729 43.846 130.63 44.1947 130.419M33.1872 125.091C36.3613 126.357 42.5957 128.65 44.9671 128.798C44.9671 129.184 44.9669 129.482 44.774 129.764M33.1872 125.091L33.1872 126.095M33.1872 126.867C31.1917 125.708 26.5827 122.194 24.1108 118.177C23.6473 117.559 23.1452 117.147 22.9521 117.018M33.1872 126.867L33.1872 126.095M33.1872 126.867C35.1827 128.026 39.9462 129.377 44.1947 130.419M44.774 129.764C42.3182 129.278 36.586 127.794 33.1872 126.095M44.774 129.764L44.773 129.765C44.614 129.997 44.4178 130.283 44.1947 130.419M90.5421 125.515C90.5421 125.515 91.7008 125.708 92.087 126.095M90.5421 125.515C90.1593 125.272 89.4004 124.817 88.4178 124.281M88.4178 124.281C87.5826 123.824 86.5858 123.308 85.5211 122.812C82.6244 121.46 79.1483 118.177 77.9896 116.632C76.831 115.087 72.5825 107.362 72.5825 88.8235C72.5825 70.2845 76.831 62.56 77.9896 61.0151C79.1483 59.4702 82.6244 56.1872 85.5211 54.8354C86.5858 54.3385 87.5826 53.8226 88.4178 53.3664M88.4178 124.281C98.945 121.535 104.323 119.396 116.226 118.017M207.183 114.508C193.601 114.894 160.604 115.859 137.276 116.632C128.237 116.931 121.573 117.398 116.226 118.017M207.183 114.508L207.183 113.349M207.183 114.508C207.183 115.128 207.67 115.707 208.683 116.246M207.183 113.349C189.803 113.864 151.489 114.971 137.276 115.28C123.062 115.589 116.934 116.31 115.647 116.632M207.183 113.349L207.183 107.362M115.647 116.632C114.166 111.675 111.205 98.5565 111.205 88.8235C111.205 79.0906 114.166 65.9717 115.647 61.0151M115.647 116.632L116.226 118.017M208.683 116.246C209.877 116.882 211.803 117.461 214.521 117.984C218.186 118.689 222.16 118.982 225.541 118.563M208.683 116.246C216.839 113.349 219.452 111.611 221.86 102.535C223.405 96.7115 223.405 90.3684 223.405 88.8235C223.405 87.2786 223.405 80.9355 221.86 75.1124C219.452 66.036 216.839 64.298 208.682 61.4013M207.183 107.362C209.307 107.556 210.852 107.749 212.397 107.942L212.397 103.307C210.852 102.844 208.277 102.599 207.183 102.535M207.183 107.362L207.183 102.535M207.183 102.535L207.183 75.1124M225.541 118.563C225.086 118.177 224.023 117.366 223.405 117.211C222.632 117.018 218.77 116.053 217.032 115.473C215.294 114.894 217.225 113.349 217.611 112.77C217.92 112.306 218.77 111.16 219.156 110.645C220.894 111.289 225.065 112.654 227.846 112.963C231.322 113.349 234.605 113.349 236.536 108.521C238.467 103.693 239.047 96.3549 239.047 88.8235C239.047 81.292 238.467 73.9537 236.536 69.1259C234.605 64.298 231.322 64.298 227.846 64.6842C225.065 64.9932 220.894 66.3579 219.156 67.0016C218.77 66.4866 217.92 65.3408 217.611 64.8773C217.225 64.298 215.294 62.7531 217.032 62.1737C218.77 61.5944 222.632 60.6288 223.405 60.4357C224.023 60.2812 225.086 59.4702 225.541 59.0839M225.541 118.563C226.558 118.437 227.521 118.247 228.407 117.984M225.541 118.563L227.176 120.205M228.407 117.984C228.61 117.923 228.81 117.859 229.005 117.791C233.447 116.236 240.785 110.259 241.171 99.4448C241.364 94.0376 241.364 88.8235 241.364 88.8235C241.364 88.8235 241.364 83.6094 241.171 78.2022C240.785 67.3878 233.447 61.4109 229.005 59.8564C228.81 59.7881 228.61 59.7238 228.407 59.6633M228.407 117.984C235.571 112.963 237.336 111.208 239.047 104.08C240.206 99.2517 240.206 90.7546 240.206 88.8235C240.206 86.8924 240.206 78.3953 239.047 73.5675C237.336 66.4393 235.571 64.6842 228.407 59.6633M227.176 120.205L228.812 121.846M227.176 120.205C223.988 121.331 215.178 123.7 205.445 124.163M228.812 121.846C226.907 123.067 222.535 125.281 217.432 126.481M228.812 121.846C230.745 120.665 232.499 119.424 234.206 117.791M205.445 124.163C208.035 122.927 209.099 121.846 209.307 121.46C208.975 121.354 208.586 121.236 208.149 121.11M205.445 124.163C199.574 125.399 193.343 125.837 190.961 125.901M190.575 124.936L182.658 118.563L192.12 118.563C197.895 118.563 204.609 120.093 208.149 121.11M190.575 124.936C193.408 124.871 199.806 124.55 202.741 123.777C205.677 123.005 207.569 121.677 208.149 121.11M190.575 124.936L190.961 125.901M190.961 125.901L192.12 128.219M192.12 128.219C195.918 128.09 205.29 127.717 212.397 127.253C214.112 127.141 215.809 126.862 217.432 126.481M192.12 128.219L191.348 130.536C201.583 130.15 209.887 129.764 217.032 129.377M217.032 129.377C219.658 127.678 221.345 126.738 221.86 126.481M217.032 129.377C214.405 130.768 212.848 132.145 212.397 132.66M221.86 126.481L217.432 126.481M221.86 126.481C223.405 125.708 227.46 125.708 230.357 123.777C232.543 122.319 234.18 119.871 235.266 118.177M221.86 126.481C224.944 126.481 227.907 126.255 230.743 124.936M239.819 112.19C241.042 110.452 243.527 105.47 243.682 99.4448C243.836 93.4196 243.875 88.8235 243.875 88.8235C243.875 88.8235 243.836 84.2274 243.682 78.2022C243.527 72.1771 241.042 67.1947 239.819 65.4567M239.819 112.19C239.37 112.736 238.647 113.623 237.94 114.508M239.819 112.19C239.284 113.605 238.254 116.077 237.085 118.37M230.743 124.936C231.991 124.355 233.64 123.391 234.605 122.425C235.52 121.511 236.285 119.938 237.085 118.37M230.743 124.936C233.253 122.812 234.605 121.46 235.764 119.142C235.893 118.883 236.023 118.621 236.15 118.36M237.94 114.508C237.231 115.396 236.537 116.283 236.15 116.825C235.913 117.156 235.619 117.627 235.266 118.177M237.94 114.508C237.648 115.172 236.934 116.751 236.15 118.36M237.085 118.37L236.15 118.36M237.085 118.37C237.305 118.37 237.692 118.361 238.155 118.335M236.15 118.36L235.266 118.177M235.266 118.177L234.206 117.791M234.206 117.791C235.569 116.487 236.903 114.934 238.274 112.963C241.364 108.521 242.523 104.466 242.523 88.8235C242.523 73.1813 241.364 69.1259 238.274 64.6842C236.903 62.7127 235.569 61.1597 234.206 59.8564M241.557 117.984C241.429 117.984 240.901 118.022 239.819 118.177C239.255 118.258 238.66 118.307 238.155 118.335M238.155 118.335C239.546 116.094 242.562 110.607 243.488 106.59C244.647 101.569 245.226 94.2307 245.226 88.8235C245.226 83.4163 244.647 76.078 243.488 71.057C242.562 67.0402 239.546 61.5533 238.155 59.3119M238.155 118.335C237.085 120.205 236.923 120.687 234.991 123.391C233.06 126.095 227.267 128.798 226.108 129.377M232.674 127.833C233.494 127.06 235.413 125.245 236.536 124.163C237.66 123.082 239.45 121.074 240.206 120.205M22.759 65.4567C19.6692 66.6154 18.3174 67.581 18.3174 67.581M22.759 65.4567C32.9941 62.6619 58.2534 56.2887 77.4103 53.1538M22.759 65.4567C23.0506 64.3876 23.44 63.0251 23.9026 61.7875M32.8009 52.7112C30.7411 54.3848 26.9689 57.5776 26.0419 58.5046C25.4664 59.0801 24.3591 60.5661 23.9026 61.7875M32.8009 52.7112L60.4163 52.7112M32.8009 52.7112C32.9238 52.6615 33.0528 52.6097 33.1872 52.5561M60.4163 52.7112C64.6004 52.518 73.1232 52.1318 73.7411 52.1318M60.4163 52.7112L23.9026 61.7875M73.7411 52.1318C74.2297 52.1318 76.0382 52.6952 77.4103 53.1538M73.7411 52.1318C76.3804 51.4881 82.045 50.1234 83.59 49.8145C85.1349 49.5055 88.6109 48.9133 90.1558 48.6558M78.3759 53.2905L77.4103 53.1538M78.3759 53.2905C79.2127 52.9686 90.5421 52.1318 90.5421 52.1318M30.4836 50.9731C31.8354 49.8145 36.8563 48.2695 38.2081 48.0764C38.7817 47.9945 43.2291 46.9177 43.4222 46.9177C43.5021 46.9177 43.846 47.0168 44.1947 47.2285M33.1872 52.5561C36.3613 51.2901 42.5957 48.9971 44.9671 48.8489C44.9671 48.4627 44.9669 48.1646 44.774 47.8833M33.1872 52.5561L33.1872 51.5525M33.1872 50.78C31.1917 51.9387 26.5827 55.4534 24.1108 59.4702C23.6473 60.0881 23.1452 60.5001 22.9521 60.6288M33.1872 50.78L33.1872 51.5525M33.1872 50.78C35.1827 49.6213 39.9462 48.2695 44.1947 47.2285M44.774 47.8833C42.3182 48.3689 36.586 49.8531 33.1872 51.5525M44.774 47.8833L44.773 47.8818C44.614 47.65 44.4178 47.364 44.1947 47.2285M90.5421 52.1318C90.5421 52.1318 91.7007 51.9387 92.087 51.5525M90.5421 52.1318C90.1593 52.3754 89.4004 52.8296 88.4178 53.3664M88.4178 53.3664C98.945 56.1124 104.323 58.2509 116.226 59.63M207.183 63.1393C193.601 62.7531 160.604 61.7875 137.276 61.0151C128.237 60.7158 121.573 60.2495 116.226 59.63M207.183 63.1393L207.183 64.298M207.183 63.1393C207.183 62.5194 207.67 61.94 208.682 61.4013M207.183 64.298C189.803 63.783 151.489 62.6758 137.276 62.3669C123.062 62.0579 116.934 61.3369 115.647 61.0151M207.183 64.298L207.183 70.2845M115.647 61.0151L116.226 59.63M208.682 61.4013C209.877 60.7654 211.803 60.186 214.521 59.6633C218.186 58.9585 222.16 58.6653 225.541 59.0839M207.183 70.2845C209.307 70.0914 210.852 69.8983 212.397 69.7052L212.397 74.3399C210.852 74.8034 208.277 75.048 207.183 75.1124M207.183 70.2845L207.183 75.1124M225.541 59.0839C226.558 59.2099 227.521 59.4003 228.407 59.6633M225.541 59.0839L227.176 57.4425M227.176 57.4425L228.812 55.801M227.176 57.4425C223.988 56.316 215.178 53.9471 205.445 53.4836M228.812 55.801C226.907 54.58 222.535 52.366 217.432 51.1662M228.812 55.801C230.745 56.9823 232.499 58.2234 234.206 59.8564M205.445 53.4836C208.035 54.7195 209.099 55.801 209.307 56.1872C208.975 56.2934 208.586 56.4112 208.149 56.5369M205.445 53.4836C199.574 52.2477 193.343 51.81 190.961 51.7456M190.575 52.7112L182.658 59.0839L192.12 59.0839C197.895 59.0839 204.609 57.5541 208.149 56.5369M190.575 52.7112C193.408 52.7755 199.806 53.0974 202.741 53.8698C205.677 54.6423 207.569 55.9697 208.149 56.5369M190.575 52.7112L190.961 51.7456M190.961 51.7456L192.12 49.4282M192.12 49.4282C195.918 49.557 205.29 49.9303 212.397 50.3938C214.112 50.5056 215.809 50.7846 217.432 51.1662M192.12 49.4282L191.348 47.1108C201.583 47.4971 209.887 47.8833 217.032 48.2695M217.032 48.2695C219.658 49.9689 221.345 50.9088 221.86 51.1662M217.032 48.2695C214.405 46.8791 212.848 45.5016 212.397 44.9866M221.86 51.1662L217.432 51.1662M221.86 51.1662C223.405 51.9387 227.46 51.9387 230.357 53.8698C232.543 55.3277 234.18 57.776 235.266 59.4702M221.86 51.1662C224.944 51.1662 227.907 51.3923 230.743 52.7112M239.819 65.4567C239.37 64.9105 238.647 64.0244 237.94 63.1393M239.819 65.4567C239.284 64.0422 238.254 61.5697 237.085 59.277M230.743 52.7112C231.991 53.2917 233.64 54.2561 234.605 55.2216C235.52 56.1362 236.285 57.7092 237.085 59.277M230.743 52.7112C233.253 54.8354 234.605 56.1872 235.764 58.5046C235.893 58.7637 236.023 59.0259 236.15 59.2873M237.94 63.1393C237.231 62.251 236.537 61.3637 236.15 60.8219C235.913 60.4906 235.619 60.0201 235.266 59.4702M237.94 63.1393C237.648 62.4748 236.934 60.8958 236.15 59.2873M237.085 59.277L236.15 59.2873M237.085 59.277C237.305 59.277 237.692 59.2859 238.155 59.3119M236.15 59.2873L235.266 59.4702M235.266 59.4702L234.206 59.8564M241.557 59.6633C241.429 59.6633 240.901 59.6246 239.819 59.4702C239.255 59.3895 238.66 59.3404 238.155 59.3119M238.155 59.3119C237.085 57.4425 236.923 56.9597 234.991 54.2561C233.06 51.5525 227.267 48.8489 226.108 48.2695M232.674 49.8144C233.494 50.5869 235.413 52.4022 236.536 53.4836C237.66 54.5651 239.45 56.5734 240.206 57.4425" stroke="url(#paint4_linear_367_1394)" stroke-opacity="0.26" stroke-width="0.386228"/>
<path d="M78.9558 116.439C82.4318 120.687 86.4872 122.039 89.9633 122.425C93.0531 121.846 108.309 118.756 110.626 117.791C112.944 116.825 113.716 116.632 112.751 112.19C111.785 107.749 111.013 102.728 110.82 100.99C110.626 99.2517 109.275 98.093 106.957 97.5136C104.64 96.9343 101.164 95.7756 99.8121 94.81C98.4603 93.8445 98.4603 90.5615 98.4603 88.8235C98.4603 87.0855 98.4603 83.8025 99.8121 82.837C101.164 81.8714 104.64 80.7127 106.957 80.1334C109.275 79.554 110.626 78.3953 110.82 76.6573C111.013 74.9193 111.785 69.8983 112.751 65.4567C113.716 61.0151 112.944 60.822 110.626 59.8564C108.309 58.8908 93.0531 55.801 89.9633 55.2216C86.4872 55.6079 82.4318 56.9597 78.9558 61.2082C75.4797 65.4567 73.3555 79.9403 73.3555 88.8235C73.3555 97.7068 75.4797 112.19 78.9558 116.439Z" fill="#111111" stroke="white" stroke-opacity="0.26" stroke-width="0.386228"/>
<path d="M190.575 124.936L182.658 118.563L178.023 118.563M190.575 124.936L191.155 126.095M190.575 124.936C189.341 125.068 187.766 125.194 185.941 125.313M191.155 126.095L192.12 128.219M191.155 126.095C177.067 126.674 147.246 127.794 140.669 127.639M192.12 128.219C180.842 128.991 158.712 128.927 149.056 128.798M192.12 128.219C192.005 128.506 191.695 129.297 191.3 130.343M140.945 126.674L143.842 118.563L146.738 118.563M140.945 126.674L145 126.674M140.945 126.674L140.669 127.639M146.738 118.563L145 126.674M146.738 118.563L178.023 118.563M145 126.674C153.463 126.533 169.259 126.165 180.533 125.616M178.023 118.563L181.421 121.46M185.941 125.313C184.316 125.42 182.493 125.521 180.533 125.616M185.941 125.313L181.421 121.46M180.533 125.616L181.421 121.46M140.669 127.639L140.448 128.412M140.044 129.764L139.593 131.115L139.465 131.695M140.044 129.764L140.173 129.377L140.448 128.412M140.044 129.764L154.463 129.764L149.056 128.798M149.056 128.798L140.448 128.412M191.3 130.343C191.253 130.468 191.204 130.597 191.155 130.729C190.691 131.965 189.803 132.918 189.417 133.24L170.492 132.854L153.497 132.854L139.207 132.854L139.465 131.695M191.3 130.343L188.258 130.343C188.194 130.329 188.123 130.315 188.047 130.299M139.465 131.695C150.536 131.695 176.864 130.729 178.023 130.729C178.19 130.729 178.385 130.709 178.602 130.675M178.602 130.675C179.246 131.079 181.074 131.888 183.237 131.888C185.941 131.888 187.449 130.834 188.047 130.299M178.602 130.675C179.24 130.574 180.07 130.35 180.946 130.15M188.047 130.299C187.587 130.206 186.917 130.085 186.188 129.982M186.188 129.982C185.333 129.861 184.398 129.764 183.623 129.764C182.787 129.764 181.843 129.945 180.946 130.15M186.188 129.982C186.105 130.167 185.477 130.575 183.623 130.729C181.769 130.884 181.066 130.407 180.946 130.15" stroke="url(#paint5_linear_367_1394)" stroke-opacity="0.26" stroke-width="0.386228"/>
<path d="M190.575 52.7112L182.658 59.084L178.023 59.084M190.575 52.7112L191.155 51.5525M190.575 52.7112C189.341 52.5789 187.766 52.4529 185.941 52.3336M191.155 51.5525L192.12 49.4283M191.155 51.5525C177.067 50.9732 147.246 49.8531 140.669 50.0076M192.12 49.4283C180.842 48.6558 158.712 48.7202 149.056 48.8489M192.12 49.4283C192.005 49.1408 191.695 48.3502 191.3 47.304M140.945 50.9732L143.842 59.084L146.738 59.084M140.945 50.9732L145 50.9732M140.945 50.9732L140.669 50.0076M146.738 59.084L145 50.9732M146.738 59.084L178.023 59.084M145 50.9732C153.463 51.1142 169.259 51.4819 180.533 52.031M178.023 59.084L181.421 56.1872M185.941 52.3336C184.316 52.2274 182.493 52.1264 180.533 52.031M185.941 52.3336L181.421 56.1872M180.533 52.031L181.421 56.1872M140.669 50.0076L140.448 49.2351M140.044 47.8833L139.593 46.5315L139.465 45.9522M140.044 47.8833L140.173 48.2696L140.448 49.2351M140.044 47.8833L154.463 47.8833L149.056 48.8489M149.056 48.8489L140.448 49.2351M191.3 47.304C191.253 47.1788 191.204 47.0499 191.155 46.9178C190.691 45.6818 189.803 44.7291 189.417 44.4073L170.492 44.7935L153.497 44.7935L139.207 44.7935L139.465 45.9522M191.3 47.304L188.258 47.304C188.194 47.3177 188.123 47.3325 188.047 47.348M139.465 45.9522C150.536 45.9522 176.864 46.9178 178.023 46.9178C178.19 46.9178 178.385 46.9378 178.602 46.9721M178.602 46.9721C179.246 46.5678 181.074 45.7591 183.237 45.7591C185.941 45.7591 187.449 46.8126 188.047 47.348M178.602 46.9721C179.24 47.0729 180.07 47.2966 180.946 47.4971M188.047 47.348C187.587 47.4411 186.917 47.5619 186.188 47.6653M186.188 47.6653C185.333 47.7863 184.398 47.8833 183.623 47.8833C182.787 47.8833 181.843 47.7024 180.946 47.4971M186.188 47.6653C186.105 47.4805 185.477 47.0723 183.623 46.9178C181.769 46.7633 181.066 47.2396 180.946 47.4971" stroke="url(#paint6_linear_367_1394)" stroke-opacity="0.26" stroke-width="0.386228"/>
<path d="M193.472 88.8235C193.729 89.2097 194.785 90.0208 196.948 90.1753C197.711 90.2298 198.544 90.1417 199.352 89.9822M202.707 88.9266C202.789 88.8906 202.865 88.8561 202.934 88.8235L202.707 88.9266ZM202.707 88.9266C201.953 89.2587 200.688 89.7182 199.352 89.9822M202.707 88.9266L202.707 90.0718C201.682 90.0419 199.576 89.9822 199.352 89.9822" stroke="white" stroke-opacity="0.26" stroke-width="0.386228"/>
<path d="M193.472 88.8234C193.729 88.4372 194.785 87.6261 196.948 87.4716C197.711 87.4171 198.544 87.5052 199.352 87.6647M202.707 88.7203C202.789 88.7563 202.865 88.7908 202.934 88.8234L202.707 88.7203ZM202.707 88.7203C201.953 88.3882 200.688 87.9287 199.352 87.6647M202.707 88.7203L202.707 87.5751C201.682 87.605 199.576 87.6647 199.352 87.6647" stroke="white" stroke-opacity="0.26" stroke-width="0.386228"/>
<g filter="url(#filter1_d_367_1394)">
<path fill-rule="evenodd" clip-rule="evenodd" d="M75.3674 123.218L68.0046 132.051L94.843 132.139L95.0293 132.144C95.7767 133.88 96.8921 135.946 98.0567 137.171C100.25 139.477 103.331 141.163 106.136 142.107C106.48 142.223 107.242 142.376 107.88 142.503C108.291 142.586 108.651 142.658 108.815 142.703L105.881 132.454L132.559 132.737L170.942 133.145L170.99 131.268L171.009 130.516L170.952 127.682L170.541 122.888L170.336 120.492L167.77 106.344L163.249 106.495C160.902 106.579 158.311 106.659 155.564 106.745C141.434 107.185 123.156 107.755 112.54 109.5C101.05 111.39 89.6793 115.093 84.1629 117.175C83.5921 117.39 83.084 117.588 82.6449 117.765L79.265 117.68L79.0051 118.049L75.3674 123.218Z" fill="#CAC1E9" fill-opacity="0.4"/>
<path d="M68.0046 132.051L67.4275 131.57L66.4046 132.797L68.0022 132.803L68.0046 132.051ZM75.3674 123.218L75.9445 123.699L75.9642 123.676L75.9818 123.651L75.3674 123.218ZM94.843 132.139L94.8647 131.388L94.8551 131.387L94.8455 131.387L94.843 132.139ZM95.0293 132.144L95.7194 131.847L95.53 131.407L95.051 131.393L95.0293 132.144ZM98.0567 137.171L98.6012 136.653L98.6012 136.653L98.0567 137.171ZM106.136 142.107L105.896 142.819L105.896 142.819L106.136 142.107ZM107.88 142.503L107.732 143.24L107.732 143.24L107.88 142.503ZM108.815 142.703L108.614 143.427L109.906 143.785L109.537 142.496L108.815 142.703ZM105.881 132.454L105.889 131.703L104.882 131.692L105.159 132.661L105.881 132.454ZM132.559 132.737L132.567 131.986L132.567 131.986L132.559 132.737ZM170.942 133.145L170.934 133.897L171.675 133.904L171.693 133.164L170.942 133.145ZM170.99 131.268L171.741 131.286L171.741 131.286L170.99 131.268ZM171.009 130.516L171.76 130.535L171.76 130.518L171.76 130.501L171.009 130.516ZM170.952 127.682L171.703 127.666L171.702 127.642L171.7 127.617L170.952 127.682ZM170.541 122.888L171.29 122.824L171.29 122.824L170.541 122.888ZM170.336 120.492L171.084 120.427L171.081 120.392L171.075 120.357L170.336 120.492ZM167.77 106.344L168.509 106.21L168.393 105.571L167.745 105.593L167.77 106.344ZM163.249 106.495L163.224 105.744L163.222 105.744L163.249 106.495ZM155.564 106.745L155.587 107.496L155.587 107.496L155.564 106.745ZM112.54 109.5L112.419 108.759L112.419 108.759L112.54 109.5ZM84.1629 117.175L83.8977 116.472L83.8977 116.472L84.1629 117.175ZM82.6449 117.765L82.626 118.516L82.7814 118.52L82.9256 118.462L82.6449 117.765ZM79.265 117.68L79.2839 116.929L78.882 116.918L78.6506 117.247L79.265 117.68ZM79.0051 118.049L78.3907 117.617L78.3907 117.617L79.0051 118.049ZM68.5817 132.532L75.9445 123.699L74.7903 122.737L67.4275 131.57L68.5817 132.532ZM94.8455 131.387L68.007 131.3L68.0022 132.803L94.8406 132.89L94.8455 131.387ZM95.051 131.393L94.8647 131.388L94.8214 132.89L95.0077 132.895L95.051 131.393ZM98.6012 136.653C97.5303 135.527 96.4571 133.56 95.7194 131.847L94.3392 132.441C95.0964 134.2 96.254 136.365 97.5122 137.688L98.6012 136.653ZM106.376 141.395C103.653 140.479 100.688 138.848 98.6012 136.653L97.5122 137.688C99.8107 140.106 103.008 141.848 105.896 142.819L106.376 141.395ZM108.028 141.767C107.36 141.633 106.662 141.491 106.376 141.395L105.896 142.819C106.299 142.955 107.124 143.118 107.732 143.24L108.028 141.767ZM109.015 141.979C108.818 141.924 108.42 141.845 108.028 141.767L107.732 143.24C108.162 143.326 108.484 143.391 108.614 143.427L109.015 141.979ZM105.159 132.661L108.093 142.91L109.537 142.496L106.604 132.247L105.159 132.661ZM132.567 131.986L105.889 131.703L105.873 133.205L132.551 133.489L132.567 131.986ZM170.95 132.394L132.567 131.986L132.551 133.489L170.934 133.897L170.95 132.394ZM170.239 131.249L170.191 133.126L171.693 133.164L171.741 131.286L170.239 131.249ZM170.257 130.498L170.239 131.249L171.741 131.286L171.76 130.535L170.257 130.498ZM170.2 127.697L170.257 130.532L171.76 130.501L171.703 127.666L170.2 127.697ZM169.792 122.952L170.203 127.746L171.7 127.617L171.29 122.824L169.792 122.952ZM169.587 120.556L169.792 122.952L171.29 122.824L171.084 120.427L169.587 120.556ZM167.031 106.478L169.597 120.626L171.075 120.357L168.509 106.21L167.031 106.478ZM163.274 107.246L167.795 107.095L167.745 105.593L163.224 105.744L163.274 107.246ZM155.587 107.496C158.334 107.41 160.927 107.33 163.275 107.246L163.222 105.744C160.877 105.828 158.288 105.909 155.541 105.994L155.587 107.496ZM112.662 110.242C123.216 108.506 141.433 107.937 155.587 107.496L155.541 105.994C141.434 106.434 123.095 107.003 112.419 108.759L112.662 110.242ZM84.4282 117.878C89.9154 115.807 101.237 112.121 112.662 110.242L112.419 108.759C100.864 110.659 89.4432 114.379 83.8977 116.472L84.4282 117.878ZM82.9256 118.462C83.3588 118.287 83.8618 118.091 84.4282 117.878L83.8977 116.472C83.3225 116.689 82.8091 116.889 82.3642 117.068L82.9256 118.462ZM79.246 118.431L82.626 118.516L82.6639 117.014L79.2839 116.929L79.246 118.431ZM79.6196 118.481L79.8794 118.112L78.6506 117.247L78.3907 117.617L79.6196 118.481ZM75.9818 123.651L79.6196 118.481L78.3907 117.617L74.753 122.786L75.9818 123.651Z" fill="#CAC1E9"/>
<path d="M75.3678 123.219L68.005 132.052L94.8434 132.139M75.3678 123.219L90.0046 123.964M75.3678 123.219L79.0055 118.05M90.0046 123.964L93.3087 127.053M90.0046 123.964C90.5243 123.225 91.9392 121.758 93.4414 121.796L98.3235 121.919L98.746 123.103M170.952 127.682L171.009 130.517L170.99 131.268L170.943 133.146L132.56 132.738L105.717 132.453M170.952 127.682L103.601 125.058M170.952 127.682L170.541 122.889M103.601 125.058L103.168 123.544C102.769 123.473 101.493 123.33 100.913 123.258C100.007 123.144 99.7117 123.112 98.746 123.103M103.601 125.058L105.717 132.453M79.0055 118.05L79.2654 117.68L82.6453 117.766C83.0844 117.589 83.5925 117.391 84.1633 117.175C89.6796 115.094 101.051 111.391 112.541 109.501C125.22 107.416 148.831 107.009 163.249 106.496L167.77 106.344L170.336 120.492L170.541 122.889M79.0055 118.05C104.361 120.944 152.327 122.429 170.541 122.889M93.3087 127.053C93.7095 126.061 94.8905 123.937 96.4078 123.374C96.9688 123.166 97.8173 123.095 98.746 123.103M93.3087 127.053C93.5508 128.289 93.9477 130.021 94.8434 132.139M105.717 132.453L108.693 142.849C108.275 142.733 106.581 142.443 106.014 142.253C103.209 141.309 100.128 139.623 97.935 137.316C96.7366 136.056 95.5902 133.905 94.8434 132.139" stroke="#CAC1E9" stroke-width="1.50266"/>
</g>
<defs>
<filter id="filter0_d_367_1394" x="8.66215" y="36.8758" width="245.255" height="103.895" filterUnits="userSpaceOnUse" color-interpolation-filters="sRGB">
<feFlood flood-opacity="0" result="BackgroundImageFix"/>
<feColorMatrix in="SourceAlpha" type="matrix" values="0 0 0 0 0 0 0 0 0 0 0 0 0 0 0 0 0 0 127 0" result="hardAlpha"/>
<feOffset/>
<feGaussianBlur stdDeviation="3.47605"/>
<feComposite in2="hardAlpha" operator="out"/>
<feColorMatrix type="matrix" values="0 0 0 0 0 0 0 0 0 0 0 0 0 0 0 0 0 0 1 0"/>
<feBlend mode="normal" in2="BackgroundImageFix" result="effect1_dropShadow_367_1394"/>
<feBlend mode="normal" in="SourceGraphic" in2="effect1_dropShadow_367_1394" result="shape"/>
</filter>
<filter id="filter1_d_367_1394" x="43.8643" y="83.031" width="150.436" height="83.4396" filterUnits="userSpaceOnUse" color-interpolation-filters="sRGB">
<feFlood flood-opacity="0" result="BackgroundImageFix"/>
<feColorMatrix in="SourceAlpha" type="matrix" values="0 0 0 0 0 0 0 0 0 0 0 0 0 0 0 0 0 0 127 0" result="hardAlpha"/>
<feOffset/>
<feGaussianBlur stdDeviation="11.27"/>
<feComposite in2="hardAlpha" operator="out"/>
<feColorMatrix type="matrix" values="0 0 0 0 0.792157 0 0 0 0 0.756863 0 0 0 0 0.913725 0 0 0 1 0"/>
<feBlend mode="normal" in2="BackgroundImageFix" result="effect1_dropShadow_367_1394"/>
<feBlend mode="normal" in="SourceGraphic" in2="effect1_dropShadow_367_1394" result="shape"/>
</filter>
<radialGradient id="paint0_radial_367_1394" cx="0" cy="0" r="1" gradientUnits="userSpaceOnUse" gradientTransform="translate(131.289 88.8235) rotate(-44.8305) scale(276.929 107.154)">
<stop stop-color="#1D1D1D"/>
<stop offset="1"/>
</radialGradient>
<linearGradient id="paint1_linear_367_1394" x1="18.7036" y1="126.481" x2="218.77" y2="38.4207" gradientUnits="userSpaceOnUse">
<stop stop-color="#CECECE" stop-opacity="0.76"/>
<stop offset="0.25" stop-color="#838383" stop-opacity="0.53"/>
<stop offset="0.484375" stop-color="#C4C4C4" stop-opacity="0.515625"/>
<stop offset="0.677083" stop-color="#E1E1E1" stop-opacity="0.6"/>
<stop offset="0.854167" stop-color="#CFCFCF" stop-opacity="0.23"/>
<stop offset="1" stop-color="#CFCFCF" stop-opacity="0.63"/>
</linearGradient>
<linearGradient id="paint2_linear_367_1394" x1="89.383" y1="74.3399" x2="143.841" y2="39" gradientUnits="userSpaceOnUse">
<stop stop-color="white"/>
<stop offset="0.182292" stop-color="white" stop-opacity="0.51"/>
<stop offset="0.546875" stop-color="white"/>
<stop offset="0.786458" stop-color="white" stop-opacity="0.44"/>
<stop offset="0.994792" stop-color="white"/>
</linearGradient>
<linearGradient id="paint3_linear_367_1394" x1="86.2932" y1="151.586" x2="146.352" y2="115.666" gradientUnits="userSpaceOnUse">
<stop stop-color="white"/>
<stop offset="0.182292" stop-color="white" stop-opacity="0.51"/>
<stop offset="0.546875" stop-color="white"/>
<stop offset="0.786458" stop-color="white" stop-opacity="0.44"/>
<stop offset="0.994792" stop-color="white"/>
</linearGradient>
<linearGradient id="paint4_linear_367_1394" x1="43.036" y1="149.848" x2="238.467" y2="34.1722" gradientUnits="userSpaceOnUse">
<stop stop-color="white" stop-opacity="0.31"/>
<stop offset="0.291667" stop-color="white"/>
<stop offset="0.536458" stop-color="white" stop-opacity="0.26"/>
<stop offset="0.770833" stop-color="white"/>
<stop offset="1" stop-color="white" stop-opacity="0.25"/>
</linearGradient>
<linearGradient id="paint5_linear_367_1394" x1="139.207" y1="148.496" x2="199.266" y2="120.301" gradientUnits="userSpaceOnUse">
<stop stop-color="white"/>
<stop offset="0.182292" stop-color="white" stop-opacity="0.51"/>
<stop offset="0.546875" stop-color="white"/>
<stop offset="0.786458" stop-color="white" stop-opacity="0.44"/>
<stop offset="0.994792" stop-color="white"/>
</linearGradient>
<linearGradient id="paint6_linear_367_1394" x1="135.345" y1="64.8774" x2="197.141" y2="41.1244" gradientUnits="userSpaceOnUse">
<stop stop-color="white"/>
<stop offset="0.182292" stop-color="white" stop-opacity="0.51"/>
<stop offset="0.546875" stop-color="white"/>
<stop offset="0.786458" stop-color="white" stop-opacity="0.44"/>
<stop offset="0.994792" stop-color="white"/>
</linearGradient>
</defs>
</svg>
