<svg width="254" height="118" viewBox="0 0 254 118" fill="none" xmlns="http://www.w3.org/2000/svg">
<g filter="url(#filter0_d_367_1394)">
<path d="M11.4761 84.9628C10.3174 83.2892 8 75.6547 8 60.8236C8 45.9924 10.3174 38.3579 11.4761 36.6843L14.9521 32.6289C15.0165 31.8564 15.7246 29.6935 18.0419 27.2217C20.9386 24.1319 27.8907 17.3728 34.0704 16.9866C40.25 16.6004 64.7755 16.2142 78.8729 16.2142C88.9148 16.2142 104.557 16.9866 131.014 16.9866C157.47 16.9866 170.988 16.4073 181.416 16.4073C191.845 16.4073 200.149 16.6004 204.976 17.1797C209.804 17.7591 217.722 19.6902 218.108 20.0764C223.515 21.042 228.536 22.0076 231.819 28.1872C235.102 34.3669 238.578 47.8849 238.578 60.8235C238.578 73.7622 235.102 87.2802 231.819 93.4599C228.536 99.6395 223.515 100.605 218.108 101.571C217.722 101.957 209.804 103.888 204.976 104.467C200.149 105.047 191.845 105.24 181.416 105.24C170.988 105.24 157.47 104.66 131.014 104.66C104.557 104.66 88.9148 105.433 78.8729 105.433C64.7755 105.433 40.2501 105.047 34.0704 104.66C27.8908 104.274 20.9386 97.5153 18.0419 94.4254C15.7246 91.9536 15.0165 89.7907 14.9521 89.0182L11.4761 84.9628Z" fill="url(#paint0_radial_367_1394)" fill-opacity="0.97" shape-rendering="crispEdges"/>
<path d="M11.4761 84.9628C10.3174 83.2892 8 75.6547 8 60.8236C8 45.9924 10.3174 38.3579 11.4761 36.6843L14.9521 32.6289C15.0165 31.8564 15.7246 29.6935 18.0419 27.2217C20.9386 24.1319 27.8907 17.3728 34.0704 16.9866C40.25 16.6004 64.7755 16.2142 78.8729 16.2142C88.9148 16.2142 104.557 16.9866 131.014 16.9866C157.47 16.9866 170.988 16.4073 181.416 16.4073C191.845 16.4073 200.149 16.6004 204.976 17.1797C209.804 17.7591 217.722 19.6902 218.108 20.0764C223.515 21.042 228.536 22.0076 231.819 28.1872C235.102 34.3669 238.578 47.8849 238.578 60.8235C238.578 73.7622 235.102 87.2802 231.819 93.4599C228.536 99.6395 223.515 100.605 218.108 101.571C217.722 101.957 209.804 103.888 204.976 104.467C200.149 105.047 191.845 105.24 181.416 105.24C170.988 105.24 157.47 104.66 131.014 104.66C104.557 104.66 88.9148 105.433 78.8729 105.433C64.7755 105.433 40.2501 105.047 34.0704 104.66C27.8908 104.274 20.9386 97.5153 18.0419 94.4254C15.7246 91.9536 15.0165 89.7907 14.9521 89.0182L11.4761 84.9628Z" stroke="url(#paint1_linear_367_1394)" stroke-width="0.772457" shape-rendering="crispEdges"/>
</g>
<path d="M82.1555 20.6558L78.4863 16.0211L131.4 16.7935L131.4 17.7591M82.1555 20.6558L89.6869 20.6558M82.1555 20.6558L83.9579 23.3594M132.945 22.9732L135.841 31.084L131.593 31.084M132.945 22.9732L132.751 22.0076M132.945 22.9732C131.405 22.9732 129.663 22.9592 127.73 22.9428M132.068 19.8834L132.365 20.6558L132.751 22.0076M132.068 19.8834L131.4 18.1453L131.4 17.7591M132.068 19.8834L96.8322 20.0765M83.9579 23.3594L84.0866 23.5525L85.8247 23.5525C86.048 23.6491 86.3066 23.7575 86.5971 23.8756M83.9579 23.3594C97.0253 22.2007 123.385 22.0076 132.751 22.0076M86.5971 23.8756C89.4049 25.0168 95.2005 27.0672 101.081 28.1873C107.569 29.4232 123.997 30.6334 131.4 31.084L131.593 31.084M86.5971 23.8756C104.091 22.7199 118.223 22.8619 127.73 22.9428M127.73 22.9428L131.593 31.084M131.4 17.7591C130.694 17.7885 129.651 17.8393 128.696 17.9006M126.379 18.1453C125.992 18.3384 124.447 18.5316 123.868 18.5316C123.578 18.5316 122.275 18.3384 120.971 18.1453M126.379 18.1453C126.547 18.0614 127.559 17.9736 128.696 17.9006M126.379 18.1453C125.928 17.9522 124.795 17.566 123.868 17.566C122.941 17.566 121.551 17.9522 120.971 18.1453M119.04 17.8657C118.566 17.8012 118.21 17.7591 118.075 17.7591C117.495 17.7591 112.088 17.1798 111.702 16.9866C111.393 16.8322 116.465 17.5083 119.04 17.8657ZM119.04 17.8657C120.006 17.1999 121.937 16.9866 124.254 16.9866C125.49 16.9866 127.73 17.596 128.696 17.9006M119.04 17.8657C119.582 17.9394 120.277 18.0424 120.971 18.1453" stroke="url(#paint2_linear_367_1394)" stroke-opacity="0.26" stroke-width="0.386228"/>
<path d="M82.1555 100.991L78.4863 105.626L131.4 104.854L131.4 103.888M82.1555 100.991L89.6869 101.184M82.1555 100.991L83.9579 98.2877M132.945 98.6739L135.841 90.5631L131.593 90.5631M132.945 98.6739L132.751 99.6395M132.945 98.6739C131.405 98.6739 129.663 98.6879 127.73 98.7043M89.6869 101.184L91.425 102.729M89.6869 101.184C89.9444 100.798 90.6525 100.026 91.425 100.026L93.9355 100.026L94.1679 100.629M132.068 101.764L132.365 100.991L132.751 99.6395M132.068 101.764L131.4 103.502L131.4 103.888M132.068 101.764L96.8322 101.571L96.6883 101.571M83.9579 98.2877L84.0866 98.0946L85.8247 98.0946C86.048 97.998 86.3066 97.8897 86.5971 97.7716M83.9579 98.2877C97.0253 99.4464 123.385 99.6395 132.751 99.6395M86.5971 97.7716C89.4049 96.6303 95.2005 94.5799 101.081 93.4599C107.569 92.2239 123.997 91.0137 131.4 90.5631L131.593 90.5631M86.5971 97.7716C103.812 98.9088 117.772 98.7895 127.273 98.7082L127.73 98.7043M127.73 98.7043L131.593 90.5631M131.4 103.888C130.694 103.859 129.651 103.808 128.696 103.747M126.379 103.502C125.992 103.309 124.447 103.116 123.868 103.116C123.578 103.116 122.275 103.309 120.971 103.502M126.379 103.502C126.547 103.586 127.559 103.674 128.696 103.747M126.379 103.502C125.928 103.695 124.795 104.081 123.868 104.081C122.941 104.081 121.551 103.695 120.971 103.502M119.04 103.781C118.566 103.846 118.21 103.888 118.075 103.888C117.495 103.888 112.088 104.467 111.702 104.66C111.393 104.815 116.465 104.139 119.04 103.781ZM119.04 103.781C120.006 104.447 121.937 104.66 124.254 104.66C125.49 104.66 127.73 104.051 128.696 103.747M119.04 103.781C119.582 103.708 120.277 103.605 120.971 103.502M91.425 102.729C91.6825 103.888 92.545 106.553 93.9355 107.943C95.0922 109.1 97.3095 109.981 98.7633 110.429M91.425 102.729C91.6181 102.214 92.1974 101.107 92.9699 100.798C93.2555 100.684 93.6906 100.637 94.1679 100.629M94.1679 100.629C94.6643 100.621 95.2064 100.655 95.6735 100.702M98.7633 110.429C99.0569 110.52 99.3194 110.593 99.5358 110.647L96.6883 101.571M98.7633 110.429L95.6735 100.702M95.6735 100.702C95.9722 100.732 96.2402 100.767 96.4459 100.798L96.6883 101.571" stroke="url(#paint3_linear_367_1394)" stroke-opacity="0.26" stroke-width="0.386228"/>
<path d="M91.4255 18.9178L89.6875 20.4627C89.945 20.8489 90.6531 21.6214 91.4255 21.6214C92.198 21.6214 93.421 21.6214 93.936 21.6214L94.1685 21.0183M91.4255 18.9178C91.683 17.7591 92.5456 15.0941 93.936 13.7037C95.0928 12.5469 97.31 11.6664 98.7639 11.2178M91.4255 18.9178C91.6186 19.4328 92.198 20.5399 92.9704 20.8489C93.256 20.9632 93.6911 21.0105 94.1685 21.0183M94.1685 21.0183C94.6649 21.0265 95.207 20.9919 95.674 20.9452M98.7639 11.2178C99.0575 11.1272 99.32 11.0542 99.5363 11.0001L96.4465 20.8489C96.2407 20.8806 95.9727 20.9153 95.674 20.9452M98.7639 11.2178L95.674 20.9452" stroke="white" stroke-opacity="0.26" stroke-width="0.386228"/>
<path d="M14.759 84.1904C14.1797 82.0661 12.0554 71.2517 11.8623 60.8236C12.0554 50.3954 14.1797 39.581 14.759 37.4568M14.759 84.1904C11.6692 83.0317 10.3174 82.0661 10.3174 82.0661M14.759 84.1904C24.9941 86.9851 50.2534 93.3584 69.4103 96.4933M14.759 84.1904C15.0506 85.2595 15.44 86.622 15.9026 87.8595M24.8009 96.9359C22.7411 95.2623 18.9689 92.0694 18.0419 91.1425C17.4664 90.5669 16.3591 89.081 15.9026 87.8595M24.8009 96.9359L52.4163 96.9359M24.8009 96.9359C24.9238 96.9856 25.0528 97.0374 25.1872 97.091M52.4163 96.9359C56.6004 97.129 65.1232 97.5153 65.7411 97.5153M52.4163 96.9359L15.9026 87.8595M65.7411 97.5153C66.2297 97.5153 68.0382 96.9519 69.4103 96.4933M65.7411 97.5153C68.3804 98.159 74.045 99.5236 75.59 99.8326C77.1349 100.142 80.6109 100.734 82.1558 100.991M70.3759 96.3566C67.9298 93.2024 63.0375 80.9074 63.0375 60.8236C63.0375 40.7397 67.9298 28.4448 70.3759 25.2906M70.3759 96.3566L69.4103 96.4933M70.3759 96.3566C71.2127 96.6784 82.5421 97.5153 82.5421 97.5153M22.4836 98.6739C23.8354 99.8326 28.8563 101.378 30.2081 101.571C30.7817 101.653 35.2291 102.729 35.4222 102.729C35.5021 102.729 35.846 102.63 36.1947 102.419M25.1872 97.091C28.3613 98.357 34.5957 100.65 36.9671 100.798C36.9671 101.184 36.9669 101.482 36.774 101.764M25.1872 97.091L25.1872 98.0946M25.1872 98.8671C23.1917 97.7084 18.5827 94.1937 16.1108 90.1769C15.6473 89.559 15.1452 89.147 14.9521 89.0182M25.1872 98.8671L25.1872 98.0946M25.1872 98.8671C27.1827 100.026 31.9462 101.378 36.1947 102.419M36.774 101.764C34.3182 101.278 28.586 99.794 25.1872 98.0946M36.774 101.764L36.773 101.765C36.614 101.997 36.4178 102.283 36.1947 102.419M82.5421 97.5153C82.5421 97.5153 83.7008 97.7084 84.087 98.0946M82.5421 97.5153C82.1593 97.2717 81.4004 96.8175 80.4178 96.2807M80.4178 96.2807C79.5826 95.8244 78.5858 95.3085 77.5211 94.8117C74.6244 93.4599 71.1483 90.1769 69.9896 88.632C68.831 87.0871 64.5825 79.3625 64.5825 60.8236C64.5825 42.2846 68.831 34.56 69.9896 33.0151C71.1483 31.4702 74.6244 28.1873 77.5211 26.8355C78.5858 26.3386 79.5826 25.8227 80.4178 25.3664M80.4178 96.2807C90.945 93.5347 96.3229 91.3962 108.226 90.0171M199.183 86.5077C185.601 86.894 152.604 87.8595 129.276 88.632C120.237 88.9313 113.573 89.3976 108.226 90.0171M199.183 86.5077L199.183 85.3491M199.183 86.5077C199.183 87.1277 199.67 87.707 200.683 88.2458M199.183 85.3491C181.803 85.864 143.489 86.9712 129.276 87.2802C115.062 87.5892 108.934 88.3101 107.647 88.632M199.183 85.3491L199.183 79.3625M107.647 88.632C106.166 83.6754 103.205 70.5565 103.205 60.8236C103.205 51.0906 106.166 37.9717 107.647 33.0151M107.647 88.632L108.226 90.0171M200.683 88.2458C201.877 88.8817 203.803 89.4611 206.521 89.9838C210.186 90.6886 214.16 90.9818 217.541 90.5631M200.683 88.2458C208.839 85.3491 211.452 83.611 213.86 74.5347C215.405 68.7115 215.405 62.3685 215.405 60.8236C215.405 59.2786 215.405 52.9356 213.86 47.1125C211.452 38.0361 208.839 36.2981 200.682 33.4014M199.183 79.3625C201.307 79.5556 202.852 79.7487 204.397 79.9419L204.397 75.3071C202.852 74.8436 200.277 74.599 199.183 74.5347M199.183 79.3625L199.183 74.5347M199.183 74.5347L199.183 47.1125M217.541 90.5631C217.086 90.1769 216.023 89.3658 215.405 89.2113C214.632 89.0182 210.77 88.0527 209.032 87.4733C207.294 86.894 209.225 85.3491 209.611 84.7697C209.92 84.3062 210.77 83.1604 211.156 82.6455C212.894 83.2892 217.065 84.6538 219.846 84.9628C223.322 85.3491 226.605 85.3491 228.536 80.5212C230.467 75.6933 231.047 68.355 231.047 60.8236C231.047 53.2921 230.467 45.9538 228.536 41.1259C226.605 36.2981 223.322 36.2981 219.846 36.6843C217.065 36.9933 212.894 38.3579 211.156 39.0017C210.77 38.4867 209.92 37.3409 209.611 36.8774C209.225 36.2981 207.294 34.7532 209.032 34.1738C210.77 33.5945 214.632 32.6289 215.405 32.4358C216.023 32.2813 217.086 31.4702 217.541 31.084M217.541 90.5631C218.558 90.4372 219.521 90.2468 220.407 89.9838M217.541 90.5631L219.176 92.2046M220.407 89.9838C220.61 89.9233 220.81 89.859 221.005 89.7907C225.447 88.2361 232.785 82.2592 233.171 71.4448C233.364 66.0376 233.364 60.8236 233.364 60.8236C233.364 60.8236 233.364 55.6095 233.171 50.2023C232.785 39.3879 225.447 33.411 221.005 31.8564C220.81 31.7882 220.61 31.7238 220.407 31.6633M220.407 89.9838C227.571 84.9628 229.336 83.2078 231.047 76.0796C232.206 71.2517 232.206 62.7547 232.206 60.8236C232.206 58.8924 232.206 50.3954 231.047 45.5675C229.336 38.4393 227.571 36.6843 220.407 31.6633M219.176 92.2046L220.812 93.8461M219.176 92.2046C215.988 93.3311 207.178 95.7 197.445 96.1634M220.812 93.8461C218.907 95.067 214.535 97.281 209.432 98.4808M220.812 93.8461C222.745 92.6647 224.499 91.4236 226.206 89.7907M197.445 96.1634C200.035 94.9275 201.099 93.8461 201.307 93.4598C200.975 93.3537 200.586 93.2359 200.149 93.1102M197.445 96.1634C191.574 97.3994 185.343 97.8371 182.961 97.9015M182.575 96.9359L174.658 90.5631L184.12 90.5631C189.895 90.5631 196.609 92.093 200.149 93.1102M182.575 96.9359C185.408 96.8715 191.806 96.5497 194.741 95.7772C197.677 95.0048 199.569 93.6774 200.149 93.1102M182.575 96.9359L182.961 97.9015M182.961 97.9015L184.12 100.219M184.12 100.219C187.918 100.09 197.29 99.7167 204.397 99.2533C206.112 99.1414 207.809 98.8624 209.432 98.4808M184.12 100.219L183.348 102.536C193.583 102.15 201.887 101.764 209.032 101.378M209.032 101.378C211.658 99.6781 213.345 98.7383 213.86 98.4808M209.032 101.378C206.405 102.768 204.848 104.145 204.397 104.66M213.86 98.4808L209.432 98.4808M213.86 98.4808C215.405 97.7084 219.46 97.7084 222.357 95.7772C224.543 94.3194 226.18 91.871 227.266 90.1769M213.86 98.4808C216.944 98.4808 219.907 98.2548 222.743 96.9359M231.819 84.1904C233.042 82.4523 235.527 77.47 235.682 71.4448C235.836 65.4197 235.875 60.8236 235.875 60.8236C235.875 60.8236 235.836 56.2274 235.682 50.2023C235.527 44.1771 233.042 39.1948 231.819 37.4567M231.819 84.1904C231.37 84.7365 230.647 85.6226 229.94 86.5077M231.819 84.1904C231.284 85.6048 230.254 88.0773 229.085 90.37M222.743 96.9359C223.991 96.3553 225.64 95.391 226.605 94.4254C227.52 93.5108 228.285 91.9378 229.085 90.37M222.743 96.9359C225.253 94.8116 226.605 93.4598 227.764 91.1425C227.893 90.8833 228.023 90.6212 228.15 90.3598M229.94 86.5077C229.231 87.3961 228.537 88.2834 228.15 88.8251C227.913 89.1564 227.619 89.6269 227.266 90.1769M229.94 86.5077C229.648 87.1722 228.934 88.7512 228.15 90.3598M229.085 90.37L228.15 90.3598M229.085 90.37C229.305 90.37 229.692 90.3612 230.155 90.3351M228.15 90.3598L227.266 90.1769M227.266 90.1769L226.206 89.7907M226.206 89.7907C227.569 88.4873 228.903 86.9343 230.274 84.9628C233.364 80.5212 234.523 76.4658 234.523 60.8236C234.523 45.1813 233.364 41.1259 230.274 36.6843C228.903 34.7128 227.569 33.1598 226.206 31.8564M233.557 89.9838C233.429 89.9838 232.901 90.0224 231.819 90.1769C231.255 90.2576 230.66 90.3067 230.155 90.3351M230.155 90.3351C231.546 88.0938 234.562 82.6068 235.488 78.5901C236.647 73.5691 237.226 66.2308 237.226 60.8236C237.226 55.4164 236.647 48.078 235.488 43.0571C234.562 39.0403 231.546 33.5533 230.155 31.312M230.155 90.3351C229.085 92.2046 228.923 92.6874 226.991 95.391C225.06 98.0946 219.267 100.798 218.108 101.378M224.674 99.8326C225.494 99.0602 227.413 97.2449 228.536 96.1634C229.66 95.082 231.45 93.0736 232.206 92.2046M14.759 37.4568C11.6692 38.6154 10.3174 39.581 10.3174 39.581M14.759 37.4568C24.9941 34.662 50.2534 28.2888 69.4103 25.1538M14.759 37.4568C15.0506 36.3877 15.44 35.0251 15.9026 33.7876M24.8009 24.7112C22.7411 26.3849 18.9689 29.5777 18.0419 30.5046C17.4664 31.0802 16.3591 32.5661 15.9026 33.7876M24.8009 24.7112L52.4163 24.7112M24.8009 24.7112C24.9238 24.6615 25.0528 24.6098 25.1872 24.5562M52.4163 24.7112C56.6004 24.5181 65.1232 24.1319 65.7411 24.1319M52.4163 24.7112L15.9026 33.7876M65.7411 24.1319C66.2297 24.1319 68.0382 24.6952 69.4103 25.1538M65.7411 24.1319C68.3804 23.4882 74.045 22.1235 75.59 21.8145C77.1349 21.5055 80.6109 20.9133 82.1558 20.6558M70.3759 25.2906L69.4103 25.1538M70.3759 25.2906C71.2127 24.9687 82.5421 24.1319 82.5421 24.1319M22.4836 22.9732C23.8354 21.8145 28.8563 20.2696 30.2081 20.0765C30.7817 19.9946 35.2291 18.9178 35.4222 18.9178C35.5021 18.9178 35.846 19.0168 36.1947 19.2285M25.1872 24.5562C28.3613 23.2901 34.5957 20.9972 36.9671 20.8489C36.9671 20.4627 36.9669 20.1647 36.774 19.8834M25.1872 24.5562L25.1872 23.5525M25.1872 22.7801C23.1917 23.9388 18.5827 27.4534 16.1108 31.4702C15.6473 32.0882 15.1452 32.5002 14.9521 32.6289M25.1872 22.7801L25.1872 23.5525M25.1872 22.7801C27.1827 21.6214 31.9462 20.2696 36.1947 19.2285M36.774 19.8834C34.3182 20.3689 28.586 21.8531 25.1872 23.5525M36.774 19.8834L36.773 19.8819C36.614 19.6501 36.4178 19.364 36.1947 19.2285M82.5421 24.1319C82.5421 24.1319 83.7007 23.9388 84.087 23.5525M82.5421 24.1319C82.1593 24.3754 81.4004 24.8297 80.4178 25.3664M80.4178 25.3664C90.945 28.1124 96.3229 30.2509 108.226 31.63M199.183 35.1394C185.601 34.7532 152.604 33.7876 129.276 33.0151C120.237 32.7158 113.573 32.2496 108.226 31.63M199.183 35.1394L199.183 36.2981M199.183 35.1394C199.183 34.5194 199.67 33.9401 200.682 33.4014M199.183 36.2981C181.803 35.7831 143.489 34.6759 129.276 34.3669C115.062 34.0579 108.934 33.337 107.647 33.0151M199.183 36.2981L199.183 42.2846M107.647 33.0151L108.226 31.63M200.682 33.4014C201.877 32.7654 203.803 32.1861 206.521 31.6633C210.186 30.9586 214.16 30.6653 217.541 31.084M199.183 42.2846C201.307 42.0915 202.852 41.8984 204.397 41.7053L204.397 46.34C202.852 46.8035 200.277 47.0481 199.183 47.1125M199.183 42.2846L199.183 47.1125M217.541 31.084C218.558 31.2099 219.521 31.4003 220.407 31.6633M217.541 31.084L219.176 29.4425M219.176 29.4425L220.812 27.801M219.176 29.4425C215.988 28.316 207.178 25.9471 197.445 25.4837M220.812 27.801C218.907 26.5801 214.535 24.3661 209.432 23.1663M220.812 27.801C222.745 28.9824 224.499 30.2235 226.206 31.8564M197.445 25.4837C200.035 26.7196 201.099 27.801 201.307 28.1873C200.975 28.2934 200.586 28.4113 200.149 28.5369M197.445 25.4837C191.574 24.2477 185.343 23.81 182.961 23.7456M182.575 24.7112L174.658 31.084L184.12 31.084C189.895 31.084 196.609 29.5541 200.149 28.5369M182.575 24.7112C185.408 24.7756 191.806 25.0974 194.741 25.8699C197.677 26.6424 199.569 27.9698 200.149 28.5369M182.575 24.7112L182.961 23.7456M182.961 23.7456L184.12 21.4283M184.12 21.4283C187.918 21.557 197.29 21.9304 204.397 22.3938C206.112 22.5057 207.809 22.7847 209.432 23.1663M184.12 21.4283L183.348 19.1109C193.583 19.4971 201.887 19.8834 209.032 20.2696M209.032 20.2696C211.658 21.969 213.345 22.9088 213.86 23.1663M209.032 20.2696C206.405 18.8792 204.848 17.5016 204.397 16.9867M213.86 23.1663L209.432 23.1663M213.86 23.1663C215.405 23.9388 219.46 23.9388 222.357 25.8699C224.543 27.3278 226.18 29.7761 227.266 31.4702M213.86 23.1663C216.944 23.1663 219.907 23.3923 222.743 24.7112M231.819 37.4567C231.37 36.9106 230.647 36.0245 229.94 35.1394M231.819 37.4567C231.284 36.0423 230.254 33.5698 229.085 31.2771M222.743 24.7112C223.991 25.2918 225.64 26.2561 226.605 27.2217C227.52 28.1363 228.285 29.7093 229.085 31.2771M222.743 24.7112C225.253 26.8355 226.605 28.1873 227.764 30.5046C227.893 30.7638 228.023 31.026 228.15 31.2873M229.94 35.1394C229.231 34.2511 228.537 33.3637 228.15 32.822C227.913 32.4907 227.619 32.0202 227.266 31.4702M229.94 35.1394C229.648 34.4749 228.934 32.8959 228.15 31.2873M229.085 31.2771L228.15 31.2873M229.085 31.2771C229.305 31.2771 229.692 31.2859 230.155 31.312M228.15 31.2873L227.266 31.4702M227.266 31.4702L226.206 31.8564M233.557 31.6633C233.429 31.6633 232.901 31.6247 231.819 31.4702C231.255 31.3895 230.66 31.3405 230.155 31.312M230.155 31.312C229.085 29.4425 228.923 28.9597 226.991 26.2561C225.06 23.5525 219.267 20.8489 218.108 20.2696M224.674 21.8145C225.494 22.587 227.413 24.4022 228.536 25.4837C229.66 26.5651 231.45 28.5735 232.206 29.4425" stroke="url(#paint4_linear_367_1394)" stroke-opacity="0.26" stroke-width="0.386228"/>
<path d="M70.9558 88.4389C74.4318 92.6874 78.4872 94.0392 81.9633 94.4254C85.0531 93.8461 100.309 90.7562 102.626 89.7907C104.944 88.8251 105.716 88.632 104.751 84.1904C103.785 79.7487 103.013 74.7278 102.82 72.9898C102.626 71.2517 101.275 70.093 98.9573 69.5137C96.64 68.9344 93.1639 67.7757 91.8121 66.8101C90.4603 65.8445 90.4603 62.5616 90.4603 60.8236C90.4603 59.0855 90.4603 55.8026 91.8121 54.837C93.1639 53.8715 96.64 52.7128 98.9573 52.1334C101.275 51.5541 102.626 50.3954 102.82 48.6574C103.013 46.9193 103.785 41.8984 104.751 37.4568C105.716 33.0151 104.944 32.822 102.626 31.8564C100.309 30.8909 85.0531 27.8011 81.9633 27.2217C78.4872 27.6079 74.4318 28.9597 70.9558 33.2082C67.4797 37.4568 65.3555 51.9403 65.3555 60.8236C65.3555 69.7068 67.4797 84.1904 70.9558 88.4389Z" fill="#111111" stroke="white" stroke-opacity="0.26" stroke-width="0.386228"/>
<path d="M182.575 96.9359L174.658 90.5631L170.023 90.5631M182.575 96.9359L183.155 98.0946M182.575 96.9359C181.341 97.0682 179.766 97.1941 177.941 97.3135M183.155 98.0946L184.12 100.219M183.155 98.0946C169.067 98.6739 139.246 99.794 132.669 99.6395M184.12 100.219C172.842 100.991 150.712 100.927 141.056 100.798M184.12 100.219C184.005 100.506 183.695 101.297 183.3 102.343M132.945 98.6739L135.842 90.5631L138.738 90.5631M132.945 98.6739L137 98.6739M132.945 98.6739L132.669 99.6395M138.738 90.5631L137 98.6739M138.738 90.5631L170.023 90.5631M137 98.6739C145.463 98.5329 161.259 98.1652 172.533 97.6161M170.023 90.5631L173.421 93.4598M177.941 97.3135C176.316 97.4197 174.493 97.5206 172.533 97.6161M177.941 97.3135L173.421 93.4598M172.533 97.6161L173.421 93.4598M132.669 99.6395L132.448 100.412M132.044 101.764L131.593 103.116L131.465 103.695M132.044 101.764L132.173 101.378L132.448 100.412M132.044 101.764L146.463 101.764L141.056 100.798M141.056 100.798L132.448 100.412M183.3 102.343C183.253 102.468 183.204 102.597 183.155 102.729C182.691 103.965 181.803 104.918 181.417 105.24L162.492 104.854L145.497 104.854L131.207 104.854L131.465 103.695M183.3 102.343L180.258 102.343C180.194 102.329 180.123 102.315 180.047 102.299M131.465 103.695C142.536 103.695 168.864 102.729 170.023 102.729C170.19 102.729 170.385 102.709 170.602 102.675M170.602 102.675C171.246 103.079 173.074 103.888 175.237 103.888C177.941 103.888 179.449 102.834 180.047 102.299M170.602 102.675C171.24 102.574 172.07 102.35 172.946 102.15M180.047 102.299C179.587 102.206 178.917 102.085 178.188 101.982M178.188 101.982C177.333 101.861 176.398 101.764 175.623 101.764C174.787 101.764 173.843 101.945 172.946 102.15M178.188 101.982C178.105 102.167 177.477 102.575 175.623 102.729C173.769 102.884 173.066 102.407 172.946 102.15" stroke="url(#paint5_linear_367_1394)" stroke-opacity="0.26" stroke-width="0.386228"/>
<path d="M182.575 24.7112L174.658 31.084L170.023 31.084M182.575 24.7112L183.155 23.5526M182.575 24.7112C181.341 24.579 179.766 24.453 177.941 24.3336M183.155 23.5526L184.12 21.4283M183.155 23.5526C169.067 22.9732 139.246 21.8532 132.669 22.0076M184.12 21.4283C172.842 20.6558 150.712 20.7202 141.056 20.849M184.12 21.4283C184.005 21.1408 183.695 20.3502 183.3 19.304M132.945 22.9732L135.842 31.084L138.738 31.084M132.945 22.9732L137 22.9732M132.945 22.9732L132.669 22.0076M138.738 31.084L137 22.9732M138.738 31.084L170.023 31.084M137 22.9732C145.463 23.1143 161.259 23.4819 172.533 24.031M170.023 31.084L173.421 28.1873M177.941 24.3336C176.316 24.2274 174.493 24.1265 172.533 24.031M177.941 24.3336L173.421 28.1873M172.533 24.031L173.421 28.1873M132.669 22.0076L132.448 21.2352M132.044 19.8834L131.593 18.5316L131.465 17.9522M132.044 19.8834L132.173 20.2696L132.448 21.2352M132.044 19.8834L146.463 19.8834L141.056 20.849M141.056 20.849L132.448 21.2352M183.3 19.304C183.253 19.1788 183.204 19.0499 183.155 18.9178C182.691 17.6819 181.803 16.7292 181.417 16.4073L162.492 16.7936L145.497 16.7936L131.207 16.7936L131.465 17.9522M183.3 19.304L180.258 19.304C180.194 19.3178 180.123 19.3325 180.047 19.348M131.465 17.9522C142.536 17.9522 168.864 18.9178 170.023 18.9178C170.19 18.9178 170.385 18.9379 170.602 18.9722M170.602 18.9722C171.246 18.5678 173.074 17.7591 175.237 17.7591C177.941 17.7591 179.449 18.8127 180.047 19.348M170.602 18.9722C171.24 19.0729 172.07 19.2966 172.946 19.4972M180.047 19.348C179.587 19.4411 178.917 19.562 178.188 19.6653M178.188 19.6653C177.333 19.7864 176.398 19.8834 175.623 19.8834C174.787 19.8834 173.843 19.7024 172.946 19.4972M178.188 19.6653C178.105 19.4805 177.477 19.0723 175.623 18.9178C173.769 18.7633 173.066 19.2397 172.946 19.4972" stroke="url(#paint6_linear_367_1394)" stroke-opacity="0.26" stroke-width="0.386228"/>
<path d="M185.472 60.8236C185.729 61.2098 186.785 62.0209 188.948 62.1754C189.711 62.2299 190.544 62.1418 191.352 61.9823M194.707 60.9267C194.789 60.8907 194.865 60.8562 194.934 60.8236L194.707 60.9267ZM194.707 60.9267C193.953 61.2588 192.688 61.7183 191.352 61.9823M194.707 60.9267L194.707 62.0719C193.682 62.042 191.576 61.9823 191.352 61.9823" stroke="white" stroke-opacity="0.26" stroke-width="0.386228"/>
<path d="M185.472 60.8235C185.729 60.4373 186.785 59.6262 188.948 59.4717C189.711 59.4172 190.544 59.5053 191.352 59.6648M194.707 60.7204C194.789 60.7564 194.865 60.7909 194.934 60.8235L194.707 60.7204ZM194.707 60.7204C193.953 60.3883 192.688 59.9288 191.352 59.6648M194.707 60.7204L194.707 59.5752C193.682 59.605 191.576 59.6648 191.352 59.6648" stroke="white" stroke-opacity="0.26" stroke-width="0.386228"/>
<g filter="url(#filter1_d_367_1394)">
<path d="M189 95.1017V93.4746V85.0678V78.2881V39.7797V33V24.5932V22.9661C189 22.0955 189.684 21.2819 191.106 20.5254C192.783 19.6324 195.488 18.8188 199.305 18.0847C204.452 17.0951 210.031 16.6833 214.779 17.2712C216.208 17.4481 217.561 17.7154 218.804 18.0847C219.09 18.1697 219.37 18.2601 219.644 18.3559C225.881 20.539 236.186 28.9322 236.729 44.1187C237 51.7119 237 59.0339 237 59.0339C237 59.0339 237 66.3559 236.729 73.9492C236.186 89.1356 225.881 97.5288 219.644 99.7119C219.37 99.8078 219.09 99.8981 218.804 99.9831C217.561 100.352 216.208 100.62 214.779 100.797C210.031 101.385 204.452 100.973 199.305 99.9831C195.488 99.249 192.783 98.4354 191.106 97.5424C189.684 96.7859 189 95.9723 189 95.1017Z" fill="#CAC1E9" fill-opacity="0.4" shape-rendering="crispEdges"/>
<path d="M191.106 97.5424C189.684 96.7859 189 95.9723 189 95.1017V93.4746V85.0678M191.106 97.5424C192.783 98.4354 195.488 99.249 199.305 99.9831C204.452 100.973 210.031 101.385 214.779 100.797M191.106 97.5424C202.559 93.4746 206.229 91.0339 209.61 78.2881C211.78 70.1108 211.78 61.2034 211.78 59.0339C211.78 56.8644 211.78 47.957 209.61 39.7797C206.229 27.0339 202.559 24.5932 191.106 20.5254M189 85.0678C191.983 85.339 194.153 85.6102 196.322 85.8814V79.3729C194.153 78.722 190.537 78.3785 189 78.2881M189 85.0678V78.2881M189 78.2881V39.7797M214.779 100.797C214.141 100.254 212.647 99.1153 211.78 98.8983C210.695 98.6271 205.271 97.2712 202.831 96.4576C200.39 95.6441 203.102 93.4746 203.644 92.661C204.078 92.0102 205.271 90.4011 205.814 89.678C208.254 90.5819 214.112 92.4983 218.017 92.9322C222.898 93.4746 227.508 93.4746 230.22 86.6949C232.932 79.9153 233.746 69.6102 233.746 59.0339C233.746 48.4576 232.932 38.1525 230.22 31.3729C227.508 24.5932 222.898 24.5932 218.017 25.1356C214.112 25.5695 208.254 27.4859 205.814 28.3898C205.271 27.6667 204.078 26.0576 203.644 25.4068C203.102 24.5932 200.39 22.4237 202.831 21.6102C205.271 20.7966 210.695 19.4407 211.78 19.1695C212.647 18.9525 214.141 17.8136 214.779 17.2712M214.779 100.797C216.208 100.62 217.561 100.352 218.804 99.9831M218.804 99.9831C219.09 99.8981 219.37 99.8078 219.644 99.7119C225.881 97.5288 236.186 89.1356 236.729 73.9492C237 66.3559 237 59.0339 237 59.0339C237 59.0339 237 51.7119 236.729 44.1187C236.186 28.9322 225.881 20.539 219.644 18.3559C219.37 18.2601 219.09 18.1697 218.804 18.0847M218.804 99.9831C228.864 92.9322 231.343 90.4676 233.746 80.4576C235.373 73.678 235.373 61.7458 235.373 59.0339C235.373 56.322 235.373 44.3898 233.746 37.6102C231.343 27.6002 228.864 25.1356 218.804 18.0847M191.106 20.5254C189.684 21.2819 189 22.0955 189 22.9661V24.5932V33M191.106 20.5254C192.783 19.6324 195.488 18.8188 199.305 18.0847C204.452 17.0951 210.031 16.6833 214.779 17.2712M189 33C191.983 32.7288 194.153 32.4576 196.322 32.1864V38.6949C194.153 39.3458 190.537 39.6893 189 39.7797M189 33V39.7797M214.779 17.2712C216.208 17.4481 217.561 17.7154 218.804 18.0847" stroke="#CAC1E9" stroke-width="1.08475" shape-rendering="crispEdges"/>
</g>
<defs>
<filter id="filter0_d_367_1394" x="0.662149" y="8.87585" width="245.255" height="103.895" filterUnits="userSpaceOnUse" color-interpolation-filters="sRGB">
<feFlood flood-opacity="0" result="BackgroundImageFix"/>
<feColorMatrix in="SourceAlpha" type="matrix" values="0 0 0 0 0 0 0 0 0 0 0 0 0 0 0 0 0 0 127 0" result="hardAlpha"/>
<feOffset/>
<feGaussianBlur stdDeviation="3.47605"/>
<feComposite in2="hardAlpha" operator="out"/>
<feColorMatrix type="matrix" values="0 0 0 0 0 0 0 0 0 0 0 0 0 0 0 0 0 0 1 0"/>
<feBlend mode="normal" in2="BackgroundImageFix" result="effect1_dropShadow_367_1394"/>
<feBlend mode="normal" in="SourceGraphic" in2="effect1_dropShadow_367_1394" result="shape"/>
</filter>
<filter id="filter1_d_367_1394" x="172.187" y="0.186453" width="81.6264" height="117.695" filterUnits="userSpaceOnUse" color-interpolation-filters="sRGB">
<feFlood flood-opacity="0" result="BackgroundImageFix"/>
<feColorMatrix in="SourceAlpha" type="matrix" values="0 0 0 0 0 0 0 0 0 0 0 0 0 0 0 0 0 0 127 0" result="hardAlpha"/>
<feOffset/>
<feGaussianBlur stdDeviation="8.13559"/>
<feComposite in2="hardAlpha" operator="out"/>
<feColorMatrix type="matrix" values="0 0 0 0 0.792157 0 0 0 0 0.756863 0 0 0 0 0.913725 0 0 0 1 0"/>
<feBlend mode="normal" in2="BackgroundImageFix" result="effect1_dropShadow_367_1394"/>
<feBlend mode="normal" in="SourceGraphic" in2="effect1_dropShadow_367_1394" result="shape"/>
</filter>
<radialGradient id="paint0_radial_367_1394" cx="0" cy="0" r="1" gradientUnits="userSpaceOnUse" gradientTransform="translate(123.289 60.8236) rotate(-44.8305) scale(276.929 107.154)">
<stop stop-color="#1D1D1D"/>
<stop offset="1"/>
</radialGradient>
<linearGradient id="paint1_linear_367_1394" x1="10.7036" y1="98.4808" x2="210.77" y2="10.4208" gradientUnits="userSpaceOnUse">
<stop stop-color="#CECECE" stop-opacity="0.76"/>
<stop offset="0.25" stop-color="#838383" stop-opacity="0.53"/>
<stop offset="0.484375" stop-color="#C4C4C4" stop-opacity="0.515625"/>
<stop offset="0.677083" stop-color="#E1E1E1" stop-opacity="0.6"/>
<stop offset="0.854167" stop-color="#CFCFCF" stop-opacity="0.23"/>
<stop offset="1" stop-color="#CFCFCF" stop-opacity="0.63"/>
</linearGradient>
<linearGradient id="paint2_linear_367_1394" x1="81.383" y1="46.34" x2="135.841" y2="11.0001" gradientUnits="userSpaceOnUse">
<stop stop-color="white"/>
<stop offset="0.182292" stop-color="white" stop-opacity="0.51"/>
<stop offset="0.546875" stop-color="white"/>
<stop offset="0.786458" stop-color="white" stop-opacity="0.44"/>
<stop offset="0.994792" stop-color="white"/>
</linearGradient>
<linearGradient id="paint3_linear_367_1394" x1="78.2932" y1="123.586" x2="138.352" y2="87.6664" gradientUnits="userSpaceOnUse">
<stop stop-color="white"/>
<stop offset="0.182292" stop-color="white" stop-opacity="0.51"/>
<stop offset="0.546875" stop-color="white"/>
<stop offset="0.786458" stop-color="white" stop-opacity="0.44"/>
<stop offset="0.994792" stop-color="white"/>
</linearGradient>
<linearGradient id="paint4_linear_367_1394" x1="35.036" y1="121.848" x2="230.467" y2="6.17226" gradientUnits="userSpaceOnUse">
<stop stop-color="white" stop-opacity="0.31"/>
<stop offset="0.291667" stop-color="white"/>
<stop offset="0.536458" stop-color="white" stop-opacity="0.26"/>
<stop offset="0.770833" stop-color="white"/>
<stop offset="1" stop-color="white" stop-opacity="0.25"/>
</linearGradient>
<linearGradient id="paint5_linear_367_1394" x1="131.207" y1="120.496" x2="191.266" y2="92.3011" gradientUnits="userSpaceOnUse">
<stop stop-color="white"/>
<stop offset="0.182292" stop-color="white" stop-opacity="0.51"/>
<stop offset="0.546875" stop-color="white"/>
<stop offset="0.786458" stop-color="white" stop-opacity="0.44"/>
<stop offset="0.994792" stop-color="white"/>
</linearGradient>
<linearGradient id="paint6_linear_367_1394" x1="127.345" y1="36.8774" x2="189.141" y2="13.1244" gradientUnits="userSpaceOnUse">
<stop stop-color="white"/>
<stop offset="0.182292" stop-color="white" stop-opacity="0.51"/>
<stop offset="0.546875" stop-color="white"/>
<stop offset="0.786458" stop-color="white" stop-opacity="0.44"/>
<stop offset="0.994792" stop-color="white"/>
</linearGradient>
</defs>
</svg>
