<svg width="246" height="171" viewBox="0 0 246 171" fill="none" xmlns="http://www.w3.org/2000/svg">
<g filter="url(#filter0_d_367_1394)">
<path d="M11.4761 105.963C10.3174 104.289 8 96.6547 8 81.8235C8 66.9924 10.3174 59.3579 11.4761 57.6842L14.9521 53.6288C15.0165 52.8564 15.7246 50.6935 18.0419 48.2216C20.9386 45.1318 27.8907 38.3728 34.0704 37.9866C40.25 37.6004 64.7755 37.2142 78.8729 37.2142C88.9148 37.2142 104.557 37.9866 131.014 37.9866C157.47 37.9866 170.988 37.4072 181.416 37.4072C191.845 37.4072 200.149 37.6004 204.976 38.1797C209.804 38.759 217.722 40.6902 218.108 41.0764C223.515 42.042 228.536 43.0076 231.819 49.1872C235.102 55.3668 238.578 68.8849 238.578 81.8235C238.578 94.7622 235.102 108.28 231.819 114.46C228.536 120.639 223.515 121.605 218.108 122.571C217.722 122.957 209.804 124.888 204.976 125.467C200.149 126.047 191.845 126.24 181.416 126.24C170.988 126.24 157.47 125.66 131.014 125.66C104.557 125.66 88.9148 126.433 78.8729 126.433C64.7755 126.433 40.2501 126.047 34.0704 125.66C27.8908 125.274 20.9386 118.515 18.0419 115.425C15.7246 112.954 15.0165 110.791 14.9521 110.018L11.4761 105.963Z" fill="url(#paint0_radial_367_1394)" fill-opacity="0.97" shape-rendering="crispEdges"/>
<path d="M11.4761 105.963C10.3174 104.289 8 96.6547 8 81.8235C8 66.9924 10.3174 59.3579 11.4761 57.6842L14.9521 53.6288C15.0165 52.8564 15.7246 50.6935 18.0419 48.2216C20.9386 45.1318 27.8907 38.3728 34.0704 37.9866C40.25 37.6004 64.7755 37.2142 78.8729 37.2142C88.9148 37.2142 104.557 37.9866 131.014 37.9866C157.47 37.9866 170.988 37.4072 181.416 37.4072C191.845 37.4072 200.149 37.6004 204.976 38.1797C209.804 38.759 217.722 40.6902 218.108 41.0764C223.515 42.042 228.536 43.0076 231.819 49.1872C235.102 55.3668 238.578 68.8849 238.578 81.8235C238.578 94.7622 235.102 108.28 231.819 114.46C228.536 120.639 223.515 121.605 218.108 122.571C217.722 122.957 209.804 124.888 204.976 125.467C200.149 126.047 191.845 126.24 181.416 126.24C170.988 126.24 157.47 125.66 131.014 125.66C104.557 125.66 88.9148 126.433 78.8729 126.433C64.7755 126.433 40.2501 126.047 34.0704 125.66C27.8908 125.274 20.9386 118.515 18.0419 115.425C15.7246 112.954 15.0165 110.791 14.9521 110.018L11.4761 105.963Z" stroke="url(#paint1_linear_367_1394)" stroke-width="0.772457" shape-rendering="crispEdges"/>
</g>
<path d="M82.1555 41.6558L78.4863 37.021L131.4 37.7935L131.4 38.7591M82.1555 41.6558L89.6869 41.6558M82.1555 41.6558L83.9579 44.3594M132.945 43.9731L135.841 52.0839L131.593 52.0839M132.945 43.9731L132.751 43.0076M132.945 43.9731C131.405 43.9731 129.663 43.9592 127.73 43.9428M132.068 40.8833L132.365 41.6558L132.751 43.0076M132.068 40.8833L131.4 39.1453L131.4 38.7591M132.068 40.8833L96.8322 41.0764M83.9579 44.3594L84.0866 44.5525L85.8247 44.5525C86.048 44.6491 86.3066 44.7574 86.5971 44.8755M83.9579 44.3594C97.0253 43.2007 123.385 43.0076 132.751 43.0076M86.5971 44.8755C89.4049 46.0168 95.2005 48.0672 101.081 49.1872C107.569 50.4232 123.997 51.6333 131.4 52.0839L131.593 52.0839M86.5971 44.8755C104.091 43.7199 118.223 43.8618 127.73 43.9428M127.73 43.9428L131.593 52.0839M131.4 38.7591C130.694 38.7885 129.651 38.8393 128.696 38.9006M126.379 39.1453C125.992 39.3384 124.447 39.5315 123.868 39.5315C123.578 39.5315 122.275 39.3384 120.971 39.1453M126.379 39.1453C126.547 39.0613 127.559 38.9736 128.696 38.9006M126.379 39.1453C125.928 38.9522 124.795 38.566 123.868 38.566C122.941 38.566 121.551 38.9522 120.971 39.1453M119.04 38.8657C118.566 38.8012 118.21 38.7591 118.075 38.7591C117.495 38.7591 112.088 38.1797 111.702 37.9866C111.393 37.8321 116.465 38.5083 119.04 38.8657ZM119.04 38.8657C120.006 38.1999 121.937 37.9866 124.254 37.9866C125.49 37.9866 127.73 38.5959 128.696 38.9006M119.04 38.8657C119.582 38.9394 120.277 39.0423 120.971 39.1453" stroke="url(#paint2_linear_367_1394)" stroke-opacity="0.26" stroke-width="0.386228"/>
<path d="M82.1555 121.991L78.4863 126.626L131.4 125.854L131.4 124.888M82.1555 121.991L89.6869 122.184M82.1555 121.991L83.9579 119.288M132.945 119.674L135.841 111.563L131.593 111.563M132.945 119.674L132.751 120.639M132.945 119.674C131.405 119.674 129.663 119.688 127.73 119.704M89.6869 122.184L91.425 123.729M89.6869 122.184C89.9444 121.798 90.6525 121.026 91.425 121.026L93.9355 121.026L94.1679 121.629M132.068 122.764L132.365 121.991L132.751 120.639M132.068 122.764L131.4 124.502L131.4 124.888M132.068 122.764L96.8322 122.571L96.6883 122.571M83.9579 119.288L84.0866 119.095L85.8247 119.095C86.048 118.998 86.3066 118.89 86.5971 118.772M83.9579 119.288C97.0253 120.446 123.385 120.639 132.751 120.639M86.5971 118.772C89.4049 117.63 95.2005 115.58 101.081 114.46C107.569 113.224 123.997 112.014 131.4 111.563L131.593 111.563M86.5971 118.772C103.812 119.909 117.772 119.789 127.273 119.708L127.73 119.704M127.73 119.704L131.593 111.563M131.4 124.888C130.694 124.859 129.651 124.808 128.696 124.746M126.379 124.502C125.992 124.309 124.447 124.116 123.868 124.116C123.578 124.116 122.275 124.309 120.971 124.502M126.379 124.502C126.547 124.586 127.559 124.674 128.696 124.746M126.379 124.502C125.928 124.695 124.795 125.081 123.868 125.081C122.941 125.081 121.551 124.695 120.971 124.502M119.04 124.781C118.566 124.846 118.21 124.888 118.075 124.888C117.495 124.888 112.088 125.467 111.702 125.66C111.393 125.815 116.465 125.139 119.04 124.781ZM119.04 124.781C120.006 125.447 121.937 125.66 124.254 125.66C125.49 125.66 127.73 125.051 128.696 124.746M119.04 124.781C119.582 124.708 120.277 124.605 120.971 124.502M91.425 123.729C91.6825 124.888 92.545 127.553 93.9355 128.943C95.0922 130.1 97.3095 130.981 98.7633 131.429M91.425 123.729C91.6181 123.214 92.1974 122.107 92.9699 121.798C93.2555 121.684 93.6906 121.637 94.1679 121.629M94.1679 121.629C94.6643 121.621 95.2064 121.655 95.6735 121.702M98.7633 131.429C99.0569 131.52 99.3194 131.593 99.5358 131.647L96.6883 122.571M98.7633 131.429L95.6735 121.702M95.6735 121.702C95.9722 121.732 96.2402 121.767 96.4459 121.798L96.6883 122.571" stroke="url(#paint3_linear_367_1394)" stroke-opacity="0.26" stroke-width="0.386228"/>
<path d="M91.4255 39.9178L89.6875 41.4627C89.945 41.8489 90.6531 42.6214 91.4255 42.6214C92.198 42.6214 93.421 42.6214 93.936 42.6214L94.1685 42.0183M91.4255 39.9178C91.683 38.7591 92.5456 36.0941 93.936 34.7037C95.0928 33.5469 97.31 32.6663 98.7639 32.2177M91.4255 39.9178C91.6186 40.4327 92.198 41.5399 92.9704 41.8489C93.256 41.9631 93.6911 42.0105 94.1685 42.0183M94.1685 42.0183C94.6649 42.0264 95.207 41.9918 95.674 41.9452M98.7639 32.2177C99.0575 32.1271 99.32 32.0542 99.5363 32.0001L96.4465 41.8489C96.2407 41.8806 95.9727 41.9153 95.674 41.9452M98.7639 32.2177L95.674 41.9452" stroke="white" stroke-opacity="0.26" stroke-width="0.386228"/>
<path d="M14.759 105.19C14.1797 103.066 12.0554 92.2517 11.8623 81.8235C12.0554 71.3954 14.1797 60.581 14.759 58.4567M14.759 105.19C11.6692 104.032 10.3174 103.066 10.3174 103.066M14.759 105.19C24.9941 107.985 50.2534 114.358 69.4103 117.493M14.759 105.19C15.0506 106.259 15.44 107.622 15.9026 108.86M24.8009 117.936C22.7411 116.262 18.9689 113.069 18.0419 112.142C17.4664 111.567 16.3591 110.081 15.9026 108.86M24.8009 117.936L52.4163 117.936M24.8009 117.936C24.9238 117.986 25.0528 118.037 25.1872 118.091M52.4163 117.936C56.6004 118.129 65.1232 118.515 65.7411 118.515M52.4163 117.936L15.9026 108.86M65.7411 118.515C66.2297 118.515 68.0382 117.952 69.4103 117.493M65.7411 118.515C68.3804 119.159 74.045 120.524 75.59 120.833C77.1349 121.142 80.6109 121.734 82.1558 121.991M70.3759 117.357C67.9298 114.202 63.0375 101.907 63.0375 81.8235C63.0375 61.7397 67.9298 49.4447 70.3759 46.2905M70.3759 117.357L69.4103 117.493M70.3759 117.357C71.2127 117.678 82.5421 118.515 82.5421 118.515M22.4836 119.674C23.8354 120.833 28.8563 122.378 30.2081 122.571C30.7817 122.653 35.2291 123.729 35.4222 123.729C35.5021 123.729 35.846 123.63 36.1947 123.419M25.1872 118.091C28.3613 119.357 34.5957 121.65 36.9671 121.798C36.9671 122.184 36.9669 122.482 36.774 122.764M25.1872 118.091L25.1872 119.095M25.1872 119.867C23.1917 118.708 18.5827 115.194 16.1108 111.177C15.6473 110.559 15.1452 110.147 14.9521 110.018M25.1872 119.867L25.1872 119.095M25.1872 119.867C27.1827 121.026 31.9462 122.378 36.1947 123.419M36.774 122.764C34.3182 122.278 28.586 120.794 25.1872 119.095M36.774 122.764L36.773 122.765C36.614 122.997 36.4178 123.283 36.1947 123.419M82.5421 118.515C82.5421 118.515 83.7008 118.708 84.087 119.095M82.5421 118.515C82.1593 118.272 81.4004 117.817 80.4178 117.281M80.4178 117.281C79.5826 116.824 78.5858 116.308 77.5211 115.812C74.6244 114.46 71.1483 111.177 69.9896 109.632C68.831 108.087 64.5825 100.362 64.5825 81.8235C64.5825 63.2846 68.831 55.56 69.9896 54.0151C71.1483 52.4702 74.6244 49.1872 77.5211 47.8354C78.5858 47.3386 79.5826 46.8227 80.4178 46.3664M80.4178 117.281C90.945 114.535 96.3229 112.396 108.226 111.017M199.183 107.508C185.601 107.894 152.604 108.86 129.276 109.632C120.237 109.931 113.573 110.398 108.226 111.017M199.183 107.508L199.183 106.349M199.183 107.508C199.183 108.128 199.67 108.707 200.683 109.246M199.183 106.349C181.803 106.864 143.489 107.971 129.276 108.28C115.062 108.589 108.934 109.31 107.647 109.632M199.183 106.349L199.183 100.362M107.647 109.632C106.166 104.675 103.205 91.5565 103.205 81.8235C103.205 72.0906 106.166 58.9717 107.647 54.0151M107.647 109.632L108.226 111.017M200.683 109.246C201.877 109.882 203.803 110.461 206.521 110.984C210.186 111.689 214.16 111.982 217.541 111.563M200.683 109.246C208.839 106.349 211.452 104.611 213.86 95.5346C215.405 89.7115 215.405 83.3684 215.405 81.8235C215.405 80.2786 215.405 73.9356 213.86 68.1124C211.452 59.0361 208.839 57.298 200.682 54.4013M199.183 100.362C201.307 100.556 202.852 100.749 204.397 100.942L204.397 96.3071C202.852 95.8436 200.277 95.599 199.183 95.5346M199.183 100.362L199.183 95.5346M199.183 95.5346L199.183 68.1124M217.541 111.563C217.086 111.177 216.023 110.366 215.405 110.211C214.632 110.018 210.77 109.053 209.032 108.473C207.294 107.894 209.225 106.349 209.611 105.77C209.92 105.306 210.77 104.16 211.156 103.645C212.894 104.289 217.065 105.654 219.846 105.963C223.322 106.349 226.605 106.349 228.536 101.521C230.467 96.6933 231.047 89.355 231.047 81.8235C231.047 74.2921 230.467 66.9537 228.536 62.1259C226.605 57.298 223.322 57.298 219.846 57.6843C217.065 57.9932 212.894 59.3579 211.156 60.0016C210.77 59.4867 209.92 58.3409 209.611 57.8774C209.225 57.298 207.294 55.7531 209.032 55.1738C210.77 54.5944 214.632 53.6289 215.405 53.4358C216.023 53.2813 217.086 52.4702 217.541 52.084M217.541 111.563C218.558 111.437 219.521 111.247 220.407 110.984M217.541 111.563L219.176 113.205M220.407 110.984C220.61 110.923 220.81 110.859 221.005 110.791C225.447 109.236 232.785 103.259 233.171 92.4448C233.364 87.0376 233.364 81.8235 233.364 81.8235C233.364 81.8235 233.364 76.6094 233.171 71.2023C232.785 60.3879 225.447 54.411 221.005 52.8564C220.81 52.7881 220.61 52.7238 220.407 52.6633M220.407 110.984C227.571 105.963 229.336 104.208 231.047 97.0795C232.206 92.2517 232.206 83.7547 232.206 81.8235C232.206 79.8924 232.206 71.3954 231.047 66.5675C229.336 59.4393 227.571 57.6843 220.407 52.6633M219.176 113.205L220.812 114.846M219.176 113.205C215.988 114.331 207.178 116.7 197.445 117.163M220.812 114.846C218.907 116.067 214.535 118.281 209.432 119.481M220.812 114.846C222.745 113.665 224.499 112.424 226.206 110.791M197.445 117.163C200.035 115.927 201.099 114.846 201.307 114.46C200.975 114.354 200.586 114.236 200.149 114.11M197.445 117.163C191.574 118.399 185.343 118.837 182.961 118.901M182.575 117.936L174.658 111.563L184.12 111.563C189.895 111.563 196.609 113.093 200.149 114.11M182.575 117.936C185.408 117.872 191.806 117.55 194.741 116.777C197.677 116.005 199.569 114.677 200.149 114.11M182.575 117.936L182.961 118.901M182.961 118.901L184.12 121.219M184.12 121.219C187.918 121.09 197.29 120.717 204.397 120.253C206.112 120.141 207.809 119.862 209.432 119.481M184.12 121.219L183.348 123.536C193.583 123.15 201.887 122.764 209.032 122.377M209.032 122.377C211.658 120.678 213.345 119.738 213.86 119.481M209.032 122.377C206.405 123.768 204.848 125.145 204.397 125.66M213.86 119.481L209.432 119.481M213.86 119.481C215.405 118.708 219.46 118.708 222.357 116.777C224.543 115.319 226.18 112.871 227.266 111.177M213.86 119.481C216.944 119.481 219.907 119.255 222.743 117.936M231.819 105.19C233.042 103.452 235.527 98.47 235.682 92.4448C235.836 86.4196 235.875 81.8235 235.875 81.8235C235.875 81.8235 235.836 77.2274 235.682 71.2023C235.527 65.1771 233.042 60.1947 231.819 58.4567M231.819 105.19C231.37 105.737 230.647 106.623 229.94 107.508M231.819 105.19C231.284 106.605 230.254 109.077 229.085 111.37M222.743 117.936C223.991 117.355 225.64 116.391 226.605 115.425C227.52 114.511 228.285 112.938 229.085 111.37M222.743 117.936C225.253 115.812 226.605 114.46 227.764 112.142C227.893 111.883 228.023 111.621 228.15 111.36M229.94 107.508C229.231 108.396 228.537 109.283 228.15 109.825C227.913 110.156 227.619 110.627 227.266 111.177M229.94 107.508C229.648 108.172 228.934 109.751 228.15 111.36M229.085 111.37L228.15 111.36M229.085 111.37C229.305 111.37 229.692 111.361 230.155 111.335M228.15 111.36L227.266 111.177M227.266 111.177L226.206 110.791M226.206 110.791C227.569 109.487 228.903 107.934 230.274 105.963C233.364 101.521 234.523 97.4658 234.523 81.8235C234.523 66.1813 233.364 62.1259 230.274 57.6843C228.903 55.7127 227.569 54.1598 226.206 52.8564M233.557 110.984C233.429 110.984 232.901 111.022 231.819 111.177C231.255 111.258 230.66 111.307 230.155 111.335M230.155 111.335C231.546 109.094 234.562 103.607 235.488 99.59C236.647 94.5691 237.226 87.2307 237.226 81.8235C237.226 76.4163 236.647 69.078 235.488 64.057C234.562 60.0403 231.546 54.5533 230.155 52.3119M230.155 111.335C229.085 113.205 228.923 113.687 226.991 116.391C225.06 119.095 219.267 121.798 218.108 122.377M224.674 120.833C225.494 120.06 227.413 118.245 228.536 117.163C229.66 116.082 231.45 114.074 232.206 113.205M14.759 58.4567C11.6692 59.6154 10.3174 60.581 10.3174 60.581M14.759 58.4567C24.9941 55.662 50.2534 49.2887 69.4103 46.1538M14.759 58.4567C15.0506 57.3877 15.44 56.0251 15.9026 54.7876M24.8009 45.7112C22.7411 47.3849 18.9689 50.5777 18.0419 51.5046C17.4664 52.0802 16.3591 53.5661 15.9026 54.7876M24.8009 45.7112L52.4163 45.7112M24.8009 45.7112C24.9238 45.6615 25.0528 45.6097 25.1872 45.5561M52.4163 45.7112C56.6004 45.5181 65.1232 45.1319 65.7411 45.1319M52.4163 45.7112L15.9026 54.7876M65.7411 45.1319C66.2297 45.1319 68.0382 45.6952 69.4103 46.1538M65.7411 45.1319C68.3804 44.4881 74.045 43.1235 75.59 42.8145C77.1349 42.5055 80.6109 41.9133 82.1558 41.6558M70.3759 46.2905L69.4103 46.1538M70.3759 46.2905C71.2127 45.9687 82.5421 45.1319 82.5421 45.1319M22.4836 43.9732C23.8354 42.8145 28.8563 41.2696 30.2081 41.0765C30.7817 40.9945 35.2291 39.9178 35.4222 39.9178C35.5021 39.9178 35.846 40.0168 36.1947 40.2285M25.1872 45.5561C28.3613 44.2901 34.5957 41.9971 36.9671 41.8489C36.9671 41.4627 36.9669 41.1646 36.774 40.8833M25.1872 45.5561L25.1872 44.5525M25.1872 43.7801C23.1917 44.9387 18.5827 48.4534 16.1108 52.4702C15.6473 53.0882 15.1452 53.5001 14.9521 53.6289M25.1872 43.7801L25.1872 44.5525M25.1872 43.7801C27.1827 42.6214 31.9462 41.2696 36.1947 40.2285M36.774 40.8833C34.3182 41.3689 28.586 42.8531 25.1872 44.5525M36.774 40.8833L36.773 40.8819C36.614 40.6501 36.4178 40.364 36.1947 40.2285M82.5421 45.1319C82.5421 45.1319 83.7007 44.9387 84.087 44.5525M82.5421 45.1319C82.1593 45.3754 81.4004 45.8296 80.4178 46.3664M80.4178 46.3664C90.945 49.1124 96.3229 51.2509 108.226 52.63M199.183 56.1394C185.601 55.7531 152.604 54.7876 129.276 54.0151C120.237 53.7158 113.573 53.2495 108.226 52.63M199.183 56.1394L199.183 57.298M199.183 56.1394C199.183 55.5194 199.67 54.94 200.682 54.4013M199.183 57.298C181.803 56.7831 143.489 55.6759 129.276 55.3669C115.062 55.0579 108.934 54.337 107.647 54.0151M199.183 57.298L199.183 63.2846M107.647 54.0151L108.226 52.63M200.682 54.4013C201.877 53.7654 203.803 53.186 206.521 52.6633C210.186 51.9585 214.16 51.6653 217.541 52.084M199.183 63.2846C201.307 63.0915 202.852 62.8983 204.397 62.7052L204.397 67.34C202.852 67.8034 200.277 68.0481 199.183 68.1124M199.183 63.2846L199.183 68.1124M217.541 52.084C218.558 52.2099 219.521 52.4003 220.407 52.6633M217.541 52.084L219.176 50.4425M219.176 50.4425L220.812 48.801M219.176 50.4425C215.988 49.316 207.178 46.9471 197.445 46.4836M220.812 48.801C218.907 47.5801 214.535 45.3661 209.432 44.1663M220.812 48.801C222.745 49.9824 224.499 51.2235 226.206 52.8564M197.445 46.4836C200.035 47.7196 201.099 48.801 201.307 49.1872C200.975 49.2934 200.586 49.4112 200.149 49.5369M197.445 46.4836C191.574 45.2477 185.343 44.81 182.961 44.7456M182.575 45.7112L174.658 52.084L184.12 52.084C189.895 52.084 196.609 50.5541 200.149 49.5369M182.575 45.7112C185.408 45.7756 191.806 46.0974 194.741 46.8699C197.677 47.6423 199.569 48.9697 200.149 49.5369M182.575 45.7112L182.961 44.7456M182.961 44.7456L184.12 42.4282M184.12 42.4282C187.918 42.557 197.29 42.9303 204.397 43.3938C206.112 43.5057 207.809 43.7847 209.432 44.1663M184.12 42.4282L183.348 40.1109C193.583 40.4971 201.887 40.8833 209.032 41.2696M209.032 41.2696C211.658 42.969 213.345 43.9088 213.86 44.1663M209.032 41.2696C206.405 39.8791 204.848 38.5016 204.397 37.9866M213.86 44.1663L209.432 44.1663M213.86 44.1663C215.405 44.9387 219.46 44.9387 222.357 46.8699C224.543 48.3277 226.18 50.7761 227.266 52.4702M213.86 44.1663C216.944 44.1663 219.907 44.3923 222.743 45.7112M231.819 58.4567C231.37 57.9106 230.647 57.0245 229.94 56.1393M231.819 58.4567C231.284 57.0422 230.254 54.5698 229.085 52.2771M222.743 45.7112C223.991 46.2918 225.64 47.2561 226.605 48.2217C227.52 49.1363 228.285 50.7093 229.085 52.2771M222.743 45.7112C225.253 47.8354 226.605 49.1872 227.764 51.5046C227.893 51.7638 228.023 52.0259 228.15 52.2873M229.94 56.1393C229.231 55.251 228.537 54.3637 228.15 53.822C227.913 53.4907 227.619 53.0202 227.266 52.4702M229.94 56.1393C229.648 55.4749 228.934 53.8958 228.15 52.2873M229.085 52.2771L228.15 52.2873M229.085 52.2771C229.305 52.2771 229.692 52.2859 230.155 52.3119M228.15 52.2873L227.266 52.4702M227.266 52.4702L226.206 52.8564M233.557 52.6633C233.429 52.6633 232.901 52.6247 231.819 52.4702C231.255 52.3895 230.66 52.3404 230.155 52.3119M230.155 52.3119C229.085 50.4425 228.923 49.9597 226.991 47.2561C225.06 44.5525 219.267 41.8489 218.108 41.2696M224.674 42.8145C225.494 43.5869 227.413 45.4022 228.536 46.4836C229.66 47.5651 231.45 49.5735 232.206 50.4425" stroke="url(#paint4_linear_367_1394)" stroke-opacity="0.26" stroke-width="0.386228"/>
<path d="M70.9558 109.439C74.4318 113.687 78.4872 115.039 81.9633 115.425C85.0531 114.846 100.309 111.756 102.626 110.791C104.944 109.825 105.716 109.632 104.751 105.19C103.785 100.749 103.013 95.7277 102.82 93.9897C102.626 92.2517 101.275 91.093 98.9573 90.5137C96.64 89.9343 93.1639 88.7756 91.8121 87.8101C90.4603 86.8445 90.4603 83.5616 90.4603 81.8235C90.4603 80.0855 90.4603 76.8026 91.8121 75.837C93.1639 74.8714 96.64 73.7127 98.9573 73.1334C101.275 72.5541 102.626 71.3954 102.82 69.6573C103.013 67.9193 103.785 62.8984 104.751 58.4567C105.716 54.0151 104.944 53.822 102.626 52.8564C100.309 51.8908 85.0531 48.801 81.9633 48.2217C78.4872 48.6079 74.4318 49.9597 70.9558 54.2082C67.4797 58.4567 65.3555 72.9403 65.3555 81.8235C65.3555 90.7068 67.4797 105.19 70.9558 109.439Z" fill="#111111" stroke="white" stroke-opacity="0.26" stroke-width="0.386228"/>
<path d="M182.575 117.936L174.658 111.563L170.023 111.563M182.575 117.936L183.155 119.095M182.575 117.936C181.341 118.068 179.766 118.194 177.941 118.313M183.155 119.095L184.12 121.219M183.155 119.095C169.067 119.674 139.246 120.794 132.669 120.639M184.12 121.219C172.842 121.991 150.712 121.927 141.056 121.798M184.12 121.219C184.005 121.506 183.695 122.297 183.3 123.343M132.945 119.674L135.842 111.563L138.738 111.563M132.945 119.674L137 119.674M132.945 119.674L132.669 120.639M138.738 111.563L137 119.674M138.738 111.563L170.023 111.563M137 119.674C145.463 119.533 161.259 119.165 172.533 118.616M170.023 111.563L173.421 114.46M177.941 118.313C176.316 118.42 174.493 118.521 172.533 118.616M177.941 118.313L173.421 114.46M172.533 118.616L173.421 114.46M132.669 120.639L132.448 121.412M132.044 122.764L131.593 124.116L131.465 124.695M132.044 122.764L132.173 122.377L132.448 121.412M132.044 122.764L146.463 122.764L141.056 121.798M141.056 121.798L132.448 121.412M183.3 123.343C183.253 123.468 183.204 123.597 183.155 123.729C182.691 124.965 181.803 125.918 181.417 126.24L162.492 125.854L145.497 125.854L131.207 125.854L131.465 124.695M183.3 123.343L180.258 123.343C180.194 123.329 180.123 123.315 180.047 123.299M131.465 124.695C142.536 124.695 168.864 123.729 170.023 123.729C170.19 123.729 170.385 123.709 170.602 123.675M170.602 123.675C171.246 124.079 173.074 124.888 175.237 124.888C177.941 124.888 179.449 123.834 180.047 123.299M170.602 123.675C171.24 123.574 172.07 123.35 172.946 123.15M180.047 123.299C179.587 123.206 178.917 123.085 178.188 122.982M178.188 122.982C177.333 122.861 176.398 122.764 175.623 122.764C174.787 122.764 173.843 122.945 172.946 123.15M178.188 122.982C178.105 123.167 177.477 123.575 175.623 123.729C173.769 123.884 173.066 123.407 172.946 123.15" stroke="url(#paint5_linear_367_1394)" stroke-opacity="0.26" stroke-width="0.386228"/>
<path d="M182.575 45.7112L174.658 52.084L170.023 52.084M182.575 45.7112L183.155 44.5525M182.575 45.7112C181.341 45.5789 179.766 45.4529 177.941 45.3336M183.155 44.5525L184.12 42.4283M183.155 44.5525C169.067 43.9732 139.246 42.8531 132.669 43.0076M184.12 42.4283C172.842 41.6558 150.712 41.7202 141.056 41.8489M184.12 42.4283C184.005 42.1408 183.695 41.3502 183.3 40.304M132.945 43.9732L135.842 52.084L138.738 52.084M132.945 43.9732L137 43.9732M132.945 43.9732L132.669 43.0076M138.738 52.084L137 43.9732M138.738 52.084L170.023 52.084M137 43.9732C145.463 44.1142 161.259 44.4819 172.533 45.031M170.023 52.084L173.421 49.1873M177.941 45.3336C176.316 45.2274 174.493 45.1265 172.533 45.031M177.941 45.3336L173.421 49.1873M172.533 45.031L173.421 49.1873M132.669 43.0076L132.448 42.2352M132.044 40.8834L131.593 39.5316L131.465 38.9522M132.044 40.8834L132.173 41.2696L132.448 42.2352M132.044 40.8834L146.463 40.8834L141.056 41.8489M141.056 41.8489L132.448 42.2352M183.3 40.304C183.253 40.1788 183.204 40.0499 183.155 39.9178C182.691 38.6819 181.803 37.7292 181.417 37.4073L162.492 37.7935L145.497 37.7935L131.207 37.7935L131.465 38.9522M183.3 40.304L180.258 40.304C180.194 40.3178 180.123 40.3325 180.047 40.348M131.465 38.9522C142.536 38.9522 168.864 39.9178 170.023 39.9178C170.19 39.9178 170.385 39.9378 170.602 39.9722M170.602 39.9722C171.246 39.5678 173.074 38.7591 175.237 38.7591C177.941 38.7591 179.449 39.8126 180.047 40.348M170.602 39.9722C171.24 40.0729 172.07 40.2966 172.946 40.4971M180.047 40.348C179.587 40.4411 178.917 40.5619 178.188 40.6653M178.188 40.6653C177.333 40.7864 176.398 40.8834 175.623 40.8834C174.787 40.8834 173.843 40.7024 172.946 40.4971M178.188 40.6653C178.105 40.4805 177.477 40.0723 175.623 39.9178C173.769 39.7633 173.066 40.2396 172.946 40.4971" stroke="url(#paint6_linear_367_1394)" stroke-opacity="0.26" stroke-width="0.386228"/>
<path d="M185.472 81.8236C185.729 82.2098 186.785 83.0209 188.948 83.1754C189.711 83.2299 190.544 83.1417 191.352 82.9822M194.707 81.9266C194.789 81.8906 194.865 81.8561 194.934 81.8236L194.707 81.9266ZM194.707 81.9266C193.953 82.2587 192.688 82.7183 191.352 82.9822M194.707 81.9266L194.707 83.0719C193.682 83.042 191.576 82.9822 191.352 82.9822" stroke="white" stroke-opacity="0.26" stroke-width="0.386228"/>
<path d="M185.472 81.8234C185.729 81.4372 186.785 80.6261 188.948 80.4716C189.711 80.4171 190.544 80.5053 191.352 80.6648M194.707 81.7204C194.789 81.7564 194.865 81.7909 194.934 81.8234L194.707 81.7204ZM194.707 81.7204C193.953 81.3883 192.688 80.9287 191.352 80.6648M194.707 81.7204L194.707 80.5751C193.682 80.605 191.576 80.6648 191.352 80.6648" stroke="white" stroke-opacity="0.26" stroke-width="0.386228"/>
<g filter="url(#filter1_d_367_1394)">
<path d="M186.224 127.093L200.158 115.652L201.166 113.587L202.841 109.802C202.633 109.294 202.069 107.897 201.35 106.048C201.264 105.827 201.175 105.599 201.085 105.366C200.242 103.181 198.649 101.507 197.959 100.943L164.397 101.956L134.253 102.251L108.905 102.498L109.382 104.549L109.62 105.575L110.443 107.965L110.678 108.647L111.184 110.355L111.589 111.722L112.095 113.43L117.374 127.766L122.512 127.716L178.003 127.173L186.224 127.093Z" fill="#CAC1E9" fill-opacity="0.4" shape-rendering="crispEdges"/>
<path d="M200.158 115.652L186.224 127.093L178.003 127.173M200.158 115.652L201.166 113.587M200.158 115.652C197.966 115.439 195.171 115.242 191.931 115.062M201.166 113.587L202.841 109.802M201.166 113.587C176.166 112.803 123.252 111.334 111.589 111.722M202.841 109.802C182.824 108.627 143.57 109.125 126.445 109.521M202.841 109.802C202.633 109.294 202.069 107.897 201.35 106.048M112.095 113.43L117.374 127.766L122.512 127.716M112.095 113.43L119.288 113.359M112.095 113.43L111.589 111.722M122.512 127.716L119.288 113.359M122.512 127.716L178.003 127.173M119.288 113.359C134.301 113.463 162.327 113.841 182.334 114.619M178.003 127.173L183.98 121.976M191.931 115.062C189.048 114.902 185.812 114.755 182.334 114.619M191.931 115.062L183.98 121.976M182.334 114.619L183.98 121.976M111.589 111.722L111.184 110.355M110.443 107.965L109.62 105.575L109.382 104.549M110.443 107.965L110.678 108.647L111.184 110.355M110.443 107.965L136.019 107.715L126.445 109.521M126.445 109.521L111.184 110.355M201.35 106.048C201.264 105.827 201.175 105.599 201.085 105.366C200.242 103.181 198.649 101.507 197.959 100.943L164.397 101.956L134.253 102.251L108.905 102.498L109.382 104.549M201.35 106.048L195.954 106.101C195.84 106.126 195.715 106.154 195.58 106.183M109.382 104.549C129.021 104.357 175.737 105.613 177.793 105.593C178.089 105.59 178.435 105.623 178.821 105.68M178.821 105.68C179.956 104.951 183.185 103.485 187.021 103.448C191.817 103.401 194.51 105.243 195.58 106.183M178.821 105.68C179.954 105.847 181.43 106.23 182.987 106.57M195.58 106.183C194.766 106.356 193.58 106.582 192.288 106.778M192.288 106.778C190.775 107.007 189.116 107.195 187.743 107.209C186.26 107.223 184.581 106.919 182.987 106.57M192.288 106.778C192.139 106.451 191.017 105.738 187.726 105.496C184.435 105.254 183.196 106.111 182.987 106.57" stroke="#CAC1E9" stroke-width="1.37023" shape-rendering="crispEdges"/>
</g>
<g filter="url(#filter2_d_367_1394)">
<path d="M180.134 37.5638L192.57 47.3878L193.49 49.1863L195.026 52.4849C194.851 52.9347 194.379 54.172 193.778 55.8089C193.706 56.0048 193.632 56.2065 193.556 56.4132C192.851 58.347 191.48 59.8452 190.882 60.3526L161.367 60.0203L134.868 60.2627L112.585 60.4666L112.97 58.6562L114.458 53.5231L114.791 52.3155L115.207 50.806L119.608 38.1176L124.125 38.0762L172.907 37.6299L180.134 37.5638Z" fill="#CAC1E9" fill-opacity="0.4" shape-rendering="crispEdges"/>
<path d="M192.57 47.3878L180.134 37.5638L172.907 37.6299M192.57 47.3878L193.49 49.1863M192.57 47.3878C190.647 47.6117 188.194 47.8306 185.349 48.0428M193.49 49.1863L195.026 52.4849M193.49 49.1863C171.531 50.2906 125.048 52.4626 114.791 52.3155M195.026 52.4849C194.851 52.9347 194.379 54.172 193.778 55.8089M195.026 52.4849C168.236 53.8269 141.228 55.6716 114.458 53.5231M115.207 50.806L119.608 38.1176L124.125 38.0762M115.207 50.806L121.531 50.7481M115.207 50.806L114.791 52.3155M124.125 38.0762L121.531 50.7481M124.125 38.0762L172.907 37.6299M121.531 50.7481C134.724 50.4075 159.35 49.6088 176.922 48.5917M172.907 37.6299L178.246 42.0983M185.349 48.0428C182.818 48.2315 179.976 48.4149 176.922 48.5917M185.349 48.0428L178.246 42.0983M176.922 48.5917L178.246 42.0983M114.791 52.3155L114.458 53.5231M114.458 53.5231L112.97 58.6562M193.778 55.8089C193.706 56.0048 193.632 56.2065 193.556 56.4132C192.851 58.347 191.48 59.8452 190.882 60.3526L161.367 60.0203L134.868 60.2627L112.585 60.4666L112.97 58.6562M193.778 55.8089L189.034 55.8523C188.934 55.8318 188.823 55.8098 188.704 55.7867M112.97 58.6562C130.235 58.4983 171.274 56.6171 173.08 56.6005C173.341 56.5982 173.644 56.5641 173.983 56.5075M173.983 56.5075C174.992 57.1288 177.854 58.3637 181.227 58.3329C185.443 58.2943 187.78 56.63 188.704 55.7867M173.983 56.5075C174.976 56.3413 176.267 55.9806 177.63 55.6555M188.704 55.7867C187.986 55.6481 186.94 55.4692 185.801 55.3185M185.801 55.3185C184.467 55.1419 183.006 55.004 181.799 55.015C180.495 55.027 179.025 55.3226 177.63 55.6555M185.801 55.3185C185.675 55.6078 184.701 56.2533 181.813 56.5206C178.924 56.788 177.821 56.0553 177.63 55.6555" stroke="#CAC1E9" stroke-width="1.20453" shape-rendering="crispEdges"/>
</g>
<defs>
<filter id="filter0_d_367_1394" x="0.662149" y="29.8758" width="245.255" height="103.895" filterUnits="userSpaceOnUse" color-interpolation-filters="sRGB">
<feFlood flood-opacity="0" result="BackgroundImageFix"/>
<feColorMatrix in="SourceAlpha" type="matrix" values="0 0 0 0 0 0 0 0 0 0 0 0 0 0 0 0 0 0 127 0" result="hardAlpha"/>
<feOffset/>
<feGaussianBlur stdDeviation="3.47605"/>
<feComposite in2="hardAlpha" operator="out"/>
<feColorMatrix type="matrix" values="0 0 0 0 0 0 0 0 0 0 0 0 0 0 0 0 0 0 1 0"/>
<feBlend mode="normal" in2="BackgroundImageFix" result="effect1_dropShadow_367_1394"/>
<feBlend mode="normal" in="SourceGraphic" in2="effect1_dropShadow_367_1394" result="shape"/>
</filter>
<filter id="filter1_d_367_1394" x="87.4906" y="79.6968" width="136.649" height="69.3124" filterUnits="userSpaceOnUse" color-interpolation-filters="sRGB">
<feFlood flood-opacity="0" result="BackgroundImageFix"/>
<feColorMatrix in="SourceAlpha" type="matrix" values="0 0 0 0 0 0 0 0 0 0 0 0 0 0 0 0 0 0 127 0" result="hardAlpha"/>
<feOffset/>
<feGaussianBlur stdDeviation="10.2767"/>
<feComposite in2="hardAlpha" operator="out"/>
<feColorMatrix type="matrix" values="0 0 0 0 0.792157 0 0 0 0 0.756863 0 0 0 0 0.913725 0 0 0 1 0"/>
<feBlend mode="normal" in2="BackgroundImageFix" result="effect1_dropShadow_367_1394"/>
<feBlend mode="normal" in="SourceGraphic" in2="effect1_dropShadow_367_1394" result="shape"/>
</filter>
<filter id="filter2_d_367_1394" x="93.7719" y="18.8916" width="119.977" height="60.2521" filterUnits="userSpaceOnUse" color-interpolation-filters="sRGB">
<feFlood flood-opacity="0" result="BackgroundImageFix"/>
<feColorMatrix in="SourceAlpha" type="matrix" values="0 0 0 0 0 0 0 0 0 0 0 0 0 0 0 0 0 0 127 0" result="hardAlpha"/>
<feOffset/>
<feGaussianBlur stdDeviation="9.034"/>
<feComposite in2="hardAlpha" operator="out"/>
<feColorMatrix type="matrix" values="0 0 0 0 0.792157 0 0 0 0 0.756863 0 0 0 0 0.913725 0 0 0 1 0"/>
<feBlend mode="normal" in2="BackgroundImageFix" result="effect1_dropShadow_367_1394"/>
<feBlend mode="normal" in="SourceGraphic" in2="effect1_dropShadow_367_1394" result="shape"/>
</filter>
<radialGradient id="paint0_radial_367_1394" cx="0" cy="0" r="1" gradientUnits="userSpaceOnUse" gradientTransform="translate(123.289 81.8235) rotate(-44.8305) scale(276.929 107.154)">
<stop stop-color="#1D1D1D"/>
<stop offset="1"/>
</radialGradient>
<linearGradient id="paint1_linear_367_1394" x1="10.7036" y1="119.481" x2="210.77" y2="31.4207" gradientUnits="userSpaceOnUse">
<stop stop-color="#CECECE" stop-opacity="0.76"/>
<stop offset="0.25" stop-color="#838383" stop-opacity="0.53"/>
<stop offset="0.484375" stop-color="#C4C4C4" stop-opacity="0.515625"/>
<stop offset="0.677083" stop-color="#E1E1E1" stop-opacity="0.6"/>
<stop offset="0.854167" stop-color="#CFCFCF" stop-opacity="0.23"/>
<stop offset="1" stop-color="#CFCFCF" stop-opacity="0.63"/>
</linearGradient>
<linearGradient id="paint2_linear_367_1394" x1="81.383" y1="67.34" x2="135.841" y2="32.0001" gradientUnits="userSpaceOnUse">
<stop stop-color="white"/>
<stop offset="0.182292" stop-color="white" stop-opacity="0.51"/>
<stop offset="0.546875" stop-color="white"/>
<stop offset="0.786458" stop-color="white" stop-opacity="0.44"/>
<stop offset="0.994792" stop-color="white"/>
</linearGradient>
<linearGradient id="paint3_linear_367_1394" x1="78.2932" y1="144.586" x2="138.352" y2="108.666" gradientUnits="userSpaceOnUse">
<stop stop-color="white"/>
<stop offset="0.182292" stop-color="white" stop-opacity="0.51"/>
<stop offset="0.546875" stop-color="white"/>
<stop offset="0.786458" stop-color="white" stop-opacity="0.44"/>
<stop offset="0.994792" stop-color="white"/>
</linearGradient>
<linearGradient id="paint4_linear_367_1394" x1="35.036" y1="142.848" x2="230.467" y2="27.1722" gradientUnits="userSpaceOnUse">
<stop stop-color="white" stop-opacity="0.31"/>
<stop offset="0.291667" stop-color="white"/>
<stop offset="0.536458" stop-color="white" stop-opacity="0.26"/>
<stop offset="0.770833" stop-color="white"/>
<stop offset="1" stop-color="white" stop-opacity="0.25"/>
</linearGradient>
<linearGradient id="paint5_linear_367_1394" x1="131.207" y1="141.496" x2="191.266" y2="113.301" gradientUnits="userSpaceOnUse">
<stop stop-color="white"/>
<stop offset="0.182292" stop-color="white" stop-opacity="0.51"/>
<stop offset="0.546875" stop-color="white"/>
<stop offset="0.786458" stop-color="white" stop-opacity="0.44"/>
<stop offset="0.994792" stop-color="white"/>
</linearGradient>
<linearGradient id="paint6_linear_367_1394" x1="127.345" y1="57.8774" x2="189.141" y2="34.1244" gradientUnits="userSpaceOnUse">
<stop stop-color="white"/>
<stop offset="0.182292" stop-color="white" stop-opacity="0.51"/>
<stop offset="0.546875" stop-color="white"/>
<stop offset="0.786458" stop-color="white" stop-opacity="0.44"/>
<stop offset="0.994792" stop-color="white"/>
</linearGradient>
</defs>
</svg>
