<svg width="246" height="212" viewBox="0 0 246 212" fill="none" xmlns="http://www.w3.org/2000/svg">
<g filter="url(#filter0_d_367_1391)">
<path d="M11.4761 165.963C10.3174 164.289 8 156.655 8 141.823C8 126.992 10.3174 119.358 11.4761 117.684L14.9521 113.629C15.0165 112.856 15.7246 110.693 18.0419 108.222C20.9386 105.132 27.8907 98.3727 34.0704 97.9865C40.25 97.6003 64.7755 97.2141 78.8729 97.2141C88.9148 97.2141 104.557 97.9865 131.014 97.9865C157.47 97.9865 170.988 97.4071 181.416 97.4071C191.845 97.4071 200.149 97.6002 204.976 98.1796C209.804 98.7589 217.722 100.69 218.108 101.076C223.515 102.042 228.536 103.007 231.819 109.187C235.102 115.367 238.578 128.885 238.578 141.823C238.578 154.762 235.102 168.28 231.819 174.46C228.536 180.639 223.515 181.605 218.108 182.571C217.722 182.957 209.804 184.888 204.976 185.467C200.149 186.047 191.845 186.24 181.416 186.24C170.988 186.24 157.47 185.66 131.014 185.66C104.557 185.66 88.9148 186.433 78.8729 186.433C64.7755 186.433 40.2501 186.047 34.0704 185.66C27.8908 185.274 20.9386 178.515 18.0419 175.425C15.7246 172.953 15.0165 170.791 14.9521 170.018L11.4761 165.963Z" fill="url(#paint0_radial_367_1391)" fill-opacity="0.97" shape-rendering="crispEdges"/>
<path d="M11.4761 165.963C10.3174 164.289 8 156.655 8 141.823C8 126.992 10.3174 119.358 11.4761 117.684L14.9521 113.629C15.0165 112.856 15.7246 110.693 18.0419 108.222C20.9386 105.132 27.8907 98.3727 34.0704 97.9865C40.25 97.6003 64.7755 97.2141 78.8729 97.2141C88.9148 97.2141 104.557 97.9865 131.014 97.9865C157.47 97.9865 170.988 97.4071 181.416 97.4071C191.845 97.4071 200.149 97.6002 204.976 98.1796C209.804 98.7589 217.722 100.69 218.108 101.076C223.515 102.042 228.536 103.007 231.819 109.187C235.102 115.367 238.578 128.885 238.578 141.823C238.578 154.762 235.102 168.28 231.819 174.46C228.536 180.639 223.515 181.605 218.108 182.571C217.722 182.957 209.804 184.888 204.976 185.467C200.149 186.047 191.845 186.24 181.416 186.24C170.988 186.24 157.47 185.66 131.014 185.66C104.557 185.66 88.9148 186.433 78.8729 186.433C64.7755 186.433 40.2501 186.047 34.0704 185.66C27.8908 185.274 20.9386 178.515 18.0419 175.425C15.7246 172.953 15.0165 170.791 14.9521 170.018L11.4761 165.963Z" stroke="url(#paint1_linear_367_1391)" stroke-width="0.772457" shape-rendering="crispEdges"/>
</g>
<path d="M82.1555 101.656L78.4863 97.0209L131.4 97.7934L131.4 98.759M82.1555 101.656L89.6869 101.656M82.1555 101.656L83.9579 104.359M132.945 103.973L135.841 112.084L131.593 112.084M132.945 103.973L132.751 103.007M132.945 103.973C131.405 103.973 129.663 103.959 127.73 103.943M132.068 100.883L132.365 101.656L132.751 103.007M132.068 100.883L131.4 99.1452L131.4 98.759M132.068 100.883L96.8322 101.076M83.9579 104.359L84.0866 104.552L85.8247 104.552C86.048 104.649 86.3066 104.757 86.5971 104.875M83.9579 104.359C97.0253 103.201 123.385 103.007 132.751 103.007M86.5971 104.875C89.4049 106.017 95.2005 108.067 101.081 109.187C107.569 110.423 123.997 111.633 131.4 112.084L131.593 112.084M86.5971 104.875C104.091 103.72 118.223 103.862 127.73 103.943M127.73 103.943L131.593 112.084M131.4 98.759C130.694 98.7883 129.651 98.8392 128.696 98.9005M126.379 99.1452C125.992 99.3383 124.447 99.5314 123.868 99.5314C123.578 99.5314 122.275 99.3383 120.971 99.1452M126.379 99.1452C126.547 99.0612 127.559 98.9734 128.696 98.9005M126.379 99.1452C125.928 98.9521 124.795 98.5658 123.868 98.5658C122.941 98.5658 121.551 98.9521 120.971 99.1452M119.04 98.8656C118.566 98.8011 118.21 98.759 118.075 98.759C117.495 98.759 112.088 98.1796 111.702 97.9865C111.393 97.832 116.465 98.5082 119.04 98.8656ZM119.04 98.8656C120.006 98.1998 121.937 97.9865 124.254 97.9865C125.49 97.9865 127.73 98.5958 128.696 98.9005M119.04 98.8656C119.582 98.9393 120.277 99.0422 120.971 99.1452" stroke="url(#paint2_linear_367_1391)" stroke-opacity="0.26" stroke-width="0.386228"/>
<path d="M82.1555 181.991L78.4863 186.626L131.4 185.853L131.4 184.888M82.1555 181.991L89.6869 182.184M82.1555 181.991L83.9579 179.288M132.945 179.674L135.841 171.563L131.593 171.563M132.945 179.674L132.751 180.639M132.945 179.674C131.405 179.674 129.663 179.688 127.73 179.704M89.6869 182.184L91.425 183.729M89.6869 182.184C89.9444 181.798 90.6525 181.026 91.425 181.026L93.9355 181.026L94.1679 181.629M132.068 182.764L132.365 181.991L132.751 180.639M132.068 182.764L131.4 184.502L131.4 184.888M132.068 182.764L96.8322 182.571L96.6883 182.571M83.9579 179.288L84.0866 179.094L85.8247 179.094C86.048 178.998 86.3066 178.89 86.5971 178.771M83.9579 179.288C97.0253 180.446 123.385 180.639 132.751 180.639M86.5971 178.771C89.4049 177.63 95.2005 175.58 101.081 174.46C107.569 173.224 123.997 172.014 131.4 171.563L131.593 171.563M86.5971 178.771C103.812 179.909 117.772 179.789 127.273 179.708L127.73 179.704M127.73 179.704L131.593 171.563M131.4 184.888C130.694 184.859 129.651 184.808 128.696 184.746M126.379 184.502C125.992 184.309 124.447 184.115 123.868 184.115C123.578 184.115 122.275 184.309 120.971 184.502M126.379 184.502C126.547 184.586 127.559 184.673 128.696 184.746M126.379 184.502C125.928 184.695 124.795 185.081 123.868 185.081C122.941 185.081 121.551 184.695 120.971 184.502M119.04 184.781C118.566 184.846 118.21 184.888 118.075 184.888C117.495 184.888 112.088 185.467 111.702 185.66C111.393 185.815 116.465 185.139 119.04 184.781ZM119.04 184.781C120.006 185.447 121.937 185.66 124.254 185.66C125.49 185.66 127.73 185.051 128.696 184.746M119.04 184.781C119.582 184.708 120.277 184.605 120.971 184.502M91.425 183.729C91.6825 184.888 92.545 187.553 93.9355 188.943C95.0922 190.1 97.3095 190.981 98.7633 191.429M91.425 183.729C91.6181 183.214 92.1974 182.107 92.9699 181.798C93.2555 181.684 93.6906 181.636 94.1679 181.629M94.1679 181.629C94.6643 181.621 95.2064 181.655 95.6735 181.702M98.7633 191.429C99.0569 191.52 99.3194 191.593 99.5358 191.647L96.6883 182.571M98.7633 191.429L95.6735 181.702M95.6735 181.702C95.9722 181.732 96.2402 181.766 96.4459 181.798L96.6883 182.571" stroke="url(#paint3_linear_367_1391)" stroke-opacity="0.26" stroke-width="0.386228"/>
<path d="M91.4255 99.9176L89.6875 101.463C89.945 101.849 90.6531 102.621 91.4255 102.621C92.198 102.621 93.421 102.621 93.936 102.621L94.1685 102.018M91.4255 99.9176C91.683 98.759 92.5456 96.094 93.936 94.7036C95.0928 93.5468 97.31 92.6662 98.7639 92.2176M91.4255 99.9176C91.6186 100.433 92.198 101.54 92.9704 101.849C93.256 101.963 93.6911 102.01 94.1685 102.018M94.1685 102.018C94.6649 102.026 95.207 101.992 95.674 101.945M98.7639 92.2176C99.0575 92.127 99.32 92.0541 99.5363 92L96.4465 101.849C96.2407 101.88 95.9727 101.915 95.674 101.945M98.7639 92.2176L95.674 101.945" stroke="white" stroke-opacity="0.26" stroke-width="0.386228"/>
<path d="M14.759 165.19C14.1797 163.066 12.0554 152.252 11.8623 141.823C12.0554 131.395 14.1797 120.581 14.759 118.457M14.759 165.19C11.6692 164.032 10.3174 163.066 10.3174 163.066M14.759 165.19C24.9941 167.985 50.2534 174.358 69.4103 177.493M14.759 165.19C15.0506 166.259 15.44 167.622 15.9026 168.859M24.8009 177.936C22.7411 176.262 18.9689 173.069 18.0419 172.142C17.4664 171.567 16.3591 170.081 15.9026 168.859M24.8009 177.936L52.4163 177.936M24.8009 177.936C24.9238 177.985 25.0528 178.037 25.1872 178.091M52.4163 177.936C56.6004 178.129 65.1232 178.515 65.7411 178.515M52.4163 177.936L15.9026 168.859M65.7411 178.515C66.2297 178.515 68.0382 177.952 69.4103 177.493M65.7411 178.515C68.3804 179.159 74.045 180.524 75.59 180.832C77.1349 181.141 80.6109 181.734 82.1558 181.991M70.3759 177.356C67.9298 174.202 63.0375 161.907 63.0375 141.823C63.0375 121.74 67.9298 109.445 70.3759 106.29M70.3759 177.356L69.4103 177.493M70.3759 177.356C71.2127 177.678 82.5421 178.515 82.5421 178.515M22.4836 179.674C23.8354 180.832 28.8563 182.377 30.2081 182.571C30.7817 182.652 35.2291 183.729 35.4222 183.729C35.5021 183.729 35.846 183.63 36.1947 183.418M25.1872 178.091C28.3613 179.357 34.5957 181.65 36.9671 181.798C36.9671 182.184 36.9669 182.482 36.774 182.764M25.1872 178.091L25.1872 179.094M25.1872 179.867C23.1917 178.708 18.5827 175.194 16.1108 171.177C15.6473 170.559 15.1452 170.147 14.9521 170.018M25.1872 179.867L25.1872 179.094M25.1872 179.867C27.1827 181.026 31.9462 182.377 36.1947 183.418M36.774 182.764C34.3182 182.278 28.586 180.794 25.1872 179.094M36.774 182.764L36.773 182.765C36.614 182.997 36.4178 183.283 36.1947 183.418M82.5421 178.515C82.5421 178.515 83.7008 178.708 84.087 179.094M82.5421 178.515C82.1593 178.272 81.4004 177.817 80.4178 177.281M80.4178 177.281C79.5826 176.824 78.5858 176.308 77.5211 175.812C74.6244 174.46 71.1483 171.177 69.9896 169.632C68.831 168.087 64.5825 160.362 64.5825 141.823C64.5825 123.284 68.831 115.56 69.9896 114.015C71.1483 112.47 74.6244 109.187 77.5211 107.835C78.5858 107.338 79.5826 106.823 80.4178 106.366M80.4178 177.281C90.945 174.535 96.3229 172.396 108.226 171.017M199.183 167.508C185.601 167.894 152.604 168.859 129.276 169.632C120.237 169.931 113.573 170.397 108.226 171.017M199.183 167.508L199.183 166.349M199.183 167.508C199.183 168.128 199.67 168.707 200.683 169.246M199.183 166.349C181.803 166.864 143.489 167.971 129.276 168.28C115.062 168.589 108.934 169.31 107.647 169.632M199.183 166.349L199.183 160.362M107.647 169.632C106.166 164.675 103.205 151.556 103.205 141.823C103.205 132.09 106.166 118.972 107.647 114.015M107.647 169.632L108.226 171.017M200.683 169.246C201.877 169.882 203.803 170.461 206.521 170.984C210.186 171.688 214.16 171.982 217.541 171.563M200.683 169.246C208.839 166.349 211.452 164.611 213.86 155.535C215.405 149.711 215.405 143.368 215.405 141.823C215.405 140.279 215.405 133.935 213.86 128.112C211.452 119.036 208.839 117.298 200.682 114.401M199.183 160.362C201.307 160.555 202.852 160.749 204.397 160.942L204.397 156.307C202.852 155.844 200.277 155.599 199.183 155.535M199.183 160.362L199.183 155.535M199.183 155.535L199.183 128.112M217.541 171.563C217.086 171.177 216.023 170.366 215.405 170.211C214.632 170.018 210.77 169.053 209.032 168.473C207.294 167.894 209.225 166.349 209.611 165.77C209.92 165.306 210.77 164.16 211.156 163.645C212.894 164.289 217.065 165.654 219.846 165.963C223.322 166.349 226.605 166.349 228.536 161.521C230.467 156.693 231.047 149.355 231.047 141.823C231.047 134.292 230.467 126.954 228.536 122.126C226.605 117.298 223.322 117.298 219.846 117.684C217.065 117.993 212.894 119.358 211.156 120.002C210.77 119.487 209.92 118.341 209.611 117.877C209.225 117.298 207.294 115.753 209.032 115.174C210.77 114.594 214.632 113.629 215.405 113.436C216.023 113.281 217.086 112.47 217.541 112.084M217.541 171.563C218.558 171.437 219.521 171.247 220.407 170.984M217.541 171.563L219.176 173.204M220.407 170.984C220.61 170.923 220.81 170.859 221.005 170.791C225.447 169.236 232.785 163.259 233.171 152.445C233.364 147.038 233.364 141.823 233.364 141.823C233.364 141.823 233.364 136.609 233.171 131.202C232.785 120.388 225.447 114.411 221.005 112.856C220.81 112.788 220.61 112.724 220.407 112.663M220.407 170.984C227.571 165.963 229.336 164.208 231.047 157.079C232.206 152.252 232.206 143.755 232.206 141.823C232.206 139.892 232.206 131.395 231.047 126.567C229.336 119.439 227.571 117.684 220.407 112.663M219.176 173.204L220.812 174.846M219.176 173.204C215.988 174.331 207.178 176.7 197.445 177.163M220.812 174.846C218.907 176.067 214.535 178.281 209.432 179.481M220.812 174.846C222.745 173.665 224.499 172.424 226.206 170.791M197.445 177.163C200.035 175.927 201.099 174.846 201.307 174.46C200.975 174.354 200.586 174.236 200.149 174.11M197.445 177.163C191.574 178.399 185.343 178.837 182.961 178.901M182.575 177.936L174.658 171.563L184.12 171.563C189.895 171.563 196.609 173.093 200.149 174.11M182.575 177.936C185.408 177.871 191.806 177.55 194.741 176.777C197.677 176.005 199.569 174.677 200.149 174.11M182.575 177.936L182.961 178.901M182.961 178.901L184.12 181.219M184.12 181.219C187.918 181.09 197.29 180.717 204.397 180.253C206.112 180.141 207.809 179.862 209.432 179.481M184.12 181.219L183.348 183.536C193.583 183.15 201.887 182.764 209.032 182.377M209.032 182.377C211.658 180.678 213.345 179.738 213.86 179.481M209.032 182.377C206.405 183.768 204.848 185.145 204.397 185.66M213.86 179.481L209.432 179.481M213.86 179.481C215.405 178.708 219.46 178.708 222.357 176.777C224.543 175.319 226.18 172.871 227.266 171.177M213.86 179.481C216.944 179.481 219.907 179.255 222.743 177.936M231.819 165.19C233.042 163.452 235.527 158.47 235.682 152.445C235.836 146.42 235.875 141.823 235.875 141.823C235.875 141.823 235.836 137.227 235.682 131.202C235.527 125.177 233.042 120.195 231.819 118.457M231.819 165.19C231.37 165.736 230.647 166.622 229.94 167.508M231.819 165.19C231.284 166.605 230.254 169.077 229.085 171.37M222.743 177.936C223.991 177.355 225.64 176.391 226.605 175.425C227.52 174.511 228.285 172.938 229.085 171.37M222.743 177.936C225.253 175.812 226.605 174.46 227.764 172.142C227.893 171.883 228.023 171.621 228.15 171.36M229.94 167.508C229.231 168.396 228.537 169.283 228.15 169.825C227.913 170.156 227.619 170.627 227.266 171.177M229.94 167.508C229.648 168.172 228.934 169.751 228.15 171.36M229.085 171.37L228.15 171.36M229.085 171.37C229.305 171.37 229.692 171.361 230.155 171.335M228.15 171.36L227.266 171.177M227.266 171.177L226.206 170.791M226.206 170.791C227.569 169.487 228.903 167.934 230.274 165.963C233.364 161.521 234.523 157.466 234.523 141.823C234.523 126.181 233.364 122.126 230.274 117.684C228.903 115.713 227.569 114.16 226.206 112.856M233.557 170.984C233.429 170.984 232.901 171.022 231.819 171.177C231.255 171.257 230.66 171.307 230.155 171.335M230.155 171.335C231.546 169.094 234.562 163.607 235.488 159.59C236.647 154.569 237.226 147.231 237.226 141.823C237.226 136.416 236.647 129.078 235.488 124.057C234.562 120.04 231.546 114.553 230.155 112.312M230.155 171.335C229.085 173.204 228.923 173.687 226.991 176.391C225.06 179.094 219.267 181.798 218.108 182.377M224.674 180.832C225.494 180.06 227.413 178.245 228.536 177.163C229.66 176.082 231.45 174.073 232.206 173.204M14.759 118.457C11.6692 119.615 10.3174 120.581 10.3174 120.581M14.759 118.457C24.9941 115.662 50.2534 109.289 69.4103 106.154M14.759 118.457C15.0506 117.388 15.44 116.025 15.9026 114.787M24.8009 105.711C22.7411 107.385 18.9689 110.578 18.0419 111.505C17.4664 112.08 16.3591 113.566 15.9026 114.787M24.8009 105.711L52.4163 105.711M24.8009 105.711C24.9238 105.661 25.0528 105.61 25.1872 105.556M52.4163 105.711C56.6004 105.518 65.1232 105.132 65.7411 105.132M52.4163 105.711L15.9026 114.787M65.7411 105.132C66.2297 105.132 68.0382 105.695 69.4103 106.154M65.7411 105.132C68.3804 104.488 74.045 103.123 75.59 102.814C77.1349 102.505 80.6109 101.913 82.1558 101.656M70.3759 106.29L69.4103 106.154M70.3759 106.29C71.2127 105.969 82.5421 105.132 82.5421 105.132M22.4836 103.973C23.8354 102.814 28.8563 101.269 30.2081 101.076C30.7817 100.994 35.2291 99.9177 35.4222 99.9177C35.5021 99.9177 35.846 100.017 36.1947 100.228M25.1872 105.556C28.3613 104.29 34.5957 101.997 36.9671 101.849C36.9671 101.463 36.9669 101.165 36.774 100.883M25.1872 105.556L25.1872 104.552M25.1872 103.78C23.1917 104.939 18.5827 108.453 16.1108 112.47C15.6473 113.088 15.1452 113.5 14.9521 113.629M25.1872 103.78L25.1872 104.552M25.1872 103.78C27.1827 102.621 31.9462 101.269 36.1947 100.228M36.774 100.883C34.3182 101.369 28.586 102.853 25.1872 104.552M36.774 100.883L36.773 100.882C36.614 100.65 36.4178 100.364 36.1947 100.228M82.5421 105.132C82.5421 105.132 83.7007 104.939 84.087 104.552M82.5421 105.132C82.1593 105.375 81.4004 105.83 80.4178 106.366M80.4178 106.366C90.945 109.112 96.3229 111.251 108.226 112.63M199.183 116.139C185.601 115.753 152.604 114.787 129.276 114.015C120.237 113.716 113.573 113.249 108.226 112.63M199.183 116.139L199.183 117.298M199.183 116.139C199.183 115.519 199.67 114.94 200.682 114.401M199.183 117.298C181.803 116.783 143.489 115.676 129.276 115.367C115.062 115.058 108.934 114.337 107.647 114.015M199.183 117.298L199.183 123.284M107.647 114.015L108.226 112.63M200.682 114.401C201.877 113.765 203.803 113.186 206.521 112.663C210.186 111.958 214.16 111.665 217.541 112.084M199.183 123.284C201.307 123.091 202.852 122.898 204.397 122.705L204.397 127.34C202.852 127.803 200.277 128.048 199.183 128.112M199.183 123.284L199.183 128.112M217.541 112.084C218.558 112.21 219.521 112.4 220.407 112.663M217.541 112.084L219.176 110.442M219.176 110.442L220.812 108.801M219.176 110.442C215.988 109.316 207.178 106.947 197.445 106.484M220.812 108.801C218.907 107.58 214.535 105.366 209.432 104.166M220.812 108.801C222.745 109.982 224.499 111.223 226.206 112.856M197.445 106.484C200.035 107.719 201.099 108.801 201.307 109.187C200.975 109.293 200.586 109.411 200.149 109.537M197.445 106.484C191.574 105.248 185.343 104.81 182.961 104.746M182.575 105.711L174.658 112.084L184.12 112.084C189.895 112.084 196.609 110.554 200.149 109.537M182.575 105.711C185.408 105.775 191.806 106.097 194.741 106.87C197.677 107.642 199.569 108.97 200.149 109.537M182.575 105.711L182.961 104.746M182.961 104.746L184.12 102.428M184.12 102.428C187.918 102.557 197.29 102.93 204.397 103.394C206.112 103.506 207.809 103.785 209.432 104.166M184.12 102.428L183.348 100.111C193.583 100.497 201.887 100.883 209.032 101.269M209.032 101.269C211.658 102.969 213.345 103.909 213.86 104.166M209.032 101.269C206.405 99.879 204.848 98.5015 204.397 97.9865M213.86 104.166L209.432 104.166M213.86 104.166C215.405 104.939 219.46 104.939 222.357 106.87C224.543 108.328 226.18 110.776 227.266 112.47M213.86 104.166C216.944 104.166 219.907 104.392 222.743 105.711M231.819 118.457C231.37 117.91 230.647 117.024 229.94 116.139M231.819 118.457C231.284 117.042 230.254 114.57 229.085 112.277M222.743 105.711C223.991 106.292 225.64 107.256 226.605 108.222C227.52 109.136 228.285 110.709 229.085 112.277M222.743 105.711C225.253 107.835 226.605 109.187 227.764 111.505C227.893 111.764 228.023 112.026 228.15 112.287M229.94 116.139C229.231 115.251 228.537 114.364 228.15 113.822C227.913 113.491 227.619 113.02 227.266 112.47M229.94 116.139C229.648 115.475 228.934 113.896 228.15 112.287M229.085 112.277L228.15 112.287M229.085 112.277C229.305 112.277 229.692 112.286 230.155 112.312M228.15 112.287L227.266 112.47M227.266 112.47L226.206 112.856M233.557 112.663C233.429 112.663 232.901 112.625 231.819 112.47C231.255 112.389 230.66 112.34 230.155 112.312M230.155 112.312C229.085 110.442 228.923 109.96 226.991 107.256C225.06 104.552 219.267 101.849 218.108 101.269M224.674 102.814C225.494 103.587 227.413 105.402 228.536 106.484C229.66 107.565 231.45 109.573 232.206 110.442" stroke="url(#paint4_linear_367_1391)" stroke-opacity="0.26" stroke-width="0.386228"/>
<path d="M70.9558 169.439C74.4318 173.687 78.4872 175.039 81.9633 175.425C85.0531 174.846 100.309 171.756 102.626 170.791C104.944 169.825 105.716 169.632 104.751 165.19C103.785 160.749 103.013 155.728 102.82 153.99C102.626 152.252 101.275 151.093 98.9573 150.514C96.64 149.934 93.1639 148.776 91.8121 147.81C90.4603 146.844 90.4603 143.561 90.4603 141.823C90.4603 140.085 90.4603 136.802 91.8121 135.837C93.1639 134.871 96.64 133.713 98.9573 133.133C101.275 132.554 102.626 131.395 102.82 129.657C103.013 127.919 103.785 122.898 104.751 118.457C105.716 114.015 104.944 113.822 102.626 112.856C100.309 111.891 85.0531 108.801 81.9633 108.222C78.4872 108.608 74.4318 109.96 70.9558 114.208C67.4797 118.457 65.3555 132.94 65.3555 141.823C65.3555 150.707 67.4797 165.19 70.9558 169.439Z" fill="#111111" stroke="white" stroke-opacity="0.26" stroke-width="0.386228"/>
<path d="M182.575 177.936L174.658 171.563L170.023 171.563M182.575 177.936L183.155 179.094M182.575 177.936C181.341 178.068 179.766 178.194 177.941 178.313M183.155 179.094L184.12 181.219M183.155 179.094C169.067 179.674 139.246 180.794 132.669 180.639M184.12 181.219C172.842 181.991 150.712 181.927 141.056 181.798M184.12 181.219C184.005 181.506 183.695 182.297 183.3 183.343M132.945 179.674L135.842 171.563L138.738 171.563M132.945 179.674L137 179.674M132.945 179.674L132.669 180.639M138.738 171.563L137 179.674M138.738 171.563L170.023 171.563M137 179.674C145.463 179.533 161.259 179.165 172.533 178.616M170.023 171.563L173.421 174.46M177.941 178.313C176.316 178.42 174.493 178.52 172.533 178.616M177.941 178.313L173.421 174.46M172.533 178.616L173.421 174.46M132.669 180.639L132.448 181.412M132.044 182.764L131.593 184.115L131.465 184.695M132.044 182.764L132.173 182.377L132.448 181.412M132.044 182.764L146.463 182.764L141.056 181.798M141.056 181.798L132.448 181.412M183.3 183.343C183.253 183.468 183.204 183.597 183.155 183.729C182.691 184.965 181.803 185.918 181.417 186.24L162.492 185.853L145.497 185.853L131.207 185.853L131.465 184.695M183.3 183.343L180.258 183.343C180.194 183.329 180.123 183.314 180.047 183.299M131.465 184.695C142.536 184.695 168.864 183.729 170.023 183.729C170.19 183.729 170.385 183.709 170.602 183.675M170.602 183.675C171.246 184.079 173.074 184.888 175.237 184.888C177.941 184.888 179.449 183.834 180.047 183.299M170.602 183.675C171.24 183.574 172.07 183.35 172.946 183.15M180.047 183.299C179.587 183.206 178.917 183.085 178.188 182.982M178.188 182.982C177.333 182.861 176.398 182.764 175.623 182.764C174.787 182.764 173.843 182.945 172.946 183.15M178.188 182.982C178.105 183.166 177.477 183.575 175.623 183.729C173.769 183.884 173.066 183.407 172.946 183.15" stroke="url(#paint5_linear_367_1391)" stroke-opacity="0.26" stroke-width="0.386228"/>
<path d="M182.575 105.711L174.658 112.084L170.023 112.084M182.575 105.711L183.155 104.552M182.575 105.711C181.341 105.579 179.766 105.453 177.941 105.333M183.155 104.552L184.12 102.428M183.155 104.552C169.067 103.973 139.246 102.853 132.669 103.008M184.12 102.428C172.842 101.656 150.712 101.72 141.056 101.849M184.12 102.428C184.005 102.141 183.695 101.35 183.3 100.304M132.945 103.973L135.842 112.084L138.738 112.084M132.945 103.973L137 103.973M132.945 103.973L132.669 103.008M138.738 112.084L137 103.973M138.738 112.084L170.023 112.084M137 103.973C145.463 104.114 161.259 104.482 172.533 105.031M170.023 112.084L173.421 109.187M177.941 105.333C176.316 105.227 174.493 105.126 172.533 105.031M177.941 105.333L173.421 109.187M172.533 105.031L173.421 109.187M132.669 103.008L132.448 102.235M132.044 100.883L131.593 99.5315L131.465 98.9521M132.044 100.883L132.173 101.269L132.448 102.235M132.044 100.883L146.463 100.883L141.056 101.849M141.056 101.849L132.448 102.235M183.3 100.304C183.253 100.179 183.204 100.05 183.155 99.9177C182.691 98.6817 181.803 97.7291 181.417 97.4072L162.492 97.7934L145.497 97.7934L131.207 97.7934L131.465 98.9521M183.3 100.304L180.258 100.304C180.194 100.318 180.123 100.332 180.047 100.348M131.465 98.9521C142.536 98.9521 168.864 99.9177 170.023 99.9177C170.19 99.9177 170.385 99.9377 170.602 99.9721M170.602 99.9721C171.246 99.5677 173.074 98.759 175.237 98.759C177.941 98.759 179.449 99.8125 180.047 100.348M170.602 99.9721C171.24 100.073 172.07 100.296 172.946 100.497M180.047 100.348C179.587 100.441 178.917 100.562 178.188 100.665M178.188 100.665C177.333 100.786 176.398 100.883 175.623 100.883C174.787 100.883 173.843 100.702 172.946 100.497M178.188 100.665C178.105 100.48 177.477 100.072 175.623 99.9177C173.769 99.7632 173.066 100.24 172.946 100.497" stroke="url(#paint6_linear_367_1391)" stroke-opacity="0.26" stroke-width="0.386228"/>
<path d="M185.472 141.823C185.729 142.21 186.785 143.021 188.948 143.175C189.711 143.23 190.544 143.142 191.352 142.982M194.707 141.927C194.789 141.891 194.865 141.856 194.934 141.823L194.707 141.927ZM194.707 141.927C193.953 142.259 192.688 142.718 191.352 142.982M194.707 141.927L194.707 143.072C193.682 143.042 191.576 142.982 191.352 142.982" stroke="white" stroke-opacity="0.26" stroke-width="0.386228"/>
<path d="M185.472 141.823C185.729 141.437 186.785 140.626 188.948 140.472C189.711 140.417 190.544 140.505 191.352 140.665M194.707 141.72C194.789 141.756 194.865 141.791 194.934 141.823L194.707 141.72ZM194.707 141.72C193.953 141.388 192.688 140.929 191.352 140.665M194.707 141.72L194.707 140.575C193.682 140.605 191.576 140.665 191.352 140.665" stroke="white" stroke-opacity="0.26" stroke-width="0.386228"/>
<g filter="url(#filter1_d_367_1391)">
<path fill-rule="evenodd" clip-rule="evenodd" d="M69.524 107.717L63.2468 100.265L85.9866 100.074L86.1429 100.069C86.7685 98.5944 87.7043 96.8398 88.6855 95.7971C90.5334 93.8334 93.1366 92.3912 95.5094 91.5793C95.8008 91.4796 96.4453 91.347 96.9853 91.2359C97.3334 91.1643 97.6381 91.1016 97.7767 91.0624L95.3362 99.7584L117.941 99.4013L150.461 98.8876L150.51 100.478L150.529 101.115L150.493 103.517L150.166 107.58L150.003 109.612L147.891 121.611L144.059 121.502C142.07 121.441 139.875 121.384 137.547 121.324C125.572 121.013 110.083 120.61 101.081 119.178C91.3371 117.627 81.686 114.539 77.0029 112.799C76.5183 112.619 76.0869 112.454 75.7141 112.306L72.8507 112.393L72.6289 112.081L69.524 107.717Z" fill="#CAC1E9" fill-opacity="0.4"/>
<path d="M63.2468 100.265L62.7599 100.675L61.8878 99.6401L63.2415 99.6287L63.2468 100.265ZM69.524 107.717L70.0109 107.307L70.0276 107.327L70.0427 107.348L69.524 107.717ZM85.9866 100.074L86.0083 100.71L86.0001 100.71L85.992 100.71L85.9866 100.074ZM86.1429 100.069L86.7289 100.317L86.5703 100.691L86.1645 100.705L86.1429 100.069ZM88.6855 95.7971L89.1491 96.2334L89.1491 96.2334L88.6855 95.7971ZM95.5094 91.5793L95.3033 90.977L95.3033 90.977L95.5094 91.5793ZM96.9853 91.2359L96.8571 90.6123L96.8571 90.6123L96.9853 91.2359ZM97.7767 91.0624L97.6036 90.4498L98.6965 90.141L98.3896 91.2344L97.7767 91.0624ZM95.3362 99.7584L95.3462 100.395L94.4926 100.408L94.7233 99.5864L95.3362 99.7584ZM117.941 99.4013L117.931 98.7648L117.931 98.7648L117.941 99.4013ZM150.461 98.8876L150.451 98.2511L151.078 98.2412L151.097 98.8683L150.461 98.8876ZM150.51 100.478L149.873 100.498L149.873 100.498L150.51 100.478ZM150.529 101.115L151.165 101.095L151.166 101.11L151.165 101.124L150.529 101.115ZM150.493 103.517L151.129 103.527L151.129 103.547L151.128 103.568L150.493 103.517ZM150.166 107.58L149.532 107.529L149.532 107.529L150.166 107.58ZM150.003 109.612L150.637 109.663L150.635 109.693L150.63 109.722L150.003 109.612ZM147.891 121.611L148.517 121.721L148.422 122.263L147.872 122.247L147.891 121.611ZM144.059 121.502L144.041 122.138L144.04 122.138L144.059 121.502ZM137.547 121.324L137.53 121.96L137.53 121.96L137.547 121.324ZM101.081 119.178L101.181 118.549L101.181 118.549L101.081 119.178ZM77.0029 112.799L77.2246 112.203L77.2246 112.203L77.0029 112.799ZM75.7141 112.306L75.6948 111.67L75.8265 111.666L75.9489 111.714L75.7141 112.306ZM72.8507 112.393L72.87 113.029L72.5295 113.04L72.332 112.762L72.8507 112.393ZM72.6289 112.081L72.1102 112.45L72.1102 112.45L72.6289 112.081ZM63.7337 99.8552L70.0109 107.307L69.0371 108.128L62.7599 100.675L63.7337 99.8552ZM85.992 100.71L63.2522 100.902L63.2415 99.6287L85.9813 99.4372L85.992 100.71ZM86.1645 100.705L86.0083 100.71L85.965 99.4376L86.1212 99.4323L86.1645 100.705ZM89.1491 96.2334C88.2469 97.1922 87.3464 98.8624 86.7289 100.317L85.5568 99.8198C86.1907 98.3264 87.1618 96.4874 88.2219 95.3609L89.1491 96.2334ZM95.7155 92.1816C93.4126 92.9696 90.908 94.3642 89.1491 96.2334L88.2219 95.3609C90.1588 93.3025 92.8607 91.8128 95.3033 90.977L95.7155 92.1816ZM97.1136 91.8594C96.5486 91.9757 95.958 92.0986 95.7155 92.1816L95.3033 90.977C95.6436 90.8605 96.3421 90.7183 96.8571 90.6123L97.1136 91.8594ZM97.9498 91.675C97.7825 91.7223 97.4461 91.791 97.1136 91.8594L96.8571 90.6123C97.2208 90.5375 97.4936 90.4809 97.6036 90.4498L97.9498 91.675ZM94.7233 99.5864L97.1638 90.8904L98.3896 91.2344L95.9491 99.9304L94.7233 99.5864ZM117.951 100.038L95.3462 100.395L95.3261 99.1219L117.931 98.7648L117.951 100.038ZM150.471 99.5242L117.951 100.038L117.931 98.7648L150.451 98.2511L150.471 99.5242ZM149.873 100.498L149.825 98.907L151.097 98.8683L151.146 100.459L149.873 100.498ZM149.893 101.134L149.873 100.498L151.146 100.459L151.165 101.095L149.893 101.134ZM149.856 103.508L149.892 101.105L151.165 101.124L151.129 103.527L149.856 103.508ZM149.532 107.529L149.858 103.466L151.128 103.568L150.801 107.631L149.532 107.529ZM149.368 109.561L149.532 107.529L150.801 107.631L150.637 109.663L149.368 109.561ZM147.264 121.5L149.376 109.501L150.63 109.722L148.517 121.721L147.264 121.5ZM144.077 120.866L147.909 120.974L147.872 122.247L144.041 122.138L144.077 120.866ZM137.564 120.687C139.891 120.748 142.088 120.805 144.078 120.866L144.04 122.138C142.053 122.078 139.859 122.021 137.53 121.96L137.564 120.687ZM101.181 118.549C110.131 119.973 125.569 120.376 137.564 120.687L137.53 121.96C125.576 121.65 110.035 121.247 100.981 119.806L101.181 118.549ZM77.2246 112.203C81.8829 113.933 91.4916 117.007 101.181 118.549L100.981 119.806C91.1825 118.247 81.4891 115.145 76.7812 113.396L77.2246 112.203ZM75.9489 111.714C76.3167 111.86 76.7437 112.024 77.2246 112.203L76.7813 113.396C76.2929 113.215 75.8571 113.048 75.4793 112.898L75.9489 111.714ZM72.8313 111.757L75.6948 111.67L75.7335 112.942L72.87 113.029L72.8313 111.757ZM73.1476 111.712L73.3694 112.024L72.332 112.762L72.1102 112.45L73.1476 111.712ZM70.0427 107.348L73.1476 111.712L72.1102 112.45L69.0053 108.086L70.0427 107.348Z" fill="#CAC1E9"/>
<path d="M69.5243 107.717L63.2471 100.265L85.9869 100.074M69.5243 107.717L81.9228 107.022M69.5243 107.717L72.6292 112.081M81.9228 107.022L84.7089 104.39M81.9228 107.022C82.3664 107.645 83.5716 108.883 84.8443 108.844L88.9803 108.718L89.3331 107.713M150.493 103.517L150.529 101.115L150.51 100.478L150.461 98.8877L117.941 99.4014L95.1992 99.7606M150.493 103.517L93.4383 106.035M150.493 103.517L150.166 107.58M93.4383 106.035L93.0777 107.32C92.7403 107.382 91.6595 107.508 91.1689 107.572C90.4017 107.673 90.1514 107.702 89.3331 107.713M93.4383 106.035L95.1992 99.7606M72.6292 112.081L72.8509 112.393L75.7144 112.306C76.0872 112.454 76.5186 112.619 77.0032 112.799C81.6863 114.539 91.3373 117.627 101.081 119.178C111.833 120.889 131.841 121.13 144.059 121.502L147.891 121.611L150.003 109.612L150.166 107.58M72.6292 112.081C94.0999 109.518 134.736 108.049 150.166 107.58M84.7089 104.39C85.0528 105.228 86.0627 107.024 87.3509 107.494C87.827 107.668 88.5463 107.724 89.3331 107.713M84.7089 104.39C84.9085 103.342 85.2373 101.872 85.9869 100.074M95.1992 99.7606L97.675 90.9389C97.3213 91.0388 95.8869 91.2918 95.4077 91.4557C93.0349 92.2676 90.4316 93.7098 88.5838 95.6736C87.5738 96.7469 86.612 98.5743 85.9869 100.074" stroke="#CAC1E9" stroke-width="1.27322"/>
</g>
<defs>
<filter id="filter0_d_367_1391" x="0.662149" y="89.8757" width="245.255" height="103.895" filterUnits="userSpaceOnUse" color-interpolation-filters="sRGB">
<feFlood flood-opacity="0" result="BackgroundImageFix"/>
<feColorMatrix in="SourceAlpha" type="matrix" values="0 0 0 0 0 0 0 0 0 0 0 0 0 0 0 0 0 0 127 0" result="hardAlpha"/>
<feOffset/>
<feGaussianBlur stdDeviation="3.47605"/>
<feComposite in2="hardAlpha" operator="out"/>
<feColorMatrix type="matrix" values="0 0 0 0 0 0 0 0 0 0 0 0 0 0 0 0 0 0 1 0"/>
<feBlend mode="normal" in2="BackgroundImageFix" result="effect1_dropShadow_367_1391"/>
<feBlend mode="normal" in="SourceGraphic" in2="effect1_dropShadow_367_1391" result="shape"/>
</filter>
<filter id="filter1_d_367_1391" x="42.7893" y="70.9191" width="127.475" height="70.4418" filterUnits="userSpaceOnUse" color-interpolation-filters="sRGB">
<feFlood flood-opacity="0" result="BackgroundImageFix"/>
<feColorMatrix in="SourceAlpha" type="matrix" values="0 0 0 0 0 0 0 0 0 0 0 0 0 0 0 0 0 0 127 0" result="hardAlpha"/>
<feOffset/>
<feGaussianBlur stdDeviation="9.54919"/>
<feComposite in2="hardAlpha" operator="out"/>
<feColorMatrix type="matrix" values="0 0 0 0 0.792157 0 0 0 0 0.756863 0 0 0 0 0.913725 0 0 0 1 0"/>
<feBlend mode="normal" in2="BackgroundImageFix" result="effect1_dropShadow_367_1391"/>
<feBlend mode="normal" in="SourceGraphic" in2="effect1_dropShadow_367_1391" result="shape"/>
</filter>
<radialGradient id="paint0_radial_367_1391" cx="0" cy="0" r="1" gradientUnits="userSpaceOnUse" gradientTransform="translate(123.289 141.823) rotate(-44.8305) scale(276.929 107.154)">
<stop stop-color="#1D1D1D"/>
<stop offset="1"/>
</radialGradient>
<linearGradient id="paint1_linear_367_1391" x1="10.7036" y1="179.481" x2="210.77" y2="91.4206" gradientUnits="userSpaceOnUse">
<stop stop-color="#CECECE" stop-opacity="0.76"/>
<stop offset="0.25" stop-color="#838383" stop-opacity="0.53"/>
<stop offset="0.484375" stop-color="#C4C4C4" stop-opacity="0.515625"/>
<stop offset="0.677083" stop-color="#E1E1E1" stop-opacity="0.6"/>
<stop offset="0.854167" stop-color="#CFCFCF" stop-opacity="0.23"/>
<stop offset="1" stop-color="#CFCFCF" stop-opacity="0.63"/>
</linearGradient>
<linearGradient id="paint2_linear_367_1391" x1="81.383" y1="127.34" x2="135.841" y2="92" gradientUnits="userSpaceOnUse">
<stop stop-color="white"/>
<stop offset="0.182292" stop-color="white" stop-opacity="0.51"/>
<stop offset="0.546875" stop-color="white"/>
<stop offset="0.786458" stop-color="white" stop-opacity="0.44"/>
<stop offset="0.994792" stop-color="white"/>
</linearGradient>
<linearGradient id="paint3_linear_367_1391" x1="78.2932" y1="204.586" x2="138.352" y2="168.666" gradientUnits="userSpaceOnUse">
<stop stop-color="white"/>
<stop offset="0.182292" stop-color="white" stop-opacity="0.51"/>
<stop offset="0.546875" stop-color="white"/>
<stop offset="0.786458" stop-color="white" stop-opacity="0.44"/>
<stop offset="0.994792" stop-color="white"/>
</linearGradient>
<linearGradient id="paint4_linear_367_1391" x1="35.036" y1="202.847" x2="230.467" y2="87.1721" gradientUnits="userSpaceOnUse">
<stop stop-color="white" stop-opacity="0.31"/>
<stop offset="0.291667" stop-color="white"/>
<stop offset="0.536458" stop-color="white" stop-opacity="0.26"/>
<stop offset="0.770833" stop-color="white"/>
<stop offset="1" stop-color="white" stop-opacity="0.25"/>
</linearGradient>
<linearGradient id="paint5_linear_367_1391" x1="131.207" y1="201.496" x2="191.266" y2="173.301" gradientUnits="userSpaceOnUse">
<stop stop-color="white"/>
<stop offset="0.182292" stop-color="white" stop-opacity="0.51"/>
<stop offset="0.546875" stop-color="white"/>
<stop offset="0.786458" stop-color="white" stop-opacity="0.44"/>
<stop offset="0.994792" stop-color="white"/>
</linearGradient>
<linearGradient id="paint6_linear_367_1391" x1="127.345" y1="117.877" x2="189.141" y2="94.1243" gradientUnits="userSpaceOnUse">
<stop stop-color="white"/>
<stop offset="0.182292" stop-color="white" stop-opacity="0.51"/>
<stop offset="0.546875" stop-color="white"/>
<stop offset="0.786458" stop-color="white" stop-opacity="0.44"/>
<stop offset="0.994792" stop-color="white"/>
</linearGradient>
</defs>
</svg>
