<svg width="242" height="206" viewBox="0 0 242 206" fill="none" xmlns="http://www.w3.org/2000/svg">
<circle opacity="0.2" cx="121" cy="103.089" r="120.822" transform="rotate(-90 121 103.089)" fill="url(#paint0_radial_72_1369)" fill-opacity="0.2" stroke="white" stroke-width="0.356932"/>
<circle opacity="0.2" cx="121" cy="103.089" r="79.4174" transform="rotate(-90 121 103.089)" fill="url(#paint1_radial_72_1369)" fill-opacity="0.4" stroke="white" stroke-width="0.356932"/>
<g opacity="0.2">
<rect y="103.089" width="0.356932" height="2.49852" transform="rotate(-90 0 103.089)" fill="white"/>
<rect x="0.0673828" y="98.8662" width="0.127401" height="0.891804" transform="rotate(-88 0.0673828 98.8662)" fill="white"/>
<rect x="0.282227" y="94.6482" width="0.127401" height="0.891804" transform="rotate(-86 0.282227 94.6482)" fill="white"/>
<rect x="0.644043" y="90.4401" width="0.127401" height="0.891804" transform="rotate(-84 0.644043 90.4401)" fill="white"/>
<rect x="1.15332" y="86.2474" width="0.127401" height="0.891804" transform="rotate(-82 1.15332 86.2474)" fill="white"/>
<rect x="1.80713" y="82.0749" width="0.127401" height="0.891804" transform="rotate(-80 1.80713 82.0749)" fill="white"/>
<rect x="2.60693" y="77.9278" width="0.127401" height="0.891804" transform="rotate(-78 2.60693 77.9278)" fill="white"/>
<rect x="3.55078" y="73.8112" width="0.127401" height="0.891804" transform="rotate(-76 3.55078 73.8112)" fill="white"/>
<rect x="4.6377" y="69.7301" width="0.127401" height="0.891804" transform="rotate(-74 4.6377 69.7301)" fill="white"/>
<rect x="5.86719" y="65.6893" width="0.127401" height="0.891804" transform="rotate(-72 5.86719 65.6893)" fill="white"/>
<rect x="7.23584" y="61.6938" width="0.127401" height="0.891804" transform="rotate(-70 7.23584 61.6938)" fill="white"/>
<rect x="8.74365" y="57.7487" width="0.127401" height="0.891804" transform="rotate(-68 8.74365 57.7487)" fill="white"/>
<rect x="10.3882" y="53.8586" width="0.127401" height="0.891804" transform="rotate(-66 10.3882 53.8586)" fill="white"/>
<rect x="12.1675" y="50.0282" width="0.127401" height="0.891804" transform="rotate(-64 12.1675 50.0282)" fill="white"/>
<rect x="14.0796" y="46.2621" width="0.127401" height="0.891804" transform="rotate(-62 14.0796 46.2621)" fill="white"/>
<rect x="16.1216" y="42.5652" width="0.127401" height="0.891804" transform="rotate(-60 16.1216 42.5652)" fill="white"/>
<rect x="18.2915" y="38.9417" width="0.127401" height="0.891804" transform="rotate(-58 18.2915 38.9417)" fill="white"/>
<rect x="20.5869" y="35.3963" width="0.127401" height="0.891804" transform="rotate(-56 20.5869 35.3963)" fill="white"/>
<rect x="23.0044" y="31.9328" width="0.127401" height="0.891804" transform="rotate(-54 23.0044 31.9328)" fill="white"/>
<rect x="25.5405" y="28.5562" width="0.127401" height="0.891804" transform="rotate(-52 25.5405 28.5562)" fill="white"/>
<rect x="28.1934" y="25.2701" width="0.127401" height="0.891804" transform="rotate(-50 28.1934 25.2701)" fill="white"/>
<rect x="30.96" y="22.0784" width="0.127401" height="0.891804" transform="rotate(-48 30.96 22.0784)" fill="white"/>
<rect x="33.8359" y="18.9854" width="0.127401" height="0.891804" transform="rotate(-46 33.8359 18.9854)" fill="white"/>
<rect x="36.8179" y="15.9945" width="0.127401" height="0.891804" transform="rotate(-44 36.8179 15.9945)" fill="white"/>
<rect x="39.9023" y="13.1094" width="0.127401" height="0.891804" transform="rotate(-42 39.9023 13.1094)" fill="white"/>
<rect x="43.0859" y="10.334" width="0.127401" height="0.891804" transform="rotate(-40 43.0859 10.334)" fill="white"/>
<rect x="46.3643" y="7.67126" width="0.127401" height="0.891804" transform="rotate(-38 46.3643 7.67126)" fill="white"/>
<rect x="49.7334" y="5.12445" width="0.127401" height="0.891804" transform="rotate(-36 49.7334 5.12445)" fill="white"/>
<rect x="53.1899" y="2.69687" width="0.127401" height="0.891804" transform="rotate(-34 53.1899 2.69687)" fill="white"/>
<rect x="56.7285" y="0.391449" width="0.127401" height="0.891804" transform="rotate(-32 56.7285 0.391449)" fill="white"/>
<rect x="184.969" y="0.202209" width="0.127401" height="0.891804" transform="rotate(32 184.969 0.202209)" fill="white"/>
<rect x="188.514" y="2.49731" width="0.127401" height="0.891804" transform="rotate(34 188.514 2.49731)" fill="white"/>
<rect x="191.978" y="4.91464" width="0.127401" height="0.891804" transform="rotate(36 191.978 4.91464)" fill="white"/>
<rect x="195.354" y="7.45151" width="0.127401" height="0.891804" transform="rotate(38 195.354 7.45151)" fill="white"/>
<rect x="198.641" y="10.1046" width="0.127401" height="0.891804" transform="rotate(40 198.641 10.1046)" fill="white"/>
<rect x="201.832" y="12.8707" width="0.127401" height="0.891804" transform="rotate(42 201.832 12.8707)" fill="white"/>
<rect x="204.925" y="15.7465" width="0.127401" height="0.891804" transform="rotate(44 204.925 15.7465)" fill="white"/>
<rect x="207.916" y="18.7285" width="0.127401" height="0.891804" transform="rotate(46 207.916 18.7285)" fill="white"/>
<rect x="210.801" y="21.8132" width="0.127401" height="0.891804" transform="rotate(48 210.801 21.8132)" fill="white"/>
<rect x="213.577" y="24.9966" width="0.127401" height="0.891804" transform="rotate(50 213.577 24.9966)" fill="white"/>
<rect x="216.239" y="28.2748" width="0.127401" height="0.891804" transform="rotate(52 216.239 28.2748)" fill="white"/>
<rect x="218.786" y="31.6443" width="0.127401" height="0.891804" transform="rotate(54 218.786 31.6443)" fill="white"/>
<rect x="221.213" y="35.1003" width="0.127401" height="0.891804" transform="rotate(56 221.213 35.1003)" fill="white"/>
<rect x="223.52" y="38.6392" width="0.127401" height="0.891804" transform="rotate(58 223.52 38.6392)" fill="white"/>
<rect x="225.7" y="42.2561" width="0.127401" height="0.891804" transform="rotate(60 225.7 42.2561)" fill="white"/>
<rect x="227.752" y="45.9471" width="0.127401" height="0.891804" transform="rotate(62 227.752 45.9471)" fill="white"/>
<rect x="229.676" y="49.7074" width="0.127401" height="0.891804" transform="rotate(64 229.676 49.7074)" fill="white"/>
<rect x="231.467" y="53.5325" width="0.127401" height="0.891804" transform="rotate(66 231.467 53.5325)" fill="white"/>
<rect x="233.123" y="57.4178" width="0.127401" height="0.891804" transform="rotate(68 233.123 57.4178)" fill="white"/>
<rect x="234.642" y="61.3586" width="0.127401" height="0.891804" transform="rotate(70 234.642 61.3586)" fill="white"/>
<rect x="236.022" y="65.3498" width="0.127401" height="0.891804" transform="rotate(72 236.022 65.3498)" fill="white"/>
<rect x="237.263" y="69.3869" width="0.127401" height="0.891804" transform="rotate(74 237.263 69.3869)" fill="white"/>
<rect x="238.363" y="73.4649" width="0.127401" height="0.891804" transform="rotate(76 238.363 73.4649)" fill="white"/>
<rect x="239.319" y="77.5788" width="0.127401" height="0.891804" transform="rotate(78 239.319 77.5788)" fill="white"/>
<rect x="240.131" y="81.7234" width="0.127401" height="0.891804" transform="rotate(80 240.131 81.7234)" fill="white"/>
<rect x="240.798" y="85.894" width="0.127401" height="0.891804" transform="rotate(82 240.798 85.894)" fill="white"/>
<rect x="241.318" y="90.0851" width="0.127401" height="0.891804" transform="rotate(84 241.318 90.0851)" fill="white"/>
<rect x="241.693" y="94.292" width="0.127401" height="0.891804" transform="rotate(86 241.693 94.292)" fill="white"/>
<rect x="241.92" y="98.5094" width="0.127401" height="0.891804" transform="rotate(88 241.92 98.5094)" fill="white"/>
<rect x="242" y="102.732" width="0.127401" height="0.891804" transform="rotate(90 242 102.732)" fill="white"/>
<rect x="241.933" y="106.955" width="0.127401" height="0.891804" transform="rotate(92 241.933 106.955)" fill="white"/>
<rect x="241.717" y="111.173" width="0.127401" height="0.891804" transform="rotate(94 241.717 111.173)" fill="white"/>
<rect x="241.356" y="115.381" width="0.127401" height="0.891804" transform="rotate(96 241.356 115.381)" fill="white"/>
<rect x="240.847" y="119.574" width="0.127401" height="0.891804" transform="rotate(98 240.847 119.574)" fill="white"/>
<rect x="240.193" y="123.746" width="0.127401" height="0.891804" transform="rotate(100 240.193 123.746)" fill="white"/>
<rect x="239.393" y="127.894" width="0.127401" height="0.891804" transform="rotate(102 239.393 127.894)" fill="white"/>
<rect x="238.449" y="132.01" width="0.127401" height="0.891804" transform="rotate(104 238.449 132.01)" fill="white"/>
<rect x="237.362" y="136.091" width="0.127401" height="0.891804" transform="rotate(106 237.362 136.091)" fill="white"/>
<rect x="236.133" y="140.132" width="0.127401" height="0.891804" transform="rotate(108 236.133 140.132)" fill="white"/>
<rect x="234.764" y="144.127" width="0.127401" height="0.891804" transform="rotate(110 234.764 144.127)" fill="white"/>
<rect x="233.256" y="148.072" width="0.127401" height="0.891804" transform="rotate(112 233.256 148.072)" fill="white"/>
<rect x="231.611" y="151.963" width="0.127401" height="0.891804" transform="rotate(114 231.611 151.963)" fill="white"/>
<rect x="229.833" y="155.793" width="0.127401" height="0.891804" transform="rotate(116 229.833 155.793)" fill="white"/>
<rect x="227.92" y="159.559" width="0.127401" height="0.891804" transform="rotate(118 227.92 159.559)" fill="white"/>
<rect x="225.878" y="163.256" width="0.127401" height="0.891804" transform="rotate(120 225.878 163.256)" fill="white"/>
<rect x="223.708" y="166.88" width="0.127401" height="0.891804" transform="rotate(122 223.708 166.88)" fill="white"/>
<rect x="221.413" y="170.425" width="0.127401" height="0.891804" transform="rotate(124 221.413 170.425)" fill="white"/>
<rect x="218.996" y="173.888" width="0.127401" height="0.891804" transform="rotate(126 218.996 173.888)" fill="white"/>
<rect x="216.459" y="177.265" width="0.127401" height="0.891804" transform="rotate(128 216.459 177.265)" fill="white"/>
<rect x="213.806" y="180.551" width="0.127401" height="0.891804" transform="rotate(130 213.806 180.551)" fill="white"/>
<rect x="211.04" y="183.743" width="0.127401" height="0.891804" transform="rotate(132 211.04 183.743)" fill="white"/>
<rect x="208.165" y="186.836" width="0.127401" height="0.891804" transform="rotate(134 208.165 186.836)" fill="white"/>
<rect x="205.182" y="189.827" width="0.127401" height="0.891804" transform="rotate(136 205.182 189.827)" fill="white"/>
<rect x="202.098" y="192.712" width="0.127401" height="0.891804" transform="rotate(138 202.098 192.712)" fill="white"/>
<rect x="198.914" y="195.487" width="0.127401" height="0.891804" transform="rotate(140 198.914 195.487)" fill="white"/>
<rect x="195.635" y="198.15" width="0.127401" height="0.891804" transform="rotate(142 195.635 198.15)" fill="white"/>
<rect x="192.267" y="200.697" width="0.127401" height="0.891804" transform="rotate(144 192.267 200.697)" fill="white"/>
<rect x="188.81" y="203.124" width="0.127401" height="0.891804" transform="rotate(146 188.81 203.124)" fill="white"/>
<rect x="185.271" y="205.43" width="0.127401" height="0.891804" transform="rotate(148 185.271 205.43)" fill="white"/>
<rect x="57.0312" y="205.619" width="0.127401" height="0.891804" transform="rotate(-148 57.0312 205.619)" fill="white"/>
<rect x="53.4854" y="203.324" width="0.127401" height="0.891804" transform="rotate(-146 53.4854 203.324)" fill="white"/>
<rect x="50.022" y="200.907" width="0.127401" height="0.891804" transform="rotate(-144 50.022 200.907)" fill="white"/>
<rect x="46.646" y="198.37" width="0.127401" height="0.891804" transform="rotate(-142 46.646 198.37)" fill="white"/>
<rect x="43.3594" y="195.717" width="0.127401" height="0.891804" transform="rotate(-140 43.3594 195.717)" fill="white"/>
<rect x="40.1675" y="192.951" width="0.127401" height="0.891804" transform="rotate(-138 40.1675 192.951)" fill="white"/>
<rect x="37.0747" y="190.075" width="0.127401" height="0.891804" transform="rotate(-136 37.0747 190.075)" fill="white"/>
<rect x="34.084" y="187.093" width="0.127401" height="0.891804" transform="rotate(-134 34.084 187.093)" fill="white"/>
<rect x="31.1992" y="184.008" width="0.127401" height="0.891804" transform="rotate(-132 31.1992 184.008)" fill="white"/>
<rect x="28.4233" y="180.825" width="0.127401" height="0.891804" transform="rotate(-130 28.4233 180.825)" fill="white"/>
<rect x="25.7607" y="177.546" width="0.127401" height="0.891804" transform="rotate(-128 25.7607 177.546)" fill="white"/>
<rect x="23.2139" y="174.177" width="0.127401" height="0.891804" transform="rotate(-126 23.2139 174.177)" fill="white"/>
<rect x="20.7861" y="170.721" width="0.127401" height="0.891804" transform="rotate(-124 20.7861 170.721)" fill="white"/>
<rect x="18.481" y="167.182" width="0.127401" height="0.891804" transform="rotate(-122 18.481 167.182)" fill="white"/>
<rect x="16.3003" y="163.565" width="0.127401" height="0.891804" transform="rotate(-120 16.3003 163.565)" fill="white"/>
<rect x="14.2476" y="159.874" width="0.127401" height="0.891804" transform="rotate(-118 14.2476 159.874)" fill="white"/>
<rect x="12.3242" y="156.114" width="0.127401" height="0.891804" transform="rotate(-116 12.3242 156.114)" fill="white"/>
<rect x="10.5332" y="152.289" width="0.127401" height="0.891804" transform="rotate(-114 10.5332 152.289)" fill="white"/>
<rect x="8.87793" y="148.403" width="0.127401" height="0.891804" transform="rotate(-112 8.87793 148.403)" fill="white"/>
<rect x="7.3584" y="144.463" width="0.127401" height="0.891804" transform="rotate(-110 7.3584 144.463)" fill="white"/>
<rect x="5.97754" y="140.471" width="0.127401" height="0.891804" transform="rotate(-108 5.97754 140.471)" fill="white"/>
<rect x="4.73633" y="136.434" width="0.127401" height="0.891804" transform="rotate(-106 4.73633 136.434)" fill="white"/>
<rect x="3.63721" y="132.356" width="0.127401" height="0.891804" transform="rotate(-104 3.63721 132.356)" fill="white"/>
<rect x="2.68066" y="128.243" width="0.127401" height="0.891804" transform="rotate(-102 2.68066 128.243)" fill="white"/>
<rect x="1.86914" y="124.098" width="0.127401" height="0.891804" transform="rotate(-100 1.86914 124.098)" fill="white"/>
<rect x="1.20215" y="119.927" width="0.127401" height="0.891804" transform="rotate(-98 1.20215 119.927)" fill="white"/>
<rect x="0.681641" y="115.736" width="0.127401" height="0.891804" transform="rotate(-96 0.681641 115.736)" fill="white"/>
<rect x="0.307129" y="111.529" width="0.127401" height="0.891804" transform="rotate(-94 0.307129 111.529)" fill="white"/>
<rect x="0.0800781" y="107.312" width="0.127401" height="0.891804" transform="rotate(-92 0.0800781 107.312)" fill="white"/>
</g>
<defs>
<radialGradient id="paint0_radial_72_1369" cx="0" cy="0" r="1" gradientUnits="userSpaceOnUse" gradientTransform="translate(121 103.089) rotate(88.0644) scale(121.069)">
<stop stop-color="white"/>
<stop offset="1" stop-color="white" stop-opacity="0"/>
</radialGradient>
<radialGradient id="paint1_radial_72_1369" cx="0" cy="0" r="1" gradientUnits="userSpaceOnUse" gradientTransform="translate(121 103.089) rotate(90) scale(79.5959)">
<stop stop-color="white"/>
<stop offset="1" stop-color="white" stop-opacity="0"/>
</radialGradient>
</defs>
</svg>
