<svg width="246" height="180" viewBox="0 0 246 180" fill="none" xmlns="http://www.w3.org/2000/svg">
<g filter="url(#filter0_d_367_1347)">
<path d="M11.4761 105.45C10.3174 103.776 8 96.1417 8 81.3105C8 66.4793 10.3174 58.8449 11.4761 57.1712L14.9521 53.1158C15.0165 52.3433 15.7246 50.1805 18.0419 47.7086C20.9386 44.6188 27.8907 37.8598 34.0704 37.4736C40.25 37.0873 64.7755 36.7011 78.8729 36.7011C88.9148 36.7011 104.557 37.4736 131.014 37.4736C157.47 37.4736 170.988 36.8942 181.416 36.8942C191.845 36.8942 200.149 37.0873 204.976 37.6667C209.804 38.246 217.722 40.1772 218.108 40.5634C223.515 41.529 228.536 42.4945 231.819 48.6742C235.102 54.8538 238.578 68.3718 238.578 81.3105C238.578 94.2491 235.102 107.767 231.819 113.947C228.536 120.126 223.515 121.092 218.108 122.058C217.722 122.444 209.804 124.375 204.976 124.954C200.149 125.534 191.845 125.727 181.416 125.727C170.988 125.727 157.47 125.147 131.014 125.147C104.557 125.147 88.9148 125.92 78.8729 125.92C64.7755 125.92 40.2501 125.534 34.0704 125.147C27.8908 124.761 20.9386 118.002 18.0419 114.912C15.7246 112.441 15.0165 110.278 14.9521 109.505L11.4761 105.45Z" fill="url(#paint0_radial_367_1347)" fill-opacity="0.97" shape-rendering="crispEdges"/>
<path d="M11.4761 105.45C10.3174 103.776 8 96.1417 8 81.3105C8 66.4793 10.3174 58.8449 11.4761 57.1712L14.9521 53.1158C15.0165 52.3433 15.7246 50.1805 18.0419 47.7086C20.9386 44.6188 27.8907 37.8598 34.0704 37.4736C40.25 37.0873 64.7755 36.7011 78.8729 36.7011C88.9148 36.7011 104.557 37.4736 131.014 37.4736C157.47 37.4736 170.988 36.8942 181.416 36.8942C191.845 36.8942 200.149 37.0873 204.976 37.6667C209.804 38.246 217.722 40.1772 218.108 40.5634C223.515 41.529 228.536 42.4945 231.819 48.6742C235.102 54.8538 238.578 68.3718 238.578 81.3105C238.578 94.2491 235.102 107.767 231.819 113.947C228.536 120.126 223.515 121.092 218.108 122.058C217.722 122.444 209.804 124.375 204.976 124.954C200.149 125.534 191.845 125.727 181.416 125.727C170.988 125.727 157.47 125.147 131.014 125.147C104.557 125.147 88.9148 125.92 78.8729 125.92C64.7755 125.92 40.2501 125.534 34.0704 125.147C27.8908 124.761 20.9386 118.002 18.0419 114.912C15.7246 112.441 15.0165 110.278 14.9521 109.505L11.4761 105.45Z" stroke="url(#paint1_linear_367_1347)" stroke-width="0.772457" shape-rendering="crispEdges"/>
</g>
<path d="M82.1555 41.1428L78.4863 36.508L131.4 37.2805L131.4 38.2461M82.1555 41.1428L89.6869 41.1428M82.1555 41.1428L83.9579 43.8464M132.945 43.4601L135.841 51.5709L131.593 51.5709M132.945 43.4601L132.751 42.4946M132.945 43.4601C131.405 43.4601 129.663 43.4462 127.73 43.4297M132.068 40.3703L132.365 41.1428L132.751 42.4946M132.068 40.3703L131.4 38.6323L131.4 38.2461M132.068 40.3703L96.8322 40.5634M83.9579 43.8464L84.0866 44.0395L85.8247 44.0395C86.048 44.1361 86.3066 44.2444 86.5971 44.3625M83.9579 43.8464C97.0253 42.6877 123.385 42.4946 132.751 42.4946M86.5971 44.3625C89.4049 45.5037 95.2005 47.5542 101.081 48.6742C107.569 49.9101 123.997 51.1203 131.4 51.5709L131.593 51.5709M86.5971 44.3625C104.091 43.2069 118.223 43.3488 127.73 43.4297M127.73 43.4297L131.593 51.5709M131.4 38.2461C130.694 38.2754 129.651 38.3263 128.696 38.3876M126.379 38.6323C125.992 38.8254 124.447 39.0185 123.868 39.0185C123.578 39.0185 122.275 38.8254 120.971 38.6323M126.379 38.6323C126.547 38.5483 127.559 38.4605 128.696 38.3876M126.379 38.6323C125.928 38.4392 124.795 38.0529 123.868 38.0529C122.941 38.0529 121.551 38.4392 120.971 38.6323M119.04 38.3527C118.566 38.2881 118.21 38.2461 118.075 38.2461C117.495 38.2461 112.088 37.6667 111.702 37.4736C111.393 37.3191 116.465 37.9953 119.04 38.3527ZM119.04 38.3527C120.006 37.6869 121.937 37.4736 124.254 37.4736C125.49 37.4736 127.73 38.0829 128.696 38.3876M119.04 38.3527C119.582 38.4264 120.277 38.5293 120.971 38.6323" stroke="url(#paint2_linear_367_1347)" stroke-opacity="0.26" stroke-width="0.386228"/>
<path d="M82.1555 121.478L78.4863 126.113L131.4 125.341L131.4 124.375M82.1555 121.478L89.6869 121.671M82.1555 121.478L83.9579 118.775M132.945 119.161L135.841 111.05L131.593 111.05M132.945 119.161L132.751 120.126M132.945 119.161C131.405 119.161 129.663 119.175 127.73 119.191M89.6869 121.671L91.425 123.216M89.6869 121.671C89.9444 121.285 90.6525 120.513 91.425 120.513L93.9355 120.513L94.1679 121.116M132.068 122.251L132.365 121.478L132.751 120.126M132.068 122.251L131.4 123.989L131.4 124.375M132.068 122.251L96.8322 122.058L96.6883 122.058M83.9579 118.775L84.0866 118.582L85.8247 118.582C86.048 118.485 86.3066 118.377 86.5971 118.259M83.9579 118.775C97.0253 119.933 123.385 120.126 132.751 120.126M86.5971 118.259C89.4049 117.117 95.2005 115.067 101.081 113.947C107.569 112.711 123.997 111.501 131.4 111.05L131.593 111.05M86.5971 118.259C103.812 119.396 117.772 119.276 127.273 119.195L127.73 119.191M127.73 119.191L131.593 111.05M131.4 124.375C130.694 124.346 129.651 124.295 128.696 124.233M126.379 123.989C125.992 123.796 124.447 123.603 123.868 123.603C123.578 123.603 122.275 123.796 120.971 123.989M126.379 123.989C126.547 124.073 127.559 124.16 128.696 124.233M126.379 123.989C125.928 124.182 124.795 124.568 123.868 124.568C122.941 124.568 121.551 124.182 120.971 123.989M119.04 124.268C118.566 124.333 118.21 124.375 118.075 124.375C117.495 124.375 112.088 124.954 111.702 125.147C111.393 125.302 116.465 124.626 119.04 124.268ZM119.04 124.268C120.006 124.934 121.937 125.147 124.254 125.147C125.49 125.147 127.73 124.538 128.696 124.233M119.04 124.268C119.582 124.195 120.277 124.092 120.971 123.989M91.425 123.216C91.6825 124.375 92.545 127.04 93.9355 128.43C95.0922 129.587 97.3095 130.468 98.7633 130.916M91.425 123.216C91.6181 122.701 92.1974 121.594 92.9699 121.285C93.2555 121.171 93.6906 121.124 94.1679 121.116M94.1679 121.116C94.6643 121.108 95.2064 121.142 95.6735 121.189M98.7633 130.916C99.0569 131.007 99.3194 131.08 99.5358 131.134L96.6883 122.058M98.7633 130.916L95.6735 121.189M95.6735 121.189C95.9722 121.219 96.2402 121.253 96.4459 121.285L96.6883 122.058" stroke="url(#paint3_linear_367_1347)" stroke-opacity="0.26" stroke-width="0.386228"/>
<path d="M91.4255 39.4047L89.6875 40.9496C89.945 41.3359 90.6531 42.1083 91.4255 42.1083C92.198 42.1083 93.421 42.1083 93.936 42.1083L94.1685 41.5053M91.4255 39.4047C91.683 38.246 92.5456 35.581 93.936 34.1906C95.0928 33.0338 97.31 32.1533 98.7639 31.7047M91.4255 39.4047C91.6186 39.9197 92.198 41.0269 92.9704 41.3359C93.256 41.4501 93.6911 41.4974 94.1685 41.5053M94.1685 41.5053C94.6649 41.5134 95.207 41.4788 95.674 41.4321M98.7639 31.7047C99.0575 31.6141 99.32 31.5411 99.5363 31.487L96.4465 41.3359C96.2407 41.3675 95.9727 41.4023 95.674 41.4321M98.7639 31.7047L95.674 41.4321" stroke="white" stroke-opacity="0.26" stroke-width="0.386228"/>
<path d="M14.759 104.677C14.1797 102.553 12.0554 91.7387 11.8623 81.3105C12.0554 70.8823 14.1797 60.0679 14.759 57.9437M14.759 104.677C11.6692 103.519 10.3174 102.553 10.3174 102.553M14.759 104.677C24.9941 107.472 50.2534 113.845 69.4103 116.98M14.759 104.677C15.0506 105.746 15.44 107.109 15.9026 108.346M24.8009 117.423C22.7411 115.749 18.9689 112.556 18.0419 111.629C17.4664 111.054 16.3591 109.568 15.9026 108.346M24.8009 117.423L52.4163 117.423M24.8009 117.423C24.9238 117.473 25.0528 117.524 25.1872 117.578M52.4163 117.423C56.6004 117.616 65.1232 118.002 65.7411 118.002M52.4163 117.423L15.9026 108.346M65.7411 118.002C66.2297 118.002 68.0382 117.439 69.4103 116.98M65.7411 118.002C68.3804 118.646 74.045 120.011 75.59 120.32C77.1349 120.629 80.6109 121.221 82.1558 121.478M70.3759 116.843C67.9298 113.689 63.0375 101.394 63.0375 81.3105C63.0375 61.2266 67.9298 48.9317 70.3759 45.7775M70.3759 116.843L69.4103 116.98M70.3759 116.843C71.2127 117.165 82.5421 118.002 82.5421 118.002M22.4836 119.161C23.8354 120.32 28.8563 121.864 30.2081 122.058C30.7817 122.14 35.2291 123.216 35.4222 123.216C35.5021 123.216 35.846 123.117 36.1947 122.906M25.1872 117.578C28.3613 118.844 34.5957 121.137 36.9671 121.285C36.9671 121.671 36.9669 121.969 36.774 122.251M25.1872 117.578L25.1872 118.582M25.1872 119.354C23.1917 118.195 18.5827 114.681 16.1108 110.664C15.6473 110.046 15.1452 109.634 14.9521 109.505M25.1872 119.354L25.1872 118.582M25.1872 119.354C27.1827 120.513 31.9462 121.864 36.1947 122.906M36.774 122.251C34.3182 121.765 28.586 120.281 25.1872 118.582M36.774 122.251L36.773 122.252C36.614 122.484 36.4178 122.77 36.1947 122.906M82.5421 118.002C82.5421 118.002 83.7008 118.195 84.087 118.582M82.5421 118.002C82.1593 117.759 81.4004 117.304 80.4178 116.768M80.4178 116.768C79.5826 116.311 78.5858 115.795 77.5211 115.299C74.6244 113.947 71.1483 110.664 69.9896 109.119C68.831 107.574 64.5825 99.8494 64.5825 81.3105C64.5825 62.7715 68.831 55.047 69.9896 53.5021C71.1483 51.9571 74.6244 48.6742 77.5211 47.3224C78.5858 46.8255 79.5826 46.3096 80.4178 45.8534M80.4178 116.768C90.945 114.022 96.3229 111.883 108.226 110.504M199.183 106.995C185.601 107.381 152.604 108.346 129.276 109.119C120.237 109.418 113.573 109.884 108.226 110.504M199.183 106.995L199.183 105.836M199.183 106.995C199.183 107.615 199.67 108.194 200.683 108.733M199.183 105.836C181.803 106.351 143.489 107.458 129.276 107.767C115.062 108.076 108.934 108.797 107.647 109.119M199.183 105.836L199.183 99.8494M107.647 109.119C106.166 104.162 103.205 91.0434 103.205 81.3105C103.205 71.5775 106.166 58.4586 107.647 53.5021M107.647 109.119L108.226 110.504M200.683 108.733C201.877 109.369 203.803 109.948 206.521 110.471C210.186 111.175 214.16 111.469 217.541 111.05M200.683 108.733C208.839 105.836 211.452 104.098 213.86 95.0216C215.405 89.1985 215.405 82.8554 215.405 81.3105C215.405 79.7656 215.405 73.4225 213.86 67.5994C211.452 58.523 208.839 56.785 200.682 53.8883M199.183 99.8494C201.307 100.043 202.852 100.236 204.397 100.429L204.397 95.794C202.852 95.3306 200.277 95.086 199.183 95.0216M199.183 99.8494L199.183 95.0216M199.183 95.0216L199.183 67.5994M217.541 111.05C217.086 110.664 216.023 109.853 215.405 109.698C214.632 109.505 210.77 108.54 209.032 107.96C207.294 107.381 209.225 105.836 209.611 105.257C209.92 104.793 210.77 103.647 211.156 103.132C212.894 103.776 217.065 105.141 219.846 105.45C223.322 105.836 226.605 105.836 228.536 101.008C230.467 96.1803 231.047 88.8419 231.047 81.3105C231.047 73.779 230.467 66.4407 228.536 61.6128C226.605 56.785 223.322 56.785 219.846 57.1712C217.065 57.4802 212.894 58.8449 211.156 59.4886C210.77 58.9736 209.92 57.8278 209.611 57.3643C209.225 56.785 207.294 55.2401 209.032 54.6607C210.77 54.0814 214.632 53.1158 215.405 52.9227C216.023 52.7682 217.086 51.9571 217.541 51.5709M217.541 111.05C218.558 110.924 219.521 110.734 220.407 110.471M217.541 111.05L219.176 112.692M220.407 110.471C220.61 110.41 220.81 110.346 221.005 110.278C225.447 108.723 232.785 102.746 233.171 91.9318C233.364 86.5246 233.364 81.3105 233.364 81.3105C233.364 81.3105 233.364 76.0964 233.171 70.6892C232.785 59.8748 225.447 53.8979 221.005 52.3434C220.81 52.2751 220.61 52.2107 220.407 52.1502M220.407 110.471C227.571 105.45 229.336 103.695 231.047 96.5665C232.206 91.7386 232.206 83.2416 232.206 81.3105C232.206 79.3793 232.206 70.8823 231.047 66.0545C229.336 58.9263 227.571 57.1712 220.407 52.1502M219.176 112.692L220.812 114.333M219.176 112.692C215.988 113.818 207.178 116.187 197.445 116.65M220.812 114.333C218.907 115.554 214.535 117.768 209.432 118.968M220.812 114.333C222.745 113.152 224.499 111.911 226.206 110.278M197.445 116.65C200.035 115.414 201.099 114.333 201.307 113.947C200.975 113.841 200.586 113.723 200.149 113.597M197.445 116.65C191.574 117.886 185.343 118.324 182.961 118.388M182.575 117.423L174.658 111.05L184.12 111.05C189.895 111.05 196.609 112.58 200.149 113.597M182.575 117.423C185.408 117.358 191.806 117.037 194.741 116.264C197.677 115.492 199.569 114.164 200.149 113.597M182.575 117.423L182.961 118.388M182.961 118.388L184.12 120.706M184.12 120.706C187.918 120.577 197.29 120.204 204.397 119.74C206.112 119.628 207.809 119.349 209.432 118.968M184.12 120.706L183.348 123.023C193.583 122.637 201.887 122.251 209.032 121.864M209.032 121.864C211.658 120.165 213.345 119.225 213.86 118.968M209.032 121.864C206.405 123.255 204.848 124.632 204.397 125.147M213.86 118.968L209.432 118.968M213.86 118.968C215.405 118.195 219.46 118.195 222.357 116.264C224.543 114.806 226.18 112.358 227.266 110.664M213.86 118.968C216.944 118.968 219.907 118.742 222.743 117.423M231.819 104.677C233.042 102.939 235.527 97.9569 235.682 91.9318C235.836 85.9066 235.875 81.3105 235.875 81.3105C235.875 81.3105 235.836 76.7144 235.682 70.6892C235.527 64.664 233.042 59.6817 231.819 57.9437M231.819 104.677C231.37 105.223 230.647 106.11 229.94 106.995M231.819 104.677C231.284 106.092 230.254 108.564 229.085 110.857M222.743 117.423C223.991 116.842 225.64 115.878 226.605 114.912C227.52 113.998 228.285 112.425 229.085 110.857M222.743 117.423C225.253 115.299 226.605 113.947 227.764 111.629C227.893 111.37 228.023 111.108 228.15 110.847M229.94 106.995C229.231 107.883 228.537 108.77 228.15 109.312C227.913 109.643 227.619 110.114 227.266 110.664M229.94 106.995C229.648 107.659 228.934 109.238 228.15 110.847M229.085 110.857L228.15 110.847M229.085 110.857C229.305 110.857 229.692 110.848 230.155 110.822M228.15 110.847L227.266 110.664M227.266 110.664L226.206 110.278M226.206 110.278C227.569 108.974 228.903 107.421 230.274 105.45C233.364 101.008 234.523 96.9527 234.523 81.3105C234.523 65.6682 233.364 61.6128 230.274 57.1712C228.903 55.1997 227.569 53.6467 226.206 52.3434M233.557 110.471C233.429 110.471 232.901 110.509 231.819 110.664C231.255 110.745 230.66 110.794 230.155 110.822M230.155 110.822C231.546 108.581 234.562 103.094 235.488 99.077C236.647 94.056 237.226 86.7177 237.226 81.3105C237.226 75.9033 236.647 68.5649 235.488 63.544C234.562 59.5272 231.546 54.0403 230.155 51.7989M230.155 110.822C229.085 112.692 228.923 113.174 226.991 115.878C225.06 118.582 219.267 121.285 218.108 121.864M224.674 120.32C225.494 119.547 227.413 117.732 228.536 116.65C229.66 115.569 231.45 113.561 232.206 112.692M14.759 57.9437C11.6692 59.1024 10.3174 60.0679 10.3174 60.0679M14.759 57.9437C24.9941 55.1489 50.2534 48.7757 69.4103 45.6408M14.759 57.9437C15.0506 56.8746 15.44 55.5121 15.9026 54.2745M24.8009 45.1981C22.7411 46.8718 18.9689 50.0646 18.0419 50.9916C17.4664 51.5671 16.3591 53.053 15.9026 54.2745M24.8009 45.1981L52.4163 45.1981M24.8009 45.1981C24.9238 45.1485 25.0528 45.0967 25.1872 45.0431M52.4163 45.1981C56.6004 45.005 65.1232 44.6188 65.7411 44.6188M52.4163 45.1981L15.9026 54.2745M65.7411 44.6188C66.2297 44.6188 68.0382 45.1822 69.4103 45.6408M65.7411 44.6188C68.3804 43.9751 74.045 42.6104 75.59 42.3014C77.1349 41.9925 80.6109 41.4002 82.1558 41.1427M70.3759 45.7775L69.4103 45.6408M70.3759 45.7775C71.2127 45.4556 82.5421 44.6188 82.5421 44.6188M22.4836 43.4601C23.8354 42.3014 28.8563 40.7565 30.2081 40.5634C30.7817 40.4815 35.2291 39.4047 35.4222 39.4047C35.5021 39.4047 35.846 39.5038 36.1947 39.7155M25.1872 45.0431C28.3613 43.7771 34.5957 41.4841 36.9671 41.3359C36.9671 40.9496 36.9669 40.6516 36.774 40.3703M25.1872 45.0431L25.1872 44.0395M25.1872 43.267C23.1917 44.4257 18.5827 47.9404 16.1108 51.9571C15.6473 52.5751 15.1452 52.9871 14.9521 53.1158M25.1872 43.267L25.1872 44.0395M25.1872 43.267C27.1827 42.1083 31.9462 40.7565 36.1947 39.7155M36.774 40.3703C34.3182 40.8559 28.586 42.3401 25.1872 44.0395M36.774 40.3703L36.773 40.3688C36.614 40.137 36.4178 39.8509 36.1947 39.7155M82.5421 44.6188C82.5421 44.6188 83.7007 44.4257 84.087 44.0395M82.5421 44.6188C82.1593 44.8624 81.4004 45.3166 80.4178 45.8534M80.4178 45.8534C90.945 48.5994 96.3229 50.7378 108.226 52.117M199.183 55.6263C185.601 55.2401 152.604 54.2745 129.276 53.5021C120.237 53.2028 113.573 52.7365 108.226 52.117M199.183 55.6263L199.183 56.785M199.183 55.6263C199.183 55.0063 199.67 54.427 200.682 53.8883M199.183 56.785C181.803 56.27 143.489 55.1628 129.276 54.8539C115.062 54.5449 108.934 53.8239 107.647 53.5021M199.183 56.785L199.183 62.7715M107.647 53.5021L108.226 52.117M200.682 53.8883C201.877 53.2523 203.803 52.673 206.521 52.1502C210.186 51.4455 214.16 51.1522 217.541 51.5709M199.183 62.7715C201.307 62.5784 202.852 62.3853 204.397 62.1922L204.397 66.8269C202.852 67.2904 200.277 67.535 199.183 67.5994M199.183 62.7715L199.183 67.5994M217.541 51.5709C218.558 51.6969 219.521 51.8872 220.407 52.1502M217.541 51.5709L219.176 49.9294M219.176 49.9294L220.812 48.288M219.176 49.9294C215.988 48.8029 207.178 46.4341 197.445 45.9706M220.812 48.288C218.907 47.067 214.535 44.853 209.432 43.6532M220.812 48.288C222.745 49.4693 224.499 50.7104 226.206 52.3434M197.445 45.9706C200.035 47.2065 201.099 48.288 201.307 48.6742C200.975 48.7804 200.586 48.8982 200.149 49.0238M197.445 45.9706C191.574 44.7347 185.343 44.2969 182.961 44.2326M182.575 45.1981L174.658 51.5709L184.12 51.5709C189.895 51.5709 196.609 50.0411 200.149 49.0238M182.575 45.1981C185.408 45.2625 191.806 45.5844 194.741 46.3568C197.677 47.1293 199.569 48.4567 200.149 49.0238M182.575 45.1981L182.961 44.2326M182.961 44.2326L184.12 41.9152M184.12 41.9152C187.918 42.0439 197.29 42.4173 204.397 42.8808C206.112 42.9926 207.809 43.2716 209.432 43.6532M184.12 41.9152L183.348 39.5978C193.583 39.9841 201.887 40.3703 209.032 40.7565M209.032 40.7565C211.658 42.4559 213.345 43.3957 213.86 43.6532M209.032 40.7565C206.405 39.3661 204.848 37.9885 204.397 37.4736M213.86 43.6532L209.432 43.6532M213.86 43.6532C215.405 44.4257 219.46 44.4257 222.357 46.3568C224.543 47.8147 226.18 50.263 227.266 51.9571M213.86 43.6532C216.944 43.6532 219.907 43.8792 222.743 45.1981M231.819 57.9437C231.37 57.3975 230.647 56.5114 229.94 55.6263M231.819 57.9437C231.284 56.5292 230.254 54.0567 229.085 51.764M222.743 45.1981C223.991 45.7787 225.64 46.7431 226.605 47.7086C227.52 48.6232 228.285 50.1962 229.085 51.764M222.743 45.1981C225.253 47.3224 226.605 48.6742 227.764 50.9916C227.893 51.2507 228.023 51.5129 228.15 51.7743M229.94 55.6263C229.231 54.738 228.537 53.8506 228.15 53.3089C227.913 52.9776 227.619 52.5071 227.266 51.9571M229.94 55.6263C229.648 54.9618 228.934 53.3828 228.15 51.7743M229.085 51.764L228.15 51.7743M229.085 51.764C229.305 51.764 229.692 51.7728 230.155 51.7989M228.15 51.7743L227.266 51.9571M227.266 51.9571L226.206 52.3434M233.557 52.1502C233.429 52.1502 232.901 52.1116 231.819 51.9571C231.255 51.8765 230.66 51.8274 230.155 51.7989M230.155 51.7989C229.085 49.9294 228.923 49.4467 226.991 46.7431C225.06 44.0395 219.267 41.3359 218.108 40.7565M224.674 42.3014C225.494 43.0739 227.413 44.8892 228.536 45.9706C229.66 47.052 231.45 49.0604 232.206 49.9294" stroke="url(#paint4_linear_367_1347)" stroke-opacity="0.26" stroke-width="0.386228"/>
<path d="M70.9558 108.926C74.4318 113.174 78.4872 114.526 81.9633 114.912C85.0531 114.333 100.309 111.243 102.626 110.278C104.944 109.312 105.716 109.119 104.751 104.677C103.785 100.236 103.013 95.2147 102.82 93.4767C102.626 91.7387 101.275 90.58 98.9573 90.0006C96.64 89.4213 93.1639 88.2626 91.8121 87.297C90.4603 86.3315 90.4603 83.0485 90.4603 81.3105C90.4603 79.5725 90.4603 76.2895 91.8121 75.324C93.1639 74.3584 96.64 73.1997 98.9573 72.6204C101.275 72.041 102.626 70.8823 102.82 69.1443C103.013 67.4063 103.785 62.3853 104.751 57.9437C105.716 53.5021 104.944 53.309 102.626 52.3434C100.309 51.3778 85.0531 48.288 81.9633 47.7086C78.4872 48.0949 74.4318 49.4467 70.9558 53.6952C67.4797 57.9437 65.3555 72.4273 65.3555 81.3105C65.3555 90.1938 67.4797 104.677 70.9558 108.926Z" fill="#111111" stroke="white" stroke-opacity="0.26" stroke-width="0.386228"/>
<path d="M182.575 117.423L174.657 111.05L170.022 111.05M182.575 117.423L183.154 118.581M182.575 117.423C181.34 117.555 179.766 117.681 177.94 117.8M183.154 118.581L184.12 120.706M183.154 118.581C169.066 119.161 139.246 120.281 132.669 120.126M184.12 120.706C172.842 121.478 150.711 121.414 141.055 121.285M184.12 120.706C184.005 120.993 183.695 121.784 183.3 122.83M132.945 119.161L135.841 111.05L138.738 111.05M132.945 119.161L137 119.161M132.945 119.161L132.669 120.126M138.738 111.05L137 119.161M138.738 111.05L170.022 111.05M137 119.161C145.462 119.02 161.259 118.652 172.533 118.103M170.022 111.05L173.42 113.947M177.94 117.8C176.316 117.907 174.493 118.008 172.533 118.103M177.94 117.8L173.42 113.947M172.533 118.103L173.42 113.947M132.669 120.126L132.448 120.899M132.043 122.251L131.593 123.602L131.464 124.182M132.043 122.251L132.172 121.864L132.448 120.899M132.043 122.251L146.463 122.251L141.055 121.285M141.055 121.285L132.448 120.899M183.3 122.83C183.252 122.955 183.204 123.084 183.154 123.216C182.691 124.452 181.802 125.405 181.416 125.727L162.491 125.34L145.497 125.34L131.207 125.34L131.464 124.182M183.3 122.83L180.258 122.83C180.193 122.816 180.123 122.802 180.046 122.786M131.464 124.182C142.536 124.182 168.864 123.216 170.022 123.216C170.189 123.216 170.384 123.196 170.602 123.162M170.602 123.162C171.246 123.566 173.074 124.375 175.237 124.375C177.94 124.375 179.449 123.321 180.046 122.786M170.602 123.162C171.24 123.061 172.07 122.837 172.946 122.637M180.046 122.786C179.587 122.693 178.917 122.572 178.187 122.469M178.187 122.469C177.333 122.348 176.397 122.251 175.623 122.251C174.787 122.251 173.842 122.432 172.946 122.637M178.187 122.469C178.105 122.654 177.477 123.062 175.623 123.216C173.769 123.371 173.066 122.894 172.946 122.637" stroke="url(#paint5_linear_367_1347)" stroke-opacity="0.26" stroke-width="0.386228"/>
<path d="M182.575 45.1982L174.658 51.5709L170.023 51.5709M182.575 45.1982L183.155 44.0395M182.575 45.1982C181.341 45.0659 179.766 44.9399 177.941 44.8205M183.155 44.0395L184.12 41.9152M183.155 44.0395C169.067 43.4601 139.246 42.3401 132.669 42.4946M184.12 41.9152C172.842 41.1428 150.712 41.2071 141.056 41.3359M184.12 41.9152C184.005 41.6278 183.695 40.8371 183.3 39.791M132.945 43.4601L135.842 51.5709L138.738 51.5709M132.945 43.4601L137 43.4601M132.945 43.4601L132.669 42.4946M138.738 51.5709L137 43.4601M138.738 51.5709L170.023 51.5709M137 43.4601C145.463 43.6012 161.259 43.9688 172.533 44.518M170.023 51.5709L173.421 48.6742M177.941 44.8205C176.316 44.7144 174.493 44.6134 172.533 44.518M177.941 44.8205L173.421 48.6742M172.533 44.518L173.421 48.6742M132.669 42.4946L132.448 41.7221M132.044 40.3703L131.593 39.0185L131.465 38.4392M132.044 40.3703L132.173 40.7565L132.448 41.7221M132.044 40.3703L146.463 40.3703L141.056 41.3359M141.056 41.3359L132.448 41.7221M183.3 39.791C183.253 39.6657 183.204 39.5369 183.155 39.4047C182.691 38.1688 181.803 37.2161 181.417 36.8943L162.492 37.2805L145.497 37.2805L131.207 37.2805L131.465 38.4392M183.3 39.791L180.258 39.791C180.194 39.8047 180.123 39.8194 180.047 39.8349M131.465 38.4392C142.536 38.4392 168.864 39.4047 170.023 39.4047C170.19 39.4047 170.385 39.4248 170.602 39.4591M170.602 39.4591C171.246 39.0548 173.074 38.2461 175.237 38.2461C177.941 38.2461 179.449 39.2996 180.047 39.8349M170.602 39.4591C171.24 39.5599 172.07 39.7836 172.946 39.9841M180.047 39.8349C179.587 39.928 178.917 40.0489 178.188 40.1522M178.188 40.1522C177.333 40.2733 176.398 40.3703 175.623 40.3703C174.787 40.3703 173.843 40.1893 172.946 39.9841M178.188 40.1522C178.105 39.9674 177.477 39.5592 175.623 39.4047C173.769 39.2502 173.066 39.7266 172.946 39.9841" stroke="url(#paint6_linear_367_1347)" stroke-opacity="0.26" stroke-width="0.386228"/>
<path d="M185.472 81.3105C185.73 81.6968 186.785 82.5078 188.948 82.6623C189.711 82.7168 190.545 82.6287 191.352 82.4692M194.708 81.4136C194.79 81.3776 194.866 81.3431 194.935 81.3105L194.708 81.4136ZM194.708 81.4136C193.953 81.7457 192.689 82.2052 191.352 82.4692M194.708 81.4136L194.708 82.5588C193.683 82.529 191.576 82.4692 191.352 82.4692" stroke="white" stroke-opacity="0.26" stroke-width="0.386228"/>
<path d="M185.472 81.3104C185.73 80.9242 186.785 80.1131 188.948 79.9586C189.711 79.9041 190.545 79.9922 191.352 80.1517M194.708 81.2074C194.79 81.2433 194.866 81.2778 194.935 81.3104L194.708 81.2074ZM194.708 81.2074C193.953 80.8752 192.689 80.4157 191.352 80.1517M194.708 81.2074L194.708 80.0621C193.683 80.092 191.576 80.1517 191.352 80.1517" stroke="white" stroke-opacity="0.26" stroke-width="0.386228"/>
<g filter="url(#filter1_d_367_1347)">
<path fill-rule="evenodd" clip-rule="evenodd" d="M87.4853 121.902L84.1548 126.031L96.5339 125.872L96.6188 125.873C96.9763 126.669 97.506 127.613 98.0521 128.169C99.0805 129.217 100.514 129.971 101.815 130.386C101.975 130.437 102.327 130.502 102.622 130.556C102.813 130.591 102.979 130.621 103.055 130.641L101.626 125.936L113.934 125.869L131.64 125.773L131.648 124.907L131.651 124.561L131.604 123.253L131.379 121.046L131.267 119.942L129.979 113.435L127.894 113.539C126.813 113.595 125.618 113.651 124.352 113.711C117.838 114.019 109.412 114.416 104.529 115.3C99.2434 116.257 94.0262 118.049 91.4973 119.05C91.2356 119.153 91.0028 119.248 90.8015 119.333L89.242 119.319L89.1249 119.491L87.4853 121.902Z" fill="#CBBEF5" fill-opacity="0.4"/>
<path d="M84.1548 126.031L83.8851 125.813L83.4224 126.387L84.1593 126.377L84.1548 126.031ZM87.4853 121.902L87.7551 122.12L87.764 122.109L87.7719 122.097L87.4853 121.902ZM96.5339 125.872L96.5384 125.526L96.5295 125.526L96.5339 125.872ZM96.6188 125.873L96.9349 125.731L96.8442 125.53L96.6232 125.527L96.6188 125.873ZM98.0521 128.169L97.8048 128.412L97.8048 128.412L98.0521 128.169ZM101.815 130.386L101.92 130.056L101.92 130.056L101.815 130.386ZM102.622 130.556L102.685 130.215L102.685 130.215L102.622 130.556ZM103.055 130.641L102.968 130.977L103.566 131.132L103.387 130.54L103.055 130.641ZM101.626 125.936L101.624 125.589L101.159 125.592L101.295 126.037L101.626 125.936ZM113.934 125.869L113.932 125.523L113.932 125.523L113.934 125.869ZM131.64 125.773L131.642 126.12L131.983 126.118L131.987 125.777L131.64 125.773ZM131.648 124.907L131.301 124.904L131.301 124.904L131.648 124.907ZM131.651 124.561L131.998 124.564L131.998 124.556L131.998 124.548L131.651 124.561ZM131.604 123.253L131.95 123.241L131.95 123.23L131.949 123.218L131.604 123.253ZM131.379 121.046L131.034 121.081L131.034 121.081L131.379 121.046ZM131.267 119.942L131.611 119.907L131.61 119.89L131.607 119.874L131.267 119.942ZM129.979 113.435L130.319 113.368L130.26 113.074L129.961 113.089L129.979 113.435ZM127.894 113.539L127.877 113.193L127.877 113.193L127.894 113.539ZM124.352 113.711L124.368 114.057L124.368 114.057L124.352 113.711ZM104.529 115.3L104.591 115.641L104.591 115.641L104.529 115.3ZM91.4973 119.05L91.6249 119.372L91.6249 119.372L91.4973 119.05ZM90.8015 119.333L90.7984 119.68L90.8701 119.68L90.9362 119.652L90.8015 119.333ZM89.242 119.319L89.2452 118.972L89.0597 118.971L88.9554 119.124L89.242 119.319ZM89.1249 119.491L89.4115 119.686L89.4115 119.686L89.1249 119.491ZM84.4246 126.248L87.7551 122.12L87.2156 121.684L83.8851 125.813L84.4246 126.248ZM96.5295 125.526L84.1504 125.684L84.1593 126.377L96.5384 126.219L96.5295 125.526ZM96.6232 125.527L96.5384 125.526L96.5295 126.219L96.6143 126.22L96.6232 125.527ZM98.2994 127.926C97.7972 127.415 97.2878 126.516 96.9349 125.731L96.3027 126.015C96.6649 126.821 97.2148 127.811 97.8048 128.412L98.2994 127.926ZM101.92 130.056C100.658 129.653 99.2783 128.923 98.2994 127.926L97.8048 128.412C98.8828 129.51 100.371 130.289 101.71 130.716L101.92 130.056ZM102.685 130.215C102.376 130.158 102.053 130.098 101.92 130.056L101.71 130.716C101.896 130.776 102.278 130.845 102.56 130.897L102.685 130.215ZM103.142 130.306C103.051 130.282 102.867 130.248 102.685 130.215L102.56 130.897C102.758 130.933 102.908 130.961 102.968 130.977L103.142 130.306ZM101.295 126.037L102.723 130.742L103.387 130.54L101.958 125.835L101.295 126.037ZM113.932 125.523L101.624 125.589L101.628 126.283L113.936 126.216L113.932 125.523ZM131.638 125.427L113.932 125.523L113.936 126.216L131.642 126.12L131.638 125.427ZM131.301 124.904L131.293 125.77L131.987 125.777L131.995 124.91L131.301 124.904ZM131.305 124.557L131.301 124.904L131.995 124.91L131.998 124.564L131.305 124.557ZM131.258 123.266L131.305 124.573L131.998 124.548L131.95 123.241L131.258 123.266ZM131.034 121.081L131.259 123.289L131.949 123.218L131.724 121.011L131.034 121.081ZM130.922 119.977L131.034 121.081L131.724 121.011L131.611 119.907L130.922 119.977ZM129.639 113.503L130.927 120.009L131.607 119.874L130.319 113.368L129.639 113.503ZM127.912 113.885L129.996 113.782L129.961 113.089L127.877 113.193L127.912 113.885ZM124.368 114.057C125.635 113.997 126.83 113.941 127.912 113.885L127.877 113.193C126.796 113.249 125.602 113.305 124.336 113.365L124.368 114.057ZM104.591 115.641C109.445 114.763 117.843 114.365 124.368 114.057L124.336 113.365C117.833 113.672 109.378 114.07 104.467 114.959L104.591 115.641ZM91.6249 119.372C94.1404 118.376 99.3347 116.592 104.591 115.641L104.467 114.959C99.1521 115.921 93.912 117.721 91.3698 118.727L91.6249 119.372ZM90.9362 119.652C91.1347 119.569 91.3652 119.475 91.6249 119.372L91.3698 118.727C91.1061 118.832 90.8708 118.928 90.6669 119.014L90.9362 119.652ZM89.2388 119.665L90.7984 119.68L90.8047 118.987L89.2452 118.972L89.2388 119.665ZM89.4115 119.686L89.5286 119.514L88.9554 119.124L88.8383 119.296L89.4115 119.686ZM87.7719 122.097L89.4115 119.686L88.8383 119.296L87.1988 121.707L87.7719 122.097Z" fill="#CBBEF5"/>
<path d="M95.7883 123.538L94.2415 122.137C94.4758 121.793 95.1175 121.106 95.8106 121.112L98.0633 121.133L98.2669 121.676C98.7124 121.673 98.849 121.685 99.2677 121.731C99.5354 121.76 100.125 121.816 100.31 121.847L100.521 122.542L101.551 125.936L103.001 130.709C102.807 130.659 102.024 130.538 101.761 130.454C100.46 130.04 99.0265 129.285 97.998 128.237C97.4359 127.665 96.8913 126.681 96.5338 125.872C96.105 124.902 95.9091 124.106 95.7883 123.538Z" fill="#CBBEF5" fill-opacity="0.4"/>
<path d="M87.4852 121.902L84.1547 126.031L96.5338 125.872M87.4852 121.902L94.2415 122.137M87.4852 121.902L89.1248 119.491M94.2415 122.137L95.7883 123.538M94.2415 122.137C94.4758 121.793 95.1175 121.106 95.8106 121.112L98.0633 121.133L98.2669 121.676M131.604 123.253L131.651 124.561L131.648 124.907L131.64 125.773L113.934 125.869L101.551 125.936M131.604 123.253L100.521 122.542M131.604 123.253L131.379 121.046M100.521 122.542L100.31 121.847C100.125 121.816 99.5354 121.76 99.2677 121.731C98.849 121.685 98.7124 121.673 98.2669 121.676M100.521 122.542L101.551 125.936M89.1248 119.491L89.2419 119.319L90.8014 119.333C91.0026 119.248 91.2355 119.153 91.4972 119.05C94.026 118.049 99.2433 116.257 104.529 115.3C110.361 114.245 121.248 113.882 127.894 113.539L129.978 113.435L131.267 119.942L131.379 121.046M89.1248 119.491C100.841 120.638 122.975 120.968 131.379 121.046M95.7883 123.538C95.9659 123.078 96.4948 122.089 97.1905 121.818C97.4477 121.718 97.8385 121.679 98.2669 121.676M95.7883 123.538C95.9091 124.106 96.105 124.902 96.5338 125.872M101.551 125.936L103.001 130.709C102.807 130.659 102.024 130.538 101.761 130.454C100.46 130.04 99.0265 129.285 97.998 128.237C97.4359 127.665 96.8913 126.681 96.5338 125.872" stroke="#CBBEF5" stroke-width="0.693151"/>
</g>
<g filter="url(#filter2_d_367_1347)">
<path fill-rule="evenodd" clip-rule="evenodd" d="M88.1107 39.8409L84.8676 35.6434L97.2406 36.0615L97.3258 36.0622C97.7 35.2748 98.2493 34.3418 98.807 33.7971C99.8572 32.7714 101.306 32.0468 102.616 31.6597C102.776 31.6121 103.13 31.5548 103.426 31.5068C103.617 31.4758 103.784 31.4487 103.861 31.4306L102.333 36.1047L114.637 36.4297L132.337 36.8972L132.327 37.7635L132.323 38.1101L132.248 39.4159L131.977 41.6185L131.841 42.7197L130.417 49.1976L128.335 49.0505C127.255 48.9719 126.062 48.8905 124.797 48.8041C118.291 48.3598 109.875 47.7852 105.012 46.7992C99.7477 45.7319 94.5692 43.8307 92.0619 42.777C91.8025 42.6679 91.5716 42.5679 91.3722 42.4789L89.8128 42.4605L89.6993 42.2859L88.1107 39.8409Z" fill="#CBBEF5" fill-opacity="0.4"/>
<path d="M84.8676 35.6434L84.5933 35.8553L84.1427 35.2721L84.8793 35.297L84.8676 35.6434ZM88.1107 39.8409L88.3849 39.629L88.3936 39.6402L88.4013 39.6521L88.1107 39.8409ZM97.2406 36.0615L97.2378 36.4082L97.2289 36.4079L97.2406 36.0615ZM97.3258 36.0622L97.6388 36.211L97.544 36.4106L97.323 36.4088L97.3258 36.0622ZM98.807 33.7971L98.5648 33.5492L98.5648 33.5492L98.807 33.7971ZM102.616 31.6597L102.714 31.992L102.714 31.992L102.616 31.6597ZM103.426 31.5068L103.482 31.8489L103.482 31.8489L103.426 31.5068ZM103.861 31.4306L103.781 31.0934L104.382 30.9506L104.19 31.5383L103.861 31.4306ZM102.333 36.1047L102.324 36.4512L101.86 36.4389L102.004 35.9971L102.333 36.1047ZM114.637 36.4297L114.646 36.0832L114.646 36.0832L114.637 36.4297ZM132.337 36.8972L132.346 36.5507L132.688 36.5597L132.683 36.9013L132.337 36.8972ZM132.327 37.7635L131.98 37.7595L131.98 37.7594L132.327 37.7635ZM132.323 38.1101L132.669 38.1142L132.669 38.122L132.669 38.1299L132.323 38.1101ZM132.248 39.4159L132.594 39.4357L132.593 39.447L132.592 39.4583L132.248 39.4159ZM131.977 41.6185L131.633 41.5761L131.633 41.5761L131.977 41.6185ZM131.841 42.7197L132.185 42.7621L132.183 42.7783L132.18 42.7942L131.841 42.7197ZM130.417 49.1976L130.755 49.272L130.691 49.5644L130.392 49.5433L130.417 49.1976ZM128.335 49.0505L128.311 49.3962L128.31 49.3962L128.335 49.0505ZM124.797 48.8041L124.821 48.4583L124.821 48.4583L124.797 48.8041ZM105.012 46.7992L105.081 46.4595L105.081 46.4595L105.012 46.7992ZM92.0619 42.777L92.1962 42.4574L92.1962 42.4574L92.0619 42.777ZM91.3722 42.4789L91.3763 42.1324L91.4481 42.1332L91.5135 42.1625L91.3722 42.4789ZM89.8128 42.4605L89.8087 42.8071L89.6232 42.8049L89.5221 42.6493L89.8128 42.4605ZM89.6993 42.2859L89.4087 42.4747L89.4087 42.4747L89.6993 42.2859ZM85.1418 35.4315L88.3849 39.629L87.8364 40.0528L84.5933 35.8553L85.1418 35.4315ZM97.2289 36.4079L84.8559 35.9898L84.8793 35.297L97.2523 35.7152L97.2289 36.4079ZM97.323 36.4088L97.2378 36.4081L97.2435 35.715L97.3287 35.7157L97.323 36.4088ZM99.0492 34.0451C98.5363 34.5459 98.0081 35.4338 97.6388 36.211L97.0128 35.9135C97.3918 35.1157 97.9623 34.1376 98.5648 33.5492L99.0492 34.0451ZM102.714 31.992C101.443 32.3677 100.049 33.0688 99.0492 34.0451L98.5648 33.5492C99.6656 32.4741 101.169 31.7258 102.517 31.3273L102.714 31.992ZM103.482 31.8489C103.172 31.8992 102.848 31.9525 102.714 31.992L102.517 31.3273C102.705 31.2718 103.088 31.2105 103.371 31.1647L103.482 31.8489ZM103.941 31.7678C103.849 31.7897 103.664 31.8193 103.482 31.8489L103.371 31.1647C103.57 31.1323 103.72 31.1078 103.781 31.0934L103.941 31.7678ZM102.004 35.9971L103.531 31.323L104.19 31.5383L102.663 36.2124L102.004 35.9971ZM114.628 36.7761L102.324 36.4512L102.343 35.7583L114.646 36.0832L114.628 36.7761ZM132.328 37.2436L114.628 36.7761L114.646 36.0832L132.346 36.5507L132.328 37.2436ZM131.98 37.7594L131.99 36.8931L132.683 36.9013L132.673 37.7676L131.98 37.7594ZM131.976 38.106L131.98 37.7595L132.673 37.7676L132.669 38.1142L131.976 38.106ZM131.902 39.3961L131.977 38.0903L132.669 38.1299L132.594 39.4357L131.902 39.3961ZM131.633 41.5761L131.904 39.3736L132.592 39.4583L132.321 41.6608L131.633 41.5761ZM131.497 42.6774L131.633 41.5761L132.321 41.6608L132.185 42.7621L131.497 42.6774ZM130.078 49.1232L131.503 42.6453L132.18 42.7942L130.755 49.272L130.078 49.1232ZM128.36 48.7048L130.441 48.8519L130.392 49.5433L128.311 49.3962L128.36 48.7048ZM124.821 48.4583C126.086 48.5447 127.279 48.6262 128.36 48.7048L128.31 49.3962C127.231 49.3176 126.039 49.2363 124.774 49.1499L124.821 48.4583ZM105.081 46.4595C109.916 47.4398 118.304 48.0133 124.821 48.4583L124.774 49.1499C118.278 48.7064 109.835 48.1305 104.943 47.1388L105.081 46.4595ZM92.1962 42.4574C94.6902 43.5056 99.846 45.3982 105.081 46.4595L104.943 47.1388C99.6494 46.0656 94.4482 44.1558 91.9276 43.0965L92.1962 42.4574ZM91.5135 42.1625C91.7103 42.2503 91.9387 42.3492 92.1962 42.4574L91.9276 43.0965C91.6662 42.9866 91.433 42.8856 91.2309 42.7954L91.5135 42.1625ZM89.8169 42.114L91.3763 42.1324L91.3681 42.8255L89.8087 42.8071L89.8169 42.114ZM89.9899 42.097L90.1034 42.2717L89.5221 42.6493L89.4087 42.4747L89.9899 42.097ZM88.4013 39.6521L89.9899 42.097L89.4087 42.4747L87.8201 40.0297L88.4013 39.6521Z" fill="#CBBEF5"/>
<path d="M96.4462 38.3796L94.8703 39.7474C95.0973 40.0967 95.7244 40.7973 96.4175 40.8055L98.6701 40.8321L98.8851 40.2935C99.3304 40.306 99.4672 40.2961 99.8868 40.2592C100.155 40.2356 100.746 40.1918 100.931 40.1656L101.157 39.4751L102.258 36.1027L103.808 31.3613C103.613 31.4075 102.827 31.5122 102.563 31.5904C101.253 31.9775 99.8042 32.7021 98.754 33.7278C98.18 34.2884 97.6149 35.2603 97.2405 36.0615C96.7914 37.0225 96.5789 37.8142 96.4462 38.3796Z" fill="#CBBEF5" fill-opacity="0.4"/>
<path d="M88.1105 39.8409L84.8674 35.6434L97.2405 36.0615M88.1105 39.8409L94.8703 39.7474M88.1105 39.8409L89.6991 42.2859M94.8703 39.7474L96.4462 38.3796M94.8703 39.7474C95.0973 40.0967 95.7244 40.7973 96.4175 40.8055L98.6701 40.8321L98.8851 40.2935M132.248 39.4159L132.322 38.1101L132.327 37.7635L132.337 36.8972L114.637 36.4297L102.258 36.1027M132.248 39.4159L101.157 39.4751M132.248 39.4159L131.977 41.6185M101.157 39.4751L100.931 40.1656C100.746 40.1918 100.155 40.2356 99.8868 40.2592C99.4672 40.2961 99.3304 40.306 98.8851 40.2935M101.157 39.4751L102.258 36.1027M89.6991 42.2859L89.8126 42.4605L91.3721 42.4789C91.5715 42.568 91.8023 42.6679 92.0618 42.777C94.569 43.8307 99.7475 45.7319 105.012 46.7992C110.821 47.9769 121.698 48.5678 128.335 49.0505L130.417 49.1976L131.841 42.7197L131.977 41.6185M89.6991 42.2859C101.436 41.3847 123.573 41.5192 131.977 41.6185M96.4462 38.3796C96.614 38.8438 97.1221 39.8433 97.8119 40.1288C98.0669 40.2343 98.4569 40.2814 98.8851 40.2935M96.4462 38.3796C96.5789 37.8142 96.7914 37.0225 97.2405 36.0615M102.258 36.1027L103.808 31.3613C103.613 31.4075 102.827 31.5122 102.563 31.5904C101.253 31.9775 99.8042 32.7021 98.754 33.7278C98.18 34.2884 97.6149 35.2603 97.2405 36.0615" stroke="#CBBEF5" stroke-width="0.693151"/>
</g>
<defs>
<filter id="filter0_d_367_1347" x="0.661661" y="29.3628" width="245.255" height="103.895" filterUnits="userSpaceOnUse" color-interpolation-filters="sRGB">
<feFlood flood-opacity="0" result="BackgroundImageFix"/>
<feColorMatrix in="SourceAlpha" type="matrix" values="0 0 0 0 0 0 0 0 0 0 0 0 0 0 0 0 0 0 127 0" result="hardAlpha"/>
<feOffset/>
<feGaussianBlur stdDeviation="3.47605"/>
<feComposite in2="hardAlpha" operator="out"/>
<feColorMatrix type="matrix" values="0 0 0 0 0 0 0 0 0 0 0 0 0 0 0 0 0 0 1 0"/>
<feBlend mode="normal" in2="BackgroundImageFix" result="effect1_dropShadow_367_1347"/>
<feBlend mode="normal" in="SourceGraphic" in2="effect1_dropShadow_367_1347" result="shape"/>
</filter>
<filter id="filter1_d_367_1347" x="73.0251" y="102.677" width="69.3702" height="38.9203" filterUnits="userSpaceOnUse" color-interpolation-filters="sRGB">
<feFlood flood-opacity="0" result="BackgroundImageFix"/>
<feColorMatrix in="SourceAlpha" type="matrix" values="0 0 0 0 0 0 0 0 0 0 0 0 0 0 0 0 0 0 127 0" result="hardAlpha"/>
<feOffset/>
<feGaussianBlur stdDeviation="5.19863"/>
<feComposite in2="hardAlpha" operator="out"/>
<feColorMatrix type="matrix" values="0 0 0 0 0.796078 0 0 0 0 0.745098 0 0 0 0 0.960784 0 0 0 0.49 0"/>
<feBlend mode="normal" in2="BackgroundImageFix" result="effect1_dropShadow_367_1347"/>
<feBlend mode="normal" in="SourceGraphic" in2="effect1_dropShadow_367_1347" result="shape"/>
</filter>
<filter id="filter2_d_367_1347" x="73.7453" y="20.484" width="69.3395" height="39.4778" filterUnits="userSpaceOnUse" color-interpolation-filters="sRGB">
<feFlood flood-opacity="0" result="BackgroundImageFix"/>
<feColorMatrix in="SourceAlpha" type="matrix" values="0 0 0 0 0 0 0 0 0 0 0 0 0 0 0 0 0 0 127 0" result="hardAlpha"/>
<feOffset/>
<feGaussianBlur stdDeviation="5.19863"/>
<feComposite in2="hardAlpha" operator="out"/>
<feColorMatrix type="matrix" values="0 0 0 0 0.796078 0 0 0 0 0.745098 0 0 0 0 0.960784 0 0 0 0.49 0"/>
<feBlend mode="normal" in2="BackgroundImageFix" result="effect1_dropShadow_367_1347"/>
<feBlend mode="normal" in="SourceGraphic" in2="effect1_dropShadow_367_1347" result="shape"/>
</filter>
<radialGradient id="paint0_radial_367_1347" cx="0" cy="0" r="1" gradientUnits="userSpaceOnUse" gradientTransform="translate(123.289 81.3105) rotate(-44.8305) scale(276.929 107.154)">
<stop stop-color="#1D1D1D"/>
<stop offset="1"/>
</radialGradient>
<linearGradient id="paint1_linear_367_1347" x1="10.7036" y1="118.968" x2="210.77" y2="30.9077" gradientUnits="userSpaceOnUse">
<stop stop-color="#CECECE" stop-opacity="0.76"/>
<stop offset="0.25" stop-color="#838383" stop-opacity="0.53"/>
<stop offset="0.484375" stop-color="#C4C4C4" stop-opacity="0.515625"/>
<stop offset="0.677083" stop-color="#E1E1E1" stop-opacity="0.6"/>
<stop offset="0.854167" stop-color="#CFCFCF" stop-opacity="0.23"/>
<stop offset="1" stop-color="#CFCFCF" stop-opacity="0.63"/>
</linearGradient>
<linearGradient id="paint2_linear_367_1347" x1="81.383" y1="66.8269" x2="135.841" y2="31.4871" gradientUnits="userSpaceOnUse">
<stop stop-color="white"/>
<stop offset="0.182292" stop-color="white" stop-opacity="0.51"/>
<stop offset="0.546875" stop-color="white"/>
<stop offset="0.786458" stop-color="white" stop-opacity="0.44"/>
<stop offset="0.994792" stop-color="white"/>
</linearGradient>
<linearGradient id="paint3_linear_367_1347" x1="78.2932" y1="144.073" x2="138.352" y2="108.153" gradientUnits="userSpaceOnUse">
<stop stop-color="white"/>
<stop offset="0.182292" stop-color="white" stop-opacity="0.51"/>
<stop offset="0.546875" stop-color="white"/>
<stop offset="0.786458" stop-color="white" stop-opacity="0.44"/>
<stop offset="0.994792" stop-color="white"/>
</linearGradient>
<linearGradient id="paint4_linear_367_1347" x1="35.036" y1="142.335" x2="230.467" y2="26.6592" gradientUnits="userSpaceOnUse">
<stop stop-color="white" stop-opacity="0.31"/>
<stop offset="0.291667" stop-color="white"/>
<stop offset="0.536458" stop-color="white" stop-opacity="0.26"/>
<stop offset="0.770833" stop-color="white"/>
<stop offset="1" stop-color="white" stop-opacity="0.25"/>
</linearGradient>
<linearGradient id="paint5_linear_367_1347" x1="131.207" y1="140.983" x2="191.265" y2="112.788" gradientUnits="userSpaceOnUse">
<stop stop-color="white"/>
<stop offset="0.182292" stop-color="white" stop-opacity="0.51"/>
<stop offset="0.546875" stop-color="white"/>
<stop offset="0.786458" stop-color="white" stop-opacity="0.44"/>
<stop offset="0.994792" stop-color="white"/>
</linearGradient>
<linearGradient id="paint6_linear_367_1347" x1="127.345" y1="57.3644" x2="189.141" y2="33.6113" gradientUnits="userSpaceOnUse">
<stop stop-color="white"/>
<stop offset="0.182292" stop-color="white" stop-opacity="0.51"/>
<stop offset="0.546875" stop-color="white"/>
<stop offset="0.786458" stop-color="white" stop-opacity="0.44"/>
<stop offset="0.994792" stop-color="white"/>
</linearGradient>
</defs>
</svg>
