<svg width="246" height="149" viewBox="0 0 246 149" fill="none" xmlns="http://www.w3.org/2000/svg">
<g filter="url(#filter0_f_367_1348)">
<circle cx="127.217" cy="61" r="23" fill="#9868FF"/>
</g>
<g filter="url(#filter1_d_367_1348)">
<path d="M11.4761 120.224C10.3174 118.55 8 110.915 8 96.0843C8 81.2531 10.3174 73.6187 11.4761 71.945L14.9521 67.8896C15.0165 67.1171 15.7246 64.9543 18.0419 62.4824C20.9386 59.3926 27.8907 52.6336 34.0704 52.2474C40.25 51.8611 64.7755 51.4749 78.8729 51.4749C88.9148 51.4749 104.557 52.2474 131.014 52.2474C157.47 52.2474 170.988 51.668 181.416 51.668C191.845 51.668 200.149 51.8611 204.976 52.4405C209.804 53.0198 217.722 54.951 218.108 55.3372C223.515 56.3028 228.536 57.2683 231.819 63.448C235.102 69.6276 238.578 83.1456 238.578 96.0843C238.578 109.023 235.102 122.541 231.819 128.721C228.536 134.9 223.515 135.866 218.108 136.831C217.722 137.218 209.804 139.149 204.976 139.728C200.149 140.307 191.845 140.501 181.416 140.501C170.988 140.501 157.47 139.921 131.014 139.921C104.557 139.921 88.9148 140.694 78.8729 140.694C64.7755 140.694 40.2501 140.307 34.0704 139.921C27.8908 139.535 20.9386 132.776 18.0419 129.686C15.7246 127.214 15.0165 125.051 14.9521 124.279L11.4761 120.224Z" fill="url(#paint0_radial_367_1348)" fill-opacity="0.97" shape-rendering="crispEdges"/>
<path d="M11.4761 120.224C10.3174 118.55 8 110.915 8 96.0843C8 81.2531 10.3174 73.6187 11.4761 71.945L14.9521 67.8896C15.0165 67.1171 15.7246 64.9543 18.0419 62.4824C20.9386 59.3926 27.8907 52.6336 34.0704 52.2474C40.25 51.8611 64.7755 51.4749 78.8729 51.4749C88.9148 51.4749 104.557 52.2474 131.014 52.2474C157.47 52.2474 170.988 51.668 181.416 51.668C191.845 51.668 200.149 51.8611 204.976 52.4405C209.804 53.0198 217.722 54.951 218.108 55.3372C223.515 56.3028 228.536 57.2683 231.819 63.448C235.102 69.6276 238.578 83.1456 238.578 96.0843C238.578 109.023 235.102 122.541 231.819 128.721C228.536 134.9 223.515 135.866 218.108 136.831C217.722 137.218 209.804 139.149 204.976 139.728C200.149 140.307 191.845 140.501 181.416 140.501C170.988 140.501 157.47 139.921 131.014 139.921C104.557 139.921 88.9148 140.694 78.8729 140.694C64.7755 140.694 40.2501 140.307 34.0704 139.921C27.8908 139.535 20.9386 132.776 18.0419 129.686C15.7246 127.214 15.0165 125.051 14.9521 124.279L11.4761 120.224Z" stroke="url(#paint1_linear_367_1348)" stroke-width="0.772457" shape-rendering="crispEdges"/>
</g>
<path d="M82.1555 55.9166L78.4863 51.2818L131.4 52.0543L131.4 53.0199M82.1555 55.9166L89.6869 55.9166M82.1555 55.9166L83.9579 58.6202M132.945 58.2339L135.841 66.3447L131.593 66.3447M132.945 58.2339L132.751 57.2684M132.945 58.2339C131.405 58.2339 129.663 58.22 127.73 58.2035M132.068 55.1441L132.365 55.9166L132.751 57.2684M132.068 55.1441L131.4 53.4061L131.4 53.0199M132.068 55.1441L96.8322 55.3372M83.9579 58.6202L84.0866 58.8133L85.8247 58.8133C86.048 58.9099 86.3066 59.0182 86.5971 59.1363M83.9579 58.6202C97.0253 57.4615 123.385 57.2684 132.751 57.2684M86.5971 59.1363C89.4049 60.2775 95.2005 62.328 101.081 63.448C107.569 64.6839 123.997 65.8941 131.4 66.3447L131.593 66.3447M86.5971 59.1363C104.091 57.9807 118.223 58.1226 127.73 58.2035M127.73 58.2035L131.593 66.3447M131.4 53.0199C130.694 53.0492 129.651 53.1001 128.696 53.1614M126.379 53.4061C125.992 53.5992 124.447 53.7923 123.868 53.7923C123.578 53.7923 122.275 53.5992 120.971 53.4061M126.379 53.4061C126.547 53.3221 127.559 53.2343 128.696 53.1614M126.379 53.4061C125.928 53.213 124.795 52.8267 123.868 52.8267C122.941 52.8267 121.551 53.213 120.971 53.4061M119.04 53.1265C118.566 53.062 118.21 53.0199 118.075 53.0199C117.495 53.0199 112.088 52.4405 111.702 52.2474C111.393 52.0929 116.465 52.7691 119.04 53.1265ZM119.04 53.1265C120.006 52.4607 121.937 52.2474 124.254 52.2474C125.49 52.2474 127.73 52.8567 128.696 53.1614M119.04 53.1265C119.582 53.2002 120.277 53.3031 120.971 53.4061" stroke="url(#paint2_linear_367_1348)" stroke-opacity="0.26" stroke-width="0.386228"/>
<path d="M82.1555 136.252L78.4863 140.887L131.4 140.114L131.4 139.149M82.1555 136.252L89.6869 136.445M82.1555 136.252L83.9579 133.548M132.945 133.935L135.841 125.824L131.593 125.824M132.945 133.935L132.751 134.9M132.945 133.935C131.405 133.935 129.663 133.949 127.73 133.965M89.6869 136.445L91.425 137.99M89.6869 136.445C89.9444 136.059 90.6525 135.286 91.425 135.286L93.9355 135.286L94.1679 135.89M132.068 137.025L132.365 136.252L132.751 134.9M132.068 137.025L131.4 138.763L131.4 139.149M132.068 137.025L96.8322 136.831L96.6883 136.831M83.9579 133.548L84.0866 133.355L85.8247 133.355C86.048 133.259 86.3066 133.15 86.5971 133.032M83.9579 133.548C97.0253 134.707 123.385 134.9 132.751 134.9M86.5971 133.032C89.4049 131.891 95.2005 129.841 101.081 128.721C107.569 127.485 123.997 126.275 131.4 125.824L131.593 125.824M86.5971 133.032C103.812 134.17 117.772 134.05 127.273 133.969L127.73 133.965M127.73 133.965L131.593 125.824M131.4 139.149C130.694 139.119 129.651 139.069 128.696 139.007M126.379 138.763C125.992 138.569 124.447 138.376 123.868 138.376C123.578 138.376 122.275 138.569 120.971 138.763M126.379 138.763C126.547 138.847 127.559 138.934 128.696 139.007M126.379 138.763C125.928 138.956 124.795 139.342 123.868 139.342C122.941 139.342 121.551 138.956 120.971 138.763M119.04 139.042C118.566 139.107 118.21 139.149 118.075 139.149C117.495 139.149 112.088 139.728 111.702 139.921C111.393 140.076 116.465 139.4 119.04 139.042ZM119.04 139.042C120.006 139.708 121.937 139.921 124.254 139.921C125.49 139.921 127.73 139.312 128.696 139.007M119.04 139.042C119.582 138.968 120.277 138.866 120.971 138.763M91.425 137.99C91.6825 139.149 92.545 141.814 93.9355 143.204C95.0922 144.361 97.3095 145.242 98.7633 145.69M91.425 137.99C91.6181 137.475 92.1974 136.368 92.9699 136.059C93.2555 135.945 93.6906 135.897 94.1679 135.89M94.1679 135.89C94.6643 135.881 95.2064 135.916 95.6735 135.963M98.7633 145.69C99.0569 145.781 99.3194 145.854 99.5358 145.908L96.6883 136.831M98.7633 145.69L95.6735 135.963M95.6735 135.963C95.9722 135.993 96.2402 136.027 96.4459 136.059L96.6883 136.831" stroke="url(#paint3_linear_367_1348)" stroke-opacity="0.26" stroke-width="0.386228"/>
<path d="M91.4255 54.1785L89.6875 55.7234C89.945 56.1097 90.6531 56.8821 91.4255 56.8821C92.198 56.8821 93.421 56.8821 93.936 56.8821L94.1685 56.2791M91.4255 54.1785C91.683 53.0198 92.5456 50.3549 93.936 48.9644C95.0928 47.8076 97.31 46.9271 98.7639 46.4785M91.4255 54.1785C91.6186 54.6935 92.198 55.8007 92.9704 56.1097C93.256 56.2239 93.6911 56.2712 94.1685 56.2791M94.1685 56.2791C94.6649 56.2872 95.207 56.2526 95.674 56.2059M98.7639 46.4785C99.0575 46.3879 99.32 46.3149 99.5363 46.2608L96.4465 56.1097C96.2407 56.1413 95.9727 56.1761 95.674 56.2059M98.7639 46.4785L95.674 56.2059" stroke="white" stroke-opacity="0.26" stroke-width="0.386228"/>
<path d="M14.759 119.451C14.1797 117.327 12.0554 106.512 11.8623 96.0843C12.0554 85.6561 14.1797 74.8417 14.759 72.7175M14.759 119.451C11.6692 118.292 10.3174 117.327 10.3174 117.327M14.759 119.451C24.9941 122.246 50.2534 128.619 69.4103 131.754M14.759 119.451C15.0506 120.52 15.44 121.883 15.9026 123.12M24.8009 132.197C22.7411 130.523 18.9689 127.33 18.0419 126.403C17.4664 125.828 16.3591 124.342 15.9026 123.12M24.8009 132.197L52.4163 132.197M24.8009 132.197C24.9238 132.246 25.0528 132.298 25.1872 132.352M52.4163 132.197C56.6004 132.39 65.1232 132.776 65.7411 132.776M52.4163 132.197L15.9026 123.12M65.7411 132.776C66.2297 132.776 68.0382 132.213 69.4103 131.754M65.7411 132.776C68.3804 133.42 74.045 134.784 75.59 135.093C77.1349 135.402 80.6109 135.995 82.1558 136.252M70.3759 131.617C67.9298 128.463 63.0375 116.168 63.0375 96.0843C63.0375 76.0004 67.9298 63.7055 70.3759 60.5513M70.3759 131.617L69.4103 131.754M70.3759 131.617C71.2127 131.939 82.5421 132.776 82.5421 132.776M22.4836 133.935C23.8354 135.093 28.8563 136.638 30.2081 136.831C30.7817 136.913 35.2291 137.99 35.4222 137.99C35.5021 137.99 35.846 137.891 36.1947 137.679M25.1872 132.352C28.3613 133.618 34.5957 135.911 36.9671 136.059C36.9671 136.445 36.9669 136.743 36.774 137.024M25.1872 132.352L25.1872 133.355M25.1872 134.128C23.1917 132.969 18.5827 129.454 16.1108 125.438C15.6473 124.82 15.1452 124.408 14.9521 124.279M25.1872 134.128L25.1872 133.355M25.1872 134.128C27.1827 135.286 31.9462 136.638 36.1947 137.679M36.774 137.024C34.3182 136.539 28.586 135.055 25.1872 133.355M36.774 137.024L36.773 137.026C36.614 137.258 36.4178 137.544 36.1947 137.679M82.5421 132.776C82.5421 132.776 83.7008 132.969 84.087 133.355M82.5421 132.776C82.1593 132.532 81.4004 132.078 80.4178 131.541M80.4178 131.541C79.5826 131.085 78.5858 130.569 77.5211 130.072C74.6244 128.721 71.1483 125.438 69.9896 123.893C68.831 122.348 64.5825 114.623 64.5825 96.0843C64.5825 77.5453 68.831 69.8208 69.9896 68.2759C71.1483 66.7309 74.6244 63.448 77.5211 62.0962C78.5858 61.5993 79.5826 61.0834 80.4178 60.6272M80.4178 131.541C90.945 128.795 96.3229 126.657 108.226 125.278M199.183 121.768C185.601 122.155 152.604 123.12 129.276 123.893C120.237 124.192 113.573 124.658 108.226 125.278M199.183 121.768L199.183 120.61M199.183 121.768C199.183 122.388 199.67 122.968 200.683 123.506M199.183 120.61C181.803 121.125 143.489 122.232 129.276 122.541C115.062 122.85 108.934 123.571 107.647 123.893M199.183 120.61L199.183 114.623M107.647 123.893C106.166 118.936 103.205 105.817 103.205 96.0843C103.205 86.3513 106.166 73.2325 107.647 68.2759M107.647 123.893L108.226 125.278M200.683 123.506C201.877 124.142 203.803 124.722 206.521 125.245C210.186 125.949 214.16 126.243 217.541 125.824M200.683 123.506C208.839 120.61 211.452 118.872 213.86 109.795C215.405 103.972 215.405 97.6292 215.405 96.0843C215.405 94.5394 215.405 88.1963 213.86 82.3732C211.452 73.2968 208.839 71.5588 200.682 68.6621M199.183 114.623C201.307 114.816 202.852 115.009 204.397 115.203L204.397 110.568C202.852 110.104 200.277 109.86 199.183 109.795M199.183 114.623L199.183 109.795M199.183 109.795L199.183 82.3732M217.541 125.824C217.086 125.438 216.023 124.627 215.405 124.472C214.632 124.279 210.77 123.313 209.032 122.734C207.294 122.155 209.225 120.61 209.611 120.03C209.92 119.567 210.77 118.421 211.156 117.906C212.894 118.55 217.065 119.915 219.846 120.224C223.322 120.61 226.605 120.61 228.536 115.782C230.467 110.954 231.047 103.616 231.047 96.0843C231.047 88.5528 230.467 81.2145 228.536 76.3866C226.605 71.5588 223.322 71.5588 219.846 71.945C217.065 72.254 212.894 73.6187 211.156 74.2624C210.77 73.7474 209.92 72.6016 209.611 72.1381C209.225 71.5588 207.294 70.0139 209.032 69.4345C210.77 68.8552 214.632 67.8896 215.405 67.6965C216.023 67.542 217.086 66.7309 217.541 66.3447M217.541 125.824C218.558 125.698 219.521 125.508 220.407 125.245M217.541 125.824L219.176 127.465M220.407 125.245C220.61 125.184 220.81 125.12 221.005 125.051C225.447 123.497 232.785 117.52 233.171 106.706C233.364 101.298 233.364 96.0843 233.364 96.0843C233.364 96.0843 233.364 90.8702 233.171 85.463C232.785 74.6486 225.447 68.6717 221.005 67.1172C220.81 67.0489 220.61 66.9845 220.407 66.9241M220.407 125.245C227.571 120.224 229.336 118.468 231.047 111.34C232.206 106.512 232.206 98.0154 232.206 96.0843C232.206 94.1531 232.206 85.6561 231.047 80.8283C229.336 73.7001 227.571 71.945 220.407 66.9241M219.176 127.465L220.812 129.107M219.176 127.465C215.988 128.592 207.178 130.961 197.445 131.424M220.812 129.107C218.907 130.328 214.535 132.542 209.432 133.742M220.812 129.107C222.745 127.925 224.499 126.684 226.206 125.051M197.445 131.424C200.035 130.188 201.099 129.107 201.307 128.721C200.975 128.614 200.586 128.497 200.149 128.371M197.445 131.424C191.574 132.66 185.343 133.098 182.961 133.162M182.575 132.197L174.658 125.824L184.12 125.824C189.895 125.824 196.609 127.354 200.149 128.371M182.575 132.197C185.408 132.132 191.806 131.81 194.741 131.038C197.677 130.265 199.569 128.938 200.149 128.371M182.575 132.197L182.961 133.162M182.961 133.162L184.12 135.48M184.12 135.48C187.918 135.351 197.29 134.977 204.397 134.514C206.112 134.402 207.809 134.123 209.432 133.742M184.12 135.48L183.348 137.797C193.583 137.411 201.887 137.024 209.032 136.638M209.032 136.638C211.658 134.939 213.345 133.999 213.86 133.742M209.032 136.638C206.405 138.029 204.848 139.406 204.397 139.921M213.86 133.742L209.432 133.742M213.86 133.742C215.405 132.969 219.46 132.969 222.357 131.038C224.543 129.58 226.18 127.132 227.266 125.438M213.86 133.742C216.944 133.742 219.907 133.516 222.743 132.197M231.819 119.451C233.042 117.713 235.527 112.731 235.682 106.706C235.836 100.68 235.875 96.0843 235.875 96.0843C235.875 96.0843 235.836 91.4882 235.682 85.463C235.527 79.4378 233.042 74.4555 231.819 72.7175M231.819 119.451C231.37 119.997 230.647 120.883 229.94 121.768M231.819 119.451C231.284 120.866 230.254 123.338 229.085 125.631M222.743 132.197C223.991 131.616 225.64 130.652 226.605 129.686C227.52 128.772 228.285 127.199 229.085 125.631M222.743 132.197C225.253 130.072 226.605 128.721 227.764 126.403C227.893 126.144 228.023 125.882 228.15 125.621M229.94 121.768C229.231 122.657 228.537 123.544 228.15 124.086C227.913 124.417 227.619 124.888 227.266 125.438M229.94 121.768C229.648 122.433 228.934 124.012 228.15 125.621M229.085 125.631L228.15 125.621M229.085 125.631C229.305 125.631 229.692 125.622 230.155 125.596M228.15 125.621L227.266 125.438M227.266 125.438L226.206 125.051M226.206 125.051C227.569 123.748 228.903 122.195 230.274 120.224C233.364 115.782 234.523 111.727 234.523 96.0843C234.523 80.442 233.364 76.3866 230.274 71.945C228.903 69.9735 227.569 68.4205 226.206 67.1172M233.557 125.245C233.429 125.245 232.901 125.283 231.819 125.438C231.255 125.518 230.66 125.567 230.155 125.596M230.155 125.596C231.546 123.354 234.562 117.868 235.488 113.851C236.647 108.83 237.226 101.491 237.226 96.0843C237.226 90.6771 236.647 83.3388 235.488 78.3178C234.562 74.301 231.546 68.8141 230.155 66.5727M230.155 125.596C229.085 127.465 228.923 127.948 226.991 130.652C225.06 133.355 219.267 136.059 218.108 136.638M224.674 135.093C225.494 134.321 227.413 132.506 228.536 131.424C229.66 130.343 231.45 128.334 232.206 127.465M14.759 72.7175C11.6692 73.8762 10.3174 74.8417 10.3174 74.8417M14.759 72.7175C24.9941 69.9227 50.2534 63.5495 69.4103 60.4146M14.759 72.7175C15.0506 71.6484 15.44 70.2859 15.9026 69.0483M24.8009 59.972C22.7411 61.6456 18.9689 64.8384 18.0419 65.7654C17.4664 66.3409 16.3591 67.8269 15.9026 69.0483M24.8009 59.972L52.4163 59.972M24.8009 59.972C24.9238 59.9223 25.0528 59.8705 25.1872 59.8169M52.4163 59.972C56.6004 59.7788 65.1232 59.3926 65.7411 59.3926M52.4163 59.972L15.9026 69.0483M65.7411 59.3926C66.2297 59.3926 68.0382 59.956 69.4103 60.4146M65.7411 59.3926C68.3804 58.7489 74.045 57.3842 75.59 57.0752C77.1349 56.7663 80.6109 56.174 82.1558 55.9166M70.3759 60.5513L69.4103 60.4146M70.3759 60.5513C71.2127 60.2294 82.5421 59.3926 82.5421 59.3926M22.4836 58.2339C23.8354 57.0752 28.8563 55.5303 30.2081 55.3372C30.7817 55.2553 35.2291 54.1785 35.4222 54.1785C35.5021 54.1785 35.846 54.2776 36.1947 54.4893M25.1872 59.8169C28.3613 58.5509 34.5957 56.2579 36.9671 56.1097C36.9671 55.7234 36.9669 55.4254 36.774 55.1441M25.1872 59.8169L25.1872 58.8133M25.1872 58.0408C23.1917 59.1995 18.5827 62.7142 16.1108 66.7309C15.6473 67.3489 15.1452 67.7609 14.9521 67.8896M25.1872 58.0408L25.1872 58.8133M25.1872 58.0408C27.1827 56.8821 31.9462 55.5303 36.1947 54.4893M36.774 55.1441C34.3182 55.6297 28.586 57.1139 25.1872 58.8133M36.774 55.1441L36.773 55.1426C36.614 54.9108 36.4178 54.6248 36.1947 54.4893M82.5421 59.3926C82.5421 59.3926 83.7007 59.1995 84.087 58.8133M82.5421 59.3926C82.1593 59.6362 81.4004 60.0904 80.4178 60.6272M80.4178 60.6272C90.945 63.3732 96.3229 65.5117 108.226 66.8908M199.183 70.4001C185.601 70.0139 152.604 69.0483 129.276 68.2759C120.237 67.9766 113.573 67.5103 108.226 66.8908M199.183 70.4001L199.183 71.5588M199.183 70.4001C199.183 69.7801 199.67 69.2008 200.682 68.6621M199.183 71.5588C181.803 71.0438 143.489 69.9366 129.276 69.6277C115.062 69.3187 108.934 68.5977 107.647 68.2759M199.183 71.5588L199.183 77.5453M107.647 68.2759L108.226 66.8908M200.682 68.6621C201.877 68.0261 203.803 67.4468 206.521 66.9241C210.186 66.2193 214.16 65.926 217.541 66.3447M199.183 77.5453C201.307 77.3522 202.852 77.1591 204.397 76.966L204.397 81.6007C202.852 82.0642 200.277 82.3088 199.183 82.3732M199.183 77.5453L199.183 82.3732M217.541 66.3447C218.558 66.4707 219.521 66.6611 220.407 66.9241M217.541 66.3447L219.176 64.7032M219.176 64.7032L220.812 63.0618M219.176 64.7032C215.988 63.5767 207.178 61.2079 197.445 60.7444M220.812 63.0618C218.907 61.8408 214.535 59.6268 209.432 58.427M220.812 63.0618C222.745 64.2431 224.499 65.4842 226.206 67.1172M197.445 60.7444C200.035 61.9803 201.099 63.0618 201.307 63.448C200.975 63.5542 200.586 63.672 200.149 63.7976M197.445 60.7444C191.574 59.5085 185.343 59.0707 182.961 59.0064M182.575 59.9719L174.658 66.3447L184.12 66.3447C189.895 66.3447 196.609 64.8149 200.149 63.7976M182.575 59.9719C185.408 60.0363 191.806 60.3582 194.741 61.1306C197.677 61.9031 199.569 63.2305 200.149 63.7976M182.575 59.9719L182.961 59.0064M182.961 59.0064L184.12 56.689M184.12 56.689C187.918 56.8177 197.29 57.1911 204.397 57.6546C206.112 57.7664 207.809 58.0454 209.432 58.427M184.12 56.689L183.348 54.3716C193.583 54.7579 201.887 55.1441 209.032 55.5303M209.032 55.5303C211.658 57.2297 213.345 58.1695 213.86 58.427M209.032 55.5303C206.405 54.1399 204.848 52.7624 204.397 52.2474M213.86 58.427L209.432 58.427M213.86 58.427C215.405 59.1995 219.46 59.1995 222.357 61.1306C224.543 62.5885 226.18 65.0368 227.266 66.7309M213.86 58.427C216.944 58.427 219.907 58.653 222.743 59.9719M231.819 72.7175C231.37 72.1713 230.647 71.2852 229.94 70.4001M231.819 72.7175C231.284 71.303 230.254 68.8305 229.085 66.5378M222.743 59.9719C223.991 60.5525 225.64 61.5169 226.605 62.4824C227.52 63.397 228.285 64.97 229.085 66.5378M222.743 59.9719C225.253 62.0962 226.605 63.448 227.764 65.7654C227.893 66.0245 228.023 66.2867 228.15 66.5481M229.94 70.4001C229.231 69.5118 228.537 68.6244 228.15 68.0827C227.913 67.7514 227.619 67.2809 227.266 66.7309M229.94 70.4001C229.648 69.7356 228.934 68.1566 228.15 66.5481M229.085 66.5378L228.15 66.5481M229.085 66.5378C229.305 66.5378 229.692 66.5466 230.155 66.5727M228.15 66.5481L227.266 66.7309M227.266 66.7309L226.206 67.1172M233.557 66.9241C233.429 66.9241 232.901 66.8854 231.819 66.7309C231.255 66.6503 230.66 66.6012 230.155 66.5727M230.155 66.5727C229.085 64.7032 228.923 64.2205 226.991 61.5169C225.06 58.8133 219.267 56.1097 218.108 55.5303M224.674 57.0752C225.494 57.8477 227.413 59.663 228.536 60.7444C229.66 61.8258 231.45 63.8342 232.206 64.7032" stroke="url(#paint4_linear_367_1348)" stroke-opacity="0.26" stroke-width="0.386228"/>
<path d="M70.9558 123.7C74.4318 127.948 78.4872 129.3 81.9633 129.686C85.0531 129.107 100.309 126.017 102.626 125.051C104.944 124.086 105.716 123.893 104.751 119.451C103.785 115.009 103.013 109.989 102.82 108.25C102.626 106.512 101.275 105.354 98.9573 104.774C96.64 104.195 93.1639 103.036 91.8121 102.071C90.4603 101.105 90.4603 97.8223 90.4603 96.0843C90.4603 94.3463 90.4603 91.0633 91.8121 90.0978C93.1639 89.1322 96.64 87.9735 98.9573 87.3942C101.275 86.8148 102.626 85.6561 102.82 83.9181C103.013 82.1801 103.785 77.1591 104.751 72.7175C105.716 68.2759 104.944 68.0828 102.626 67.1172C100.309 66.1516 85.0531 63.0618 81.9633 62.4825C78.4872 62.8687 74.4318 64.2205 70.9558 68.469C67.4797 72.7175 65.3555 87.2011 65.3555 96.0843C65.3555 104.968 67.4797 119.451 70.9558 123.7Z" fill="#111111" stroke="white" stroke-opacity="0.26" stroke-width="0.386228"/>
<path d="M182.575 132.197L174.657 125.824L170.022 125.824M182.575 132.197L183.154 133.355M182.575 132.197C181.34 132.329 179.766 132.455 177.94 132.574M183.154 133.355L184.12 135.48M183.154 133.355C169.066 133.935 139.246 135.055 132.669 134.9M184.12 135.48C172.842 136.252 150.711 136.188 141.055 136.059M184.12 135.48C184.005 135.767 183.695 136.558 183.3 137.604M132.945 133.935L135.841 125.824L138.738 125.824M132.945 133.935L137 133.935M132.945 133.935L132.669 134.9M138.738 125.824L137 133.935M138.738 125.824L170.022 125.824M137 133.935C145.462 133.794 161.259 133.426 172.533 132.877M170.022 125.824L173.42 128.721M177.94 132.574C176.316 132.68 174.493 132.781 172.533 132.877M177.94 132.574L173.42 128.721M172.533 132.877L173.42 128.721M132.669 134.9L132.448 135.673M132.043 137.024L131.593 138.376L131.464 138.956M132.043 137.024L132.172 136.638L132.448 135.673M132.043 137.024L146.463 137.024L141.055 136.059M141.055 136.059L132.448 135.673M183.3 137.604C183.252 137.729 183.204 137.858 183.154 137.99C182.691 139.226 181.802 140.179 181.416 140.501L162.491 140.114L145.497 140.114L131.207 140.114L131.464 138.956M183.3 137.604L180.258 137.604C180.193 137.59 180.123 137.575 180.046 137.56M131.464 138.956C142.536 138.956 168.864 137.99 170.022 137.99C170.189 137.99 170.384 137.97 170.602 137.936M170.602 137.936C171.246 138.34 173.074 139.149 175.237 139.149C177.94 139.149 179.449 138.095 180.046 137.56M170.602 137.936C171.24 137.835 172.07 137.611 172.946 137.411M180.046 137.56C179.587 137.467 178.917 137.346 178.187 137.243M178.187 137.243C177.333 137.121 176.397 137.024 175.623 137.024C174.787 137.024 173.842 137.205 172.946 137.411M178.187 137.243C178.105 137.427 177.477 137.836 175.623 137.99C173.769 138.145 173.066 137.668 172.946 137.411" stroke="url(#paint5_linear_367_1348)" stroke-opacity="0.26" stroke-width="0.386228"/>
<path d="M182.575 59.972L174.658 66.3447L170.023 66.3447M182.575 59.972L183.155 58.8133M182.575 59.972C181.341 59.8397 179.766 59.7137 177.941 59.5943M183.155 58.8133L184.12 56.689M183.155 58.8133C169.067 58.2339 139.246 57.1139 132.669 57.2684M184.12 56.689C172.842 55.9166 150.712 55.9809 141.056 56.1097M184.12 56.689C184.005 56.4016 183.695 55.6109 183.3 54.5648M132.945 58.2339L135.842 66.3447L138.738 66.3447M132.945 58.2339L137 58.2339M132.945 58.2339L132.669 57.2684M138.738 66.3447L137 58.2339M138.738 66.3447L170.023 66.3447M137 58.2339C145.463 58.375 161.259 58.7426 172.533 59.2918M170.023 66.3447L173.421 63.448M177.941 59.5943C176.316 59.4882 174.493 59.3872 172.533 59.2918M177.941 59.5943L173.421 63.448M172.533 59.2918L173.421 63.448M132.669 57.2684L132.448 56.4959M132.044 55.1441L131.593 53.7923L131.465 53.213M132.044 55.1441L132.173 55.5303L132.448 56.4959M132.044 55.1441L146.463 55.1441L141.056 56.1097M141.056 56.1097L132.448 56.4959M183.3 54.5648C183.253 54.4395 183.204 54.3107 183.155 54.1785C182.691 52.9426 181.803 51.9899 181.417 51.6681L162.492 52.0543L145.497 52.0543L131.207 52.0543L131.465 53.213M183.3 54.5648L180.258 54.5648C180.194 54.5785 180.123 54.5933 180.047 54.6088M131.465 53.213C142.536 53.213 168.864 54.1785 170.023 54.1785C170.19 54.1785 170.385 54.1986 170.602 54.2329M170.602 54.2329C171.246 53.8286 173.074 53.0199 175.237 53.0199C177.941 53.0199 179.449 54.0734 180.047 54.6088M170.602 54.2329C171.24 54.3337 172.07 54.5574 172.946 54.7579M180.047 54.6088C179.587 54.7018 178.917 54.8227 178.188 54.926M178.188 54.926C177.333 55.0471 176.398 55.1441 175.623 55.1441C174.787 55.1441 173.843 54.9631 172.946 54.7579M178.188 54.926C178.105 54.7412 177.477 54.333 175.623 54.1785C173.769 54.0241 173.066 54.5004 172.946 54.7579" stroke="url(#paint6_linear_367_1348)" stroke-opacity="0.26" stroke-width="0.386228"/>
<path d="M185.472 96.0843C185.73 96.4706 186.785 97.2817 188.948 97.4361C189.711 97.4906 190.545 97.4025 191.352 97.243M194.708 96.1874C194.79 96.1514 194.866 96.1169 194.935 96.0843L194.708 96.1874ZM194.708 96.1874C193.953 96.5195 192.689 96.979 191.352 97.243M194.708 96.1874L194.708 97.3327C193.683 97.3028 191.576 97.243 191.352 97.243" stroke="white" stroke-opacity="0.26" stroke-width="0.386228"/>
<path d="M185.472 96.0842C185.73 95.698 186.785 94.8869 188.948 94.7324C189.711 94.6779 190.545 94.766 191.352 94.9256M194.708 95.9812C194.79 96.0171 194.866 96.0516 194.935 96.0842L194.708 95.9812ZM194.708 95.9812C193.953 95.649 192.689 95.1895 191.352 94.9256M194.708 95.9812L194.708 94.8359C193.683 94.8658 191.576 94.9256 191.352 94.9256" stroke="white" stroke-opacity="0.26" stroke-width="0.386228"/>
<defs>
<filter id="filter0_f_367_1348" x="66.6173" y="0.400002" width="121.2" height="121.2" filterUnits="userSpaceOnUse" color-interpolation-filters="sRGB">
<feFlood flood-opacity="0" result="BackgroundImageFix"/>
<feBlend mode="normal" in="SourceGraphic" in2="BackgroundImageFix" result="shape"/>
<feGaussianBlur stdDeviation="18.8" result="effect1_foregroundBlur_367_1348"/>
</filter>
<filter id="filter1_d_367_1348" x="0.661661" y="44.1366" width="245.255" height="103.895" filterUnits="userSpaceOnUse" color-interpolation-filters="sRGB">
<feFlood flood-opacity="0" result="BackgroundImageFix"/>
<feColorMatrix in="SourceAlpha" type="matrix" values="0 0 0 0 0 0 0 0 0 0 0 0 0 0 0 0 0 0 127 0" result="hardAlpha"/>
<feOffset/>
<feGaussianBlur stdDeviation="3.47605"/>
<feComposite in2="hardAlpha" operator="out"/>
<feColorMatrix type="matrix" values="0 0 0 0 0 0 0 0 0 0 0 0 0 0 0 0 0 0 1 0"/>
<feBlend mode="normal" in2="BackgroundImageFix" result="effect1_dropShadow_367_1348"/>
<feBlend mode="normal" in="SourceGraphic" in2="effect1_dropShadow_367_1348" result="shape"/>
</filter>
<radialGradient id="paint0_radial_367_1348" cx="0" cy="0" r="1" gradientUnits="userSpaceOnUse" gradientTransform="translate(123.289 96.0843) rotate(-44.8305) scale(276.929 107.154)">
<stop stop-color="#1D1D1D"/>
<stop offset="1"/>
</radialGradient>
<linearGradient id="paint1_linear_367_1348" x1="10.7036" y1="133.742" x2="210.77" y2="45.6815" gradientUnits="userSpaceOnUse">
<stop stop-color="#CECECE" stop-opacity="0.76"/>
<stop offset="0.25" stop-color="#838383" stop-opacity="0.53"/>
<stop offset="0.484375" stop-color="#C4C4C4" stop-opacity="0.515625"/>
<stop offset="0.677083" stop-color="#E1E1E1" stop-opacity="0.6"/>
<stop offset="0.854167" stop-color="#CFCFCF" stop-opacity="0.23"/>
<stop offset="1" stop-color="#CFCFCF" stop-opacity="0.63"/>
</linearGradient>
<linearGradient id="paint2_linear_367_1348" x1="81.383" y1="81.6007" x2="135.841" y2="46.2609" gradientUnits="userSpaceOnUse">
<stop stop-color="white"/>
<stop offset="0.182292" stop-color="white" stop-opacity="0.51"/>
<stop offset="0.546875" stop-color="white"/>
<stop offset="0.786458" stop-color="white" stop-opacity="0.44"/>
<stop offset="0.994792" stop-color="white"/>
</linearGradient>
<linearGradient id="paint3_linear_367_1348" x1="78.2932" y1="158.846" x2="138.352" y2="122.927" gradientUnits="userSpaceOnUse">
<stop stop-color="white"/>
<stop offset="0.182292" stop-color="white" stop-opacity="0.51"/>
<stop offset="0.546875" stop-color="white"/>
<stop offset="0.786458" stop-color="white" stop-opacity="0.44"/>
<stop offset="0.994792" stop-color="white"/>
</linearGradient>
<linearGradient id="paint4_linear_367_1348" x1="35.036" y1="157.108" x2="230.467" y2="41.433" gradientUnits="userSpaceOnUse">
<stop stop-color="white" stop-opacity="0.31"/>
<stop offset="0.291667" stop-color="white"/>
<stop offset="0.536458" stop-color="white" stop-opacity="0.26"/>
<stop offset="0.770833" stop-color="white"/>
<stop offset="1" stop-color="white" stop-opacity="0.25"/>
</linearGradient>
<linearGradient id="paint5_linear_367_1348" x1="131.207" y1="155.757" x2="191.265" y2="127.562" gradientUnits="userSpaceOnUse">
<stop stop-color="white"/>
<stop offset="0.182292" stop-color="white" stop-opacity="0.51"/>
<stop offset="0.546875" stop-color="white"/>
<stop offset="0.786458" stop-color="white" stop-opacity="0.44"/>
<stop offset="0.994792" stop-color="white"/>
</linearGradient>
<linearGradient id="paint6_linear_367_1348" x1="127.345" y1="72.1382" x2="189.141" y2="48.3851" gradientUnits="userSpaceOnUse">
<stop stop-color="white"/>
<stop offset="0.182292" stop-color="white" stop-opacity="0.51"/>
<stop offset="0.546875" stop-color="white"/>
<stop offset="0.786458" stop-color="white" stop-opacity="0.44"/>
<stop offset="0.994792" stop-color="white"/>
</linearGradient>
</defs>
</svg>
