<svg width="106" height="106" viewBox="0 0 106 106" fill="none" xmlns="http://www.w3.org/2000/svg">
<circle cx="53.6651" cy="52.6467" r="49.2501" fill="url(#paint0_linear_79_1381)"/>
<circle cx="53.6651" cy="52.6467" r="48.9105" stroke="white" stroke-opacity="0.13" stroke-width="0.679312"/>
<path d="M94.7644 77.3975L86.436 72.5708" stroke="#87888C" stroke-opacity="0.2" stroke-width="0.7221" stroke-linecap="round"/>
<path d="M98.7665 68.4136L96.1196 67.54" stroke="#87888C" stroke-opacity="0.2" stroke-width="0.7221" stroke-linecap="round"/>
<path d="M96.8399 73.0254L94.3623 71.7799" stroke="#87888C" stroke-opacity="0.2" stroke-width="0.7221" stroke-linecap="round"/>
<path d="M101.217 58.8236L98.4072 58.6907" stroke="#87888C" stroke-opacity="0.2" stroke-width="0.7221" stroke-linecap="round"/>
<path d="M100.345 63.8009L97.3501 63.1182" stroke="#87888C" stroke-opacity="0.2" stroke-width="0.7221" stroke-linecap="round"/>
<path d="M76.8461 92.683L72.0469 84.3387" stroke="#87888C" stroke-opacity="0.2" stroke-width="0.7221" stroke-linecap="round"/>
<path d="M84.8042 86.9043L82.9487 84.8243" stroke="#87888C" stroke-opacity="0.2" stroke-width="0.7221" stroke-linecap="round"/>
<path d="M80.83 89.9346L79.3071 87.6172" stroke="#87888C" stroke-opacity="0.2" stroke-width="0.7221" stroke-linecap="round"/>
<path d="M91.7217 79.8242L89.3545 78.3041" stroke="#87888C" stroke-opacity="0.2" stroke-width="0.7221" stroke-linecap="round"/>
<path d="M88.4772 83.6984L86.2251 81.6097" stroke="#87888C" stroke-opacity="0.2" stroke-width="0.7221" stroke-linecap="round"/>
<path d="M63.627 96.7235L63.0601 93.9944" stroke="#87888C" stroke-opacity="0.2" stroke-width="0.7221" stroke-linecap="round"/>
<path d="M58.6689 97.3606L58.5088 94.5922" stroke="#87888C" stroke-opacity="0.2" stroke-width="0.7221" stroke-linecap="round"/>
<path d="M73.1572 94.0507L71.8672 91.5507" stroke="#87888C" stroke-opacity="0.2" stroke-width="0.7221" stroke-linecap="round"/>
<path d="M68.4105 95.7834L67.5044 92.8485" stroke="#87888C" stroke-opacity="0.2" stroke-width="0.7221" stroke-linecap="round"/>
<path d="M69.0824 9.05296L68.0757 11.8378" stroke="#87888C" stroke-opacity="0.2" stroke-width="0.7221" stroke-linecap="round"/>
<path d="M73.6452 10.7091L72.2876 13.5004" stroke="#87888C" stroke-opacity="0.2" stroke-width="0.7221" stroke-linecap="round"/>
<path d="M77.808 13.0727L72.8611 21.647" stroke="#87888C" stroke-opacity="0.2" stroke-width="0.7221" stroke-linecap="round"/>
<path d="M82.0705 15.6831L80.1804 18.1153" stroke="#87888C" stroke-opacity="0.2" stroke-width="0.7221" stroke-linecap="round"/>
<path d="M85.7583 19.0038L84.0376 21.0641" stroke="#87888C" stroke-opacity="0.2" stroke-width="0.7221" stroke-linecap="round"/>
<path d="M89.4407 22.3194L87.3722 24.5705" stroke="#87888C" stroke-opacity="0.2" stroke-width="0.7221" stroke-linecap="round"/>
<path d="M92.6026 26.1888L90.1771 28.0776" stroke="#87888C" stroke-opacity="0.2" stroke-width="0.7221" stroke-linecap="round"/>
<path d="M95.0328 30.193L86.8698 35.3222" stroke="#87888C" stroke-opacity="0.2" stroke-width="0.7221" stroke-linecap="round"/>
<path d="M97.5203 34.6693L94.9101 36.0081" stroke="#87888C" stroke-opacity="0.2" stroke-width="0.7221" stroke-linecap="round"/>
<path d="M99.2777 39.2779L96.486 40.2512" stroke="#87888C" stroke-opacity="0.2" stroke-width="0.7221" stroke-linecap="round"/>
<path d="M100.159 44.2584L97.534 44.6754" stroke="#87888C" stroke-opacity="0.2" stroke-width="0.7221" stroke-linecap="round"/>
<path d="M101.039 49.0523L98.4103 49.285" stroke="#87888C" stroke-opacity="0.2" stroke-width="0.7221" stroke-linecap="round"/>
<path d="M63.9956 7.76671L63.5121 10.3575" stroke="#87888C" stroke-opacity="0.2" stroke-width="0.7221" stroke-linecap="round"/>
<path d="M34.6899 10.3645L35.967 13.2919" stroke="#87888C" stroke-opacity="0.2" stroke-width="0.7221" stroke-linecap="round"/>
<path d="M39.2505 8.51868L40.3552 11.6336" stroke="#87888C" stroke-opacity="0.2" stroke-width="0.7221" stroke-linecap="round"/>
<path d="M44.1636 7.40796L44.742 10.5326" stroke="#87888C" stroke-opacity="0.2" stroke-width="0.7221" stroke-linecap="round"/>
<path d="M49.252 6.66565L49.304 9.79994" stroke="#87888C" stroke-opacity="0.2" stroke-width="0.7221" stroke-linecap="round"/>
<path d="M54.1079 6.297L54.274 16.253" stroke="#87888C" stroke-opacity="0.2" stroke-width="0.7221" stroke-linecap="round"/>
<path d="M59.0781 6.66565L59.1302 9.79994" stroke="#87888C" stroke-opacity="0.2" stroke-width="0.7221" stroke-linecap="round"/>
<path d="M15.0439 25.3137L17.7123 27.4779" stroke="#87888C" stroke-opacity="0.2" stroke-width="0.7221" stroke-linecap="round"/>
<path d="M18.3794 21.8081L20.8692 23.7911" stroke="#87888C" stroke-opacity="0.2" stroke-width="0.7221" stroke-linecap="round"/>
<path d="M22.0625 18.3014L24.2045 20.4752" stroke="#87888C" stroke-opacity="0.2" stroke-width="0.7221" stroke-linecap="round"/>
<path d="M25.9209 15.1633L27.7151 17.5279" stroke="#87888C" stroke-opacity="0.2" stroke-width="0.7221" stroke-linecap="round"/>
<path d="M30.0815 12.6128L35.3102 21.0004" stroke="#87888C" stroke-opacity="0.2" stroke-width="0.7221" stroke-linecap="round"/>
<g filter="url(#filter0_d_79_1381)">
<path d="M6.46755 58.1372L9.26846 57.7169" stroke="#EAEBE7" stroke-width="0.7221" stroke-linecap="round"/>
</g>
<g filter="url(#filter1_d_79_1381)">
<path d="M6.11377 54.142L15.5875 53.9704" stroke="#EAEBE7" stroke-width="0.7221" stroke-linecap="round"/>
</g>
<g filter="url(#filter2_d_79_1381)">
<path d="M9.80855 72.3393L12.945 70.9908" stroke="#EAEBE7" stroke-width="0.7221" stroke-linecap="round"/>
</g>
<g filter="url(#filter3_d_79_1381)">
<path d="M8.22465 67.7278L11.1949 66.9356" stroke="#EAEBE7" stroke-width="0.7221" stroke-linecap="round"/>
</g>
<g filter="url(#filter4_d_79_1381)">
<path d="M7.17032 62.9319L9.96817 62.3273" stroke="#EAEBE7" stroke-width="0.7221" stroke-linecap="round"/>
</g>
<g filter="url(#filter5_d_79_1381)">
<path d="M12.6428 76.6239L20.4641 72.0543" stroke="#EAEBE7" stroke-width="0.7221" stroke-linecap="round"/>
</g>
<g filter="url(#filter6_d_79_1381)">
<path d="M6.28906 48.366L9.27152 48.3113" stroke="#EAEBE7" stroke-width="0.7221" stroke-linecap="round"/>
</g>
<g filter="url(#filter7_d_79_1381)">
<path d="M6.98291 43.2031L9.98069 44.0703" stroke="#EAEBE7" stroke-width="0.7221" stroke-linecap="round"/>
</g>
<g filter="url(#filter8_d_79_1381)">
<path d="M8.38525 38.5918L11.2107 39.6465" stroke="#EAEBE7" stroke-width="0.7221" stroke-linecap="round"/>
</g>
<g filter="url(#filter9_d_79_1381)">
<path d="M10.3125 33.9799L12.9686 35.4065" stroke="#EAEBE7" stroke-width="0.7221" stroke-linecap="round"/>
</g>
<g filter="url(#filter10_d_79_1381)">
<path d="M12.5645 29.6082L21.0682 34.4316" stroke="#EAEBE7" stroke-width="0.7221" stroke-linecap="round"/>
</g>
<path d="M101.215 54.5198L91.5659 54.6968" stroke="#87888C" stroke-opacity="0.2" stroke-width="0.7221" stroke-linecap="round"/>
<g filter="url(#filter11_d_79_1381)">
<path d="M15.8142 80.494L18.0297 78.7296" stroke="#EAEBE7" stroke-width="0.7221" stroke-linecap="round"/>
</g>
<g filter="url(#filter12_d_79_1381)">
<path d="M25.8089 91.1226L27.8509 88.3865" stroke="#EAEBE7" stroke-width="0.7221" stroke-linecap="round"/>
</g>
<g filter="url(#filter13_d_79_1381)">
<path d="M22.1313 87.921L24.3075 85.7498" stroke="#EAEBE7" stroke-width="0.7221" stroke-linecap="round"/>
</g>
<g filter="url(#filter14_d_79_1381)">
<path d="M18.8206 84.2945L20.9414 82.372" stroke="#EAEBE7" stroke-width="0.7221" stroke-linecap="round"/>
</g>
<g filter="url(#filter15_d_79_1381)">
<path d="M30.406 93.4161L34.8946 85.548" stroke="#EAEBE7" stroke-width="0.7221" stroke-linecap="round"/>
</g>
<g filter="url(#filter16_d_79_1381)">
<path d="M34.6281 94.6761L35.6646 92.0404" stroke="#EAEBE7" stroke-width="0.7221" stroke-linecap="round"/>
</g>
<g filter="url(#filter17_d_79_1381)">
<path d="M48.5981 98.8831L48.9985 95.4926" stroke="#EAEBE7" stroke-width="0.7221" stroke-linecap="round"/>
</g>
<g filter="url(#filter18_d_79_1381)">
<path d="M43.8123 97.9493L44.6113 94.9809" stroke="#EAEBE7" stroke-width="0.7221" stroke-linecap="round"/>
</g>
<g filter="url(#filter19_d_79_1381)">
<path d="M39.132 96.4639L40.0074 93.7386" stroke="#EAEBE7" stroke-width="0.7221" stroke-linecap="round"/>
</g>
<g filter="url(#filter20_d_79_1381)">
<path d="M53.7257 98.5711L53.6789 89.5129" stroke="#EAEBE7" stroke-width="0.7221" stroke-linecap="round"/>
</g>
<path d="M51.1159 19.6739V19.2866H51.8906V22.0018H51.4622V19.6739H51.1159ZM52.4739 20.6088C52.4739 20.1792 52.5459 19.844 52.6899 19.6032C52.8364 19.3598 53.0872 19.2382 53.4423 19.2382C53.7974 19.2382 54.0469 19.3598 54.1909 19.6032C54.3374 19.844 54.4107 20.1792 54.4107 20.6088C54.4107 21.0434 54.3374 21.3835 54.1909 21.6294C54.0469 21.8727 53.7974 21.9944 53.4423 21.9944C53.0872 21.9944 52.8364 21.8727 52.6899 21.6294C52.5459 21.3835 52.4739 21.0434 52.4739 20.6088ZM53.9935 20.6088C53.9935 20.4077 53.9799 20.2376 53.9526 20.0985C53.9277 19.9595 53.8756 19.8465 53.7961 19.7596C53.7167 19.6702 53.5987 19.6255 53.4423 19.6255C53.2858 19.6255 53.1679 19.6702 53.0884 19.7596C53.009 19.8465 52.9556 19.9595 52.9283 20.0985C52.9035 20.2376 52.891 20.4077 52.891 20.6088C52.891 20.8174 52.9035 20.9925 52.9283 21.134C52.9531 21.2755 53.0053 21.3898 53.0847 21.4767C53.1667 21.5636 53.2858 21.607 53.4423 21.607C53.5987 21.607 53.7167 21.5636 53.7961 21.4767C53.8781 21.3898 53.9315 21.2755 53.9563 21.134C53.9811 20.9925 53.9935 20.8174 53.9935 20.6088ZM54.86 20.6088C54.86 20.1792 54.932 19.844 55.076 19.6032C55.2225 19.3598 55.4733 19.2382 55.8284 19.2382C56.1834 19.2382 56.433 19.3598 56.577 19.6032C56.7235 19.844 56.7968 20.1792 56.7968 20.6088C56.7968 21.0434 56.7235 21.3835 56.577 21.6294C56.433 21.8727 56.1834 21.9944 55.8284 21.9944C55.4733 21.9944 55.2225 21.8727 55.076 21.6294C54.932 21.3835 54.86 21.0434 54.86 20.6088ZM56.3796 20.6088C56.3796 20.4077 56.366 20.2376 56.3386 20.0985C56.3138 19.9595 56.2617 19.8465 56.1822 19.7596C56.1027 19.6702 55.9848 19.6255 55.8284 19.6255C55.6719 19.6255 55.554 19.6702 55.4745 19.7596C55.3951 19.8465 55.3417 19.9595 55.3144 20.0985C55.2895 20.2376 55.2771 20.4077 55.2771 20.6088C55.2771 20.8174 55.2895 20.9925 55.3144 21.134C55.3392 21.2755 55.3913 21.3898 55.4708 21.4767C55.5527 21.5636 55.6719 21.607 55.8284 21.607C55.9848 21.607 56.1027 21.5636 56.1822 21.4767C56.2641 21.3898 56.3175 21.2755 56.3424 21.134C56.3672 20.9925 56.3796 20.8174 56.3796 20.6088Z" fill="white" fill-opacity="0.31"/>
<path d="M53.2098 84.1244C53.2098 83.6949 53.2818 83.3597 53.4258 83.1188C53.5723 82.8755 53.8231 82.7538 54.1782 82.7538C54.5333 82.7538 54.7828 82.8755 54.9269 83.1188C55.0734 83.3597 55.1466 83.6949 55.1466 84.1244C55.1466 84.559 55.0734 84.8992 54.9269 85.145C54.7828 85.3883 54.5333 85.51 54.1782 85.51C53.8231 85.51 53.5723 85.3883 53.4258 85.145C53.2818 84.8992 53.2098 84.559 53.2098 84.1244ZM54.7295 84.1244C54.7295 83.9233 54.7158 83.7532 54.6885 83.6142C54.6636 83.4751 54.6115 83.3621 54.532 83.2752C54.4526 83.1858 54.3346 83.1411 54.1782 83.1411C54.0218 83.1411 53.9038 83.1858 53.8244 83.2752C53.7449 83.3621 53.6915 83.4751 53.6642 83.6142C53.6394 83.7532 53.627 83.9233 53.627 84.1244C53.627 84.333 53.6394 84.5081 53.6642 84.6496C53.689 84.7912 53.7412 84.9054 53.8206 84.9923C53.9026 85.0792 54.0218 85.1226 54.1782 85.1226C54.3346 85.1226 54.4526 85.0792 54.532 84.9923C54.614 84.9054 54.6674 84.7912 54.6922 84.6496C54.717 84.5081 54.7295 84.333 54.7295 84.1244Z" fill="white"/>
<path d="M34.6888 81.6536C34.9983 81.5943 35.2451 81.5419 35.4292 81.4962C35.6166 81.4496 35.7862 81.3869 35.9377 81.3081C36.0893 81.2293 36.2011 81.1276 36.2731 81.0028C36.3476 80.8738 36.3748 80.7547 36.3546 80.6456C36.3366 80.5377 36.262 80.4459 36.1309 80.3702C36.004 80.2969 35.8815 80.2807 35.7633 80.3214C35.6486 80.3613 35.55 80.4477 35.4674 80.5807L35.1126 80.3758C35.2606 80.1344 35.4417 79.9895 35.656 79.9412C35.8737 79.892 36.0911 79.9301 36.3083 80.0555C36.5427 80.1908 36.6882 80.3608 36.7449 80.5656C36.8037 80.7716 36.7711 80.9821 36.6469 81.1971C36.5575 81.352 36.4315 81.4785 36.2687 81.5766C36.1093 81.6738 35.9419 81.7478 35.7665 81.7984C35.5944 81.8482 35.3816 81.8988 35.1282 81.9503L34.9086 81.9956L35.9311 82.5859L35.7542 82.8924L34.1865 81.9873L34.3411 81.7195L34.6888 81.6536ZM36.7551 81.9047C36.9699 81.5327 37.1999 81.2784 37.445 81.1418C37.6936 81.0043 37.9716 81.0244 38.2791 81.2019C38.5866 81.3795 38.7419 81.6096 38.745 81.8923C38.7514 82.1742 38.6472 82.5011 38.4324 82.8731C38.2152 83.2495 37.9816 83.5074 37.7319 83.6471C37.4855 83.7858 37.2085 83.7664 36.901 83.5889C36.5935 83.4113 36.4371 83.1806 36.4319 82.8966C36.4301 82.6117 36.5378 82.2811 36.7551 81.9047ZM38.0712 82.6646C38.1717 82.4904 38.245 82.3362 38.2908 82.2022C38.3388 82.0693 38.3502 81.9454 38.3248 81.8304C38.3007 81.7133 38.2209 81.6156 38.0854 81.5374C37.95 81.4592 37.8255 81.4389 37.712 81.4766C37.5997 81.5121 37.497 81.5833 37.4038 81.69C37.3127 81.798 37.217 81.9391 37.1164 82.1133C37.0121 82.294 36.9353 82.4518 36.8861 82.5868C36.8368 82.7217 36.8248 82.8467 36.8502 82.9617C36.8777 83.078 36.9592 83.1752 37.0947 83.2534C37.2302 83.3316 37.354 83.353 37.4663 83.3174C37.5807 83.2831 37.6841 83.2109 37.7763 83.1007C37.8686 82.9906 37.9669 82.8452 38.0712 82.6646Z" fill="white"/>
<path d="M69.2914 81.6536C69.6009 81.5943 69.8476 81.5419 70.0317 81.4962C70.2192 81.4496 70.3887 81.3869 70.5403 81.3081C70.6918 81.2293 70.8036 81.1276 70.8756 81.0028C70.9501 80.8738 70.9773 80.7547 70.9572 80.6456C70.9392 80.5377 70.8646 80.4459 70.7334 80.3702C70.6065 80.2969 70.484 80.2807 70.3659 80.3214C70.2511 80.3613 70.1525 80.4477 70.07 80.5807L69.7152 80.3758C69.8631 80.1344 70.0443 79.9895 70.2585 79.9412C70.4762 79.892 70.6936 79.9301 70.9108 80.0555C71.1452 80.1908 71.2908 80.3608 71.3474 80.5656C71.4063 80.7716 71.3736 80.9821 71.2495 81.1971C71.1601 81.352 71.034 81.4785 70.8712 81.5766C70.7119 81.6738 70.5445 81.7478 70.369 81.7984C70.1969 81.8482 69.9842 81.8988 69.7308 81.9503L69.5111 81.9956L70.5337 82.5859L70.3567 82.8924L68.7891 81.9873L68.9437 81.7195L69.2914 81.6536ZM71.3577 81.9047C71.5724 81.5327 71.8024 81.2784 72.0476 81.1418C72.2961 81.0043 72.5741 81.0244 72.8816 81.2019C73.1892 81.3795 73.3444 81.6096 73.3475 81.8923C73.3539 82.1742 73.2498 82.5011 73.035 82.8731C72.8177 83.2495 72.5842 83.5074 72.3344 83.6471C72.088 83.7858 71.811 83.7664 71.5035 83.5889C71.196 83.4113 71.0397 83.1806 71.0345 82.8966C71.0327 82.6117 71.1404 82.2811 71.3577 81.9047ZM72.6737 82.6646C72.7743 82.4904 72.8475 82.3362 72.8934 82.2022C72.9414 82.0693 72.9527 81.9454 72.9274 81.8304C72.9032 81.7133 72.8234 81.6156 72.688 81.5374C72.5525 81.4592 72.428 81.4389 72.3145 81.4766C72.2022 81.5121 72.0995 81.5833 72.0063 81.69C71.9153 81.798 71.8195 81.9391 71.7189 82.1133C71.6146 82.294 71.5379 82.4518 71.4886 82.5868C71.4393 82.7217 71.4274 82.8467 71.4527 82.9617C71.4802 83.078 71.5617 83.1752 71.6972 83.2534C71.8327 83.3316 71.9566 83.353 72.0688 83.3174C72.1833 83.2831 72.2866 83.2109 72.3789 83.1007C72.4711 82.9906 72.5694 82.8452 72.6737 82.6646Z" fill="white" fill-opacity="0.31"/>
<path d="M22.1133 71.1637L22.0304 70.8543L22.7746 68.7963L23.2711 68.6633L23.7232 70.3506L24.0578 70.261L24.1532 70.6172L23.8186 70.7068L23.9652 71.2537L23.5622 71.3616L23.4157 70.8148L22.1133 71.1637ZM22.998 69.1838L22.4892 70.6813L23.3382 70.4538L22.998 69.1838ZM24.2791 69.7274C24.1679 69.3125 24.1507 68.97 24.2274 68.7001C24.306 68.4271 24.5167 68.2447 24.8597 68.1528C25.2027 68.0609 25.4752 68.1138 25.6773 68.3116C25.8812 68.5063 26.0387 68.8112 26.1499 69.2261C26.2623 69.6459 26.2796 69.9934 26.2017 70.2688C26.1256 70.5411 25.9161 70.7232 25.5731 70.8151C25.2301 70.907 24.9564 70.8544 24.7519 70.6573C24.5491 70.4571 24.3915 70.1471 24.2791 69.7274ZM25.7469 69.3341C25.6949 69.1398 25.6377 68.9791 25.5753 68.8518C25.5153 68.7239 25.4357 68.6283 25.3365 68.5649C25.2366 68.4991 25.1111 68.4865 24.96 68.527C24.8089 68.5675 24.7065 68.6412 24.6529 68.7481C24.5986 68.8526 24.5763 68.9755 24.5859 69.1169C24.5979 69.2576 24.6299 69.4252 24.682 69.6194C24.736 69.8209 24.7933 69.9868 24.8539 70.1171C24.9145 70.2474 24.9945 70.3442 25.0937 70.4076C25.1953 70.4703 25.3217 70.4814 25.4728 70.4409C25.6239 70.4005 25.7266 70.328 25.7809 70.2234C25.8375 70.1183 25.8595 69.9941 25.8469 69.851C25.8342 69.7079 25.8009 69.5356 25.7469 69.3341Z" fill="white"/>
<path d="M81.6783 71.1637L81.5954 70.8543L82.3395 68.7963L82.836 68.6633L83.2881 70.3506L83.6227 70.261L83.7182 70.6172L83.3836 70.7068L83.5301 71.2537L83.1272 71.3616L82.9806 70.8148L81.6783 71.1637ZM82.5629 69.1838L82.0541 70.6813L82.9032 70.4538L82.5629 69.1838ZM83.844 69.7274C83.7328 69.3125 83.7156 68.97 83.7924 68.7001C83.8709 68.4271 84.0817 68.2447 84.4247 68.1528C84.7676 68.0609 85.0402 68.1138 85.2423 68.3116C85.4461 68.5063 85.6036 68.8112 85.7148 69.2261C85.8273 69.6459 85.8446 69.9934 85.7667 70.2688C85.6906 70.5411 85.481 70.7232 85.138 70.8151C84.795 70.907 84.5213 70.8544 84.3168 70.6573C84.1141 70.4571 83.9565 70.1471 83.844 69.7274ZM85.3119 69.3341C85.2598 69.1398 85.2026 68.9791 85.1402 68.8518C85.0802 68.7239 85.0006 68.6283 84.9014 68.5649C84.8015 68.4991 84.676 68.4865 84.5249 68.527C84.3738 68.5675 84.2714 68.6412 84.2178 68.7481C84.1636 68.8526 84.1412 68.9755 84.1509 69.1169C84.1629 69.2576 84.1949 69.4252 84.2469 69.6194C84.3009 69.8209 84.3582 69.9868 84.4188 70.1171C84.4795 70.2474 84.5594 70.3442 84.6586 70.4076C84.7603 70.4703 84.8867 70.4814 85.0378 70.4409C85.1889 70.4005 85.2915 70.328 85.3458 70.2234C85.4025 70.1183 85.4245 69.9941 85.4118 69.851C85.3992 69.7079 85.3658 69.5356 85.3119 69.3341Z" fill="white" fill-opacity="0.31"/>
<path d="M18.9428 52.75C18.9155 52.6358 18.8658 52.5501 18.7938 52.493C18.7218 52.4359 18.6212 52.4074 18.4921 52.4074C18.296 52.4074 18.1495 52.4831 18.0526 52.6346C17.9558 52.7835 17.9049 53.0319 17.8999 53.3795C17.9645 53.2702 18.0588 53.1858 18.183 53.1262C18.3071 53.0666 18.4412 53.0368 18.5852 53.0368C18.7491 53.0368 18.8931 53.0728 19.0173 53.1448C19.1439 53.2144 19.242 53.3162 19.3115 53.4503C19.3836 53.5843 19.4196 53.7445 19.4196 53.9307C19.4196 54.1045 19.3848 54.2597 19.3153 54.3963C19.2482 54.5329 19.1477 54.6409 19.0136 54.7204C18.8795 54.7973 18.7181 54.8358 18.5294 54.8358C18.2736 54.8358 18.0725 54.7799 17.926 54.6682C17.782 54.554 17.6802 54.3938 17.6206 54.1877C17.5635 53.9816 17.5349 53.7246 17.5349 53.4167C17.5349 52.5079 17.8552 52.0535 18.4959 52.0535C18.7442 52.0535 18.9391 52.1206 19.0806 52.2547C19.2246 52.3887 19.3091 52.5539 19.3339 52.75H18.9428ZM18.4921 53.3944C18.3407 53.3944 18.2115 53.4403 18.1048 53.5322C18.0005 53.6216 17.9483 53.752 17.9483 53.9233C17.9483 54.0946 17.9968 54.2312 18.0936 54.333C18.1929 54.4323 18.3307 54.482 18.507 54.482C18.6635 54.482 18.7864 54.4336 18.8758 54.3367C18.9676 54.2399 19.0136 54.1108 19.0136 53.9494C19.0136 53.7805 18.9689 53.6464 18.8795 53.5471C18.7926 53.4453 18.6635 53.3944 18.4921 53.3944ZM19.8725 53.4428C19.8725 53.0132 19.9445 52.678 20.0885 52.4372C20.235 52.1938 20.4858 52.0721 20.8409 52.0721C21.196 52.0721 21.4455 52.1938 21.5895 52.4372C21.736 52.678 21.8093 53.0132 21.8093 53.4428C21.8093 53.8773 21.736 54.2175 21.5895 54.4634C21.4455 54.7067 21.196 54.8284 20.8409 54.8284C20.4858 54.8284 20.235 54.7067 20.0885 54.4634C19.9445 54.2175 19.8725 53.8773 19.8725 53.4428ZM21.3921 53.4428C21.3921 53.2417 21.3785 53.0716 21.3512 52.9325C21.3263 52.7935 21.2742 52.6805 21.1947 52.5936C21.1153 52.5042 20.9973 52.4595 20.8409 52.4595C20.6844 52.4595 20.5665 52.5042 20.487 52.5936C20.4076 52.6805 20.3542 52.7935 20.3269 52.9325C20.3021 53.0716 20.2896 53.2417 20.2896 53.4428C20.2896 53.6514 20.3021 53.8264 20.3269 53.968C20.3517 54.1095 20.4039 54.2237 20.4833 54.3106C20.5653 54.3976 20.6844 54.441 20.8409 54.441C20.9973 54.441 21.1153 54.3976 21.1947 54.3106C21.2767 54.2237 21.33 54.1095 21.3549 53.968C21.3797 53.8264 21.3921 53.6514 21.3921 53.4428Z" fill="white"/>
<path d="M87.3398 52.75C87.3125 52.6358 87.2628 52.5501 87.1908 52.493C87.1188 52.4359 87.0182 52.4074 86.8891 52.4074C86.6929 52.4074 86.5464 52.4831 86.4496 52.6346C86.3528 52.7835 86.3019 53.0319 86.2969 53.3795C86.3614 53.2702 86.4558 53.1858 86.58 53.1262C86.7041 53.0666 86.8382 53.0368 86.9822 53.0368C87.1461 53.0368 87.2901 53.0728 87.4143 53.1448C87.5409 53.2144 87.639 53.3162 87.7085 53.4503C87.7805 53.5843 87.8165 53.7445 87.8165 53.9307C87.8165 54.1045 87.7818 54.2597 87.7122 54.3963C87.6452 54.5329 87.5446 54.6409 87.4105 54.7204C87.2765 54.7973 87.1151 54.8358 86.9263 54.8358C86.6706 54.8358 86.4695 54.7799 86.323 54.6682C86.1789 54.554 86.0771 54.3938 86.0175 54.1877C85.9604 53.9816 85.9319 53.7246 85.9319 53.4167C85.9319 52.5079 86.2522 52.0535 86.8928 52.0535C87.1411 52.0535 87.3361 52.1206 87.4776 52.2547C87.6216 52.3887 87.706 52.5539 87.7309 52.75H87.3398ZM86.8891 53.3944C86.7376 53.3944 86.6085 53.4403 86.5017 53.5322C86.3974 53.6216 86.3453 53.752 86.3453 53.9233C86.3453 54.0946 86.3937 54.2312 86.4906 54.333C86.5899 54.4323 86.7277 54.482 86.904 54.482C87.0604 54.482 87.1833 54.4336 87.2727 54.3367C87.3646 54.2399 87.4105 54.1108 87.4105 53.9494C87.4105 53.7805 87.3659 53.6464 87.2765 53.5471C87.1896 53.4453 87.0604 53.3944 86.8891 53.3944ZM88.2694 53.4428C88.2694 53.0132 88.3415 52.678 88.4855 52.4372C88.632 52.1938 88.8828 52.0721 89.2379 52.0721C89.5929 52.0721 89.8425 52.1938 89.9865 52.4372C90.133 52.678 90.2063 53.0132 90.2063 53.4428C90.2063 53.8773 90.133 54.2175 89.9865 54.4634C89.8425 54.7067 89.5929 54.8284 89.2379 54.8284C88.8828 54.8284 88.632 54.7067 88.4855 54.4634C88.3415 54.2175 88.2694 53.8773 88.2694 53.4428ZM89.7891 53.4428C89.7891 53.2417 89.7754 53.0716 89.7481 52.9325C89.7233 52.7935 89.6711 52.6805 89.5917 52.5936C89.5122 52.5042 89.3943 52.4595 89.2379 52.4595C89.0814 52.4595 88.9635 52.5042 88.884 52.5936C88.8046 52.6805 88.7512 52.7935 88.7239 52.9325C88.699 53.0716 88.6866 53.2417 88.6866 53.4428C88.6866 53.6514 88.699 53.8264 88.7239 53.968C88.7487 54.1095 88.8008 54.2237 88.8803 54.3106C88.9622 54.3976 89.0814 54.441 89.2379 54.441C89.3943 54.441 89.5122 54.3976 89.5917 54.3106C89.6736 54.2237 89.727 54.1095 89.7518 53.968C89.7767 53.8264 89.7891 53.6514 89.7891 53.4428Z" fill="white" fill-opacity="0.31"/>
<path d="M24.4404 34.5213C24.4131 34.407 24.3634 34.3214 24.2914 34.2643C24.2194 34.2072 24.1188 34.1786 23.9897 34.1786C23.7935 34.1786 23.647 34.2543 23.5502 34.4058C23.4533 34.5548 23.4024 34.8031 23.3975 35.1507C23.462 35.0415 23.5564 34.957 23.6805 34.8975C23.8047 34.8379 23.9388 34.8081 24.0828 34.8081C24.2467 34.8081 24.3907 34.8441 24.5149 34.9161C24.6415 34.9856 24.7396 35.0874 24.8091 35.2215C24.8811 35.3556 24.9171 35.5157 24.9171 35.702C24.9171 35.8758 24.8824 36.031 24.8128 36.1676C24.7458 36.3041 24.6452 36.4121 24.5111 36.4916C24.377 36.5686 24.2156 36.6071 24.0269 36.6071C23.7712 36.6071 23.57 36.5512 23.4235 36.4394C23.2795 36.3252 23.1777 36.1651 23.1181 35.959C23.061 35.7529 23.0325 35.4959 23.0325 35.188C23.0325 34.2792 23.3528 33.8248 23.9934 33.8248C24.2417 33.8248 24.4366 33.8918 24.5782 34.0259C24.7222 34.16 24.8066 34.3251 24.8314 34.5213H24.4404ZM23.9897 35.1656C23.8382 35.1656 23.7091 35.2116 23.6023 35.3034C23.498 35.3928 23.4459 35.5232 23.4459 35.6945C23.4459 35.8659 23.4943 36.0024 23.5912 36.1042C23.6905 36.2036 23.8283 36.2532 24.0046 36.2532C24.161 36.2532 24.2839 36.2048 24.3733 36.108C24.4652 36.0111 24.5111 35.882 24.5111 35.7206C24.5111 35.5517 24.4664 35.4177 24.377 35.3183C24.2901 35.2165 24.161 35.1656 23.9897 35.1656ZM25.37 35.214C25.37 34.7845 25.442 34.4493 25.5861 34.2084C25.7326 33.9651 25.9834 33.8434 26.3384 33.8434C26.6935 33.8434 26.9431 33.9651 27.0871 34.2084C27.2336 34.4493 27.3068 34.7845 27.3068 35.214C27.3068 35.6486 27.2336 35.9888 27.0871 36.2346C26.9431 36.4779 26.6935 36.5996 26.3384 36.5996C25.9834 36.5996 25.7326 36.4779 25.5861 36.2346C25.442 35.9888 25.37 35.6486 25.37 35.214ZM26.8897 35.214C26.8897 35.0129 26.876 34.8428 26.8487 34.7038C26.8239 34.5647 26.7717 34.4517 26.6923 34.3648C26.6128 34.2754 26.4949 34.2307 26.3384 34.2307C26.182 34.2307 26.0641 34.2754 25.9846 34.3648C25.9051 34.4517 25.8518 34.5647 25.8244 34.7038C25.7996 34.8428 25.7872 35.0129 25.7872 35.214C25.7872 35.4226 25.7996 35.5977 25.8244 35.7392C25.8493 35.8808 25.9014 35.995 25.9809 36.0819C26.0628 36.1688 26.182 36.2122 26.3384 36.2122C26.4949 36.2122 26.6128 36.1688 26.6923 36.0819C26.7742 35.995 26.8276 35.8808 26.8524 35.7392C26.8773 35.5977 26.8897 35.4226 26.8897 35.214Z" fill="white"/>
<path d="M81.8417 34.5213C81.8144 34.407 81.7648 34.3214 81.6927 34.2643C81.6207 34.2072 81.5202 34.1786 81.3911 34.1786C81.1949 34.1786 81.0484 34.2543 80.9515 34.4058C80.8547 34.5548 80.8038 34.8031 80.7988 35.1507C80.8634 35.0415 80.9578 34.957 81.0819 34.8975C81.2061 34.8379 81.3401 34.8081 81.4842 34.8081C81.6481 34.8081 81.7921 34.8441 81.9162 34.9161C82.0429 34.9856 82.1409 35.0874 82.2105 35.2215C82.2825 35.3556 82.3185 35.5157 82.3185 35.702C82.3185 35.8758 82.2837 36.031 82.2142 36.1676C82.1472 36.3041 82.0466 36.4121 81.9125 36.4916C81.7784 36.5686 81.617 36.6071 81.4283 36.6071C81.1725 36.6071 80.9714 36.5512 80.8249 36.4394C80.6809 36.3252 80.5791 36.1651 80.5195 35.959C80.4624 35.7529 80.4338 35.4959 80.4338 35.188C80.4338 34.2792 80.7541 33.8248 81.3948 33.8248C81.6431 33.8248 81.838 33.8918 81.9795 34.0259C82.1236 34.16 82.208 34.3251 82.2328 34.5213H81.8417ZM81.3911 35.1656C81.2396 35.1656 81.1105 35.2116 81.0037 35.3034C80.8994 35.3928 80.8473 35.5232 80.8473 35.6945C80.8473 35.8659 80.8957 36.0024 80.9925 36.1042C81.0918 36.2036 81.2297 36.2532 81.406 36.2532C81.5624 36.2532 81.6853 36.2048 81.7747 36.108C81.8666 36.0111 81.9125 35.882 81.9125 35.7206C81.9125 35.5517 81.8678 35.4177 81.7784 35.3183C81.6915 35.2165 81.5624 35.1656 81.3911 35.1656ZM82.7714 35.214C82.7714 34.7845 82.8434 34.4493 82.9874 34.2084C83.1339 33.9651 83.3847 33.8434 83.7398 33.8434C84.0949 33.8434 84.3444 33.9651 84.4885 34.2084C84.635 34.4493 84.7082 34.7845 84.7082 35.214C84.7082 35.6486 84.635 35.9888 84.4885 36.2346C84.3444 36.4779 84.0949 36.5996 83.7398 36.5996C83.3847 36.5996 83.1339 36.4779 82.9874 36.2346C82.8434 35.9888 82.7714 35.6486 82.7714 35.214ZM84.291 35.214C84.291 35.0129 84.2774 34.8428 84.2501 34.7038C84.2252 34.5647 84.1731 34.4517 84.0936 34.3648C84.0142 34.2754 83.8962 34.2307 83.7398 34.2307C83.5834 34.2307 83.4654 34.2754 83.386 34.3648C83.3065 34.4517 83.2531 34.5647 83.2258 34.7038C83.201 34.8428 83.1886 35.0129 83.1886 35.214C83.1886 35.4226 83.201 35.5977 83.2258 35.7392C83.2506 35.8808 83.3028 35.995 83.3822 36.0819C83.4642 36.1688 83.5834 36.2122 83.7398 36.2122C83.8962 36.2122 84.0142 36.1688 84.0936 36.0819C84.1756 35.995 84.229 35.8808 84.2538 35.7392C84.2786 35.5977 84.291 35.4226 84.291 35.214Z" fill="white" fill-opacity="0.31"/>
<path d="M35.5067 25.1608C35.2185 25.1781 35.0049 25.0663 34.8658 24.8255C34.7988 24.7094 34.7664 24.5862 34.7686 24.4559C34.7708 24.3256 34.8138 24.199 34.8976 24.076C34.9802 23.9509 35.1054 23.8399 35.2731 23.7431C35.4387 23.6475 35.5963 23.5952 35.746 23.5862C35.8965 23.5739 36.0287 23.5993 36.1427 23.6625C36.2566 23.7258 36.3471 23.8155 36.4141 23.9316C36.4837 24.052 36.5139 24.1765 36.505 24.3049C36.4969 24.43 36.4566 24.5465 36.3841 24.6543C36.5327 24.6287 36.6723 24.647 36.8029 24.7092C36.9322 24.7693 37.0366 24.8682 37.1161 25.0058C37.1968 25.1456 37.2327 25.2897 37.2238 25.4382C37.2149 25.5867 37.1638 25.7266 37.0704 25.8579C36.9771 25.9892 36.8498 26.1014 36.6885 26.1946C36.5272 26.2877 36.3664 26.3418 36.206 26.357C36.0477 26.371 35.9021 26.3447 35.769 26.2781C35.636 26.2116 35.5291 26.1084 35.4484 25.9686C35.3677 25.8289 35.3337 25.6879 35.3463 25.5459C35.3589 25.4039 35.4124 25.2755 35.5067 25.1608ZM36.0886 24.1797C36.0191 24.0593 35.9281 23.9886 35.8156 23.9675C35.7031 23.9465 35.5812 23.9738 35.45 24.0495C35.321 24.124 35.2375 24.2153 35.1995 24.3232C35.1615 24.4312 35.1778 24.5465 35.2486 24.669C35.3107 24.7765 35.4003 24.8424 35.5174 24.8665C35.6355 24.8872 35.7558 24.8622 35.8784 24.7914C36.0009 24.7207 36.0821 24.6279 36.122 24.5131C36.1618 24.3984 36.1507 24.2873 36.0886 24.1797ZM36.0385 25.0688C35.8966 25.1508 35.801 25.2533 35.7516 25.3764C35.7032 25.4961 35.7168 25.6216 35.7926 25.7527C35.8633 25.8753 35.9641 25.9505 36.0948 25.9782C36.2242 26.0038 36.3632 25.9738 36.5116 25.8881C36.6578 25.8037 36.7505 25.6986 36.7896 25.5727C36.831 25.4457 36.8169 25.3219 36.7473 25.2015C36.6728 25.0725 36.571 24.9979 36.4419 24.9779C36.3149 24.9566 36.1805 24.9869 36.0385 25.0688ZM37.18 24.2249C36.9652 23.8529 36.8599 23.5265 36.8642 23.2459C36.8694 22.962 37.0258 22.7312 37.3333 22.5536C37.6408 22.3761 37.9178 22.3567 38.1642 22.4954C38.4115 22.6308 38.6425 22.8845 38.8573 23.2565C39.0746 23.6328 39.1812 23.964 39.1773 24.2502C39.1742 24.5329 39.0189 24.7631 38.7114 24.9406C38.4039 25.1181 38.1259 25.1382 37.8773 25.0007C37.6297 24.8598 37.3972 24.6012 37.18 24.2249ZM38.496 23.4651C38.3955 23.2909 38.2986 23.1504 38.2054 23.0436C38.1144 22.9356 38.0127 22.8638 37.9005 22.8283C37.7869 22.7906 37.6625 22.8109 37.527 22.8891C37.3915 22.9673 37.3117 23.065 37.2876 23.1822C37.2622 23.2971 37.2725 23.4217 37.3184 23.5558C37.3664 23.6886 37.4407 23.8421 37.5412 24.0163C37.6455 24.1969 37.7438 24.3423 37.8361 24.4525C37.9284 24.5626 38.0306 24.6355 38.1429 24.671C38.2573 24.7053 38.3823 24.6834 38.5177 24.6051C38.6532 24.5269 38.7336 24.4303 38.759 24.3153C38.7865 24.1991 38.7756 24.0735 38.7264 23.9385C38.6771 23.8035 38.6003 23.6457 38.496 23.4651Z" fill="white" fill-opacity="0.31"/>
<path d="M65.8552 25.8195L65.6616 25.484L66.3325 25.0967L67.6901 27.4481L67.3192 27.6623L66.1552 25.6463L65.8552 25.8195ZM68.1098 26.5392C68.2132 26.2415 68.2911 26.0015 68.3436 25.8193C68.397 25.6336 68.4275 25.4555 68.435 25.2848C68.4426 25.1142 68.4103 24.9665 68.3383 24.8418C68.2638 24.7127 68.1743 24.6297 68.0697 24.5926C67.9673 24.5542 67.8505 24.5729 67.7193 24.6486C67.5925 24.7219 67.5171 24.8198 67.4934 24.9425C67.4705 25.0618 67.496 25.1905 67.5699 25.3284L67.2151 25.5333C67.08 25.2844 67.0451 25.0551 67.1104 24.8454C67.1766 24.6323 67.3183 24.463 67.5355 24.3376C67.7699 24.2023 67.9899 24.1613 68.1956 24.2145C68.4034 24.2666 68.5694 24.4001 68.6935 24.6152C68.7829 24.77 68.8294 24.9424 68.833 25.1324C68.8376 25.3191 68.8179 25.501 68.774 25.6783C68.7311 25.8522 68.6685 26.0618 68.5865 26.307L68.5158 26.5198L69.5383 25.9295L69.7153 26.2359L68.1476 27.141L67.993 26.8733L68.1098 26.5392ZM69.3604 24.8753C69.1456 24.5033 69.0404 24.1769 69.0447 23.8963C69.0499 23.6124 69.2062 23.3816 69.5138 23.204C69.8213 23.0265 70.0982 23.0071 70.3446 23.1458C70.5919 23.2812 70.823 23.5348 71.0377 23.9069C71.255 24.2832 71.3617 24.6144 71.3577 24.9006C71.3547 25.1833 71.1994 25.4135 70.8919 25.591C70.5844 25.7685 70.3063 25.7886 70.0578 25.6511C69.8101 25.5102 69.5777 25.2516 69.3604 24.8753ZM70.6765 24.1154C70.5759 23.9413 70.479 23.8008 70.3859 23.694C70.2948 23.586 70.1932 23.5142 70.0809 23.4787C69.9674 23.441 69.8429 23.4613 69.7074 23.5395C69.572 23.6177 69.4922 23.7154 69.468 23.8325C69.4427 23.9475 69.4529 24.0721 69.4988 24.2062C69.5468 24.339 69.6211 24.4925 69.7217 24.6667C69.826 24.8473 69.9243 24.9927 70.0165 25.1029C70.1088 25.213 70.2111 25.2859 70.3233 25.3214C70.4378 25.3557 70.5627 25.3338 70.6982 25.2555C70.8337 25.1773 70.9141 25.0807 70.9394 24.9657C70.9669 24.8495 70.9561 24.7239 70.9068 24.5889C70.8575 24.4539 70.7808 24.2961 70.6765 24.1154Z" fill="white" fill-opacity="0.31"/>
<circle cx="53.6659" cy="52.6467" r="16.813" stroke="white" stroke-opacity="0.09" stroke-width="0.339656"/>
<circle cx="53.6656" cy="52.6467" r="20.8481" stroke="url(#paint1_linear_79_1381)" stroke-opacity="0.09" stroke-width="0.421173"/>
<circle cx="53.6658" cy="52.6466" r="20.8481" transform="rotate(135 53.6658 52.6466)" stroke="url(#paint2_linear_79_1381)" stroke-opacity="0.09" stroke-width="0.421173"/>
<circle cx="53.6655" cy="52.6467" r="24.0368" transform="rotate(165 53.6655 52.6467)" stroke="url(#paint3_linear_79_1381)" stroke-opacity="0.09" stroke-width="0.485592"/>
<circle cx="53.6653" cy="52.6467" r="24.0368" stroke="url(#paint4_linear_79_1381)" stroke-opacity="0.09" stroke-width="0.485592"/>
<g filter="url(#filter21_d_79_1381)">
<path d="M45.9611 55.8535V50.3766L45.1733 51.3258H43.8254L45.7618 49.0193H46.9863V55.8535H45.9611ZM48.0648 55.8535V53.2622C48.0648 53.0281 48.1186 52.8192 48.2262 52.6357C48.3401 52.4522 48.4888 52.3067 48.6723 52.1991C48.8621 52.0852 49.0709 52.0282 49.2988 52.0282H53.6366C53.6999 52.0282 53.7537 52.0061 53.798 51.9618C53.8486 51.9112 53.8739 51.8542 53.8739 51.7909V50.2817C53.8739 50.2184 53.8486 50.1646 53.798 50.1203C53.7537 50.0697 53.6999 50.0444 53.6366 50.0444H49.3272C49.2639 50.0444 49.207 50.0697 49.1564 50.1203C49.1121 50.1646 49.0899 50.2184 49.0899 50.2817V50.6519H48.0648V50.2532C48.0648 50.0191 48.1186 49.8103 48.2262 49.6267C48.3401 49.4432 48.4888 49.2945 48.6723 49.1806C48.8621 49.0667 49.0709 49.0098 49.2988 49.0098H53.6651C53.8866 49.0098 54.0891 49.0667 54.2726 49.1806C54.4624 49.2945 54.6143 49.4432 54.7282 49.6267C54.8421 49.8103 54.899 50.0191 54.899 50.2532V51.8194C54.899 52.0472 54.8421 52.256 54.7282 52.4459C54.6143 52.6294 54.4624 52.7781 54.2726 52.892C54.0891 52.9996 53.8866 53.0534 53.6651 53.0534H49.3272C49.2639 53.0534 49.207 53.0787 49.1564 53.1293C49.1121 53.1736 49.0899 53.2274 49.0899 53.2907V54.5911C49.0899 54.6544 49.1121 54.7113 49.1564 54.7619C49.207 54.8062 49.2639 54.8284 49.3272 54.8284H54.899V55.8535H48.0648ZM57.1779 55.8535C56.9501 55.8535 56.7412 55.7966 56.5514 55.6827C56.3679 55.5688 56.2192 55.42 56.1053 55.2365C55.9977 55.053 55.9439 54.8474 55.9439 54.6196V54.2494H56.969V54.5911C56.969 54.6544 56.9912 54.7113 57.0355 54.7619C57.0861 54.8062 57.1431 54.8284 57.2064 54.8284H61.5157C61.579 54.8284 61.6328 54.8062 61.6771 54.7619C61.7277 54.7113 61.753 54.6544 61.753 54.5911V53.1008C61.753 53.0375 61.7277 52.9838 61.6771 52.9395C61.6328 52.8888 61.579 52.8635 61.5157 52.8635H55.9439V49.0098H62.7782V50.0444H57.2064C57.1431 50.0444 57.0861 50.0697 57.0355 50.1203C56.9912 50.1646 56.969 50.2184 56.969 50.2817V51.6011C56.969 51.6644 56.9912 51.7213 57.0355 51.7719C57.0861 51.8162 57.1431 51.8384 57.2064 51.8384H61.5442C61.7657 51.8384 61.9682 51.8922 62.1517 51.9998C62.3415 52.1073 62.4934 52.256 62.6073 52.4459C62.7212 52.6357 62.7782 52.8445 62.7782 53.0724V54.6196C62.7782 54.8474 62.7212 55.053 62.6073 55.2365C62.4934 55.42 62.3415 55.5688 62.1517 55.6827C61.9682 55.7966 61.7657 55.8535 61.5442 55.8535H57.1779Z" fill="white"/>
</g>
<g filter="url(#filter22_d_79_1381)">
<path d="M41.7778 63.9144C41.7778 62.7563 42.7167 61.8174 43.8749 61.8174H63.7964C64.9545 61.8174 65.8934 62.7563 65.8934 63.9144V65.6619C65.8934 67.7852 64.1722 69.5064 62.0489 69.5064H45.6223C43.4991 69.5064 41.7778 67.7852 41.7778 65.6619V63.9144Z" fill="#0E0E0E"/>
<path d="M41.9223 63.9144C41.9223 62.836 42.7965 61.9618 43.8749 61.9618H63.7964C64.8748 61.9618 65.749 62.836 65.749 63.9144V65.6619C65.749 67.7054 64.0924 69.362 62.0489 69.362H45.6223C43.5788 69.362 41.9223 67.7054 41.9223 65.6619V63.9144Z" stroke="white" stroke-opacity="0.12" stroke-width="0.288877"/>
</g>
<path d="M48.0063 66.0037C48.0319 65.9188 47.9823 65.8292 47.8974 65.8051C47.8814 65.8003 47.867 65.7955 47.851 65.7923C47.8494 65.6498 47.8205 65.5121 47.7677 65.3872L46.8981 66.0085C47.204 65.9909 47.5114 66.0245 47.8077 66.1126C47.8926 66.1366 47.9823 66.0886 48.0063 66.0037ZM47.3355 67.2634C47.3472 67.266 47.3591 67.2673 47.3707 67.2673C47.444 67.2673 47.51 67.2168 47.5268 67.1422L47.6869 66.4284C47.7044 66.3502 47.6616 66.2712 47.5865 66.2432C47.2405 66.1147 46.8599 66.1147 46.5139 66.2432C46.4389 66.2712 46.396 66.3502 46.4135 66.4284L46.5737 67.1422C46.5931 67.2286 46.6791 67.2831 46.7649 67.2634C46.8513 67.244 46.9055 67.1584 46.8861 67.0721L46.7583 66.5022C46.951 66.454 47.1493 66.454 47.342 66.5022L47.2142 67.0721C47.1949 67.1584 47.2492 67.244 47.3355 67.2634ZM45.7995 66.3993C45.8299 66.4425 45.8795 66.4666 45.9292 66.4666C45.9612 66.4666 45.9948 66.4569 46.0221 66.4361L48.2641 64.8346C48.3362 64.7834 48.3522 64.6841 48.301 64.612C48.2497 64.54 48.1504 64.524 48.0784 64.5752L47.473 65.0076C47.4619 64.9991 47.4501 64.9925 47.4386 64.9848C47.4959 64.9057 47.5307 64.8095 47.5307 64.7049C47.5307 64.4407 47.3145 64.2245 47.0502 64.2245C46.786 64.2245 46.5698 64.4407 46.5698 64.7049C46.5698 64.81 46.6049 64.9066 46.6627 64.9859C46.4476 65.127 46.2919 65.3793 46.2575 65.6786C46.2527 65.7155 46.2495 65.7539 46.2495 65.7923C46.2335 65.7955 46.2191 65.8003 46.203 65.8051C46.1214 65.8276 46.0717 65.9124 46.0925 65.9941L45.8363 66.1767C45.7642 66.2279 45.7482 66.3272 45.7995 66.3993Z" fill="#FFAC70"/>
<path fill-rule="evenodd" clip-rule="evenodd" d="M55.2054 66.2967V65.442C55.2054 65.4137 55.1941 65.3865 55.1741 65.3665C55.154 65.3464 55.1269 65.3352 55.0985 65.3352C55.0702 65.3352 55.043 65.3464 55.023 65.3665C55.0029 65.3865 54.9917 65.4137 54.9917 65.442V65.7625H54.778V65.5488C54.778 65.4922 54.7555 65.4378 54.7154 65.3978C54.6754 65.3577 54.621 65.3352 54.5643 65.3352H54.3949L54.0219 64.9622L52.8137 66.92L52.8174 66.9216C52.8433 66.9323 52.8711 66.9378 52.8992 66.9377H53.7723C53.8004 66.9378 53.8282 66.9323 53.8541 66.9216C53.88 66.9108 53.9036 66.895 53.9233 66.8751L54.3949 66.4035H54.5643C54.621 66.4035 54.6754 66.381 54.7154 66.3409C54.7555 66.3009 54.778 66.2465 54.778 66.1899V65.9762H54.9917V66.2967C54.9917 66.325 55.0029 66.3522 55.023 66.3722C55.043 66.3923 55.0702 66.4035 55.0985 66.4035C55.1269 66.4035 55.154 66.3923 55.1741 66.3722C55.1941 66.3522 55.2054 66.325 55.2054 66.2967ZM52.6091 66.736L53.802 64.803C53.7922 64.8016 53.7822 64.801 53.7723 64.801H53.496V64.5873H53.8165C53.8448 64.5873 53.872 64.5761 53.892 64.556C53.9121 64.536 53.9233 64.5088 53.9233 64.4805C53.9233 64.4522 53.9121 64.425 53.892 64.4049C53.872 64.3849 53.8448 64.3737 53.8165 64.3737H52.9618C52.9335 64.3737 52.9063 64.3849 52.8863 64.4049C52.8662 64.425 52.855 64.4522 52.855 64.4805C52.855 64.5088 52.8662 64.536 52.8863 64.556C52.9063 64.5761 52.9335 64.5873 52.9618 64.5873H53.2823V64.801H52.4276C52.371 64.801 52.3166 64.8235 52.2765 64.8636C52.2365 64.9037 52.214 64.958 52.214 65.0147V65.7625H52.0003V65.442C52.0003 65.4137 51.989 65.3865 51.969 65.3665C51.949 65.3464 51.9218 65.3352 51.8935 65.3352C51.8651 65.3352 51.8379 65.3464 51.8179 65.3665C51.7979 65.3865 51.7866 65.4137 51.7866 65.442V66.2967C51.7866 66.325 51.7979 66.3522 51.8179 66.3722C51.8379 66.3923 51.8651 66.4035 51.8935 66.4035C51.9218 66.4035 51.949 66.3923 51.969 66.3722C51.989 66.3522 52.0003 66.325 52.0003 66.2967V65.9762H52.214V66.2525C52.2139 66.2806 52.2194 66.3084 52.2301 66.3343C52.2409 66.3602 52.2567 66.3838 52.2766 66.4035L52.6091 66.736Z" fill="#898989"/>
<path d="M58.4681 66.9204C58.4747 66.9614 58.5101 66.9916 58.5516 66.9916H60.7103C60.8244 66.9916 60.9359 66.9477 61.0132 66.8636C61.032 66.8432 61.0493 66.8207 61.0658 66.7973H58.4485L58.4681 66.9204ZM58.4211 66.5173H61.123C61.1463 66.5173 61.168 66.5236 61.1874 66.5337C61.2472 66.3134 61.2339 66.0517 61.1167 65.8219C61.0884 65.7665 61.0458 65.7197 60.9959 65.6829L59.9593 64.9191C59.6868 64.7189 59.3577 64.6104 59.0194 64.6104H58.1988C58.1468 64.6104 58.1071 64.6568 58.1153 64.7081L58.4041 66.519C58.4098 66.5183 58.4153 66.5173 58.4211 66.5173ZM59.0359 66.0317C59.0359 66.0472 59.0233 66.0598 59.0078 66.0598H58.5971C58.5816 66.0598 58.569 66.0472 58.569 66.0317V65.9659C58.569 65.9504 58.5816 65.9378 58.5971 65.9378H59.0078C59.0233 65.9378 59.0359 65.9504 59.0359 65.9659L59.0359 66.0317ZM59.0194 64.8216C59.3142 64.8216 59.596 64.9141 59.8342 65.0894L60.5017 65.5811H58.4685L58.3473 64.8216H59.0194ZM61.123 66.5835H58.4211C58.3803 66.5835 58.3473 66.6165 58.3473 66.6573C58.3473 66.6981 58.3803 66.7312 58.4211 66.7312H61.123C61.1638 66.7312 61.1969 66.6981 61.1969 66.6573C61.1969 66.6165 61.1638 66.5835 61.123 66.5835Z" fill="#898989"/>
<path d="M79.3097 98.5797C79.4035 98.7421 79.6114 98.7978 79.7733 98.703C90.0562 92.6779 98.0107 83.3598 102.346 72.2513C106.723 61.0373 107.151 48.6671 103.559 37.1774C99.9677 25.6878 92.5708 15.7636 82.5864 9.03875C72.6019 2.31394 60.6252 -0.810607 48.6281 0.179543C36.6309 1.16969 25.3285 6.21551 16.5817 14.4863C7.83491 22.757 2.16511 33.7596 0.505786 45.6827C-1.15353 57.6057 1.29655 69.7383 7.45265 80.0831C13.5508 90.3305 22.9254 98.2184 34.057 102.476C34.2322 102.543 34.4282 102.454 34.4941 102.278L34.6395 101.891C34.7054 101.715 34.6162 101.519 34.441 101.452C23.5421 97.2819 14.3634 89.5579 8.39226 79.524C2.3632 69.3927 -0.0363295 57.5104 1.58875 45.8334C3.21383 34.1564 8.76663 23.3808 17.3329 15.2807C25.8993 7.18065 36.9684 2.23896 48.718 1.26924C60.4676 0.299519 72.1972 3.35959 81.9755 9.94563C91.7539 16.5317 98.9982 26.2511 102.516 37.5036C106.033 48.7562 105.614 60.8711 101.328 71.8538C97.0825 82.7309 89.2943 91.8552 79.2266 97.756C79.0647 97.8509 79.0088 98.0586 79.1026 98.2211L79.3097 98.5797Z" fill="#474747"/>
<path d="M34.4476 102.261C34.3816 102.437 34.1854 102.525 34.0102 102.458C21.5623 97.6835 11.3673 88.3894 5.46604 76.425C-0.485336 64.359 -1.62394 50.481 2.28123 37.6063C6.18642 24.7317 14.8429 13.8247 26.4945 7.09805C38.0479 0.428122 51.6883 -1.63623 64.6911 1.30897C64.874 1.35041 64.9878 1.53322 64.9452 1.7159L64.8512 2.11916C64.8086 2.30185 64.6257 2.41522 64.4427 2.37381C51.7103 -0.508344 38.3542 1.51386 27.0412 8.04498C15.63 14.6328 7.15215 25.3147 3.32756 37.9237C-0.497025 50.5327 0.618073 64.1244 6.44664 75.9414C12.2251 87.6567 22.2072 96.7579 34.3953 101.435C34.5704 101.502 34.6595 101.698 34.5934 101.873L34.4476 102.261Z" fill="url(#paint5_linear_79_1381)"/>
<g filter="url(#filter23_d_79_1381)">
<path d="M41.7778 37.5197C41.7778 38.6778 42.7167 39.6167 43.8749 39.6167H63.7964C64.9545 39.6167 65.8934 38.6778 65.8934 37.5197V35.7722C65.8934 33.6489 64.1722 31.9277 62.0489 31.9277H45.6223C43.4991 31.9277 41.7778 33.6489 41.7778 35.7722V37.5197Z" fill="#0E0E0E"/>
<path d="M41.9223 37.5197C41.9223 38.5981 42.7965 39.4723 43.8749 39.4723H63.7964C64.8748 39.4723 65.749 38.5981 65.749 37.5197V35.7722C65.749 33.7287 64.0924 32.0721 62.0489 32.0721H45.6223C43.5788 32.0721 41.9223 33.7287 41.9223 35.7722V37.5197Z" stroke="white" stroke-opacity="0.12" stroke-width="0.288877"/>
</g>
<path d="M52.2158 36.9468V35.7591C52.2158 35.6518 52.2404 35.5561 52.2897 35.472C52.3419 35.3878 52.4101 35.3211 52.4942 35.2718C52.5812 35.2196 52.6769 35.1935 52.7813 35.1935H54.7695C54.7985 35.1935 54.8232 35.1834 54.8435 35.1631C54.8667 35.1399 54.8783 35.1138 54.8783 35.0848V34.393C54.8783 34.364 54.8667 34.3394 54.8435 34.3191C54.8232 34.2959 54.7985 34.2843 54.7695 34.2843H52.7944C52.7654 34.2843 52.7393 34.2959 52.7161 34.3191C52.6958 34.3394 52.6856 34.364 52.6856 34.393V34.5627H52.2158V34.38C52.2158 34.2727 52.2404 34.177 52.2897 34.0928C52.3419 34.0087 52.4101 33.9406 52.4942 33.8884C52.5812 33.8362 52.6769 33.8101 52.7813 33.8101H54.7826C54.8841 33.8101 54.9769 33.8362 55.061 33.8884C55.148 33.9406 55.2176 34.0087 55.2698 34.0928C55.322 34.177 55.3481 34.2727 55.3481 34.38V35.0978C55.3481 35.2022 55.322 35.2979 55.2698 35.3849C55.2176 35.4691 55.148 35.5372 55.061 35.5894C54.9769 35.6387 54.8841 35.6634 54.7826 35.6634H52.7944C52.7654 35.6634 52.7393 35.675 52.7161 35.6982C52.6958 35.7185 52.6856 35.7431 52.6856 35.7721V36.3682C52.6856 36.3972 52.6958 36.4233 52.7161 36.4465C52.7393 36.4668 52.7654 36.4769 52.7944 36.4769H55.3481V36.9468H52.2158Z" fill="white"/>
<path d="M59.9006 36.9468C59.7933 36.9468 59.6976 36.9207 59.6135 36.8685C59.5293 36.8163 59.4612 36.7481 59.409 36.664C59.3568 36.5799 59.3307 36.4856 59.3307 36.3812V36.2507H59.8049V36.3682C59.8049 36.3972 59.815 36.4233 59.8353 36.4465C59.8556 36.4668 59.8803 36.4769 59.9093 36.4769H61.8888C61.9178 36.4769 61.9424 36.4668 61.9627 36.4465C61.983 36.4233 61.9932 36.3972 61.9932 36.3682V35.6982C61.9932 35.6692 61.983 35.6445 61.9627 35.6242C61.9424 35.601 61.9178 35.5894 61.8888 35.5894H59.9006V35.1196H61.7539C61.7858 35.1196 61.8119 35.1094 61.8322 35.0891C61.8525 35.0659 61.8627 35.0398 61.8627 35.0108V34.393C61.8627 34.364 61.8525 34.3394 61.8322 34.3191C61.8119 34.2959 61.7858 34.2843 61.7539 34.2843H59.9093C59.8803 34.2843 59.8556 34.2959 59.8353 34.3191C59.815 34.3394 59.8049 34.364 59.8049 34.393V34.554H59.3307V34.38C59.3307 34.2727 59.3553 34.177 59.4046 34.0928C59.4568 34.0087 59.5264 33.9406 59.6135 33.8884C59.7005 33.8362 59.7962 33.8101 59.9006 33.8101H61.767C61.8743 33.8101 61.97 33.8362 62.0541 33.8884C62.1411 33.9406 62.2093 34.0087 62.2586 34.0928C62.3079 34.177 62.3325 34.2727 62.3325 34.38V35.0239C62.3325 35.0616 62.3282 35.0993 62.3195 35.137C62.3137 35.1747 62.3035 35.2095 62.289 35.2414C62.3528 35.3052 62.3978 35.3762 62.4239 35.4546C62.45 35.5329 62.463 35.6097 62.463 35.6851V36.3812C62.463 36.4856 62.4369 36.5799 62.3847 36.664C62.3354 36.7481 62.2673 36.8163 62.1803 36.8685C62.0962 36.9207 62.0033 36.9468 61.9018 36.9468H59.9006Z" fill="#4E4E4E"/>
<path d="M46.1575 36.9468V34.4365L45.7964 34.8716H45.1787L46.0662 33.8144H46.6274V36.9468H46.1575Z" fill="#4E4E4E"/>
<defs>
<filter id="filter0_d_79_1381" x="1.32137" y="52.8698" width="13.0931" height="10.7126" filterUnits="userSpaceOnUse" color-interpolation-filters="sRGB">
<feFlood flood-opacity="0" result="BackgroundImageFix"/>
<feColorMatrix in="SourceAlpha" type="matrix" values="0 0 0 0 0 0 0 0 0 0 0 0 0 0 0 0 0 0 127 0" result="hardAlpha"/>
<feOffset dy="0.299067"/>
<feGaussianBlur stdDeviation="2.39254"/>
<feComposite in2="hardAlpha" operator="out"/>
<feColorMatrix type="matrix" values="0 0 0 0 1 0 0 0 0 1 0 0 0 0 1 0 0 0 0.28 0"/>
<feBlend mode="normal" in2="BackgroundImageFix" result="effect1_dropShadow_79_1381"/>
<feBlend mode="normal" in="SourceGraphic" in2="effect1_dropShadow_79_1381" result="shape"/>
</filter>
<filter id="filter1_d_79_1381" x="0.967853" y="49.1234" width="19.766" height="10.4638" filterUnits="userSpaceOnUse" color-interpolation-filters="sRGB">
<feFlood flood-opacity="0" result="BackgroundImageFix"/>
<feColorMatrix in="SourceAlpha" type="matrix" values="0 0 0 0 0 0 0 0 0 0 0 0 0 0 0 0 0 0 127 0" result="hardAlpha"/>
<feOffset dy="0.299067"/>
<feGaussianBlur stdDeviation="2.39254"/>
<feComposite in2="hardAlpha" operator="out"/>
<feColorMatrix type="matrix" values="0 0 0 0 1 0 0 0 0 1 0 0 0 0 1 0 0 0 0.28 0"/>
<feBlend mode="normal" in2="BackgroundImageFix" result="effect1_dropShadow_79_1381"/>
<feBlend mode="normal" in="SourceGraphic" in2="effect1_dropShadow_79_1381" result="shape"/>
</filter>
<filter id="filter2_d_79_1381" x="4.66219" y="66.1436" width="13.429" height="11.641" filterUnits="userSpaceOnUse" color-interpolation-filters="sRGB">
<feFlood flood-opacity="0" result="BackgroundImageFix"/>
<feColorMatrix in="SourceAlpha" type="matrix" values="0 0 0 0 0 0 0 0 0 0 0 0 0 0 0 0 0 0 127 0" result="hardAlpha"/>
<feOffset dy="0.299067"/>
<feGaussianBlur stdDeviation="2.39254"/>
<feComposite in2="hardAlpha" operator="out"/>
<feColorMatrix type="matrix" values="0 0 0 0 1 0 0 0 0 1 0 0 0 0 1 0 0 0 0.28 0"/>
<feBlend mode="normal" in2="BackgroundImageFix" result="effect1_dropShadow_79_1381"/>
<feBlend mode="normal" in="SourceGraphic" in2="effect1_dropShadow_79_1381" result="shape"/>
</filter>
<filter id="filter3_d_79_1381" x="3.0782" y="62.0885" width="13.263" height="11.0847" filterUnits="userSpaceOnUse" color-interpolation-filters="sRGB">
<feFlood flood-opacity="0" result="BackgroundImageFix"/>
<feColorMatrix in="SourceAlpha" type="matrix" values="0 0 0 0 0 0 0 0 0 0 0 0 0 0 0 0 0 0 127 0" result="hardAlpha"/>
<feOffset dy="0.299067"/>
<feGaussianBlur stdDeviation="2.39254"/>
<feComposite in2="hardAlpha" operator="out"/>
<feColorMatrix type="matrix" values="0 0 0 0 1 0 0 0 0 1 0 0 0 0 1 0 0 0 0.28 0"/>
<feBlend mode="normal" in2="BackgroundImageFix" result="effect1_dropShadow_79_1381"/>
<feBlend mode="normal" in="SourceGraphic" in2="effect1_dropShadow_79_1381" result="shape"/>
</filter>
<filter id="filter4_d_79_1381" x="2.02401" y="57.4802" width="13.0902" height="10.8969" filterUnits="userSpaceOnUse" color-interpolation-filters="sRGB">
<feFlood flood-opacity="0" result="BackgroundImageFix"/>
<feColorMatrix in="SourceAlpha" type="matrix" values="0 0 0 0 0 0 0 0 0 0 0 0 0 0 0 0 0 0 127 0" result="hardAlpha"/>
<feOffset dy="0.299067"/>
<feGaussianBlur stdDeviation="2.39254"/>
<feComposite in2="hardAlpha" operator="out"/>
<feColorMatrix type="matrix" values="0 0 0 0 1 0 0 0 0 1 0 0 0 0 1 0 0 0 0.28 0"/>
<feBlend mode="normal" in2="BackgroundImageFix" result="effect1_dropShadow_79_1381"/>
<feBlend mode="normal" in="SourceGraphic" in2="effect1_dropShadow_79_1381" result="shape"/>
</filter>
<filter id="filter5_d_79_1381" x="7.49666" y="67.2071" width="18.1136" height="14.8621" filterUnits="userSpaceOnUse" color-interpolation-filters="sRGB">
<feFlood flood-opacity="0" result="BackgroundImageFix"/>
<feColorMatrix in="SourceAlpha" type="matrix" values="0 0 0 0 0 0 0 0 0 0 0 0 0 0 0 0 0 0 127 0" result="hardAlpha"/>
<feOffset dy="0.299067"/>
<feGaussianBlur stdDeviation="2.39254"/>
<feComposite in2="hardAlpha" operator="out"/>
<feColorMatrix type="matrix" values="0 0 0 0 1 0 0 0 0 1 0 0 0 0 1 0 0 0 0.28 0"/>
<feBlend mode="normal" in2="BackgroundImageFix" result="effect1_dropShadow_79_1381"/>
<feBlend mode="normal" in="SourceGraphic" in2="effect1_dropShadow_79_1381" result="shape"/>
</filter>
<filter id="filter6_d_79_1381" x="1.14315" y="43.4642" width="13.2743" height="10.347" filterUnits="userSpaceOnUse" color-interpolation-filters="sRGB">
<feFlood flood-opacity="0" result="BackgroundImageFix"/>
<feColorMatrix in="SourceAlpha" type="matrix" values="0 0 0 0 0 0 0 0 0 0 0 0 0 0 0 0 0 0 127 0" result="hardAlpha"/>
<feOffset dy="0.299067"/>
<feGaussianBlur stdDeviation="2.39254"/>
<feComposite in2="hardAlpha" operator="out"/>
<feColorMatrix type="matrix" values="0 0 0 0 1 0 0 0 0 1 0 0 0 0 1 0 0 0 0.28 0"/>
<feBlend mode="normal" in2="BackgroundImageFix" result="effect1_dropShadow_79_1381"/>
<feBlend mode="normal" in="SourceGraphic" in2="effect1_dropShadow_79_1381" result="shape"/>
</filter>
<filter id="filter7_d_79_1381" x="1.83651" y="38.3559" width="13.2904" height="11.1596" filterUnits="userSpaceOnUse" color-interpolation-filters="sRGB">
<feFlood flood-opacity="0" result="BackgroundImageFix"/>
<feColorMatrix in="SourceAlpha" type="matrix" values="0 0 0 0 0 0 0 0 0 0 0 0 0 0 0 0 0 0 127 0" result="hardAlpha"/>
<feOffset dy="0.299067"/>
<feGaussianBlur stdDeviation="2.39254"/>
<feComposite in2="hardAlpha" operator="out"/>
<feColorMatrix type="matrix" values="0 0 0 0 1 0 0 0 0 1 0 0 0 0 1 0 0 0 0.28 0"/>
<feBlend mode="normal" in2="BackgroundImageFix" result="effect1_dropShadow_79_1381"/>
<feBlend mode="normal" in="SourceGraphic" in2="effect1_dropShadow_79_1381" result="shape"/>
</filter>
<filter id="filter8_d_79_1381" x="3.23885" y="33.7446" width="13.118" height="11.3473" filterUnits="userSpaceOnUse" color-interpolation-filters="sRGB">
<feFlood flood-opacity="0" result="BackgroundImageFix"/>
<feColorMatrix in="SourceAlpha" type="matrix" values="0 0 0 0 0 0 0 0 0 0 0 0 0 0 0 0 0 0 127 0" result="hardAlpha"/>
<feOffset dy="0.299067"/>
<feGaussianBlur stdDeviation="2.39254"/>
<feComposite in2="hardAlpha" operator="out"/>
<feColorMatrix type="matrix" values="0 0 0 0 1 0 0 0 0 1 0 0 0 0 1 0 0 0 0.28 0"/>
<feBlend mode="normal" in2="BackgroundImageFix" result="effect1_dropShadow_79_1381"/>
<feBlend mode="normal" in="SourceGraphic" in2="effect1_dropShadow_79_1381" result="shape"/>
</filter>
<filter id="filter9_d_79_1381" x="5.1661" y="29.1328" width="12.9486" height="11.7191" filterUnits="userSpaceOnUse" color-interpolation-filters="sRGB">
<feFlood flood-opacity="0" result="BackgroundImageFix"/>
<feColorMatrix in="SourceAlpha" type="matrix" values="0 0 0 0 0 0 0 0 0 0 0 0 0 0 0 0 0 0 127 0" result="hardAlpha"/>
<feOffset dy="0.299067"/>
<feGaussianBlur stdDeviation="2.39254"/>
<feComposite in2="hardAlpha" operator="out"/>
<feColorMatrix type="matrix" values="0 0 0 0 1 0 0 0 0 1 0 0 0 0 1 0 0 0 0.28 0"/>
<feBlend mode="normal" in2="BackgroundImageFix" result="effect1_dropShadow_79_1381"/>
<feBlend mode="normal" in="SourceGraphic" in2="effect1_dropShadow_79_1381" result="shape"/>
</filter>
<filter id="filter10_d_79_1381" x="7.41805" y="24.7611" width="18.7962" height="15.1158" filterUnits="userSpaceOnUse" color-interpolation-filters="sRGB">
<feFlood flood-opacity="0" result="BackgroundImageFix"/>
<feColorMatrix in="SourceAlpha" type="matrix" values="0 0 0 0 0 0 0 0 0 0 0 0 0 0 0 0 0 0 127 0" result="hardAlpha"/>
<feOffset dy="0.299067"/>
<feGaussianBlur stdDeviation="2.39254"/>
<feComposite in2="hardAlpha" operator="out"/>
<feColorMatrix type="matrix" values="0 0 0 0 1 0 0 0 0 1 0 0 0 0 1 0 0 0 0.28 0"/>
<feBlend mode="normal" in2="BackgroundImageFix" result="effect1_dropShadow_79_1381"/>
<feBlend mode="normal" in="SourceGraphic" in2="effect1_dropShadow_79_1381" result="shape"/>
</filter>
<filter id="filter11_d_79_1381" x="10.6685" y="73.8823" width="12.5072" height="12.0572" filterUnits="userSpaceOnUse" color-interpolation-filters="sRGB">
<feFlood flood-opacity="0" result="BackgroundImageFix"/>
<feColorMatrix in="SourceAlpha" type="matrix" values="0 0 0 0 0 0 0 0 0 0 0 0 0 0 0 0 0 0 127 0" result="hardAlpha"/>
<feOffset dy="0.299067"/>
<feGaussianBlur stdDeviation="2.39254"/>
<feComposite in2="hardAlpha" operator="out"/>
<feColorMatrix type="matrix" values="0 0 0 0 1 0 0 0 0 1 0 0 0 0 1 0 0 0 0.28 0"/>
<feBlend mode="normal" in2="BackgroundImageFix" result="effect1_dropShadow_79_1381"/>
<feBlend mode="normal" in="SourceGraphic" in2="effect1_dropShadow_79_1381" result="shape"/>
</filter>
<filter id="filter12_d_79_1381" x="20.6632" y="83.5391" width="12.3338" height="13.0289" filterUnits="userSpaceOnUse" color-interpolation-filters="sRGB">
<feFlood flood-opacity="0" result="BackgroundImageFix"/>
<feColorMatrix in="SourceAlpha" type="matrix" values="0 0 0 0 0 0 0 0 0 0 0 0 0 0 0 0 0 0 127 0" result="hardAlpha"/>
<feOffset dy="0.299067"/>
<feGaussianBlur stdDeviation="2.39254"/>
<feComposite in2="hardAlpha" operator="out"/>
<feColorMatrix type="matrix" values="0 0 0 0 1 0 0 0 0 1 0 0 0 0 1 0 0 0 0.28 0"/>
<feBlend mode="normal" in2="BackgroundImageFix" result="effect1_dropShadow_79_1381"/>
<feBlend mode="normal" in="SourceGraphic" in2="effect1_dropShadow_79_1381" result="shape"/>
</filter>
<filter id="filter13_d_79_1381" x="16.9854" y="80.9025" width="12.4681" height="12.464" filterUnits="userSpaceOnUse" color-interpolation-filters="sRGB">
<feFlood flood-opacity="0" result="BackgroundImageFix"/>
<feColorMatrix in="SourceAlpha" type="matrix" values="0 0 0 0 0 0 0 0 0 0 0 0 0 0 0 0 0 0 127 0" result="hardAlpha"/>
<feOffset dy="0.299067"/>
<feGaussianBlur stdDeviation="2.39254"/>
<feComposite in2="hardAlpha" operator="out"/>
<feColorMatrix type="matrix" values="0 0 0 0 1 0 0 0 0 1 0 0 0 0 1 0 0 0 0.28 0"/>
<feBlend mode="normal" in2="BackgroundImageFix" result="effect1_dropShadow_79_1381"/>
<feBlend mode="normal" in="SourceGraphic" in2="effect1_dropShadow_79_1381" result="shape"/>
</filter>
<filter id="filter14_d_79_1381" x="13.6749" y="77.5246" width="12.4124" height="12.2153" filterUnits="userSpaceOnUse" color-interpolation-filters="sRGB">
<feFlood flood-opacity="0" result="BackgroundImageFix"/>
<feColorMatrix in="SourceAlpha" type="matrix" values="0 0 0 0 0 0 0 0 0 0 0 0 0 0 0 0 0 0 127 0" result="hardAlpha"/>
<feOffset dy="0.299067"/>
<feGaussianBlur stdDeviation="2.39254"/>
<feComposite in2="hardAlpha" operator="out"/>
<feColorMatrix type="matrix" values="0 0 0 0 1 0 0 0 0 1 0 0 0 0 1 0 0 0 0.28 0"/>
<feBlend mode="normal" in2="BackgroundImageFix" result="effect1_dropShadow_79_1381"/>
<feBlend mode="normal" in="SourceGraphic" in2="effect1_dropShadow_79_1381" result="shape"/>
</filter>
<filter id="filter15_d_79_1381" x="25.2598" y="80.7006" width="14.7806" height="18.161" filterUnits="userSpaceOnUse" color-interpolation-filters="sRGB">
<feFlood flood-opacity="0" result="BackgroundImageFix"/>
<feColorMatrix in="SourceAlpha" type="matrix" values="0 0 0 0 0 0 0 0 0 0 0 0 0 0 0 0 0 0 127 0" result="hardAlpha"/>
<feOffset dy="0.299067"/>
<feGaussianBlur stdDeviation="2.39254"/>
<feComposite in2="hardAlpha" operator="out"/>
<feColorMatrix type="matrix" values="0 0 0 0 1 0 0 0 0 1 0 0 0 0 1 0 0 0 0.28 0"/>
<feBlend mode="normal" in2="BackgroundImageFix" result="effect1_dropShadow_79_1381"/>
<feBlend mode="normal" in="SourceGraphic" in2="effect1_dropShadow_79_1381" result="shape"/>
</filter>
<filter id="filter16_d_79_1381" x="29.482" y="87.1929" width="11.3285" height="12.9288" filterUnits="userSpaceOnUse" color-interpolation-filters="sRGB">
<feFlood flood-opacity="0" result="BackgroundImageFix"/>
<feColorMatrix in="SourceAlpha" type="matrix" values="0 0 0 0 0 0 0 0 0 0 0 0 0 0 0 0 0 0 127 0" result="hardAlpha"/>
<feOffset dy="0.299067"/>
<feGaussianBlur stdDeviation="2.39254"/>
<feComposite in2="hardAlpha" operator="out"/>
<feColorMatrix type="matrix" values="0 0 0 0 1 0 0 0 0 1 0 0 0 0 1 0 0 0 0.28 0"/>
<feBlend mode="normal" in2="BackgroundImageFix" result="effect1_dropShadow_79_1381"/>
<feBlend mode="normal" in="SourceGraphic" in2="effect1_dropShadow_79_1381" result="shape"/>
</filter>
<filter id="filter17_d_79_1381" x="43.4522" y="90.6452" width="10.6922" height="13.6833" filterUnits="userSpaceOnUse" color-interpolation-filters="sRGB">
<feFlood flood-opacity="0" result="BackgroundImageFix"/>
<feColorMatrix in="SourceAlpha" type="matrix" values="0 0 0 0 0 0 0 0 0 0 0 0 0 0 0 0 0 0 127 0" result="hardAlpha"/>
<feOffset dy="0.299067"/>
<feGaussianBlur stdDeviation="2.39254"/>
<feComposite in2="hardAlpha" operator="out"/>
<feColorMatrix type="matrix" values="0 0 0 0 1 0 0 0 0 1 0 0 0 0 1 0 0 0 0.28 0"/>
<feBlend mode="normal" in2="BackgroundImageFix" result="effect1_dropShadow_79_1381"/>
<feBlend mode="normal" in="SourceGraphic" in2="effect1_dropShadow_79_1381" result="shape"/>
</filter>
<filter id="filter18_d_79_1381" x="38.6661" y="90.1335" width="11.0911" height="13.2613" filterUnits="userSpaceOnUse" color-interpolation-filters="sRGB">
<feFlood flood-opacity="0" result="BackgroundImageFix"/>
<feColorMatrix in="SourceAlpha" type="matrix" values="0 0 0 0 0 0 0 0 0 0 0 0 0 0 0 0 0 0 127 0" result="hardAlpha"/>
<feOffset dy="0.299067"/>
<feGaussianBlur stdDeviation="2.39254"/>
<feComposite in2="hardAlpha" operator="out"/>
<feColorMatrix type="matrix" values="0 0 0 0 1 0 0 0 0 1 0 0 0 0 1 0 0 0 0.28 0"/>
<feBlend mode="normal" in2="BackgroundImageFix" result="effect1_dropShadow_79_1381"/>
<feBlend mode="normal" in="SourceGraphic" in2="effect1_dropShadow_79_1381" result="shape"/>
</filter>
<filter id="filter19_d_79_1381" x="33.9859" y="88.8912" width="11.1673" height="13.0183" filterUnits="userSpaceOnUse" color-interpolation-filters="sRGB">
<feFlood flood-opacity="0" result="BackgroundImageFix"/>
<feColorMatrix in="SourceAlpha" type="matrix" values="0 0 0 0 0 0 0 0 0 0 0 0 0 0 0 0 0 0 127 0" result="hardAlpha"/>
<feOffset dy="0.299067"/>
<feGaussianBlur stdDeviation="2.39254"/>
<feComposite in2="hardAlpha" operator="out"/>
<feColorMatrix type="matrix" values="0 0 0 0 1 0 0 0 0 1 0 0 0 0 1 0 0 0 0.28 0"/>
<feBlend mode="normal" in2="BackgroundImageFix" result="effect1_dropShadow_79_1381"/>
<feBlend mode="normal" in="SourceGraphic" in2="effect1_dropShadow_79_1381" result="shape"/>
</filter>
<filter id="filter20_d_79_1381" x="48.5333" y="84.6656" width="10.3382" height="19.351" filterUnits="userSpaceOnUse" color-interpolation-filters="sRGB">
<feFlood flood-opacity="0" result="BackgroundImageFix"/>
<feColorMatrix in="SourceAlpha" type="matrix" values="0 0 0 0 0 0 0 0 0 0 0 0 0 0 0 0 0 0 127 0" result="hardAlpha"/>
<feOffset dy="0.299067"/>
<feGaussianBlur stdDeviation="2.39254"/>
<feComposite in2="hardAlpha" operator="out"/>
<feColorMatrix type="matrix" values="0 0 0 0 1 0 0 0 0 1 0 0 0 0 1 0 0 0 0.28 0"/>
<feBlend mode="normal" in2="BackgroundImageFix" result="effect1_dropShadow_79_1381"/>
<feBlend mode="normal" in="SourceGraphic" in2="effect1_dropShadow_79_1381" result="shape"/>
</filter>
<filter id="filter21_d_79_1381" x="33.7714" y="38.9559" width="39.0608" height="26.9514" filterUnits="userSpaceOnUse" color-interpolation-filters="sRGB">
<feFlood flood-opacity="0" result="BackgroundImageFix"/>
<feColorMatrix in="SourceAlpha" type="matrix" values="0 0 0 0 0 0 0 0 0 0 0 0 0 0 0 0 0 0 127 0" result="hardAlpha"/>
<feOffset/>
<feGaussianBlur stdDeviation="5.02691"/>
<feComposite in2="hardAlpha" operator="out"/>
<feColorMatrix type="matrix" values="0 0 0 0 0.533333 0 0 0 0 0.533333 0 0 0 0 0.533333 0 0 0 0.68 0"/>
<feBlend mode="normal" in2="BackgroundImageFix" result="effect1_dropShadow_79_1381"/>
<feBlend mode="normal" in="SourceGraphic" in2="effect1_dropShadow_79_1381" result="shape"/>
</filter>
<filter id="filter22_d_79_1381" x="37.1993" y="57.2389" width="33.2728" height="16.846" filterUnits="userSpaceOnUse" color-interpolation-filters="sRGB">
<feFlood flood-opacity="0" result="BackgroundImageFix"/>
<feColorMatrix in="SourceAlpha" type="matrix" values="0 0 0 0 0 0 0 0 0 0 0 0 0 0 0 0 0 0 127 0" result="hardAlpha"/>
<feOffset/>
<feGaussianBlur stdDeviation="2.28926"/>
<feComposite in2="hardAlpha" operator="out"/>
<feColorMatrix type="matrix" values="0 0 0 0 1 0 0 0 0 1 0 0 0 0 1 0 0 0 0.11 0"/>
<feBlend mode="normal" in2="BackgroundImageFix" result="effect1_dropShadow_79_1381"/>
<feBlend mode="normal" in="SourceGraphic" in2="effect1_dropShadow_79_1381" result="shape"/>
</filter>
<filter id="filter23_d_79_1381" x="37.1993" y="27.3492" width="33.2728" height="16.846" filterUnits="userSpaceOnUse" color-interpolation-filters="sRGB">
<feFlood flood-opacity="0" result="BackgroundImageFix"/>
<feColorMatrix in="SourceAlpha" type="matrix" values="0 0 0 0 0 0 0 0 0 0 0 0 0 0 0 0 0 0 127 0" result="hardAlpha"/>
<feOffset/>
<feGaussianBlur stdDeviation="2.28926"/>
<feComposite in2="hardAlpha" operator="out"/>
<feColorMatrix type="matrix" values="0 0 0 0 1 0 0 0 0 1 0 0 0 0 1 0 0 0 0.11 0"/>
<feBlend mode="normal" in2="BackgroundImageFix" result="effect1_dropShadow_79_1381"/>
<feBlend mode="normal" in="SourceGraphic" in2="effect1_dropShadow_79_1381" result="shape"/>
</filter>
<linearGradient id="paint0_linear_79_1381" x1="53.6651" y1="-3.56634" x2="53.6651" y2="101.897" gradientUnits="userSpaceOnUse">
<stop stop-color="#030303"/>
<stop offset="0.509715" stop-color="#0F0F0F"/>
<stop offset="1" stop-color="#202020"/>
</linearGradient>
<linearGradient id="paint1_linear_79_1381" x1="53.6656" y1="28.7009" x2="53.6656" y2="48.0613" gradientUnits="userSpaceOnUse">
<stop stop-color="white"/>
<stop offset="1" stop-color="white" stop-opacity="0"/>
</linearGradient>
<linearGradient id="paint2_linear_79_1381" x1="53.6658" y1="28.7009" x2="53.6658" y2="48.0613" gradientUnits="userSpaceOnUse">
<stop stop-color="white"/>
<stop offset="1" stop-color="white" stop-opacity="0"/>
</linearGradient>
<linearGradient id="paint3_linear_79_1381" x1="53.6655" y1="25.0384" x2="53.6655" y2="47.36" gradientUnits="userSpaceOnUse">
<stop stop-color="white"/>
<stop offset="1" stop-color="white" stop-opacity="0"/>
</linearGradient>
<linearGradient id="paint4_linear_79_1381" x1="53.6653" y1="25.0384" x2="53.6653" y2="47.36" gradientUnits="userSpaceOnUse">
<stop stop-color="white"/>
<stop offset="1" stop-color="white" stop-opacity="0"/>
</linearGradient>
<linearGradient id="paint5_linear_79_1381" x1="65.0441" y1="1.86811" x2="32.2673" y2="102.746" gradientUnits="userSpaceOnUse">
<stop stop-color="#FFB291"/>
<stop offset="1" stop-color="#FFA756"/>
</linearGradient>
</defs>
</svg>
