<svg width="104" height="104" viewBox="0 0 104 104" fill="none" xmlns="http://www.w3.org/2000/svg">
<circle cx="51.9998" cy="52" r="49.281" fill="url(#paint0_linear_79_1180)"/>
<circle cx="51.9998" cy="52" r="48.9412" stroke="white" stroke-opacity="0.13" stroke-width="0.679732"/>
<path d="M75.247 98.5143C85.7296 93.2752 94.1352 84.649 99.1009 74.0342C104.067 63.4195 105.301 51.4386 102.605 40.0342C99.9079 28.6299 93.4382 18.4708 84.2443 11.2041C75.0505 3.93746 63.6716 -0.0106255 51.9528 2.14615e-05C40.2339 0.0106685 28.8623 3.97942 19.6816 11.2628C10.501 18.5461 4.04969 28.717 1.37379 40.1262C-1.30211 51.5355 -0.0457219 63.5141 4.93925 74.1198C9.92421 84.7255 18.3455 93.3365 28.8375 98.5564L31.3379 93.5306C21.9785 88.8741 14.4664 81.1928 10.0195 71.7319C5.57268 62.2711 4.45192 51.5856 6.83895 41.408C9.22599 31.2304 14.9809 22.1575 23.1704 15.6604C31.36 9.16331 41.5041 5.62298 51.9579 5.61349C62.4116 5.60399 72.5621 9.12587 80.7635 15.6081C88.9649 22.0903 94.7362 31.1527 97.1417 41.326C99.5472 51.4992 98.4459 62.1867 94.0163 71.6556C89.5866 81.1245 82.0884 88.8195 72.7375 93.493L75.247 98.5143Z" fill="url(#paint1_linear_79_1180)"/>
<path d="M27.4084 93.8176C27.3145 93.9801 27.1065 94.0358 26.9446 93.9409C17.8542 88.609 10.6989 80.5144 6.52389 70.8316C2.30397 61.0447 1.35391 50.1576 3.81489 39.7877C6.27586 29.4178 12.0165 20.1185 20.184 13.2714C28.2646 6.49709 38.2941 2.48072 48.8109 1.80203C48.9982 1.78995 49.159 1.93321 49.1698 2.1206L49.215 2.90398C49.2258 3.09137 49.0824 3.25193 48.8951 3.26405C38.693 3.92458 28.9639 7.82178 21.1248 14.3936C13.1989 21.0382 7.62793 30.0626 5.23973 40.1258C2.85152 50.1891 3.77348 60.7543 7.86862 70.2518C11.9189 79.6452 18.8594 87.4984 27.6768 92.6726C27.8387 92.7676 27.8946 92.9755 27.8007 93.138L27.4084 93.8176Z" fill="url(#paint2_linear_79_1180)"/>
<path d="M75.0885 94.6511C75.1767 94.8168 75.3828 94.8797 75.5479 94.7905C86.5436 88.8475 94.8898 78.9636 98.9041 67.118C102.918 55.2723 102.301 42.3507 97.1833 30.9473C97.1065 30.776 96.9046 30.7006 96.7339 30.7787L96.0202 31.1048C95.8495 31.1829 95.7746 31.3847 95.8514 31.556C100.814 42.6199 101.412 55.1557 97.5172 66.6479C93.6226 78.1402 85.5267 87.7297 74.8604 93.4974C74.6953 93.5867 74.6321 93.7925 74.7202 93.9582L75.0885 94.6511Z" fill="url(#paint3_linear_79_1180)"/>
<g opacity="0.3">
<rect x="51.7686" y="9.15247" width="0.264416" height="4.23066" fill="white"/>
<rect x="68.1777" y="12.3293" width="0.264416" height="4.23066" transform="rotate(22.5 68.1777 12.3293)" fill="white"/>
<rect x="82.1221" y="21.5439" width="0.264416" height="4.23066" transform="rotate(45 82.1221 21.5439)" fill="white"/>
<rect x="91.4785" y="35.3933" width="0.264416" height="4.23066" transform="rotate(67.5 91.4785 35.3933)" fill="white"/>
<rect x="94.8223" y="51.7689" width="0.264416" height="4.23066" transform="rotate(90 94.8223 51.7689)" fill="white"/>
<rect x="91.6455" y="68.1779" width="0.264416" height="4.23066" transform="rotate(112.5 91.6455 68.1779)" fill="white"/>
<rect x="82.4316" y="82.1218" width="0.264416" height="4.23066" transform="rotate(135 82.4316 82.1218)" fill="white"/>
<rect x="68.582" y="91.4781" width="0.264416" height="4.23066" transform="rotate(157.5 68.582 91.4781)" fill="white"/>
<rect x="52.2061" y="94.8224" width="0.264416" height="4.23066" transform="rotate(180 52.2061 94.8224)" fill="white"/>
<rect x="35.7969" y="91.6455" width="0.264416" height="4.23066" transform="rotate(-157.5 35.7969 91.6455)" fill="white"/>
<rect x="21.8525" y="82.4309" width="0.264416" height="4.23066" transform="rotate(-135 21.8525 82.4309)" fill="white"/>
<rect x="12.4971" y="68.5817" width="0.264416" height="4.23066" transform="rotate(-112.5 12.4971 68.5817)" fill="white"/>
<rect x="9.15234" y="52.2058" width="0.264416" height="4.23066" transform="rotate(-90 9.15234 52.2058)" fill="white"/>
<rect x="12.3291" y="35.7972" width="0.264416" height="4.23066" transform="rotate(-67.5 12.3291 35.7972)" fill="white"/>
<rect x="21.5449" y="21.8531" width="0.264416" height="4.23066" transform="rotate(-45 21.5449 21.8531)" fill="white"/>
<rect x="35.3926" y="12.4967" width="0.264416" height="4.23066" transform="rotate(-22.5 35.3926 12.4967)" fill="white"/>
</g>
<path d="M51.155 86.3359C51.0688 86.3359 50.9898 86.3144 50.918 86.2713C50.8485 86.2258 50.7923 86.1671 50.7492 86.0953C50.7085 86.0211 50.6881 85.9421 50.6881 85.8583L50.6881 84.2242C50.6881 84.138 50.7085 84.059 50.7492 83.9872C50.7923 83.9154 50.8485 83.8579 50.918 83.8148C50.9898 83.7717 51.0688 83.7502 51.155 83.7502L52.807 83.7502C52.8908 83.7502 52.9674 83.7717 53.0369 83.8148C53.1087 83.8579 53.1661 83.9154 53.2092 83.9872C53.2523 84.059 53.2739 84.138 53.2739 84.2242L53.2739 85.8583C53.2739 85.9421 53.2523 86.0211 53.2092 86.0953C53.1661 86.1671 53.1087 86.2258 53.0369 86.2713C52.9674 86.3144 52.8908 86.3359 52.807 86.3359L51.155 86.3359ZM51.2053 85.9337L52.7962 85.9337C52.8202 85.9337 52.8405 85.9253 52.8573 85.9086C52.8764 85.8918 52.886 85.8715 52.886 85.8475L52.886 84.5438L51.2053 85.9337ZM51.076 85.5351L52.7531 84.1452L51.1658 84.1452C51.1418 84.1452 51.1203 84.1548 51.1011 84.1739C51.0844 84.1907 51.076 84.211 51.076 84.235L51.076 85.5351Z" fill="#F2F2F2"/>
<path d="M26.4977 77.9938C26.4091 77.9938 26.3301 77.9722 26.2607 77.9291C26.1913 77.886 26.135 77.8298 26.0919 77.7603C26.0488 77.6909 26.0273 77.6131 26.0273 77.5269L26.0273 77.4192L26.4187 77.4192L26.4187 77.5161C26.4187 77.5401 26.4271 77.5616 26.4439 77.5808C26.4606 77.5975 26.481 77.6059 26.5049 77.6059L28.139 77.6059C28.1629 77.6059 28.1833 77.5975 28.2 77.5808C28.2168 77.5616 28.2252 77.5401 28.2252 77.5161L28.2252 76.9631C28.2252 76.9391 28.2168 76.9188 28.2 76.902C28.1833 76.8828 28.1629 76.8733 28.139 76.8733L26.4977 76.8733L26.4977 76.4854L28.0276 76.4854C28.054 76.4854 28.0755 76.477 28.0923 76.4603C28.1091 76.4411 28.1174 76.4196 28.1174 76.3956L28.1174 75.8856C28.1174 75.8617 28.1091 75.8414 28.0923 75.8246C28.0755 75.8054 28.054 75.7959 28.0276 75.7959L26.5049 75.7959C26.481 75.7959 26.4606 75.8054 26.4439 75.8246C26.4271 75.8414 26.4187 75.8617 26.4187 75.8856L26.4187 76.0185L26.0273 76.0185L26.0273 75.8749C26.0273 75.7863 26.0476 75.7073 26.0883 75.6378C26.1314 75.5684 26.1889 75.5121 26.2607 75.469C26.3325 75.4259 26.4115 75.4044 26.4977 75.4044L28.0384 75.4044C28.127 75.4044 28.206 75.4259 28.2754 75.469C28.3473 75.5121 28.4035 75.5684 28.4442 75.6378C28.4849 75.7073 28.5053 75.7863 28.5053 75.8749L28.5053 76.4064C28.5053 76.4375 28.5017 76.4686 28.4945 76.4998C28.4897 76.5309 28.4814 76.5596 28.4694 76.586C28.5221 76.6386 28.5592 76.6973 28.5807 76.7619C28.6023 76.8266 28.613 76.89 28.613 76.9523L28.613 77.5269C28.613 77.6131 28.5915 77.6909 28.5484 77.7603C28.5077 77.8298 28.4514 77.886 28.3796 77.9291C28.3102 77.9722 28.2336 77.9938 28.1498 77.9938L26.4977 77.9938ZM29.4756 77.9938C29.3894 77.9938 29.3104 77.9722 29.2386 77.9291C29.1691 77.8836 29.1129 77.825 29.0698 77.7532C29.0291 77.6789 29.0087 77.5999 29.0087 77.5161L29.0087 75.8821C29.0087 75.7959 29.0291 75.7168 29.0698 75.645C29.1129 75.5732 29.1691 75.5157 29.2386 75.4726C29.3104 75.4295 29.3894 75.408 29.4756 75.408L31.1276 75.408C31.2114 75.408 31.288 75.4295 31.3575 75.4726C31.4293 75.5157 31.4867 75.5732 31.5298 75.645C31.5729 75.7168 31.5945 75.7959 31.5945 75.8821L31.5945 77.5161C31.5945 77.5999 31.5729 77.6789 31.5298 77.7532C31.4867 77.825 31.4293 77.8836 31.3575 77.9291C31.288 77.9722 31.2114 77.9938 31.1276 77.9938L29.4756 77.9938ZM29.5259 77.5915L31.1168 77.5915C31.1408 77.5915 31.1611 77.5832 31.1779 77.5664C31.197 77.5496 31.2066 77.5293 31.2066 77.5053L31.2066 76.2017L29.5259 77.5915ZM29.3966 77.1929L31.0737 75.803L29.4864 75.803C29.4624 75.803 29.4409 75.8126 29.4217 75.8318C29.405 75.8485 29.3966 75.8689 29.3966 75.8928L29.3966 77.1929Z" fill="#F2F2F2"/>
<path d="M17.028 53.7257C16.9418 53.7257 16.8628 53.7042 16.791 53.6611C16.7216 53.618 16.6653 53.5617 16.6222 53.4923C16.5815 53.4228 16.5612 53.345 16.5612 53.2588L16.5612 53.1188L16.949 53.1188L16.949 53.2481C16.949 53.272 16.9574 53.2935 16.9742 53.3127C16.9933 53.3295 17.0149 53.3378 17.0388 53.3378L18.6693 53.3378C18.6932 53.3378 18.7136 53.3295 18.7303 53.3127C18.7495 53.2935 18.7591 53.272 18.7591 53.2481L18.7591 52.6842C18.7591 52.6603 18.7495 52.6399 18.7303 52.6232C18.7136 52.604 18.6932 52.5944 18.6693 52.5944L16.5612 52.5944L16.5612 51.1363L19.1469 51.1363L19.1469 51.5278L17.0388 51.5278C17.0149 51.5278 16.9933 51.5374 16.9742 51.5565C16.9574 51.5733 16.949 51.5936 16.949 51.6176L16.949 52.1168C16.949 52.1407 16.9574 52.1623 16.9742 52.1814C16.9933 52.1982 17.0149 52.2066 17.0388 52.2066L18.6801 52.2066C18.7639 52.2066 18.8405 52.2269 18.9099 52.2676C18.9817 52.3083 19.0392 52.3646 19.0823 52.4364C19.1254 52.5082 19.1469 52.5872 19.1469 52.6734L19.1469 53.2588C19.1469 53.345 19.1254 53.4228 19.0823 53.4923C19.0392 53.5617 18.9817 53.618 18.9099 53.6611C18.8405 53.7042 18.7639 53.7257 18.6801 53.7257L17.028 53.7257ZM20.0091 53.7257C19.9229 53.7257 19.8439 53.7042 19.7721 53.6611C19.7027 53.6156 19.6464 53.5569 19.6033 53.4851C19.5626 53.4109 19.5423 53.3319 19.5423 53.2481L19.5423 51.614C19.5423 51.5278 19.5626 51.4488 19.6033 51.377C19.6464 51.3051 19.7027 51.2477 19.7721 51.2046C19.8439 51.1615 19.9229 51.1399 20.0091 51.1399L21.6612 51.1399C21.745 51.1399 21.8216 51.1615 21.891 51.2046C21.9628 51.2477 22.0203 51.3051 22.0634 51.377C22.1065 51.4488 22.128 51.5278 22.128 51.614L22.128 53.2481C22.128 53.3319 22.1065 53.4109 22.0634 53.4851C22.0203 53.5569 21.9628 53.6156 21.891 53.6611C21.8216 53.7042 21.745 53.7257 21.6612 53.7257L20.0091 53.7257ZM20.0594 53.3235L21.6504 53.3235C21.6743 53.3235 21.6947 53.3151 21.7114 53.2983C21.7306 53.2816 21.7402 53.2612 21.7402 53.2373L21.7402 51.9336L20.0594 53.3235ZM19.9301 52.9248L21.6073 51.535L20.0199 51.535C19.996 51.535 19.9744 51.5446 19.9553 51.5637C19.9385 51.5805 19.9301 51.6008 19.9301 51.6248L19.9301 52.9248Z" fill="#F2F2F2"/>
<path d="M26.5085 29.458C26.4223 29.458 26.3433 29.4365 26.2715 29.3934C26.202 29.3503 26.1458 29.294 26.1027 29.2246C26.062 29.1551 26.0416 29.0773 26.0416 28.9911L26.0416 28.4057C26.0416 28.3602 26.05 28.3148 26.0668 28.2693C26.0835 28.2214 26.1051 28.1759 26.1314 28.1328C26.1051 28.0897 26.0835 28.0454 26.0668 27.9999C26.05 27.952 26.0416 27.9053 26.0416 27.8599L26.0416 27.3391C26.0416 27.2505 26.062 27.1715 26.1027 27.1021C26.1458 27.0326 26.202 26.9764 26.2715 26.9333C26.3433 26.8902 26.4223 26.8686 26.5085 26.8686L28.1605 26.8686C28.2324 26.8686 28.3006 26.8866 28.3652 26.9225C28.4299 26.9584 28.4849 27.0063 28.5304 27.0662C28.5783 27.126 28.6106 27.1907 28.6274 27.2601L28.6274 27.8599C28.6274 27.9508 28.5963 28.0418 28.534 28.1328C28.5963 28.219 28.6274 28.31 28.6274 28.4057L28.6274 28.9911C28.6274 29.0773 28.6059 29.1551 28.5628 29.2246C28.5197 29.294 28.4622 29.3503 28.3904 29.3934C28.3209 29.4365 28.2443 29.458 28.1605 29.458L26.5085 29.458ZM26.5193 29.0701L28.1498 29.0701C28.1737 29.0701 28.194 29.0618 28.2108 29.045C28.23 29.0258 28.2395 29.0043 28.2395 28.9804L28.2395 28.4165C28.2395 28.3926 28.23 28.3722 28.2108 28.3555C28.194 28.3363 28.1737 28.3267 28.1498 28.3267L26.5193 28.3267C26.4953 28.3267 26.4738 28.3363 26.4546 28.3555C26.4379 28.3722 26.4295 28.3926 26.4295 28.4165L26.4295 28.9804C26.4295 29.0043 26.4379 29.0258 26.4546 29.045C26.4738 29.0618 26.4953 29.0701 26.5193 29.0701ZM26.5193 27.9784L28.1498 27.9784C28.1737 27.9784 28.194 27.97 28.2108 27.9532C28.23 27.9341 28.2395 27.9125 28.2395 27.8886L28.2395 27.3535C28.2395 27.3295 28.23 27.3092 28.2108 27.2924C28.194 27.2733 28.1737 27.2637 28.1498 27.2637L26.5193 27.2637C26.4953 27.2637 26.4738 27.2733 26.4546 27.2924C26.4379 27.3092 26.4295 27.3295 26.4295 27.3535L26.4295 27.8886C26.4295 27.9125 26.4379 27.9341 26.4546 27.9532C26.4738 27.97 26.4953 27.9784 26.5193 27.9784ZM29.5036 29.458C29.4174 29.458 29.3384 29.4365 29.2666 29.3934C29.1972 29.3479 29.1409 29.2892 29.0978 29.2174C29.0571 29.1432 29.0368 29.0642 29.0368 28.9804L29.0368 27.3463C29.0368 27.2601 29.0571 27.1811 29.0978 27.1093C29.1409 27.0374 29.1972 26.98 29.2666 26.9369C29.3384 26.8938 29.4174 26.8722 29.5036 26.8722L31.1557 26.8722C31.2395 26.8722 31.3161 26.8938 31.3855 26.9369C31.4573 26.98 31.5148 27.0374 31.5579 27.1093C31.601 27.1811 31.6225 27.2601 31.6225 27.3463L31.6225 28.9804C31.6225 29.0642 31.601 29.1432 31.5579 29.2174C31.5148 29.2892 31.4573 29.3479 31.3855 29.3934C31.3161 29.4365 31.2395 29.458 31.1557 29.458L29.5036 29.458ZM29.5539 29.0558L31.1449 29.0558C31.1688 29.0558 31.1892 29.0474 31.2059 29.0306C31.2251 29.0139 31.2347 28.9935 31.2347 28.9696L31.2347 27.6659L29.5539 29.0558ZM29.4246 28.6571L31.1018 27.2673L29.5144 27.2673C29.4905 27.2673 29.4689 27.2769 29.4498 27.296C29.433 27.3128 29.4246 27.3331 29.4246 27.3571L29.4246 28.6571Z" fill="#F2F2F2"/>
<path d="M48.6417 20.3572L48.6417 18.285L48.3436 18.6441L47.8337 18.6441L48.5663 17.7714L49.0296 17.7714L49.0296 20.3572L48.6417 20.3572ZM49.9045 20.3572C49.8183 20.3572 49.7393 20.3356 49.6675 20.2925C49.5981 20.247 49.5418 20.1884 49.4987 20.1166C49.458 20.0423 49.4377 19.9633 49.4377 19.8795L49.4377 18.2455C49.4377 18.1593 49.458 18.0803 49.4987 18.0084C49.5418 17.9366 49.5981 17.8791 49.6675 17.836C49.7393 17.7929 49.8183 17.7714 49.9045 17.7714L51.5566 17.7714C51.6404 17.7714 51.717 17.7929 51.7864 17.836C51.8582 17.8791 51.9157 17.9366 51.9588 18.0084C52.0019 18.0803 52.0234 18.1593 52.0234 18.2455L52.0234 19.8795C52.0234 19.9633 52.0019 20.0423 51.9588 20.1166C51.9157 20.1884 51.8582 20.247 51.7864 20.2925C51.717 20.3356 51.6404 20.3572 51.5566 20.3572L49.9045 20.3572ZM49.9548 19.9549L51.5458 19.9549C51.5697 19.9549 51.5901 19.9466 51.6068 19.9298C51.626 19.913 51.6356 19.8927 51.6356 19.8688L51.6356 18.5651L49.9548 19.9549ZM49.8255 19.5563L51.5027 18.1664L49.9153 18.1664C49.8914 18.1664 49.8698 18.176 49.8507 18.1952C49.8339 18.2119 49.8255 18.2323 49.8255 18.2562L49.8255 19.5563ZM52.8997 20.3572C52.8135 20.3572 52.7345 20.3356 52.6627 20.2925C52.5932 20.247 52.537 20.1884 52.4939 20.1166C52.4532 20.0423 52.4328 19.9633 52.4328 19.8795L52.4328 18.2455C52.4328 18.1593 52.4532 18.0803 52.4939 18.0084C52.537 17.9366 52.5932 17.8791 52.6627 17.836C52.7345 17.7929 52.8135 17.7714 52.8997 17.7714L54.5517 17.7714C54.6355 17.7714 54.7121 17.7929 54.7816 17.836C54.8534 17.8791 54.9108 17.9366 54.9539 18.0084C54.997 18.0803 55.0186 18.1593 55.0186 18.2455L55.0186 19.8795C55.0186 19.9633 54.997 20.0423 54.9539 20.1166C54.9108 20.1884 54.8534 20.247 54.7816 20.2925C54.7121 20.3356 54.6355 20.3572 54.5517 20.3572L52.8997 20.3572ZM52.95 19.9549L54.5409 19.9549C54.5649 19.9549 54.5852 19.9466 54.602 19.9298C54.6211 19.913 54.6307 19.8927 54.6307 19.8688L54.6307 18.5651L52.95 19.9549ZM52.8207 19.5563L54.4978 18.1664L52.9105 18.1664C52.8865 18.1664 52.865 18.176 52.8458 18.1952C52.8291 18.2119 52.8207 18.2323 52.8207 18.2562L52.8207 19.5563Z" fill="#F2F2F2"/>
<path d="M71.0138 28.6993L71.0138 26.6271L70.7157 26.9863L70.2057 26.9863L70.9384 26.1136L71.4017 26.1136L71.4017 28.6993L71.0138 28.6993ZM71.8097 28.6993L71.8097 27.7189C71.8097 27.6303 71.8301 27.5513 71.8708 27.4819C71.9139 27.4124 71.9701 27.3574 72.0396 27.3167C72.1114 27.2736 72.1904 27.252 72.2766 27.252L73.9179 27.252C73.9418 27.252 73.9622 27.2436 73.9789 27.2269C73.9981 27.2077 74.0076 27.1862 74.0076 27.1622L74.0076 26.5912C74.0076 26.5673 73.9981 26.5469 73.9789 26.5302C73.9622 26.511 73.9418 26.5014 73.9179 26.5014L72.2874 26.5014C72.2634 26.5014 72.2419 26.511 72.2227 26.5302C72.206 26.5469 72.1976 26.5673 72.1976 26.5912L72.1976 26.7313L71.8097 26.7313L71.8097 26.5804C71.8097 26.4918 71.8301 26.4128 71.8708 26.3434C71.9139 26.274 71.9701 26.2177 72.0396 26.1746C72.1114 26.1315 72.1904 26.11 72.2766 26.11L73.9286 26.11C74.0124 26.11 74.0891 26.1315 74.1585 26.1746C74.2303 26.2177 74.2878 26.274 74.3309 26.3434C74.374 26.4128 74.3955 26.4918 74.3955 26.5804L74.3955 27.173C74.3955 27.2592 74.374 27.3382 74.3309 27.41C74.2878 27.4795 74.2303 27.5357 74.1585 27.5788C74.0891 27.6195 74.0124 27.6399 73.9286 27.6399L72.2874 27.6399C72.2634 27.6399 72.2419 27.6495 72.2227 27.6686C72.206 27.6854 72.1976 27.7057 72.1976 27.7297L72.1976 28.2217C72.1976 28.2456 72.206 28.2672 72.2227 28.2863C72.2419 28.3031 72.2634 28.3115 72.2874 28.3115L74.3955 28.3115L74.3955 28.6993L71.8097 28.6993ZM75.2577 28.6993C75.1715 28.6993 75.0925 28.6778 75.0207 28.6347C74.9513 28.5892 74.895 28.5305 74.8519 28.4587C74.8112 28.3845 74.7908 28.3055 74.7908 28.2217L74.7908 26.5876C74.7908 26.5014 74.8112 26.4224 74.8519 26.3506C74.895 26.2788 74.9513 26.2213 75.0207 26.1782C75.0925 26.1351 75.1715 26.1136 75.2577 26.1136L76.9097 26.1136C76.9935 26.1136 77.0702 26.1351 77.1396 26.1782C77.2114 26.2213 77.2689 26.2788 77.312 26.3506C77.3551 26.4224 77.3766 26.5014 77.3766 26.5876L77.3766 28.2217C77.3766 28.3055 77.3551 28.3845 77.312 28.4587C77.2689 28.5305 77.2114 28.5892 77.1396 28.6347C77.0702 28.6778 76.9935 28.6993 76.9097 28.6993L75.2577 28.6993ZM75.308 28.2971L76.899 28.2971C76.9229 28.2971 76.9433 28.2887 76.96 28.272C76.9792 28.2552 76.9888 28.2349 76.9888 28.2109L76.9888 26.9073L75.308 28.2971ZM75.1787 27.8985L76.8559 26.5086L75.2685 26.5086C75.2446 26.5086 75.223 26.5182 75.2039 26.5373C75.1871 26.5541 75.1787 26.5745 75.1787 26.5984L75.1787 27.8985Z" fill="#F2F2F2"/>
<path d="M81.631 53.7257L81.631 51.6535L81.3329 52.0126L80.8229 52.0126L81.5556 51.1399L82.0189 51.1399L82.0189 53.7257L81.631 53.7257ZM82.8938 53.7257C82.8076 53.7257 82.7286 53.7042 82.6568 53.6611C82.5873 53.618 82.5311 53.5617 82.488 53.4923C82.4473 53.4228 82.4269 53.345 82.4269 53.2588L82.4269 53.1188L82.8148 53.1188L82.8148 53.2481C82.8148 53.272 82.8232 53.2935 82.8399 53.3127C82.8591 53.3295 82.8806 53.3378 82.9046 53.3378L84.5351 53.3378C84.559 53.3378 84.5793 53.3295 84.5961 53.3127C84.6153 53.2935 84.6248 53.272 84.6248 53.2481L84.6248 52.6842C84.6248 52.6603 84.6153 52.6399 84.5961 52.6232C84.5793 52.604 84.559 52.5944 84.5351 52.5944L82.4269 52.5944L82.4269 51.1363L85.0127 51.1363L85.0127 51.5278L82.9046 51.5278C82.8806 51.5278 82.8591 51.5374 82.8399 51.5565C82.8232 51.5733 82.8148 51.5936 82.8148 51.6176L82.8148 52.1168C82.8148 52.1407 82.8232 52.1623 82.8399 52.1814C82.8591 52.1982 82.8806 52.2066 82.9046 52.2066L84.5458 52.2066C84.6296 52.2066 84.7062 52.2269 84.7757 52.2676C84.8475 52.3083 84.905 52.3646 84.9481 52.4364C84.9912 52.5082 85.0127 52.5872 85.0127 52.6734L85.0127 53.2588C85.0127 53.345 84.9912 53.4228 84.9481 53.4923C84.905 53.5617 84.8475 53.618 84.7757 53.6611C84.7062 53.7042 84.6296 53.7257 84.5458 53.7257L82.8938 53.7257ZM85.8749 53.7257C85.7887 53.7257 85.7097 53.7042 85.6379 53.6611C85.5684 53.618 85.5122 53.5617 85.4691 53.4923C85.4284 53.4228 85.408 53.345 85.408 53.2588L85.408 53.1188L85.7959 53.1188L85.7959 53.2481C85.7959 53.272 85.8043 53.2935 85.821 53.3127C85.8402 53.3295 85.8617 53.3378 85.8857 53.3378L87.5162 53.3378C87.5401 53.3378 87.5605 53.3295 87.5772 53.3127C87.5964 53.2935 87.6059 53.272 87.6059 53.2481L87.6059 52.6842C87.6059 52.6603 87.5964 52.6399 87.5772 52.6232C87.5605 52.604 87.5401 52.5944 87.5162 52.5944L85.408 52.5944L85.408 51.1363L87.9938 51.1363L87.9938 51.5278L85.8857 51.5278C85.8617 51.5278 85.8402 51.5374 85.821 51.5565C85.8043 51.5733 85.7959 51.5936 85.7959 51.6176L85.7959 52.1168C85.7959 52.1407 85.8043 52.1623 85.821 52.1814C85.8402 52.1982 85.8617 52.2066 85.8857 52.2066L87.5269 52.2066C87.6107 52.2066 87.6874 52.2269 87.7568 52.2676C87.8286 52.3083 87.8861 52.3646 87.9292 52.4364C87.9723 52.5082 87.9938 52.5872 87.9938 52.6734L87.9938 53.2588C87.9938 53.345 87.9723 53.4228 87.9292 53.4923C87.8861 53.5617 87.8286 53.618 87.7568 53.6611C87.6874 53.7042 87.6107 53.7257 87.5269 53.7257L85.8749 53.7257Z" fill="#F2F2F2"/>
<path d="M71.0138 78.7522L71.0138 76.68L70.7157 77.0391L70.2057 77.0391L70.9384 76.1664L71.4017 76.1664L71.4017 78.7522L71.0138 78.7522ZM72.2766 78.7522C72.1904 78.7522 72.1114 78.7306 72.0396 78.6876C71.9701 78.6445 71.9139 78.5882 71.8708 78.5188C71.8301 78.4493 71.8097 78.3715 71.8097 78.2853L71.8097 77.6999C71.8097 77.6544 71.8181 77.6089 71.8349 77.5635C71.8516 77.5156 71.8732 77.4701 71.8995 77.427C71.8732 77.3839 71.8516 77.3396 71.8349 77.2941C71.8181 77.2462 71.8097 77.1995 71.8097 77.154L71.8097 76.6333C71.8097 76.5447 71.8301 76.4657 71.8708 76.3963C71.9139 76.3268 71.9701 76.2706 72.0396 76.2275C72.1114 76.1844 72.1904 76.1628 72.2766 76.1628L73.9286 76.1628C74.0005 76.1628 74.0687 76.1808 74.1333 76.2167C74.198 76.2526 74.2531 76.3005 74.2985 76.3603C74.3464 76.4202 74.3788 76.4848 74.3955 76.5543L74.3955 77.154C74.3955 77.245 74.3644 77.336 74.3021 77.427C74.3644 77.5132 74.3955 77.6042 74.3955 77.6999L74.3955 78.2853C74.3955 78.3715 74.374 78.4493 74.3309 78.5188C74.2878 78.5882 74.2303 78.6445 74.1585 78.6876C74.0891 78.7306 74.0124 78.7522 73.9286 78.7522L72.2766 78.7522ZM72.2874 78.3643L73.9179 78.3643C73.9418 78.3643 73.9622 78.356 73.9789 78.3392C73.9981 78.32 74.0076 78.2985 74.0076 78.2745L74.0076 77.7107C74.0076 77.6868 73.9981 77.6664 73.9789 77.6496C73.9622 77.6305 73.9418 77.6209 73.9179 77.6209L72.2874 77.6209C72.2634 77.6209 72.2419 77.6305 72.2227 77.6496C72.206 77.6664 72.1976 77.6868 72.1976 77.7107L72.1976 78.2745C72.1976 78.2985 72.206 78.32 72.2227 78.3392C72.2419 78.356 72.2634 78.3643 72.2874 78.3643ZM72.2874 77.2726L73.9179 77.2726C73.9418 77.2726 73.9622 77.2642 73.9789 77.2474C73.9981 77.2283 74.0076 77.2067 74.0076 77.1828L74.0076 76.6477C74.0076 76.6237 73.9981 76.6034 73.9789 76.5866C73.9622 76.5675 73.9418 76.5579 73.9179 76.5579L72.2874 76.5579C72.2634 76.5579 72.2419 76.5675 72.2227 76.5866C72.206 76.6034 72.1976 76.6237 72.1976 76.6477L72.1976 77.1828C72.1976 77.2067 72.206 77.2283 72.2227 77.2474C72.2419 77.2642 72.2634 77.2726 72.2874 77.2726ZM75.2718 78.7522C75.1856 78.7522 75.1065 78.7306 75.0347 78.6876C74.9653 78.6421 74.909 78.5834 74.8659 78.5116C74.8252 78.4374 74.8049 78.3583 74.8049 78.2745L74.8049 76.6405C74.8049 76.5543 74.8252 76.4753 74.8659 76.4034C74.909 76.3316 74.9653 76.2742 75.0347 76.2311C75.1065 76.188 75.1856 76.1664 75.2718 76.1664L76.9238 76.1664C77.0076 76.1664 77.0842 76.188 77.1536 76.2311C77.2255 76.2742 77.2829 76.3316 77.326 76.4034C77.3691 76.4753 77.3907 76.5543 77.3907 76.6405L77.3907 78.2745C77.3907 78.3583 77.3691 78.4374 77.326 78.5116C77.2829 78.5834 77.2255 78.6421 77.1536 78.6876C77.0842 78.7306 77.0076 78.7522 76.9238 78.7522L75.2718 78.7522ZM75.322 78.35L76.913 78.35C76.9369 78.35 76.9573 78.3416 76.9741 78.3248C76.9932 78.3081 77.0028 78.2877 77.0028 78.2638L77.0028 76.9601L75.322 78.35ZM75.1927 77.9513L76.8699 76.5615L75.2825 76.5615C75.2586 76.5615 75.237 76.571 75.2179 76.5902C75.2011 76.607 75.1927 76.6273 75.1927 76.6512L75.1927 77.9513Z" fill="#F2F2F2"/>
<g filter="url(#filter0_d_79_1180)">
<circle cx="51.3204" cy="46.9016" r="14.2745" fill="url(#paint4_linear_79_1180)"/>
<circle cx="51.3204" cy="46.9016" r="14.0816" stroke="white" stroke-opacity="0.13" stroke-width="0.385794"/>
</g>
<path d="M45.6002 47.2866V43.2237L45.0157 43.9278H44.0158L45.4523 42.2167H46.3607V47.2866H45.6002ZM47.1608 47.2866V45.3643C47.1608 45.1906 47.2007 45.0357 47.2805 44.8995C47.365 44.7634 47.4753 44.6554 47.6114 44.5756C47.7522 44.4911 47.9072 44.4489 48.0762 44.4489H51.2941C51.3411 44.4489 51.381 44.4324 51.4139 44.3996C51.4514 44.362 51.4702 44.3198 51.4702 44.2728V43.1532C51.4702 43.1063 51.4514 43.0664 51.4139 43.0335C51.381 42.996 51.3411 42.9772 51.2941 42.9772H48.0973C48.0503 42.9772 48.0081 42.996 47.9705 43.0335C47.9377 43.0664 47.9212 43.1063 47.9212 43.1532V43.4279H47.1608V43.1321C47.1608 42.9584 47.2007 42.8035 47.2805 42.6674C47.365 42.5312 47.4753 42.4209 47.6114 42.3364C47.7522 42.2519 47.9072 42.2097 48.0762 42.2097H51.3153C51.4796 42.2097 51.6298 42.2519 51.7659 42.3364C51.9068 42.4209 52.0194 42.5312 52.1039 42.6674C52.1884 42.8035 52.2307 42.9584 52.2307 43.1321V44.294C52.2307 44.463 52.1884 44.6179 52.1039 44.7587C52.0194 44.8948 51.9068 45.0052 51.7659 45.0897C51.6298 45.1695 51.4796 45.2094 51.3153 45.2094H48.0973C48.0503 45.2094 48.0081 45.2281 47.9705 45.2657C47.9377 45.2986 47.9212 45.3385 47.9212 45.3854V46.3501C47.9212 46.397 47.9377 46.4393 47.9705 46.4768C48.0081 46.5097 48.0503 46.5261 48.0973 46.5261H52.2307V47.2866H47.1608ZM53.9212 47.2866C53.7522 47.2866 53.5973 47.2444 53.4564 47.1599C53.3203 47.0754 53.21 46.9651 53.1255 46.8289C53.0457 46.6928 53.0058 46.5402 53.0058 46.3712V46.0966H53.7663V46.3501C53.7663 46.397 53.7827 46.4393 53.8156 46.4768C53.8531 46.5097 53.8954 46.5261 53.9423 46.5261H57.1392C57.1861 46.5261 57.226 46.5097 57.2589 46.4768C57.2964 46.4393 57.3152 46.397 57.3152 46.3501V45.2446C57.3152 45.1976 57.2964 45.1577 57.2589 45.1249C57.226 45.0873 57.1861 45.0685 57.1392 45.0685H53.0058V42.2097H58.0757V42.9772H53.9423C53.8954 42.9772 53.8531 42.996 53.8156 43.0335C53.7827 43.0664 53.7663 43.1063 53.7663 43.1532V44.132C53.7663 44.179 53.7827 44.2212 53.8156 44.2588C53.8531 44.2916 53.8954 44.308 53.9423 44.308H57.1603C57.3246 44.308 57.4748 44.348 57.611 44.4278C57.7518 44.5076 57.8645 44.6179 57.949 44.7587C58.0335 44.8995 58.0757 45.0545 58.0757 45.2234V46.3712C58.0757 46.5402 58.0335 46.6928 57.949 46.8289C57.8645 46.9651 57.7518 47.0754 57.611 47.1599C57.4748 47.2444 57.3246 47.2866 57.1603 47.2866H53.9212Z" fill="white"/>
<path d="M46.998 51.9905V49.4129H47.3882V50.5084H48.1006L49.0171 49.4129H49.4646V49.4845L48.4443 50.7017L49.4682 51.9189V51.9905H49.0171L48.1006 50.895H47.3882V51.9905H46.998ZM49.8472 51.9905V49.4129H50.3091L51.3079 50.6014L52.3031 49.4129H52.7685V51.9905H52.3783V49.932L51.3079 51.2065L50.2339 49.932V51.9905H49.8472ZM53.1721 51.9905V49.4129H53.5587V50.5084H55.4203V49.4129H55.8106V51.9905H55.4203V50.895H53.5587V51.9905H53.1721Z" fill="#999999"/>
<g filter="url(#filter1_d_79_1180)">
<rect x="39.084" y="64.6976" width="24.8105" height="7.91058" rx="2.15744" fill="url(#paint5_linear_79_1180)" fill-opacity="0.03" shape-rendering="crispEdges"/>
<rect x="39.2326" y="64.8462" width="24.5133" height="7.61338" rx="2.00884" stroke="white" stroke-opacity="0.12" stroke-width="0.297198" shape-rendering="crispEdges"/>
</g>
<path d="M45.9979 68.995C46.0236 68.91 45.9739 68.8203 45.889 68.7962C45.8729 68.7914 45.8585 68.7866 45.8425 68.7834C45.8409 68.6408 45.812 68.503 45.7592 68.378L44.889 68.9998C45.1951 68.9821 45.5028 69.0158 45.7992 69.1039C45.8842 69.128 45.9739 69.0799 45.9979 68.995ZM45.3267 70.2554C45.3384 70.2581 45.3503 70.2593 45.3619 70.2593C45.4353 70.2593 45.5013 70.2088 45.5181 70.1341L45.6783 69.4199C45.6959 69.3416 45.653 69.2626 45.5779 69.2346C45.2317 69.106 44.8508 69.106 44.5046 69.2346C44.4295 69.2626 44.3866 69.3416 44.4042 69.4199L44.5644 70.1341C44.5838 70.2206 44.6699 70.2751 44.7558 70.2554C44.8422 70.236 44.8965 70.1504 44.8771 70.064L44.7492 69.4937C44.942 69.4455 45.1404 69.4455 45.3332 69.4937L45.2054 70.064C45.186 70.1504 45.2403 70.236 45.3267 70.2554ZM43.7897 69.3908C43.8202 69.434 43.8698 69.4581 43.9195 69.4581C43.9516 69.4581 43.9852 69.4485 44.0125 69.4276L46.2559 67.8251C46.328 67.7739 46.3441 67.6745 46.2928 67.6024C46.2415 67.5303 46.1422 67.5143 46.07 67.5655L45.4643 67.9982C45.4532 67.9897 45.4414 67.9831 45.4299 67.9754C45.4872 67.8962 45.522 67.7999 45.522 67.6953C45.522 67.4309 45.3057 67.2146 45.0413 67.2146C44.7768 67.2146 44.5605 67.4309 44.5605 67.6953C44.5605 67.8004 44.5957 67.8971 44.6535 67.9765C44.4382 68.1177 44.2825 68.3702 44.248 68.6697C44.2432 68.7065 44.24 68.745 44.24 68.7834C44.224 68.7866 44.2096 68.7914 44.1935 68.7962C44.1118 68.8187 44.0621 68.9036 44.083 68.9853L43.8266 69.168C43.7545 69.2193 43.7384 69.3187 43.7897 69.3908Z" fill="#FF504B"/>
<path fill-rule="evenodd" clip-rule="evenodd" d="M53.2012 69.288V68.4328C53.2012 68.4044 53.1899 68.3773 53.1698 68.3572C53.1498 68.3372 53.1226 68.3259 53.0943 68.3259C53.0659 68.3259 53.0387 68.3372 53.0187 68.3572C52.9986 68.3773 52.9873 68.4044 52.9873 68.4328V68.7535H52.7735V68.5397C52.7735 68.483 52.751 68.4286 52.7109 68.3885C52.6708 68.3484 52.6164 68.3259 52.5597 68.3259H52.3902L52.017 67.9527L50.808 69.9117L50.8117 69.9133C50.8376 69.924 50.8654 69.9295 50.8935 69.9294H51.7672C51.7953 69.9295 51.8231 69.924 51.849 69.9133C51.875 69.9025 51.8985 69.8867 51.9183 69.8668L52.3902 69.3949H52.5597C52.6164 69.3949 52.6708 69.3724 52.7109 69.3323C52.751 69.2922 52.7735 69.2378 52.7735 69.1811V68.9673H52.9873V69.288C52.9873 69.3164 52.9986 69.3436 53.0187 69.3636C53.0387 69.3837 53.0659 69.3949 53.0943 69.3949C53.1226 69.3949 53.1498 69.3837 53.1698 69.3636C53.1899 69.3436 53.2012 69.3164 53.2012 69.288ZM50.6032 69.7276L51.7969 67.7934C51.7871 67.792 51.7771 67.7913 51.7672 67.7914H51.4907V67.5776H51.8114C51.8398 67.5776 51.867 67.5663 51.887 67.5463C51.9071 67.5262 51.9183 67.499 51.9183 67.4707C51.9183 67.4423 51.9071 67.4151 51.887 67.3951C51.867 67.375 51.8398 67.3638 51.8114 67.3638H50.9562C50.9278 67.3638 50.9007 67.375 50.8806 67.3951C50.8606 67.4151 50.8493 67.4423 50.8493 67.4707C50.8493 67.499 50.8606 67.5262 50.8806 67.5463C50.9007 67.5663 50.9278 67.5776 50.9562 67.5776H51.2769V67.7914H50.4217C50.365 67.7914 50.3106 67.8139 50.2705 67.854C50.2304 67.8941 50.2079 67.9485 50.2079 68.0052V68.7535H49.9941V68.4328C49.9941 68.4044 49.9828 68.3773 49.9628 68.3572C49.9427 68.3372 49.9155 68.3259 49.8872 68.3259C49.8588 68.3259 49.8316 68.3372 49.8116 68.3572C49.7915 68.3773 49.7803 68.4044 49.7803 68.4328V69.288C49.7803 69.3164 49.7915 69.3436 49.8116 69.3636C49.8316 69.3837 49.8588 69.3949 49.8872 69.3949C49.9155 69.3949 49.9427 69.3837 49.9628 69.3636C49.9828 69.3436 49.9941 69.3164 49.9941 69.288V68.9673H50.2079V69.2438C50.2078 69.2719 50.2133 69.2997 50.224 69.3256C50.2348 69.3516 50.2506 69.3751 50.2706 69.3949L50.6032 69.7276Z" fill="#898989"/>
<path d="M56.4654 69.9121C56.472 69.9531 56.5074 69.9833 56.5489 69.9833H58.709C58.8232 69.9833 58.9348 69.9394 59.0121 69.8552C59.0309 69.8349 59.0482 69.8123 59.0647 69.7889H56.4458L56.4654 69.9121ZM56.4184 69.5087H59.122C59.1453 69.5087 59.167 69.515 59.1864 69.5252C59.2462 69.3047 59.2329 69.0429 59.1157 68.8129C59.0874 68.7575 59.0447 68.7106 58.9948 68.6738L57.9575 67.9096C57.6849 67.7092 57.3556 67.6006 57.017 67.6006H56.1959C56.1439 67.6006 56.1042 67.6471 56.1124 67.6984L56.4014 69.5105C56.407 69.5098 56.4126 69.5087 56.4184 69.5087ZM57.0335 69.0228C57.0335 69.0383 57.0209 69.0509 57.0054 69.0509H56.5945C56.579 69.0509 56.5664 69.0383 56.5664 69.0228V68.957C56.5664 68.9415 56.579 68.9289 56.5945 68.9289H57.0054C57.0209 68.9289 57.0335 68.9415 57.0335 68.957L57.0335 69.0228ZM57.017 67.8119C57.312 67.8119 57.594 67.9045 57.8324 68.0799L58.5002 68.5719H56.4658L56.3445 67.8119H57.017ZM59.122 69.5749H56.4184C56.3776 69.5749 56.3445 69.608 56.3445 69.6488C56.3445 69.6896 56.3776 69.7227 56.4184 69.7227H59.122C59.1628 69.7227 59.1959 69.6896 59.1959 69.6488C59.1959 69.608 59.1628 69.5749 59.122 69.5749Z" fill="#898989"/>
<defs>
<filter id="filter0_d_79_1180" x="14.938" y="10.5192" width="72.7646" height="72.7648" filterUnits="userSpaceOnUse" color-interpolation-filters="sRGB">
<feFlood flood-opacity="0" result="BackgroundImageFix"/>
<feColorMatrix in="SourceAlpha" type="matrix" values="0 0 0 0 0 0 0 0 0 0 0 0 0 0 0 0 0 0 127 0" result="hardAlpha"/>
<feOffset/>
<feGaussianBlur stdDeviation="11.0539"/>
<feComposite in2="hardAlpha" operator="out"/>
<feColorMatrix type="matrix" values="0 0 0 0 1 0 0 0 0 1 0 0 0 0 1 0 0 0 0.18 0"/>
<feBlend mode="normal" in2="BackgroundImageFix" result="effect1_dropShadow_79_1180"/>
<feBlend mode="normal" in="SourceGraphic" in2="effect1_dropShadow_79_1180" result="shape"/>
</filter>
<filter id="filter1_d_79_1180" x="34.3736" y="59.9872" width="34.2314" height="17.3313" filterUnits="userSpaceOnUse" color-interpolation-filters="sRGB">
<feFlood flood-opacity="0" result="BackgroundImageFix"/>
<feColorMatrix in="SourceAlpha" type="matrix" values="0 0 0 0 0 0 0 0 0 0 0 0 0 0 0 0 0 0 127 0" result="hardAlpha"/>
<feOffset/>
<feGaussianBlur stdDeviation="2.3552"/>
<feComposite in2="hardAlpha" operator="out"/>
<feColorMatrix type="matrix" values="0 0 0 0 1 0 0 0 0 1 0 0 0 0 1 0 0 0 0.11 0"/>
<feBlend mode="normal" in2="BackgroundImageFix" result="effect1_dropShadow_79_1180"/>
<feBlend mode="normal" in="SourceGraphic" in2="effect1_dropShadow_79_1180" result="shape"/>
</filter>
<linearGradient id="paint0_linear_79_1180" x1="51.9998" y1="-4.24833" x2="51.9998" y2="101.281" gradientUnits="userSpaceOnUse">
<stop stop-color="#030303"/>
<stop offset="0.509715" stop-color="#0F0F0F"/>
<stop offset="1" stop-color="#202020"/>
</linearGradient>
<linearGradient id="paint1_linear_79_1180" x1="52" y1="0" x2="52" y2="104" gradientUnits="userSpaceOnUse">
<stop stop-color="#090909"/>
<stop offset="1" stop-color="#161616"/>
</linearGradient>
<linearGradient id="paint2_linear_79_1180" x1="9.17687" y1="35.3463" x2="27.1899" y2="93.8038" gradientUnits="userSpaceOnUse">
<stop stop-color="#FF6847"/>
<stop offset="1" stop-color="#FF0B54"/>
</linearGradient>
<linearGradient id="paint3_linear_79_1180" x1="9.17687" y1="35.3463" x2="27.1899" y2="93.8038" gradientUnits="userSpaceOnUse">
<stop stop-color="#FDAAD2"/>
<stop offset="1" stop-color="#FF800B"/>
</linearGradient>
<linearGradient id="paint4_linear_79_1180" x1="51.3204" y1="32.6271" x2="51.3204" y2="61.1761" gradientUnits="userSpaceOnUse">
<stop stop-color="#2E2E2E"/>
<stop offset="1" stop-color="#242424"/>
</linearGradient>
<linearGradient id="paint5_linear_79_1180" x1="39.9829" y1="68.6529" x2="63.8944" y2="68.6529" gradientUnits="userSpaceOnUse">
<stop stop-color="#D9D9D9"/>
<stop offset="0.505" stop-color="#D9D9D9" stop-opacity="0"/>
<stop offset="1" stop-color="#D9D9D9"/>
</linearGradient>
</defs>
</svg>
