<svg width="117" height="110" viewBox="0 0 117 110" fill="none" xmlns="http://www.w3.org/2000/svg">
<circle cx="58.4958" cy="51.497" r="51.3112" fill="url(#paint0_linear_374_1142)" fill-opacity="0.74"/>
<circle cx="58.4958" cy="51.497" r="51.1092" stroke="white" stroke-opacity="0.1" stroke-width="0.404025"/>
<g filter="url(#filter0_d_374_1142)">
<path d="M59.8651 75.1997L59.5538 74.8488C59.5297 74.8215 59.4969 74.8062 59.4627 74.8062C59.4285 74.8062 59.3958 74.8215 59.3716 74.8488C59.3474 74.876 59.3339 74.913 59.3339 74.9516C59.3339 74.9901 59.3474 75.0271 59.3716 75.0544L59.6826 75.4057C59.7066 75.4328 59.7202 75.4696 59.7203 75.508V76.986C59.7203 77.0245 59.7067 77.0615 59.6825 77.0888C59.6584 77.116 59.6256 77.1313 59.5915 77.1313C59.5573 77.1313 59.5246 77.116 59.5004 77.0888C59.4763 77.0615 59.4627 77.0245 59.4627 76.986V76.2594C59.4627 76.1438 59.422 76.0329 59.3496 75.9512C59.2771 75.8694 59.1788 75.8235 59.0764 75.8235H58.8188V74.9516C58.8188 74.836 58.7781 74.7251 58.7057 74.6433C58.6332 74.5616 58.535 74.5156 58.4325 74.5156H57.1447C57.0423 74.5156 56.944 74.5616 56.8716 74.6433C56.7991 74.7251 56.7584 74.836 56.7584 74.9516V77.7126H56.5008C56.4667 77.7126 56.4339 77.7279 56.4098 77.7552C56.3856 77.7824 56.3721 77.8194 56.3721 77.8579C56.3721 77.8965 56.3856 77.9334 56.4098 77.9607C56.4339 77.9879 56.4667 78.0032 56.5008 78.0032H59.0764C59.1105 78.0032 59.1433 77.9879 59.1674 77.9607C59.1916 77.9334 59.2052 77.8965 59.2052 77.8579C59.2052 77.8194 59.1916 77.7824 59.1674 77.7552C59.1433 77.7279 59.1105 77.7126 59.0764 77.7126H58.8188V76.1141H59.0764C59.1105 76.1141 59.1433 76.1294 59.1674 76.1567C59.1916 76.1839 59.2052 76.2209 59.2052 76.2594V76.986C59.2052 77.1016 59.2459 77.2125 59.3183 77.2943C59.3908 77.376 59.489 77.422 59.5915 77.422C59.6939 77.422 59.7922 77.376 59.8647 77.2943C59.9371 77.2125 59.9778 77.1016 59.9778 76.986V75.508C59.978 75.4507 59.9681 75.394 59.9488 75.3411C59.9295 75.2882 59.901 75.2401 59.8651 75.1997ZM58.1658 76.3139L57.9082 77.0405C57.8954 77.0763 57.8705 77.1049 57.839 77.12C57.8076 77.1351 57.772 77.1354 57.7403 77.121C57.7086 77.1065 57.6833 77.0784 57.6699 77.0429C57.6565 77.0074 57.6562 76.9673 57.669 76.9315L57.8559 76.4047H57.5311C57.51 76.4048 57.4892 76.399 57.4705 76.3878C57.4519 76.3767 57.4359 76.3605 57.4241 76.3408C57.4123 76.321 57.405 76.2983 57.4028 76.2746C57.4006 76.2509 57.4035 76.227 57.4115 76.2049L57.669 75.4783C57.6754 75.4606 57.6847 75.4445 57.6966 75.4308C57.7085 75.4172 57.7226 75.4063 57.7382 75.3989C57.7538 75.3914 57.7705 75.3875 57.7875 75.3873C57.8044 75.3871 57.8212 75.3907 57.8369 75.3979C57.8526 75.405 57.8669 75.4156 57.879 75.429C57.8911 75.4424 57.9007 75.4583 57.9073 75.4759C57.914 75.4935 57.9174 75.5124 57.9176 75.5315C57.9177 75.5507 57.9146 75.5696 57.9082 75.5873L57.7213 76.1141H58.0462C58.0673 76.1141 58.0881 76.1199 58.1067 76.131C58.1254 76.1422 58.1413 76.1584 58.1531 76.1781C58.1649 76.1978 58.1722 76.2205 58.1745 76.2442C58.1767 76.2679 58.1737 76.2918 58.1658 76.3139Z" fill="#FF6A56"/>
</g>
<path d="M38.9866 92.6259V93.1327C38.9866 93.2223 38.951 93.3083 38.8877 93.3716C38.8243 93.435 38.7384 93.4706 38.6488 93.4706H36.3666C36.351 93.4706 36.3357 93.4663 36.3225 93.4582C36.3092 93.4501 36.2984 93.4384 36.2913 93.4245C36.2842 93.4106 36.2811 93.3951 36.2823 93.3795C36.2835 93.364 36.289 93.3491 36.2982 93.3365L37.5986 91.5489C37.6256 91.5131 37.6376 91.4683 37.6322 91.4238C37.6268 91.3793 37.6044 91.3386 37.5697 91.3103C37.5518 91.2964 37.5313 91.2863 37.5095 91.2805C37.4876 91.2747 37.4648 91.2733 37.4424 91.2765C37.42 91.2797 37.3985 91.2873 37.3791 91.2989C37.3597 91.3106 37.3429 91.326 37.3296 91.3443L35.8091 93.4362C35.8011 93.447 35.7907 93.4558 35.7786 93.4618C35.7666 93.4678 35.7533 93.4708 35.7398 93.4706H34.5942C34.5046 93.4706 34.4187 93.435 34.3553 93.3716C34.2919 93.3083 34.2563 93.2223 34.2563 93.1327V92.6498C34.2563 92.612 34.2563 92.5744 34.2591 92.5372C34.2602 92.5155 34.2696 92.4951 34.2853 92.4802C34.301 92.4653 34.3219 92.4569 34.3436 92.457H34.9321C34.9553 92.457 34.9782 92.4523 34.9994 92.4431C35.0207 92.4339 35.0399 92.4205 35.0557 92.4036C35.0715 92.3867 35.0837 92.3667 35.0915 92.3449C35.0993 92.3231 35.1026 92.2999 35.101 92.2768C35.0973 92.2333 35.0772 92.1928 35.0448 92.1636C35.0124 92.1343 34.9701 92.1184 34.9264 92.1191H34.4236C34.4107 92.1191 34.398 92.1161 34.3864 92.1104C34.3749 92.1048 34.3647 92.0965 34.3569 92.0863C34.349 92.0761 34.3435 92.0643 34.3409 92.0516C34.3383 92.039 34.3387 92.026 34.3419 92.0135C34.5953 91.0877 35.3906 90.3847 36.359 90.276C36.3708 90.2747 36.3828 90.2759 36.3941 90.2796C36.4054 90.2833 36.4159 90.2893 36.4247 90.2972C36.4335 90.3052 36.4406 90.315 36.4454 90.3259C36.4502 90.3367 36.4526 90.3485 36.4526 90.3604V90.9365C36.4525 90.9597 36.4572 90.9826 36.4664 91.0039C36.4756 91.0251 36.489 91.0443 36.5059 91.0601C36.5228 91.076 36.5428 91.0882 36.5646 91.096C36.5864 91.1038 36.6096 91.107 36.6327 91.1055C36.6762 91.1017 36.7167 91.0816 36.746 91.0492C36.7752 91.0168 36.7911 90.9745 36.7904 90.9308V90.3594C36.7904 90.3475 36.7928 90.3357 36.7976 90.3248C36.8024 90.3139 36.8095 90.3042 36.8183 90.2962C36.8271 90.2882 36.8375 90.2822 36.8489 90.2785C36.8602 90.2749 36.8722 90.2736 36.884 90.2749C37.3568 90.328 37.8026 90.5223 38.1635 90.8324C38.5243 91.1425 38.7834 91.5541 38.907 92.0135C38.9103 92.026 38.9106 92.0391 38.908 92.0517C38.9054 92.0643 38.8999 92.0762 38.892 92.0864C38.8841 92.0966 38.8739 92.1048 38.8623 92.1105C38.8507 92.1162 38.838 92.1191 38.8251 92.1191H38.3166C38.273 92.1185 38.2308 92.1344 38.1985 92.1637C38.1661 92.193 38.1461 92.2334 38.1424 92.2768C38.1408 92.2999 38.1441 92.3231 38.1519 92.3449C38.1597 92.3667 38.1719 92.3867 38.1877 92.4036C38.2036 92.4205 38.2227 92.4339 38.244 92.4431C38.2652 92.4523 38.2882 92.457 38.3113 92.457H38.9009C38.9228 92.457 38.9439 92.4654 38.9596 92.4807C38.9754 92.4959 38.9846 92.5166 38.9854 92.5385C38.9866 92.5674 38.9866 92.5966 38.9866 92.6259Z" fill="#FC56FF"/>
<path d="M54.1184 95.8591V93.606C54.1184 93.4024 54.1652 93.2209 54.2587 93.0613C54.3577 92.9017 54.487 92.7752 54.6466 92.6816C54.8117 92.5826 54.9932 92.5331 55.1913 92.5331H58.963C59.018 92.5331 59.0648 92.5138 59.1033 92.4753C59.1473 92.4313 59.1694 92.3818 59.1694 92.3268V91.0145C59.1694 90.9595 59.1473 90.9127 59.1033 90.8742C59.0648 90.8302 59.018 90.8082 58.963 90.8082H55.2161C55.161 90.8082 55.1115 90.8302 55.0675 90.8742C55.029 90.9127 55.0097 90.9595 55.0097 91.0145V91.3364H54.1184V90.9897C54.1184 90.7862 54.1652 90.6046 54.2587 90.445C54.3577 90.2855 54.487 90.1562 54.6466 90.0571C54.8117 89.9581 54.9932 89.9086 55.1913 89.9086H58.9878C59.1804 89.9086 59.3564 89.9581 59.516 90.0571C59.6811 90.1562 59.8131 90.2855 59.9121 90.445C60.0112 90.6046 60.0607 90.7862 60.0607 90.9897V92.3515C60.0607 92.5496 60.0112 92.7312 59.9121 92.8962C59.8131 93.0558 59.6811 93.1851 59.516 93.2841C59.3564 93.3777 59.1804 93.4244 58.9878 93.4244H55.2161C55.161 93.4244 55.1115 93.4464 55.0675 93.4905C55.029 93.529 55.0097 93.5757 55.0097 93.6308V94.7615C55.0097 94.8165 55.029 94.866 55.0675 94.91C55.1115 94.9485 55.161 94.9678 55.2161 94.9678H60.0607V95.8591H54.1184Z" fill="white"/>
<path d="M66.6618 95.0219C66.5421 95.0219 66.4353 94.9927 66.3414 94.9345C66.2476 94.8762 66.1715 94.8001 66.1132 94.7063C66.055 94.6124 66.0259 94.5072 66.0259 94.3907V94.2451H66.555V94.3762C66.555 94.4085 66.5664 94.4377 66.589 94.4635C66.6117 94.4862 66.6392 94.4975 66.6716 94.4975H68.8805C68.9129 94.4975 68.9404 94.4862 68.963 94.4635C68.9857 94.4377 68.997 94.4085 68.997 94.3762V93.6285C68.997 93.5961 68.9857 93.5686 68.963 93.546C68.9404 93.5201 68.9129 93.5071 68.8805 93.5071H66.6618V92.9828H68.73C68.7656 92.9828 68.7947 92.9715 68.8174 92.9488C68.84 92.9229 68.8514 92.8938 68.8514 92.8614V92.1721C68.8514 92.1397 68.84 92.1122 68.8174 92.0895C68.7947 92.0636 68.7656 92.0507 68.73 92.0507H66.6716C66.6392 92.0507 66.6117 92.0636 66.589 92.0895C66.5664 92.1122 66.555 92.1397 66.555 92.1721V92.3517H66.0259V92.1575C66.0259 92.0377 66.0534 91.9309 66.1084 91.8371C66.1667 91.7432 66.2443 91.6672 66.3414 91.6089C66.4385 91.5506 66.5453 91.5215 66.6618 91.5215H68.7446C68.8643 91.5215 68.9711 91.5506 69.065 91.6089C69.1621 91.6672 69.2381 91.7432 69.2932 91.8371C69.3482 91.9309 69.3757 92.0377 69.3757 92.1575V92.876C69.3757 92.9181 69.3708 92.9602 69.3611 93.0022C69.3547 93.0443 69.3433 93.0832 69.3271 93.1188C69.3984 93.19 69.4485 93.2693 69.4776 93.3566C69.5068 93.444 69.5213 93.5298 69.5213 93.6139V94.3907C69.5213 94.5072 69.4922 94.6124 69.434 94.7063C69.3789 94.8001 69.3029 94.8762 69.2058 94.9345C69.1119 94.9927 69.0083 95.0219 68.8951 95.0219H66.6618Z" fill="#A9A9A9"/>
<path d="M47.876 95.0219V92.2206L47.4731 92.7061H46.7837L47.774 91.5264H48.4003V95.0219H47.876Z" fill="#A9A9A9"/>
<path d="M32.095 47.0029C31.4868 47.0029 30.9279 46.8468 30.4184 46.5345C29.9253 46.2057 29.5308 45.7784 29.2349 45.2524C28.939 44.7264 28.7911 44.1675 28.7911 43.5758V32.604C28.7911 31.9959 28.939 31.437 29.2349 30.9275C29.5308 30.4179 29.9253 30.0152 30.4184 29.7193C30.9279 29.407 31.4868 29.2509 32.095 29.2509H43.1407C43.7489 29.2509 44.2995 29.407 44.7926 29.7193C45.3022 30.0152 45.7049 30.4179 46.0007 30.9275C46.2966 31.437 46.4445 31.9959 46.4445 32.604V43.5758C46.4445 44.1675 46.2966 44.7264 46.0007 45.2524C45.7049 45.7784 45.3022 46.2057 44.7926 46.5345C44.2995 46.8468 43.7489 47.0029 43.1407 47.0029H32.095ZM32.9086 43.921H43.0667C43.1818 43.921 43.2804 43.8799 43.3626 43.7977C43.4612 43.6991 43.5105 43.5922 43.5105 43.4772V35.1189L32.9086 43.921ZM31.7251 41.0609L42.3271 32.2589H32.1936C32.0621 32.2589 31.947 32.3082 31.8484 32.4068C31.7662 32.489 31.7251 32.5876 31.7251 32.7027V41.0609Z" fill="white" fill-opacity="0.3"/>
<path d="M52.5588 47.0029C52.0492 47.0029 51.5643 46.8714 51.1041 46.6084C50.6603 46.3454 50.274 46.0003 49.9453 45.5729C49.6329 45.1291 49.411 44.6278 49.2796 44.0689H63.5305C63.6456 44.0689 63.7442 44.0278 63.8264 43.9456C63.925 43.847 63.9743 43.7319 63.9743 43.6005V40.2473C63.9743 40.1322 63.925 40.0336 63.8264 39.9514C63.7442 39.8528 63.6456 39.8035 63.5305 39.8035H52.5588C51.9506 39.8035 51.3917 39.6556 50.8822 39.3597C50.3891 39.0474 49.9946 38.6447 49.6987 38.1516C49.4028 37.642 49.2549 37.0831 49.2549 36.475V32.5547C49.2549 31.9301 49.4028 31.3713 49.6987 30.8781C49.9946 30.385 50.3891 29.9905 50.8822 29.6947C51.3917 29.3988 51.9506 29.2509 52.5588 29.2509H63.6291C64.2209 29.2509 64.7633 29.3988 65.2564 29.6947C65.7659 29.9905 66.1687 30.385 66.4645 30.8781C66.7768 31.3713 66.933 31.9301 66.933 32.5547V43.6991C66.933 44.3072 66.7768 44.8579 66.4645 45.351C66.1687 45.8441 65.7659 46.2468 65.2564 46.5591C64.7633 46.855 64.2209 47.0029 63.6291 47.0029H52.5588ZM52.6574 36.8448H63.9743V32.6534C63.9743 32.5219 63.925 32.415 63.8264 32.3328C63.7442 32.2342 63.6456 32.1849 63.5305 32.1849H52.6574C52.5423 32.1849 52.4355 32.2342 52.3369 32.3328C52.2547 32.415 52.2136 32.5219 52.2136 32.6534V36.3764C52.2136 36.5079 52.2547 36.6229 52.3369 36.7215C52.4355 36.8037 52.5423 36.8448 52.6574 36.8448ZM69.7715 47.0029V40.2226C69.7715 39.6145 69.9194 39.0638 70.2153 38.5707C70.5111 38.0612 70.9056 37.6667 71.3987 37.3872C71.9083 37.0914 72.4671 36.9434 73.0753 36.9434H84.0471C84.1621 36.9434 84.2607 36.9023 84.3429 36.8202C84.4416 36.7215 84.4909 36.6065 84.4909 36.475V32.6534C84.4909 32.5219 84.4416 32.415 84.3429 32.3328C84.2607 32.2342 84.1621 32.1849 84.0471 32.1849H73.1739C73.0424 32.1849 72.9274 32.2342 72.8288 32.3328C72.7466 32.415 72.7055 32.5219 72.7055 32.6534V33.7382H69.7715V32.5547C69.7715 31.9301 69.9194 31.3713 70.2153 30.8781C70.5111 30.385 70.9056 29.9905 71.3987 29.6947C71.9083 29.3988 72.4671 29.2509 73.0753 29.2509H84.121C84.7292 29.2509 85.2798 29.3988 85.773 29.6947C86.2825 29.9905 86.6852 30.385 86.9811 30.8781C87.277 31.3713 87.4249 31.9301 87.4249 32.5547V36.5736C87.4249 37.1818 87.277 37.7406 86.9811 38.2502C86.6852 38.7433 86.2825 39.146 85.773 39.4583C85.2798 39.7542 84.7292 39.9021 84.121 39.9021H73.1739C73.0424 39.9021 72.9274 39.9432 72.8288 40.0254C72.7466 40.1076 72.7055 40.2144 72.7055 40.3459V43.6005C72.7055 43.7319 72.7466 43.847 72.8288 43.9456C72.9274 44.0278 73.0424 44.0689 73.1739 44.0689H87.4249V47.0029H69.7715Z" fill="#E2E2E2"/>
<path d="M47.6817 59.6888V53.397H48.6342V56.071H50.3732L52.6103 53.397H53.7027V53.5718L51.2121 56.5429L53.7114 59.5141V59.6888H52.6103L50.3732 57.0148H48.6342V59.6888H47.6817ZM54.6366 59.6888V53.397H55.7639L58.202 56.2982L60.6314 53.397H61.7674V59.6888H60.8149V54.6641L58.202 57.7751L55.5804 54.6641V59.6888H54.6366ZM62.7525 59.6888V53.397H63.6963V56.071H68.2405V53.397H69.193V59.6888H68.2405V57.0148H63.6963V59.6888H62.7525Z" fill="white" fill-opacity="0.53"/>
<path d="M45.8657 76.6004C45.9247 76.4051 45.8105 76.1987 45.6152 76.1434C45.5783 76.1324 45.5451 76.1213 45.5083 76.114C45.5046 75.786 45.4383 75.4691 45.3167 75.1816L43.3156 76.6115C44.0195 76.5709 44.727 76.6483 45.4088 76.851C45.6041 76.9063 45.8105 76.7957 45.8657 76.6004ZM44.3221 79.499C44.3491 79.5051 44.3765 79.508 44.4031 79.508C44.5719 79.508 44.7238 79.3917 44.7623 79.22L45.1308 77.5776C45.1711 77.3976 45.0725 77.2159 44.8997 77.1515C44.1037 76.8557 43.2277 76.8557 42.4317 77.1515C42.2589 77.2159 42.1603 77.3976 42.2006 77.5776L42.5691 79.22C42.6138 79.419 42.8117 79.5443 43.0092 79.4989C43.2079 79.4543 43.3328 79.2575 43.2881 79.0588L42.9941 77.7474C43.4375 77.6366 43.8938 77.6366 44.3371 77.7474L44.0431 79.0588C43.9986 79.2575 44.1235 79.4543 44.3221 79.499ZM40.7876 77.5106C40.8577 77.6101 40.9719 77.6654 41.0861 77.6654C41.1598 77.6654 41.2372 77.6433 41.2999 77.5954L46.459 73.9103C46.6249 73.7923 46.6617 73.5639 46.5438 73.398C46.4259 73.2322 46.1974 73.1953 46.0316 73.3133L44.6386 74.3083C44.6131 74.2887 44.5858 74.2734 44.5595 74.2557C44.6913 74.0738 44.7713 73.8523 44.7713 73.6118C44.7713 73.0037 44.2738 72.5062 43.6657 72.5062C43.0577 72.5062 42.5602 73.0037 42.5602 73.6118C42.5602 73.8534 42.6411 74.0758 42.774 74.2582C42.279 74.5829 41.9208 75.1636 41.8416 75.8523C41.8305 75.9371 41.8232 76.0255 41.8232 76.114C41.7863 76.1213 41.7531 76.1324 41.7163 76.1434C41.5283 76.195 41.4141 76.3903 41.462 76.5783L40.8724 76.9984C40.7066 77.1163 40.6697 77.3448 40.7876 77.5106Z" fill="white"/>
<path fill-rule="evenodd" clip-rule="evenodd" d="M62.4293 77.2743V75.3076C62.4293 75.2424 62.4034 75.1799 62.3573 75.1338C62.3112 75.0877 62.2487 75.0618 62.1835 75.0618C62.1183 75.0618 62.0557 75.0877 62.0096 75.1338C61.9635 75.1799 61.9376 75.2424 61.9376 75.3076V76.0451H61.4459V75.5535C61.4459 75.4231 61.3941 75.298 61.3019 75.2058C61.2097 75.1136 61.0847 75.0618 60.9543 75.0618H60.5643L59.7061 74.2035L56.9259 78.7086L56.9343 78.7122C56.994 78.7369 57.058 78.7495 57.1226 78.7493H59.1317C59.1963 78.7495 59.2603 78.7369 59.3199 78.7122C59.3796 78.6874 59.4338 78.6511 59.4792 78.6052L60.5643 77.5201H60.9543C61.0847 77.5201 61.2097 77.4683 61.3019 77.3761C61.3941 77.2839 61.4459 77.1589 61.4459 77.0285V76.5368H61.9376V77.2743C61.9376 77.3395 61.9635 77.402 62.0096 77.4481C62.0557 77.4942 62.1183 77.5201 62.1835 77.5201C62.2487 77.5201 62.3112 77.4942 62.3573 77.4481C62.4034 77.402 62.4293 77.3395 62.4293 77.2743ZM56.455 78.2852L59.2 73.8372C59.1774 73.8341 59.1546 73.8325 59.1317 73.8326H58.4959V73.3409H59.2334C59.2986 73.3409 59.3611 73.315 59.4072 73.2689C59.4533 73.2228 59.4792 73.1603 59.4792 73.0951C59.4792 73.0299 59.4533 72.9674 59.4072 72.9212C59.3611 72.8751 59.2986 72.8492 59.2334 72.8492H57.2667C57.2015 72.8492 57.139 72.8751 57.0929 72.9212C57.0468 72.9674 57.0209 73.0299 57.0209 73.0951C57.0209 73.1603 57.0468 73.2228 57.0929 73.2689C57.139 73.315 57.2015 73.3409 57.2667 73.3409H58.0042V73.8326H56.0375C55.9071 73.8326 55.7821 73.8844 55.6899 73.9766C55.5977 74.0688 55.5458 74.1939 55.5458 74.3243V76.0451H55.0542V75.3076C55.0542 75.2424 55.0283 75.1799 54.9822 75.1338C54.9361 75.0877 54.8735 75.0618 54.8083 75.0618C54.7431 75.0618 54.6806 75.0877 54.6345 75.1338C54.5884 75.1799 54.5625 75.2424 54.5625 75.3076V77.2743C54.5625 77.3395 54.5884 77.402 54.6345 77.4481C54.6806 77.4942 54.7431 77.5201 54.8083 77.5201C54.8735 77.5201 54.9361 77.4942 54.9822 77.4481C55.0283 77.402 55.0542 77.3395 55.0542 77.2743V76.5368H55.5458V77.1726C55.5456 77.2372 55.5583 77.3012 55.583 77.3608C55.6078 77.4205 55.6441 77.4747 55.69 77.5201L56.455 78.2852Z" fill="#898989"/>
<path d="M69.9369 78.7098C69.9519 78.8041 70.0333 78.8736 70.1289 78.8736H75.0964C75.3588 78.8736 75.6154 78.7725 75.7933 78.579C75.8365 78.5322 75.8763 78.4804 75.9143 78.4265H69.8917L69.9369 78.7098ZM69.8287 77.7823H76.046C76.0996 77.7823 76.1495 77.7967 76.1941 77.82C76.3316 77.3131 76.3012 76.7109 76.0315 76.182C75.9663 76.0547 75.8682 75.9468 75.7535 75.8622L73.3681 74.1047C72.7411 73.644 71.9839 73.3942 71.2053 73.3942H69.317C69.1974 73.3942 69.1062 73.5011 69.125 73.6192L69.7896 77.7862C69.8025 77.7846 69.8153 77.7823 69.8287 77.7823ZM71.2433 76.6648C71.2433 76.7004 71.2143 76.7294 71.1786 76.7294H70.2336C70.198 76.7294 70.169 76.7004 70.169 76.6648V76.5134C70.169 76.4777 70.198 76.4488 70.2336 76.4488H71.1787C71.2143 76.4488 71.2433 76.4777 71.2433 76.5134L71.2433 76.6648ZM71.2053 73.8802C71.8838 73.8802 72.5321 74.0931 73.0804 74.4965L74.6162 75.6279H69.9377L69.6588 73.8802H71.2053ZM76.046 77.9345H69.8287C69.7348 77.9345 69.6588 78.0105 69.6588 78.1044C69.6588 78.1982 69.7348 78.2743 69.8287 78.2743H76.046C76.1398 78.2743 76.2159 78.1982 76.2159 78.1044C76.2159 78.0105 76.1398 77.9345 76.046 77.9345Z" fill="#898989"/>
<path d="M84.152 95.9338C93.7911 90.3687 101.359 81.8203 105.715 71.5778C110.071 61.3354 110.978 49.9543 108.3 39.1511C105.622 28.3479 99.504 18.7083 90.8685 11.6863C82.2329 4.66432 71.5482 0.640623 60.4259 0.222083L60.3836 1.34653C71.262 1.75589 81.7124 5.69135 90.1586 12.5594C98.6047 19.4274 104.589 28.8555 107.208 39.4218C109.827 49.9881 108.94 61.1196 104.68 71.1375C100.419 81.1553 93.017 89.5163 83.5894 94.9593L84.152 95.9338Z" fill="#FF6A56" fill-opacity="0.2"/>
<g filter="url(#filter1_d_374_1142)">
<path d="M83.95 95.5839C84.0616 95.7772 84.3088 95.8435 84.5012 95.7304C91.4003 91.6744 97.2567 86.0598 101.6 79.3337C106.017 72.4945 108.743 64.7024 109.553 56.6013C110.363 48.5002 109.234 40.3226 106.258 32.7443C103.332 25.2915 98.7028 18.6286 92.7432 13.2871C92.5771 13.1382 92.3216 13.1542 92.174 13.3216L91.9641 13.5594C91.8165 13.7268 91.8327 13.982 91.9988 14.131C97.8245 19.3543 102.35 25.8689 105.211 33.1556C108.121 40.5677 109.226 48.5659 108.433 56.4893C107.641 64.4128 104.975 72.034 100.655 78.7233C96.4083 85.2994 90.683 90.7892 83.9385 94.7559C83.7462 94.869 83.6798 95.116 83.7914 95.3092L83.95 95.5839Z" fill="#FF6A56"/>
</g>
<g filter="url(#filter2_d_374_1142)">
<path d="M53.9073 102.335C53.894 102.482 54.0024 102.612 54.1494 102.624C56.1155 102.791 58.0896 102.845 60.0618 102.785C60.2093 102.78 60.3246 102.656 60.3193 102.509V102.509C60.314 102.362 60.1902 102.246 60.0428 102.251C58.0929 102.31 56.1412 102.257 54.1975 102.092C54.0505 102.079 53.9206 102.188 53.9073 102.335V102.335Z" fill="white"/>
</g>
<path d="M32.8402 95.9338C23.2011 90.3687 15.633 81.8203 11.2771 71.5778C6.92129 61.3354 6.01396 49.9543 8.69198 39.1511C11.37 28.3479 17.4882 18.7083 26.1237 11.6863C34.7593 4.66432 45.4439 0.640623 56.5663 0.222083L56.6086 1.34653C45.7302 1.75589 35.2798 5.69135 26.8336 12.5594C18.3875 19.4274 12.4035 28.8555 9.78417 39.4218C7.16487 49.9881 8.05231 61.1196 12.3126 71.1375C16.573 81.1553 23.9751 89.5163 33.4028 94.9593L32.8402 95.9338Z" fill="#FC56FF" fill-opacity="0.2"/>
<g filter="url(#filter3_d_374_1142)">
<path d="M33.0422 95.5839C32.9306 95.7772 32.6834 95.8435 32.491 95.7304C25.5919 91.6744 19.7355 86.0598 15.3918 79.3337C10.9749 72.4945 8.24896 64.7024 7.43908 56.6013C6.62919 48.5002 7.75864 40.3226 10.7341 32.7443C13.6603 25.2915 18.2894 18.6286 24.249 13.2871C24.4151 13.1382 24.6706 13.1542 24.8182 13.3216L25.0281 13.5594C25.1757 13.7268 25.1595 13.982 24.9934 14.131C19.1677 19.3543 14.6425 25.8689 11.7815 33.1556C8.8713 40.5677 7.76662 48.5659 8.55874 56.4893C9.35087 64.4128 12.0171 72.034 16.337 78.7233C20.5839 85.2994 26.3092 90.7892 33.0536 94.7559C33.246 94.869 33.3124 95.116 33.2008 95.3092L33.0422 95.5839Z" fill="#FC56FF"/>
</g>
<defs>
<filter id="filter0_d_374_1142" x="53.1202" y="71.2637" width="10.1098" height="9.99136" filterUnits="userSpaceOnUse" color-interpolation-filters="sRGB">
<feFlood flood-opacity="0" result="BackgroundImageFix"/>
<feColorMatrix in="SourceAlpha" type="matrix" values="0 0 0 0 0 0 0 0 0 0 0 0 0 0 0 0 0 0 127 0" result="hardAlpha"/>
<feOffset/>
<feGaussianBlur stdDeviation="1.62595"/>
<feComposite in2="hardAlpha" operator="out"/>
<feColorMatrix type="matrix" values="0 0 0 0 0 0 0 0 0 0 0 0 0 0 0 0 0 0 1 0"/>
<feBlend mode="normal" in2="BackgroundImageFix" result="effect1_dropShadow_374_1142"/>
<feBlend mode="normal" in="SourceGraphic" in2="effect1_dropShadow_374_1142" result="shape"/>
</filter>
<filter id="filter1_d_374_1142" x="77.2325" y="6.68013" width="39.0799" height="95.6103" filterUnits="userSpaceOnUse" color-interpolation-filters="sRGB">
<feFlood flood-opacity="0" result="BackgroundImageFix"/>
<feColorMatrix in="SourceAlpha" type="matrix" values="0 0 0 0 0 0 0 0 0 0 0 0 0 0 0 0 0 0 127 0" result="hardAlpha"/>
<feOffset/>
<feGaussianBlur stdDeviation="3.2524"/>
<feComposite in2="hardAlpha" operator="out"/>
<feColorMatrix type="matrix" values="0 0 0 0 1 0 0 0 0 0.415686 0 0 0 0 0.337255 0 0 0 0.72 0"/>
<feBlend mode="normal" in2="BackgroundImageFix" result="effect1_dropShadow_374_1142"/>
<feBlend mode="normal" in="SourceGraphic" in2="effect1_dropShadow_374_1142" result="shape"/>
</filter>
<filter id="filter2_d_374_1142" x="47.4014" y="95.5861" width="19.4227" height="13.7274" filterUnits="userSpaceOnUse" color-interpolation-filters="sRGB">
<feFlood flood-opacity="0" result="BackgroundImageFix"/>
<feColorMatrix in="SourceAlpha" type="matrix" values="0 0 0 0 0 0 0 0 0 0 0 0 0 0 0 0 0 0 127 0" result="hardAlpha"/>
<feOffset/>
<feGaussianBlur stdDeviation="3.2524"/>
<feComposite in2="hardAlpha" operator="out"/>
<feColorMatrix type="matrix" values="0 0 0 0 1 0 0 0 0 1 0 0 0 0 1 0 0 0 0.72 0"/>
<feBlend mode="normal" in2="BackgroundImageFix" result="effect1_dropShadow_374_1142"/>
<feBlend mode="normal" in="SourceGraphic" in2="effect1_dropShadow_374_1142" result="shape"/>
</filter>
<filter id="filter3_d_374_1142" x="0.679763" y="6.68013" width="39.0799" height="95.6103" filterUnits="userSpaceOnUse" color-interpolation-filters="sRGB">
<feFlood flood-opacity="0" result="BackgroundImageFix"/>
<feColorMatrix in="SourceAlpha" type="matrix" values="0 0 0 0 0 0 0 0 0 0 0 0 0 0 0 0 0 0 127 0" result="hardAlpha"/>
<feOffset/>
<feGaussianBlur stdDeviation="3.2524"/>
<feComposite in2="hardAlpha" operator="out"/>
<feColorMatrix type="matrix" values="0 0 0 0 0.988235 0 0 0 0 0.337255 0 0 0 0 1 0 0 0 0.72 0"/>
<feBlend mode="normal" in2="BackgroundImageFix" result="effect1_dropShadow_374_1142"/>
<feBlend mode="normal" in="SourceGraphic" in2="effect1_dropShadow_374_1142" result="shape"/>
</filter>
<linearGradient id="paint0_linear_374_1142" x1="58.4958" y1="0.185791" x2="58.4958" y2="102.808" gradientUnits="userSpaceOnUse">
<stop stop-color="#181818"/>
<stop offset="0.465" stop-color="#222222"/>
<stop offset="1" stop-color="#050505"/>
</linearGradient>
</defs>
</svg>
