<svg width="195" height="80" viewBox="0 0 195 80" fill="none" xmlns="http://www.w3.org/2000/svg">
<g filter="url(#filter0_d_79_673)">
<path d="M50.3755 18.3107C52.4849 18.3107 54.2587 18.4425 55.697 18.7062C57.1472 18.9579 58.3397 19.3474 59.2746 19.8748C60.2095 20.3902 60.9286 21.0434 61.432 21.8344C61.9353 22.6254 62.3009 23.5543 62.5286 24.621C62.7683 25.6877 62.9062 26.8922 62.9421 28.2346C62.9901 29.5769 63.014 31.0631 63.014 32.6931C63.014 34.3231 62.9901 35.8093 62.9421 37.1517C62.9062 38.494 62.7683 39.6986 62.5286 40.7653C62.3009 41.832 61.9353 42.7608 61.432 43.5518C60.9286 44.3429 60.2095 45.0021 59.2746 45.5294C58.3397 46.0448 57.1472 46.4283 55.697 46.68C54.2587 46.9437 52.4849 47.0755 50.3755 47.0755H43.4539C41.3445 47.0755 39.5647 46.9437 38.1145 46.68C36.6762 46.4283 35.4897 46.0448 34.5548 45.5294C33.62 45.0021 32.8948 44.3429 32.3795 43.5518C31.8761 42.7608 31.5045 41.832 31.2648 40.7653C31.0371 39.6986 30.9053 38.494 30.8693 37.1517C30.8334 35.8093 30.8154 34.3231 30.8154 32.6931C30.8154 31.0631 30.8334 29.5769 30.8693 28.2346C30.9053 26.8922 31.0371 25.6877 31.2648 24.621C31.5045 23.5543 31.8761 22.6254 32.3795 21.8344C32.8948 21.0434 33.62 20.3902 34.5548 19.8748C35.4897 19.3474 36.6762 18.9579 38.1145 18.7062C39.5647 18.4425 41.3445 18.3107 43.4539 18.3107H50.3755ZM50.3755 44.1991C51.9096 44.1991 53.198 44.1571 54.2408 44.0732C55.2835 43.9773 56.1464 43.7916 56.8296 43.5159C57.5128 43.2402 58.0401 42.8447 58.4117 42.3293C58.7832 41.814 59.0529 41.1308 59.2207 40.2798C59.3885 39.4289 59.4843 38.3862 59.5083 37.1517C59.5443 35.9052 59.5622 34.419 59.5622 32.6931C59.5622 30.9672 59.5443 29.487 59.5083 28.2526C59.4843 27.0061 59.3885 25.9574 59.2207 25.1064C59.0529 24.2554 58.7832 23.5723 58.4117 23.0569C58.0401 22.5415 57.5128 22.146 56.8296 21.8704C56.1584 21.5947 55.2955 21.4149 54.2408 21.331C53.198 21.2351 51.9096 21.1872 50.3755 21.1872H43.4539C41.9198 21.1872 40.6254 21.2351 39.5707 21.331C38.528 21.4149 37.665 21.5947 36.9819 21.8704C36.2987 22.146 35.7713 22.5415 35.3998 23.0569C35.0282 23.5723 34.7586 24.2554 34.5908 25.1064C34.423 25.9574 34.3271 27.0061 34.3031 28.2526C34.2792 29.487 34.2672 30.9672 34.2672 32.6931C34.2672 34.419 34.2792 35.9052 34.3031 37.1517C34.3391 38.3862 34.441 39.4289 34.6088 40.2798C34.7765 41.1308 35.0402 41.814 35.3998 42.3293C35.7713 42.8447 36.2987 43.2402 36.9819 43.5159C37.665 43.7916 38.528 43.9773 39.5707 44.0732C40.6254 44.1571 41.9198 44.1991 43.4539 44.1991H50.3755Z" fill="white" fill-opacity="0.36"/>
<path d="M95.2306 40.7473V46.5002H91.7789V40.7473H67.6164V37.2955L90.6283 18.886H95.2306V37.8708H99.833V40.7473H95.2306ZM91.7789 37.8708V21.1872L71.0682 37.8708H91.7789ZM125.146 27.5155C126.68 27.5155 127.999 27.5994 129.101 27.7671C130.216 27.923 131.157 28.1746 131.924 28.5222C132.691 28.8578 133.308 29.2893 133.776 29.8166C134.243 30.344 134.603 30.9732 134.854 31.7043C135.118 32.4235 135.292 33.2504 135.376 34.1853C135.459 35.1082 135.501 36.1449 135.501 37.2955C135.501 38.7937 135.37 40.0821 135.106 41.1608C134.854 42.2275 134.459 43.1264 133.919 43.8575C133.392 44.5766 132.721 45.1519 131.906 45.5834C131.091 46.0029 130.126 46.3205 129.011 46.5362C127.909 46.7639 126.65 46.9077 125.236 46.9677C123.834 47.0396 122.27 47.0755 120.544 47.0755C118.818 47.0755 117.218 47.0636 115.744 47.0396C114.281 47.0156 112.951 46.9197 111.752 46.7519C110.566 46.5841 109.517 46.3205 108.606 45.9609C107.695 45.5894 106.928 45.062 106.305 44.3788C105.694 43.6957 105.226 42.8267 104.903 41.772C104.591 40.7173 104.435 39.4169 104.435 37.8708H107.887C107.887 38.7817 107.905 39.5727 107.941 40.2439C107.989 40.9031 108.127 41.4664 108.355 41.9338C108.594 42.4013 108.966 42.7848 109.469 43.0844C109.973 43.3721 110.692 43.5998 111.627 43.7676C112.573 43.9354 113.766 44.0492 115.204 44.1092C116.654 44.1691 118.434 44.1991 120.544 44.1991C122.078 44.1991 123.426 44.1871 124.589 44.1631C125.751 44.1391 126.758 44.0612 127.609 43.9294C128.472 43.7975 129.185 43.5938 129.748 43.3181C130.312 43.0305 130.761 42.629 131.097 42.1136C131.444 41.5982 131.69 40.951 131.834 40.172C131.978 39.3809 132.05 38.4161 132.05 37.2775C132.05 35.7434 131.96 34.5209 131.78 33.61C131.6 32.6991 131.259 32.01 130.755 31.5425C130.252 31.0631 129.551 30.7515 128.652 30.6077C127.753 30.4638 126.584 30.3919 125.146 30.3919H115.941C114.359 30.3919 113.077 30.4638 112.094 30.6077C111.111 30.7395 110.332 30.9313 109.757 31.183C109.182 31.4347 108.762 31.7403 108.498 32.0998C108.235 32.4474 108.031 32.8369 107.887 33.2684H104.435V18.886H134.351V21.7625H107.887V30.3919C107.899 30.368 107.947 30.2841 108.031 30.1402C108.127 29.9844 108.283 29.7987 108.498 29.5829C108.726 29.3672 109.026 29.1395 109.397 28.8998C109.781 28.6601 110.266 28.4383 110.854 28.2346C111.453 28.0308 112.166 27.863 112.993 27.7312C113.832 27.5874 114.815 27.5155 115.941 27.5155H125.146Z" fill="white"/>
<rect x="30.3857" y="54.9529" width="147.923" height="5.47865" rx="1.09573" fill="#A37735" fill-opacity="0.48"/>
<rect x="30.3857" y="54.9529" width="96.4241" height="5.47865" rx="1.09573" fill="#FFC163"/>
<path d="M17.7365 51.8656C17.6589 51.8654 17.582 51.8806 17.5103 51.9102C17.4386 51.9398 17.3734 51.9833 17.3186 52.0382C17.2637 52.093 17.2202 52.1582 17.1906 52.2299C17.161 52.3016 17.1458 52.3785 17.146 52.4561V61.9031C17.146 62.1984 17.4412 62.4936 17.7365 62.4936H23.0505C23.3457 62.4936 23.6409 62.1984 23.6409 61.9031V58.951H23.9362C24.2313 58.951 24.2313 59.2461 24.2313 59.2461V60.4271C24.2313 61.0175 24.5265 61.3128 25.117 61.3128C25.7075 61.3128 26.0027 61.0175 26.0027 60.4271V57.1796C26.0027 56.5891 24.8218 55.9988 24.8218 55.4083V53.6369H24.2313L23.6409 53.0464V52.4561C23.641 52.3785 23.6259 52.3017 23.5963 52.23C23.5667 52.1582 23.5232 52.0931 23.4683 52.0382C23.4135 51.9834 23.3483 51.9399 23.2766 51.9102C23.2049 51.8806 23.1281 51.8655 23.0505 51.8656H17.7365ZM18.3268 53.0464H22.46V55.4083H18.3268V53.0464ZM23.6409 54.8178H24.2313V55.7035C24.2313 56.2939 25.4122 56.8844 25.4122 57.4748V60.4271C25.4122 60.7223 25.117 60.7223 25.117 60.7223C25.117 60.7223 24.8218 60.7223 24.8218 60.4271V58.951C24.8218 58.6558 24.5265 58.3605 24.2313 58.3605H23.6409V54.8178Z" fill="#FFC163"/>
<rect x="142.187" y="36.1198" width="16.1163" height="16.1163" rx="1.34302" fill="#63DAFF" fill-opacity="0.22"/>
<path d="M153.252 44.4031C153.332 44.136 153.176 43.8539 152.909 43.7783C152.859 43.7632 152.813 43.7481 152.763 43.738C152.758 43.2896 152.667 42.8563 152.501 42.4633L149.765 44.4182C150.728 44.3628 151.695 44.4686 152.627 44.7457C152.894 44.8212 153.176 44.6701 153.252 44.4031ZM151.141 48.366C151.178 48.3743 151.216 48.3783 151.252 48.3783C151.483 48.3783 151.69 48.2194 151.743 47.9846L152.247 45.7391C152.302 45.4931 152.167 45.2446 151.931 45.1565C150.843 44.7521 149.645 44.7521 148.557 45.1565C148.321 45.2446 148.186 45.4931 148.241 45.7391L148.745 47.9846C148.806 48.2567 149.076 48.428 149.346 48.3659C149.618 48.3049 149.789 48.0358 149.728 47.7642L149.326 45.9713C149.932 45.8197 150.556 45.8197 151.162 45.9713L150.76 47.7642C150.699 48.0358 150.87 48.305 151.141 48.366ZM146.309 45.6475C146.405 45.7836 146.561 45.8591 146.717 45.8591C146.818 45.8591 146.924 45.8289 147.009 45.7634L154.063 40.7251C154.29 40.5639 154.34 40.2515 154.179 40.0248C154.018 39.7981 153.705 39.7477 153.478 39.9089L151.574 41.2693C151.539 41.2425 151.502 41.2216 151.466 41.1975C151.646 40.9487 151.755 40.6459 151.755 40.317C151.755 39.4857 151.075 38.8055 150.244 38.8055C149.413 38.8055 148.732 39.4857 148.732 40.317C148.732 40.6474 148.843 40.9514 149.025 41.2008C148.348 41.6448 147.858 42.4387 147.75 43.3803C147.735 43.4962 147.725 43.6171 147.725 43.738C147.674 43.7481 147.629 43.7632 147.579 43.7783C147.322 43.8489 147.166 44.1159 147.231 44.3728L146.425 44.9472C146.198 45.1084 146.148 45.4208 146.309 45.6475Z" fill="#63DAFF"/>
<rect x="161.915" y="17.5953" width="16.1163" height="16.1163" rx="1.34302" fill="#D6D6D6" fill-opacity="0.22"/>
<path d="M172.981 25.8787C173.061 25.6116 172.905 25.3295 172.638 25.2539C172.588 25.2388 172.542 25.2237 172.492 25.2136C172.487 24.7652 172.396 24.3319 172.23 23.9389L169.494 25.8938C170.457 25.8384 171.424 25.9442 172.356 26.2213C172.623 26.2968 172.905 26.1457 172.981 25.8787ZM170.87 29.8416C170.907 29.8499 170.945 29.8539 170.981 29.8539C171.212 29.8539 171.419 29.695 171.472 29.4602L171.976 27.2147C172.031 26.9686 171.896 26.7202 171.66 26.6321C170.572 26.2277 169.374 26.2277 168.286 26.6321C168.05 26.7202 167.915 26.9686 167.97 27.2147L168.474 29.4602C168.535 29.7323 168.805 29.9035 169.075 29.8415C169.347 29.7805 169.518 29.5114 169.457 29.2398L169.055 27.4469C169.661 27.2953 170.285 27.2953 170.891 27.4469L170.489 29.2398C170.428 29.5114 170.599 29.7806 170.87 29.8416ZM166.038 27.1231C166.134 27.2591 166.29 27.3347 166.446 27.3347C166.547 27.3347 166.653 27.3045 166.738 27.239L173.792 22.2007C174.019 22.0395 174.069 21.7271 173.908 21.5004C173.747 21.2737 173.434 21.2233 173.207 21.3845L171.303 22.7448C171.268 22.7181 171.231 22.6972 171.195 22.6731C171.375 22.4243 171.484 22.1215 171.484 21.7926C171.484 20.9613 170.804 20.2811 169.973 20.2811C169.142 20.2811 168.461 20.9613 168.461 21.7926C168.461 22.123 168.572 22.427 168.754 22.6764C168.077 23.1204 167.587 23.9143 167.479 24.8559C167.464 24.9718 167.454 25.0927 167.454 25.2136C167.403 25.2237 167.358 25.2388 167.308 25.2539C167.051 25.3244 166.895 25.5915 166.96 25.8484L166.154 26.4228C165.927 26.584 165.877 26.8964 166.038 27.1231Z" fill="#D6D6D6"/>
<rect x="142.187" y="17.5953" width="16.1163" height="16.1163" rx="1.34302" fill="#D6D6D6" fill-opacity="0.22"/>
<path d="M153.252 25.8787C153.332 25.6116 153.176 25.3295 152.909 25.2539C152.859 25.2388 152.813 25.2237 152.763 25.2136C152.758 24.7652 152.667 24.3319 152.501 23.9389L149.765 25.8938C150.728 25.8384 151.695 25.9442 152.627 26.2213C152.894 26.2968 153.176 26.1457 153.252 25.8787ZM151.141 29.8416C151.178 29.8499 151.216 29.8539 151.252 29.8539C151.483 29.8539 151.69 29.695 151.743 29.4602L152.247 27.2147C152.302 26.9686 152.167 26.7202 151.931 26.6321C150.843 26.2277 149.645 26.2277 148.557 26.6321C148.321 26.7202 148.186 26.9686 148.241 27.2147L148.745 29.4602C148.806 29.7323 149.076 29.9035 149.346 29.8415C149.618 29.7805 149.789 29.5114 149.728 29.2398L149.326 27.4469C149.932 27.2953 150.556 27.2953 151.162 27.4469L150.76 29.2398C150.699 29.5114 150.87 29.7806 151.141 29.8416ZM146.309 27.1231C146.405 27.2591 146.561 27.3347 146.717 27.3347C146.818 27.3347 146.924 27.3045 147.009 27.239L154.063 22.2007C154.29 22.0395 154.34 21.7271 154.179 21.5004C154.018 21.2737 153.705 21.2233 153.478 21.3845L151.574 22.7448C151.539 22.7181 151.502 22.6972 151.466 22.6731C151.646 22.4243 151.755 22.1215 151.755 21.7926C151.755 20.9613 151.075 20.2811 150.244 20.2811C149.413 20.2811 148.732 20.9613 148.732 21.7926C148.732 22.123 148.843 22.427 149.025 22.6764C148.348 23.1204 147.858 23.9143 147.75 24.8559C147.735 24.9718 147.725 25.0927 147.725 25.2136C147.674 25.2237 147.629 25.2388 147.579 25.2539C147.322 25.3244 147.166 25.5915 147.231 25.8484L146.425 26.4228C146.198 26.584 146.148 26.8964 146.309 27.1231Z" fill="#D6D6D6"/>
<rect x="161.637" y="36.1198" width="16.1163" height="16.1163" rx="1.34302" fill="#63DAFF" fill-opacity="0.22"/>
<path d="M172.703 44.4031C172.784 44.136 172.627 43.8539 172.36 43.7783C172.31 43.7632 172.265 43.7481 172.214 43.738C172.209 43.2896 172.119 42.8563 171.952 42.4633L169.216 44.4182C170.179 44.3628 171.146 44.4686 172.078 44.7457C172.345 44.8212 172.627 44.6701 172.703 44.4031ZM170.593 48.366C170.629 48.3743 170.667 48.3783 170.703 48.3783C170.934 48.3783 171.142 48.2194 171.194 47.9846L171.698 45.7391C171.753 45.4931 171.618 45.2446 171.382 45.1565C170.294 44.7521 169.096 44.7521 168.008 45.1565C167.772 45.2446 167.637 45.4931 167.692 45.7391L168.196 47.9846C168.257 48.2567 168.527 48.428 168.798 48.3659C169.069 48.3049 169.24 48.0358 169.179 47.7642L168.777 45.9713C169.383 45.8197 170.007 45.8197 170.613 45.9713L170.211 47.7642C170.15 48.0358 170.321 48.305 170.593 48.366ZM165.76 45.6475C165.856 45.7836 166.012 45.8591 166.168 45.8591C166.269 45.8591 166.375 45.8289 166.461 45.7634L173.514 40.7251C173.741 40.5639 173.791 40.2515 173.63 40.0248C173.469 39.7981 173.156 39.7477 172.93 39.9089L171.025 41.2693C170.99 41.2425 170.953 41.2216 170.917 41.1975C171.097 40.9487 171.207 40.6459 171.207 40.317C171.207 39.4857 170.526 38.8055 169.695 38.8055C168.864 38.8055 168.184 39.4857 168.184 40.317C168.184 40.6474 168.294 40.9514 168.476 41.2008C167.799 41.6448 167.309 42.4387 167.201 43.3803C167.186 43.4962 167.176 43.6171 167.176 43.738C167.126 43.7481 167.08 43.7632 167.03 43.7783C166.773 43.8489 166.617 44.1159 166.682 44.3728L165.876 44.9472C165.649 45.1084 165.599 45.4208 165.76 45.6475Z" fill="#63DAFF"/>
</g>
<defs>
<filter id="filter0_d_79_673" x="0.468435" y="0.917776" width="194.518" height="78.2534" filterUnits="userSpaceOnUse" color-interpolation-filters="sRGB">
<feFlood flood-opacity="0" result="BackgroundImageFix"/>
<feColorMatrix in="SourceAlpha" type="matrix" values="0 0 0 0 0 0 0 0 0 0 0 0 0 0 0 0 0 0 127 0" result="hardAlpha"/>
<feOffset/>
<feGaussianBlur stdDeviation="8.33878"/>
<feComposite in2="hardAlpha" operator="out"/>
<feColorMatrix type="matrix" values="0 0 0 0 0 0 0 0 0 0 0 0 0 0 0 0 0 0 0.65 0"/>
<feBlend mode="normal" in2="BackgroundImageFix" result="effect1_dropShadow_79_673"/>
<feBlend mode="normal" in="SourceGraphic" in2="effect1_dropShadow_79_673" result="shape"/>
</filter>
</defs>
</svg>
