<svg width="106" height="106" viewBox="0 0 106 106" fill="none" xmlns="http://www.w3.org/2000/svg">
<circle cx="52.997" cy="52.998" r="52.3886" fill="url(#paint0_linear_376_1150)" fill-opacity="0.87"/>
<circle cx="52.997" cy="52.998" r="52.1823" stroke="white" stroke-opacity="0.1" stroke-width="0.412509"/>
<g filter="url(#filter0_d_376_1150)">
<path d="M77.5965 92.9988L77.1795 92.5823C77.1472 92.5499 77.1033 92.5318 77.0575 92.5318C77.0117 92.5318 76.9678 92.5499 76.9355 92.5823C76.9031 92.6147 76.8849 92.6586 76.8849 92.7043C76.8849 92.7501 76.9031 92.794 76.9355 92.8264L77.352 93.2433C77.3842 93.2756 77.4023 93.3192 77.4025 93.3647V95.1191C77.4025 95.1648 77.3843 95.2087 77.352 95.241C77.3196 95.2734 77.2757 95.2915 77.23 95.2915C77.1842 95.2915 77.1404 95.2734 77.108 95.241C77.0757 95.2087 77.0575 95.1648 77.0575 95.1191V94.2567C77.0575 94.1194 77.003 93.9878 76.906 93.8908C76.8089 93.7937 76.6773 93.7392 76.5401 93.7392H76.1951V92.7043C76.1951 92.5671 76.1406 92.4355 76.0435 92.3384C75.9465 92.2414 75.8149 92.1869 75.6777 92.1869H73.9529C73.8156 92.1869 73.684 92.2414 73.587 92.3384C73.4899 92.4355 73.4354 92.5671 73.4354 92.7043V95.9815H73.0904C73.0447 95.9815 73.0008 95.9996 72.9685 96.032C72.9361 96.0643 72.918 96.1082 72.918 96.1539C72.918 96.1997 72.9361 96.2436 72.9685 96.2759C73.0008 96.3083 73.0447 96.3264 73.0904 96.3264H76.5401C76.5858 96.3264 76.6297 96.3083 76.662 96.2759C76.6944 96.2436 76.7125 96.1997 76.7125 96.1539C76.7125 96.1082 76.6944 96.0643 76.662 96.032C76.6297 95.9996 76.5858 95.9815 76.5401 95.9815H76.1951V94.0842H76.5401C76.5858 94.0842 76.6297 94.1024 76.662 94.1347C76.6944 94.167 76.7125 94.2109 76.7125 94.2567V95.1191C76.7125 95.2563 76.7671 95.3879 76.8641 95.485C76.9611 95.582 77.0928 95.6365 77.23 95.6365C77.3672 95.6365 77.4988 95.582 77.5959 95.485C77.6929 95.3879 77.7474 95.2563 77.7474 95.1191V93.3647C77.7477 93.2968 77.7345 93.2295 77.7086 93.1667C77.6827 93.1039 77.6446 93.0468 77.5965 92.9988ZM75.3204 94.3213L74.9754 95.1837C74.9583 95.2262 74.925 95.2602 74.8828 95.2781C74.8406 95.296 74.7931 95.2964 74.7506 95.2793C74.7081 95.2621 74.6742 95.2288 74.6562 95.1866C74.6383 95.1444 74.6379 95.0969 74.6551 95.0544L74.9054 94.4291H74.4703C74.442 94.4292 74.4142 94.4223 74.3892 94.409C74.3642 94.3958 74.3429 94.3766 74.3271 94.3532C74.3112 94.3298 74.3014 94.3028 74.2985 94.2747C74.2955 94.2466 74.2995 94.2182 74.3101 94.192L74.6551 93.3296C74.6636 93.3085 74.6761 93.2894 74.692 93.2732C74.7079 93.257 74.7268 93.2441 74.7477 93.2352C74.7686 93.2264 74.791 93.2217 74.8137 93.2215C74.8364 93.2213 74.8589 93.2256 74.8799 93.2341C74.901 93.2426 74.9201 93.2551 74.9363 93.271C74.9525 93.2869 74.9654 93.3058 74.9743 93.3267C74.9831 93.3476 74.9878 93.37 74.988 93.3927C74.9882 93.4154 74.9839 93.4379 74.9754 93.4589L74.7251 94.0842H75.1602C75.1885 94.0841 75.2163 94.091 75.2413 94.1043C75.2663 94.1175 75.2876 94.1367 75.3034 94.1601C75.3193 94.1835 75.3291 94.2105 75.3321 94.2386C75.335 94.2667 75.331 94.2951 75.3204 94.3213Z" fill="white"/>
</g>
<path d="M33.0775 94.9906V95.5081C33.0775 95.5996 33.0412 95.6873 32.9765 95.752C32.9118 95.8167 32.824 95.853 32.7326 95.853H30.4025C30.3866 95.853 30.371 95.8487 30.3575 95.8404C30.3439 95.8321 30.3329 95.8202 30.3257 95.806C30.3184 95.7918 30.3153 95.7759 30.3165 95.7601C30.3177 95.7442 30.3233 95.729 30.3327 95.7161L31.6604 93.8911C31.6879 93.8545 31.7002 93.8087 31.6947 93.7633C31.6892 93.7179 31.6663 93.6764 31.6308 93.6474C31.6126 93.6333 31.5917 93.6229 31.5694 93.617C31.5471 93.6111 31.5238 93.6097 31.5009 93.6129C31.4781 93.6162 31.4561 93.624 31.4363 93.6359C31.4165 93.6477 31.3993 93.6635 31.3857 93.6821L29.8334 95.8179C29.8252 95.829 29.8146 95.8379 29.8023 95.844C29.79 95.8501 29.7764 95.8532 29.7626 95.853H28.593C28.5015 95.853 28.4138 95.8167 28.3491 95.752C28.2844 95.6873 28.248 95.5996 28.248 95.5081V95.015C28.248 94.9764 28.248 94.938 28.2508 94.9001C28.252 94.878 28.2615 94.8571 28.2776 94.8419C28.2936 94.8266 28.3149 94.8181 28.3371 94.8182H28.938C28.9616 94.8182 28.985 94.8134 29.0067 94.804C29.0284 94.7946 29.048 94.7809 29.0642 94.7637C29.0803 94.7464 29.0928 94.726 29.1008 94.7038C29.1087 94.6815 29.112 94.6578 29.1105 94.6342C29.1066 94.5898 29.0861 94.5485 29.053 94.5186C29.0199 94.4887 28.9767 94.4725 28.9321 94.4732H28.4188C28.4056 94.4732 28.3927 94.4702 28.3809 94.4644C28.369 94.4586 28.3587 94.4501 28.3507 94.4397C28.3426 94.4293 28.3371 94.4172 28.3344 94.4043C28.3317 94.3914 28.3321 94.3781 28.3354 94.3654C28.5941 93.4202 29.406 92.7025 30.3948 92.5914C30.4069 92.5901 30.4191 92.5914 30.4306 92.5951C30.4422 92.5989 30.4528 92.605 30.4619 92.6132C30.4709 92.6213 30.4781 92.6313 30.483 92.6424C30.4879 92.6535 30.4904 92.6655 30.4903 92.6777V93.2658C30.4902 93.2895 30.4951 93.3129 30.5044 93.3346C30.5138 93.3563 30.5275 93.3758 30.5448 93.392C30.562 93.4082 30.5824 93.4206 30.6047 93.4286C30.627 93.4366 30.6506 93.4399 30.6742 93.4383C30.7186 93.4345 30.76 93.414 30.7899 93.3809C30.8197 93.3478 30.836 93.3046 30.8353 93.26V92.6766C30.8352 92.6644 30.8377 92.6524 30.8426 92.6413C30.8475 92.6302 30.8547 92.6202 30.8637 92.6121C30.8727 92.6039 30.8834 92.5978 30.8949 92.594C30.9065 92.5903 30.9187 92.589 30.9308 92.5903C31.4135 92.6446 31.8687 92.8429 32.2371 93.1595C32.6055 93.4761 32.87 93.8963 32.9962 94.3654C32.9995 94.3781 32.9999 94.3915 32.9972 94.4044C32.9945 94.4173 32.9889 94.4294 32.9809 94.4398C32.9728 94.4502 32.9624 94.4586 32.9506 94.4644C32.9388 94.4702 32.9258 94.4732 32.9126 94.4732H32.3934C32.3489 94.4726 32.3058 94.4889 32.2728 94.5187C32.2398 94.5486 32.2193 94.5899 32.2155 94.6342C32.214 94.6578 32.2173 94.6815 32.2252 94.7038C32.2332 94.726 32.2457 94.7464 32.2618 94.7637C32.278 94.7809 32.2976 94.7946 32.3193 94.804C32.341 94.8134 32.3644 94.8182 32.388 94.8182H32.99C33.0123 94.8181 33.0338 94.8268 33.0499 94.8423C33.066 94.8579 33.0754 94.879 33.0762 94.9014C33.0775 94.9309 33.0775 94.9607 33.0775 94.9906Z" fill="white"/>
<path d="M48.5272 99.1238V96.8233C48.5272 96.6155 48.5749 96.4301 48.6704 96.2672C48.7716 96.1043 48.9036 95.9751 49.0665 95.8796C49.235 95.7785 49.4204 95.7279 49.6226 95.7279H53.4735C53.5297 95.7279 53.5775 95.7082 53.6168 95.6689C53.6617 95.624 53.6842 95.5734 53.6842 95.5172V94.1774C53.6842 94.1212 53.6617 94.0735 53.6168 94.0342C53.5775 93.9892 53.5297 93.9668 53.4735 93.9668H49.6479C49.5917 93.9668 49.5412 93.9892 49.4962 94.0342C49.4569 94.0735 49.4372 94.1212 49.4372 94.1774V94.5061H48.5272V94.1521C48.5272 93.9443 48.5749 93.7589 48.6704 93.596C48.7716 93.4331 48.9036 93.3011 49.0665 93.1999C49.235 93.0988 49.4204 93.0483 49.6226 93.0483H53.4988C53.6954 93.0483 53.8752 93.0988 54.0381 93.1999C54.2067 93.3011 54.3415 93.4331 54.4426 93.596C54.5437 93.7589 54.5943 93.9443 54.5943 94.1521V95.5425C54.5943 95.7447 54.5437 95.9301 54.4426 96.0987C54.3415 96.2616 54.2067 96.3936 54.0381 96.4947C53.8752 96.5902 53.6954 96.638 53.4988 96.638H49.6479C49.5917 96.638 49.5412 96.6604 49.4962 96.7054C49.4569 96.7447 49.4372 96.7924 49.4372 96.8486V98.0031C49.4372 98.0592 49.4569 98.1098 49.4962 98.1547C49.5412 98.1941 49.5917 98.2137 49.6479 98.2137H54.5943V99.1238H48.5272Z" fill="white"/>
<path d="M61.3339 97.332C61.2117 97.332 61.1026 97.3023 61.0068 97.2428C60.9109 97.1833 60.8333 97.1057 60.7738 97.0098C60.7143 96.914 60.6846 96.8066 60.6846 96.6877V96.5389H61.2249V96.6728C61.2249 96.7058 61.2364 96.7356 61.2596 96.762C61.2827 96.7851 61.3108 96.7967 61.3438 96.7967H63.5992C63.6322 96.7967 63.6603 96.7851 63.6834 96.762C63.7066 96.7356 63.7181 96.7058 63.7181 96.6728V95.9094C63.7181 95.8764 63.7066 95.8483 63.6834 95.8252C63.6603 95.7987 63.6322 95.7855 63.5992 95.7855H61.3339V95.2502H63.4455C63.4819 95.2502 63.5116 95.2386 63.5347 95.2155C63.5579 95.1891 63.5694 95.1593 63.5694 95.1263V94.4224C63.5694 94.3894 63.5579 94.3613 63.5347 94.3381C63.5116 94.3117 63.4819 94.2985 63.4455 94.2985H61.3438C61.3108 94.2985 61.2827 94.3117 61.2596 94.3381C61.2364 94.3613 61.2249 94.3894 61.2249 94.4224V94.6058H60.6846V94.4075C60.6846 94.2853 60.7127 94.1762 60.7688 94.0804C60.8283 93.9846 60.9076 93.9069 61.0068 93.8474C61.1059 93.7879 61.215 93.7582 61.3339 93.7582H63.4604C63.5826 93.7582 63.6917 93.7879 63.7875 93.8474C63.8867 93.9069 63.9643 93.9846 64.0205 94.0804C64.0767 94.1762 64.1048 94.2853 64.1048 94.4075V95.1411C64.1048 95.1841 64.0998 95.2271 64.0899 95.27C64.0833 95.313 64.0717 95.3526 64.0552 95.389C64.1279 95.4617 64.1791 95.5426 64.2088 95.6319C64.2386 95.7211 64.2535 95.8087 64.2535 95.8946V96.6877C64.2535 96.8066 64.2237 96.914 64.1642 97.0098C64.1081 97.1057 64.0304 97.1833 63.9313 97.2428C63.8354 97.3023 63.7297 97.332 63.614 97.332H61.3339Z" fill="#A9A9A9"/>
<path d="M42.1544 97.332V94.472L41.743 94.9677H41.0391L42.0503 93.7632H42.6897V97.332H42.1544Z" fill="#A9A9A9"/>
<path d="M26.0425 48.8849C25.4215 48.8849 24.8509 48.7255 24.3307 48.4066C23.8272 48.071 23.4245 47.6346 23.1224 47.0976C22.8203 46.5606 22.6693 45.99 22.6693 45.3858V34.1837C22.6693 33.5627 22.8203 32.9921 23.1224 32.4719C23.4245 31.9516 23.8272 31.5405 24.3307 31.2384C24.8509 30.9195 25.4215 30.7601 26.0425 30.7601H37.3201C37.9411 30.7601 38.5033 30.9195 39.0067 31.2384C39.527 31.5405 39.9382 31.9516 40.2402 32.4719C40.5423 32.9921 40.6934 33.5627 40.6934 34.1837V45.3858C40.6934 45.99 40.5423 46.5606 40.2402 47.0976C39.9382 47.6346 39.527 48.071 39.0067 48.4066C38.5033 48.7255 37.9411 48.8849 37.3201 48.8849H26.0425ZM26.8732 45.7382H37.2446C37.3621 45.7382 37.4628 45.6963 37.5467 45.6124C37.6474 45.5117 37.6977 45.4026 37.6977 45.2851V36.7513L26.8732 45.7382ZM25.6649 42.8181L36.4894 33.8312H26.1432C26.0089 33.8312 25.8914 33.8816 25.7907 33.9823C25.7068 34.0662 25.6649 34.1669 25.6649 34.2844V42.8181Z" fill="white" fill-opacity="0.3"/>
<path d="M46.9359 48.8849C46.4157 48.8849 45.9206 48.7506 45.4507 48.4821C44.9976 48.2136 44.6032 47.8612 44.2676 47.4248C43.9487 46.9717 43.7221 46.4599 43.5879 45.8893H58.1381C58.2555 45.8893 58.3562 45.8473 58.4401 45.7634C58.5408 45.6627 58.5912 45.5452 58.5912 45.411V41.9874C58.5912 41.8699 58.5408 41.7692 58.4401 41.6853C58.3562 41.5846 58.2555 41.5343 58.1381 41.5343H46.9359C46.315 41.5343 45.7444 41.3832 45.2242 41.0812C44.7207 40.7623 44.3179 40.3511 44.0158 39.8477C43.7138 39.3274 43.5627 38.7568 43.5627 38.1359V34.1333C43.5627 33.4956 43.7138 32.925 44.0158 32.4215C44.3179 31.9181 44.7207 31.5153 45.2242 31.2132C45.7444 30.9111 46.315 30.7601 46.9359 30.7601H58.2388C58.8429 30.7601 59.3967 30.9111 59.9002 31.2132C60.4204 31.5153 60.8316 31.9181 61.1337 32.4215C61.4526 32.925 61.612 33.4956 61.612 34.1333V45.5117C61.612 46.1326 61.4526 46.6948 61.1337 47.1983C60.8316 47.7017 60.4204 48.1129 59.9002 48.4318C59.3967 48.7338 58.8429 48.8849 58.2388 48.8849H46.9359ZM47.0366 38.5135H58.5912V34.234C58.5912 34.0998 58.5408 33.9907 58.4401 33.9068C58.3562 33.8061 58.2555 33.7557 58.1381 33.7557H47.0366C46.9192 33.7557 46.8101 33.8061 46.7094 33.9068C46.6255 33.9907 46.5835 34.0998 46.5835 34.234V38.0352C46.5835 38.1694 46.6255 38.2869 46.7094 38.3876C46.8101 38.4715 46.9192 38.5135 47.0366 38.5135ZM64.5101 48.8849V41.9622C64.5101 41.3413 64.6611 40.7791 64.9632 40.2756C65.2653 39.7554 65.668 39.3526 66.1715 39.0673C66.6917 38.7652 67.2623 38.6142 67.8833 38.6142H79.0854C79.2029 38.6142 79.3036 38.5722 79.3875 38.4883C79.4882 38.3876 79.5385 38.2701 79.5385 38.1359V34.234C79.5385 34.0998 79.4882 33.9907 79.3875 33.9068C79.3036 33.8061 79.2029 33.7557 79.0854 33.7557H67.984C67.8497 33.7557 67.7322 33.8061 67.6316 33.9068C67.5476 33.9907 67.5057 34.0998 67.5057 34.234V35.3416H64.5101V34.1333C64.5101 33.4956 64.6611 32.925 64.9632 32.4215C65.2653 31.9181 65.668 31.5153 66.1715 31.2132C66.6917 30.9111 67.2623 30.7601 67.8833 30.7601H79.1609C79.7819 30.7601 80.3441 30.9111 80.8475 31.2132C81.3678 31.5153 81.779 31.9181 82.081 32.4215C82.3831 32.925 82.5342 33.4956 82.5342 34.1333V38.2366C82.5342 38.8575 82.3831 39.4281 82.081 39.9484C81.779 40.4518 81.3678 40.863 80.8475 41.1819C80.3441 41.4839 79.7819 41.635 79.1609 41.635H67.984C67.8497 41.635 67.7322 41.6769 67.6316 41.7608C67.5476 41.8447 67.5057 41.9538 67.5057 42.0881V45.411C67.5057 45.5452 67.5476 45.6627 67.6316 45.7634C67.7322 45.8473 67.8497 45.8893 67.984 45.8893H82.5342V48.8849H64.5101Z" fill="#E2E2E2"/>
<path d="M41.9558 61.173V54.749H42.9283V57.4792H44.7039L46.9879 54.749H48.1032V54.9274L45.5604 57.961L48.1121 60.9945V61.173H46.9879L44.7039 58.4428H42.9283V61.173H41.9558ZM49.0568 61.173V54.749H50.2077L52.697 57.7112L55.1774 54.749H56.3373V61.173H55.3648V56.0427L52.697 59.219L50.0204 56.0427V61.173H49.0568ZM57.3431 61.173V54.749H58.3067V57.4792H62.9463V54.749H63.9188V61.173H62.9463V58.4428H58.3067V61.173H57.3431Z" fill="white" fill-opacity="0.53"/>
<path d="M40.1016 78.6285C40.1618 78.4291 40.0451 78.2184 39.8457 78.162C39.8081 78.1507 39.7742 78.1394 39.7366 78.1319C39.7329 77.797 39.6651 77.4734 39.541 77.18L37.498 78.6398C38.2166 78.5984 38.939 78.6774 39.635 78.8843C39.8344 78.9408 40.0451 78.8279 40.1016 78.6285ZM38.5256 81.5878C38.5532 81.5941 38.5811 81.597 38.6083 81.597C38.7806 81.597 38.9356 81.4783 38.975 81.3031L39.3512 79.6262C39.3924 79.4424 39.2917 79.2569 39.1153 79.1911C38.3026 78.8891 37.4083 78.8891 36.5955 79.1911C36.4191 79.2569 36.3185 79.4424 36.3596 79.6262L36.7359 81.3031C36.7814 81.5062 36.9835 81.6341 37.1852 81.5878C37.388 81.5422 37.5155 81.3412 37.4699 81.1385L37.1697 79.7996C37.6224 79.6864 38.0883 79.6864 38.5409 79.7996L38.2407 81.1385C38.1953 81.3413 38.3228 81.5423 38.5256 81.5878ZM34.917 79.5578C34.9885 79.6594 35.1051 79.7158 35.2218 79.7158C35.297 79.7158 35.376 79.6932 35.44 79.6443L40.7073 75.882C40.8766 75.7616 40.9142 75.5283 40.7939 75.359C40.6735 75.1897 40.4402 75.1521 40.2709 75.2724L38.8487 76.2883C38.8227 76.2683 38.7948 76.2527 38.768 76.2347C38.9025 76.0489 38.9841 75.8228 38.9841 75.5772C38.9841 74.9564 38.4762 74.4485 37.8554 74.4485C37.2346 74.4485 36.7267 74.9564 36.7267 75.5772C36.7267 75.8239 36.8093 76.0509 36.945 76.2372C36.4396 76.5687 36.0739 77.1616 35.993 77.8647C35.9818 77.9513 35.9742 78.0416 35.9742 78.1319C35.9366 78.1394 35.9028 78.1507 35.8651 78.162C35.6732 78.2146 35.5566 78.414 35.6055 78.6059L35.0035 79.0348C34.8342 79.1552 34.7966 79.3885 34.917 79.5578Z" fill="white"/>
<path fill-rule="evenodd" clip-rule="evenodd" d="M57.0132 79.3164V77.3085C57.0132 77.2419 56.9867 77.1781 56.9396 77.131C56.8926 77.0839 56.8287 77.0575 56.7622 77.0575C56.6956 77.0575 56.6318 77.0839 56.5847 77.131C56.5376 77.1781 56.5112 77.2419 56.5112 77.3085V78.0615H56.0092V77.5595C56.0092 77.4264 55.9563 77.2987 55.8622 77.2045C55.768 77.1104 55.6403 77.0575 55.5072 77.0575H55.1091L54.2329 76.1813L51.3944 80.7807L51.403 80.7844C51.4639 80.8097 51.5293 80.8226 51.5952 80.8224H53.6464C53.7124 80.8226 53.7777 80.8097 53.8386 80.7844C53.8995 80.7592 53.9548 80.722 54.0013 80.6752L55.1091 79.5674H55.5072C55.6403 79.5674 55.768 79.5145 55.8622 79.4204C55.9563 79.3262 56.0092 79.1986 56.0092 79.0654V78.5634H56.5112V79.3164C56.5112 79.383 56.5376 79.4468 56.5847 79.4939C56.6318 79.541 56.6956 79.5674 56.7622 79.5674C56.8287 79.5674 56.8926 79.541 56.9396 79.4939C56.9867 79.4468 57.0132 79.383 57.0132 79.3164ZM50.9136 80.3485L53.7161 75.8072C53.6931 75.804 53.6698 75.8025 53.6464 75.8025H52.9973V75.3006H53.7503C53.8168 75.3006 53.8807 75.2741 53.9278 75.2271C53.9748 75.18 54.0013 75.1161 54.0013 75.0496C54.0013 74.983 53.9748 74.9192 53.9278 74.8721C53.8807 74.825 53.8168 74.7986 53.7503 74.7986H51.7423C51.6758 74.7986 51.6119 74.825 51.5649 74.8721C51.5178 74.9192 51.4914 74.983 51.4914 75.0496C51.4914 75.1161 51.5178 75.18 51.5649 75.2271C51.6119 75.2741 51.6758 75.3006 51.7423 75.3006H52.4953V75.8025H50.4874C50.3543 75.8025 50.2266 75.8554 50.1324 75.9496C50.0383 76.0437 49.9854 76.1714 49.9854 76.3045V78.0615H49.4834V77.3085C49.4834 77.2419 49.457 77.1781 49.4099 77.131C49.3628 77.0839 49.299 77.0575 49.2324 77.0575C49.1659 77.0575 49.102 77.0839 49.055 77.131C49.0079 77.1781 48.9814 77.2419 48.9814 77.3085V79.3164C48.9814 79.383 49.0079 79.4468 49.055 79.4939C49.102 79.541 49.1659 79.5674 49.2324 79.5674C49.299 79.5674 49.3628 79.541 49.4099 79.4939C49.457 79.4468 49.4834 79.383 49.4834 79.3164V78.5634H49.9854V79.2126C49.9852 79.2785 49.9981 79.3438 50.0234 79.4048C50.0486 79.4657 50.0857 79.521 50.1326 79.5674L50.9136 80.3485Z" fill="#898989"/>
<path d="M64.6781 80.7819C64.6935 80.8783 64.7765 80.9491 64.8741 80.9491H69.9457C70.2137 80.9491 70.4757 80.8459 70.6573 80.6484C70.7014 80.6006 70.742 80.5477 70.7808 80.4927H64.632L64.6781 80.7819ZM64.5676 79.8349H70.9152C70.97 79.8349 71.0209 79.8497 71.0664 79.8735C71.2069 79.3559 71.1758 78.7412 70.9004 78.2011C70.8339 78.0711 70.7337 77.961 70.6166 77.8746L68.1812 76.0803C67.5411 75.6099 66.768 75.3549 65.9731 75.3549H64.0452C63.9231 75.3549 63.83 75.464 63.8492 75.5846L64.5277 79.839C64.5409 79.8373 64.5539 79.8349 64.5676 79.8349ZM66.0118 78.694C66.0118 78.7304 65.9823 78.76 65.9459 78.76H64.981C64.9446 78.76 64.9151 78.7304 64.9151 78.694V78.5395C64.9151 78.5031 64.9446 78.4735 64.981 78.4735H65.9459C65.9823 78.4735 66.0118 78.5031 66.0118 78.5395L66.0118 78.694ZM65.9731 75.8511C66.6658 75.8511 67.3277 76.0684 67.8875 76.4803L69.4555 77.6355H64.6789L64.3941 75.8511H65.9731ZM70.9152 79.9903H64.5676C64.4718 79.9903 64.3941 80.068 64.3941 80.1638C64.3941 80.2596 64.4718 80.3373 64.5676 80.3373H70.9153C71.0111 80.3373 71.0887 80.2596 71.0887 80.1638C71.0887 80.068 71.0111 79.9903 70.9152 79.9903Z" fill="#898989"/>
<path d="M79.1914 98.3678C89.0329 92.6859 96.7599 83.958 101.207 73.5004C105.655 63.0429 106.581 51.4229 103.847 40.3928C101.112 29.3628 94.8658 19.5208 86.0489 12.3514C77.2321 5.18194 66.323 1.07376 54.9672 0.646429L54.924 1.79449C66.0308 2.21245 76.7006 6.23054 85.3241 13.2428C93.9476 20.255 100.057 29.8811 102.732 40.6692C105.406 51.4574 104.5 62.8226 100.15 73.0508C95.8002 83.279 88.2426 91.8155 78.617 97.3729L79.1914 98.3678Z" fill="white" fill-opacity="0.2"/>
<path d="M78.9852 98.0106C79.0991 98.2079 79.3516 98.2756 79.548 98.1601C86.5919 94.019 92.5713 88.2865 97.0062 81.4192C101.516 74.4363 104.299 66.4806 105.126 58.2094C105.953 49.9382 104.8 41.589 101.762 33.8515C98.774 26.2422 94.0478 19.4394 87.9631 13.9858C87.7934 13.8337 87.5325 13.8501 87.3818 14.021L87.1676 14.2638C87.0169 14.4347 87.0334 14.6953 87.203 14.8474C93.151 20.1804 97.7712 26.8317 100.692 34.2714C103.664 41.8391 104.791 50.0053 103.983 58.0951C103.174 66.1849 100.452 73.9662 96.0411 80.7959C91.7051 87.5101 85.8596 93.1152 78.9735 97.1651C78.7771 97.2806 78.7094 97.5328 78.8233 97.7301L78.9852 98.0106Z" fill="white"/>
<path d="M26.8027 98.3678C16.9613 92.6859 9.2342 83.958 4.7869 73.5004C0.33959 63.0429 -0.586794 51.4229 2.14746 40.3928C4.88172 29.3628 11.1283 19.5208 19.9452 12.3514C28.7621 5.18194 39.6711 1.07376 51.027 0.646429L51.0702 1.79449C39.9633 2.21245 29.2936 6.23054 20.67 13.2428C12.0465 20.255 5.93687 29.8811 3.26258 40.6692C0.588289 51.4574 1.49436 62.8226 5.84414 73.0508C10.1939 83.279 17.7515 91.8155 27.3771 97.3729L26.8027 98.3678Z" fill="white" fill-opacity="0.2"/>
<path d="M27.0089 98.0106C26.895 98.2079 26.6426 98.2756 26.4462 98.1601C19.4022 94.019 13.4228 88.2865 8.98791 81.4192C4.47835 74.4363 1.69514 66.4806 0.86825 58.2094C0.0413591 49.9382 1.19452 41.589 4.23246 33.8515C7.22013 26.2422 11.9463 19.4394 18.0311 13.9858C18.2007 13.8337 18.4616 13.8501 18.6123 14.021L18.8266 14.2638C18.9773 14.4347 18.9608 14.6953 18.7911 14.8474C12.8431 20.1804 8.2229 26.8317 5.30186 34.2714C2.33054 41.8391 1.20267 50.0053 2.01142 58.0951C2.82018 66.1849 5.54236 73.9662 9.95302 80.7959C14.2891 87.5101 20.1346 93.1152 27.0206 97.1651C27.217 97.2806 27.2848 97.5328 27.1709 97.7301L27.0089 98.0106Z" fill="white"/>
<defs>
<filter id="filter0_d_376_1150" x="69.5978" y="88.8667" width="11.4695" height="10.7799" filterUnits="userSpaceOnUse" color-interpolation-filters="sRGB">
<feFlood flood-opacity="0" result="BackgroundImageFix"/>
<feColorMatrix in="SourceAlpha" type="matrix" values="0 0 0 0 0 0 0 0 0 0 0 0 0 0 0 0 0 0 127 0" result="hardAlpha"/>
<feOffset/>
<feGaussianBlur stdDeviation="1.66009"/>
<feComposite in2="hardAlpha" operator="out"/>
<feColorMatrix type="matrix" values="0 0 0 0 0 0 0 0 0 0 0 0 0 0 0 0 0 0 1 0"/>
<feBlend mode="normal" in2="BackgroundImageFix" result="effect1_dropShadow_376_1150"/>
<feBlend mode="normal" in="SourceGraphic" in2="effect1_dropShadow_376_1150" result="shape"/>
</filter>
<linearGradient id="paint0_linear_376_1150" x1="52.997" y1="0.609375" x2="52.997" y2="105.387" gradientUnits="userSpaceOnUse">
<stop stop-color="#181818"/>
<stop offset="0.465" stop-color="#222222"/>
<stop offset="1" stop-color="#050505"/>
</linearGradient>
</defs>
</svg>
