<svg width="198" height="40" viewBox="0 0 198 40" fill="none" xmlns="http://www.w3.org/2000/svg">
<rect width="6.63679" height="39.8208" rx="1.6592" fill="#3F3F3F"/>
<rect x="8.29688" width="6.63679" height="39.8208" rx="1.6592" fill="#3F3F3F"/>
<rect x="16.5935" width="6.63679" height="39.8208" rx="1.6592" fill="#3F3F3F"/>
<rect x="24.8904" width="6.63679" height="39.8208" rx="1.6592" fill="#3F3F3F"/>
<rect x="33.1873" width="6.63679" height="39.8208" rx="1.6592" fill="#3F3F3F"/>
<rect x="41.4839" width="6.63679" height="39.8208" rx="1.6592" fill="#3F3F3F"/>
<rect x="49.7808" width="6.63679" height="39.8208" rx="1.6592" fill="#3F3F3F"/>
<rect x="58.0776" width="6.63679" height="39.8208" rx="1.6592" fill="#3F3F3F"/>
<rect x="66.3743" width="6.63679" height="39.8208" rx="1.6592" fill="#3F3F3F"/>
<rect x="74.6711" width="6.63679" height="39.8208" rx="1.6592" fill="#3F3F3F"/>
<rect x="82.968" width="6.63679" height="39.8208" rx="1.6592" fill="#3F3F3F"/>
<rect x="91.2646" width="6.63679" height="39.8208" rx="1.6592" fill="#3F3F3F"/>
<rect x="99.5615" width="6.63679" height="39.8208" rx="1.6592" fill="#3F3F3F"/>
<rect x="107.858" width="6.63679" height="39.8208" rx="1.6592" fill="#3F3F3F"/>
<rect x="116.155" width="6.63679" height="39.8208" rx="1.6592" fill="#3F3F3F"/>
<rect x="124.452" width="6.63679" height="39.8208" rx="1.6592" fill="#3F3F3F"/>
<rect x="132.749" width="6.63679" height="39.8208" rx="1.6592" fill="#3F3F3F"/>
<rect x="141.045" width="6.63679" height="39.8208" rx="1.6592" fill="#3F3F3F"/>
<rect x="149.342" width="6.63679" height="39.8208" rx="1.6592" fill="#3F3F3F"/>
<rect x="157.639" width="6.63679" height="39.8208" rx="1.6592" fill="#3F3F3F"/>
<rect x="165.936" width="6.63679" height="39.8208" rx="1.6592" fill="#3F3F3F"/>
<rect x="174.233" width="6.63679" height="39.8208" rx="1.6592" fill="#3F3F3F"/>
<rect x="182.53" width="6.63679" height="39.8208" rx="1.6592" fill="#3F3F3F"/>
<rect x="190.826" width="6.63679" height="39.8208" rx="1.6592" fill="#3F3F3F"/>
</svg>
