<svg width="119" height="119" viewBox="0 0 119 119" fill="none" xmlns="http://www.w3.org/2000/svg">
<circle cx="65.6251" cy="53.3751" r="53.3751" fill="url(#paint0_linear_86_848)"/>
<circle cx="65.6251" cy="53.3751" r="53.007" stroke="url(#paint1_linear_86_848)" stroke-opacity="0.13" stroke-width="0.736209"/>
<g filter="url(#filter0_d_86_848)">
<path d="M51.334 37.4854C51.334 38.8021 52.4014 39.8695 53.7181 39.8695H76.3666C77.6833 39.8695 78.7507 38.8021 78.7507 37.4854V35.4987C78.7507 33.0848 76.7939 31.1279 74.3799 31.1279H55.7048C53.2908 31.1279 51.334 33.0848 51.334 35.4987V37.4854Z" fill="#0E0E0E"/>
<path d="M51.4982 37.4854C51.4982 38.7114 52.4921 39.7053 53.7181 39.7053H76.3666C77.5926 39.7053 78.5865 38.7114 78.5865 37.4854V35.4987C78.5865 33.1755 76.7032 31.2921 74.3799 31.2921H55.7048C53.3815 31.2921 51.4982 33.1755 51.4982 35.4987V37.4854Z" stroke="white" stroke-opacity="0.12" stroke-width="0.328421"/>
</g>
<path d="M63.2009 37.2865V35.9362C63.2009 35.8142 63.2289 35.7054 63.285 35.6098C63.3443 35.5142 63.4218 35.4383 63.5174 35.3823C63.6163 35.3229 63.7252 35.2932 63.8439 35.2932H66.1042C66.1372 35.2932 66.1652 35.2817 66.1883 35.2586C66.2147 35.2322 66.2279 35.2026 66.2279 35.1696V34.3832C66.2279 34.3502 66.2147 34.3222 66.1883 34.2991C66.1652 34.2727 66.1372 34.2595 66.1042 34.2595H63.8587C63.8257 34.2595 63.796 34.2727 63.7697 34.2991C63.7466 34.3222 63.735 34.3502 63.735 34.3832V34.5761H63.2009V34.3683C63.2009 34.2463 63.2289 34.1375 63.285 34.0419C63.3443 33.9463 63.4218 33.8688 63.5174 33.8094C63.6163 33.7501 63.7252 33.7204 63.8439 33.7204H66.119C66.2344 33.7204 66.34 33.7501 66.4356 33.8094C66.5345 33.8688 66.6136 33.9463 66.673 34.0419C66.7324 34.1375 66.762 34.2463 66.762 34.3683V35.1844C66.762 35.3031 66.7324 35.4119 66.673 35.5109C66.6136 35.6065 66.5345 35.684 66.4356 35.7433C66.34 35.7994 66.2344 35.8274 66.119 35.8274H63.8587C63.8257 35.8274 63.796 35.8406 63.7697 35.867C63.7466 35.8901 63.735 35.9181 63.735 35.9511V36.6287C63.735 36.6616 63.7466 36.6913 63.7697 36.7177C63.796 36.7408 63.8257 36.7523 63.8587 36.7523H66.762V37.2865H63.2009Z" fill="white"/>
<path d="M71.9374 37.2865C71.8154 37.2865 71.7066 37.2568 71.611 37.1975C71.5154 37.1381 71.4379 37.0606 71.3785 36.965C71.3192 36.8694 71.2895 36.7622 71.2895 36.6435V36.4951H71.8286V36.6287C71.8286 36.6616 71.8401 36.6913 71.8632 36.7177C71.8863 36.7408 71.9143 36.7523 71.9473 36.7523H74.1978C74.2307 36.7523 74.2588 36.7408 74.2818 36.7177C74.3049 36.6913 74.3165 36.6616 74.3165 36.6287V35.867C74.3165 35.834 74.3049 35.806 74.2818 35.7829C74.2588 35.7565 74.2307 35.7433 74.1978 35.7433H71.9374V35.2092H74.0444C74.0807 35.2092 74.1104 35.1976 74.1335 35.1745C74.1565 35.1482 74.1681 35.1185 74.1681 35.0855V34.3832C74.1681 34.3502 74.1565 34.3222 74.1335 34.2991C74.1104 34.2727 74.0807 34.2595 74.0444 34.2595H71.9473C71.9143 34.2595 71.8863 34.2727 71.8632 34.2991C71.8401 34.3222 71.8286 34.3502 71.8286 34.3832V34.5662H71.2895V34.3683C71.2895 34.2463 71.3175 34.1375 71.3736 34.0419C71.4329 33.9463 71.5121 33.8688 71.611 33.8094C71.7099 33.7501 71.8187 33.7204 71.9374 33.7204H74.0593C74.1813 33.7204 74.2901 33.7501 74.3857 33.8094C74.4846 33.8688 74.5621 33.9463 74.6182 34.0419C74.6742 34.1375 74.7023 34.2463 74.7023 34.3683V35.1003C74.7023 35.1432 74.6973 35.1861 74.6874 35.2289C74.6808 35.2718 74.6693 35.3114 74.6528 35.3476C74.7253 35.4202 74.7765 35.501 74.8061 35.59C74.8358 35.679 74.8506 35.7664 74.8506 35.8521V36.6435C74.8506 36.7622 74.821 36.8694 74.7616 36.965C74.7056 37.0606 74.6281 37.1381 74.5291 37.1975C74.4335 37.2568 74.328 37.2865 74.2126 37.2865H71.9374Z" fill="#4E4E4E"/>
<path d="M56.3131 37.2865V34.4326L55.9026 34.9272H55.2003L56.2093 33.7253H56.8473V37.2865H56.3131Z" fill="#4E4E4E"/>
<g filter="url(#filter1_d_86_848)">
<path d="M55.7585 95.806C55.8025 95.6602 55.7172 95.5062 55.5715 95.4649C55.5439 95.4567 55.5192 95.4484 55.4917 95.4429C55.4889 95.1981 55.4394 94.9616 55.3487 94.747L53.8552 95.8142C54.3805 95.784 54.9086 95.8417 55.4174 95.993C55.5632 96.0342 55.7172 95.9517 55.7585 95.806ZM54.6064 97.9693C54.6265 97.9739 54.647 97.976 54.6668 97.976C54.7928 97.976 54.9062 97.8893 54.9349 97.7611L55.2099 96.5353C55.24 96.401 55.1664 96.2654 55.0375 96.2173C54.4433 95.9965 53.7896 95.9965 53.1954 96.2173C53.0665 96.2653 52.9929 96.401 53.023 96.5353L53.298 97.7611C53.3313 97.9097 53.4791 98.0032 53.6265 97.9693C53.7748 97.936 53.868 97.7891 53.8347 97.6408L53.6152 96.6621C53.9461 96.5793 54.2867 96.5793 54.6176 96.6621L54.3982 97.6408C54.3649 97.7891 54.4581 97.936 54.6064 97.9693ZM51.9684 96.4853C52.0207 96.5596 52.1059 96.6008 52.1912 96.6008C52.2462 96.6008 52.304 96.5843 52.3507 96.5486L56.2013 93.7982C56.3251 93.7101 56.3526 93.5396 56.2646 93.4158C56.1765 93.2921 56.006 93.2646 55.8822 93.3526L54.8426 94.0952C54.8236 94.0806 54.8032 94.0692 54.7836 94.056C54.8819 93.9202 54.9416 93.7549 54.9416 93.5754C54.9416 93.1216 54.5703 92.7502 54.1165 92.7502C53.6627 92.7502 53.2914 93.1216 53.2914 93.5754C53.2914 93.7557 53.3517 93.9217 53.4509 94.0578C53.0815 94.3002 52.8141 94.7336 52.755 95.2476C52.7468 95.3109 52.7413 95.3769 52.7413 95.4429C52.7138 95.4484 52.689 95.4567 52.6615 95.4649C52.5212 95.5034 52.436 95.6492 52.4717 95.7895L52.0317 96.103C51.9079 96.191 51.8804 96.3615 51.9684 96.4853Z" fill="#D694FF"/>
</g>
<path fill-rule="evenodd" clip-rule="evenodd" d="M68.1214 96.3088V94.8409C68.1214 94.7923 68.1021 94.7456 68.0677 94.7112C68.0333 94.6768 67.9866 94.6574 67.9379 94.6574C67.8893 94.6574 67.8426 94.6768 67.8082 94.7112C67.7738 94.7456 67.7545 94.7923 67.7545 94.8409V95.3914H67.3875V95.0244C67.3875 94.9271 67.3488 94.8337 67.28 94.7649C67.2112 94.6961 67.1179 94.6574 67.0205 94.6574H66.7295L66.0889 94.0169L64.0139 97.3792L64.0202 97.3819C64.0648 97.4004 64.1125 97.4098 64.1607 97.4097H65.6602C65.7085 97.4098 65.7562 97.4004 65.8007 97.3819C65.8453 97.3635 65.8857 97.3363 65.9196 97.3021L66.7295 96.4923H67.0205C67.1179 96.4923 67.2112 96.4536 67.28 96.3848C67.3488 96.316 67.3875 96.2226 67.3875 96.1253V95.7583H67.7545V96.3088C67.7545 96.3574 67.7738 96.4041 67.8082 96.4385C67.8426 96.4729 67.8893 96.4923 67.9379 96.4923C67.9866 96.4923 68.0333 96.4729 68.0677 96.4385C68.1021 96.4041 68.1214 96.3574 68.1214 96.3088ZM63.6625 97.0632L65.7112 93.7435C65.6944 93.7411 65.6773 93.74 65.6602 93.74H65.1857V93.3731H65.7362C65.7848 93.3731 65.8315 93.3537 65.8659 93.3193C65.9003 93.2849 65.9196 93.2382 65.9196 93.1896C65.9196 93.1409 65.9003 93.0943 65.8659 93.0598C65.8315 93.0254 65.7848 93.0061 65.7362 93.0061H64.2683C64.2196 93.0061 64.173 93.0254 64.1386 93.0598C64.1042 93.0943 64.0848 93.1409 64.0848 93.1896C64.0848 93.2382 64.1042 93.2849 64.1386 93.3193C64.173 93.3537 64.2196 93.3731 64.2683 93.3731H64.8187V93.74H63.3509C63.2536 93.74 63.1602 93.7787 63.0914 93.8475C63.0226 93.9163 62.9839 94.0097 62.9839 94.107V95.3914H62.617V94.8409C62.617 94.7923 62.5976 94.7456 62.5632 94.7112C62.5288 94.6768 62.4821 94.6574 62.4335 94.6574C62.3848 94.6574 62.3382 94.6768 62.3037 94.7112C62.2693 94.7456 62.25 94.7923 62.25 94.8409V96.3088C62.25 96.3574 62.2693 96.4041 62.3037 96.4385C62.3382 96.4729 62.3848 96.4923 62.4335 96.4923C62.4821 96.4923 62.5288 96.4729 62.5632 96.4385C62.5976 96.4041 62.617 96.3574 62.617 96.3088V95.7583H62.9839V96.2329C62.9838 96.2811 62.9932 96.3288 63.0117 96.3734C63.0301 96.4179 63.0573 96.4583 63.0915 96.4923L63.6625 97.0632Z" fill="#898989"/>
<path d="M73.725 97.3801C73.7362 97.4505 73.7969 97.5023 73.8683 97.5023H77.5758C77.7717 97.5023 77.9632 97.4269 78.096 97.2825C78.1282 97.2475 78.1579 97.2089 78.1863 97.1687H73.6913L73.725 97.3801ZM73.6442 96.6878H78.2845C78.3246 96.6878 78.3618 96.6986 78.395 96.716C78.4977 96.3376 78.475 95.8882 78.2737 95.4934C78.2251 95.3984 78.1518 95.3179 78.0662 95.2547L76.2859 93.9431C75.8179 93.5992 75.2528 93.4127 74.6716 93.4127H73.2623C73.1731 93.4127 73.105 93.4925 73.119 93.5807L73.615 96.6907C73.6247 96.6896 73.6342 96.6878 73.6442 96.6878ZM74.7 95.8537C74.7 95.8804 74.6784 95.902 74.6518 95.902H73.9464C73.9198 95.902 73.8982 95.8804 73.8982 95.8537V95.7408C73.8982 95.7142 73.9198 95.6926 73.9464 95.6926H74.6518C74.6784 95.6926 74.7 95.7142 74.7 95.7408L74.7 95.8537ZM74.6716 93.7755C75.178 93.7755 75.6619 93.9344 76.0711 94.2354L77.2174 95.0799H73.7256L73.5174 93.7755H74.6716ZM78.2845 96.8014H73.6442C73.5742 96.8014 73.5174 96.8582 73.5174 96.9282C73.5174 96.9983 73.5742 97.055 73.6442 97.055H78.2845C78.3546 97.055 78.4114 96.9983 78.4114 96.9282C78.4114 96.8582 78.3546 96.8014 78.2845 96.8014Z" fill="#898989"/>
<circle cx="65.3337" cy="53.6667" r="28.8751" stroke="white" stroke-opacity="0.09" stroke-width="0.583335"/>
<g filter="url(#filter2_d_86_848)">
<mask id="path-12-inside-1_86_848" fill="white">
<path d="M45.5061 32.276C42.5132 35.0502 40.1358 38.4216 38.5275 42.1721C36.9193 45.9227 36.1159 49.969 36.1695 54.0495C36.2231 58.13 37.1323 62.1539 38.8385 65.861C40.5446 69.568 43.0097 72.8758 46.0743 75.5705L46.57 75.0068C43.5842 72.3815 41.1826 69.1588 39.5203 65.5471C37.8581 61.9355 36.9723 58.0152 36.9201 54.0397C36.8679 50.0642 37.6505 46.122 39.2174 42.468C40.7843 38.8139 43.1005 35.5293 46.0163 32.8265L45.5061 32.276Z"/>
</mask>
<path d="M45.5061 32.276C42.5132 35.0502 40.1358 38.4216 38.5275 42.1721C36.9193 45.9227 36.1159 49.969 36.1695 54.0495C36.2231 58.13 37.1323 62.1539 38.8385 65.861C40.5446 69.568 43.0097 72.8758 46.0743 75.5705L46.57 75.0068C43.5842 72.3815 41.1826 69.1588 39.5203 65.5471C37.8581 61.9355 36.9723 58.0152 36.9201 54.0397C36.8679 50.0642 37.6505 46.122 39.2174 42.468C40.7843 38.8139 43.1005 35.5293 46.0163 32.8265L45.5061 32.276Z" fill="url(#paint2_linear_86_848)"/>
<path d="M45.5061 32.276C42.5132 35.0502 40.1358 38.4216 38.5275 42.1721C36.9193 45.9227 36.1159 49.969 36.1695 54.0495C36.2231 58.13 37.1323 62.1539 38.8385 65.861C40.5446 69.568 43.0097 72.8758 46.0743 75.5705L46.57 75.0068C43.5842 72.3815 41.1826 69.1588 39.5203 65.5471C37.8581 61.9355 36.9723 58.0152 36.9201 54.0397C36.8679 50.0642 37.6505 46.122 39.2174 42.468C40.7843 38.8139 43.1005 35.5293 46.0163 32.8265L45.5061 32.276Z" stroke="white" stroke-opacity="0.09" stroke-width="1.16667" mask="url(#path-12-inside-1_86_848)"/>
</g>
<path d="M50.4185 55.4272C50.0714 55.4272 49.7532 55.3405 49.4639 55.1669C49.1843 54.9837 48.9578 54.7475 48.7842 54.4582C48.6203 54.1593 48.5383 53.8412 48.5383 53.5037V46.9232C48.5383 46.5761 48.6203 46.2579 48.7842 45.9686C48.9578 45.6794 49.1843 45.448 49.4639 45.2744C49.7532 45.1009 50.0714 45.0141 50.4185 45.0141H57.0713C57.4088 45.0141 57.7173 45.1009 57.997 45.2744C58.2862 45.448 58.5176 45.6794 58.6912 45.9686C58.8647 46.2579 58.9515 46.5761 58.9515 46.9232V53.5037C58.9515 53.8412 58.8647 54.1593 58.6912 54.4582C58.5176 54.7475 58.2862 54.9837 57.997 55.1669C57.7173 55.3405 57.4088 55.4272 57.0713 55.4272H50.4185ZM50.621 53.8074H57.028C57.1244 53.8074 57.2063 53.7737 57.2738 53.7062C57.351 53.6387 57.3895 53.5567 57.3895 53.4603V48.2103L50.621 53.8074ZM50.1003 52.2021L56.8544 46.605H50.4619C50.3655 46.605 50.2787 46.6435 50.2015 46.7207C50.1341 46.7882 50.1003 46.8701 50.1003 46.9665V52.2021ZM62.4368 55.4272C62.08 55.4272 61.7619 55.3405 61.4823 55.1669C61.2026 54.9934 60.9761 54.7668 60.8025 54.4872C60.629 54.2076 60.5422 53.8942 60.5422 53.5471V53.1132H62.1186V53.5037C62.1186 53.6001 62.1524 53.6869 62.2199 53.764C62.2873 53.8315 62.3693 53.8653 62.4657 53.8653H69.0463C69.1427 53.8653 69.2246 53.8315 69.2921 53.764C69.3596 53.6869 69.3934 53.6001 69.3934 53.5037V51.2764C69.3934 51.18 69.3596 51.0981 69.2921 51.0306C69.2246 50.9534 69.1427 50.9149 69.0463 50.9149H62.4368V49.3529H68.5979C68.704 49.3529 68.7908 49.3192 68.8582 49.2517C68.9257 49.1745 68.9595 49.0877 68.9595 48.9913V46.9376C68.9595 46.8412 68.9257 46.7592 68.8582 46.6918C68.7908 46.6146 68.704 46.5761 68.5979 46.5761H62.4657C62.3693 46.5761 62.2873 46.6146 62.2199 46.6918C62.1524 46.7592 62.1186 46.8412 62.1186 46.9376V47.4727H60.5422V46.8942C60.5422 46.5375 60.6241 46.2193 60.788 45.9397C60.9616 45.6601 61.193 45.4335 61.4823 45.2599C61.7715 45.0864 62.0897 44.9996 62.4368 44.9996H68.6413C68.9981 44.9996 69.3162 45.0864 69.5958 45.2599C69.8851 45.4335 70.1117 45.6601 70.2756 45.9397C70.4395 46.2193 70.5215 46.5375 70.5215 46.8942V49.0347C70.5215 49.1601 70.507 49.2854 70.4781 49.4108C70.4588 49.5361 70.425 49.6518 70.3768 49.7579C70.589 49.97 70.7384 50.2062 70.8252 50.4665C70.912 50.7269 70.9553 50.9824 70.9553 51.2331V53.5471C70.9553 53.8942 70.8686 54.2076 70.695 54.4872C70.5311 54.7668 70.3045 54.9934 70.0153 55.1669C69.7357 55.3405 69.4271 55.4272 69.0896 55.4272H62.4368ZM74.4289 55.4272C74.0818 55.4272 73.7636 55.3405 73.4743 55.1669C73.1947 54.9934 72.9681 54.7668 72.7946 54.4872C72.6307 54.2076 72.5487 53.8942 72.5487 53.5471V51.1897C72.5487 51.0065 72.5825 50.8233 72.65 50.6401C72.7175 50.4472 72.8042 50.2641 72.9103 50.0905C72.8042 49.9169 72.7175 49.7386 72.65 49.5554C72.5825 49.3625 72.5487 49.1745 72.5487 48.9913V46.8942C72.5487 46.5375 72.6307 46.2193 72.7946 45.9397C72.9681 45.6601 73.1947 45.4335 73.4743 45.2599C73.7636 45.0864 74.0818 44.9996 74.4289 44.9996H81.0817C81.371 44.9996 81.6458 45.0719 81.9061 45.2166C82.1664 45.3612 82.3882 45.554 82.5714 45.7951C82.7642 46.0361 82.8944 46.2964 82.9619 46.5761V48.9913C82.9619 49.3577 82.8365 49.7241 82.5859 50.0905C82.8365 50.4376 82.9619 50.804 82.9619 51.1897V53.5471C82.9619 53.8942 82.8751 54.2076 82.7016 54.4872C82.528 54.7668 82.2966 54.9934 82.0074 55.1669C81.7277 55.3405 81.4192 55.4272 81.0817 55.4272H74.4289ZM74.4723 53.8653H81.0383C81.1348 53.8653 81.2167 53.8315 81.2842 53.764C81.3613 53.6869 81.3999 53.6001 81.3999 53.5037V51.2331C81.3999 51.1366 81.3613 51.0547 81.2842 50.9872C81.2167 50.9101 81.1348 50.8715 81.0383 50.8715H74.4723C74.3759 50.8715 74.2891 50.9101 74.2119 50.9872C74.1444 51.0547 74.1107 51.1366 74.1107 51.2331V53.5037C74.1107 53.6001 74.1444 53.6869 74.2119 53.764C74.2891 53.8315 74.3759 53.8653 74.4723 53.8653ZM74.4723 49.4686H81.0383C81.1348 49.4686 81.2167 49.4349 81.2842 49.3674C81.3613 49.2902 81.3999 49.2035 81.3999 49.107V46.9521C81.3999 46.8557 81.3613 46.7737 81.2842 46.7062C81.2167 46.6291 81.1348 46.5905 81.0383 46.5905H74.4723C74.3759 46.5905 74.2891 46.6291 74.2119 46.7062C74.1444 46.7737 74.1107 46.8557 74.1107 46.9521V49.107C74.1107 49.2035 74.1444 49.2902 74.2119 49.3674C74.2891 49.4349 74.3759 49.4686 74.4723 49.4686Z" fill="#AFAFAF"/>
<g filter="url(#filter3_b_86_848)">
<mask id="path-14-inside-2_86_848" fill="white">
<path d="M29.343 91.28C29.1326 91.5239 28.7638 91.5511 28.5223 91.3378C19.4739 83.345 13.6265 72.3353 12.0779 60.3486C10.5293 48.3619 13.3867 36.2277 20.1067 26.1977C20.286 25.93 20.6496 25.8626 20.9152 26.045L21.3532 26.346C21.6188 26.5284 21.6856 26.8916 21.5064 27.1594C15.0231 36.8447 12.267 48.5591 13.762 60.131C15.2571 71.703 20.8998 82.3323 29.6317 90.052C29.873 90.2654 29.9007 90.6336 29.6902 90.8776L29.343 91.28Z"/>
</mask>
<path d="M29.343 91.28C29.1326 91.5239 28.7638 91.5511 28.5223 91.3378C19.4739 83.345 13.6265 72.3353 12.0779 60.3486C10.5293 48.3619 13.3867 36.2277 20.1067 26.1977C20.286 25.93 20.6496 25.8626 20.9152 26.045L21.3532 26.346C21.6188 26.5284 21.6856 26.8916 21.5064 27.1594C15.0231 36.8447 12.267 48.5591 13.762 60.131C15.2571 71.703 20.8998 82.3323 29.6317 90.052C29.873 90.2654 29.9007 90.6336 29.6902 90.8776L29.343 91.28Z" fill="url(#paint3_linear_86_848)"/>
<path d="M29.343 91.28C29.1326 91.5239 28.7638 91.5511 28.5223 91.3378C19.4739 83.345 13.6265 72.3353 12.0779 60.3486C10.5293 48.3619 13.3867 36.2277 20.1067 26.1977C20.286 25.93 20.6496 25.8626 20.9152 26.045L21.3532 26.346C21.6188 26.5284 21.6856 26.8916 21.5064 27.1594C15.0231 36.8447 12.267 48.5591 13.762 60.131C15.2571 71.703 20.8998 82.3323 29.6317 90.052C29.873 90.2654 29.9007 90.6336 29.6902 90.8776L29.343 91.28Z" stroke="url(#paint4_linear_86_848)" stroke-width="40.7144" mask="url(#path-14-inside-2_86_848)"/>
</g>
<path fill-rule="evenodd" clip-rule="evenodd" d="M116.082 54.0187L113.765 54.0027C113.766 53.9423 113.766 53.8818 113.766 53.8212C113.766 53.7698 113.766 53.7183 113.766 53.6668C113.766 53.5547 113.766 53.4427 113.765 53.3308L116.082 53.3149C116.083 53.4321 116.084 53.5494 116.084 53.6668C116.084 53.7842 116.083 53.9015 116.082 54.0187ZM116.019 51.0989L113.705 51.2156C113.693 50.992 113.681 50.7688 113.666 50.5461L115.979 50.3973C115.994 50.6308 116.007 50.8646 116.019 51.0989ZM115.788 48.1882L113.484 48.4384C113.46 48.2163 113.434 47.9946 113.407 47.7735L115.707 47.4911C115.736 47.723 115.763 47.9554 115.788 48.1882ZM115.388 45.2964L113.103 45.6802C113.066 45.4603 113.028 45.2409 112.988 45.022L115.267 44.6062C115.309 44.8357 115.35 45.0658 115.388 45.2964ZM114.821 42.4334L112.562 42.9501C112.513 42.7331 112.461 42.5166 112.409 42.3007L114.66 41.7523C114.715 41.9787 114.769 42.2057 114.821 42.4334ZM114.087 39.609L111.863 40.2571C111.8 40.0436 111.737 39.8307 111.672 39.6185L113.887 38.9391C113.955 39.1618 114.022 39.385 114.087 39.609ZM113.189 36.8328L111.006 37.6102C110.932 37.4005 110.856 37.1914 110.778 36.9831L112.95 36.1751C113.031 36.3936 113.111 36.6128 113.189 36.8328ZM112.13 34.114C112.039 33.8987 111.946 33.6841 111.852 33.4703L109.732 34.404C109.821 34.6079 109.91 34.8125 109.997 35.0179L112.13 34.114ZM110.914 31.4606L108.836 32.4876C108.738 32.2879 108.638 32.0889 108.536 31.8908L110.599 30.8347C110.705 31.0425 110.81 31.2511 110.914 31.4606ZM109.544 28.8831L107.53 30.0295C107.42 29.836 107.309 29.6433 107.196 29.4515L109.193 28.277C109.312 28.4782 109.429 28.6802 109.544 28.8831ZM108.027 26.39L106.083 27.6516C105.962 27.4648 105.84 27.279 105.716 27.0941L107.642 25.8056C107.772 25.9994 107.9 26.1942 108.027 26.39ZM106.368 23.9893L104.501 25.3615C104.369 25.1821 104.236 25.0036 104.101 24.826L105.949 23.428C106.09 23.6141 106.23 23.8012 106.368 23.9893ZM104.572 21.6888L102.788 23.1667C102.646 22.9952 102.502 22.8246 102.358 22.655L104.122 21.1524C104.273 21.3301 104.423 21.5089 104.572 21.6888ZM102.646 19.4957L100.95 21.0745C100.799 20.9114 100.646 20.7494 100.492 20.5885L102.166 18.9864C102.327 19.1551 102.487 19.3249 102.646 19.4957ZM100.597 17.4178L98.995 19.0919C98.8341 18.9379 98.6722 18.7851 98.5091 18.6333L100.088 16.9371C100.259 17.0962 100.428 17.2564 100.597 17.4178ZM98.4312 15.4618L96.9285 17.2257C96.759 17.0813 96.5884 16.938 96.4168 16.7959L97.8948 15.0113C98.0747 15.1602 98.2534 15.3104 98.4312 15.4618ZM96.1556 13.6342L94.7576 15.4822C94.58 15.3479 94.4015 15.2148 94.2221 15.0829L95.5943 13.2157C95.7824 13.3539 95.9695 13.4935 96.1556 13.6342ZM93.778 11.9416L92.4895 13.8675C92.3046 13.7438 92.1187 13.6213 91.932 13.5001L93.1936 11.5565C93.3893 11.6835 93.5842 11.8119 93.778 11.9416ZM91.3065 10.3901L90.1321 12.3876C89.9403 12.2748 89.7476 12.1633 89.5541 12.0531L90.7005 10.0394C90.9034 10.1549 91.1054 10.2718 91.3065 10.3901ZM88.7489 8.98492L87.6928 11.0475C87.4947 10.946 87.2957 10.8459 87.096 10.7471L88.123 8.66999C88.3325 8.77355 88.5411 8.87853 88.7489 8.98492ZM86.1133 7.73123C85.8995 7.6371 85.6849 7.54441 85.4695 7.45318L84.5657 9.5868C84.771 9.67379 84.9756 9.76217 85.1795 9.85194L86.1133 7.73123ZM83.4085 6.63367L82.6005 8.8054C82.3921 8.72789 82.1831 8.65178 81.9734 8.57711L82.7508 6.39423C82.9707 6.47255 83.1899 6.55237 83.4085 6.63367ZM80.6444 5.69659L79.9651 7.91194C79.7528 7.84685 79.54 7.7832 79.3264 7.721L79.9746 5.49632C80.1985 5.56156 80.4218 5.62832 80.6444 5.69659ZM77.8313 4.92337L77.2829 7.17472C77.067 7.12213 76.8505 7.071 76.6335 7.02136L77.1502 4.76253C77.3778 4.8146 77.6048 4.86822 77.8313 4.92337ZM74.9773 4.31608L74.5615 6.59564C74.3427 6.55572 74.1233 6.51728 73.9034 6.48035L74.2872 4.19519C74.5178 4.23392 74.7478 4.27422 74.9773 4.31608ZM72.0924 3.87634L71.8101 6.17625C71.5889 6.1491 71.3673 6.12346 71.1452 6.09934L71.3954 3.79571C71.6282 3.821 71.8605 3.84788 72.0924 3.87634ZM69.1863 3.60483L69.0375 5.91723C68.8147 5.9029 68.5916 5.89009 68.3679 5.87882L68.4846 3.56458C68.7189 3.5764 68.9528 3.58982 69.1863 3.60483ZM66.2687 3.50121L66.2527 5.81833C66.1409 5.81756 66.0289 5.81717 65.9168 5.81717C65.8047 5.81717 65.6927 5.81756 65.5808 5.81833L65.5649 3.50121C65.6821 3.5004 65.7994 3.5 65.9168 3.5C66.0342 3.5 66.1515 3.5004 66.2687 3.50121ZM63.3489 3.56458C63.1146 3.5764 62.8808 3.58982 62.6473 3.60483L62.7961 5.91723C63.0188 5.9029 63.242 5.89009 63.4656 5.87882L63.3489 3.56458ZM60.4382 3.79571L60.6884 6.09934C60.4663 6.12346 60.2446 6.1491 60.0235 6.17625L59.7411 3.87635C59.973 3.84788 60.2054 3.821 60.4382 3.79571ZM57.5464 4.19519L57.9302 6.48035C57.7103 6.51729 57.4909 6.55572 57.272 6.59564L56.8562 4.31609C57.0857 4.27422 57.3158 4.23392 57.5464 4.19519ZM54.6834 4.76254L55.2001 7.02136C54.9831 7.07101 54.7666 7.12213 54.5507 7.17472L54.0023 4.92338C54.2287 4.86822 54.4557 4.81461 54.6834 4.76254ZM51.859 5.49633L52.5071 7.72101C52.2936 7.78321 52.0807 7.84686 51.8685 7.91195L51.1891 5.69659C51.4118 5.62832 51.635 5.56157 51.859 5.49633ZM49.0828 6.39423L49.8602 8.57711C49.6505 8.65179 49.4414 8.72789 49.2331 8.80541L48.4251 6.63367C48.6436 6.55238 48.8628 6.47256 49.0828 6.39423ZM46.364 7.45318C46.1487 7.54441 45.9341 7.6371 45.7203 7.73124L46.654 9.85195C46.8579 9.76218 47.0625 9.6738 47.2679 9.58681L46.364 7.45318ZM43.7106 8.66999L44.7376 10.7471C44.5379 10.8459 44.3389 10.946 44.1408 11.0475L43.0847 8.98492C43.2925 8.87854 43.5011 8.77356 43.7106 8.66999ZM41.1331 10.0394L42.2795 12.0531C42.086 12.1633 41.8933 12.2748 41.7015 12.3876L40.527 10.3901C40.7282 10.2718 40.9302 10.155 41.1331 10.0394ZM38.64 11.5565L39.9016 13.5001C39.7148 13.6213 39.529 13.7438 39.3441 13.8675L38.0556 11.9416C38.2494 11.8119 38.4442 11.6835 38.64 11.5565ZM36.2393 13.2157L37.6115 15.0829C37.4321 15.2148 37.2536 15.3479 37.076 15.4822L35.678 13.6343C35.8641 13.4935 36.0512 13.3539 36.2393 13.2157ZM33.9388 15.0113L35.4167 16.7959C35.2452 16.938 35.0746 17.0813 34.905 17.2257L33.4024 15.4618C33.5801 15.3104 33.7589 15.1602 33.9388 15.0113ZM31.7457 16.9372L33.3245 18.6333C33.1614 18.7851 32.9994 18.9379 32.8385 19.0919L31.2364 17.4178C31.4051 17.2564 31.5749 17.0962 31.7457 16.9372ZM29.6678 18.9864L31.3419 20.5885C31.1879 20.7494 31.0351 20.9114 30.8833 21.0745L29.1871 19.4957C29.3462 19.3249 29.5064 19.1551 29.6678 18.9864ZM27.7118 21.1524L29.4757 22.655C29.3313 22.8246 29.188 22.9952 29.0459 23.1668L27.2613 21.6888C27.4102 21.5089 27.5604 21.3301 27.7118 21.1524ZM25.8842 23.428L27.7322 24.826C27.5979 25.0036 27.4648 25.1821 27.3329 25.3615L25.4657 23.9893C25.6039 23.8012 25.7435 23.6141 25.8842 23.428ZM24.1916 25.8056L26.1175 27.0941C25.9938 27.279 25.8713 27.4648 25.7501 27.6516L23.8065 26.39C23.9335 26.1942 24.0619 25.9994 24.1916 25.8056ZM22.6401 28.277L24.6376 29.4515C24.5248 29.6433 24.4133 29.836 24.3031 30.0295L22.2894 28.8831C22.4049 28.6802 22.5218 28.4782 22.6401 28.277ZM21.2349 30.8347L23.2975 31.8908C23.196 32.0889 23.0959 32.2879 22.9971 32.4876L20.92 31.4606C21.0235 31.2511 21.1285 31.0425 21.2349 30.8347ZM19.9812 33.4703L22.1019 34.4041C22.0122 34.6079 21.9238 34.8125 21.8368 35.0179L19.7032 34.114C19.7944 33.8987 19.8871 33.6841 19.9812 33.4703ZM18.8837 36.1751L21.0554 36.9831C20.9779 37.1915 20.9018 37.4005 20.8271 37.6102L18.6442 36.8328C18.7226 36.6129 18.8024 36.3936 18.8837 36.1751ZM17.9466 38.9392L20.1619 39.6185C20.0969 39.8307 20.0332 40.0436 19.971 40.2571L17.7463 39.609C17.8116 39.3851 17.8783 39.1618 17.9466 38.9392ZM17.1734 41.7523L19.4247 42.3007C19.3721 42.5166 19.321 42.7331 19.2714 42.9501L17.0125 42.4334C17.0646 42.2058 17.1182 41.9787 17.1734 41.7523ZM16.5661 44.6062L18.8456 45.022C18.8057 45.2409 18.7673 45.4603 18.7303 45.6802L16.4452 45.2964C16.4839 45.0658 16.5242 44.8357 16.5661 44.6062ZM16.1263 47.4912L18.4263 47.7735C18.3991 47.9947 18.3735 48.2163 18.3493 48.4384L16.0457 48.1882C16.071 47.9554 16.0979 47.723 16.1263 47.4912ZM15.8548 50.3973L18.1672 50.5461C18.1529 50.7688 18.1401 50.992 18.1288 51.2156L15.8146 51.099C15.8264 50.8647 15.8398 50.6308 15.8548 50.3973ZM15.7512 53.3149C15.7504 53.4321 15.75 53.5494 15.75 53.6668C15.75 53.7842 15.7504 53.9015 15.7512 54.0187L18.0683 54.0028C18.0676 53.8909 18.0672 53.7789 18.0672 53.6668C18.0672 53.5547 18.0676 53.4427 18.0683 53.3308L15.7512 53.3149ZM15.8146 56.2346L18.1288 56.118C18.1401 56.3416 18.1529 56.5648 18.1672 56.7875L15.8548 56.9363C15.8398 56.7028 15.8264 56.4689 15.8146 56.2346ZM16.0457 59.1454L18.3493 58.8952C18.3735 59.1173 18.3991 59.3389 18.4263 59.5601L16.1263 59.8424C16.0979 59.6106 16.071 59.3782 16.0457 59.1454ZM16.4452 62.0372L18.7304 61.6534C18.7673 61.8733 18.8057 62.0927 18.8456 62.3116L16.5661 62.7274C16.5242 62.4979 16.4839 62.2678 16.4452 62.0372ZM17.0125 64.9002L19.2714 64.3835C19.321 64.6005 19.3721 64.817 19.4247 65.0329L17.1734 65.5813C17.1182 65.3549 17.0646 65.1278 17.0125 64.9002ZM17.7463 67.7246L19.971 67.0765C20.0332 67.29 20.0969 67.5029 20.1619 67.7151L17.9466 68.3944C17.8783 68.1718 17.8116 67.9485 17.7463 67.7246ZM18.6442 70.5008L20.8271 69.7234C20.9018 69.9331 20.9779 70.1421 21.0554 70.3505L18.8837 71.1585C18.8024 70.94 18.7226 70.7207 18.6442 70.5008ZM19.7032 73.2196C19.7944 73.4349 19.8871 73.6495 19.9812 73.8633L22.1019 72.9295C22.0122 72.7257 21.9238 72.521 21.8368 72.3157L19.7032 73.2196ZM20.92 75.873L22.9971 74.846C23.0959 75.0457 23.196 75.2447 23.2975 75.4428L21.2349 76.4989C21.1285 76.2911 21.0236 76.0825 20.92 75.873ZM22.2894 78.4505L24.3031 77.3041C24.4133 77.4976 24.5248 77.6903 24.6376 77.8821L22.6401 79.0565C22.5218 78.8554 22.405 78.6534 22.2894 78.4505ZM23.8065 80.9436L25.7501 79.682C25.8713 79.8687 25.9938 80.0546 26.1175 80.2395L24.1916 81.528C24.0619 81.3342 23.9335 81.1393 23.8065 80.9436ZM25.4657 83.3443C25.6039 83.5324 25.7435 83.7195 25.8843 83.9056L27.7322 82.5076C27.5979 82.33 27.4648 82.1515 27.3329 81.9721L25.4657 83.3443ZM27.2613 85.6448L29.0459 84.1668C29.188 84.3384 29.3313 84.509 29.4757 84.6785L27.7118 86.1812C27.5604 86.0035 27.4102 85.8247 27.2613 85.6448ZM29.1872 87.8378L30.8833 86.2591C31.0351 86.4222 31.1879 86.5841 31.3419 86.745L29.6678 88.3471C29.5064 88.1785 29.3462 88.0087 29.1872 87.8378ZM104.122 86.1812L102.358 84.6785C102.502 84.509 102.646 84.3384 102.788 84.1668L104.572 85.6448C104.423 85.8247 104.273 86.0034 104.122 86.1812ZM105.949 83.9056L104.101 82.5076C104.236 82.33 104.369 82.1515 104.501 81.9721L106.368 83.3443C106.23 83.5324 106.09 83.7195 105.949 83.9056ZM107.642 81.528L105.716 80.2395C105.84 80.0546 105.962 79.8687 106.083 79.682L108.027 80.9436C107.9 81.1393 107.772 81.3342 107.642 81.528ZM109.193 79.0565L107.196 77.8821C107.309 77.6903 107.42 77.4976 107.53 77.3041L109.544 78.4505C109.429 78.6534 109.312 78.8554 109.193 79.0565ZM110.599 76.4989L108.536 75.4428C108.638 75.2447 108.738 75.0457 108.836 74.846L110.914 75.873C110.81 76.0825 110.705 76.2911 110.599 76.4989ZM111.852 73.8633L109.732 72.9295C109.821 72.7256 109.91 72.521 109.997 72.3157L112.13 73.2195C112.039 73.4349 111.946 73.6495 111.852 73.8633ZM112.95 71.1585L110.778 70.3505C110.856 70.1421 110.932 69.9331 111.006 69.7234L113.189 70.5008C113.111 70.7207 113.031 70.9399 112.95 71.1585ZM113.887 68.3944L111.672 67.7151C111.737 67.5028 111.8 67.29 111.863 67.0764L114.087 67.7246C114.022 67.9485 113.955 68.1718 113.887 68.3944ZM114.66 65.5813L112.409 65.0329C112.461 64.817 112.513 64.6005 112.562 64.3835L114.821 64.9002C114.769 65.1278 114.715 65.3548 114.66 65.5813ZM115.268 62.7273L112.988 62.3115C113.028 62.0927 113.066 61.8733 113.103 61.6534L115.388 62.0372C115.35 62.2678 115.309 62.4978 115.268 62.7273ZM115.707 59.8424L113.407 59.5601C113.434 59.3389 113.46 59.1173 113.484 58.8952L115.788 59.1454C115.763 59.3782 115.736 59.6105 115.707 59.8424ZM115.979 56.9363L113.666 56.7875C113.681 56.5647 113.693 56.3416 113.705 56.1179L116.019 56.2346C116.007 56.4689 115.994 56.7028 115.979 56.9363Z" fill="url(#paint5_linear_86_848)"/>
<g filter="url(#filter4_d_86_848)">
<path d="M58.8821 67.8335V64.4026H63.2654C63.4113 64.4026 63.5415 64.4381 63.6558 64.5091C63.7702 64.58 63.8609 64.6727 63.9279 64.7871C63.9989 64.9014 64.0344 65.0296 64.0344 65.1716V67.8335H63.4015V65.1893C63.4015 65.1499 63.3857 65.1164 63.3541 65.0888C63.3265 65.0572 63.293 65.0414 63.2536 65.0414H61.9344C61.8911 65.0414 61.8556 65.0572 61.828 65.0888C61.8004 65.1164 61.7866 65.1499 61.7866 65.1893V67.8335H61.1418V65.1893C61.1418 65.1499 61.126 65.1164 61.0945 65.0888C61.0669 65.0572 61.0333 65.0414 60.9939 65.0414H59.6689C59.6294 65.0414 59.5959 65.0572 59.5683 65.0888C59.5407 65.1164 59.5269 65.1499 59.5269 65.1893V67.8335H58.8821ZM64.5433 69.194V64.4026H67.2644C67.4063 64.4026 67.5345 64.4381 67.6489 64.5091C67.7672 64.58 67.8599 64.6727 67.9269 64.7871C67.9979 64.9014 68.0334 65.0296 68.0334 65.1716V67.0645C68.0334 67.2065 67.9979 67.3346 67.9269 67.449C67.8599 67.5634 67.7672 67.656 67.6489 67.727C67.5345 67.798 67.4063 67.8335 67.2644 67.8335H65.1822V69.194H64.5433ZM65.3301 67.1946H67.2466C67.2861 67.1946 67.3196 67.1808 67.3472 67.1532C67.3787 67.1217 67.3945 67.0862 67.3945 67.0468V65.1893C67.3945 65.1499 67.3787 65.1164 67.3472 65.0888C67.3196 65.0572 67.2861 65.0414 67.2466 65.0414H65.3301C65.2906 65.0414 65.2551 65.0572 65.2236 65.0888C65.196 65.1164 65.1822 65.1499 65.1822 65.1893V67.0468C65.1822 67.0862 65.196 67.1217 65.2236 67.1532C65.2551 67.1808 65.2906 67.1946 65.3301 67.1946ZM68.4715 67.8335V63.2787H69.1103V64.4026H71.1925C71.3306 64.4026 71.4568 64.4381 71.5711 64.5091C71.6894 64.58 71.7841 64.6727 71.8551 64.7871C71.926 64.9014 71.9615 65.0296 71.9615 65.1716V67.8335H71.3227V65.1893C71.3227 65.1499 71.3069 65.1164 71.2754 65.0888C71.2478 65.0572 71.2142 65.0414 71.1748 65.0414H69.2582C69.2188 65.0414 69.1833 65.0572 69.1517 65.0888C69.1241 65.1164 69.1103 65.1499 69.1103 65.1893V67.8335H68.4715Z" fill="#A0A0A0"/>
</g>
<path d="M34.7439 81.8971C34.6511 81.8971 34.5665 81.8753 34.49 81.8316C34.4163 81.7852 34.3576 81.7251 34.3139 81.6514C34.2702 81.5749 34.2484 81.4917 34.2484 81.4016V79.4481C34.2484 79.3553 34.2702 79.272 34.3139 79.1983C34.3576 79.1219 34.4163 79.0618 34.49 79.0181C34.5665 78.9717 34.6511 78.9485 34.7439 78.9485H36.7301C36.8202 78.9485 36.9021 78.9717 36.9758 79.0181C37.0523 79.0618 37.1123 79.1219 37.156 79.1983C37.2024 79.272 37.2256 79.3553 37.2256 79.4481V81.4016C37.2256 81.4917 37.2024 81.5749 37.156 81.6514C37.1123 81.7251 37.0523 81.7852 36.9758 81.8316C36.9021 81.8753 36.8202 81.8971 36.7301 81.8971H34.7439ZM34.6252 81.5613H36.7301C36.7738 81.5613 36.8107 81.5463 36.8407 81.5162C36.8735 81.4835 36.8898 81.4453 36.8898 81.4016V79.6939L34.6252 81.5613ZM34.5842 81.1559L36.8448 79.2884H34.7439C34.7002 79.2884 34.662 79.3048 34.6293 79.3376C34.5992 79.3676 34.5842 79.4045 34.5842 79.4481V81.1559Z" fill="white"/>
<path d="M22.3661 62.3309V61.2252C22.3661 61.1324 22.3879 61.0491 22.4316 60.9754C22.4753 60.899 22.534 60.8389 22.6077 60.7952C22.6842 60.7515 22.7688 60.7297 22.8616 60.7297H24.8478C24.8915 60.7297 24.9284 60.7147 24.9584 60.6846C24.9911 60.6519 25.0075 60.6137 25.0075 60.57V59.8779C25.0075 59.8342 24.9911 59.7973 24.9584 59.7673C24.9284 59.7345 24.8915 59.7182 24.8478 59.7182H22.8616C22.8179 59.7182 22.7797 59.7345 22.747 59.7673C22.7169 59.7973 22.7019 59.8342 22.7019 59.8779V59.9925H22.3661V59.8779C22.3661 59.7851 22.3879 59.7018 22.4316 59.6281C22.4753 59.5516 22.534 59.4916 22.6077 59.4479C22.6842 59.4015 22.7688 59.3783 22.8616 59.3783H24.8478C24.9379 59.3783 25.0198 59.4015 25.0935 59.4479C25.17 59.4916 25.23 59.5516 25.2737 59.6281C25.3201 59.7018 25.3433 59.7851 25.3433 59.8779V60.57C25.3433 60.6601 25.3201 60.7433 25.2737 60.8198C25.23 60.8935 25.17 60.9536 25.0935 61C25.0198 61.0437 24.9379 61.0655 24.8478 61.0655H22.8616C22.8179 61.0655 22.7797 61.0819 22.747 61.1146C22.7169 61.1447 22.7019 61.1815 22.7019 61.2252V61.8354C22.7019 61.8791 22.7169 61.9173 22.747 61.9501C22.7797 61.9801 22.8179 61.9951 22.8616 61.9951H25.3433V62.3309H22.3661ZM26.261 62.3309C26.1682 62.3309 26.0835 62.3091 26.0071 62.2654C25.9334 62.219 25.8747 62.1589 25.831 62.0852C25.7873 62.0088 25.7655 61.9255 25.7655 61.8354V59.882C25.7655 59.7891 25.7873 59.7059 25.831 59.6322C25.8747 59.5557 25.9334 59.4957 26.0071 59.452C26.0835 59.4056 26.1682 59.3824 26.261 59.3824H28.2472C28.3373 59.3824 28.4192 59.4056 28.4929 59.452C28.5694 59.4957 28.6294 59.5557 28.6731 59.6322C28.7195 59.7059 28.7427 59.7891 28.7427 59.882V61.8354C28.7427 61.9255 28.7195 62.0088 28.6731 62.0852C28.6294 62.1589 28.5694 62.219 28.4929 62.2654C28.4192 62.3091 28.3373 62.3309 28.2472 62.3309H26.261ZM26.1422 61.9951H28.2472C28.2909 61.9951 28.3277 61.9801 28.3578 61.9501C28.3905 61.9173 28.4069 61.8791 28.4069 61.8354V60.1277L26.1422 61.9951ZM26.1013 61.5897L28.3619 59.7223H26.261C26.2173 59.7223 26.1791 59.7386 26.1463 59.7714C26.1163 59.8014 26.1013 59.8383 26.1013 59.882V61.5897Z" fill="white"/>
<path d="M28.3653 38.8972V38.1355H26.3094V37.7587L28.3243 35.9445H28.7011V37.7997H29.1597V38.1355H28.7011V38.8972H28.3653ZM26.7394 37.7997H28.3653V36.3991L26.7394 37.7997ZM30.0053 38.8972C29.9124 38.8972 29.8278 38.8754 29.7514 38.8317C29.6777 38.7853 29.619 38.7252 29.5753 38.6515C29.5316 38.5751 29.5097 38.4918 29.5097 38.4017V36.4483C29.5097 36.3554 29.5316 36.2722 29.5753 36.1984C29.619 36.122 29.6777 36.0619 29.7514 36.0183C29.8278 35.9718 29.9124 35.9486 30.0053 35.9486H31.9915C32.0816 35.9486 32.1635 35.9718 32.2372 36.0183C32.3136 36.0619 32.3737 36.122 32.4174 36.1984C32.4638 36.2722 32.487 36.3554 32.487 36.4483V38.4017C32.487 38.4918 32.4638 38.5751 32.4174 38.6515C32.3737 38.7252 32.3136 38.7853 32.2372 38.8317C32.1635 38.8754 32.0816 38.8972 31.9915 38.8972H30.0053ZM29.8865 38.5614H31.9915C32.0352 38.5614 32.072 38.5464 32.102 38.5164C32.1348 38.4836 32.1512 38.4454 32.1512 38.4017V36.694L29.8865 38.5614ZM29.8456 38.156L32.1061 36.2885H30.0053C29.9616 36.2885 29.9234 36.3049 29.8906 36.3377C29.8606 36.3677 29.8456 36.4046 29.8456 36.4483V38.156Z" fill="white"/>
<path d="M40.877 23.25V22.4883H38.8212V22.1115L40.836 20.2973H41.2128V22.1525H41.6715V22.4883H41.2128V23.25H40.877ZM39.2512 22.1525H40.877V20.7519L39.2512 22.1525ZM42.517 23.25C42.4242 23.25 42.3395 23.2282 42.2631 23.1845C42.1894 23.1381 42.1307 23.078 42.087 23.0043C42.0433 22.9278 42.0215 22.8446 42.0215 22.7545V20.801C42.0215 20.7082 42.0433 20.6249 42.087 20.5512C42.1307 20.4748 42.1894 20.4147 42.2631 20.371C42.3395 20.3246 42.4242 20.3014 42.517 20.3014H44.5032C44.5933 20.3014 44.6752 20.3246 44.7489 20.371C44.8253 20.4147 44.8854 20.4748 44.9291 20.5512C44.9755 20.6249 44.9987 20.7082 44.9987 20.801V22.7545C44.9987 22.8446 44.9755 22.9278 44.9291 23.0043C44.8854 23.078 44.8253 23.1381 44.7489 23.1845C44.6752 23.2282 44.5933 23.25 44.5032 23.25H42.517ZM42.3982 22.9142H44.5032C44.5469 22.9142 44.5837 22.8992 44.6138 22.8691C44.6465 22.8364 44.6629 22.7982 44.6629 22.7545V21.0468L42.3982 22.9142ZM42.3573 22.5088L44.6179 20.6413H42.517C42.4733 20.6413 42.4351 20.6577 42.4023 20.6905C42.3723 20.7205 42.3573 20.7574 42.3573 20.801V22.5088Z" fill="white"/>
<path d="M64.794 16.8334V16.0717H62.7382V15.6949L64.753 13.8807H65.1298V15.7358H65.5884V16.0717H65.1298V16.8334H64.794ZM63.1682 15.7358H64.794V14.3353L63.1682 15.7358ZM66.434 16.8334C66.3412 16.8334 66.2565 16.8115 66.1801 16.7679C66.1064 16.7214 66.0477 16.6614 66.004 16.5877C65.9603 16.5112 65.9385 16.4279 65.9385 16.3378V14.3844C65.9385 14.2916 65.9603 14.2083 66.004 14.1346C66.0477 14.0582 66.1064 13.9981 66.1801 13.9544C66.2565 13.908 66.3412 13.8848 66.434 13.8848H68.4202C68.5103 13.8848 68.5922 13.908 68.6659 13.9544C68.7423 13.9981 68.8024 14.0582 68.8461 14.1346C68.8925 14.2083 68.9157 14.2916 68.9157 14.3844V16.3378C68.9157 16.4279 68.8925 16.5112 68.8461 16.5877C68.8024 16.6614 68.7423 16.7214 68.6659 16.7679C68.5922 16.8115 68.5103 16.8334 68.4202 16.8334H66.434ZM66.3152 16.4976H68.4202C68.4639 16.4976 68.5007 16.4825 68.5308 16.4525C68.5635 16.4198 68.5799 16.3815 68.5799 16.3378V14.6301L66.3152 16.4976ZM66.2743 16.0921L68.5348 14.2247H66.434C66.3903 14.2247 66.3521 14.2411 66.3193 14.2738C66.2893 14.3039 66.2743 14.3407 66.2743 14.3844V16.0921Z" fill="white"/>
<path d="M90.461 23.25V22.4883H88.4051V22.1115L90.42 20.2973H90.7968V22.1525H91.2554V22.4883H90.7968V23.25H90.461ZM88.8351 22.1525H90.461V20.7519L88.8351 22.1525ZM92.101 23.25C92.0082 23.25 91.9235 23.2282 91.8471 23.1845C91.7734 23.1381 91.7147 23.078 91.671 23.0043C91.6273 22.9278 91.6055 22.8446 91.6055 22.7545V20.801C91.6055 20.7082 91.6273 20.6249 91.671 20.5512C91.7147 20.4748 91.7734 20.4147 91.8471 20.371C91.9235 20.3246 92.0082 20.3014 92.101 20.3014H94.0872C94.1773 20.3014 94.2592 20.3246 94.3329 20.371C94.4093 20.4147 94.4694 20.4748 94.5131 20.5512C94.5595 20.6249 94.5827 20.7082 94.5827 20.801V22.7545C94.5827 22.8446 94.5595 22.9278 94.5131 23.0043C94.4694 23.078 94.4093 23.1381 94.3329 23.1845C94.2592 23.2282 94.1773 23.25 94.0872 23.25H92.101ZM91.9822 22.9142H94.0872C94.1309 22.9142 94.1677 22.8992 94.1977 22.8691C94.2305 22.8364 94.2469 22.7982 94.2469 22.7545V21.0468L91.9822 22.9142ZM91.9413 22.5088L94.2018 20.6413H92.101C92.0573 20.6413 92.0191 20.6577 91.9863 20.6905C91.9563 20.7205 91.9413 20.7574 91.9413 20.801V22.5088Z" fill="white"/>
<path d="M102.127 39V38.2383H100.071V37.8615L102.086 36.0473H102.463V37.9025H102.921V38.2383H102.463V39H102.127ZM100.501 37.9025H102.127V36.5019L100.501 37.9025ZM103.767 39C103.674 39 103.59 38.9782 103.513 38.9345C103.439 38.8881 103.381 38.828 103.337 38.7543C103.293 38.6778 103.271 38.5946 103.271 38.5045V36.551C103.271 36.4582 103.293 36.3749 103.337 36.3012C103.381 36.2248 103.439 36.1647 103.513 36.121C103.59 36.0746 103.674 36.0514 103.767 36.0514H105.753C105.843 36.0514 105.925 36.0746 105.999 36.121C106.075 36.1647 106.135 36.2248 106.179 36.3012C106.226 36.3749 106.249 36.4582 106.249 36.551V38.5045C106.249 38.5946 106.226 38.6778 106.179 38.7543C106.135 38.828 106.075 38.8881 105.999 38.9345C105.925 38.9782 105.843 39 105.753 39H103.767ZM103.648 38.6642H105.753C105.797 38.6642 105.834 38.6492 105.864 38.6191C105.897 38.5864 105.913 38.5482 105.913 38.5045V36.7968L103.648 38.6642ZM103.607 38.2588L105.868 36.3913H103.767C103.723 36.3913 103.685 36.4077 103.652 36.4405C103.622 36.4705 103.607 36.5074 103.607 36.551V38.2588Z" fill="white"/>
<path d="M103.877 61.7501V60.9884H101.821V60.6116L103.836 58.7974H104.213V60.6526H104.671V60.9884H104.213V61.7501H103.877ZM102.251 60.6526H103.877V59.252L102.251 60.6526ZM105.517 61.7501C105.424 61.7501 105.34 61.7283 105.263 61.6846C105.189 61.6382 105.131 61.5781 105.087 61.5044C105.043 61.428 105.021 61.3447 105.021 61.2546V59.3012C105.021 59.2083 105.043 59.1251 105.087 59.0514C105.131 58.9749 105.189 58.9148 105.263 58.8712C105.34 58.8247 105.424 58.8015 105.517 58.8015H107.503C107.593 58.8015 107.675 58.8247 107.749 58.8712C107.825 58.9148 107.885 58.9749 107.929 59.0514C107.976 59.1251 107.999 59.2083 107.999 59.3012V61.2546C107.999 61.3447 107.976 61.428 107.929 61.5044C107.885 61.5781 107.825 61.6382 107.749 61.6846C107.675 61.7283 107.593 61.7501 107.503 61.7501H105.517ZM105.398 61.4143H107.503C107.547 61.4143 107.584 61.3993 107.614 61.3693C107.647 61.3365 107.663 61.2983 107.663 61.2546V59.5469L105.398 61.4143ZM105.357 61.0089L107.618 59.1414H105.517C105.473 59.1414 105.435 59.1578 105.402 59.1906C105.372 59.2206 105.357 59.2575 105.357 59.3012V61.0089Z" fill="white"/>
<path d="M96.877 82.1669V81.4052H94.8212V81.0284L96.836 79.2142H97.2128V81.0693H97.6715V81.4052H97.2128V82.1669H96.877ZM95.2512 81.0693H96.877V79.6688L95.2512 81.0693ZM98.517 82.1669C98.4242 82.1669 98.3395 82.145 98.2631 82.1013C98.1894 82.0549 98.1307 81.9949 98.087 81.9212C98.0433 81.8447 98.0215 81.7614 98.0215 81.6713V79.7179C98.0215 79.6251 98.0433 79.5418 98.087 79.4681C98.1307 79.3917 98.1894 79.3316 98.2631 79.2879C98.3395 79.2415 98.4242 79.2183 98.517 79.2183H100.503C100.593 79.2183 100.675 79.2415 100.749 79.2879C100.825 79.3316 100.885 79.3917 100.929 79.4681C100.976 79.5418 100.999 79.6251 100.999 79.7179V81.6713C100.999 81.7614 100.976 81.8447 100.929 81.9212C100.885 81.9949 100.825 82.0549 100.749 82.1013C100.675 82.145 100.593 82.1669 100.503 82.1669H98.517ZM98.3982 81.8311H100.503C100.547 81.8311 100.584 81.816 100.614 81.786C100.647 81.7532 100.663 81.715 100.663 81.6713V79.9636L98.3982 81.8311ZM98.3573 81.4256L100.618 79.5582H98.517C98.4733 79.5582 98.4351 79.5746 98.4023 79.6073C98.3723 79.6374 98.3573 79.6742 98.3573 79.7179V81.4256Z" fill="white"/>
<g filter="url(#filter5_b_86_848)">
<path d="M29.7587 102.423C21.2962 96.8105 14.881 88.6064 11.4752 79.0404" stroke="#777472" stroke-width="2.73324" stroke-linecap="round"/>
</g>
<g filter="url(#filter6_b_86_848)">
<path d="M29.7587 102.423C24.5173 98.9467 20.0276 94.4532 16.5562 89.2089" stroke="#F6B656" stroke-width="2.73324" stroke-linecap="round"/>
</g>
<path d="M26.2691 104.838L26.2926 104.839C26.6683 104.861 26.9549 105.184 26.9327 105.56L26.7372 108.867C26.7218 109.127 26.4994 109.324 26.2402 109.309V109.309C25.9811 109.294 25.7835 109.071 25.7988 108.812L25.8196 108.46C25.8387 108.136 25.5917 107.858 25.2678 107.839V107.839L24.4467 107.79" stroke="#F6B656" stroke-width="0.470001" stroke-linecap="round"/>
<rect x="26.2207" y="105.659" width="0.705002" height="1.41" rx="0.1175" transform="rotate(3.3824 26.2207 105.659)" fill="#F7B656" stroke="#F6B656" stroke-width="0.235001"/>
<rect x="21.0449" y="109.59" width="4.70001" height="0.470001" rx="0.235001" transform="rotate(3.3824 21.0449 109.59)" fill="#F7B656"/>
<path fill-rule="evenodd" clip-rule="evenodd" d="M22.5641 103.795C22.1754 103.772 21.8417 104.068 21.8188 104.457L21.4999 109.853L25.2533 110.075L25.5722 104.679C25.5952 104.29 25.2987 103.957 24.91 103.934L22.5641 103.795ZM22.5366 104.264C22.407 104.256 22.2958 104.355 22.2882 104.485L22.1634 106.596C22.1557 106.726 22.2545 106.837 22.3841 106.844L24.73 106.983C24.8596 106.991 24.9708 106.892 24.9785 106.762L25.1032 104.651C25.1109 104.522 25.0121 104.41 24.8825 104.403L22.5366 104.264Z" fill="#F7B656"/>
<path d="M21.8188 104.457L21.7015 104.45L21.8188 104.457ZM21.4999 109.853L21.3826 109.846L21.3756 109.963L21.4929 109.97L21.4999 109.853ZM25.2533 110.075L25.2464 110.192L25.3637 110.199L25.3706 110.081L25.2533 110.075ZM25.5722 104.679L25.4549 104.672L25.5722 104.679ZM22.3841 106.844L22.391 106.727L22.3841 106.844ZM24.73 106.983L24.7231 107.1L24.73 106.983ZM24.9785 106.762L25.0958 106.769L24.9785 106.762ZM25.1032 104.651L24.986 104.644L25.1032 104.651ZM21.9361 104.464C21.9552 104.14 22.2333 103.893 22.5572 103.912L22.5711 103.678C22.1176 103.651 21.7283 103.997 21.7015 104.45L21.9361 104.464ZM21.6172 109.86L21.9361 104.464L21.7015 104.45L21.3826 109.846L21.6172 109.86ZM25.2603 109.957L21.5068 109.735L21.4929 109.97L25.2464 110.192L25.2603 109.957ZM25.4549 104.672L25.136 110.068L25.3706 110.081L25.6895 104.686L25.4549 104.672ZM24.9031 104.051C25.227 104.07 25.4741 104.348 25.4549 104.672L25.6895 104.686C25.7163 104.232 25.3704 103.843 24.917 103.816L24.9031 104.051ZM22.5572 103.912L24.9031 104.051L24.917 103.816L22.5711 103.678L22.5572 103.912ZM22.4054 104.492C22.4093 104.427 22.4649 104.377 22.5297 104.381L22.5435 104.147C22.3492 104.135 22.1823 104.283 22.1709 104.478L22.4054 104.492ZM22.2807 106.603L22.4054 104.492L22.1709 104.478L22.0461 106.589L22.2807 106.603ZM22.391 106.727C22.3262 106.723 22.2768 106.668 22.2807 106.603L22.0461 106.589C22.0346 106.783 22.1828 106.95 22.3772 106.962L22.391 106.727ZM24.7369 106.866L22.391 106.727L22.3772 106.962L24.7231 107.1L24.7369 106.866ZM24.8612 106.755C24.8573 106.82 24.8017 106.87 24.7369 106.866L24.7231 107.1C24.9174 107.112 25.0843 106.964 25.0958 106.769L24.8612 106.755ZM24.986 104.644L24.8612 106.755L25.0958 106.769L25.2205 104.658L24.986 104.644ZM24.8756 104.52C24.9404 104.524 24.9898 104.579 24.986 104.644L25.2205 104.658C25.232 104.464 25.0838 104.297 24.8895 104.285L24.8756 104.52ZM22.5297 104.381L24.8756 104.52L24.8895 104.285L22.5435 104.147L22.5297 104.381Z" fill="#F6B656"/>
<defs>
<filter id="filter0_d_86_848" x="46.1287" y="25.9227" width="37.8275" height="19.1521" filterUnits="userSpaceOnUse" color-interpolation-filters="sRGB">
<feFlood flood-opacity="0" result="BackgroundImageFix"/>
<feColorMatrix in="SourceAlpha" type="matrix" values="0 0 0 0 0 0 0 0 0 0 0 0 0 0 0 0 0 0 127 0" result="hardAlpha"/>
<feOffset/>
<feGaussianBlur stdDeviation="2.60264"/>
<feComposite in2="hardAlpha" operator="out"/>
<feColorMatrix type="matrix" values="0 0 0 0 1 0 0 0 0 1 0 0 0 0 1 0 0 0 0.11 0"/>
<feBlend mode="normal" in2="BackgroundImageFix" result="effect1_dropShadow_86_848"/>
<feBlend mode="normal" in="SourceGraphic" in2="effect1_dropShadow_86_848" result="shape"/>
</filter>
<filter id="filter1_d_86_848" x="44.1586" y="84.9919" width="19.9161" height="20.7427" filterUnits="userSpaceOnUse" color-interpolation-filters="sRGB">
<feFlood flood-opacity="0" result="BackgroundImageFix"/>
<feColorMatrix in="SourceAlpha" type="matrix" values="0 0 0 0 0 0 0 0 0 0 0 0 0 0 0 0 0 0 127 0" result="hardAlpha"/>
<feOffset/>
<feGaussianBlur stdDeviation="3.87918"/>
<feComposite in2="hardAlpha" operator="out"/>
<feColorMatrix type="matrix" values="0 0 0 0 0.839216 0 0 0 0 0.580392 0 0 0 0 1 0 0 0 1 0"/>
<feBlend mode="normal" in2="BackgroundImageFix" result="effect1_dropShadow_86_848"/>
<feBlend mode="normal" in="SourceGraphic" in2="effect1_dropShadow_86_848" result="shape"/>
</filter>
<filter id="filter2_d_86_848" x="30.2753" y="26.3843" width="22.1867" height="55.0779" filterUnits="userSpaceOnUse" color-interpolation-filters="sRGB">
<feFlood flood-opacity="0" result="BackgroundImageFix"/>
<feColorMatrix in="SourceAlpha" type="matrix" values="0 0 0 0 0 0 0 0 0 0 0 0 0 0 0 0 0 0 127 0" result="hardAlpha"/>
<feOffset/>
<feGaussianBlur stdDeviation="2.94584"/>
<feComposite in2="hardAlpha" operator="out"/>
<feColorMatrix type="matrix" values="0 0 0 0 0.745098 0 0 0 0 0.396078 0 0 0 0 0.956863 0 0 0 0.44 0"/>
<feBlend mode="normal" in2="BackgroundImageFix" result="effect1_dropShadow_86_848"/>
<feBlend mode="normal" in="SourceGraphic" in2="effect1_dropShadow_86_848" result="shape"/>
</filter>
<filter id="filter3_b_86_848" x="-25.4283" y="-11.1527" width="92.3557" height="139.73" filterUnits="userSpaceOnUse" color-interpolation-filters="sRGB">
<feFlood flood-opacity="0" result="BackgroundImageFix"/>
<feGaussianBlur in="BackgroundImageFix" stdDeviation="18.5477"/>
<feComposite in2="SourceAlpha" operator="in" result="effect1_backgroundBlur_86_848"/>
<feBlend mode="normal" in="SourceGraphic" in2="effect1_backgroundBlur_86_848" result="shape"/>
</filter>
<filter id="filter4_d_86_848" x="52.8735" y="57.2703" width="25.0968" height="17.932" filterUnits="userSpaceOnUse" color-interpolation-filters="sRGB">
<feFlood flood-opacity="0" result="BackgroundImageFix"/>
<feColorMatrix in="SourceAlpha" type="matrix" values="0 0 0 0 0 0 0 0 0 0 0 0 0 0 0 0 0 0 127 0" result="hardAlpha"/>
<feOffset/>
<feGaussianBlur stdDeviation="3.00417"/>
<feComposite in2="hardAlpha" operator="out"/>
<feColorMatrix type="matrix" values="0 0 0 0 0.504167 0 0 0 0 0.504167 0 0 0 0 0.504167 0 0 0 1 0"/>
<feBlend mode="normal" in2="BackgroundImageFix" result="effect1_dropShadow_86_848"/>
<feBlend mode="normal" in="SourceGraphic" in2="effect1_dropShadow_86_848" result="shape"/>
</filter>
<filter id="filter5_b_86_848" x="-21.9095" y="45.6554" width="85.0525" height="90.1518" filterUnits="userSpaceOnUse" color-interpolation-filters="sRGB">
<feFlood flood-opacity="0" result="BackgroundImageFix"/>
<feGaussianBlur in="BackgroundImageFix" stdDeviation="16.009"/>
<feComposite in2="SourceAlpha" operator="in" result="effect1_backgroundBlur_86_848"/>
<feBlend mode="normal" in="SourceGraphic" in2="effect1_backgroundBlur_86_848" result="shape"/>
</filter>
<filter id="filter6_b_86_848" x="-16.8285" y="55.8242" width="79.9714" height="79.983" filterUnits="userSpaceOnUse" color-interpolation-filters="sRGB">
<feFlood flood-opacity="0" result="BackgroundImageFix"/>
<feGaussianBlur in="BackgroundImageFix" stdDeviation="16.009"/>
<feComposite in2="SourceAlpha" operator="in" result="effect1_backgroundBlur_86_848"/>
<feBlend mode="normal" in="SourceGraphic" in2="effect1_backgroundBlur_86_848" result="shape"/>
</filter>
<linearGradient id="paint0_linear_86_848" x1="65.6251" y1="-7.54614" x2="65.6251" y2="106.75" gradientUnits="userSpaceOnUse">
<stop stop-color="#030303"/>
<stop offset="0.509715" stop-color="#0F0F0F"/>
<stop offset="1" stop-color="#202020"/>
</linearGradient>
<linearGradient id="paint1_linear_86_848" x1="65.6251" y1="0" x2="65.6251" y2="106.75" gradientUnits="userSpaceOnUse">
<stop stop-color="white"/>
<stop offset="1" stop-color="white" stop-opacity="0.28"/>
</linearGradient>
<linearGradient id="paint2_linear_86_848" x1="90.7088" y1="35.875" x2="65.3337" y2="82.8335" gradientUnits="userSpaceOnUse">
<stop stop-color="#FBF3FF"/>
<stop offset="0.505" stop-color="#D48FFE"/>
<stop offset="1" stop-color="#B0B0B0"/>
</linearGradient>
<linearGradient id="paint3_linear_86_848" x1="91.6969" y1="52.3714" x2="32.303" y2="55.72" gradientUnits="userSpaceOnUse">
<stop stop-color="#6E5D43"/>
<stop offset="1" stop-color="#534838"/>
</linearGradient>
<linearGradient id="paint4_linear_86_848" x1="21.4378" y1="43.9239" x2="41.8058" y2="84.4834" gradientUnits="userSpaceOnUse">
<stop stop-color="#BC61F3"/>
<stop offset="1" stop-color="#D796FF"/>
</linearGradient>
<linearGradient id="paint5_linear_86_848" x1="59.5004" y1="3.5" x2="33.2503" y2="91.8752" gradientUnits="userSpaceOnUse">
<stop stop-color="white"/>
<stop offset="1" stop-color="#D694FF"/>
</linearGradient>
</defs>
</svg>
