<svg width="152" height="88" viewBox="0 0 152 88" fill="none" xmlns="http://www.w3.org/2000/svg">
<path d="M60.3063 49C59.1115 49 58.0136 48.6932 57.0125 48.0797C56.0438 47.4338 55.2688 46.5943 54.6875 45.5609C54.1063 44.5276 53.8156 43.4297 53.8156 42.2672V20.7124C53.8156 19.5176 54.1063 18.4197 54.6875 17.4186C55.2688 16.4176 56.0438 15.6264 57.0125 15.0452C58.0136 14.4316 59.1115 14.1249 60.3063 14.1249H82.0064C83.2012 14.1249 84.2829 14.4316 85.2517 15.0452C86.2527 15.6264 87.0439 16.4176 87.6251 17.4186C88.2064 18.4197 88.497 19.5176 88.497 20.7124V42.2672C88.497 43.4297 88.2064 44.5276 87.6251 45.5609C87.0439 46.5943 86.2527 47.4338 85.2517 48.0797C84.2829 48.6932 83.2012 49 82.0064 49H60.3063ZM61.9047 42.9453H81.8611C82.0871 42.9453 82.2808 42.8646 82.4423 42.7031C82.6361 42.5094 82.7329 42.2995 82.7329 42.0734V25.653L61.9047 42.9453ZM59.5797 37.3265L80.4079 20.0343H60.5C60.2417 20.0343 60.0157 20.1311 59.8219 20.3249C59.6604 20.4864 59.5797 20.6801 59.5797 20.9061V37.3265Z" fill="#7C7C7C"/>
<path d="M102.495 49V22.1655L99.1526 26.2827H91.4994L101.72 14.1249H108.307V49H102.495ZM119.624 49C118.429 49 117.331 48.7094 116.33 48.1281C115.361 47.5146 114.586 46.7234 114.005 45.7547C113.424 44.7859 113.133 43.7041 113.133 42.5094V34.7593C113.133 34.1458 113.23 33.5484 113.424 32.9671C113.65 32.3536 113.924 31.7562 114.247 31.1749C113.924 30.626 113.65 30.0447 113.424 29.4312C113.23 28.7853 113.133 28.1556 113.133 27.5421V20.6155C113.133 19.3884 113.424 18.2905 114.005 17.3218C114.586 16.353 115.361 15.578 116.33 14.9967C117.331 14.4155 118.429 14.1249 119.624 14.1249H141.324C142.357 14.1249 143.326 14.3671 144.23 14.8514C145.134 15.3358 145.909 15.9816 146.555 16.7889C147.201 17.5962 147.621 18.4843 147.814 19.453V27.5421C147.814 28.7692 147.443 29.9801 146.7 31.1749C147.443 32.2729 147.814 33.4676 147.814 34.7593V42.5094C147.814 43.7041 147.524 44.7859 146.942 45.7547C146.361 46.7234 145.57 47.5146 144.569 48.1281C143.6 48.7094 142.518 49 141.324 49H119.624ZM119.817 43.2359H141.178C141.404 43.2359 141.598 43.1552 141.76 42.9937C141.953 42.8 142.05 42.5739 142.05 42.3156V35.0015C142.05 34.7432 141.953 34.5333 141.76 34.3718C141.598 34.1781 141.404 34.0812 141.178 34.0812H119.817C119.559 34.0812 119.333 34.1781 119.139 34.3718C118.978 34.5333 118.897 34.7432 118.897 35.0015V42.3156C118.897 42.5739 118.978 42.8 119.139 42.9937C119.333 43.1552 119.559 43.2359 119.817 43.2359ZM119.817 28.8015H141.178C141.404 28.8015 141.598 28.7208 141.76 28.5593C141.953 28.3655 142.05 28.1395 142.05 27.8812V20.8577C142.05 20.5994 141.953 20.3895 141.76 20.228C141.598 20.0343 141.404 19.9374 141.178 19.9374H119.817C119.559 19.9374 119.333 20.0343 119.139 20.228C118.978 20.3895 118.897 20.5994 118.897 20.8577V27.8812C118.897 28.1395 118.978 28.3655 119.139 28.5593C119.333 28.7208 119.559 28.8015 119.817 28.8015Z" fill="white"/>
<g filter="url(#filter0_i_79_1481)">
<rect y="58.5308" width="4.86812" height="29.2087" rx="1.21703" fill="#18CBA6"/>
</g>
<g filter="url(#filter1_i_79_1481)">
<rect y="11.2621" width="23.2749" height="42.0451" rx="1.21703" fill="#18CBA6"/>
</g>
<path d="M11.5826 34.5209V26.4446L10.5767 27.6837H8.27337L11.3494 24.0246H13.332V34.5209H11.5826Z" fill="#0C4A3D"/>
<path d="M15.1688 40.9774C15.1703 40.9258 15.1703 40.8741 15.1688 40.8225L15.704 40.1539C15.7321 40.1188 15.7515 40.0776 15.7607 40.0336C15.77 39.9896 15.7687 39.944 15.7571 39.9006C15.6692 39.5709 15.538 39.2543 15.3668 38.959C15.3444 38.9204 15.3133 38.8876 15.2759 38.8631C15.2386 38.8386 15.196 38.8232 15.1516 38.8181L14.3008 38.7234C14.2654 38.6861 14.2295 38.6502 14.1932 38.6158L14.0927 37.7628C14.0876 37.7184 14.0721 37.6758 14.0476 37.6384C14.023 37.6011 13.9901 37.5699 13.9514 37.5476C13.6562 37.3765 13.3396 37.2455 13.0098 37.158C12.9664 37.1464 12.9209 37.1452 12.8769 37.1544C12.8329 37.1636 12.7917 37.183 12.7566 37.2111L12.0898 37.7434C12.0381 37.7434 11.9864 37.7434 11.9348 37.7434L11.2662 37.2093C11.2311 37.1812 11.1899 37.1618 11.1459 37.1526C11.1019 37.1434 11.0564 37.1446 11.0129 37.1562C10.6832 37.2441 10.3666 37.3753 10.0713 37.5465C10.0327 37.5689 9.99986 37.6 9.97539 37.6374C9.95091 37.6748 9.9355 37.7173 9.93037 37.7617L9.83568 38.614C9.79837 38.6496 9.7625 38.6855 9.72807 38.7216L8.87508 38.8195C8.83067 38.8247 8.78809 38.8401 8.75073 38.8647C8.71336 38.8892 8.68224 38.9221 8.65986 38.9608C8.48888 39.2561 8.35777 39.5727 8.26995 39.9024C8.2584 39.9459 8.25721 39.9914 8.2665 40.0354C8.27578 40.0794 8.29527 40.1206 8.32339 40.1557L8.85571 40.8225C8.85571 40.8741 8.85571 40.9258 8.85571 40.9774L8.3216 41.6461C8.29354 41.6812 8.27411 41.7224 8.26489 41.7664C8.25567 41.8104 8.25691 41.8559 8.26851 41.8993C8.3564 42.229 8.48764 42.5457 8.65878 42.8409C8.68121 42.8795 8.71234 42.9124 8.74971 42.9369C8.78707 42.9613 8.82963 42.9767 8.874 42.9819L9.72484 43.0766C9.76047 43.1139 9.79634 43.1497 9.83245 43.1842L9.93181 44.0372C9.93698 44.0816 9.95244 44.1242 9.97698 44.1615C10.0015 44.1989 10.0344 44.23 10.0731 44.2524C10.3684 44.4234 10.685 44.5545 11.0147 44.6423C11.0582 44.6538 11.1037 44.655 11.1477 44.6457C11.1917 44.6365 11.2329 44.617 11.268 44.5889L11.9348 44.0565C11.9864 44.058 12.0381 44.058 12.0898 44.0565L12.7584 44.5917C12.7935 44.6198 12.8347 44.6392 12.8787 44.6484C12.9227 44.6576 12.9682 44.6564 13.0116 44.6448C13.3414 44.5571 13.658 44.4258 13.9532 44.2545C13.9918 44.2321 14.0247 44.201 14.0492 44.1636C14.0736 44.1263 14.089 44.0837 14.0942 44.0393L14.1889 43.1885C14.2262 43.1531 14.262 43.1172 14.2965 43.0809L15.1495 42.9804C15.1939 42.9753 15.2365 42.9598 15.2738 42.9353C15.3112 42.9107 15.3423 42.8778 15.3647 42.8391C15.5357 42.5438 15.6668 42.2272 15.7546 41.8975C15.7662 41.8541 15.7673 41.8085 15.7581 41.7645C15.7488 41.7205 15.7293 41.6793 15.7012 41.6443L15.1688 40.9774ZM12.0123 42.3348C11.7285 42.3348 11.4511 42.2506 11.2151 42.093C10.9792 41.9353 10.7953 41.7112 10.6867 41.449C10.5781 41.1869 10.5497 40.8984 10.605 40.6201C10.6604 40.3417 10.7971 40.0861 10.9977 39.8854C11.1984 39.6847 11.454 39.5481 11.7324 39.4927C12.0107 39.4374 12.2992 39.4658 12.5614 39.5744C12.8235 39.683 13.0476 39.8669 13.2053 40.1028C13.3629 40.3388 13.4471 40.6162 13.4471 40.9C13.4471 41.2805 13.2959 41.6455 13.0268 41.9145C12.7578 42.1836 12.3928 42.3348 12.0123 42.3348Z" fill="#0C4A3D"/>
<g filter="url(#filter2_i_79_1481)">
<rect x="6.08545" y="58.5308" width="4.86812" height="29.2087" rx="1.21703" fill="#18CBA6"/>
</g>
<g filter="url(#filter3_i_79_1481)">
<rect x="12.1704" y="58.5308" width="4.86812" height="29.2087" rx="1.21703" fill="#18CBA6"/>
</g>
<g filter="url(#filter4_i_79_1481)">
<rect x="18.2554" y="58.5308" width="4.86812" height="29.2087" rx="1.21703" fill="#18CBA6"/>
</g>
<g filter="url(#filter5_i_79_1481)">
<rect x="24.3403" y="58.5308" width="4.86812" height="29.2087" rx="1.21703" fill="#18CBA6"/>
</g>
<g filter="url(#filter6_i_79_1481)">
<rect x="30.4258" y="58.5308" width="4.86812" height="29.2087" rx="1.21703" fill="#18CBA6"/>
</g>
<g filter="url(#filter7_i_79_1481)">
<rect x="36.5112" y="58.5308" width="4.86812" height="29.2087" rx="1.21703" fill="#18CBA6"/>
</g>
<g filter="url(#filter8_i_79_1481)">
<rect x="42.5962" y="58.5308" width="4.86812" height="29.2087" rx="1.21703" fill="#18CBA6"/>
</g>
<g filter="url(#filter9_i_79_1481)">
<rect x="48.6816" y="58.5308" width="4.86812" height="29.2087" rx="1.21703" fill="#18CBA6"/>
</g>
<g filter="url(#filter10_i_79_1481)">
<rect x="54.7666" y="58.5308" width="4.86812" height="29.2087" rx="1.21703" fill="#18CBA6"/>
</g>
<g filter="url(#filter11_i_79_1481)">
<rect x="60.8516" y="58.5308" width="4.86812" height="29.2087" rx="1.21703" fill="#18CBA6"/>
</g>
<g filter="url(#filter12_i_79_1481)">
<rect x="66.937" y="58.5308" width="4.86812" height="29.2087" rx="1.21703" fill="#18CBA6"/>
</g>
<g filter="url(#filter13_i_79_1481)">
<rect x="73.0215" y="58.5308" width="4.86812" height="29.2087" rx="1.21703" fill="#18CBA6"/>
</g>
<g filter="url(#filter14_i_79_1481)">
<rect x="79.1069" y="58.5308" width="4.86812" height="29.2087" rx="1.21703" fill="#18CBA6"/>
</g>
<g filter="url(#filter15_i_79_1481)">
<rect x="84.8408" y="58.5629" width="4.86812" height="29.2087" rx="1.21703" fill="#3F3F3F"/>
</g>
<g filter="url(#filter16_i_79_1481)">
<rect x="25.5273" y="11.2621" width="23.2749" height="42.0451" rx="1.21703" fill="#3F3F3F"/>
</g>
<g filter="url(#filter17_i_79_1481)">
<rect x="90.8472" y="58.5629" width="4.86812" height="29.2087" rx="1.21703" fill="#3F3F3F"/>
</g>
<g filter="url(#filter18_i_79_1481)">
<rect x="96.854" y="58.5629" width="4.86812" height="29.2087" rx="1.21703" fill="#3F3F3F"/>
</g>
<g filter="url(#filter19_i_79_1481)">
<rect x="102.86" y="58.5629" width="4.86812" height="29.2087" rx="1.21703" fill="#3F3F3F"/>
</g>
<g filter="url(#filter20_i_79_1481)">
<rect x="108.867" y="58.5629" width="4.86812" height="29.2087" rx="1.21703" fill="#3F3F3F"/>
</g>
<g filter="url(#filter21_i_79_1481)">
<rect x="114.873" y="58.5629" width="4.86812" height="29.2087" rx="1.21703" fill="#3F3F3F"/>
</g>
<g filter="url(#filter22_i_79_1481)">
<rect x="120.879" y="58.5629" width="4.86812" height="29.2087" rx="1.21703" fill="#3F3F3F"/>
</g>
<g filter="url(#filter23_i_79_1481)">
<rect x="126.886" y="58.5629" width="4.86812" height="29.2087" rx="1.21703" fill="#3F3F3F"/>
</g>
<g filter="url(#filter24_i_79_1481)">
<rect x="132.892" y="58.5629" width="4.86812" height="29.2087" rx="1.21703" fill="#3F3F3F"/>
</g>
<g filter="url(#filter25_i_79_1481)">
<rect x="138.899" y="58.5629" width="4.86812" height="29.2087" rx="1.21703" fill="#3F3F3F"/>
</g>
<g filter="url(#filter26_i_79_1481)">
<rect x="144.905" y="58.5629" width="4.86812" height="29.2087" rx="1.21703" fill="#3F3F3F"/>
</g>
<g filter="url(#filter27_i_79_1481)">
<path d="M25.5273 33.5385C25.5273 32.6253 26.5065 32.0327 27.3757 32.3125C35.4628 34.9161 40.533 25.9762 48.2936 31.1753C48.6143 31.3902 48.8023 31.7615 48.8023 32.1476V52.0901C48.8023 52.7623 48.2574 53.3071 47.5853 53.3071H26.7444C26.0722 53.3071 25.5273 52.7623 25.5273 52.0901V33.5385Z" fill="#C79618"/>
</g>
<path d="M41.06 41.8056L40.4118 41.1581C40.3615 41.1077 40.2932 41.0795 40.2221 41.0795C40.1509 41.0795 40.0827 41.1077 40.0324 41.1581C39.9821 41.2084 39.9538 41.2766 39.9538 41.3478C39.9538 41.4189 39.9821 41.4872 40.0324 41.5375L40.6799 42.1857C40.73 42.2358 40.7582 42.3036 40.7584 42.3744V45.1018C40.7584 45.1729 40.7301 45.2411 40.6798 45.2914C40.6296 45.3417 40.5613 45.3699 40.4902 45.3699C40.4191 45.3699 40.3509 45.3417 40.3006 45.2914C40.2503 45.2411 40.2221 45.1729 40.2221 45.1018V43.7611C40.2221 43.5477 40.1373 43.3431 39.9865 43.1922C39.8356 43.0414 39.631 42.9566 39.4177 42.9566H38.8814V41.3478C38.8814 41.1344 38.7966 40.9298 38.6458 40.7789C38.4949 40.6281 38.2903 40.5433 38.0769 40.5433H35.3955C35.1821 40.5433 34.9775 40.6281 34.8267 40.7789C34.6758 40.9298 34.5911 41.1344 34.5911 41.3478V46.4425H34.0548C33.9836 46.4425 33.9154 46.4708 33.8652 46.521C33.8149 46.5713 33.7866 46.6395 33.7866 46.7107C33.7866 46.7818 33.8149 46.85 33.8652 46.9003C33.9154 46.9505 33.9836 46.9788 34.0548 46.9788H39.4177C39.4888 46.9788 39.557 46.9505 39.6073 46.9003C39.6575 46.85 39.6858 46.7818 39.6858 46.7107C39.6858 46.6395 39.6575 46.5713 39.6073 46.521C39.557 46.4708 39.4888 46.4425 39.4177 46.4425H38.8814V43.4929H39.4177C39.4888 43.4929 39.557 43.5212 39.6073 43.5715C39.6575 43.6217 39.6858 43.69 39.6858 43.7611V45.1018C39.6858 45.3151 39.7705 45.5197 39.9214 45.6706C40.0723 45.8215 40.2769 45.9062 40.4902 45.9062C40.7036 45.9062 40.9082 45.8215 41.0591 45.6706C41.2099 45.5197 41.2947 45.3151 41.2947 45.1018V42.3744C41.2951 42.2688 41.2745 42.1642 41.2343 42.0665C41.194 41.9689 41.1348 41.8802 41.06 41.8056ZM37.5215 43.8616L36.9852 45.2023C36.9586 45.2684 36.9068 45.3211 36.8412 45.349C36.7756 45.3768 36.7017 45.3775 36.6357 45.3508C36.5696 45.3242 36.5169 45.2723 36.489 45.2068C36.4612 45.1412 36.4605 45.0673 36.4872 45.0012L36.8763 44.0292H36.1999C36.156 44.0293 36.1127 44.0186 36.0739 43.998C36.035 43.9774 36.0019 43.9476 35.9773 43.9112C35.9527 43.8747 35.9374 43.8328 35.9328 43.7891C35.9282 43.7454 35.9344 43.7013 35.9509 43.6605L36.4872 42.3198C36.5004 42.2871 36.5199 42.2573 36.5446 42.2321C36.5693 42.207 36.5988 42.1869 36.6312 42.1731C36.6637 42.1594 36.6985 42.1521 36.7338 42.1518C36.7691 42.1515 36.8041 42.1581 36.8368 42.1713C36.8695 42.1845 36.8993 42.204 36.9244 42.2287C36.9496 42.2535 36.9696 42.2829 36.9834 42.3154C36.9972 42.3478 37.0045 42.3827 37.0048 42.4179C37.0051 42.4532 36.9985 42.4882 36.9852 42.5209L36.5961 43.4929H37.2725C37.3164 43.4928 37.3597 43.5036 37.3986 43.5242C37.4374 43.5447 37.4706 43.5746 37.4952 43.611C37.5198 43.6474 37.535 43.6893 37.5396 43.733C37.5442 43.7767 37.538 43.8209 37.5215 43.8616Z" fill="#362A0A"/>
<defs>
<filter id="filter0_i_79_1481" x="0" y="58.5308" width="5.61897" height="32.3621" filterUnits="userSpaceOnUse" color-interpolation-filters="sRGB">
<feFlood flood-opacity="0" result="BackgroundImageFix"/>
<feBlend mode="normal" in="SourceGraphic" in2="BackgroundImageFix" result="shape"/>
<feColorMatrix in="SourceAlpha" type="matrix" values="0 0 0 0 0 0 0 0 0 0 0 0 0 0 0 0 0 0 127 0" result="hardAlpha"/>
<feOffset dx="0.750805" dy="3.75402"/>
<feGaussianBlur stdDeviation="1.57669"/>
<feComposite in2="hardAlpha" operator="arithmetic" k2="-1" k3="1"/>
<feColorMatrix type="matrix" values="0 0 0 0 0.0675 0 0 0 0 0.6 0 0 0 0 0.486955 0 0 0 1 0"/>
<feBlend mode="normal" in2="shape" result="effect1_innerShadow_79_1481"/>
</filter>
<filter id="filter1_i_79_1481" x="0" y="11.2621" width="24.0257" height="45.1984" filterUnits="userSpaceOnUse" color-interpolation-filters="sRGB">
<feFlood flood-opacity="0" result="BackgroundImageFix"/>
<feBlend mode="normal" in="SourceGraphic" in2="BackgroundImageFix" result="shape"/>
<feColorMatrix in="SourceAlpha" type="matrix" values="0 0 0 0 0 0 0 0 0 0 0 0 0 0 0 0 0 0 127 0" result="hardAlpha"/>
<feOffset dx="0.750805" dy="3.75402"/>
<feGaussianBlur stdDeviation="1.57669"/>
<feComposite in2="hardAlpha" operator="arithmetic" k2="-1" k3="1"/>
<feColorMatrix type="matrix" values="0 0 0 0 0.0675 0 0 0 0 0.6 0 0 0 0 0.486955 0 0 0 1 0"/>
<feBlend mode="normal" in2="shape" result="effect1_innerShadow_79_1481"/>
</filter>
<filter id="filter2_i_79_1481" x="6.08545" y="58.5308" width="5.61897" height="32.3621" filterUnits="userSpaceOnUse" color-interpolation-filters="sRGB">
<feFlood flood-opacity="0" result="BackgroundImageFix"/>
<feBlend mode="normal" in="SourceGraphic" in2="BackgroundImageFix" result="shape"/>
<feColorMatrix in="SourceAlpha" type="matrix" values="0 0 0 0 0 0 0 0 0 0 0 0 0 0 0 0 0 0 127 0" result="hardAlpha"/>
<feOffset dx="0.750805" dy="3.75402"/>
<feGaussianBlur stdDeviation="1.57669"/>
<feComposite in2="hardAlpha" operator="arithmetic" k2="-1" k3="1"/>
<feColorMatrix type="matrix" values="0 0 0 0 0.0675 0 0 0 0 0.6 0 0 0 0 0.486955 0 0 0 1 0"/>
<feBlend mode="normal" in2="shape" result="effect1_innerShadow_79_1481"/>
</filter>
<filter id="filter3_i_79_1481" x="12.1704" y="58.5308" width="5.61897" height="32.3621" filterUnits="userSpaceOnUse" color-interpolation-filters="sRGB">
<feFlood flood-opacity="0" result="BackgroundImageFix"/>
<feBlend mode="normal" in="SourceGraphic" in2="BackgroundImageFix" result="shape"/>
<feColorMatrix in="SourceAlpha" type="matrix" values="0 0 0 0 0 0 0 0 0 0 0 0 0 0 0 0 0 0 127 0" result="hardAlpha"/>
<feOffset dx="0.750805" dy="3.75402"/>
<feGaussianBlur stdDeviation="1.57669"/>
<feComposite in2="hardAlpha" operator="arithmetic" k2="-1" k3="1"/>
<feColorMatrix type="matrix" values="0 0 0 0 0.0675 0 0 0 0 0.6 0 0 0 0 0.486955 0 0 0 1 0"/>
<feBlend mode="normal" in2="shape" result="effect1_innerShadow_79_1481"/>
</filter>
<filter id="filter4_i_79_1481" x="18.2554" y="58.5308" width="5.61897" height="32.3621" filterUnits="userSpaceOnUse" color-interpolation-filters="sRGB">
<feFlood flood-opacity="0" result="BackgroundImageFix"/>
<feBlend mode="normal" in="SourceGraphic" in2="BackgroundImageFix" result="shape"/>
<feColorMatrix in="SourceAlpha" type="matrix" values="0 0 0 0 0 0 0 0 0 0 0 0 0 0 0 0 0 0 127 0" result="hardAlpha"/>
<feOffset dx="0.750805" dy="3.75402"/>
<feGaussianBlur stdDeviation="1.57669"/>
<feComposite in2="hardAlpha" operator="arithmetic" k2="-1" k3="1"/>
<feColorMatrix type="matrix" values="0 0 0 0 0.0675 0 0 0 0 0.6 0 0 0 0 0.486955 0 0 0 1 0"/>
<feBlend mode="normal" in2="shape" result="effect1_innerShadow_79_1481"/>
</filter>
<filter id="filter5_i_79_1481" x="24.3403" y="58.5308" width="5.61897" height="32.3621" filterUnits="userSpaceOnUse" color-interpolation-filters="sRGB">
<feFlood flood-opacity="0" result="BackgroundImageFix"/>
<feBlend mode="normal" in="SourceGraphic" in2="BackgroundImageFix" result="shape"/>
<feColorMatrix in="SourceAlpha" type="matrix" values="0 0 0 0 0 0 0 0 0 0 0 0 0 0 0 0 0 0 127 0" result="hardAlpha"/>
<feOffset dx="0.750805" dy="3.75402"/>
<feGaussianBlur stdDeviation="1.57669"/>
<feComposite in2="hardAlpha" operator="arithmetic" k2="-1" k3="1"/>
<feColorMatrix type="matrix" values="0 0 0 0 0.0675 0 0 0 0 0.6 0 0 0 0 0.486955 0 0 0 1 0"/>
<feBlend mode="normal" in2="shape" result="effect1_innerShadow_79_1481"/>
</filter>
<filter id="filter6_i_79_1481" x="30.4258" y="58.5308" width="5.61897" height="32.3621" filterUnits="userSpaceOnUse" color-interpolation-filters="sRGB">
<feFlood flood-opacity="0" result="BackgroundImageFix"/>
<feBlend mode="normal" in="SourceGraphic" in2="BackgroundImageFix" result="shape"/>
<feColorMatrix in="SourceAlpha" type="matrix" values="0 0 0 0 0 0 0 0 0 0 0 0 0 0 0 0 0 0 127 0" result="hardAlpha"/>
<feOffset dx="0.750805" dy="3.75402"/>
<feGaussianBlur stdDeviation="1.57669"/>
<feComposite in2="hardAlpha" operator="arithmetic" k2="-1" k3="1"/>
<feColorMatrix type="matrix" values="0 0 0 0 0.0675 0 0 0 0 0.6 0 0 0 0 0.486955 0 0 0 1 0"/>
<feBlend mode="normal" in2="shape" result="effect1_innerShadow_79_1481"/>
</filter>
<filter id="filter7_i_79_1481" x="36.5112" y="58.5308" width="5.61897" height="32.3621" filterUnits="userSpaceOnUse" color-interpolation-filters="sRGB">
<feFlood flood-opacity="0" result="BackgroundImageFix"/>
<feBlend mode="normal" in="SourceGraphic" in2="BackgroundImageFix" result="shape"/>
<feColorMatrix in="SourceAlpha" type="matrix" values="0 0 0 0 0 0 0 0 0 0 0 0 0 0 0 0 0 0 127 0" result="hardAlpha"/>
<feOffset dx="0.750805" dy="3.75402"/>
<feGaussianBlur stdDeviation="1.57669"/>
<feComposite in2="hardAlpha" operator="arithmetic" k2="-1" k3="1"/>
<feColorMatrix type="matrix" values="0 0 0 0 0.0675 0 0 0 0 0.6 0 0 0 0 0.486955 0 0 0 1 0"/>
<feBlend mode="normal" in2="shape" result="effect1_innerShadow_79_1481"/>
</filter>
<filter id="filter8_i_79_1481" x="42.5962" y="58.5308" width="5.61897" height="32.3621" filterUnits="userSpaceOnUse" color-interpolation-filters="sRGB">
<feFlood flood-opacity="0" result="BackgroundImageFix"/>
<feBlend mode="normal" in="SourceGraphic" in2="BackgroundImageFix" result="shape"/>
<feColorMatrix in="SourceAlpha" type="matrix" values="0 0 0 0 0 0 0 0 0 0 0 0 0 0 0 0 0 0 127 0" result="hardAlpha"/>
<feOffset dx="0.750805" dy="3.75402"/>
<feGaussianBlur stdDeviation="1.57669"/>
<feComposite in2="hardAlpha" operator="arithmetic" k2="-1" k3="1"/>
<feColorMatrix type="matrix" values="0 0 0 0 0.0675 0 0 0 0 0.6 0 0 0 0 0.486955 0 0 0 1 0"/>
<feBlend mode="normal" in2="shape" result="effect1_innerShadow_79_1481"/>
</filter>
<filter id="filter9_i_79_1481" x="48.6816" y="58.5308" width="5.61897" height="32.3621" filterUnits="userSpaceOnUse" color-interpolation-filters="sRGB">
<feFlood flood-opacity="0" result="BackgroundImageFix"/>
<feBlend mode="normal" in="SourceGraphic" in2="BackgroundImageFix" result="shape"/>
<feColorMatrix in="SourceAlpha" type="matrix" values="0 0 0 0 0 0 0 0 0 0 0 0 0 0 0 0 0 0 127 0" result="hardAlpha"/>
<feOffset dx="0.750805" dy="3.75402"/>
<feGaussianBlur stdDeviation="1.57669"/>
<feComposite in2="hardAlpha" operator="arithmetic" k2="-1" k3="1"/>
<feColorMatrix type="matrix" values="0 0 0 0 0.0675 0 0 0 0 0.6 0 0 0 0 0.486955 0 0 0 1 0"/>
<feBlend mode="normal" in2="shape" result="effect1_innerShadow_79_1481"/>
</filter>
<filter id="filter10_i_79_1481" x="54.7666" y="58.5308" width="5.61897" height="32.3621" filterUnits="userSpaceOnUse" color-interpolation-filters="sRGB">
<feFlood flood-opacity="0" result="BackgroundImageFix"/>
<feBlend mode="normal" in="SourceGraphic" in2="BackgroundImageFix" result="shape"/>
<feColorMatrix in="SourceAlpha" type="matrix" values="0 0 0 0 0 0 0 0 0 0 0 0 0 0 0 0 0 0 127 0" result="hardAlpha"/>
<feOffset dx="0.750805" dy="3.75402"/>
<feGaussianBlur stdDeviation="1.57669"/>
<feComposite in2="hardAlpha" operator="arithmetic" k2="-1" k3="1"/>
<feColorMatrix type="matrix" values="0 0 0 0 0.0675 0 0 0 0 0.6 0 0 0 0 0.486955 0 0 0 1 0"/>
<feBlend mode="normal" in2="shape" result="effect1_innerShadow_79_1481"/>
</filter>
<filter id="filter11_i_79_1481" x="60.8516" y="58.5308" width="5.61897" height="32.3621" filterUnits="userSpaceOnUse" color-interpolation-filters="sRGB">
<feFlood flood-opacity="0" result="BackgroundImageFix"/>
<feBlend mode="normal" in="SourceGraphic" in2="BackgroundImageFix" result="shape"/>
<feColorMatrix in="SourceAlpha" type="matrix" values="0 0 0 0 0 0 0 0 0 0 0 0 0 0 0 0 0 0 127 0" result="hardAlpha"/>
<feOffset dx="0.750805" dy="3.75402"/>
<feGaussianBlur stdDeviation="1.57669"/>
<feComposite in2="hardAlpha" operator="arithmetic" k2="-1" k3="1"/>
<feColorMatrix type="matrix" values="0 0 0 0 0.0675 0 0 0 0 0.6 0 0 0 0 0.486955 0 0 0 1 0"/>
<feBlend mode="normal" in2="shape" result="effect1_innerShadow_79_1481"/>
</filter>
<filter id="filter12_i_79_1481" x="66.937" y="58.5308" width="5.61897" height="32.3621" filterUnits="userSpaceOnUse" color-interpolation-filters="sRGB">
<feFlood flood-opacity="0" result="BackgroundImageFix"/>
<feBlend mode="normal" in="SourceGraphic" in2="BackgroundImageFix" result="shape"/>
<feColorMatrix in="SourceAlpha" type="matrix" values="0 0 0 0 0 0 0 0 0 0 0 0 0 0 0 0 0 0 127 0" result="hardAlpha"/>
<feOffset dx="0.750805" dy="3.75402"/>
<feGaussianBlur stdDeviation="1.57669"/>
<feComposite in2="hardAlpha" operator="arithmetic" k2="-1" k3="1"/>
<feColorMatrix type="matrix" values="0 0 0 0 0.0675 0 0 0 0 0.6 0 0 0 0 0.486955 0 0 0 1 0"/>
<feBlend mode="normal" in2="shape" result="effect1_innerShadow_79_1481"/>
</filter>
<filter id="filter13_i_79_1481" x="73.0215" y="58.5308" width="5.61897" height="32.3621" filterUnits="userSpaceOnUse" color-interpolation-filters="sRGB">
<feFlood flood-opacity="0" result="BackgroundImageFix"/>
<feBlend mode="normal" in="SourceGraphic" in2="BackgroundImageFix" result="shape"/>
<feColorMatrix in="SourceAlpha" type="matrix" values="0 0 0 0 0 0 0 0 0 0 0 0 0 0 0 0 0 0 127 0" result="hardAlpha"/>
<feOffset dx="0.750805" dy="3.75402"/>
<feGaussianBlur stdDeviation="1.57669"/>
<feComposite in2="hardAlpha" operator="arithmetic" k2="-1" k3="1"/>
<feColorMatrix type="matrix" values="0 0 0 0 0.0675 0 0 0 0 0.6 0 0 0 0 0.486955 0 0 0 1 0"/>
<feBlend mode="normal" in2="shape" result="effect1_innerShadow_79_1481"/>
</filter>
<filter id="filter14_i_79_1481" x="79.1069" y="58.5308" width="5.61897" height="32.3621" filterUnits="userSpaceOnUse" color-interpolation-filters="sRGB">
<feFlood flood-opacity="0" result="BackgroundImageFix"/>
<feBlend mode="normal" in="SourceGraphic" in2="BackgroundImageFix" result="shape"/>
<feColorMatrix in="SourceAlpha" type="matrix" values="0 0 0 0 0 0 0 0 0 0 0 0 0 0 0 0 0 0 127 0" result="hardAlpha"/>
<feOffset dx="0.750805" dy="3.75402"/>
<feGaussianBlur stdDeviation="1.57669"/>
<feComposite in2="hardAlpha" operator="arithmetic" k2="-1" k3="1"/>
<feColorMatrix type="matrix" values="0 0 0 0 0.0675 0 0 0 0 0.6 0 0 0 0 0.486955 0 0 0 1 0"/>
<feBlend mode="normal" in2="shape" result="effect1_innerShadow_79_1481"/>
</filter>
<filter id="filter15_i_79_1481" x="84.8408" y="58.5629" width="5.61897" height="32.3621" filterUnits="userSpaceOnUse" color-interpolation-filters="sRGB">
<feFlood flood-opacity="0" result="BackgroundImageFix"/>
<feBlend mode="normal" in="SourceGraphic" in2="BackgroundImageFix" result="shape"/>
<feColorMatrix in="SourceAlpha" type="matrix" values="0 0 0 0 0 0 0 0 0 0 0 0 0 0 0 0 0 0 127 0" result="hardAlpha"/>
<feOffset dx="0.750805" dy="3.75402"/>
<feGaussianBlur stdDeviation="1.57669"/>
<feComposite in2="hardAlpha" operator="arithmetic" k2="-1" k3="1"/>
<feColorMatrix type="matrix" values="0 0 0 0 0.395833 0 0 0 0 0.395833 0 0 0 0 0.395833 0 0 0 1 0"/>
<feBlend mode="normal" in2="shape" result="effect1_innerShadow_79_1481"/>
</filter>
<filter id="filter16_i_79_1481" x="25.5273" y="11.2621" width="24.0257" height="45.1984" filterUnits="userSpaceOnUse" color-interpolation-filters="sRGB">
<feFlood flood-opacity="0" result="BackgroundImageFix"/>
<feBlend mode="normal" in="SourceGraphic" in2="BackgroundImageFix" result="shape"/>
<feColorMatrix in="SourceAlpha" type="matrix" values="0 0 0 0 0 0 0 0 0 0 0 0 0 0 0 0 0 0 127 0" result="hardAlpha"/>
<feOffset dx="0.750805" dy="3.75402"/>
<feGaussianBlur stdDeviation="1.57669"/>
<feComposite in2="hardAlpha" operator="arithmetic" k2="-1" k3="1"/>
<feColorMatrix type="matrix" values="0 0 0 0 0.395833 0 0 0 0 0.395833 0 0 0 0 0.395833 0 0 0 1 0"/>
<feBlend mode="normal" in2="shape" result="effect1_innerShadow_79_1481"/>
</filter>
<filter id="filter17_i_79_1481" x="90.8472" y="58.5629" width="5.61897" height="32.3621" filterUnits="userSpaceOnUse" color-interpolation-filters="sRGB">
<feFlood flood-opacity="0" result="BackgroundImageFix"/>
<feBlend mode="normal" in="SourceGraphic" in2="BackgroundImageFix" result="shape"/>
<feColorMatrix in="SourceAlpha" type="matrix" values="0 0 0 0 0 0 0 0 0 0 0 0 0 0 0 0 0 0 127 0" result="hardAlpha"/>
<feOffset dx="0.750805" dy="3.75402"/>
<feGaussianBlur stdDeviation="1.57669"/>
<feComposite in2="hardAlpha" operator="arithmetic" k2="-1" k3="1"/>
<feColorMatrix type="matrix" values="0 0 0 0 0.395833 0 0 0 0 0.395833 0 0 0 0 0.395833 0 0 0 1 0"/>
<feBlend mode="normal" in2="shape" result="effect1_innerShadow_79_1481"/>
</filter>
<filter id="filter18_i_79_1481" x="96.854" y="58.5629" width="5.61897" height="32.3621" filterUnits="userSpaceOnUse" color-interpolation-filters="sRGB">
<feFlood flood-opacity="0" result="BackgroundImageFix"/>
<feBlend mode="normal" in="SourceGraphic" in2="BackgroundImageFix" result="shape"/>
<feColorMatrix in="SourceAlpha" type="matrix" values="0 0 0 0 0 0 0 0 0 0 0 0 0 0 0 0 0 0 127 0" result="hardAlpha"/>
<feOffset dx="0.750805" dy="3.75402"/>
<feGaussianBlur stdDeviation="1.57669"/>
<feComposite in2="hardAlpha" operator="arithmetic" k2="-1" k3="1"/>
<feColorMatrix type="matrix" values="0 0 0 0 0.395833 0 0 0 0 0.395833 0 0 0 0 0.395833 0 0 0 1 0"/>
<feBlend mode="normal" in2="shape" result="effect1_innerShadow_79_1481"/>
</filter>
<filter id="filter19_i_79_1481" x="102.86" y="58.5629" width="5.61897" height="32.3621" filterUnits="userSpaceOnUse" color-interpolation-filters="sRGB">
<feFlood flood-opacity="0" result="BackgroundImageFix"/>
<feBlend mode="normal" in="SourceGraphic" in2="BackgroundImageFix" result="shape"/>
<feColorMatrix in="SourceAlpha" type="matrix" values="0 0 0 0 0 0 0 0 0 0 0 0 0 0 0 0 0 0 127 0" result="hardAlpha"/>
<feOffset dx="0.750805" dy="3.75402"/>
<feGaussianBlur stdDeviation="1.57669"/>
<feComposite in2="hardAlpha" operator="arithmetic" k2="-1" k3="1"/>
<feColorMatrix type="matrix" values="0 0 0 0 0.395833 0 0 0 0 0.395833 0 0 0 0 0.395833 0 0 0 1 0"/>
<feBlend mode="normal" in2="shape" result="effect1_innerShadow_79_1481"/>
</filter>
<filter id="filter20_i_79_1481" x="108.867" y="58.5629" width="5.61897" height="32.3621" filterUnits="userSpaceOnUse" color-interpolation-filters="sRGB">
<feFlood flood-opacity="0" result="BackgroundImageFix"/>
<feBlend mode="normal" in="SourceGraphic" in2="BackgroundImageFix" result="shape"/>
<feColorMatrix in="SourceAlpha" type="matrix" values="0 0 0 0 0 0 0 0 0 0 0 0 0 0 0 0 0 0 127 0" result="hardAlpha"/>
<feOffset dx="0.750805" dy="3.75402"/>
<feGaussianBlur stdDeviation="1.57669"/>
<feComposite in2="hardAlpha" operator="arithmetic" k2="-1" k3="1"/>
<feColorMatrix type="matrix" values="0 0 0 0 0.395833 0 0 0 0 0.395833 0 0 0 0 0.395833 0 0 0 1 0"/>
<feBlend mode="normal" in2="shape" result="effect1_innerShadow_79_1481"/>
</filter>
<filter id="filter21_i_79_1481" x="114.873" y="58.5629" width="5.61897" height="32.3621" filterUnits="userSpaceOnUse" color-interpolation-filters="sRGB">
<feFlood flood-opacity="0" result="BackgroundImageFix"/>
<feBlend mode="normal" in="SourceGraphic" in2="BackgroundImageFix" result="shape"/>
<feColorMatrix in="SourceAlpha" type="matrix" values="0 0 0 0 0 0 0 0 0 0 0 0 0 0 0 0 0 0 127 0" result="hardAlpha"/>
<feOffset dx="0.750805" dy="3.75402"/>
<feGaussianBlur stdDeviation="1.57669"/>
<feComposite in2="hardAlpha" operator="arithmetic" k2="-1" k3="1"/>
<feColorMatrix type="matrix" values="0 0 0 0 0.395833 0 0 0 0 0.395833 0 0 0 0 0.395833 0 0 0 1 0"/>
<feBlend mode="normal" in2="shape" result="effect1_innerShadow_79_1481"/>
</filter>
<filter id="filter22_i_79_1481" x="120.879" y="58.5629" width="5.61897" height="32.3621" filterUnits="userSpaceOnUse" color-interpolation-filters="sRGB">
<feFlood flood-opacity="0" result="BackgroundImageFix"/>
<feBlend mode="normal" in="SourceGraphic" in2="BackgroundImageFix" result="shape"/>
<feColorMatrix in="SourceAlpha" type="matrix" values="0 0 0 0 0 0 0 0 0 0 0 0 0 0 0 0 0 0 127 0" result="hardAlpha"/>
<feOffset dx="0.750805" dy="3.75402"/>
<feGaussianBlur stdDeviation="1.57669"/>
<feComposite in2="hardAlpha" operator="arithmetic" k2="-1" k3="1"/>
<feColorMatrix type="matrix" values="0 0 0 0 0.395833 0 0 0 0 0.395833 0 0 0 0 0.395833 0 0 0 1 0"/>
<feBlend mode="normal" in2="shape" result="effect1_innerShadow_79_1481"/>
</filter>
<filter id="filter23_i_79_1481" x="126.886" y="58.5629" width="5.61897" height="32.3621" filterUnits="userSpaceOnUse" color-interpolation-filters="sRGB">
<feFlood flood-opacity="0" result="BackgroundImageFix"/>
<feBlend mode="normal" in="SourceGraphic" in2="BackgroundImageFix" result="shape"/>
<feColorMatrix in="SourceAlpha" type="matrix" values="0 0 0 0 0 0 0 0 0 0 0 0 0 0 0 0 0 0 127 0" result="hardAlpha"/>
<feOffset dx="0.750805" dy="3.75402"/>
<feGaussianBlur stdDeviation="1.57669"/>
<feComposite in2="hardAlpha" operator="arithmetic" k2="-1" k3="1"/>
<feColorMatrix type="matrix" values="0 0 0 0 0.395833 0 0 0 0 0.395833 0 0 0 0 0.395833 0 0 0 1 0"/>
<feBlend mode="normal" in2="shape" result="effect1_innerShadow_79_1481"/>
</filter>
<filter id="filter24_i_79_1481" x="132.892" y="58.5629" width="5.61897" height="32.3621" filterUnits="userSpaceOnUse" color-interpolation-filters="sRGB">
<feFlood flood-opacity="0" result="BackgroundImageFix"/>
<feBlend mode="normal" in="SourceGraphic" in2="BackgroundImageFix" result="shape"/>
<feColorMatrix in="SourceAlpha" type="matrix" values="0 0 0 0 0 0 0 0 0 0 0 0 0 0 0 0 0 0 127 0" result="hardAlpha"/>
<feOffset dx="0.750805" dy="3.75402"/>
<feGaussianBlur stdDeviation="1.57669"/>
<feComposite in2="hardAlpha" operator="arithmetic" k2="-1" k3="1"/>
<feColorMatrix type="matrix" values="0 0 0 0 0.395833 0 0 0 0 0.395833 0 0 0 0 0.395833 0 0 0 1 0"/>
<feBlend mode="normal" in2="shape" result="effect1_innerShadow_79_1481"/>
</filter>
<filter id="filter25_i_79_1481" x="138.899" y="58.5629" width="5.61897" height="32.3621" filterUnits="userSpaceOnUse" color-interpolation-filters="sRGB">
<feFlood flood-opacity="0" result="BackgroundImageFix"/>
<feBlend mode="normal" in="SourceGraphic" in2="BackgroundImageFix" result="shape"/>
<feColorMatrix in="SourceAlpha" type="matrix" values="0 0 0 0 0 0 0 0 0 0 0 0 0 0 0 0 0 0 127 0" result="hardAlpha"/>
<feOffset dx="0.750805" dy="3.75402"/>
<feGaussianBlur stdDeviation="1.57669"/>
<feComposite in2="hardAlpha" operator="arithmetic" k2="-1" k3="1"/>
<feColorMatrix type="matrix" values="0 0 0 0 0.395833 0 0 0 0 0.395833 0 0 0 0 0.395833 0 0 0 1 0"/>
<feBlend mode="normal" in2="shape" result="effect1_innerShadow_79_1481"/>
</filter>
<filter id="filter26_i_79_1481" x="144.905" y="58.5629" width="5.61897" height="32.3621" filterUnits="userSpaceOnUse" color-interpolation-filters="sRGB">
<feFlood flood-opacity="0" result="BackgroundImageFix"/>
<feBlend mode="normal" in="SourceGraphic" in2="BackgroundImageFix" result="shape"/>
<feColorMatrix in="SourceAlpha" type="matrix" values="0 0 0 0 0 0 0 0 0 0 0 0 0 0 0 0 0 0 127 0" result="hardAlpha"/>
<feOffset dx="0.750805" dy="3.75402"/>
<feGaussianBlur stdDeviation="1.57669"/>
<feComposite in2="hardAlpha" operator="arithmetic" k2="-1" k3="1"/>
<feColorMatrix type="matrix" values="0 0 0 0 0.395833 0 0 0 0 0.395833 0 0 0 0 0.395833 0 0 0 1 0"/>
<feBlend mode="normal" in2="shape" result="effect1_innerShadow_79_1481"/>
</filter>
<filter id="filter27_i_79_1481" x="25.5273" y="29.519" width="24.0257" height="26.9415" filterUnits="userSpaceOnUse" color-interpolation-filters="sRGB">
<feFlood flood-opacity="0" result="BackgroundImageFix"/>
<feBlend mode="normal" in="SourceGraphic" in2="BackgroundImageFix" result="shape"/>
<feColorMatrix in="SourceAlpha" type="matrix" values="0 0 0 0 0 0 0 0 0 0 0 0 0 0 0 0 0 0 127 0" result="hardAlpha"/>
<feOffset dx="0.750805" dy="3.75402"/>
<feGaussianBlur stdDeviation="1.57669"/>
<feComposite in2="hardAlpha" operator="arithmetic" k2="-1" k3="1"/>
<feColorMatrix type="matrix" values="0 0 0 0 0.6125 0 0 0 0 0.460294 0 0 0 0 0.0689062 0 0 0 1 0"/>
<feBlend mode="normal" in2="shape" result="effect1_innerShadow_79_1481"/>
</filter>
</defs>
</svg>
