<svg width="92" height="89" viewBox="0 0 92 89" fill="none" xmlns="http://www.w3.org/2000/svg">
<path d="M0 88.0346V0H90.9955V67.1116L69.2829 88.0346H0Z" fill="#FFF5F5"/>
<path d="M17.85 54.2172C17.1678 54.2172 16.5468 54.0335 15.987 53.6661C15.4273 53.2813 14.9724 52.7915 14.6226 52.1968C14.2902 51.5845 14.124 50.946 14.124 50.2813V39.1297C14.124 38.4475 14.2902 37.8177 14.6226 37.2405C14.9724 36.6632 15.4273 36.1997 15.987 35.8498C16.5468 35.4999 17.1678 35.325 17.85 35.325H29.0278C29.7101 35.325 30.3311 35.4999 30.8908 35.8498C31.4506 36.1997 31.8967 36.6632 32.229 37.2405C32.5789 37.8177 32.7538 38.4475 32.7538 39.1297V50.2813C32.7538 50.946 32.5789 51.5845 32.229 52.1968C31.8967 52.7915 31.4506 53.2813 30.8908 53.6661C30.3311 54.0335 29.7101 54.2172 29.0278 54.2172H17.85ZM19.7392 50.2551H28.8704C28.9054 50.2551 28.9404 50.2463 28.9754 50.2288C29.0104 50.1938 29.0278 50.1501 29.0278 50.0976V42.4883L19.7392 50.2551ZM17.85 46.9227L27.1386 39.1559H18.0074C17.9724 39.1559 17.9375 39.1734 17.9025 39.2084C17.8675 39.2259 17.85 39.2609 17.85 39.3134V46.9227Z" fill="black" fill-opacity="0.3"/>
<path d="M39.6543 54.2172C39.042 54.2172 38.4735 54.051 37.9487 53.7186C37.4414 53.3863 36.9954 52.9402 36.6105 52.3804C36.2432 51.8207 35.9983 51.1909 35.8758 50.4912H50.6485C50.7009 50.4912 50.7359 50.4737 50.7534 50.4387C50.7884 50.4037 50.8059 50.3688 50.8059 50.3338V46.8965C50.8059 46.8615 50.7884 46.8265 50.7534 46.7915C50.7359 46.7565 50.7009 46.739 50.6485 46.739H39.6543C38.9546 46.739 38.3248 46.5728 37.7651 46.2405C37.2228 45.8906 36.7767 45.4358 36.4269 44.876C36.0945 44.3163 35.9283 43.6953 35.9283 43.0131V39.0247C35.9283 38.3425 36.0945 37.7215 36.4269 37.1618C36.7592 36.602 37.2053 36.1559 37.7651 35.8236C38.3423 35.4912 38.9721 35.325 39.6543 35.325H50.8321C51.5143 35.325 52.1353 35.4912 52.6951 35.8236C53.2724 36.1559 53.7272 36.602 54.0595 37.1618C54.3919 37.7215 54.5581 38.3425 54.5581 39.0247V50.5175C54.5581 51.1822 54.3919 51.7944 54.0595 52.3542C53.7272 52.914 53.2724 53.3688 52.6951 53.7186C52.1353 54.051 51.5143 54.2172 50.8321 54.2172H39.6543ZM39.8379 42.9868H50.8059V39.2084C50.8059 39.1734 50.7884 39.1384 50.7534 39.1034C50.7359 39.0685 50.7009 39.051 50.6485 39.051H39.8379C39.7855 39.051 39.7417 39.0685 39.7067 39.1034C39.6893 39.1384 39.6805 39.1734 39.6805 39.2084V42.8294C39.6805 42.8819 39.6893 42.9256 39.7067 42.9606C39.7417 42.9781 39.7855 42.9868 39.8379 42.9868ZM61.3835 54.2172C60.7713 54.2172 60.2028 54.051 59.678 53.7186C59.1707 53.3863 58.7246 52.9402 58.3398 52.3804C57.9724 51.8207 57.7275 51.1909 57.6051 50.4912H72.3777C72.4302 50.4912 72.4652 50.4737 72.4827 50.4387C72.5176 50.4037 72.5351 50.3688 72.5351 50.3338V46.8965C72.5351 46.8615 72.5176 46.8265 72.4827 46.7915C72.4652 46.7565 72.4302 46.739 72.3777 46.739H61.3835C60.6838 46.739 60.0541 46.5728 59.4943 46.2405C58.952 45.8906 58.506 45.4358 58.1561 44.876C57.8237 44.3163 57.6576 43.6953 57.6576 43.0131V39.0247C57.6576 38.3425 57.8237 37.7215 58.1561 37.1618C58.4885 36.602 58.9345 36.1559 59.4943 35.8236C60.0716 35.4912 60.7013 35.325 61.3835 35.325H72.5614C73.2436 35.325 73.8646 35.4912 74.4243 35.8236C75.0016 36.1559 75.4564 36.602 75.7888 37.1618C76.1211 37.7215 76.2873 38.3425 76.2873 39.0247V50.5175C76.2873 51.1822 76.1211 51.7944 75.7888 52.3542C75.4564 52.914 75.0016 53.3688 74.4243 53.7186C73.8646 54.051 73.2436 54.2172 72.5614 54.2172H61.3835ZM61.5672 42.9868H72.5351V39.2084C72.5351 39.1734 72.5176 39.1384 72.4827 39.1034C72.4652 39.0685 72.4302 39.051 72.3777 39.051H61.5672C61.5147 39.051 61.471 39.0685 61.436 39.1034C61.4185 39.1384 61.4098 39.1734 61.4098 39.2084V42.8294C61.4098 42.8819 61.4185 42.9256 61.436 42.9606C61.471 42.9781 61.5147 42.9868 61.5672 42.9868Z" fill="black"/>
<path d="M55.857 63.0094V57.5806H56.9503V59.7446H58.119L59.9286 57.5806H61.0898V57.9275L59.0992 60.295L61.0898 62.6626V63.0094H59.9286L58.119 60.8454H56.9503V63.0094H55.857ZM61.8579 63.0094V57.5806H63.0115L64.9116 59.8502L66.8041 57.5806H67.9653V63.0094H66.872V59.2017L64.9116 61.5466L62.9437 59.2093V63.0094H61.8579ZM68.8605 63.0094V57.5806H69.9463V59.7446H73.3166V57.5806H74.4024V63.0094H73.3166V60.8454H69.9463V63.0094H68.8605Z" fill="black"/>
<path d="M28.2929 15.2715C28.4011 14.9133 28.1916 14.5349 27.8334 14.4335C27.7658 14.4132 27.705 14.3929 27.6374 14.3794C27.6306 13.7779 27.509 13.1967 27.2859 12.6695L23.6161 15.2918C24.907 15.2175 26.2046 15.3594 27.4549 15.7311C27.8131 15.8325 28.1916 15.6297 28.2929 15.2715ZM25.462 20.5874C25.5115 20.5986 25.5617 20.6039 25.6105 20.6039C25.9201 20.6039 26.1986 20.3908 26.2692 20.0759L26.945 17.0637C27.019 16.7336 26.8381 16.4004 26.5213 16.2822C25.0613 15.7397 23.4549 15.7397 21.995 16.2822C21.6781 16.4003 21.4974 16.7336 21.5712 17.0637L22.2471 20.0759C22.3289 20.4408 22.6919 20.6705 23.0542 20.5874C23.4186 20.5055 23.6475 20.1445 23.5657 19.7802L23.0264 17.3752C23.8395 17.1719 24.6764 17.1719 25.4895 17.3752L24.9503 19.7802C24.8686 20.1445 25.0977 20.5056 25.462 20.5874ZM18.9798 16.9409C19.1083 17.1233 19.3178 17.2247 19.5273 17.2247C19.6624 17.2247 19.8044 17.1842 19.9193 17.0963L29.381 10.3379C29.6852 10.1216 29.7527 9.7026 29.5365 9.39847C29.3202 9.09435 28.9012 9.02676 28.5971 9.24303L26.0424 11.0678C25.9956 11.0319 25.9456 11.0039 25.8973 10.9715C26.139 10.6378 26.2857 10.2316 26.2857 9.79046C26.2857 8.67532 25.3733 7.76294 24.2582 7.76294C23.143 7.76294 22.2306 8.67532 22.2306 9.79046C22.2306 10.2337 22.379 10.6414 22.6227 10.976C21.715 11.5716 21.058 12.6365 20.9128 13.8996C20.8925 14.055 20.879 14.2172 20.879 14.3794C20.8114 14.3929 20.7505 14.4132 20.683 14.4335C20.3383 14.5281 20.1288 14.8863 20.2166 15.231L19.1353 16.0014C18.8312 16.2177 18.7636 16.6367 18.9798 16.9409Z" fill="#040F0A"/>
<path fill-rule="evenodd" clip-rule="evenodd" d="M51.6695 16.0986V13.1261C51.6695 13.0275 51.6304 12.933 51.5607 12.8634C51.491 12.7937 51.3965 12.7545 51.2979 12.7545C51.1994 12.7545 51.1049 12.7937 51.0352 12.8634C50.9655 12.933 50.9264 13.0275 50.9264 13.1261V14.2408H50.1832V13.4977C50.1832 13.3006 50.1049 13.1116 49.9656 12.9722C49.8262 12.8328 49.6372 12.7545 49.4401 12.7545H48.8507L47.5535 11.4574L43.3514 18.2664L43.3642 18.2719C43.4544 18.3093 43.5511 18.3284 43.6487 18.3281H46.6854C46.783 18.3284 46.8797 18.3093 46.9699 18.2719C47.0601 18.2345 47.1419 18.1795 47.2107 18.1102L48.8507 16.4702H49.4401C49.6372 16.4702 49.8262 16.3919 49.9656 16.2526C50.1049 16.1132 50.1832 15.9242 50.1832 15.7271V14.9839H50.9264V16.0986C50.9264 16.1972 50.9655 16.2917 51.0352 16.3614C51.1049 16.4311 51.1994 16.4702 51.2979 16.4702C51.3965 16.4702 51.491 16.4311 51.5607 16.3614C51.6304 16.2917 51.6695 16.1972 51.6695 16.0986ZM42.6397 17.6265L46.7886 10.9036C46.7545 10.8989 46.72 10.8966 46.6854 10.8967H45.7244V10.1535H46.8391C46.9377 10.1535 47.0322 10.1144 47.1019 10.0447C47.1715 9.97503 47.2107 9.88052 47.2107 9.78197C47.2107 9.68342 47.1715 9.58891 47.1019 9.51923C47.0322 9.44955 46.9377 9.4104 46.8391 9.4104H43.8666C43.768 9.4104 43.6735 9.44955 43.6038 9.51923C43.5341 9.58891 43.495 9.68342 43.495 9.78197C43.495 9.88052 43.5341 9.97503 43.6038 10.0447C43.6735 10.1144 43.768 10.1535 43.8666 10.1535H44.9813V10.8967H42.0087C41.8116 10.8967 41.6226 10.975 41.4832 11.1143C41.3439 11.2537 41.2656 11.4427 41.2656 11.6398V14.2408H40.5224V13.1261C40.5224 13.0275 40.4833 12.933 40.4136 12.8634C40.3439 12.7937 40.2494 12.7545 40.1509 12.7545C40.0523 12.7545 39.9578 12.7937 39.8881 12.8634C39.8184 12.933 39.7793 13.0275 39.7793 13.1261V16.0986C39.7793 16.1972 39.8184 16.2917 39.8881 16.3614C39.9578 16.4311 40.0523 16.4702 40.1509 16.4702C40.2494 16.4702 40.3439 16.4311 40.4136 16.3614C40.4833 16.2917 40.5224 16.1972 40.5224 16.0986V14.9839H41.2656V15.9449C41.2653 16.0425 41.2844 16.1393 41.3218 16.2294C41.3592 16.3196 41.4141 16.4015 41.4834 16.4702L42.6397 17.6265Z" fill="#898989"/>
<path d="M63.016 18.2684C63.0387 18.411 63.1617 18.516 63.3061 18.516H70.8143C71.2109 18.516 71.5988 18.3632 71.8677 18.0708C71.9329 18 71.993 17.9217 72.0506 17.8403H62.9477L63.016 18.2684ZM62.8524 16.8665H72.2495C72.3306 16.8665 72.406 16.8883 72.4733 16.9235C72.6813 16.1573 72.6352 15.2473 72.2276 14.4478C72.1292 14.2553 71.9808 14.0922 71.8074 13.9644L68.202 11.3081C67.2544 10.6117 66.1099 10.2341 64.9331 10.2341H62.0791C61.8983 10.2341 61.7604 10.3958 61.7889 10.5742L62.7934 16.8724C62.8129 16.87 62.8322 16.8665 62.8524 16.8665ZM64.9905 15.1774C64.9905 15.2314 64.9468 15.2751 64.8928 15.2751H63.4645C63.4106 15.2751 63.3668 15.2314 63.3668 15.1774V14.9487C63.3668 14.8948 63.4106 14.8511 63.4645 14.8511H64.8928C64.9468 14.8511 64.9905 14.8948 64.9905 14.9487L64.9905 15.1774ZM64.9331 10.9687C65.9586 10.9687 66.9385 11.2905 67.7672 11.9002L70.0885 13.6104H63.0172L62.5956 10.9687H64.9331ZM72.2495 17.0965H62.8524C62.7106 17.0965 62.5956 17.2115 62.5956 17.3534C62.5956 17.4952 62.7106 17.6102 62.8524 17.6102H72.2495C72.3914 17.6102 72.5064 17.4952 72.5064 17.3534C72.5064 17.2115 72.3914 17.0965 72.2495 17.0965Z" fill="#898989"/>
<path d="M5.85498 82.4637V78.7001L5.529 79.1076H4.12876L5.7883 77.1295H6.91442V82.4637H5.85498Z" fill="#898989"/>
<path d="M15.032 82.4637V80.4041C15.032 80.2115 15.0789 80.0362 15.1727 79.8781C15.2715 79.7201 15.3999 79.5941 15.558 79.5003C15.716 79.4064 15.8914 79.3595 16.084 79.3595H19.1957C19.2055 79.3595 19.2154 79.3546 19.2253 79.3447C19.2352 79.3348 19.2401 79.3249 19.2401 79.3151V78.226C19.2401 78.2161 19.2352 78.2062 19.2253 78.1963C19.2154 78.1865 19.2055 78.1815 19.1957 78.1815H16.1285C16.1186 78.1815 16.1087 78.1865 16.0988 78.1963C16.0889 78.2062 16.084 78.2161 16.084 78.226V78.626H15.032V78.1741C15.032 77.9815 15.0789 77.8062 15.1727 77.6481C15.2715 77.49 15.3999 77.3641 15.558 77.2703C15.716 77.1764 15.8914 77.1295 16.084 77.1295H19.2401C19.4278 77.1295 19.6007 77.1764 19.7587 77.2703C19.9217 77.3641 20.0501 77.49 20.144 77.6481C20.2427 77.8062 20.2921 77.9815 20.2921 78.1741V79.3669C20.2921 79.5595 20.2427 79.7349 20.144 79.8929C20.0501 80.051 19.9217 80.1794 19.7587 80.2782C19.6007 80.372 19.4278 80.4189 19.2401 80.4189H16.1285C16.1186 80.4189 16.1087 80.4239 16.0988 80.4338C16.0889 80.4436 16.084 80.4535 16.084 80.4634V81.3673C16.084 81.3771 16.0889 81.387 16.0988 81.3969C16.1087 81.4068 16.1186 81.4117 16.1285 81.4117H20.2921V82.4637H15.032Z" fill="#898989"/>
<path d="M27.7412 82.4637C27.5486 82.4637 27.3732 82.4168 27.2152 82.323C27.0571 82.2242 26.9287 82.0958 26.8299 81.9377C26.7361 81.7797 26.6892 81.6068 26.6892 81.4191V81.0487H27.7486V81.3673C27.7486 81.3771 27.7511 81.387 27.756 81.3969C27.7659 81.4068 27.7758 81.4117 27.7857 81.4117H30.8529C30.8627 81.4117 30.8726 81.4068 30.8825 81.3969C30.8924 81.387 30.8973 81.3771 30.8973 81.3673V80.3449C30.8973 80.33 30.8924 80.3202 30.8825 80.3152C30.8726 80.3053 30.8627 80.3004 30.8529 80.3004H27.5856V79.241H30.6454C30.6602 79.241 30.6701 79.2385 30.675 79.2336C30.6849 79.2237 30.6899 79.2138 30.6899 79.2039V78.226C30.6899 78.2161 30.6849 78.2062 30.675 78.1963C30.6701 78.1865 30.6602 78.1815 30.6454 78.1815H27.7857C27.7758 78.1815 27.7659 78.1865 27.756 78.1963C27.7511 78.2062 27.7486 78.2161 27.7486 78.226V78.6112H26.6892V78.1741C26.6892 77.9815 26.7361 77.8062 26.8299 77.6481C26.9287 77.49 27.0571 77.3641 27.2152 77.2703C27.3732 77.1764 27.5486 77.1295 27.7412 77.1295H30.6973C30.8899 77.1295 31.0652 77.1764 31.2233 77.2703C31.3813 77.3641 31.5073 77.49 31.6011 77.6481C31.695 77.8062 31.7419 77.9815 31.7419 78.1741V79.2484C31.7419 79.3076 31.737 79.3694 31.7271 79.4336C31.7221 79.4929 31.7098 79.5472 31.69 79.5966C31.774 79.6904 31.8382 79.7991 31.8827 79.9226C31.9271 80.0411 31.9493 80.1646 31.9493 80.293V81.4191C31.9493 81.6068 31.9024 81.7797 31.8086 81.9377C31.7147 82.0958 31.5863 82.2242 31.4233 82.323C31.2653 82.4168 31.0924 82.4637 30.9047 82.4637H27.7412Z" fill="black"/>
<path d="M41.9203 82.4637V81.1302H38.6457V80.1671L42.0092 77.1295H42.9723V80.0707H43.6984V81.1302H42.9723V82.4637H41.9203ZM40.3349 80.0707H41.9203V78.7594L40.3349 80.0707Z" fill="#898989"/>
<path d="M51.1016 82.4637C50.909 82.4637 50.7336 82.4168 50.5756 82.323C50.4175 82.2242 50.2891 82.0958 50.1903 81.9377C50.0965 81.7797 50.0496 81.6068 50.0496 81.4191V81.0339H51.1016V81.3673C51.1016 81.3771 51.1065 81.387 51.1164 81.3969C51.1263 81.4068 51.1362 81.4117 51.146 81.4117H54.2132C54.2231 81.4117 54.233 81.4068 54.2429 81.3969C54.2527 81.387 54.2577 81.3771 54.2577 81.3673V80.33C54.2577 80.3152 54.2527 80.3053 54.2429 80.3004C54.233 80.2905 54.2231 80.2856 54.2132 80.2856H50.0496V77.1295H55.3097V78.1815H51.146C51.1362 78.1815 51.1263 78.1865 51.1164 78.1963C51.1065 78.2062 51.1016 78.2161 51.1016 78.226V79.1817C51.1016 79.1916 51.1065 79.2015 51.1164 79.2113C51.1263 79.2163 51.1362 79.2187 51.146 79.2187H54.2577C54.4454 79.2187 54.6182 79.2657 54.7763 79.3595C54.9393 79.4533 55.0677 79.5818 55.1615 79.7448C55.2603 79.9028 55.3097 80.0781 55.3097 80.2708V81.4191C55.3097 81.6068 55.2603 81.7797 55.1615 81.9377C55.0677 82.0958 54.9393 82.2242 54.7763 82.323C54.6182 82.4168 54.4454 82.4637 54.2577 82.4637H51.1016Z" fill="#898989"/>
<path d="M62.8101 82.4637C62.6175 82.4637 62.4422 82.4168 62.2841 82.323C62.1261 82.2242 61.9976 82.0958 61.8989 81.9377C61.805 81.7797 61.7581 81.6068 61.7581 81.4191V78.1741C61.7581 77.9815 61.805 77.8062 61.8989 77.6481C61.9976 77.49 62.1261 77.3641 62.2841 77.2703C62.4422 77.1764 62.6175 77.1295 62.8101 77.1295H66.1885V78.1815H62.8546C62.8447 78.1815 62.8348 78.1865 62.8249 78.1963C62.8151 78.2062 62.8101 78.2161 62.8101 78.226V79.1743C62.8101 79.1842 62.8151 79.194 62.8249 79.2039C62.8348 79.2138 62.8447 79.2187 62.8546 79.2187H65.9662C66.1539 79.2187 66.3268 79.2657 66.4848 79.3595C66.6478 79.4533 66.7762 79.5793 66.8701 79.7373C66.9689 79.8954 67.0183 80.0707 67.0183 80.2634V81.4191C67.0183 81.6068 66.9689 81.7797 66.8701 81.9377C66.7762 82.0958 66.6478 82.2242 66.4848 82.323C66.3268 82.4168 66.1539 82.4637 65.9662 82.4637H62.8101ZM62.8546 81.4117H65.9218C65.9316 81.4117 65.9415 81.4068 65.9514 81.3969C65.9613 81.387 65.9662 81.3771 65.9662 81.3673V80.3226C65.9662 80.3128 65.9613 80.3029 65.9514 80.293C65.9415 80.2831 65.9316 80.2782 65.9218 80.2782H62.8101V81.3673C62.8101 81.3771 62.8151 81.387 62.8249 81.3969C62.8348 81.4068 62.8447 81.4117 62.8546 81.4117Z" fill="#898989"/>
<path d="M92.0001 72.3143L75.8296 88.4848H92.0001V72.3143Z" fill="white"/>
</svg>
