<svg width="304" height="304" viewBox="0 0 304 304" fill="none" xmlns="http://www.w3.org/2000/svg">
<path d="M281.644 232.382L255.373 216.742" stroke="#87888C" stroke-opacity="0.2" stroke-width="2.12598" stroke-linecap="round"/>
<path d="M294.268 203.272L285.919 200.441" stroke="#87888C" stroke-opacity="0.2" stroke-width="2.12598" stroke-linecap="round"/>
<path d="M288.19 218.215L280.375 214.179" stroke="#87888C" stroke-opacity="0.2" stroke-width="2.12598" stroke-linecap="round"/>
<path d="M302 172.198L293.136 171.767" stroke="#87888C" stroke-opacity="0.2" stroke-width="2.12598" stroke-linecap="round"/>
<path d="M299.247 188.326L289.8 186.113" stroke="#87888C" stroke-opacity="0.2" stroke-width="2.12598" stroke-linecap="round"/>
<path d="M225.122 281.91L209.983 254.873" stroke="#87888C" stroke-opacity="0.2" stroke-width="2.12598" stroke-linecap="round"/>
<path d="M250.225 263.186L244.372 256.446" stroke="#87888C" stroke-opacity="0.2" stroke-width="2.12598" stroke-linecap="round"/>
<path d="M237.687 273.005L232.883 265.496" stroke="#87888C" stroke-opacity="0.2" stroke-width="2.12598" stroke-linecap="round"/>
<path d="M272.046 240.245L264.579 235.319" stroke="#87888C" stroke-opacity="0.2" stroke-width="2.12598" stroke-linecap="round"/>
<path d="M261.811 252.798L254.707 246.03" stroke="#87888C" stroke-opacity="0.2" stroke-width="2.12598" stroke-linecap="round"/>
<path d="M183.421 295.002L181.633 286.16" stroke="#87888C" stroke-opacity="0.2" stroke-width="2.12598" stroke-linecap="round"/>
<path d="M167.783 297.067L167.278 288.097" stroke="#87888C" stroke-opacity="0.2" stroke-width="2.12598" stroke-linecap="round"/>
<path d="M213.486 286.342L209.417 278.241" stroke="#87888C" stroke-opacity="0.2" stroke-width="2.12598" stroke-linecap="round"/>
<path d="M198.511 291.956L195.653 282.447" stroke="#87888C" stroke-opacity="0.2" stroke-width="2.12598" stroke-linecap="round"/>
<path d="M200.632 10.9296L197.456 19.9531" stroke="#87888C" stroke-opacity="0.2" stroke-width="2.12598" stroke-linecap="round"/>
<path d="M215.023 16.296L210.741 25.3404" stroke="#87888C" stroke-opacity="0.2" stroke-width="2.12598" stroke-linecap="round"/>
<path d="M228.156 23.9549L212.552 51.7376" stroke="#87888C" stroke-opacity="0.2" stroke-width="2.12598" stroke-linecap="round"/>
<path d="M241.6 32.4131L235.638 40.294" stroke="#87888C" stroke-opacity="0.2" stroke-width="2.12598" stroke-linecap="round"/>
<path d="M253.234 43.1726L247.806 49.8482" stroke="#87888C" stroke-opacity="0.2" stroke-width="2.12598" stroke-linecap="round"/>
<path d="M264.851 53.9164L258.326 61.2103" stroke="#87888C" stroke-opacity="0.2" stroke-width="2.12598" stroke-linecap="round"/>
<path d="M274.825 66.4536L267.174 72.5736" stroke="#87888C" stroke-opacity="0.2" stroke-width="2.12598" stroke-linecap="round"/>
<path d="M282.49 79.4284L256.74 96.0482" stroke="#87888C" stroke-opacity="0.2" stroke-width="2.12598" stroke-linecap="round"/>
<path d="M290.337 93.9325L282.104 98.2706" stroke="#87888C" stroke-opacity="0.2" stroke-width="2.12598" stroke-linecap="round"/>
<path d="M295.882 108.866L287.075 112.02" stroke="#87888C" stroke-opacity="0.2" stroke-width="2.12598" stroke-linecap="round"/>
<path d="M298.664 125.003L290.382 126.354" stroke="#87888C" stroke-opacity="0.2" stroke-width="2.12598" stroke-linecap="round"/>
<path d="M301.436 140.537L293.145 141.291" stroke="#87888C" stroke-opacity="0.2" stroke-width="2.12598" stroke-linecap="round"/>
<path d="M184.585 6.76217L183.06 15.157" stroke="#87888C" stroke-opacity="0.2" stroke-width="2.12598" stroke-linecap="round"/>
<path d="M92.1411 15.1792L96.1696 24.6646" stroke="#87888C" stroke-opacity="0.2" stroke-width="2.12598" stroke-linecap="round"/>
<path d="M106.526 9.19824L110.011 19.2914" stroke="#87888C" stroke-opacity="0.2" stroke-width="2.12598" stroke-linecap="round"/>
<path d="M122.024 5.59961L123.849 15.7241" stroke="#87888C" stroke-opacity="0.2" stroke-width="2.12598" stroke-linecap="round"/>
<path d="M138.077 3.19385L138.241 13.3495" stroke="#87888C" stroke-opacity="0.2" stroke-width="2.12598" stroke-linecap="round"/>
<path d="M153.396 2L153.92 34.259" stroke="#87888C" stroke-opacity="0.2" stroke-width="2.12598" stroke-linecap="round"/>
<path d="M169.073 3.19385L169.237 13.3495" stroke="#87888C" stroke-opacity="0.2" stroke-width="2.12598" stroke-linecap="round"/>
<path d="M30.1694 63.6182L38.5866 70.6305" stroke="#87888C" stroke-opacity="0.2" stroke-width="2.12598" stroke-linecap="round"/>
<path d="M40.6899 52.2593L48.544 58.6847" stroke="#87888C" stroke-opacity="0.2" stroke-width="2.12598" stroke-linecap="round"/>
<path d="M52.3091 40.897L59.066 47.9406" stroke="#87888C" stroke-opacity="0.2" stroke-width="2.12598" stroke-linecap="round"/>
<path d="M64.481 30.7285L70.1407 38.3904" stroke="#87888C" stroke-opacity="0.2" stroke-width="2.12598" stroke-linecap="round"/>
<path d="M77.6064 22.4648L94.0999 49.6427" stroke="#87888C" stroke-opacity="0.2" stroke-width="2.12598" stroke-linecap="round"/>
<path d="M3.11502 169.974L11.9504 168.612" stroke="#87888C" stroke-opacity="0.2" stroke-width="2.12598" stroke-linecap="round"/>
<path d="M2 157.028L31.8835 156.473" stroke="#87888C" stroke-opacity="0.2" stroke-width="2.12598" stroke-linecap="round"/>
<path d="M13.656 215.992L23.5499 211.623" stroke="#87888C" stroke-opacity="0.2" stroke-width="2.12598" stroke-linecap="round"/>
<path d="M8.65876 201.05L18.0282 198.483" stroke="#87888C" stroke-opacity="0.2" stroke-width="2.12598" stroke-linecap="round"/>
<path d="M5.33367 185.51L14.1593 183.551" stroke="#87888C" stroke-opacity="0.2" stroke-width="2.12598" stroke-linecap="round"/>
<path d="M22.5956 229.875L47.2675 215.068" stroke="#87888C" stroke-opacity="0.2" stroke-width="2.12598" stroke-linecap="round"/>
<path d="M2.55176 138.313L11.9595 138.136" stroke="#87888C" stroke-opacity="0.2" stroke-width="2.12598" stroke-linecap="round"/>
<path d="M4.74121 121.584L14.1976 124.394" stroke="#87888C" stroke-opacity="0.2" stroke-width="2.12598" stroke-linecap="round"/>
<path d="M9.16455 106.642L18.0772 110.06" stroke="#87888C" stroke-opacity="0.2" stroke-width="2.12598" stroke-linecap="round"/>
<path d="M15.2437 91.6987L23.6222 96.3215" stroke="#87888C" stroke-opacity="0.2" stroke-width="2.12598" stroke-linecap="round"/>
<path d="M22.3481 77.5332L49.1729 93.1624" stroke="#87888C" stroke-opacity="0.2" stroke-width="2.12598" stroke-linecap="round"/>
<path d="M301.991 158.253L271.555 158.827" stroke="#87888C" stroke-opacity="0.2" stroke-width="2.12598" stroke-linecap="round"/>
<path d="M32.5988 242.415L39.5876 236.698" stroke="#87888C" stroke-opacity="0.2" stroke-width="2.12598" stroke-linecap="round"/>
<path d="M64.1278 276.854L70.5692 267.989" stroke="#87888C" stroke-opacity="0.2" stroke-width="2.12598" stroke-linecap="round"/>
<path d="M52.5262 266.48L59.3909 259.445" stroke="#87888C" stroke-opacity="0.2" stroke-width="2.12598" stroke-linecap="round"/>
<path d="M42.0825 254.73L48.7722 248.5" stroke="#87888C" stroke-opacity="0.2" stroke-width="2.12598" stroke-linecap="round"/>
<path d="M78.6275 284.286L92.7866 258.791" stroke="#87888C" stroke-opacity="0.2" stroke-width="2.12598" stroke-linecap="round"/>
<path d="M91.9462 288.368L95.2159 279.828" stroke="#87888C" stroke-opacity="0.2" stroke-width="2.12598" stroke-linecap="round"/>
<path d="M136.014 302L137.277 291.014" stroke="#87888C" stroke-opacity="0.2" stroke-width="2.12598" stroke-linecap="round"/>
<path d="M120.917 298.974L123.438 289.356" stroke="#87888C" stroke-opacity="0.2" stroke-width="2.12598" stroke-linecap="round"/>
<path d="M106.153 294.161L108.915 285.331" stroke="#87888C" stroke-opacity="0.2" stroke-width="2.12598" stroke-linecap="round"/>
<path d="M152.189 300.989L152.042 271.638" stroke="#87888C" stroke-opacity="0.2" stroke-width="2.12598" stroke-linecap="round"/>
<path d="M143.922 45.0721V43.9317H146.203V51.9258H144.942V45.0721H143.922ZM147.92 47.8245C147.92 46.5598 148.132 45.5729 148.556 44.8638C148.988 44.1473 149.726 43.7891 150.772 43.7891C151.817 43.7891 152.552 44.1473 152.976 44.8638C153.407 45.5729 153.623 46.5598 153.623 47.8245C153.623 49.1039 153.407 50.1054 152.976 50.8292C152.552 51.5456 151.817 51.9038 150.772 51.9038C149.726 51.9038 148.988 51.5456 148.556 50.8292C148.132 50.1054 147.92 49.1039 147.92 47.8245ZM152.395 47.8245C152.395 47.2324 152.354 46.7316 152.274 46.3222C152.201 45.9128 152.047 45.5802 151.813 45.3243C151.579 45.0612 151.232 44.9296 150.772 44.9296C150.311 44.9296 149.964 45.0612 149.73 45.3243C149.496 45.5802 149.339 45.9128 149.258 46.3222C149.185 46.7316 149.149 47.2324 149.149 47.8245C149.149 48.4386 149.185 48.954 149.258 49.3707C149.331 49.7874 149.485 50.1237 149.719 50.3796C149.96 50.6355 150.311 50.7634 150.772 50.7634C151.232 50.7634 151.579 50.6355 151.813 50.3796C152.055 50.1237 152.212 49.7874 152.285 49.3707C152.358 48.954 152.395 48.4386 152.395 47.8245ZM154.945 47.8245C154.945 46.5598 155.157 45.5729 155.581 44.8638C156.013 44.1473 156.751 43.7891 157.797 43.7891C158.842 43.7891 159.577 44.1473 160.001 44.8638C160.432 45.5729 160.648 46.5598 160.648 47.8245C160.648 49.1039 160.432 50.1054 160.001 50.8292C159.577 51.5456 158.842 51.9038 157.797 51.9038C156.751 51.9038 156.013 51.5456 155.581 50.8292C155.157 50.1054 154.945 49.1039 154.945 47.8245ZM159.42 47.8245C159.42 47.2324 159.379 46.7316 159.299 46.3222C159.226 45.9128 159.072 45.5802 158.838 45.3243C158.604 45.0612 158.257 44.9296 157.797 44.9296C157.336 44.9296 156.989 45.0612 156.755 45.3243C156.521 45.5802 156.364 45.9128 156.283 46.3222C156.21 46.7316 156.174 47.2324 156.174 47.8245C156.174 48.4386 156.21 48.954 156.283 49.3707C156.356 49.7874 156.51 50.1237 156.744 50.3796C156.985 50.6355 157.336 50.7634 157.797 50.7634C158.257 50.7634 158.604 50.6355 158.838 50.3796C159.08 50.1237 159.237 49.7874 159.31 49.3707C159.383 48.954 159.42 48.4386 159.42 47.8245Z" fill="#87888C" fill-opacity="0.2"/>
<path d="M150.515 253.63C150.515 252.365 150.727 251.379 151.151 250.669C151.582 249.953 152.321 249.595 153.366 249.595C154.411 249.595 155.146 249.953 155.57 250.669C156.001 251.379 156.217 252.365 156.217 253.63C156.217 254.91 156.001 255.911 155.57 256.635C155.146 257.351 154.411 257.71 153.366 257.71C152.321 257.71 151.582 257.351 151.151 256.635C150.727 255.911 150.515 254.91 150.515 253.63ZM154.989 253.63C154.989 253.038 154.949 252.537 154.868 252.128C154.795 251.718 154.642 251.386 154.408 251.13C154.174 250.867 153.827 250.735 153.366 250.735C152.905 250.735 152.558 250.867 152.324 251.13C152.09 251.386 151.933 251.718 151.853 252.128C151.78 252.537 151.743 253.038 151.743 253.63C151.743 254.244 151.78 254.76 151.853 255.176C151.926 255.593 152.079 255.929 152.313 256.185C152.555 256.441 152.905 256.569 153.366 256.569C153.827 256.569 154.174 256.441 154.408 256.185C154.649 255.929 154.806 255.593 154.879 255.176C154.952 254.76 154.989 254.244 154.989 253.63Z" fill="#87888C" fill-opacity="0.2"/>
<path d="M92.3989 245.493C93.2998 245.322 94.0182 245.171 94.5539 245.038C95.0994 244.903 95.5924 244.719 96.0328 244.487C96.4732 244.256 96.7973 243.955 97.005 243.586C97.22 243.203 97.2971 242.85 97.2366 242.525C97.1823 242.204 96.9634 241.929 96.5798 241.702C96.2088 241.482 95.8515 241.431 95.5079 241.551C95.1742 241.667 94.8882 241.922 94.6499 242.316L93.6124 241.701C94.0396 240.986 94.565 240.558 95.1887 240.418C95.8222 240.275 96.4565 240.392 97.0916 240.769C97.777 241.176 98.204 241.684 98.3726 242.294C98.5476 242.907 98.4559 243.533 98.0977 244.17C97.8398 244.629 97.4745 245.003 97.0019 245.292C96.5391 245.578 96.0525 245.795 95.5419 245.943C95.0413 246.087 94.4221 246.234 93.6845 246.383L93.0451 246.514L96.0351 248.287L95.5246 249.195L90.9407 246.477L91.3867 245.683L92.3989 245.493ZM98.425 246.276C99.0447 245.173 99.7106 244.421 100.423 244.019C101.145 243.615 101.955 243.679 102.855 244.212C103.754 244.746 104.21 245.433 104.224 246.273C104.247 247.112 103.949 248.082 103.33 249.184C102.703 250.3 102.027 251.063 101.301 251.474C100.585 251.882 99.7777 251.819 98.8786 251.286C97.9794 250.753 97.5198 250.064 97.4999 249.219C97.4898 248.372 97.7982 247.391 98.425 246.276ZM102.273 248.558C102.563 248.042 102.774 247.585 102.906 247.187C103.043 246.793 103.074 246.424 102.998 246.082C102.926 245.733 102.692 245.441 102.296 245.206C101.9 244.972 101.536 244.909 101.206 245.019C100.88 245.123 100.582 245.333 100.312 245.649C100.048 245.968 99.7715 246.386 99.4814 246.902C99.1805 247.438 98.9594 247.906 98.8181 248.306C98.6768 248.707 98.6441 249.078 98.7199 249.42C98.8021 249.767 99.0412 250.057 99.4374 250.292C99.8335 250.527 100.195 250.593 100.521 250.489C100.854 250.389 101.154 250.176 101.421 249.85C101.688 249.524 101.972 249.093 102.273 248.558Z" fill="#87888C" fill-opacity="0.2"/>
<path d="M201.551 245.493C202.452 245.322 203.171 245.171 203.706 245.038C204.252 244.903 204.745 244.719 205.185 244.487C205.626 244.256 205.95 243.955 206.157 243.586C206.372 243.203 206.449 242.85 206.389 242.525C206.335 242.204 206.116 241.929 205.732 241.702C205.361 241.482 205.004 241.431 204.66 241.551C204.326 241.667 204.041 241.922 203.802 242.316L202.765 241.701C203.192 240.986 203.717 240.558 204.341 240.418C204.975 240.275 205.609 240.392 206.244 240.769C206.929 241.176 207.356 241.684 207.525 242.294C207.7 242.907 207.608 243.533 207.25 244.17C206.992 244.629 206.627 245.003 206.154 245.292C205.691 245.578 205.205 245.795 204.694 245.943C204.194 246.087 203.574 246.234 202.837 246.383L202.197 246.514L205.187 248.287L204.677 249.195L200.093 246.477L200.539 245.683L201.551 245.493ZM207.577 246.276C208.197 245.173 208.863 244.421 209.575 244.019C210.297 243.615 211.108 243.679 212.007 244.212C212.906 244.746 213.363 245.433 213.376 246.273C213.4 247.112 213.102 248.082 212.482 249.184C211.855 250.3 211.179 251.063 210.453 251.474C209.738 251.882 208.93 251.819 208.031 251.286C207.132 250.753 206.672 250.064 206.652 249.219C206.642 248.372 206.95 247.391 207.577 246.276ZM211.426 248.558C211.716 248.042 211.927 247.585 212.058 247.187C212.196 246.793 212.227 246.424 212.151 246.082C212.078 245.733 211.844 245.441 211.448 245.206C211.052 244.972 210.689 244.909 210.359 245.019C210.032 245.123 209.734 245.333 209.464 245.649C209.201 245.968 208.924 246.386 208.634 246.902C208.333 247.438 208.112 247.906 207.97 248.306C207.829 248.707 207.796 249.078 207.872 249.42C207.954 249.767 208.194 250.057 208.59 250.292C208.986 250.527 209.347 250.593 209.674 250.489C210.007 250.389 210.307 250.176 210.574 249.85C210.841 249.524 211.125 249.093 211.426 248.558Z" fill="#87888C" fill-opacity="0.2"/>
<path d="M52.2376 211.444L51.9996 210.531L54.2179 204.439L55.6769 204.038L56.975 209.014L57.9583 208.743L58.2323 209.794L57.2491 210.065L57.6698 211.677L56.4856 212.003L56.0649 210.39L52.2376 211.444ZM54.8667 205.58L53.3486 210.012L55.8438 209.325L54.8667 205.58ZM58.6166 207.163C58.2973 205.94 58.2526 204.928 58.4825 204.13C58.7175 203.322 59.339 202.779 60.3469 202.502C61.3548 202.225 62.1536 202.376 62.7433 202.957C63.3381 203.529 63.7951 204.426 64.1144 205.65C64.4373 206.888 64.4822 207.914 64.249 208.729C64.021 209.535 63.4031 210.077 62.3951 210.354C61.3872 210.631 60.5849 210.481 59.9882 209.902C59.3967 209.314 58.9395 208.401 58.6166 207.163ZM62.9302 205.976C62.7808 205.403 62.6156 204.929 62.4347 204.554C62.2609 204.178 62.0289 203.897 61.7388 203.711C61.4468 203.519 61.0788 203.483 60.6347 203.606C60.1907 203.728 59.8891 203.947 59.73 204.264C59.569 204.574 59.5014 204.937 59.5272 205.355C59.5601 205.77 59.6512 206.265 59.8007 206.837C59.9557 207.432 60.121 207.921 60.2967 208.305C60.4724 208.688 60.7053 208.973 60.9954 209.158C61.2926 209.342 61.6632 209.373 62.1073 209.251C62.5513 209.128 62.8538 208.912 63.0148 208.603C63.1828 208.291 63.2495 207.924 63.2148 207.501C63.1801 207.079 63.0852 206.57 62.9302 205.976Z" fill="#87888C" fill-opacity="0.2"/>
<path d="M240.134 211.444L239.896 210.531L242.114 204.439L243.573 204.038L244.872 209.014L245.855 208.743L246.129 209.794L245.146 210.065L245.566 211.677L244.382 212.003L243.961 210.39L240.134 211.444ZM242.763 205.58L241.245 210.012L243.74 209.325L242.763 205.58ZM246.513 207.163C246.194 205.94 246.149 204.928 246.379 204.13C246.614 203.322 247.235 202.779 248.243 202.502C249.251 202.225 250.05 202.376 250.64 202.957C251.235 203.529 251.692 204.426 252.011 205.65C252.334 206.888 252.379 207.914 252.145 208.729C251.917 209.535 251.3 210.077 250.292 210.354C249.284 210.631 248.481 210.481 247.885 209.902C247.293 209.314 246.836 208.401 246.513 207.163ZM250.827 205.976C250.677 205.403 250.512 204.929 250.331 204.554C250.157 204.178 249.925 203.897 249.635 203.711C249.343 203.519 248.975 203.483 248.531 203.606C248.087 203.728 247.786 203.947 247.626 204.264C247.466 204.574 247.398 204.937 247.424 205.355C247.457 205.77 247.548 206.265 247.697 206.837C247.852 207.432 248.018 207.921 248.193 208.305C248.369 208.688 248.602 208.973 248.892 209.158C249.189 209.342 249.56 209.373 250.004 209.251C250.448 209.128 250.75 208.912 250.911 208.603C251.079 208.291 251.146 207.924 251.111 207.501C251.077 207.079 250.982 206.57 250.827 205.976Z" fill="#87888C" fill-opacity="0.2"/>
<path d="M42.1153 152.175C42.0348 151.838 41.8886 151.586 41.6766 151.418C41.4646 151.25 41.1685 151.166 40.7884 151.166C40.2109 151.166 39.7795 151.389 39.4944 151.835C39.2093 152.273 39.0594 153.004 39.0448 154.028C39.2349 153.706 39.5127 153.458 39.8782 153.282C40.2438 153.107 40.6385 153.019 41.0625 153.019C41.545 153.019 41.9691 153.125 42.3346 153.337C42.7074 153.542 42.9962 153.841 43.2009 154.236C43.4129 154.631 43.5189 155.102 43.5189 155.651C43.5189 156.162 43.4165 156.619 43.2118 157.021C43.0145 157.424 42.7184 157.742 42.3236 157.975C41.9288 158.202 41.4537 158.315 40.8981 158.315C40.1451 158.315 39.5529 158.151 39.1216 157.822C38.6976 157.486 38.3978 157.014 38.2224 156.407C38.0542 155.801 37.9702 155.044 37.9702 154.137C37.9702 151.462 38.9132 150.124 40.7994 150.124C41.5304 150.124 42.1043 150.321 42.521 150.716C42.945 151.111 43.1936 151.597 43.2667 152.175H42.1153ZM40.7884 154.072C40.3424 154.072 39.9623 154.207 39.6479 154.477C39.3409 154.741 39.1874 155.124 39.1874 155.629C39.1874 156.133 39.3299 156.535 39.615 156.835C39.9075 157.127 40.3132 157.274 40.8323 157.274C41.2928 157.274 41.6547 157.131 41.9179 156.846C42.1884 156.561 42.3236 156.181 42.3236 155.706C42.3236 155.208 42.192 154.814 41.9288 154.521C41.673 154.222 41.2928 154.072 40.7884 154.072ZM44.8524 154.214C44.8524 152.949 45.0644 151.963 45.4884 151.253C45.9197 150.537 46.6581 150.179 47.7035 150.179C48.7489 150.179 49.4836 150.537 49.9076 151.253C50.3389 151.963 50.5546 152.949 50.5546 154.214C50.5546 155.494 50.3389 156.495 49.9076 157.219C49.4836 157.935 48.7489 158.293 47.7035 158.293C46.6581 158.293 45.9197 157.935 45.4884 157.219C45.0644 156.495 44.8524 155.494 44.8524 154.214ZM49.3264 154.214C49.3264 153.622 49.2862 153.121 49.2058 152.712C49.1327 152.302 48.9792 151.97 48.7452 151.714C48.5113 151.451 48.164 151.319 47.7035 151.319C47.2429 151.319 46.8957 151.451 46.6617 151.714C46.4278 151.97 46.2706 152.302 46.1902 152.712C46.1171 153.121 46.0805 153.622 46.0805 154.214C46.0805 154.828 46.1171 155.344 46.1902 155.76C46.2633 156.177 46.4168 156.513 46.6508 156.769C46.892 157.025 47.2429 157.153 47.7035 157.153C48.164 157.153 48.5113 157.025 48.7452 156.769C48.9865 156.513 49.1437 156.177 49.2168 155.76C49.2899 155.344 49.3264 154.828 49.3264 154.214Z" fill="#87888C" fill-opacity="0.2"/>
<path d="M257.869 152.175C257.789 151.838 257.643 151.586 257.431 151.418C257.219 151.25 256.922 151.166 256.542 151.166C255.965 151.166 255.533 151.389 255.248 151.835C254.963 152.273 254.813 153.004 254.799 154.028C254.989 153.706 255.267 153.458 255.632 153.282C255.998 153.107 256.392 153.019 256.816 153.019C257.299 153.019 257.723 153.125 258.088 153.337C258.461 153.542 258.75 153.841 258.955 154.236C259.167 154.631 259.273 155.102 259.273 155.651C259.273 156.162 259.17 156.619 258.966 157.021C258.768 157.424 258.472 157.742 258.078 157.975C257.683 158.202 257.208 158.315 256.652 158.315C255.899 158.315 255.307 158.151 254.875 157.822C254.451 157.486 254.152 157.014 253.976 156.407C253.808 155.801 253.724 155.044 253.724 154.137C253.724 151.462 254.667 150.124 256.553 150.124C257.284 150.124 257.858 150.321 258.275 150.716C258.699 151.111 258.947 151.597 259.021 152.175H257.869ZM256.542 154.072C256.096 154.072 255.716 154.207 255.402 154.477C255.095 154.741 254.941 155.124 254.941 155.629C254.941 156.133 255.084 156.535 255.369 156.835C255.661 157.127 256.067 157.274 256.586 157.274C257.047 157.274 257.409 157.131 257.672 156.846C257.942 156.561 258.078 156.181 258.078 155.706C258.078 155.208 257.946 154.814 257.683 154.521C257.427 154.222 257.047 154.072 256.542 154.072ZM260.606 154.214C260.606 152.949 260.818 151.963 261.242 151.253C261.674 150.537 262.412 150.179 263.457 150.179C264.503 150.179 265.238 150.537 265.662 151.253C266.093 151.963 266.309 152.949 266.309 154.214C266.309 155.494 266.093 156.495 265.662 157.219C265.238 157.935 264.503 158.293 263.457 158.293C262.412 158.293 261.674 157.935 261.242 157.219C260.818 156.495 260.606 155.494 260.606 154.214ZM265.08 154.214C265.08 153.622 265.04 153.121 264.96 152.712C264.887 152.302 264.733 151.97 264.499 151.714C264.265 151.451 263.918 151.319 263.457 151.319C262.997 151.319 262.65 151.451 262.416 151.714C262.182 151.97 262.025 152.302 261.944 152.712C261.871 153.121 261.834 153.622 261.834 154.214C261.834 154.828 261.871 155.344 261.944 155.76C262.017 156.177 262.171 156.513 262.405 156.769C262.646 157.025 262.997 157.153 263.457 157.153C263.918 157.153 264.265 157.025 264.499 156.769C264.74 156.513 264.898 156.177 264.971 155.76C265.044 155.344 265.08 154.828 265.08 154.214Z" fill="#87888C" fill-opacity="0.2"/>
<path d="M59.4566 93.1091C59.3762 92.7728 59.2299 92.5206 59.0179 92.3525C58.8059 92.1843 58.5099 92.1003 58.1297 92.1003C57.5522 92.1003 57.1208 92.3232 56.8357 92.7692C56.5506 93.2078 56.4007 93.9389 56.3861 94.9623C56.5762 94.6407 56.854 94.3921 57.2195 94.2167C57.5851 94.0412 57.9798 93.9535 58.4038 93.9535C58.8863 93.9535 59.3104 94.0595 59.6759 94.2715C60.0487 94.4762 60.3375 94.7759 60.5422 95.1707C60.7542 95.5655 60.8602 96.037 60.8602 96.5853C60.8602 97.097 60.7579 97.5539 60.5532 97.956C60.3558 98.3581 60.0597 98.6761 59.6649 98.9101C59.2702 99.1367 58.795 99.25 58.2394 99.25C57.4864 99.25 56.8942 99.0855 56.4629 98.7565C56.0389 98.4202 55.7391 97.9487 55.5637 97.3419C55.3955 96.7352 55.3115 95.9785 55.3115 95.072C55.3115 92.3963 56.2545 91.0585 58.1407 91.0585C58.8717 91.0585 59.4456 91.2559 59.8623 91.6507C60.2863 92.0454 60.5349 92.5316 60.608 93.1091H59.4566ZM58.1297 95.0062C57.6838 95.0062 57.3036 95.1415 56.9893 95.4119C56.6822 95.6751 56.5287 96.0589 56.5287 96.5634C56.5287 97.0678 56.6712 97.4699 56.9564 97.7696C57.2488 98.062 57.6545 98.2082 58.1736 98.2082C58.6341 98.2082 58.996 98.0657 59.2592 97.7806C59.5297 97.4955 59.6649 97.1153 59.6649 96.6401C59.6649 96.143 59.5333 95.7482 59.2702 95.4558C59.0143 95.1561 58.6341 95.0062 58.1297 95.0062ZM62.1937 95.1488C62.1937 93.884 62.4057 92.8971 62.8297 92.188C63.261 91.4715 63.9994 91.1133 65.0448 91.1133C66.0902 91.1133 66.8249 91.4715 67.2489 92.188C67.6803 92.8971 67.8959 93.884 67.8959 95.1488C67.8959 96.4281 67.6803 97.4297 67.2489 98.1534C66.8249 98.8699 66.0902 99.2281 65.0448 99.2281C63.9994 99.2281 63.261 98.8699 62.8297 98.1534C62.4057 97.4297 62.1937 96.4281 62.1937 95.1488ZM66.6677 95.1488C66.6677 94.5566 66.6275 94.0558 66.5471 93.6464C66.474 93.2371 66.3205 92.9044 66.0865 92.6485C65.8526 92.3854 65.5054 92.2538 65.0448 92.2538C64.5842 92.2538 64.237 92.3854 64.003 92.6485C63.7691 92.9044 63.6119 93.2371 63.5315 93.6464C63.4584 94.0558 63.4218 94.5566 63.4218 95.1488C63.4218 95.7629 63.4584 96.2783 63.5315 96.695C63.6046 97.1117 63.7581 97.4479 63.9921 97.7038C64.2333 97.9597 64.5842 98.0876 65.0448 98.0876C65.5054 98.0876 65.8526 97.9597 66.0865 97.7038C66.3278 97.4479 66.485 97.1117 66.5581 96.695C66.6312 96.2783 66.6677 95.7629 66.6677 95.1488Z" fill="#87888C" fill-opacity="0.2"/>
<path d="M240.528 93.1091C240.447 92.7728 240.301 92.5206 240.089 92.3525C239.877 92.1843 239.581 92.1003 239.201 92.1003C238.623 92.1003 238.192 92.3232 237.907 92.7692C237.622 93.2078 237.472 93.9389 237.457 94.9623C237.647 94.6407 237.925 94.3921 238.291 94.2167C238.656 94.0412 239.051 93.9535 239.475 93.9535C239.958 93.9535 240.382 94.0595 240.747 94.2715C241.12 94.4762 241.409 94.7759 241.613 95.1707C241.825 95.5655 241.931 96.037 241.931 96.5853C241.931 97.097 241.829 97.5539 241.624 97.956C241.427 98.3581 241.131 98.6761 240.736 98.9101C240.341 99.1367 239.866 99.25 239.311 99.25C238.558 99.25 237.966 99.0855 237.534 98.7565C237.11 98.4202 236.81 97.9487 236.635 97.3419C236.467 96.7352 236.383 95.9785 236.383 95.072C236.383 92.3963 237.326 91.0585 239.212 91.0585C239.943 91.0585 240.517 91.2559 240.934 91.6507C241.358 92.0454 241.606 92.5316 241.679 93.1091H240.528ZM239.201 95.0062C238.755 95.0062 238.375 95.1415 238.061 95.4119C237.753 95.6751 237.6 96.0589 237.6 96.5634C237.6 97.0678 237.743 97.4699 238.028 97.7696C238.32 98.062 238.726 98.2082 239.245 98.2082C239.705 98.2082 240.067 98.0657 240.33 97.7806C240.601 97.4955 240.736 97.1153 240.736 96.6401C240.736 96.143 240.605 95.7482 240.341 95.4558C240.086 95.1561 239.705 95.0062 239.201 95.0062ZM243.265 95.1488C243.265 93.884 243.477 92.8971 243.901 92.188C244.332 91.4715 245.071 91.1133 246.116 91.1133C247.161 91.1133 247.896 91.4715 248.32 92.188C248.752 92.8971 248.967 93.884 248.967 95.1488C248.967 96.4281 248.752 97.4297 248.32 98.1534C247.896 98.8699 247.161 99.2281 246.116 99.2281C245.071 99.2281 244.332 98.8699 243.901 98.1534C243.477 97.4297 243.265 96.4281 243.265 95.1488ZM247.739 95.1488C247.739 94.5566 247.699 94.0558 247.618 93.6464C247.545 93.2371 247.392 92.9044 247.158 92.6485C246.924 92.3854 246.577 92.2538 246.116 92.2538C245.656 92.2538 245.308 92.3854 245.074 92.6485C244.84 92.9044 244.683 93.2371 244.603 93.6464C244.53 94.0558 244.493 94.5566 244.493 95.1488C244.493 95.7629 244.53 96.2783 244.603 96.695C244.676 97.1117 244.829 97.4479 245.063 97.7038C245.305 97.9597 245.656 98.0876 246.116 98.0876C246.577 98.0876 246.924 97.9597 247.158 97.7038C247.399 97.4479 247.556 97.1117 247.629 96.695C247.702 96.2783 247.739 95.7629 247.739 95.1488Z" fill="#87888C" fill-opacity="0.2"/>
<path d="M94.3443 62.78C93.5041 62.8364 92.8834 62.5077 92.4822 61.794C92.2887 61.4498 92.1963 61.084 92.2049 60.6966C92.2135 60.3091 92.341 59.9318 92.5874 59.5648C92.8303 59.1913 93.1969 58.8592 93.6874 58.5683C94.1715 58.2812 94.6318 58.1229 95.068 58.0936C95.507 58.0542 95.892 58.1276 96.2229 58.3137C96.5539 58.4998 96.8161 58.7649 97.0095 59.109C97.2101 59.4659 97.2962 59.8354 97.2679 60.2176C97.2423 60.5897 97.1229 60.9367 96.9098 61.2585C97.3434 61.1798 97.7499 61.2318 98.1294 61.4147C98.5052 61.5911 98.8078 61.8833 99.037 62.2912C99.2699 62.7054 99.3721 63.1334 99.3437 63.5751C99.3153 64.0168 99.1639 64.4337 98.8896 64.8258C98.6154 65.2178 98.2424 65.5537 97.7708 65.8334C97.2992 66.1131 96.8296 66.2769 96.3619 66.3249C95.9005 66.3691 95.4765 66.2934 95.0899 66.0978C94.7033 65.9022 94.3935 65.5973 94.1607 65.1831C93.9279 64.7688 93.831 64.3504 93.8702 63.9278C93.9093 63.5052 94.0674 63.1226 94.3443 62.78ZM96.0567 59.8526C95.8561 59.4957 95.592 59.2869 95.2645 59.2262C94.9369 59.1656 94.5814 59.249 94.1978 59.4764C93.8205 59.7002 93.5756 59.9729 93.463 60.2946C93.3503 60.6163 93.3961 60.9588 93.6003 61.3221C93.7794 61.6407 94.0394 61.8349 94.3804 61.9046C94.7241 61.9641 95.0752 61.8877 95.4336 61.6751C95.792 61.4625 96.0302 61.1853 96.1483 60.8434C96.2663 60.5015 96.2358 60.1712 96.0567 59.8526ZM95.8957 62.4972C95.4807 62.7433 95.2002 63.0498 95.0543 63.4168C94.9111 63.7736 94.9488 64.1464 95.1673 64.5351C95.3715 64.8984 95.6638 65.1201 96.0443 65.2004C96.4212 65.2743 96.8265 65.1826 97.2604 64.9253C97.688 64.6717 97.9599 64.3575 98.0762 63.9826C98.1988 63.604 98.1597 63.2363 97.9592 62.8794C97.7442 62.497 97.4488 62.2771 97.0728 62.2197C96.703 62.1586 96.3107 62.2511 95.8957 62.4972ZM99.2365 59.9679C98.6168 58.8654 98.3156 57.8969 98.3328 57.0624C98.3528 56.2179 98.8123 55.5289 99.7115 54.9957C100.611 54.4624 101.418 54.3999 102.134 54.8082C102.852 55.2063 103.521 55.9567 104.141 57.0592C104.768 58.1744 105.073 59.1575 105.057 60.0085C105.043 60.8493 104.587 61.5364 103.688 62.0696C102.788 62.6029 101.978 62.6672 101.256 62.2627C100.536 61.8481 99.8633 61.0831 99.2365 59.9679ZM103.085 57.6857C102.795 57.1695 102.515 56.7534 102.245 56.4376C101.981 56.118 101.686 55.9063 101.36 55.8026C101.03 55.6925 100.666 55.7549 100.27 55.9899C99.8742 56.2248 99.64 56.5166 99.5677 56.8654C99.4918 57.2078 99.5196 57.5779 99.6511 57.9758C99.7888 58.37 100.003 58.8252 100.293 59.3414C100.594 59.8767 100.878 60.3074 101.145 60.6333C101.412 60.9593 101.709 61.1741 102.035 61.2778C102.368 61.3778 102.733 61.3104 103.129 61.0754C103.525 60.8405 103.761 60.5518 103.837 60.2095C103.919 59.8634 103.889 59.49 103.748 59.0895C103.607 58.6889 103.386 58.221 103.085 57.6857Z" fill="#87888C" fill-opacity="0.2"/>
<path d="M190.303 65.071L189.744 64.0768L191.706 62.9133L195.623 69.8821L194.538 70.5254L191.18 64.5508L190.303 65.071ZM196.861 67.172C197.168 66.285 197.399 65.5701 197.555 65.0273C197.714 64.4743 197.805 63.944 197.83 63.4364C197.855 62.9288 197.764 62.4902 197.556 62.1206C197.341 61.7382 197.082 61.4927 196.777 61.3842C196.48 61.2719 196.139 61.3295 195.755 61.557C195.384 61.777 195.163 62.0697 195.092 62.4349C195.023 62.79 195.095 63.1721 195.308 63.581L194.271 64.1963C193.881 63.4586 193.784 62.7774 193.977 62.1526C194.174 61.5177 194.59 61.012 195.225 60.6354C195.91 60.2289 196.552 60.1031 197.151 60.258C197.755 60.4092 198.237 60.8034 198.595 61.4407C198.853 61.8995 198.986 62.4114 198.993 62.9764C199.003 63.5313 198.942 64.0727 198.812 64.6006C198.684 65.1185 198.498 65.7427 198.255 66.4733L198.045 67.1074L201.035 65.3342L201.545 66.2423L196.961 68.9608L196.515 68.1674L196.861 67.172ZM200.534 62.2025C199.914 61.1 199.613 60.1315 199.631 59.2971C199.65 58.4525 200.11 57.7636 201.009 57.2303C201.908 56.6971 202.716 56.6346 203.432 57.0428C204.15 57.441 204.819 58.1913 205.439 59.2938C206.066 60.4091 206.371 61.3922 206.354 62.2431C206.341 63.084 205.884 63.771 204.985 64.3043C204.086 64.8375 203.275 64.9019 202.553 64.4974C201.834 64.0827 201.161 63.3178 200.534 62.2025ZM204.382 59.9203C204.092 59.4041 203.812 58.9881 203.543 58.6722C203.279 58.3526 202.984 58.141 202.657 58.0373C202.327 57.9272 201.964 57.9896 201.568 58.2245C201.172 58.4595 200.938 58.7513 200.865 59.1001C200.79 59.4424 200.817 59.8126 200.949 60.2105C201.086 60.6047 201.3 61.0598 201.591 61.576C201.891 62.1114 202.175 62.542 202.442 62.868C202.71 63.1939 203.006 63.4088 203.333 63.5125C203.666 63.6125 204.03 63.545 204.426 63.3101C204.823 63.0752 205.059 62.7865 205.134 62.4441C205.217 62.098 205.187 61.7247 205.046 61.3241C204.904 60.9236 204.683 60.4557 204.382 59.9203Z" fill="#87888C" fill-opacity="0.2"/>
</svg>
