<svg width="332" height="332" viewBox="0 0 332 332" fill="none" xmlns="http://www.w3.org/2000/svg">
<g filter="url(#filter0_d_405_1489)">
<path d="M17.115 182.974L25.9504 181.612" stroke="#EAEBE7" stroke-width="2.12598" stroke-linecap="round"/>
</g>
<g filter="url(#filter1_d_405_1489)">
<path d="M16 170.028L45.8835 169.473" stroke="#EAEBE7" stroke-width="2.12598" stroke-linecap="round"/>
</g>
<g filter="url(#filter2_d_405_1489)">
<path d="M27.656 228.992L37.5499 224.623" stroke="#EAEBE7" stroke-width="2.12598" stroke-linecap="round"/>
</g>
<g filter="url(#filter3_d_405_1489)">
<path d="M22.6588 214.05L32.0282 211.483" stroke="#EAEBE7" stroke-width="2.12598" stroke-linecap="round"/>
</g>
<g filter="url(#filter4_d_405_1489)">
<path d="M19.3337 198.51L28.1593 196.551" stroke="#EAEBE7" stroke-width="2.12598" stroke-linecap="round"/>
</g>
<g filter="url(#filter5_d_405_1489)">
<path d="M36.5956 242.876L61.2675 228.069" stroke="#EAEBE7" stroke-width="2.12598" stroke-linecap="round"/>
</g>
<g filter="url(#filter6_d_405_1489)">
<path d="M16.5518 151.313L25.9595 151.136" stroke="#EAEBE7" stroke-width="2.12598" stroke-linecap="round"/>
</g>
<g filter="url(#filter7_d_405_1489)">
<path d="M18.7412 134.584L28.1976 137.394" stroke="#EAEBE7" stroke-width="2.12598" stroke-linecap="round"/>
</g>
<g filter="url(#filter8_d_405_1489)">
<path d="M23.1646 119.642L32.0772 123.06" stroke="#EAEBE7" stroke-width="2.12598" stroke-linecap="round"/>
</g>
<g filter="url(#filter9_d_405_1489)">
<path d="M29.2437 104.699L37.6222 109.321" stroke="#EAEBE7" stroke-width="2.12598" stroke-linecap="round"/>
</g>
<g filter="url(#filter10_d_405_1489)">
<path d="M36.3481 90.5332L63.1729 106.162" stroke="#EAEBE7" stroke-width="2.12598" stroke-linecap="round"/>
</g>
<g filter="url(#filter11_d_405_1489)">
<path d="M46.5988 255.415L53.5876 249.698" stroke="#EAEBE7" stroke-width="2.12598" stroke-linecap="round"/>
</g>
<g filter="url(#filter12_d_405_1489)">
<path d="M78.1278 289.854L84.5692 280.989" stroke="#EAEBE7" stroke-width="2.12598" stroke-linecap="round"/>
</g>
<g filter="url(#filter13_d_405_1489)">
<path d="M66.5262 279.48L73.3909 272.445" stroke="#EAEBE7" stroke-width="2.12598" stroke-linecap="round"/>
</g>
<g filter="url(#filter14_d_405_1489)">
<path d="M56.0825 267.73L62.7722 261.5" stroke="#EAEBE7" stroke-width="2.12598" stroke-linecap="round"/>
</g>
<g filter="url(#filter15_d_405_1489)">
<path d="M92.6275 297.286L106.787 271.791" stroke="#EAEBE7" stroke-width="2.12598" stroke-linecap="round"/>
</g>
<g filter="url(#filter16_d_405_1489)">
<path d="M105.946 301.368L109.216 292.828" stroke="#EAEBE7" stroke-width="2.12598" stroke-linecap="round"/>
</g>
<g filter="url(#filter17_d_405_1489)">
<path d="M150.014 315L151.277 304.014" stroke="#EAEBE7" stroke-width="2.12598" stroke-linecap="round"/>
</g>
<g filter="url(#filter18_d_405_1489)">
<path d="M134.917 311.974L137.438 302.356" stroke="#EAEBE7" stroke-width="2.12598" stroke-linecap="round"/>
</g>
<g filter="url(#filter19_d_405_1489)">
<path d="M120.153 307.161L122.915 298.331" stroke="#EAEBE7" stroke-width="2.12598" stroke-linecap="round"/>
</g>
<g filter="url(#filter20_d_405_1489)">
<path d="M166.189 313.989L166.042 284.638" stroke="#EAEBE7" stroke-width="2.12598" stroke-linecap="round"/>
</g>
<path d="M157.922 58.0721V56.9317H160.203V64.9258H158.942V58.0721H157.922ZM161.92 60.8245C161.92 59.5598 162.132 58.5729 162.556 57.8638C162.988 57.1473 163.726 56.7891 164.772 56.7891C165.817 56.7891 166.552 57.1473 166.976 57.8638C167.407 58.5729 167.623 59.5598 167.623 60.8245C167.623 62.1039 167.407 63.1054 166.976 63.8292C166.552 64.5456 165.817 64.9038 164.772 64.9038C163.726 64.9038 162.988 64.5456 162.556 63.8292C162.132 63.1054 161.92 62.1039 161.92 60.8245ZM166.395 60.8245C166.395 60.2324 166.354 59.7316 166.274 59.3222C166.201 58.9128 166.047 58.5802 165.813 58.3243C165.579 58.0612 165.232 57.9296 164.772 57.9296C164.311 57.9296 163.964 58.0612 163.73 58.3243C163.496 58.5802 163.339 58.9128 163.258 59.3222C163.185 59.7316 163.149 60.2324 163.149 60.8245C163.149 61.4386 163.185 61.954 163.258 62.3707C163.331 62.7874 163.485 63.1237 163.719 63.3796C163.96 63.6355 164.311 63.7634 164.772 63.7634C165.232 63.7634 165.579 63.6355 165.813 63.3796C166.055 63.1237 166.212 62.7874 166.285 62.3707C166.358 61.954 166.395 61.4386 166.395 60.8245ZM168.945 60.8245C168.945 59.5598 169.157 58.5729 169.581 57.8638C170.013 57.1473 170.751 56.7891 171.797 56.7891C172.842 56.7891 173.577 57.1473 174.001 57.8638C174.432 58.5729 174.648 59.5598 174.648 60.8245C174.648 62.1039 174.432 63.1054 174.001 63.8292C173.577 64.5456 172.842 64.9038 171.797 64.9038C170.751 64.9038 170.013 64.5456 169.581 63.8292C169.157 63.1054 168.945 62.1039 168.945 60.8245ZM173.42 60.8245C173.42 60.2324 173.379 59.7316 173.299 59.3222C173.226 58.9128 173.072 58.5802 172.838 58.3243C172.604 58.0612 172.257 57.9296 171.797 57.9296C171.336 57.9296 170.989 58.0612 170.755 58.3243C170.521 58.5802 170.364 58.9128 170.283 59.3222C170.21 59.7316 170.174 60.2324 170.174 60.8245C170.174 61.4386 170.21 61.954 170.283 62.3707C170.356 62.7874 170.51 63.1237 170.744 63.3796C170.985 63.6355 171.336 63.7634 171.797 63.7634C172.257 63.7634 172.604 63.6355 172.838 63.3796C173.08 63.1237 173.237 62.7874 173.31 62.3707C173.383 61.954 173.42 61.4386 173.42 60.8245Z" fill="white"/>
<path d="M164.515 266.63C164.515 265.365 164.727 264.379 165.151 263.669C165.582 262.953 166.321 262.595 167.366 262.595C168.411 262.595 169.146 262.953 169.57 263.669C170.001 264.379 170.217 265.365 170.217 266.63C170.217 267.91 170.001 268.911 169.57 269.635C169.146 270.351 168.411 270.71 167.366 270.71C166.321 270.71 165.582 270.351 165.151 269.635C164.727 268.911 164.515 267.91 164.515 266.63ZM168.989 266.63C168.989 266.038 168.949 265.537 168.868 265.128C168.795 264.718 168.642 264.386 168.408 264.13C168.174 263.867 167.827 263.735 167.366 263.735C166.905 263.735 166.558 263.867 166.324 264.13C166.09 264.386 165.933 264.718 165.853 265.128C165.78 265.537 165.743 266.038 165.743 266.63C165.743 267.244 165.78 267.76 165.853 268.176C165.926 268.593 166.079 268.929 166.313 269.185C166.555 269.441 166.905 269.569 167.366 269.569C167.827 269.569 168.174 269.441 168.408 269.185C168.649 268.929 168.806 268.593 168.879 268.176C168.952 267.76 168.989 267.244 168.989 266.63Z" fill="white"/>
<path d="M106.399 258.493C107.3 258.322 108.018 258.171 108.554 258.038C109.099 257.903 109.592 257.719 110.033 257.487C110.473 257.256 110.797 256.955 111.005 256.586C111.22 256.203 111.297 255.85 111.237 255.525C111.182 255.204 110.963 254.929 110.58 254.702C110.209 254.482 109.852 254.431 109.508 254.551C109.174 254.667 108.888 254.922 108.65 255.316L107.612 254.701C108.04 253.986 108.565 253.558 109.189 253.418C109.822 253.275 110.456 253.392 111.092 253.769C111.777 254.176 112.204 254.684 112.373 255.294C112.548 255.907 112.456 256.533 112.098 257.17C111.84 257.629 111.475 258.003 111.002 258.292C110.539 258.578 110.052 258.795 109.542 258.943C109.041 259.087 108.422 259.234 107.685 259.383L107.045 259.514L110.035 261.287L109.525 262.195L104.941 259.477L105.387 258.683L106.399 258.493ZM112.425 259.276C113.045 258.173 113.711 257.421 114.423 257.019C115.145 256.615 115.955 256.679 116.855 257.212C117.754 257.746 118.21 258.433 118.224 259.273C118.247 260.112 117.949 261.082 117.33 262.184C116.703 263.3 116.027 264.063 115.301 264.474C114.585 264.882 113.778 264.819 112.879 264.286C111.979 263.753 111.52 263.064 111.5 262.219C111.49 261.372 111.798 260.391 112.425 259.276ZM116.273 261.558C116.563 261.042 116.774 260.585 116.906 260.187C117.043 259.793 117.074 259.424 116.998 259.082C116.926 258.733 116.692 258.441 116.296 258.206C115.9 257.972 115.536 257.909 115.206 258.019C114.88 258.123 114.582 258.333 114.312 258.649C114.048 258.968 113.772 259.386 113.481 259.902C113.18 260.438 112.959 260.906 112.818 261.306C112.677 261.707 112.644 262.078 112.72 262.42C112.802 262.767 113.041 263.057 113.437 263.292C113.833 263.527 114.195 263.593 114.521 263.489C114.854 263.389 115.154 263.176 115.421 262.85C115.688 262.524 115.972 262.093 116.273 261.558Z" fill="white"/>
<path d="M215.551 258.493C216.452 258.322 217.171 258.171 217.706 258.038C218.252 257.903 218.745 257.719 219.185 257.487C219.626 257.256 219.95 256.955 220.157 256.586C220.372 256.203 220.449 255.85 220.389 255.525C220.335 255.204 220.116 254.929 219.732 254.702C219.361 254.482 219.004 254.431 218.66 254.551C218.326 254.667 218.041 254.922 217.802 255.316L216.765 254.701C217.192 253.986 217.717 253.558 218.341 253.418C218.975 253.275 219.609 253.392 220.244 253.769C220.929 254.176 221.356 254.684 221.525 255.294C221.7 255.907 221.608 256.533 221.25 257.17C220.992 257.629 220.627 258.003 220.154 258.292C219.691 258.578 219.205 258.795 218.694 258.943C218.194 259.087 217.574 259.234 216.837 259.383L216.197 259.514L219.187 261.287L218.677 262.195L214.093 259.477L214.539 258.683L215.551 258.493ZM221.577 259.276C222.197 258.173 222.863 257.421 223.575 257.019C224.297 256.615 225.108 256.679 226.007 257.212C226.906 257.746 227.363 258.433 227.376 259.273C227.4 260.112 227.102 261.082 226.482 262.184C225.855 263.3 225.179 264.063 224.453 264.474C223.738 264.882 222.93 264.819 222.031 264.286C221.132 263.753 220.672 263.064 220.652 262.219C220.642 261.372 220.95 260.391 221.577 259.276ZM225.426 261.558C225.716 261.042 225.927 260.585 226.058 260.187C226.196 259.793 226.227 259.424 226.151 259.082C226.078 258.733 225.844 258.441 225.448 258.206C225.052 257.972 224.689 257.909 224.359 258.019C224.032 258.123 223.734 258.333 223.464 258.649C223.201 258.968 222.924 259.386 222.634 259.902C222.333 260.438 222.112 260.906 221.97 261.306C221.829 261.707 221.796 262.078 221.872 262.42C221.954 262.767 222.194 263.057 222.59 263.292C222.986 263.527 223.347 263.593 223.674 263.489C224.007 263.389 224.307 263.176 224.574 262.85C224.841 262.524 225.125 262.093 225.426 261.558Z" fill="white"/>
<path d="M66.2376 224.444L65.9996 223.531L68.2179 217.439L69.6769 217.038L70.975 222.014L71.9583 221.743L72.2323 222.794L71.2491 223.065L71.6698 224.677L70.4856 225.003L70.0649 223.39L66.2376 224.444ZM68.8667 218.58L67.3486 223.012L69.8438 222.325L68.8667 218.58ZM72.6166 220.163C72.2973 218.94 72.2526 217.928 72.4825 217.13C72.7175 216.322 73.339 215.779 74.3469 215.502C75.3548 215.225 76.1536 215.376 76.7433 215.957C77.3381 216.529 77.7951 217.426 78.1144 218.65C78.4373 219.888 78.4822 220.914 78.249 221.729C78.021 222.535 77.4031 223.077 76.3951 223.354C75.3872 223.631 74.5849 223.481 73.9882 222.902C73.3967 222.314 72.9395 221.401 72.6166 220.163ZM76.9302 218.976C76.7808 218.403 76.6156 217.929 76.4347 217.554C76.2609 217.178 76.0289 216.897 75.7388 216.711C75.4468 216.519 75.0788 216.483 74.6347 216.606C74.1907 216.728 73.8891 216.947 73.73 217.264C73.569 217.574 73.5014 217.937 73.5272 218.355C73.5601 218.77 73.6512 219.265 73.8007 219.837C73.9557 220.432 74.121 220.921 74.2967 221.305C74.4724 221.688 74.7053 221.973 74.9954 222.158C75.2926 222.342 75.6632 222.373 76.1073 222.251C76.5513 222.128 76.8538 221.912 77.0148 221.603C77.1828 221.291 77.2495 220.924 77.2148 220.501C77.1801 220.079 77.0852 219.57 76.9302 218.976Z" fill="white"/>
<path d="M254.134 224.444L253.896 223.531L256.114 217.439L257.573 217.038L258.872 222.014L259.855 221.743L260.129 222.794L259.146 223.065L259.566 224.677L258.382 225.003L257.961 223.39L254.134 224.444ZM256.763 218.58L255.245 223.012L257.74 222.325L256.763 218.58ZM260.513 220.163C260.194 218.94 260.149 217.928 260.379 217.13C260.614 216.322 261.235 215.779 262.243 215.502C263.251 215.225 264.05 215.376 264.64 215.957C265.235 216.529 265.692 217.426 266.011 218.65C266.334 219.888 266.379 220.914 266.145 221.729C265.917 222.535 265.3 223.077 264.292 223.354C263.284 223.631 262.481 223.481 261.885 222.902C261.293 222.314 260.836 221.401 260.513 220.163ZM264.827 218.976C264.677 218.403 264.512 217.929 264.331 217.554C264.157 217.178 263.925 216.897 263.635 216.711C263.343 216.519 262.975 216.483 262.531 216.606C262.087 216.728 261.786 216.947 261.626 217.264C261.466 217.574 261.398 217.937 261.424 218.355C261.457 218.77 261.548 219.265 261.697 219.837C261.852 220.432 262.018 220.921 262.193 221.305C262.369 221.688 262.602 221.973 262.892 222.158C263.189 222.342 263.56 222.373 264.004 222.251C264.448 222.128 264.75 221.912 264.911 221.603C265.079 221.291 265.146 220.924 265.111 220.501C265.077 220.079 264.982 219.57 264.827 218.976Z" fill="white"/>
<path d="M56.1153 165.175C56.0348 164.838 55.8886 164.586 55.6766 164.418C55.4646 164.25 55.1685 164.166 54.7884 164.166C54.2109 164.166 53.7795 164.389 53.4944 164.835C53.2093 165.273 53.0594 166.004 53.0448 167.028C53.2349 166.706 53.5127 166.458 53.8782 166.282C54.2438 166.107 54.6385 166.019 55.0625 166.019C55.545 166.019 55.9691 166.125 56.3346 166.337C56.7074 166.542 56.9962 166.841 57.2009 167.236C57.4129 167.631 57.5189 168.102 57.5189 168.651C57.5189 169.162 57.4165 169.619 57.2118 170.021C57.0145 170.424 56.7184 170.742 56.3236 170.975C55.9288 171.202 55.4537 171.315 54.8981 171.315C54.1451 171.315 53.5529 171.151 53.1216 170.822C52.6976 170.486 52.3978 170.014 52.2224 169.407C52.0542 168.801 51.9702 168.044 51.9702 167.137C51.9702 164.462 52.9132 163.124 54.7994 163.124C55.5304 163.124 56.1043 163.321 56.521 163.716C56.945 164.111 57.1936 164.597 57.2667 165.175H56.1153ZM54.7884 167.072C54.3424 167.072 53.9623 167.207 53.6479 167.477C53.3409 167.741 53.1874 168.124 53.1874 168.629C53.1874 169.133 53.3299 169.535 53.615 169.835C53.9075 170.127 54.3132 170.274 54.8323 170.274C55.2928 170.274 55.6547 170.131 55.9179 169.846C56.1884 169.561 56.3236 169.181 56.3236 168.706C56.3236 168.208 56.192 167.814 55.9288 167.521C55.673 167.222 55.2928 167.072 54.7884 167.072ZM58.8524 167.214C58.8524 165.949 59.0644 164.963 59.4884 164.253C59.9197 163.537 60.6581 163.179 61.7035 163.179C62.7489 163.179 63.4836 163.537 63.9076 164.253C64.3389 164.963 64.5546 165.949 64.5546 167.214C64.5546 168.494 64.3389 169.495 63.9076 170.219C63.4836 170.935 62.7489 171.293 61.7035 171.293C60.6581 171.293 59.9197 170.935 59.4884 170.219C59.0644 169.495 58.8524 168.494 58.8524 167.214ZM63.3264 167.214C63.3264 166.622 63.2862 166.121 63.2058 165.712C63.1327 165.302 62.9792 164.97 62.7452 164.714C62.5113 164.451 62.164 164.319 61.7035 164.319C61.2429 164.319 60.8957 164.451 60.6617 164.714C60.4278 164.97 60.2706 165.302 60.1902 165.712C60.1171 166.121 60.0805 166.622 60.0805 167.214C60.0805 167.828 60.1171 168.344 60.1902 168.76C60.2633 169.177 60.4168 169.513 60.6508 169.769C60.892 170.025 61.2429 170.153 61.7035 170.153C62.164 170.153 62.5113 170.025 62.7452 169.769C62.9865 169.513 63.1437 169.177 63.2168 168.76C63.2899 168.344 63.3264 167.828 63.3264 167.214Z" fill="white"/>
<path d="M271.869 165.175C271.789 164.838 271.643 164.586 271.431 164.418C271.219 164.25 270.922 164.166 270.542 164.166C269.965 164.166 269.533 164.389 269.248 164.835C268.963 165.273 268.813 166.004 268.799 167.028C268.989 166.706 269.267 166.458 269.632 166.282C269.998 166.107 270.392 166.019 270.816 166.019C271.299 166.019 271.723 166.125 272.088 166.337C272.461 166.542 272.75 166.841 272.955 167.236C273.167 167.631 273.273 168.102 273.273 168.651C273.273 169.162 273.17 169.619 272.966 170.021C272.768 170.424 272.472 170.742 272.078 170.975C271.683 171.202 271.208 171.315 270.652 171.315C269.899 171.315 269.307 171.151 268.875 170.822C268.451 170.486 268.152 170.014 267.976 169.407C267.808 168.801 267.724 168.044 267.724 167.137C267.724 164.462 268.667 163.124 270.553 163.124C271.284 163.124 271.858 163.321 272.275 163.716C272.699 164.111 272.947 164.597 273.021 165.175H271.869ZM270.542 167.072C270.096 167.072 269.716 167.207 269.402 167.477C269.095 167.741 268.941 168.124 268.941 168.629C268.941 169.133 269.084 169.535 269.369 169.835C269.661 170.127 270.067 170.274 270.586 170.274C271.047 170.274 271.409 170.131 271.672 169.846C271.942 169.561 272.078 169.181 272.078 168.706C272.078 168.208 271.946 167.814 271.683 167.521C271.427 167.222 271.047 167.072 270.542 167.072ZM274.606 167.214C274.606 165.949 274.818 164.963 275.242 164.253C275.674 163.537 276.412 163.179 277.457 163.179C278.503 163.179 279.238 163.537 279.662 164.253C280.093 164.963 280.309 165.949 280.309 167.214C280.309 168.494 280.093 169.495 279.662 170.219C279.238 170.935 278.503 171.293 277.457 171.293C276.412 171.293 275.674 170.935 275.242 170.219C274.818 169.495 274.606 168.494 274.606 167.214ZM279.08 167.214C279.08 166.622 279.04 166.121 278.96 165.712C278.887 165.302 278.733 164.97 278.499 164.714C278.265 164.451 277.918 164.319 277.457 164.319C276.997 164.319 276.65 164.451 276.416 164.714C276.182 164.97 276.025 165.302 275.944 165.712C275.871 166.121 275.834 166.622 275.834 167.214C275.834 167.828 275.871 168.344 275.944 168.76C276.017 169.177 276.171 169.513 276.405 169.769C276.646 170.025 276.997 170.153 277.457 170.153C277.918 170.153 278.265 170.025 278.499 169.769C278.74 169.513 278.898 169.177 278.971 168.76C279.044 168.344 279.08 167.828 279.08 167.214Z" fill="white"/>
<path d="M73.4566 106.109C73.3762 105.773 73.2299 105.521 73.0179 105.352C72.8059 105.184 72.5099 105.1 72.1297 105.1C71.5522 105.1 71.1208 105.323 70.8357 105.769C70.5506 106.208 70.4007 106.939 70.3861 107.962C70.5762 107.641 70.854 107.392 71.2195 107.217C71.5851 107.041 71.9798 106.953 72.4038 106.953C72.8863 106.953 73.3104 107.059 73.6759 107.271C74.0487 107.476 74.3375 107.776 74.5422 108.171C74.7542 108.565 74.8602 109.037 74.8602 109.585C74.8602 110.097 74.7579 110.554 74.5532 110.956C74.3558 111.358 74.0597 111.676 73.6649 111.91C73.2702 112.137 72.795 112.25 72.2394 112.25C71.4864 112.25 70.8942 112.086 70.4629 111.757C70.0389 111.42 69.7391 110.949 69.5637 110.342C69.3955 109.735 69.3115 108.979 69.3115 108.072C69.3115 105.396 70.2545 104.058 72.1407 104.058C72.8717 104.058 73.4456 104.256 73.8623 104.651C74.2863 105.045 74.5349 105.532 74.608 106.109H73.4566ZM72.1297 108.006C71.6838 108.006 71.3036 108.141 70.9893 108.412C70.6822 108.675 70.5287 109.059 70.5287 109.563C70.5287 110.068 70.6712 110.47 70.9564 110.77C71.2488 111.062 71.6545 111.208 72.1736 111.208C72.6341 111.208 72.996 111.066 73.2592 110.781C73.5297 110.495 73.6649 110.115 73.6649 109.64C73.6649 109.143 73.5333 108.748 73.2702 108.456C73.0143 108.156 72.6341 108.006 72.1297 108.006ZM76.1937 108.149C76.1937 106.884 76.4057 105.897 76.8297 105.188C77.261 104.472 77.9994 104.113 79.0448 104.113C80.0902 104.113 80.8249 104.472 81.2489 105.188C81.6803 105.897 81.8959 106.884 81.8959 108.149C81.8959 109.428 81.6803 110.43 81.2489 111.153C80.8249 111.87 80.0902 112.228 79.0448 112.228C77.9994 112.228 77.261 111.87 76.8297 111.153C76.4057 110.43 76.1937 109.428 76.1937 108.149ZM80.6677 108.149C80.6677 107.557 80.6275 107.056 80.5471 106.646C80.474 106.237 80.3205 105.904 80.0865 105.649C79.8526 105.385 79.5054 105.254 79.0448 105.254C78.5842 105.254 78.237 105.385 78.003 105.649C77.7691 105.904 77.6119 106.237 77.5315 106.646C77.4584 107.056 77.4218 107.557 77.4218 108.149C77.4218 108.763 77.4584 109.278 77.5315 109.695C77.6046 110.112 77.7581 110.448 77.9921 110.704C78.2333 110.96 78.5842 111.088 79.0448 111.088C79.5054 111.088 79.8526 110.96 80.0865 110.704C80.3278 110.448 80.485 110.112 80.5581 109.695C80.6312 109.278 80.6677 108.763 80.6677 108.149Z" fill="white"/>
<path d="M254.528 106.109C254.447 105.773 254.301 105.521 254.089 105.352C253.877 105.184 253.581 105.1 253.201 105.1C252.623 105.1 252.192 105.323 251.907 105.769C251.622 106.208 251.472 106.939 251.457 107.962C251.647 107.641 251.925 107.392 252.291 107.217C252.656 107.041 253.051 106.953 253.475 106.953C253.958 106.953 254.382 107.059 254.747 107.271C255.12 107.476 255.409 107.776 255.613 108.171C255.825 108.565 255.931 109.037 255.931 109.585C255.931 110.097 255.829 110.554 255.624 110.956C255.427 111.358 255.131 111.676 254.736 111.91C254.341 112.137 253.866 112.25 253.311 112.25C252.558 112.25 251.966 112.086 251.534 111.757C251.11 111.42 250.81 110.949 250.635 110.342C250.467 109.735 250.383 108.979 250.383 108.072C250.383 105.396 251.326 104.058 253.212 104.058C253.943 104.058 254.517 104.256 254.934 104.651C255.358 105.045 255.606 105.532 255.679 106.109H254.528ZM253.201 108.006C252.755 108.006 252.375 108.141 252.061 108.412C251.753 108.675 251.6 109.059 251.6 109.563C251.6 110.068 251.743 110.47 252.028 110.77C252.32 111.062 252.726 111.208 253.245 111.208C253.705 111.208 254.067 111.066 254.33 110.781C254.601 110.495 254.736 110.115 254.736 109.64C254.736 109.143 254.605 108.748 254.341 108.456C254.086 108.156 253.705 108.006 253.201 108.006ZM257.265 108.149C257.265 106.884 257.477 105.897 257.901 105.188C258.332 104.472 259.071 104.113 260.116 104.113C261.161 104.113 261.896 104.472 262.32 105.188C262.752 105.897 262.967 106.884 262.967 108.149C262.967 109.428 262.752 110.43 262.32 111.153C261.896 111.87 261.161 112.228 260.116 112.228C259.071 112.228 258.332 111.87 257.901 111.153C257.477 110.43 257.265 109.428 257.265 108.149ZM261.739 108.149C261.739 107.557 261.699 107.056 261.618 106.646C261.545 106.237 261.392 105.904 261.158 105.649C260.924 105.385 260.577 105.254 260.116 105.254C259.656 105.254 259.308 105.385 259.074 105.649C258.84 105.904 258.683 106.237 258.603 106.646C258.53 107.056 258.493 107.557 258.493 108.149C258.493 108.763 258.53 109.278 258.603 109.695C258.676 110.112 258.829 110.448 259.063 110.704C259.305 110.96 259.656 111.088 260.116 111.088C260.577 111.088 260.924 110.96 261.158 110.704C261.399 110.448 261.556 110.112 261.629 109.695C261.702 109.278 261.739 108.763 261.739 108.149Z" fill="white"/>
<g filter="url(#filter21_d_405_1489)">
<path d="M295.644 245.382L269.373 229.742" stroke="#EAEBE7" stroke-width="2.12598" stroke-linecap="round"/>
<path d="M308.268 216.272L299.919 213.441" stroke="#EAEBE7" stroke-width="2.12598" stroke-linecap="round"/>
<path d="M302.19 231.215L294.375 227.179" stroke="#EAEBE7" stroke-width="2.12598" stroke-linecap="round"/>
<path d="M316 185.198L307.136 184.767" stroke="#EAEBE7" stroke-width="2.12598" stroke-linecap="round"/>
<path d="M313.247 201.326L303.8 199.113" stroke="#EAEBE7" stroke-width="2.12598" stroke-linecap="round"/>
<path d="M239.122 294.91L223.983 267.873" stroke="#EAEBE7" stroke-width="2.12598" stroke-linecap="round"/>
<path d="M264.225 276.186L258.372 269.446" stroke="#EAEBE7" stroke-width="2.12598" stroke-linecap="round"/>
<path d="M251.687 286.005L246.883 278.496" stroke="#EAEBE7" stroke-width="2.12598" stroke-linecap="round"/>
<path d="M286.046 253.245L278.579 248.319" stroke="#EAEBE7" stroke-width="2.12598" stroke-linecap="round"/>
<path d="M275.811 265.798L268.707 259.03" stroke="#EAEBE7" stroke-width="2.12598" stroke-linecap="round"/>
<path d="M197.421 308.002L195.633 299.16" stroke="#EAEBE7" stroke-width="2.12598" stroke-linecap="round"/>
<path d="M181.783 310.067L181.278 301.097" stroke="#EAEBE7" stroke-width="2.12598" stroke-linecap="round"/>
<path d="M227.486 299.342L223.417 291.241" stroke="#EAEBE7" stroke-width="2.12598" stroke-linecap="round"/>
<path d="M212.511 304.956L209.653 295.447" stroke="#EAEBE7" stroke-width="2.12598" stroke-linecap="round"/>
<path d="M214.632 23.9296L211.456 32.9531" stroke="#EAEBE7" stroke-width="2.12598" stroke-linecap="round"/>
<path d="M229.023 29.296L224.741 38.3404" stroke="#EAEBE7" stroke-width="2.12598" stroke-linecap="round"/>
<path d="M242.156 36.9549L226.552 64.7376" stroke="#EAEBE7" stroke-width="2.12598" stroke-linecap="round"/>
<path d="M255.6 45.4131L249.638 53.294" stroke="#EAEBE7" stroke-width="2.12598" stroke-linecap="round"/>
<path d="M267.234 56.1726L261.806 62.8482" stroke="#EAEBE7" stroke-width="2.12598" stroke-linecap="round"/>
<path d="M278.851 66.9164L272.326 74.2103" stroke="#EAEBE7" stroke-width="2.12598" stroke-linecap="round"/>
<path d="M288.825 79.4536L281.174 85.5736" stroke="#EAEBE7" stroke-width="2.12598" stroke-linecap="round"/>
<path d="M296.49 92.4284L270.74 109.048" stroke="#EAEBE7" stroke-width="2.12598" stroke-linecap="round"/>
<path d="M304.337 106.932L296.104 111.271" stroke="#EAEBE7" stroke-width="2.12598" stroke-linecap="round"/>
<path d="M309.882 121.866L301.075 125.02" stroke="#EAEBE7" stroke-width="2.12598" stroke-linecap="round"/>
<path d="M312.664 138.003L304.382 139.354" stroke="#EAEBE7" stroke-width="2.12598" stroke-linecap="round"/>
<path d="M315.436 153.537L307.145 154.291" stroke="#EAEBE7" stroke-width="2.12598" stroke-linecap="round"/>
<path d="M198.585 19.7622L197.06 28.157" stroke="#EAEBE7" stroke-width="2.12598" stroke-linecap="round"/>
<path d="M106.141 28.1792L110.17 37.6646" stroke="#EAEBE7" stroke-width="2.12598" stroke-linecap="round"/>
<path d="M120.526 22.1982L124.011 32.2914" stroke="#EAEBE7" stroke-width="2.12598" stroke-linecap="round"/>
<path d="M136.024 18.5996L137.849 28.7241" stroke="#EAEBE7" stroke-width="2.12598" stroke-linecap="round"/>
<path d="M152.077 16.1938L152.241 26.3495" stroke="#EAEBE7" stroke-width="2.12598" stroke-linecap="round"/>
<path d="M167.396 15L167.92 47.259" stroke="#EAEBE7" stroke-width="2.12598" stroke-linecap="round"/>
<path d="M183.073 16.1938L183.237 26.3495" stroke="#EAEBE7" stroke-width="2.12598" stroke-linecap="round"/>
<path d="M44.1694 76.6182L52.5866 83.6305" stroke="#EAEBE7" stroke-width="2.12598" stroke-linecap="round"/>
<path d="M54.6899 65.2593L62.544 71.6847" stroke="#EAEBE7" stroke-width="2.12598" stroke-linecap="round"/>
<path d="M66.3091 53.897L73.066 60.9406" stroke="#EAEBE7" stroke-width="2.12598" stroke-linecap="round"/>
<path d="M78.481 43.7285L84.1407 51.3904" stroke="#EAEBE7" stroke-width="2.12598" stroke-linecap="round"/>
<path d="M91.6064 35.4648L108.1 62.6427" stroke="#EAEBE7" stroke-width="2.12598" stroke-linecap="round"/>
<path d="M315.991 171.253L285.555 171.827" stroke="#EAEBE7" stroke-width="2.12598" stroke-linecap="round"/>
</g>
<path d="M108.344 75.78C107.504 75.8364 106.883 75.5077 106.482 74.794C106.289 74.4498 106.196 74.084 106.205 73.6966C106.213 73.3091 106.341 72.9318 106.587 72.5648C106.83 72.1913 107.197 71.8592 107.687 71.5683C108.172 71.2812 108.632 71.1229 109.068 71.0936C109.507 71.0542 109.892 71.1276 110.223 71.3137C110.554 71.4998 110.816 71.7649 111.01 72.109C111.21 72.4659 111.296 72.8354 111.268 73.2176C111.242 73.5897 111.123 73.9367 110.91 74.2585C111.343 74.1798 111.75 74.2318 112.129 74.4147C112.505 74.5911 112.808 74.8833 113.037 75.2912C113.27 75.7054 113.372 76.1334 113.344 76.5751C113.315 77.0168 113.164 77.4337 112.89 77.8258C112.615 78.2178 112.242 78.5537 111.771 78.8334C111.299 79.1131 110.83 79.2769 110.362 79.3249C109.9 79.3691 109.476 79.2934 109.09 79.0978C108.703 78.9022 108.394 78.5973 108.161 78.1831C107.928 77.7688 107.831 77.3504 107.87 76.9278C107.909 76.5052 108.067 76.1226 108.344 75.78ZM110.057 72.8526C109.856 72.4957 109.592 72.2869 109.264 72.2262C108.937 72.1656 108.581 72.249 108.198 72.4764C107.821 72.7002 107.576 72.9729 107.463 73.2946C107.35 73.6163 107.396 73.9588 107.6 74.3221C107.779 74.6407 108.039 74.8349 108.38 74.9046C108.724 74.9641 109.075 74.8877 109.434 74.6751C109.792 74.4625 110.03 74.1853 110.148 73.8434C110.266 73.5015 110.236 73.1712 110.057 72.8526ZM109.896 75.4972C109.481 75.7433 109.2 76.0498 109.054 76.4168C108.911 76.7736 108.949 77.1464 109.167 77.5351C109.371 77.8984 109.664 78.1201 110.044 78.2004C110.421 78.2743 110.827 78.1826 111.26 77.9253C111.688 77.6717 111.96 77.3575 112.076 76.9826C112.199 76.604 112.16 76.2363 111.959 75.8794C111.744 75.497 111.449 75.2771 111.073 75.2197C110.703 75.1586 110.311 75.2511 109.896 75.4972ZM113.236 72.9679C112.617 71.8654 112.316 70.8969 112.333 70.0624C112.353 69.2179 112.812 68.5289 113.712 67.9957C114.611 67.4624 115.418 67.3999 116.134 67.8082C116.852 68.2063 117.521 68.9567 118.141 70.0592C118.768 71.1744 119.073 72.1575 119.057 73.0085C119.043 73.8493 118.587 74.5364 117.688 75.0696C116.788 75.6029 115.978 75.6672 115.256 75.2627C114.536 74.8481 113.863 74.0831 113.236 72.9679ZM117.085 70.6857C116.795 70.1695 116.515 69.7534 116.245 69.4376C115.981 69.118 115.686 68.9063 115.36 68.8026C115.03 68.6925 114.666 68.7549 114.27 68.9899C113.874 69.2248 113.64 69.5166 113.568 69.8654C113.492 70.2078 113.52 70.5779 113.651 70.9758C113.789 71.37 114.003 71.8252 114.293 72.3414C114.594 72.8767 114.878 73.3074 115.145 73.6333C115.412 73.9593 115.709 74.1741 116.035 74.2778C116.368 74.3778 116.733 74.3104 117.129 74.0754C117.525 73.8405 117.761 73.5518 117.837 73.2095C117.919 72.8634 117.889 72.49 117.748 72.0895C117.607 71.6889 117.386 71.221 117.085 70.6857Z" fill="white"/>
<path d="M204.303 78.071L203.744 77.0768L205.706 75.9133L209.623 82.8821L208.538 83.5254L205.18 77.5508L204.303 78.071ZM210.861 80.172C211.168 79.285 211.399 78.5701 211.555 78.0273C211.714 77.4743 211.805 76.944 211.83 76.4364C211.855 75.9288 211.764 75.4902 211.556 75.1206C211.341 74.7382 211.082 74.4927 210.777 74.3842C210.48 74.2719 210.139 74.3295 209.755 74.557C209.384 74.777 209.163 75.0697 209.092 75.4349C209.023 75.79 209.095 76.1721 209.308 76.581L208.271 77.1963C207.881 76.4586 207.784 75.7774 207.977 75.1526C208.174 74.5177 208.59 74.012 209.225 73.6354C209.91 73.2289 210.552 73.1031 211.151 73.258C211.755 73.4092 212.237 73.8034 212.595 74.4407C212.853 74.8995 212.986 75.4114 212.993 75.9764C213.003 76.5313 212.942 77.0727 212.812 77.6006C212.684 78.1185 212.498 78.7427 212.255 79.4733L212.045 80.1074L215.035 78.3342L215.545 79.2423L210.961 81.9608L210.515 81.1674L210.861 80.172ZM214.534 75.2025C213.914 74.1 213.613 73.1315 213.631 72.2971C213.65 71.4525 214.11 70.7636 215.009 70.2303C215.908 69.6971 216.716 69.6346 217.432 70.0428C218.15 70.441 218.819 71.1913 219.439 72.2938C220.066 73.4091 220.371 74.3922 220.354 75.2431C220.341 76.084 219.884 76.771 218.985 77.3043C218.086 77.8375 217.275 77.9019 216.553 77.4974C215.834 77.0827 215.161 76.3178 214.534 75.2025ZM218.382 72.9203C218.092 72.4041 217.812 71.9881 217.543 71.6722C217.279 71.3526 216.984 71.141 216.657 71.0373C216.327 70.9272 215.964 70.9896 215.568 71.2245C215.172 71.4595 214.938 71.7513 214.865 72.1001C214.79 72.4424 214.817 72.8126 214.949 73.2105C215.086 73.6047 215.3 74.0598 215.591 74.576C215.891 75.1114 216.175 75.542 216.442 75.868C216.71 76.1939 217.006 76.4088 217.333 76.5125C217.666 76.6125 218.03 76.545 218.426 76.3101C218.823 76.0752 219.059 75.7865 219.134 75.4441C219.217 75.098 219.187 74.7247 219.046 74.3241C218.904 73.9236 218.683 73.4557 218.382 72.9203Z" fill="white"/>
<defs>
<filter id="filter0_d_405_1489" x="1.96375" y="167.342" width="39.1379" height="31.6638" filterUnits="userSpaceOnUse" color-interpolation-filters="sRGB">
<feFlood flood-opacity="0" result="BackgroundImageFix"/>
<feColorMatrix in="SourceAlpha" type="matrix" values="0 0 0 0 0 0 0 0 0 0 0 0 0 0 0 0 0 0 127 0" result="hardAlpha"/>
<feOffset dy="0.880501"/>
<feGaussianBlur stdDeviation="7.04401"/>
<feComposite in2="hardAlpha" operator="out"/>
<feColorMatrix type="matrix" values="0 0 0 0 1 0 0 0 0 1 0 0 0 0 1 0 0 0 0.28 0"/>
<feBlend mode="normal" in2="BackgroundImageFix" result="effect1_dropShadow_405_1489"/>
<feBlend mode="normal" in="SourceGraphic" in2="effect1_dropShadow_405_1489" result="shape"/>
</filter>
<filter id="filter1_d_405_1489" x="0.849001" y="155.202" width="60.1853" height="30.8577" filterUnits="userSpaceOnUse" color-interpolation-filters="sRGB">
<feFlood flood-opacity="0" result="BackgroundImageFix"/>
<feColorMatrix in="SourceAlpha" type="matrix" values="0 0 0 0 0 0 0 0 0 0 0 0 0 0 0 0 0 0 127 0" result="hardAlpha"/>
<feOffset dy="0.880501"/>
<feGaussianBlur stdDeviation="7.04401"/>
<feComposite in2="hardAlpha" operator="out"/>
<feColorMatrix type="matrix" values="0 0 0 0 1 0 0 0 0 1 0 0 0 0 1 0 0 0 0.28 0"/>
<feBlend mode="normal" in2="BackgroundImageFix" result="effect1_dropShadow_405_1489"/>
<feBlend mode="normal" in="SourceGraphic" in2="effect1_dropShadow_405_1489" result="shape"/>
</filter>
<filter id="filter2_d_405_1489" x="12.5048" y="210.352" width="40.1965" height="34.6721" filterUnits="userSpaceOnUse" color-interpolation-filters="sRGB">
<feFlood flood-opacity="0" result="BackgroundImageFix"/>
<feColorMatrix in="SourceAlpha" type="matrix" values="0 0 0 0 0 0 0 0 0 0 0 0 0 0 0 0 0 0 127 0" result="hardAlpha"/>
<feOffset dy="0.880501"/>
<feGaussianBlur stdDeviation="7.04401"/>
<feComposite in2="hardAlpha" operator="out"/>
<feColorMatrix type="matrix" values="0 0 0 0 1 0 0 0 0 1 0 0 0 0 1 0 0 0 0.28 0"/>
<feBlend mode="normal" in2="BackgroundImageFix" result="effect1_dropShadow_405_1489"/>
<feBlend mode="normal" in="SourceGraphic" in2="effect1_dropShadow_405_1489" result="shape"/>
</filter>
<filter id="filter3_d_405_1489" x="7.50769" y="197.212" width="39.6716" height="32.8699" filterUnits="userSpaceOnUse" color-interpolation-filters="sRGB">
<feFlood flood-opacity="0" result="BackgroundImageFix"/>
<feColorMatrix in="SourceAlpha" type="matrix" values="0 0 0 0 0 0 0 0 0 0 0 0 0 0 0 0 0 0 127 0" result="hardAlpha"/>
<feOffset dy="0.880501"/>
<feGaussianBlur stdDeviation="7.04401"/>
<feComposite in2="hardAlpha" operator="out"/>
<feColorMatrix type="matrix" values="0 0 0 0 1 0 0 0 0 1 0 0 0 0 1 0 0 0 0.28 0"/>
<feBlend mode="normal" in2="BackgroundImageFix" result="effect1_dropShadow_405_1489"/>
<feBlend mode="normal" in="SourceGraphic" in2="effect1_dropShadow_405_1489" result="shape"/>
</filter>
<filter id="filter4_d_405_1489" x="4.1825" y="182.28" width="39.1282" height="32.2615" filterUnits="userSpaceOnUse" color-interpolation-filters="sRGB">
<feFlood flood-opacity="0" result="BackgroundImageFix"/>
<feColorMatrix in="SourceAlpha" type="matrix" values="0 0 0 0 0 0 0 0 0 0 0 0 0 0 0 0 0 0 127 0" result="hardAlpha"/>
<feOffset dy="0.880501"/>
<feGaussianBlur stdDeviation="7.04401"/>
<feComposite in2="hardAlpha" operator="out"/>
<feColorMatrix type="matrix" values="0 0 0 0 1 0 0 0 0 1 0 0 0 0 1 0 0 0 0.28 0"/>
<feBlend mode="normal" in2="BackgroundImageFix" result="effect1_dropShadow_405_1489"/>
<feBlend mode="normal" in="SourceGraphic" in2="effect1_dropShadow_405_1489" result="shape"/>
</filter>
<filter id="filter5_d_405_1489" x="21.4447" y="213.798" width="54.9739" height="45.1091" filterUnits="userSpaceOnUse" color-interpolation-filters="sRGB">
<feFlood flood-opacity="0" result="BackgroundImageFix"/>
<feColorMatrix in="SourceAlpha" type="matrix" values="0 0 0 0 0 0 0 0 0 0 0 0 0 0 0 0 0 0 127 0" result="hardAlpha"/>
<feOffset dy="0.880501"/>
<feGaussianBlur stdDeviation="7.04401"/>
<feComposite in2="hardAlpha" operator="out"/>
<feColorMatrix type="matrix" values="0 0 0 0 1 0 0 0 0 1 0 0 0 0 1 0 0 0 0.28 0"/>
<feBlend mode="normal" in2="BackgroundImageFix" result="effect1_dropShadow_405_1489"/>
<feBlend mode="normal" in="SourceGraphic" in2="effect1_dropShadow_405_1489" result="shape"/>
</filter>
<filter id="filter6_d_405_1489" x="1.40076" y="136.865" width="39.7097" height="30.4792" filterUnits="userSpaceOnUse" color-interpolation-filters="sRGB">
<feFlood flood-opacity="0" result="BackgroundImageFix"/>
<feColorMatrix in="SourceAlpha" type="matrix" values="0 0 0 0 0 0 0 0 0 0 0 0 0 0 0 0 0 0 127 0" result="hardAlpha"/>
<feOffset dy="0.880501"/>
<feGaussianBlur stdDeviation="7.04401"/>
<feComposite in2="hardAlpha" operator="out"/>
<feColorMatrix type="matrix" values="0 0 0 0 1 0 0 0 0 1 0 0 0 0 1 0 0 0 0.28 0"/>
<feBlend mode="normal" in2="BackgroundImageFix" result="effect1_dropShadow_405_1489"/>
<feBlend mode="normal" in="SourceGraphic" in2="effect1_dropShadow_405_1489" result="shape"/>
</filter>
<filter id="filter7_d_405_1489" x="3.59021" y="120.313" width="39.7585" height="33.1125" filterUnits="userSpaceOnUse" color-interpolation-filters="sRGB">
<feFlood flood-opacity="0" result="BackgroundImageFix"/>
<feColorMatrix in="SourceAlpha" type="matrix" values="0 0 0 0 0 0 0 0 0 0 0 0 0 0 0 0 0 0 127 0" result="hardAlpha"/>
<feOffset dy="0.880501"/>
<feGaussianBlur stdDeviation="7.04401"/>
<feComposite in2="hardAlpha" operator="out"/>
<feColorMatrix type="matrix" values="0 0 0 0 1 0 0 0 0 1 0 0 0 0 1 0 0 0 0.28 0"/>
<feBlend mode="normal" in2="BackgroundImageFix" result="effect1_dropShadow_405_1489"/>
<feBlend mode="normal" in="SourceGraphic" in2="effect1_dropShadow_405_1489" result="shape"/>
</filter>
<filter id="filter8_d_405_1489" x="8.01355" y="105.371" width="39.2151" height="33.7205" filterUnits="userSpaceOnUse" color-interpolation-filters="sRGB">
<feFlood flood-opacity="0" result="BackgroundImageFix"/>
<feColorMatrix in="SourceAlpha" type="matrix" values="0 0 0 0 0 0 0 0 0 0 0 0 0 0 0 0 0 0 127 0" result="hardAlpha"/>
<feOffset dy="0.880501"/>
<feGaussianBlur stdDeviation="7.04401"/>
<feComposite in2="hardAlpha" operator="out"/>
<feColorMatrix type="matrix" values="0 0 0 0 1 0 0 0 0 1 0 0 0 0 1 0 0 0 0.28 0"/>
<feBlend mode="normal" in2="BackgroundImageFix" result="effect1_dropShadow_405_1489"/>
<feBlend mode="normal" in="SourceGraphic" in2="effect1_dropShadow_405_1489" result="shape"/>
</filter>
<filter id="filter9_d_405_1489" x="14.0927" y="90.4277" width="38.6809" height="34.9255" filterUnits="userSpaceOnUse" color-interpolation-filters="sRGB">
<feFlood flood-opacity="0" result="BackgroundImageFix"/>
<feColorMatrix in="SourceAlpha" type="matrix" values="0 0 0 0 0 0 0 0 0 0 0 0 0 0 0 0 0 0 127 0" result="hardAlpha"/>
<feOffset dy="0.880501"/>
<feGaussianBlur stdDeviation="7.04401"/>
<feComposite in2="hardAlpha" operator="out"/>
<feColorMatrix type="matrix" values="0 0 0 0 1 0 0 0 0 1 0 0 0 0 1 0 0 0 0.28 0"/>
<feBlend mode="normal" in2="BackgroundImageFix" result="effect1_dropShadow_405_1489"/>
<feBlend mode="normal" in="SourceGraphic" in2="effect1_dropShadow_405_1489" result="shape"/>
</filter>
<filter id="filter10_d_405_1489" x="21.1971" y="76.2627" width="57.1267" height="45.9314" filterUnits="userSpaceOnUse" color-interpolation-filters="sRGB">
<feFlood flood-opacity="0" result="BackgroundImageFix"/>
<feColorMatrix in="SourceAlpha" type="matrix" values="0 0 0 0 0 0 0 0 0 0 0 0 0 0 0 0 0 0 127 0" result="hardAlpha"/>
<feOffset dy="0.880501"/>
<feGaussianBlur stdDeviation="7.04401"/>
<feComposite in2="hardAlpha" operator="out"/>
<feColorMatrix type="matrix" values="0 0 0 0 1 0 0 0 0 1 0 0 0 0 1 0 0 0 0.28 0"/>
<feBlend mode="normal" in2="BackgroundImageFix" result="effect1_dropShadow_405_1489"/>
<feBlend mode="normal" in="SourceGraphic" in2="effect1_dropShadow_405_1489" result="shape"/>
</filter>
<filter id="filter11_d_405_1489" x="31.4598" y="235.416" width="37.2668" height="36.0427" filterUnits="userSpaceOnUse" color-interpolation-filters="sRGB">
<feFlood flood-opacity="0" result="BackgroundImageFix"/>
<feColorMatrix in="SourceAlpha" type="matrix" values="0 0 0 0 0 0 0 0 0 0 0 0 0 0 0 0 0 0 127 0" result="hardAlpha"/>
<feOffset dy="0.880501"/>
<feGaussianBlur stdDeviation="7.04401"/>
<feComposite in2="hardAlpha" operator="out"/>
<feColorMatrix type="matrix" values="0 0 0 0 1 0 0 0 0 1 0 0 0 0 1 0 0 0 0.28 0"/>
<feBlend mode="normal" in2="BackgroundImageFix" result="effect1_dropShadow_405_1489"/>
<feBlend mode="normal" in="SourceGraphic" in2="effect1_dropShadow_405_1489" result="shape"/>
</filter>
<filter id="filter12_d_405_1489" x="62.9886" y="266.707" width="36.7195" height="39.1912" filterUnits="userSpaceOnUse" color-interpolation-filters="sRGB">
<feFlood flood-opacity="0" result="BackgroundImageFix"/>
<feColorMatrix in="SourceAlpha" type="matrix" values="0 0 0 0 0 0 0 0 0 0 0 0 0 0 0 0 0 0 127 0" result="hardAlpha"/>
<feOffset dy="0.880501"/>
<feGaussianBlur stdDeviation="7.04401"/>
<feComposite in2="hardAlpha" operator="out"/>
<feColorMatrix type="matrix" values="0 0 0 0 1 0 0 0 0 1 0 0 0 0 1 0 0 0 0.28 0"/>
<feBlend mode="normal" in2="BackgroundImageFix" result="effect1_dropShadow_405_1489"/>
<feBlend mode="normal" in="SourceGraphic" in2="effect1_dropShadow_405_1489" result="shape"/>
</filter>
<filter id="filter13_d_405_1489" x="51.3871" y="258.163" width="37.1428" height="37.3611" filterUnits="userSpaceOnUse" color-interpolation-filters="sRGB">
<feFlood flood-opacity="0" result="BackgroundImageFix"/>
<feColorMatrix in="SourceAlpha" type="matrix" values="0 0 0 0 0 0 0 0 0 0 0 0 0 0 0 0 0 0 127 0" result="hardAlpha"/>
<feOffset dy="0.880501"/>
<feGaussianBlur stdDeviation="7.04401"/>
<feComposite in2="hardAlpha" operator="out"/>
<feColorMatrix type="matrix" values="0 0 0 0 1 0 0 0 0 1 0 0 0 0 1 0 0 0 0.28 0"/>
<feBlend mode="normal" in2="BackgroundImageFix" result="effect1_dropShadow_405_1489"/>
<feBlend mode="normal" in="SourceGraphic" in2="effect1_dropShadow_405_1489" result="shape"/>
</filter>
<filter id="filter14_d_405_1489" x="40.9437" y="247.218" width="36.9675" height="36.5549" filterUnits="userSpaceOnUse" color-interpolation-filters="sRGB">
<feFlood flood-opacity="0" result="BackgroundImageFix"/>
<feColorMatrix in="SourceAlpha" type="matrix" values="0 0 0 0 0 0 0 0 0 0 0 0 0 0 0 0 0 0 127 0" result="hardAlpha"/>
<feOffset dy="0.880501"/>
<feGaussianBlur stdDeviation="7.04401"/>
<feComposite in2="hardAlpha" operator="out"/>
<feColorMatrix type="matrix" values="0 0 0 0 1 0 0 0 0 1 0 0 0 0 1 0 0 0 0.28 0"/>
<feBlend mode="normal" in2="BackgroundImageFix" result="effect1_dropShadow_405_1489"/>
<feBlend mode="normal" in="SourceGraphic" in2="effect1_dropShadow_405_1489" result="shape"/>
</filter>
<filter id="filter15_d_405_1489" x="77.4882" y="257.509" width="44.4377" height="55.8206" filterUnits="userSpaceOnUse" color-interpolation-filters="sRGB">
<feFlood flood-opacity="0" result="BackgroundImageFix"/>
<feColorMatrix in="SourceAlpha" type="matrix" values="0 0 0 0 0 0 0 0 0 0 0 0 0 0 0 0 0 0 127 0" result="hardAlpha"/>
<feOffset dy="0.880501"/>
<feGaussianBlur stdDeviation="7.04401"/>
<feComposite in2="hardAlpha" operator="out"/>
<feColorMatrix type="matrix" values="0 0 0 0 1 0 0 0 0 1 0 0 0 0 1 0 0 0 0.28 0"/>
<feBlend mode="normal" in2="BackgroundImageFix" result="effect1_dropShadow_405_1489"/>
<feBlend mode="normal" in="SourceGraphic" in2="effect1_dropShadow_405_1489" result="shape"/>
</filter>
<filter id="filter16_d_405_1489" x="90.806" y="278.546" width="33.55" height="38.865" filterUnits="userSpaceOnUse" color-interpolation-filters="sRGB">
<feFlood flood-opacity="0" result="BackgroundImageFix"/>
<feColorMatrix in="SourceAlpha" type="matrix" values="0 0 0 0 0 0 0 0 0 0 0 0 0 0 0 0 0 0 127 0" result="hardAlpha"/>
<feOffset dy="0.880501"/>
<feGaussianBlur stdDeviation="7.04401"/>
<feComposite in2="hardAlpha" operator="out"/>
<feColorMatrix type="matrix" values="0 0 0 0 1 0 0 0 0 1 0 0 0 0 1 0 0 0 0.28 0"/>
<feBlend mode="normal" in2="BackgroundImageFix" result="effect1_dropShadow_405_1489"/>
<feBlend mode="normal" in="SourceGraphic" in2="effect1_dropShadow_405_1489" result="shape"/>
</filter>
<filter id="filter17_d_405_1489" x="134.874" y="289.733" width="31.5432" height="41.3103" filterUnits="userSpaceOnUse" color-interpolation-filters="sRGB">
<feFlood flood-opacity="0" result="BackgroundImageFix"/>
<feColorMatrix in="SourceAlpha" type="matrix" values="0 0 0 0 0 0 0 0 0 0 0 0 0 0 0 0 0 0 127 0" result="hardAlpha"/>
<feOffset dy="0.880501"/>
<feGaussianBlur stdDeviation="7.04401"/>
<feComposite in2="hardAlpha" operator="out"/>
<feColorMatrix type="matrix" values="0 0 0 0 1 0 0 0 0 1 0 0 0 0 1 0 0 0 0.28 0"/>
<feBlend mode="normal" in2="BackgroundImageFix" result="effect1_dropShadow_405_1489"/>
<feBlend mode="normal" in="SourceGraphic" in2="effect1_dropShadow_405_1489" result="shape"/>
</filter>
<filter id="filter18_d_405_1489" x="119.777" y="288.074" width="32.801" height="39.9431" filterUnits="userSpaceOnUse" color-interpolation-filters="sRGB">
<feFlood flood-opacity="0" result="BackgroundImageFix"/>
<feColorMatrix in="SourceAlpha" type="matrix" values="0 0 0 0 0 0 0 0 0 0 0 0 0 0 0 0 0 0 127 0" result="hardAlpha"/>
<feOffset dy="0.880501"/>
<feGaussianBlur stdDeviation="7.04401"/>
<feComposite in2="hardAlpha" operator="out"/>
<feColorMatrix type="matrix" values="0 0 0 0 1 0 0 0 0 1 0 0 0 0 1 0 0 0 0.28 0"/>
<feBlend mode="normal" in2="BackgroundImageFix" result="effect1_dropShadow_405_1489"/>
<feBlend mode="normal" in="SourceGraphic" in2="effect1_dropShadow_405_1489" result="shape"/>
</filter>
<filter id="filter19_d_405_1489" x="105.013" y="284.049" width="33.0417" height="39.155" filterUnits="userSpaceOnUse" color-interpolation-filters="sRGB">
<feFlood flood-opacity="0" result="BackgroundImageFix"/>
<feColorMatrix in="SourceAlpha" type="matrix" values="0 0 0 0 0 0 0 0 0 0 0 0 0 0 0 0 0 0 127 0" result="hardAlpha"/>
<feOffset dy="0.880501"/>
<feGaussianBlur stdDeviation="7.04401"/>
<feComposite in2="hardAlpha" operator="out"/>
<feColorMatrix type="matrix" values="0 0 0 0 1 0 0 0 0 1 0 0 0 0 1 0 0 0 0.28 0"/>
<feBlend mode="normal" in2="BackgroundImageFix" result="effect1_dropShadow_405_1489"/>
<feBlend mode="normal" in="SourceGraphic" in2="effect1_dropShadow_405_1489" result="shape"/>
</filter>
<filter id="filter20_d_405_1489" x="150.902" y="270.356" width="30.4275" height="59.675" filterUnits="userSpaceOnUse" color-interpolation-filters="sRGB">
<feFlood flood-opacity="0" result="BackgroundImageFix"/>
<feColorMatrix in="SourceAlpha" type="matrix" values="0 0 0 0 0 0 0 0 0 0 0 0 0 0 0 0 0 0 127 0" result="hardAlpha"/>
<feOffset dy="0.880501"/>
<feGaussianBlur stdDeviation="7.04401"/>
<feComposite in2="hardAlpha" operator="out"/>
<feColorMatrix type="matrix" values="0 0 0 0 1 0 0 0 0 1 0 0 0 0 1 0 0 0 0.28 0"/>
<feBlend mode="normal" in2="BackgroundImageFix" result="effect1_dropShadow_405_1489"/>
<feBlend mode="normal" in="SourceGraphic" in2="effect1_dropShadow_405_1489" result="shape"/>
</filter>
<filter id="filter21_d_405_1489" x="29.0184" y="0.729502" width="302.133" height="325.379" filterUnits="userSpaceOnUse" color-interpolation-filters="sRGB">
<feFlood flood-opacity="0" result="BackgroundImageFix"/>
<feColorMatrix in="SourceAlpha" type="matrix" values="0 0 0 0 0 0 0 0 0 0 0 0 0 0 0 0 0 0 127 0" result="hardAlpha"/>
<feOffset dy="0.880501"/>
<feGaussianBlur stdDeviation="7.04401"/>
<feComposite in2="hardAlpha" operator="out"/>
<feColorMatrix type="matrix" values="0 0 0 0 1 0 0 0 0 1 0 0 0 0 1 0 0 0 0.28 0"/>
<feBlend mode="normal" in2="BackgroundImageFix" result="effect1_dropShadow_405_1489"/>
<feBlend mode="normal" in="SourceGraphic" in2="effect1_dropShadow_405_1489" result="shape"/>
</filter>
</defs>
</svg>
